<svg width="161" height="130" viewBox="0 0 161 130" fill="none" xmlns="http://www.w3.org/2000/svg">
<path d="M60.1396 33.8419C58.3475 36.7785 56.5424 39.6949 54.7243 42.5913C52.9653 45.3954 51.6602 47.4866 50.8089 48.865C49.4656 51.0375 48.1484 53.1217 46.8573 55.1176C46.4758 55.7069 45.8991 56.6285 45.127 57.8825C44.4052 59.0551 43.8279 59.9757 43.3952 60.6443C43.1763 60.9847 43.0012 61.2532 42.8696 61.45C42.6377 61.7974 42.326 62.2963 41.9345 62.9469C41.5379 63.6045 41.2292 64.1054 41.0083 64.4498C39.4602 66.8673 38.6179 68.1915 38.4814 68.4224C37.5608 69.9665 36.481 71.6988 35.2421 73.6193C35.0358 73.9401 34.8657 74.3151 34.6262 74.6358C34.5148 74.7854 34.3516 75.0329 34.1368 75.3783C33.2694 76.7697 32.787 77.5483 32.6896 77.7139C32.1957 78.5527 31.765 79.0467 31.3237 79.881C31.003 80.4894 30.5753 81.0481 30.1913 81.6986C29.8499 82.2759 29.5653 82.7282 29.3374 83.0555C28.7305 83.9289 28.2547 84.8249 27.6568 85.7646C27.1297 86.5939 26.7146 87.2575 26.4114 87.7554C26.184 88.1319 25.9566 88.3623 25.7654 88.7508C25.7483 88.786 25.6093 89.0079 25.3482 89.4165C24.6937 90.4425 23.1596 92.8665 20.7461 96.6886C20.576 96.9581 20.4178 97.3316 20.2627 97.5635C18.9556 99.5167 18.3246 100.551 17.1184 102.473C13.8033 107.757 12.0836 110.492 11.9591 110.679C11.68 111.095 10.5606 112.893 8.60087 116.071C8.32981 116.51 8.10693 116.772 7.91417 117.139C7.77462 117.405 7.6155 117.68 7.43679 117.963C5.81241 120.524 4.5404 122.538 3.62079 124.006C3.1675 124.729 2.75187 125.242 2.45671 125.809C2.02601 126.629 1.63146 127.196 1.02156 128.158C1.00831 128.179 1.00088 128.202 1.00007 128.227C0.999265 128.252 1.0051 128.276 1.01696 128.298C1.02883 128.319 1.04629 128.337 1.0675 128.35C1.08872 128.362 1.1129 128.369 1.13752 128.369H159.695C159.713 128.369 159.731 128.364 159.747 128.355C159.763 128.345 159.776 128.332 159.784 128.316C159.793 128.3 159.798 128.282 159.797 128.264C159.797 128.245 159.792 128.228 159.782 128.212L155.243 120.886C155.235 120.873 155.225 120.86 155.214 120.848C154.847 120.463 154.596 119.922 154.273 119.354C154.047 118.955 153.776 118.654 153.579 118.264C153.532 118.171 153.362 117.897 153.07 117.443C151.865 115.574 150.772 113.695 149.478 111.694C148.559 110.27 147.122 107.967 145.167 104.784C144.727 104.069 144.352 103.565 144.051 103.021C143.859 102.673 143.585 102.228 143.229 101.687C143.036 101.394 142.261 100.181 140.902 98.0499C140.092 96.7789 139.389 95.5471 138.609 94.3589C138.07 93.5387 137.489 92.6211 136.868 91.6061C135.801 89.8652 134.735 88.1671 133.671 86.5115C133.589 86.385 133.437 86.1446 133.213 85.7902C132.218 84.215 131.524 83.1287 131.13 82.5314C130.675 81.8387 130.299 81.0707 129.808 80.39C129.777 80.3468 129.612 80.0928 129.314 79.628C129.005 79.1471 127.987 77.5232 126.26 74.7563C125.058 72.8317 124.04 71.2074 123.205 69.8832C121.523 67.2157 119.783 64.4187 117.984 61.4922C117.378 60.5088 116.741 59.5887 116.16 58.6113C116.137 58.5712 115.68 57.8473 114.791 56.4398C112.29 52.4792 110.577 49.7625 109.651 48.2897C106.607 43.4487 104.006 39.2703 101.848 35.7544C101.276 34.8258 100.888 34.2069 100.683 33.8976C100.677 33.8889 100.669 33.8818 100.66 33.8772C100.65 33.8725 100.64 33.8704 100.629 33.871C100.618 33.8716 100.608 33.8749 100.599 33.8806C100.59 33.8864 100.583 33.8943 100.578 33.9037C99.6279 35.6731 98.5541 37.2333 97.5376 38.9575C96.9885 39.8872 96.35 40.9423 95.6221 42.123C95.608 42.1451 94.9771 43.151 93.7291 45.1409C92.6569 46.8516 91.6475 48.5016 90.7007 50.0908C90.2219 50.895 89.5562 51.8543 89.0412 52.797C88.7571 53.316 88.603 53.5871 88.5789 53.6102C88.4765 53.7096 88.1748 54.1663 87.6738 54.9805C86.3326 57.1621 84.7975 59.6971 83.0687 62.5855C82.8127 63.0121 82.4428 63.6075 81.9589 64.3715C81.5181 65.0672 81.0478 65.901 80.5478 66.8728C80.5398 66.8882 80.5279 66.9011 80.5132 66.9103C80.4986 66.9196 80.4818 66.9248 80.4645 66.9254C80.4472 66.926 80.43 66.922 80.4148 66.9138C80.3995 66.9057 80.3867 66.8936 80.3776 66.8788C79.964 66.1841 79.6874 65.6867 79.5479 65.3865C79.2919 64.8413 78.9259 64.4528 78.6383 63.9227C78.063 62.864 77.2001 61.6759 76.7017 60.8326C75.6847 59.1068 74.6029 57.3353 73.4564 55.5182C72.7366 54.3782 72.0544 53.1509 71.3255 52.0003C70.7392 51.0757 70.1976 50.2023 69.7007 49.38C67.6887 46.0499 65.9022 43.1189 64.3411 40.5869C64.3341 40.5749 64.194 40.3219 63.9209 39.828C63.7864 39.585 63.6212 39.3325 63.4255 39.0705" stroke="#9CA4A6" stroke-width="2"/>
<path d="M63.4255 39.0705C63.6825 38.5223 63.9947 37.9797 64.3621 37.4426C64.6252 37.0591 64.7969 36.79 64.8772 36.6354C65.2491 35.9171 65.585 35.3298 66.094 34.5768C66.9343 33.3329 67.6556 32.212 68.258 31.2141C69.3483 29.406 69.8949 28.4994 69.8979 28.4944C69.9351 28.397 70.6107 27.3133 71.9249 25.2431C72.2311 24.7602 72.5413 24.2507 72.8556 23.7146C73.613 22.421 74.5045 21.1078 75.1476 19.9724C75.5602 19.2435 76.0135 18.5061 76.5074 17.7602C76.7443 17.4028 77.2478 16.573 78.0179 15.2709C78.3883 14.6429 78.8341 14.152 79.1849 13.5195C79.5424 12.876 79.9309 12.2169 80.3505 11.5422C80.3559 11.5336 80.363 11.5262 80.3715 11.5206C80.38 11.5151 80.3896 11.5114 80.3997 11.51C80.4098 11.5086 80.42 11.5094 80.4297 11.5123C80.4395 11.5153 80.4484 11.5204 80.4559 11.5272C80.5232 11.5874 80.5844 11.6642 80.6397 11.7576C81.9217 13.9181 83.3087 16.1775 84.8005 18.5357C85.2568 19.2571 85.6182 20.0145 86.1137 20.7494C87.2883 22.4918 88.2175 24.1468 89.4373 25.9554C89.4421 25.9624 89.4484 25.9682 89.4558 25.9723C89.4631 25.9765 89.4713 25.9789 89.4797 25.9793C89.488 25.9798 89.4963 25.9783 89.5038 25.9749C89.5114 25.9715 89.518 25.9664 89.5231 25.9599C90.1511 25.1799 90.8995 24.4736 91.5456 23.6032C91.8608 23.1805 92.3728 22.557 93.0816 21.7328C93.1179 21.6905 93.1398 21.6376 93.1441 21.5819C93.1484 21.5262 93.135 21.4704 93.1057 21.4226L80.477 1.01432C80.4743 1.01005 80.4706 1.00651 80.4662 1.00403C80.4618 1.00154 80.4568 1.00016 80.4517 1.00001C80.4465 0.999866 80.4414 1.00095 80.4366 1.00318C80.4318 1.00541 80.4276 1.00871 80.4243 1.01282C79.9233 1.72261 79.4992 2.41684 79.1518 3.09551C78.8787 3.62961 78.559 4.15719 78.1925 4.67824C77.4888 5.68118 76.8954 6.62088 76.4125 7.49732C76.1656 7.94759 75.8041 8.29094 75.5813 8.75476C75.4598 9.00876 75.2695 9.33254 75.0105 9.72609C74.5377 10.4444 74.2169 11.0769 73.741 11.7455C73.2652 12.4111 72.8616 13.274 72.3511 14.0767C70.5199 16.959 69.1058 19.2259 68.1089 20.8774C68.0557 20.9658 67.9016 21.2203 67.6466 21.6409C66.9207 22.8387 66.1788 24.0479 65.4208 25.2687C64.7808 26.2973 64.0308 27.2415 63.5535 28.1977C63.3848 28.5351 63.1589 28.8121 62.8607 29.2428C62.7423 29.4155 62.5842 29.6861 62.3864 30.0545C62.1213 30.5495 61.7253 31.195 61.1982 31.9911C60.899 32.4439 60.5461 33.0609 60.1395 33.8419" stroke="#C4D3C7" stroke-width="2"/>
<path d="M63.4255 39.0705L60.1395 33.8419" stroke="#61786D" stroke-width="2"/>
<path d="M73.1266 34.1145C72.8691 34.5934 72.5047 34.8599 71.943 35.3825C71.701 35.6084 71.4515 35.8699 71.1945 36.1671C70.1805 37.3437 69.3207 38.3125 68.6149 39.0735C68.6055 39.0839 68.6001 39.0973 68.5995 39.1114C68.599 39.1254 68.6033 39.1391 68.6119 39.1503C69.5405 40.3932 70.4953 41.5548 71.4761 42.635C72.6538 43.9286 73.3314 44.8126 74.3027 46.0128C74.8429 46.6804 75.5542 47.5152 76.4366 48.5171C77.7066 49.9598 78.8988 51.3724 80.0132 52.7548C80.2331 53.0274 80.4876 53.2653 80.7421 52.8843C81.2712 52.0942 81.864 51.3553 82.5206 50.6676C83.4783 49.6646 83.9934 48.856 84.9391 47.7627C85.2071 47.4524 85.5269 47.0298 85.8983 46.4947C86.2688 45.9646 87.0413 45.2387 87.4826 44.6153C88.0232 43.8503 88.6873 43.2645 89.3108 42.4739C91.1856 40.0945 93.8376 36.8809 95.8721 34.3208C96.4534 33.5889 96.8966 33.0558 97.2018 32.7215C98.259 31.5635 98.9472 30.6193 100.241 29.0561C100.83 28.3443 101.497 27.5231 102.242 26.5924C103.031 25.6075 103.951 24.6543 104.74 23.6197C105.096 23.1529 105.652 22.5882 106.1 22.0204C107.643 20.0718 108.516 18.9815 108.718 18.7496C110.074 17.1924 111.423 15.5485 112.764 13.8177C113.455 12.9262 114.338 12.0407 114.922 11.2154C114.933 11.1995 114.94 11.1811 114.942 11.1618C114.945 11.1425 114.942 11.1229 114.935 11.1049C114.928 11.0868 114.916 11.0708 114.901 11.0583C114.886 11.0458 114.869 11.0372 114.85 11.0332C114.797 11.0222 114.742 11.0172 114.686 11.0182C110.979 11.0643 108.449 11.0523 107.094 10.982C106.141 10.9338 105.897 11.7817 105.319 12.3419C104.762 12.8825 104.402 13.5556 103.878 14.1625C102.742 15.4747 102.13 16.184 102.042 16.2904C101.455 17.0032 99.9913 18.7907 97.6521 21.653C96.9187 22.549 96.1702 23.3984 95.4805 24.2989C95.3289 24.4967 94.2226 25.8249 92.1615 28.2836C91.0456 29.6148 89.7686 31.2156 88.5864 32.595C87.0273 34.4152 86.1202 35.4964 85.8652 35.8388C85.4476 36.4 85.1208 36.8091 84.8849 37.0661C84.0129 38.0209 83.7238 38.4485 82.8383 39.5584C82.0507 40.5463 81.2571 41.4016 80.5433 42.388C80.5276 42.4096 80.5071 42.4273 80.4835 42.4397C80.4599 42.452 80.4337 42.4588 80.407 42.4593C80.3803 42.4599 80.3539 42.4543 80.3297 42.443C80.3055 42.4317 80.2843 42.4149 80.2677 42.3941C79.6402 41.609 79.0339 40.8987 78.4486 40.2632C77.9536 39.7241 77.3126 38.9445 76.5255 37.9245C76.1942 37.4958 75.9236 37.165 75.7138 36.9321C75.1144 36.2665 74.7274 35.6791 74.0995 35.0135C73.8776 34.7796 73.596 34.4744 73.2546 34.0979C73.246 34.0888 73.2353 34.0818 73.2234 34.0776C73.2116 34.0734 73.1989 34.072 73.1864 34.0736C73.1739 34.0752 73.162 34.0798 73.1516 34.0869C73.1412 34.094 73.1327 34.1034 73.1266 34.1145Z" stroke="#C4D3C7" stroke-width="2"/>
<path d="M21.3003 106.054C21.2924 106.067 21.2881 106.083 21.288 106.098C21.2878 106.114 21.2917 106.129 21.2994 106.143C21.307 106.156 21.318 106.167 21.3314 106.175C21.3448 106.183 21.36 106.188 21.3756 106.188C26.5319 106.272 32.3658 106.195 37.1953 106.214C40.5816 106.228 46.7067 106.231 55.5706 106.224C55.9129 106.223 56.1313 106.188 56.2257 106.12C56.2666 106.09 56.3031 106.055 56.3341 106.015C56.3562 105.986 56.5424 105.659 56.8928 105.036C57.0474 104.761 57.2432 104.441 57.4801 104.075C58.0584 103.182 58.7044 102.153 59.4182 100.988C59.9473 100.125 60.6255 99.0554 61.4527 97.7804C61.9903 96.9506 62.5415 95.8889 63.1529 95.029C63.1989 94.965 63.2373 94.8963 63.2674 94.8242C63.3386 94.6556 63.3858 94.5527 63.4089 94.5155C63.8888 93.7525 64.2708 93.1205 64.5549 92.6196C65.3787 91.1709 66.5563 89.4873 67.2852 88.156C67.5833 87.6109 67.9538 87.2374 68.2504 86.6697C68.4231 86.3414 68.6355 85.9749 68.8875 85.5703C69.2639 84.968 69.778 84.1402 70.4295 83.0871C70.8753 82.3657 71.2412 81.6173 71.7141 80.9306C71.9078 80.6495 72.2361 80.1154 72.6989 79.3283C73.2772 78.3449 74.0708 77.1929 74.6551 76.1809C75.0025 75.5765 75.6957 74.4215 76.7348 72.7158C76.8171 72.5813 76.9476 72.3755 77.1263 72.0984C77.2338 71.9327 77.2328 71.7666 77.1233 71.5999C75.6556 69.3732 74.1978 67.058 72.7501 64.6546C72.0981 63.5733 71.3496 62.4966 70.8527 61.6503C69.1284 58.7092 67.4583 56.1973 65.7868 53.4023C64.827 51.798 64.1267 50.6586 63.686 49.9839C62.9767 48.8996 62.2855 47.4826 61.4813 46.323C61.1229 45.805 60.8503 45.2101 60.4332 44.6454C60.3444 44.5234 60.3188 44.29 60.2103 44.171C60.2015 44.1614 60.1907 44.1538 60.1786 44.1489C60.1665 44.144 60.1535 44.142 60.1405 44.1428C60.1276 44.1437 60.1151 44.1475 60.104 44.154C60.0928 44.1604 60.0834 44.1693 60.0763 44.1801C59.5522 44.9511 59.1276 45.6147 58.8023 46.1709C58.3073 47.0172 57.9002 47.6909 57.581 48.1919C55.9435 50.76 54.1781 53.5635 52.2847 56.6024C52.0839 56.9257 51.9514 57.1556 51.8871 57.2921C51.6221 57.8569 51.2305 58.3147 50.9203 58.8297C50.6914 59.2072 49.9234 60.4475 48.6162 62.5508C47.9145 63.6813 47.1299 64.9126 46.2625 66.2449C45.3398 67.6644 44.483 69.0323 43.6919 70.3485C42.6784 72.0366 41.43 73.8949 40.2915 75.7412C39.7333 76.6468 39.4181 77.1542 39.3458 77.2637C38.7364 78.1984 38.4121 78.7003 38.373 78.7696C38.1159 79.2254 37.629 80.014 36.9122 81.1354C35.4826 83.3732 33.943 85.8324 32.2935 88.5129C32.1691 88.7157 31.9156 89.0962 31.5331 89.6544C31.2605 90.055 31.1159 90.4616 30.8388 90.823C30.6902 91.0168 30.5015 91.2999 30.2726 91.6723C28.8239 94.0226 28.0042 95.3418 27.8134 95.6299C27.3361 96.3512 27.0364 96.9416 26.556 97.687C25.6876 99.0313 24.8006 100.405 23.895 101.809C23.627 102.222 23.3459 102.685 23.0517 103.196C22.9242 103.418 22.6381 103.877 22.1933 104.574C21.9524 104.951 21.6547 105.444 21.3003 106.054Z" stroke="#9CA4A6" stroke-width="2"/>
<path d="M100.717 44.1304C100.675 44.1274 100.644 44.1444 100.623 44.1816C99.9125 45.3873 99.3287 46.3346 98.8719 47.0233C98.5119 47.5654 98.2891 48.0488 97.9758 48.5774C97.9608 48.6024 97.9529 48.6309 97.9529 48.6599C97.9529 48.6888 97.9608 48.7171 97.9758 48.7415C99.1715 50.7253 100.102 52.2312 100.766 53.2593C101.601 54.5514 102.15 55.5438 103.037 56.8901C104.224 58.6911 105.085 60.1474 106.602 62.59C108.567 65.7569 110.948 69.3711 112.452 71.8981C112.857 72.5773 113.549 73.4868 113.934 74.2473C114.157 74.6886 114.47 75.0289 114.701 75.4626C115.045 76.1117 115.57 76.7878 115.941 77.4278C116.121 77.738 116.343 78.0965 116.607 78.5031C118.054 80.7273 119.711 83.4907 121.399 86.1396C122.182 87.3674 122.587 88.0029 122.613 88.0461C123.841 90.0339 124.98 91.836 126.03 93.4524C126.37 93.9779 126.668 94.5743 127.076 95.148C127.269 95.4191 127.541 95.8392 127.891 96.4085C128.715 97.7427 129.175 98.4937 129.269 98.6613C129.739 99.4941 130.117 99.9429 130.573 100.715C131.078 101.569 131.677 102.516 132.37 103.557C132.91 104.372 133.282 105.158 133.829 105.935C134.11 106.332 134.484 106.92 134.951 107.701C135.689 108.933 136.368 109.974 136.997 111.023C137.149 111.275 137.372 111.62 137.667 112.057C138.124 112.732 138.976 114.081 140.221 116.103C140.748 116.956 142.12 119.201 144.34 122.837C144.36 122.871 144.389 122.898 144.423 122.917C144.456 122.936 144.494 122.946 144.533 122.946H149.793C149.808 122.946 149.822 122.943 149.836 122.937C149.849 122.931 149.861 122.923 149.871 122.912C149.881 122.902 149.889 122.889 149.893 122.875C149.898 122.862 149.9 122.847 149.899 122.833C149.891 122.72 149.834 122.576 149.73 122.399C149.455 121.931 149.171 121.489 148.878 121.071C148.677 120.784 148.405 120.333 148.061 119.717C147.796 119.24 147.489 118.737 147.14 118.207C146.527 117.279 145.905 116.262 145.272 115.154C145.21 115.046 145.108 114.891 144.965 114.69C144.616 114.196 144.346 113.692 143.687 112.63C143.472 112.285 142.302 110.454 140.178 107.137C139.618 106.262 139.113 105.343 138.566 104.527C138.226 104.018 137.933 103.549 137.689 103.119C136.829 101.619 135.505 99.7893 134.934 98.8285C134.82 98.6357 134.61 98.2065 134.433 97.9686C134.014 97.4024 133.666 96.7669 133.364 96.297C132.451 94.8815 131.886 93.9915 131.668 93.627C130.297 91.334 129.078 89.3773 128.008 87.757C127.63 87.1827 127.095 86.3218 126.405 85.1743C125.62 83.8702 124.748 82.6248 123.974 81.3056C123.683 80.8116 123.275 80.3132 123.022 79.7394C122.995 79.6763 122.962 79.6163 122.923 79.5602C122.494 78.9348 122.057 78.2616 121.611 77.5408C121.488 77.341 121.344 77.1136 121.179 76.8586C120.15 75.2713 119.206 73.7604 118.348 72.3258C117.621 71.112 117.032 70.2672 116.223 68.9359C116.097 68.7261 115.489 67.7789 114.399 66.0943C114.073 65.5868 113.812 65.0928 113.47 64.6154C113.266 64.3303 113.028 63.9644 112.753 63.5176C110.009 59.047 107.128 54.4053 104.112 49.5924C103.868 49.2008 103.656 48.854 103.478 48.5518C103.055 47.8304 102.646 47.3229 102.244 46.5399C102.1 46.2618 101.896 45.949 101.631 45.6017C101.593 45.5526 101.559 45.5001 101.531 45.445C101.328 45.0485 101.07 44.6173 100.759 44.1515C100.751 44.1384 100.737 44.1314 100.717 44.1304Z" stroke="#9CA4A6" stroke-width="2"/>
<path d="M52.5587 122.943H79.7497C79.7696 122.943 79.7888 122.935 79.8029 122.921C79.817 122.907 79.825 122.887 79.825 122.868V92.3123C79.825 92.2924 79.8329 92.2732 79.847 92.2591C79.8611 92.245 79.8803 92.2371 79.9003 92.2371H103.031C103.06 92.2371 103.088 92.2486 103.109 92.2693C103.13 92.2899 103.141 92.3178 103.141 92.347V122.797C103.141 122.833 103.156 122.869 103.182 122.895C103.208 122.921 103.243 122.935 103.28 122.935H138.369C138.383 122.935 138.396 122.932 138.408 122.926C138.42 122.92 138.43 122.912 138.438 122.901C138.446 122.89 138.452 122.878 138.454 122.865C138.456 122.852 138.456 122.838 138.452 122.825C138.286 122.241 137.905 121.911 137.613 121.404C137.324 120.904 137.138 120.6 137.056 120.493C136.891 120.279 136.11 119.005 134.711 116.672C134.379 116.117 133.527 114.787 132.156 112.681C131.849 112.21 131.589 111.795 131.377 111.438C130.95 110.715 130.698 110.297 130.621 110.183C129.48 108.494 128.248 106.544 126.927 104.333C126.012 102.8 125.021 101.312 123.906 99.5829C123.03 98.2216 122.449 97.1343 121.629 95.8724C121.385 95.4959 121.089 94.9969 120.741 94.3755C120.732 94.3593 120.718 94.3461 120.702 94.3377C120.685 94.3293 120.666 94.326 120.648 94.3283C120.63 94.3305 120.612 94.3382 120.598 94.3504C120.584 94.3626 120.574 94.3786 120.569 94.3966C120.514 94.5973 120.485 94.8222 120.483 95.0712C120.471 97.5078 120.545 99.9865 120.513 102.548C120.486 104.816 120.495 107.567 120.539 110.801C120.539 110.815 120.537 110.829 120.531 110.842C120.526 110.855 120.518 110.867 120.508 110.877C120.498 110.887 120.486 110.895 120.472 110.901C120.459 110.906 120.445 110.909 120.431 110.909H106.546C106.517 110.909 106.49 110.898 106.469 110.878C106.449 110.858 106.438 110.83 106.438 110.802V92.347C106.438 92.3198 106.448 92.2938 106.468 92.2746C106.487 92.2554 106.513 92.2446 106.54 92.2446H119.008C119.038 92.2446 119.068 92.2363 119.094 92.2207C119.121 92.2051 119.142 92.1828 119.157 92.156C119.171 92.1292 119.179 92.0989 119.177 92.0684C119.176 92.0379 119.167 92.0083 119.151 91.9826C118.716 91.3129 118.279 90.6262 117.84 89.9225C117.481 89.3452 117.269 89.0033 117.205 88.8969C116.868 88.3327 116.469 87.6897 116.008 86.9678C114.621 84.7918 112.991 82.0179 111.632 79.9277C111.33 79.4648 110.236 77.7486 108.347 74.7789C107.617 73.6304 106.981 72.5963 106.438 71.6767C105.716 70.4569 103.997 67.7362 101.28 63.5146C100.99 63.0638 100.671 62.5538 100.325 61.9846C99.5209 60.6624 98.908 59.6203 97.9397 58.1626C96.7832 56.4217 95.8179 54.8556 95.0438 53.4641C95.0355 53.4492 95.0231 53.437 95.0081 53.4289C94.9931 53.4208 94.9762 53.417 94.9592 53.4181C94.9422 53.4192 94.9258 53.4251 94.912 53.4351C94.8982 53.4451 94.8875 53.4588 94.8812 53.4746C94.7336 53.8481 94.578 54.1282 94.4143 54.3149C94.2557 54.4946 94.1443 54.6633 94.08 54.8209C94.0529 54.8872 93.9485 55.0629 93.7668 55.348C92.1273 57.9291 90.5517 60.4817 89.0397 63.0056C88.852 63.3188 88.4494 63.9885 87.832 65.0145C87.2587 65.9662 86.4937 67.1911 85.5369 68.689C85.2056 69.207 84.8954 69.7105 84.6063 70.1994C83.0311 72.8604 81.1939 75.7081 79.6277 78.3479C78.7121 79.8885 77.92 81.0556 77.0541 82.6022C76.7187 83.2025 76.0019 84.3716 74.9036 86.1095C74.4217 86.873 74.0136 87.6952 73.485 88.397C73.1733 88.8126 73.0212 89.2297 72.6944 89.7192C72.1553 90.5273 71.4942 91.6216 70.7111 93.0021C70.5856 93.2229 70.4531 93.4257 70.3136 93.6105C69.9506 94.0909 69.7323 94.5983 69.3543 95.157C69.0531 95.6028 68.8272 96.1028 68.5531 96.4672C68.1526 97.0003 67.9914 97.4762 67.5969 98.0243C67.3479 98.3677 67.0472 98.8656 66.6948 99.5182C66.4373 99.9956 66.1241 100.34 65.9178 100.786C65.8053 101.029 65.6106 101.345 65.3335 101.735C64.7989 102.485 64.3682 103.375 63.823 104.263C62.552 106.335 61.66 107.795 61.147 108.646C60.642 109.481 60.1034 110.346 59.5312 111.24C58.8665 112.278 58.3284 113.145 57.9168 113.841C57.7672 114.094 57.6056 114.366 57.4319 114.657C56.9078 115.538 56.3838 116.413 55.8597 117.284C55.5997 117.715 55.295 118.187 54.9456 118.699C54.524 119.319 54.2323 119.799 54.0707 120.142C53.7605 120.797 53.3027 121.309 53.0331 121.917C52.9036 122.208 52.616 122.484 52.4654 122.794C52.4577 122.81 52.4542 122.827 52.4552 122.845C52.4562 122.862 52.4616 122.879 52.4709 122.894C52.4802 122.909 52.4932 122.921 52.5085 122.93C52.5239 122.938 52.5412 122.943 52.5587 122.943Z" stroke="#9CA4A6" stroke-width="2"/>
<path d="M115.972 97.0169C115.972 96.9999 115.968 96.983 115.962 96.9673C115.955 96.9516 115.946 96.9373 115.934 96.9253C115.922 96.9133 115.907 96.9037 115.892 96.8972C115.876 96.8907 115.859 96.8874 115.842 96.8874H110.818C110.801 96.8874 110.785 96.8907 110.769 96.8972C110.753 96.9037 110.739 96.9133 110.727 96.9253C110.715 96.9373 110.705 96.9516 110.699 96.9673C110.692 96.983 110.689 96.9999 110.689 97.0169V106.128C110.689 106.162 110.702 106.195 110.727 106.219C110.751 106.244 110.784 106.257 110.818 106.257H115.842C115.876 106.257 115.909 106.244 115.934 106.219C115.958 106.195 115.972 106.162 115.972 106.128V97.0169Z" stroke="#9CA4A6" stroke-width="2"/>
<path d="M98.5752 96.9883C98.5752 96.9707 98.5682 96.9538 98.5558 96.9414C98.5434 96.929 98.5265 96.922 98.5089 96.922H84.4346C84.417 96.922 84.4002 96.929 84.3877 96.9414C84.3753 96.9538 84.3683 96.9707 84.3683 96.9883V122.872C84.3683 122.89 84.3753 122.906 84.3877 122.919C84.4002 122.931 84.417 122.938 84.4346 122.938H98.5089C98.5265 122.938 98.5434 122.931 98.5558 122.919C98.5682 122.906 98.5752 122.89 98.5752 122.872V96.9883Z" stroke="#9CA4A6" stroke-width="2"/>
<path d="M10.8688 122.926C17.6143 122.945 29.2636 122.944 45.8167 122.923C45.9994 122.923 46.1566 122.819 46.2881 122.612C46.5571 122.186 46.7143 121.908 46.7594 121.779C46.8739 121.444 47.1344 121.199 47.3151 120.89C47.8703 119.937 48.4395 119 49.0228 118.077C49.3346 117.583 49.5379 117.122 49.8692 116.689C50.086 116.406 50.3104 116.067 50.5423 115.672C51.3028 114.385 51.9925 113.078 52.8629 111.832C53.0165 111.612 53.1435 111.37 53.2439 111.106C53.2515 111.086 53.254 111.064 53.2513 111.043C53.2486 111.022 53.2408 111.001 53.2285 110.983C53.2163 110.966 53.1999 110.951 53.1808 110.941C53.1617 110.931 53.1405 110.926 53.1189 110.926H18.168C18.1455 110.926 18.1234 110.931 18.1039 110.942C18.0844 110.954 18.0681 110.969 18.0566 110.989C17.6379 111.672 17.27 112.295 16.9527 112.858C16.6184 113.45 16.2304 114.094 15.7886 114.79C14.2918 117.153 13.1618 118.926 12.3988 120.107C12.3758 120.142 12.3571 120.179 12.3431 120.217C12.2658 120.43 12.1975 120.575 12.1383 120.652C11.812 121.077 11.5495 121.481 11.3507 121.863C11.1745 122.2 10.911 122.432 10.7739 122.788C10.7678 122.803 10.7655 122.819 10.7674 122.836C10.7692 122.852 10.775 122.868 10.7844 122.882C10.7937 122.895 10.8063 122.906 10.821 122.914C10.8357 122.922 10.8521 122.926 10.8688 122.926Z" stroke="#9CA4A6" stroke-width="2"/>
<path d="M59.8835 77.1763C59.9082 77.1765 59.9324 77.1702 59.9538 77.1581C59.9752 77.1459 59.9931 77.1283 60.0055 77.1071L63.1168 71.7189C63.1292 71.6976 63.1358 71.6735 63.136 71.6489C63.1361 71.6242 63.1297 71.6 63.1175 71.5786C63.1053 71.5572 63.0877 71.5395 63.0664 71.5271C63.0451 71.5147 63.0209 71.5081 62.9963 71.5081H56.2859C56.2613 71.5079 56.237 71.5142 56.2156 71.5263C56.1942 71.5385 56.1764 71.5561 56.1639 71.5773L53.0527 76.9655C53.0402 76.9868 53.0336 77.0109 53.0335 77.0356C53.0334 77.0602 53.0397 77.0844 53.0519 77.1058C53.0642 77.1272 53.0818 77.145 53.1031 77.1573C53.1244 77.1697 53.1485 77.1763 53.1732 77.1763H59.8835Z" stroke="#C4D3C7" stroke-width="2"/>
<path d="M63.2704 77.2004L69.6735 77.1914C69.7202 77.191 69.766 77.1785 69.8063 77.1553C69.8467 77.1321 69.8803 77.0989 69.904 77.0589L73.1869 71.6496C73.196 71.6345 73.2009 71.6172 73.2011 71.5996C73.2013 71.5819 73.1968 71.5645 73.188 71.5492C73.1793 71.5339 73.1666 71.5211 73.1513 71.5123C73.136 71.5035 73.1187 71.4989 73.101 71.499L66.4629 71.5096C66.3993 71.5095 66.3371 71.5275 66.2832 71.5613C66.2294 71.5952 66.1863 71.6435 66.1587 71.7008C65.7838 72.4734 65.2612 73.1857 64.8576 73.9236C64.2929 74.9566 63.6107 75.9505 63.1574 77.0303C63.1498 77.0489 63.1469 77.0691 63.1489 77.0892C63.1508 77.1092 63.1577 77.1285 63.1688 77.1453C63.18 77.162 63.1951 77.1758 63.2128 77.1855C63.2304 77.1951 63.2502 77.2002 63.2704 77.2004Z" stroke="#C4D3C7" stroke-width="2"/>
<path d="M49.7818 77.1884C49.8026 77.1885 49.8229 77.1831 49.8409 77.1728C49.8589 77.1625 49.8739 77.1476 49.8842 77.1297L53.0135 71.7083C53.0238 71.6905 53.0292 71.6704 53.0293 71.6498C53.0293 71.6293 53.0239 71.6091 53.0137 71.5912C53.0035 71.5734 52.9888 71.5586 52.9711 71.5482C52.9533 71.5378 52.9332 71.5323 52.9126 71.5321H46.2971C46.2764 71.532 46.256 71.5374 46.238 71.5477C46.22 71.558 46.2051 71.5729 46.1947 71.5909L43.0669 77.0122C43.0566 77.03 43.0512 77.0502 43.0512 77.0707C43.0511 77.0913 43.0565 77.1115 43.0667 77.1293C43.0769 77.1471 43.0916 77.162 43.1094 77.1723C43.1271 77.1827 43.1473 77.1882 43.1678 77.1884H49.7818Z" stroke="#C4D3C7" stroke-width="2"/>
<path d="M38.3187 85.4559L44.7551 85.4258C44.802 85.4255 44.848 85.4131 44.8886 85.3899C44.9292 85.3667 44.9631 85.3334 44.987 85.2933L48.2684 79.8448C48.2775 79.8294 48.2824 79.8119 48.2826 79.794C48.2828 79.7761 48.2783 79.7585 48.2696 79.743C48.2609 79.7275 48.2482 79.7147 48.2329 79.7058C48.2176 79.697 48.2002 79.6925 48.1825 79.6927L41.5098 79.7259C41.4461 79.7261 41.3838 79.7444 41.33 79.7785C41.2762 79.8126 41.2331 79.8611 41.2056 79.9186C40.8306 80.6972 40.3081 81.414 39.9045 82.1579C39.3413 83.197 38.6576 84.1985 38.2043 85.2857C38.1966 85.3045 38.1937 85.3248 38.1958 85.345C38.1978 85.3652 38.2048 85.3845 38.2161 85.4013C38.2275 85.4181 38.2427 85.4319 38.2606 85.4414C38.2785 85.451 38.2985 85.4559 38.3187 85.4559Z" stroke="#C4D3C7" stroke-width="2"/>
<path d="M58.087 79.7229L51.5076 79.6837C51.4574 79.6832 51.4081 79.6961 51.3647 79.721C51.3213 79.7459 51.2853 79.7819 51.2606 79.8253L48.1148 85.2737C48.1061 85.289 48.1016 85.3063 48.1017 85.3239C48.1018 85.3415 48.1065 85.3588 48.1153 85.374C48.1241 85.3892 48.1368 85.4019 48.152 85.4107C48.1672 85.4195 48.1845 85.4242 48.2021 85.4243H54.8357C54.8864 85.4243 54.9363 85.4115 54.9805 85.387C55.0248 85.3625 55.062 85.3271 55.0887 85.2842C55.5676 84.5233 56.1132 83.6056 56.7256 82.5314C57.1322 81.8146 57.3807 81.149 57.8566 80.5045C58.0744 80.2113 58.1999 80.0246 58.2331 79.9442C58.2432 79.9201 58.2472 79.8938 58.2448 79.8677C58.2423 79.8416 58.2335 79.8165 58.2191 79.7946C58.2046 79.7727 58.185 79.7547 58.162 79.7422C58.139 79.7297 58.1132 79.7231 58.087 79.7229Z" stroke="#C4D3C7" stroke-width="2"/>
<path d="M58.1397 85.4423C58.214 85.4684 58.3224 85.483 58.465 85.486C59.6802 85.5131 61.3157 85.3851 62.6921 85.4288C63.5826 85.4579 64.2422 85.479 64.6709 85.492C64.7395 85.4939 64.8073 85.4776 64.8676 85.4448C64.9279 85.412 64.9785 85.3639 65.0142 85.3053C65.98 83.716 66.9443 82.0751 67.9071 80.3824C67.9452 80.3152 68.0602 80.1771 68.2519 79.9683C68.2724 79.9462 68.286 79.9187 68.2911 79.889C68.2961 79.8593 68.2925 79.8288 68.2805 79.8012C68.2685 79.7736 68.2488 79.75 68.2236 79.7335C68.1985 79.7169 68.1691 79.7079 68.139 79.7078H61.4512C61.4054 79.7078 61.3604 79.7198 61.3208 79.7425C61.2812 79.7652 61.2482 79.7979 61.2253 79.8373C60.2495 81.5284 59.9453 82.1429 59.0282 83.5102C58.6477 84.0765 58.3279 84.6668 58.0689 85.2812C58.0626 85.2965 58.0594 85.313 58.0596 85.3295C58.0597 85.346 58.0632 85.3623 58.0698 85.3774C58.0765 85.3925 58.0861 85.406 58.0981 85.4172C58.1101 85.4284 58.1242 85.4369 58.1397 85.4423Z" stroke="#C4D3C7" stroke-width="2"/>
<path d="M33.3522 93.6315H39.8397C39.887 93.6316 39.9335 93.6194 39.9746 93.5962C40.0158 93.573 40.0502 93.5395 40.0746 93.499L43.4088 88.0235C43.4181 88.0082 43.4232 87.9907 43.4236 87.9728C43.424 87.9549 43.4195 87.9372 43.4108 87.9216C43.4021 87.9059 43.3893 87.8929 43.3739 87.8838C43.3584 87.8747 43.3408 87.8699 43.3229 87.8699H36.596C36.5318 87.87 36.469 87.8881 36.4147 87.9222C36.3604 87.9563 36.3167 88.0049 36.2888 88.0626C35.9062 88.8457 35.3762 89.5656 34.9666 90.314C34.3928 91.3591 33.7001 92.3651 33.2378 93.4584C33.2298 93.4773 33.2267 93.4979 33.2286 93.5183C33.2306 93.5387 33.2375 93.5584 33.2488 93.5755C33.2601 93.5926 33.2755 93.6067 33.2935 93.6164C33.3115 93.6262 33.3317 93.6314 33.3522 93.6315Z" stroke="#C4D3C7" stroke-width="2"/>
<path d="M49.9881 93.6135C50.0284 93.6136 50.068 93.603 50.1029 93.583C50.1378 93.5629 50.1668 93.5339 50.1869 93.499L53.2379 88.2102C53.258 88.1755 53.2685 88.1361 53.2686 88.096C53.2686 88.0559 53.2581 88.0165 53.2382 87.9817C53.2182 87.947 53.1894 87.9181 53.1548 87.8979C53.1201 87.8777 53.0807 87.867 53.0406 87.8669H46.5351C46.4948 87.8668 46.4552 87.8773 46.4203 87.8974C46.3854 87.9175 46.3564 87.9464 46.3363 87.9813L43.2838 93.2701C43.2637 93.3049 43.2531 93.3442 43.2531 93.3843C43.2531 93.4244 43.2635 93.4638 43.2835 93.4986C43.3035 93.5334 43.3323 93.5623 43.3669 93.5825C43.4016 93.6026 43.4409 93.6133 43.481 93.6135H49.9881Z" stroke="#C4D3C7" stroke-width="2"/>
<path d="M56.5735 87.8594C56.5418 87.8593 56.5106 87.8677 56.4831 87.8835C56.4556 87.8994 56.4328 87.9222 56.4169 87.9497L53.2997 93.3499C53.2838 93.3774 53.2754 93.4086 53.2754 93.4403C53.2754 93.4721 53.2838 93.5032 53.2997 93.5307C53.3156 93.5582 53.3384 93.581 53.3659 93.5968C53.3934 93.6127 53.4245 93.621 53.4563 93.621H60.0612C60.093 93.621 60.1242 93.6127 60.1517 93.5968C60.1792 93.581 60.202 93.5581 60.2179 93.5307L63.3351 88.1304C63.351 88.1029 63.3593 88.0718 63.3593 88.04C63.3593 88.0083 63.351 87.9771 63.3351 87.9497C63.3192 87.9222 63.2964 87.8994 63.2689 87.8835C63.2414 87.8677 63.2102 87.8593 63.1785 87.8594H56.5735Z" stroke="#C4D3C7" stroke-width="2"/>
<path d="M31.6098 96.0727C31.5806 96.0725 31.5518 96.08 31.5264 96.0946C31.501 96.1091 31.4799 96.1301 31.4653 96.1555L28.2803 101.673C28.2657 101.698 28.258 101.727 28.2581 101.756C28.2581 101.785 28.2659 101.814 28.2805 101.839C28.2952 101.865 28.3163 101.885 28.3416 101.9C28.3669 101.914 28.3957 101.922 28.4248 101.922H35.0479C35.0771 101.922 35.1059 101.914 35.1313 101.9C35.1567 101.885 35.1778 101.864 35.1924 101.839L38.3775 96.3211C38.3921 96.2959 38.3997 96.2672 38.3997 96.238C38.3996 96.2089 38.3919 96.1802 38.3772 96.155C38.3625 96.1298 38.3414 96.1089 38.3161 96.0944C38.2908 96.08 38.2621 96.0725 38.2329 96.0727H31.6098Z" stroke="#C4D3C7" stroke-width="2"/>
<path d="M44.9704 101.893C45.0025 101.893 45.034 101.884 45.0617 101.868C45.0894 101.852 45.1125 101.829 45.1285 101.801L48.2699 96.3588C48.286 96.3309 48.2944 96.2993 48.2945 96.2672C48.2945 96.235 48.2861 96.2034 48.2701 96.1755C48.2541 96.1476 48.2311 96.1244 48.2033 96.1082C48.1755 96.092 48.1439 96.0834 48.1118 96.0832H41.6032C41.5711 96.0834 41.5396 96.0919 41.5119 96.1081C41.4841 96.1242 41.4611 96.1473 41.445 96.175L38.3037 101.617C38.2876 101.645 38.2791 101.677 38.2791 101.709C38.279 101.741 38.2874 101.773 38.3034 101.801C38.3194 101.829 38.3425 101.852 38.3703 101.868C38.3981 101.884 38.4296 101.893 38.4618 101.893H44.9704Z" stroke="#C4D3C7" stroke-width="2"/>
<path d="M58.2948 96.0591H51.5874C51.5619 96.059 51.5367 96.066 51.5145 96.0792C51.4922 96.0925 51.4737 96.1115 51.4609 96.1344C51.3515 96.3322 51.2501 96.5189 51.1567 96.6946C50.4439 98.0359 49.4756 99.6939 48.2518 101.669C48.2373 101.692 48.2294 101.719 48.2288 101.747C48.2282 101.774 48.2351 101.802 48.2486 101.826C48.2621 101.85 48.2818 101.87 48.3057 101.884C48.3295 101.898 48.3567 101.905 48.3843 101.905H55.048C55.0778 101.905 55.1069 101.897 55.1326 101.882C55.1582 101.868 55.1795 101.846 55.1941 101.821L58.4077 96.2549C58.419 96.235 58.4249 96.2125 58.4249 96.1897C58.4248 96.1669 58.4187 96.1444 58.4073 96.1246C58.3959 96.1049 58.3795 96.0884 58.3598 96.0769C58.34 96.0654 58.3176 96.0593 58.2948 96.0591Z" stroke="#C4D3C7" stroke-width="2"/>
<path d="M96.3479 113.327C96.4178 113.327 96.4849 113.3 96.5343 113.25C96.5837 113.201 96.6115 113.134 96.6115 113.064V107.944C96.6115 107.874 96.5837 107.807 96.5343 107.757C96.4849 107.708 96.4178 107.68 96.3479 107.68H94.1674C94.0975 107.68 94.0304 107.708 93.981 107.757C93.9316 107.807 93.9038 107.874 93.9038 107.944V113.064C93.9038 113.134 93.9316 113.201 93.981 113.25C94.0304 113.3 94.0975 113.327 94.1674 113.327H96.3479Z" stroke="#9CA4A6" stroke-width="2"/>
<path d="M63.4255 39.0705L60.1396 33.8419C60.5462 33.0609 60.899 32.4439 61.1982 31.9911C61.7253 31.195 62.1213 30.5495 62.3864 30.0545C62.5842 29.6861 62.7423 29.4155 62.8608 29.2428C63.1589 28.8121 63.3848 28.5351 63.5535 28.1977C64.0309 27.2415 64.7808 26.2973 65.4208 25.2687C66.1788 24.0479 66.9207 22.8387 67.6466 21.6409C67.9016 21.2203 68.0557 20.9658 68.1089 20.8774C69.1058 19.2259 70.5199 16.959 72.3511 14.0767C72.8616 13.274 73.2652 12.4111 73.741 11.7455C74.2169 11.0769 74.5377 10.4444 75.0105 9.72609C75.2696 9.33254 75.4598 9.00876 75.5813 8.75476C75.8042 8.29094 76.1656 7.94759 76.4125 7.49732C76.8954 6.62088 77.4888 5.68118 78.1925 4.67824C78.559 4.15719 78.8787 3.62961 79.1518 3.09551C79.4992 2.41684 79.9234 1.72261 80.4243 1.01282C80.4276 1.00871 80.4318 1.00541 80.4366 1.00318C80.4414 1.00095 80.4465 0.999866 80.4517 1.00001C80.4569 1.00016 80.4618 1.00154 80.4662 1.00403C80.4707 1.00651 80.4744 1.01005 80.477 1.01432L93.1057 21.4226C93.135 21.4704 93.1485 21.5262 93.1441 21.5819C93.1398 21.6376 93.1179 21.6905 93.0816 21.7328C92.3728 22.557 91.8608 23.1805 91.5456 23.6032C90.8995 24.4736 90.1511 25.1799 89.5231 25.9599C89.518 25.9664 89.5114 25.9715 89.5038 25.9749C89.4963 25.9783 89.488 25.9798 89.4797 25.9793C89.4713 25.9789 89.4631 25.9765 89.4558 25.9723C89.4484 25.9682 89.4421 25.9624 89.4373 25.9554C88.2175 24.1468 87.2883 22.4918 86.1137 20.7494C85.6182 20.0145 85.2568 19.2571 84.8005 18.5357C83.3087 16.1775 81.9217 13.9181 80.6397 11.7576C80.5845 11.6642 80.5232 11.5874 80.456 11.5272C80.4484 11.5204 80.4395 11.5153 80.4297 11.5123C80.42 11.5094 80.4098 11.5086 80.3997 11.51C80.3897 11.5114 80.38 11.5151 80.3715 11.5206C80.363 11.5262 80.3559 11.5336 80.3505 11.5422C79.9309 12.2169 79.5424 12.876 79.185 13.5195C78.8341 14.152 78.3883 14.6429 78.0179 15.2709C77.2478 16.573 76.7444 17.4028 76.5074 17.7602C76.0135 18.5061 75.5602 19.2435 75.1476 19.9724C74.5046 21.1078 73.613 22.421 72.8556 23.7146C72.5413 24.2507 72.2311 24.7602 71.9249 25.2431C70.6107 27.3133 69.9351 28.397 69.8979 28.4944C69.8949 28.4994 69.3483 29.406 68.258 31.2141C67.6556 32.212 66.9343 33.3329 66.094 34.5768C65.585 35.3298 65.2492 35.9171 64.8772 36.6354C64.7969 36.79 64.6252 37.0591 64.3622 37.4426C63.9947 37.9797 63.6825 38.5223 63.4255 39.0705Z" fill="#89A78E"/>
<path d="M73.1266 34.1145C73.1327 34.1034 73.1412 34.094 73.1516 34.0869C73.162 34.0798 73.1739 34.0752 73.1864 34.0736C73.1989 34.072 73.2116 34.0734 73.2234 34.0776C73.2353 34.0818 73.246 34.0888 73.2546 34.0979C73.596 34.4744 73.8776 34.7796 74.0995 35.0135C74.7274 35.6791 75.1144 36.2665 75.7138 36.9321C75.9236 37.165 76.1942 37.4958 76.5255 37.9245C77.3126 38.9445 77.9536 39.7241 78.4486 40.2632C79.0339 40.8987 79.6402 41.609 80.2677 42.3941C80.2843 42.4149 80.3055 42.4317 80.3297 42.443C80.3539 42.4543 80.3803 42.4599 80.407 42.4593C80.4337 42.4588 80.4599 42.452 80.4835 42.4397C80.5071 42.4273 80.5276 42.4096 80.5433 42.388C81.2571 41.4016 82.0507 40.5463 82.8383 39.5584C83.7238 38.4485 84.0129 38.0209 84.8849 37.0661C85.1208 36.8091 85.4476 36.4 85.8652 35.8388C86.1202 35.4964 87.0273 34.4152 88.5864 32.595C89.7686 31.2156 91.0456 29.6148 92.1615 28.2836C94.2226 25.8249 95.3289 24.4967 95.4805 24.2989C96.1702 23.3984 96.9187 22.549 97.6521 21.653C99.9913 18.7907 101.455 17.0032 102.042 16.2904C102.13 16.184 102.742 15.4747 103.878 14.1625C104.402 13.5556 104.762 12.8825 105.319 12.3419C105.897 11.7817 106.141 10.9338 107.094 10.982C108.449 11.0523 110.979 11.0643 114.686 11.0182C114.742 11.0172 114.797 11.0222 114.85 11.0332C114.869 11.0372 114.886 11.0458 114.901 11.0583C114.916 11.0708 114.928 11.0868 114.935 11.1049C114.942 11.1229 114.945 11.1425 114.942 11.1618C114.94 11.1811 114.933 11.1995 114.922 11.2154C114.338 12.0407 113.455 12.9262 112.764 13.8177C111.423 15.5485 110.074 17.1924 108.718 18.7496C108.516 18.9815 107.643 20.0718 106.1 22.0204C105.652 22.5882 105.096 23.1529 104.74 23.6197C103.951 24.6543 103.031 25.6075 102.242 26.5924C101.497 27.5231 100.83 28.3443 100.241 29.0561C98.9472 30.6193 98.259 31.5635 97.2018 32.7215C96.8966 33.0558 96.4534 33.5889 95.8721 34.3208C93.8376 36.8809 91.1856 40.0945 89.3108 42.4739C88.6873 43.2645 88.0232 43.8503 87.4826 44.6153C87.0413 45.2387 86.2688 45.9646 85.8983 46.4947C85.5269 47.0298 85.2071 47.4524 84.9391 47.7627C83.9934 48.856 83.4783 49.6646 82.5206 50.6676C81.864 51.3553 81.2712 52.0942 80.7421 52.8843C80.4876 53.2653 80.2331 53.0274 80.0132 52.7548C78.8988 51.3724 77.7066 49.9598 76.4366 48.5171C75.5542 47.5152 74.8429 46.6804 74.3027 46.0128C73.3314 44.8126 72.6538 43.9286 71.4761 42.635C70.4953 41.5548 69.5405 40.3932 68.6119 39.1503C68.6033 39.1391 68.599 39.1254 68.5995 39.1114C68.6001 39.0973 68.6055 39.0839 68.6149 39.0735C69.3207 38.3125 70.1805 37.3437 71.1945 36.1671C71.4515 35.8699 71.701 35.6084 71.943 35.3825C72.5047 34.8599 72.8691 34.5934 73.1266 34.1145Z" fill="#89A78E"/>
<path d="M60.1396 33.8419L63.4255 39.0705C63.6212 39.3325 63.7864 39.585 63.9209 39.828C64.194 40.3219 64.3341 40.5749 64.3411 40.5869C65.9022 43.1189 67.6887 46.0499 69.7007 49.38C70.1976 50.2023 70.7392 51.0757 71.3255 52.0003C72.0544 53.1509 72.7366 54.3782 73.4564 55.5182C74.6029 57.3353 75.6847 59.1068 76.7017 60.8326C77.2001 61.6759 78.063 62.864 78.6383 63.9227C78.9259 64.4528 79.2919 64.8413 79.5479 65.3865C79.6874 65.6867 79.964 66.1841 80.3776 66.8788C80.3867 66.8936 80.3995 66.9057 80.4148 66.9138C80.43 66.922 80.4472 66.926 80.4645 66.9254C80.4818 66.9248 80.4986 66.9196 80.5132 66.9103C80.5279 66.9011 80.5398 66.8882 80.5478 66.8728C81.0478 65.901 81.5181 65.0672 81.9589 64.3715C82.4428 63.6075 82.8127 63.0121 83.0687 62.5855C84.7975 59.6971 86.3326 57.1621 87.6738 54.9805C88.1748 54.1663 88.4765 53.7096 88.5789 53.6102C88.603 53.5871 88.7571 53.316 89.0412 52.797C89.5562 51.8543 90.2219 50.895 90.7007 50.0908C91.6475 48.5016 92.6569 46.8516 93.7291 45.1409C94.9771 43.151 95.608 42.1451 95.6221 42.123C96.35 40.9423 96.9885 39.8872 97.5376 38.9575C98.5541 37.2333 99.6279 35.6731 100.578 33.9037C100.583 33.8943 100.59 33.8864 100.599 33.8806C100.608 33.8749 100.618 33.8716 100.629 33.871C100.64 33.8704 100.65 33.8725 100.66 33.8772C100.669 33.8818 100.677 33.8889 100.683 33.8976C100.888 34.2069 101.276 34.8258 101.848 35.7544C104.006 39.2703 106.607 43.4487 109.651 48.2897C110.577 49.7625 112.29 52.4792 114.791 56.4398C115.68 57.8473 116.137 58.5712 116.16 58.6113C116.741 59.5887 117.378 60.5088 117.984 61.4922C119.783 64.4187 121.523 67.2157 123.205 69.8832C124.04 71.2074 125.058 72.8317 126.26 74.7563C127.987 77.5232 129.005 79.1471 129.314 79.628C129.612 80.0928 129.777 80.3468 129.808 80.39C130.299 81.0707 130.675 81.8387 131.13 82.5314C131.524 83.1287 132.218 84.215 133.213 85.7902C133.437 86.1446 133.589 86.385 133.671 86.5115C134.735 88.1671 135.801 89.8652 136.868 91.6061C137.489 92.6211 138.07 93.5387 138.609 94.3589C139.389 95.5471 140.092 96.7789 140.902 98.0499C142.261 100.181 143.036 101.394 143.229 101.687C143.585 102.228 143.859 102.673 144.051 103.021C144.352 103.565 144.727 104.069 145.167 104.784C147.122 107.967 148.559 110.27 149.478 111.694C150.772 113.695 151.865 115.574 153.07 117.443C153.362 117.897 153.532 118.171 153.579 118.264C153.776 118.654 154.047 118.955 154.273 119.354C154.596 119.922 154.847 120.463 155.214 120.848C155.225 120.86 155.235 120.873 155.243 120.886L159.782 128.212C159.792 128.228 159.797 128.245 159.797 128.264C159.798 128.282 159.793 128.3 159.784 128.316C159.776 128.332 159.763 128.345 159.747 128.355C159.731 128.364 159.713 128.369 159.695 128.369H1.13752C1.1129 128.369 1.08872 128.362 1.0675 128.35C1.04629 128.337 1.02883 128.319 1.01696 128.298C1.0051 128.276 0.999265 128.252 1.00007 128.227C1.00088 128.202 1.00831 128.179 1.02156 128.158C1.63146 127.196 2.02601 126.629 2.45671 125.809C2.75187 125.242 3.1675 124.729 3.62079 124.006C4.5404 122.538 5.81241 120.524 7.43679 117.963C7.6155 117.68 7.77462 117.405 7.91417 117.139C8.10693 116.772 8.32981 116.51 8.60087 116.071C10.5606 112.893 11.68 111.095 11.9591 110.679C12.0836 110.492 13.8033 107.757 17.1184 102.473C18.3246 100.551 18.9556 99.5167 20.2627 97.5635C20.4178 97.3316 20.576 96.9581 20.7461 96.6886C23.1596 92.8665 24.6937 90.4425 25.3482 89.4165C25.6093 89.0079 25.7483 88.786 25.7654 88.7508C25.9566 88.3623 26.184 88.1319 26.4114 87.7554C26.7146 87.2575 27.1297 86.5939 27.6568 85.7646C28.2547 84.8249 28.7305 83.9289 29.3374 83.0555C29.5653 82.7282 29.8499 82.2759 30.1913 81.6986C30.5753 81.0481 31.003 80.4894 31.3237 79.881C31.765 79.0467 32.1957 78.5527 32.6896 77.7139C32.787 77.5483 33.2694 76.7697 34.1368 75.3783C34.3516 75.0329 34.5148 74.7854 34.6262 74.6358C34.8657 74.3151 35.0358 73.9401 35.2421 73.6193C36.481 71.6988 37.5608 69.9665 38.4814 68.4224C38.6179 68.1915 39.4602 66.8673 41.0083 64.4498C41.2292 64.1054 41.5379 63.6045 41.9345 62.9469C42.326 62.2963 42.6377 61.7974 42.8696 61.45C43.0012 61.2532 43.1763 60.9847 43.3952 60.6443C43.8279 59.9757 44.4052 59.0551 45.127 57.8825C45.8991 56.6285 46.4758 55.7069 46.8573 55.1176C48.1484 53.1217 49.4656 51.0375 50.8089 48.865C51.6602 47.4866 52.9653 45.3954 54.7243 42.5913C56.5424 39.6949 58.3475 36.7785 60.1396 33.8419ZM21.3003 106.054C21.2924 106.067 21.2881 106.083 21.288 106.098C21.2878 106.114 21.2917 106.129 21.2994 106.143C21.307 106.156 21.318 106.167 21.3314 106.175C21.3448 106.183 21.36 106.188 21.3756 106.188C26.5319 106.272 32.3658 106.195 37.1953 106.214C40.5816 106.228 46.7067 106.231 55.5706 106.224C55.9129 106.223 56.1313 106.188 56.2257 106.12C56.2666 106.09 56.3031 106.055 56.3341 106.015C56.3562 105.986 56.5424 105.659 56.8928 105.036C57.0474 104.761 57.2432 104.441 57.4801 104.075C58.0584 103.182 58.7044 102.153 59.4182 100.988C59.9473 100.125 60.6255 99.0554 61.4527 97.7804C61.9903 96.9506 62.5415 95.8889 63.1529 95.029C63.1989 94.965 63.2373 94.8963 63.2674 94.8242C63.3386 94.6556 63.3858 94.5527 63.4089 94.5155C63.8888 93.7525 64.2708 93.1205 64.5549 92.6196C65.3787 91.1709 66.5563 89.4873 67.2852 88.156C67.5833 87.6109 67.9538 87.2374 68.2504 86.6697C68.4231 86.3414 68.6355 85.9749 68.8875 85.5703C69.2639 84.968 69.778 84.1402 70.4295 83.0871C70.8753 82.3657 71.2412 81.6173 71.7141 80.9306C71.9078 80.6495 72.2361 80.1154 72.6989 79.3283C73.2772 78.3449 74.0708 77.1929 74.6551 76.1809C75.0025 75.5765 75.6957 74.4215 76.7348 72.7158C76.8171 72.5813 76.9477 72.3755 77.1264 72.0984C77.2338 71.9327 77.2328 71.7666 77.1233 71.5999C75.6556 69.3732 74.1978 67.058 72.7501 64.6546C72.0981 63.5733 71.3496 62.4966 70.8527 61.6503C69.1284 58.7092 67.4583 56.1973 65.7868 53.4023C64.827 51.798 64.1267 50.6586 63.686 49.9839C62.9767 48.8996 62.2855 47.4826 61.4813 46.323C61.1229 45.805 60.8504 45.2101 60.4332 44.6454C60.3444 44.5234 60.3188 44.29 60.2103 44.171C60.2015 44.1614 60.1907 44.1538 60.1786 44.1489C60.1665 44.144 60.1535 44.142 60.1405 44.1428C60.1276 44.1437 60.1151 44.1475 60.104 44.154C60.0928 44.1604 60.0834 44.1693 60.0763 44.1801C59.5522 44.9511 59.1276 45.6147 58.8023 46.1709C58.3073 47.0172 57.9002 47.6909 57.581 48.1919C55.9436 50.76 54.1781 53.5635 52.2847 56.6024C52.0839 56.9257 51.9514 57.1556 51.8871 57.2921C51.6221 57.8569 51.2305 58.3147 50.9203 58.8297C50.6914 59.2072 49.9234 60.4475 48.6162 62.5508C47.9145 63.6813 47.1299 64.9126 46.2625 66.2449C45.3398 67.6644 44.483 69.0323 43.6919 70.3485C42.6784 72.0366 41.43 73.8949 40.2915 75.7412C39.7333 76.6468 39.4181 77.1542 39.3458 77.2637C38.7364 78.1984 38.4121 78.7003 38.373 78.7696C38.1159 79.2254 37.629 80.014 36.9122 81.1354C35.4826 83.3732 33.943 85.8324 32.2935 88.5129C32.1691 88.7157 31.9156 89.0962 31.5331 89.6544C31.2605 90.055 31.1159 90.4616 30.8388 90.823C30.6902 91.0168 30.5015 91.2999 30.2726 91.6723C28.8239 94.0226 28.0042 95.3418 27.8134 95.6299C27.3361 96.3512 27.0364 96.9416 26.556 97.687C25.6876 99.0313 24.8006 100.405 23.895 101.809C23.627 102.222 23.3459 102.685 23.0517 103.196C22.9242 103.418 22.6381 103.877 22.1933 104.574C21.9524 104.951 21.6547 105.444 21.3003 106.054ZM100.717 44.1304C100.675 44.1274 100.644 44.1444 100.623 44.1816C99.9125 45.3873 99.3287 46.3346 98.8719 47.0233C98.512 47.5654 98.2891 48.0488 97.9758 48.5774C97.9608 48.6024 97.9529 48.6309 97.9529 48.6599C97.9529 48.6888 97.9608 48.7171 97.9758 48.7415C99.1716 50.7253 100.102 52.2312 100.766 53.2593C101.601 54.5514 102.15 55.5438 103.037 56.8901C104.224 58.6911 105.085 60.1474 106.602 62.59C108.567 65.7569 110.948 69.3711 112.452 71.8981C112.857 72.5773 113.549 73.4868 113.934 74.2473C114.157 74.6885 114.47 75.0289 114.701 75.4626C115.045 76.1116 115.57 76.7878 115.942 77.4278C116.121 77.738 116.343 78.0965 116.607 78.5031C118.054 80.7273 119.711 83.4907 121.399 86.1396C122.182 87.3674 122.587 88.0029 122.613 88.0461C123.841 90.0339 124.98 91.836 126.03 93.4523C126.37 93.9779 126.668 94.5743 127.076 95.148C127.269 95.4191 127.541 95.8392 127.891 96.4085C128.715 97.7427 129.175 98.4937 129.269 98.6613C129.739 99.4941 130.117 99.9429 130.573 100.715C131.078 101.569 131.677 102.516 132.37 103.557C132.91 104.372 133.282 105.158 133.829 105.935C134.11 106.331 134.484 106.92 134.951 107.701C135.689 108.933 136.368 109.974 136.997 111.023C137.149 111.275 137.372 111.62 137.667 112.057C138.124 112.732 138.976 114.081 140.221 116.103C140.748 116.956 142.12 119.201 144.34 122.837C144.36 122.87 144.389 122.898 144.423 122.917C144.456 122.936 144.494 122.946 144.533 122.946H149.793C149.808 122.946 149.822 122.943 149.836 122.937C149.849 122.931 149.861 122.923 149.871 122.912C149.881 122.902 149.889 122.889 149.893 122.875C149.898 122.862 149.9 122.847 149.899 122.833C149.891 122.72 149.834 122.576 149.73 122.399C149.455 121.931 149.171 121.489 148.878 121.071C148.677 120.784 148.405 120.333 148.061 119.717C147.796 119.24 147.489 118.737 147.14 118.207C146.527 117.279 145.905 116.262 145.272 115.154C145.21 115.046 145.108 114.891 144.965 114.69C144.616 114.196 144.346 113.692 143.687 112.63C143.472 112.285 142.302 110.454 140.178 107.137C139.618 106.262 139.113 105.343 138.566 104.527C138.226 104.018 137.933 103.549 137.689 103.119C136.829 101.619 135.505 99.7893 134.934 98.8285C134.82 98.6357 134.61 98.2065 134.433 97.9686C134.014 97.4024 133.666 96.7669 133.364 96.297C132.451 94.8815 131.886 93.9915 131.668 93.627C130.297 91.334 129.078 89.3773 128.008 87.7569C127.63 87.1827 127.095 86.3218 126.405 85.1743C125.62 83.8702 124.748 82.6248 123.974 81.3056C123.683 80.8116 123.275 80.3132 123.022 79.7394C122.995 79.6763 122.962 79.6163 122.923 79.5602C122.494 78.9348 122.057 78.2616 121.611 77.5408C121.488 77.341 121.344 77.1136 121.179 76.8586C120.15 75.2713 119.206 73.7604 118.348 72.3258C117.621 71.112 117.032 70.2672 116.223 68.9359C116.097 68.7261 115.489 67.7789 114.399 66.0943C114.073 65.5868 113.812 65.0928 113.47 64.6154C113.266 64.3303 113.028 63.9644 112.753 63.5176C110.009 59.047 107.128 54.4053 104.112 49.5924C103.868 49.2008 103.656 48.854 103.478 48.5518C103.055 47.8304 102.646 47.3229 102.244 46.5399C102.1 46.2618 101.896 45.949 101.631 45.6017C101.593 45.5526 101.559 45.5001 101.531 45.445C101.328 45.0485 101.07 44.6173 100.759 44.1515C100.751 44.1384 100.737 44.1314 100.717 44.1304ZM52.5587 122.943H79.7497C79.7696 122.943 79.7888 122.935 79.8029 122.921C79.817 122.907 79.825 122.887 79.825 122.868V92.3123C79.825 92.2924 79.8329 92.2732 79.847 92.2591C79.8611 92.245 79.8803 92.2371 79.9003 92.2371H103.031C103.06 92.2371 103.088 92.2486 103.109 92.2693C103.13 92.2899 103.141 92.3178 103.141 92.347V122.797C103.141 122.833 103.156 122.869 103.182 122.895C103.208 122.921 103.243 122.935 103.28 122.935H138.369C138.383 122.935 138.396 122.932 138.408 122.926C138.42 122.92 138.43 122.912 138.438 122.901C138.446 122.89 138.452 122.878 138.454 122.865C138.456 122.852 138.456 122.838 138.452 122.825C138.286 122.241 137.905 121.911 137.613 121.404C137.324 120.904 137.138 120.6 137.056 120.493C136.891 120.279 136.11 119.005 134.711 116.672C134.379 116.117 133.527 114.787 132.156 112.681C131.849 112.21 131.589 111.795 131.377 111.438C130.95 110.715 130.698 110.297 130.621 110.183C129.48 108.494 128.248 106.544 126.927 104.333C126.012 102.8 125.021 101.312 123.906 99.5829C123.03 98.2216 122.449 97.1343 121.629 95.8724C121.385 95.4959 121.089 94.9969 120.741 94.3755C120.732 94.3593 120.718 94.3461 120.702 94.3377C120.685 94.3293 120.666 94.326 120.648 94.3283C120.63 94.3305 120.612 94.3382 120.598 94.3504C120.584 94.3626 120.574 94.3786 120.569 94.3966C120.514 94.5973 120.485 94.8222 120.483 95.0712C120.471 97.5078 120.545 99.9865 120.513 102.548C120.486 104.816 120.495 107.567 120.539 110.801C120.539 110.815 120.537 110.829 120.531 110.842C120.526 110.855 120.518 110.867 120.508 110.877C120.498 110.887 120.486 110.895 120.472 110.901C120.459 110.906 120.445 110.909 120.431 110.909H106.546C106.517 110.909 106.49 110.898 106.469 110.878C106.449 110.858 106.438 110.83 106.438 110.802V92.347C106.438 92.3198 106.448 92.2938 106.468 92.2746C106.487 92.2554 106.513 92.2446 106.54 92.2446H119.008C119.038 92.2446 119.068 92.2363 119.094 92.2207C119.121 92.2051 119.142 92.1828 119.157 92.156C119.171 92.1292 119.179 92.0989 119.177 92.0684C119.176 92.0379 119.167 92.0083 119.151 91.9826C118.716 91.3129 118.279 90.6262 117.84 89.9225C117.481 89.3452 117.269 89.0033 117.205 88.8969C116.868 88.3327 116.469 87.6897 116.008 86.9678C114.621 84.7918 112.991 82.0179 111.632 79.9277C111.33 79.4648 110.236 77.7486 108.347 74.7789C107.617 73.6304 106.981 72.5963 106.438 71.6767C105.716 70.4569 103.997 67.7362 101.28 63.5146C100.99 63.0638 100.671 62.5538 100.325 61.9846C99.5209 60.6624 98.908 59.6203 97.9397 58.1626C96.7832 56.4217 95.8179 54.8556 95.0438 53.4641C95.0355 53.4492 95.0231 53.437 95.0081 53.4289C94.9932 53.4208 94.9762 53.417 94.9592 53.4181C94.9422 53.4192 94.9258 53.4251 94.912 53.4351C94.8982 53.4451 94.8875 53.4588 94.8812 53.4746C94.7336 53.8481 94.578 54.1282 94.4143 54.3149C94.2557 54.4946 94.1443 54.6633 94.08 54.8209C94.0529 54.8872 93.9485 55.0629 93.7668 55.348C92.1273 57.9291 90.5517 60.4817 89.0397 63.0056C88.852 63.3188 88.4494 63.9885 87.832 65.0145C87.2587 65.9662 86.4937 67.1911 85.5369 68.689C85.2056 69.207 84.8954 69.7105 84.6063 70.1994C83.0311 72.8604 81.1939 75.7081 79.6277 78.3479C78.7121 79.8885 77.92 81.0556 77.0541 82.6022C76.7188 83.2025 76.0019 84.3716 74.9036 86.1095C74.4217 86.873 74.0136 87.6952 73.485 88.397C73.1733 88.8126 73.0212 89.2297 72.6944 89.7192C72.1553 90.5273 71.4942 91.6216 70.7111 93.0021C70.5856 93.2229 70.4531 93.4257 70.3136 93.6105C69.9506 94.0909 69.7323 94.5983 69.3543 95.157C69.0531 95.6028 68.8272 96.1028 68.5531 96.4672C68.1526 97.0003 67.9914 97.4762 67.5969 98.0243C67.3479 98.3677 67.0472 98.8656 66.6948 99.5182C66.4373 99.9956 66.1241 100.34 65.9178 100.786C65.8053 101.029 65.6106 101.345 65.3335 101.735C64.7989 102.485 64.3682 103.375 63.823 104.263C62.552 106.335 61.66 107.795 61.147 108.646C60.642 109.481 60.1034 110.346 59.5312 111.24C58.8666 112.278 58.3284 113.145 57.9168 113.841C57.7672 114.094 57.6056 114.366 57.4319 114.657C56.9078 115.538 56.3838 116.413 55.8597 117.284C55.5997 117.715 55.295 118.187 54.9456 118.699C54.524 119.319 54.2323 119.799 54.0707 120.142C53.7605 120.797 53.3027 121.309 53.0331 121.917C52.9036 122.208 52.616 122.484 52.4654 122.794C52.4577 122.81 52.4542 122.827 52.4552 122.845C52.4562 122.862 52.4616 122.879 52.4709 122.894C52.4802 122.909 52.4932 122.921 52.5085 122.93C52.5239 122.938 52.5412 122.943 52.5587 122.943ZM115.972 97.0169C115.972 96.9999 115.968 96.983 115.962 96.9673C115.955 96.9516 115.946 96.9373 115.934 96.9253C115.922 96.9133 115.907 96.9037 115.892 96.8972C115.876 96.8907 115.859 96.8873 115.842 96.8873H110.818C110.801 96.8873 110.785 96.8907 110.769 96.8972C110.753 96.9037 110.739 96.9133 110.727 96.9253C110.715 96.9373 110.705 96.9516 110.699 96.9673C110.692 96.983 110.689 96.9999 110.689 97.0169V106.128C110.689 106.162 110.702 106.195 110.727 106.219C110.751 106.244 110.784 106.257 110.818 106.257H115.842C115.876 106.257 115.909 106.244 115.934 106.219C115.958 106.195 115.972 106.162 115.972 106.128V97.0169ZM98.5752 96.9882C98.5752 96.9707 98.5682 96.9538 98.5558 96.9414C98.5434 96.929 98.5265 96.922 98.5089 96.922H84.4346C84.417 96.922 84.4002 96.929 84.3877 96.9414C84.3753 96.9538 84.3683 96.9707 84.3683 96.9882V122.872C84.3683 122.89 84.3753 122.906 84.3877 122.919C84.4002 122.931 84.417 122.938 84.4346 122.938H98.5089C98.5265 122.938 98.5434 122.931 98.5558 122.919C98.5682 122.906 98.5752 122.89 98.5752 122.872V96.9882ZM10.8688 122.926C17.6143 122.945 29.2636 122.944 45.8167 122.923C45.9994 122.923 46.1566 122.819 46.2881 122.612C46.5571 122.186 46.7143 121.908 46.7594 121.779C46.8739 121.444 47.1344 121.199 47.3151 120.89C47.8703 119.937 48.4395 119 49.0228 118.077C49.3346 117.583 49.5379 117.122 49.8692 116.689C50.086 116.406 50.3104 116.067 50.5423 115.672C51.3028 114.385 51.9925 113.078 52.8629 111.832C53.0165 111.612 53.1435 111.37 53.2439 111.106C53.2515 111.086 53.254 111.064 53.2513 111.043C53.2486 111.022 53.2408 111.001 53.2285 110.983C53.2163 110.966 53.1999 110.951 53.1808 110.941C53.1617 110.931 53.1405 110.926 53.1189 110.926H18.168C18.1455 110.926 18.1234 110.931 18.1039 110.942C18.0844 110.954 18.0681 110.969 18.0566 110.989C17.6379 111.672 17.27 112.295 16.9527 112.858C16.6184 113.45 16.2304 114.094 15.7886 114.79C14.2918 117.153 13.1618 118.926 12.3988 120.107C12.3758 120.142 12.3571 120.179 12.3431 120.217C12.2658 120.43 12.1975 120.575 12.1383 120.652C11.812 121.077 11.5495 121.481 11.3507 121.863C11.1745 122.2 10.911 122.432 10.7739 122.788C10.7678 122.803 10.7655 122.819 10.7674 122.836C10.7692 122.852 10.775 122.868 10.7844 122.882C10.7937 122.895 10.8063 122.906 10.821 122.914C10.8357 122.922 10.8521 122.926 10.8688 122.926Z" fill="#38494C"/>
<path d="M59.8835 77.1763H53.1732C53.1485 77.1763 53.1244 77.1697 53.1031 77.1573C53.0818 77.145 53.0642 77.1272 53.0519 77.1058C53.0397 77.0844 53.0334 77.0602 53.0335 77.0356C53.0336 77.0109 53.0402 76.9868 53.0527 76.9655L56.1639 71.5773C56.1764 71.5561 56.1942 71.5385 56.2156 71.5263C56.237 71.5142 56.2613 71.5079 56.2859 71.5081H62.9963C63.0209 71.5081 63.0451 71.5147 63.0664 71.5271C63.0877 71.5395 63.1053 71.5572 63.1175 71.5786C63.1297 71.6 63.1361 71.6242 63.136 71.6489C63.1358 71.6735 63.1292 71.6976 63.1168 71.7189L60.0055 77.1071C59.9931 77.1283 59.9752 77.1459 59.9538 77.1581C59.9324 77.1702 59.9082 77.1765 59.8835 77.1763Z" fill="#89A78E"/>
<path d="M63.2704 77.2004C63.2502 77.2002 63.2304 77.1951 63.2128 77.1855C63.1951 77.1758 63.18 77.162 63.1688 77.1453C63.1577 77.1285 63.1508 77.1092 63.1489 77.0892C63.1469 77.0691 63.1498 77.0489 63.1574 77.0303C63.6107 75.9505 64.2929 74.9566 64.8576 73.9236C65.2612 73.1857 65.7838 72.4734 66.1587 71.7008C66.1863 71.6435 66.2294 71.5952 66.2832 71.5613C66.3371 71.5275 66.3993 71.5095 66.4629 71.5096L73.101 71.499C73.1187 71.4989 73.136 71.5035 73.1513 71.5123C73.1666 71.5211 73.1793 71.5339 73.188 71.5492C73.1968 71.5645 73.2013 71.5819 73.2011 71.5996C73.2009 71.6172 73.196 71.6345 73.1869 71.6496L69.904 77.0589C69.8803 77.0989 69.8467 77.1321 69.8063 77.1553C69.766 77.1785 69.7202 77.191 69.6735 77.1914L63.2704 77.2004Z" fill="#89A78E"/>
<path d="M49.7818 77.1884H43.1678C43.1473 77.1882 43.1271 77.1827 43.1094 77.1723C43.0916 77.162 43.0769 77.1471 43.0667 77.1293C43.0565 77.1115 43.0511 77.0913 43.0512 77.0707C43.0512 77.0502 43.0566 77.03 43.0669 77.0122L46.1947 71.5909C46.2051 71.5729 46.22 71.558 46.238 71.5477C46.256 71.5374 46.2764 71.532 46.2971 71.5321H52.9126C52.9332 71.5323 52.9533 71.5378 52.9711 71.5482C52.9888 71.5586 53.0035 71.5734 53.0137 71.5912C53.0239 71.6091 53.0293 71.6293 53.0293 71.6498C53.0292 71.6704 53.0238 71.6905 53.0135 71.7083L49.8842 77.1297C49.8739 77.1476 49.8589 77.1625 49.8409 77.1728C49.8229 77.1831 49.8026 77.1885 49.7818 77.1884Z" fill="#89A78E"/>
<path d="M38.3187 85.4559C38.2985 85.4559 38.2785 85.451 38.2606 85.4414C38.2427 85.4319 38.2274 85.4181 38.2161 85.4013C38.2048 85.3845 38.1978 85.3652 38.1958 85.345C38.1937 85.3248 38.1966 85.3045 38.2043 85.2857C38.6576 84.1985 39.3413 83.197 39.9045 82.1579C40.3081 81.414 40.8306 80.6972 41.2056 79.9186C41.2331 79.8611 41.2762 79.8126 41.33 79.7785C41.3838 79.7444 41.4461 79.7261 41.5098 79.7259L48.1825 79.6927C48.2002 79.6925 48.2176 79.697 48.2329 79.7058C48.2482 79.7147 48.2609 79.7275 48.2696 79.743C48.2783 79.7585 48.2828 79.7761 48.2826 79.794C48.2824 79.8119 48.2775 79.8294 48.2684 79.8448L44.987 85.2933C44.9631 85.3334 44.9292 85.3667 44.8886 85.3899C44.8479 85.4131 44.802 85.4255 44.7551 85.4258L38.3187 85.4559Z" fill="#89A78E"/>
<path d="M58.087 79.7229C58.1132 79.723 58.139 79.7297 58.162 79.7422C58.185 79.7547 58.2046 79.7727 58.2191 79.7946C58.2335 79.8164 58.2423 79.8415 58.2448 79.8676C58.2472 79.8937 58.2432 79.9201 58.2331 79.9442C58.1999 80.0245 58.0744 80.2113 57.8566 80.5044C57.3807 81.149 57.1322 81.8146 56.7256 82.5314C56.1132 83.6056 55.5676 84.5232 55.0887 85.2842C55.062 85.3271 55.0248 85.3625 54.9805 85.387C54.9363 85.4115 54.8864 85.4243 54.8357 85.4243H48.2021C48.1845 85.4242 48.1672 85.4195 48.152 85.4107C48.1368 85.4019 48.1241 85.3892 48.1153 85.374C48.1065 85.3588 48.1018 85.3415 48.1017 85.3239C48.1016 85.3063 48.1061 85.289 48.1148 85.2737L51.2606 79.8253C51.2853 79.7819 51.3213 79.7459 51.3647 79.721C51.4081 79.6961 51.4574 79.6832 51.5076 79.6837L58.087 79.7229Z" fill="#89A78E"/>
<path d="M58.1397 85.4423C58.1242 85.4369 58.1101 85.4284 58.0981 85.4172C58.0861 85.406 58.0765 85.3925 58.0698 85.3774C58.0632 85.3623 58.0597 85.346 58.0596 85.3295C58.0594 85.313 58.0626 85.2965 58.0689 85.2812C58.3279 84.6668 58.6477 84.0765 59.0282 83.5102C59.9453 82.1429 60.2495 81.5284 61.2253 79.8373C61.2482 79.7979 61.2812 79.7652 61.3208 79.7425C61.3604 79.7198 61.4054 79.7078 61.4512 79.7078H68.139C68.1691 79.7079 68.1985 79.7169 68.2236 79.7335C68.2488 79.75 68.2685 79.7736 68.2805 79.8012C68.2925 79.8288 68.2961 79.8593 68.2911 79.889C68.286 79.9187 68.2724 79.9462 68.2519 79.9683C68.0602 80.1771 67.9452 80.3152 67.9071 80.3824C66.9443 82.0751 65.98 83.716 65.0142 85.3053C64.9785 85.3639 64.9279 85.412 64.8676 85.4448C64.8073 85.4776 64.7395 85.4939 64.6709 85.492C64.2422 85.479 63.5826 85.4579 62.6921 85.4288C61.3157 85.3851 59.6802 85.5131 58.465 85.486C58.3224 85.483 58.214 85.4684 58.1397 85.4423Z" fill="#89A78E"/>
<path d="M33.3522 93.6315C33.3317 93.6314 33.3115 93.6262 33.2935 93.6164C33.2755 93.6067 33.2601 93.5926 33.2488 93.5755C33.2375 93.5584 33.2306 93.5387 33.2286 93.5183C33.2267 93.4979 33.2298 93.4773 33.2378 93.4584C33.7001 92.3651 34.3928 91.3591 34.9666 90.314C35.3762 89.5656 35.9062 88.8457 36.2888 88.0626C36.3167 88.0049 36.3604 87.9563 36.4147 87.9222C36.469 87.8881 36.5318 87.87 36.596 87.8699H43.3229C43.3408 87.8699 43.3584 87.8747 43.3739 87.8838C43.3893 87.8929 43.4021 87.9059 43.4108 87.9216C43.4195 87.9372 43.424 87.9549 43.4236 87.9728C43.4232 87.9907 43.4181 88.0082 43.4088 88.0235L40.0746 93.499C40.0502 93.5395 40.0158 93.573 39.9746 93.5962C39.9335 93.6194 39.887 93.6316 39.8397 93.6315H33.3522Z" fill="#89A78E"/>
<path d="M49.9881 93.6135H43.481C43.4409 93.6133 43.4016 93.6026 43.3669 93.5825C43.3323 93.5623 43.3035 93.5334 43.2835 93.4986C43.2635 93.4638 43.2531 93.4244 43.2531 93.3843C43.2531 93.3442 43.2637 93.3049 43.2838 93.2701L46.3363 87.9813C46.3564 87.9464 46.3854 87.9175 46.4203 87.8974C46.4552 87.8773 46.4948 87.8668 46.5351 87.8669H53.0406C53.0807 87.867 53.1201 87.8777 53.1548 87.8979C53.1894 87.9181 53.2182 87.947 53.2382 87.9817C53.2581 88.0165 53.2686 88.0559 53.2686 88.096C53.2685 88.1361 53.258 88.1755 53.2379 88.2102L50.1869 93.499C50.1668 93.5339 50.1378 93.5629 50.1029 93.583C50.068 93.603 50.0284 93.6136 49.9881 93.6135Z" fill="#89A78E"/>
<path d="M56.5735 87.8594H63.1785C63.2102 87.8593 63.2414 87.8677 63.2689 87.8835C63.2964 87.8994 63.3192 87.9222 63.3351 87.9497C63.351 87.9771 63.3593 88.0083 63.3593 88.04C63.3593 88.0718 63.351 88.1029 63.3351 88.1304L60.2179 93.5307C60.202 93.5581 60.1792 93.581 60.1517 93.5968C60.1242 93.6127 60.093 93.621 60.0612 93.621H53.4563C53.4245 93.621 53.3934 93.6127 53.3659 93.5968C53.3384 93.581 53.3156 93.5582 53.2997 93.5307C53.2838 93.5032 53.2755 93.4721 53.2754 93.4403C53.2754 93.4086 53.2838 93.3774 53.2997 93.3499L56.4169 87.9497C56.4328 87.9222 56.4556 87.8994 56.4831 87.8835C56.5106 87.8677 56.5418 87.8593 56.5735 87.8594Z" fill="#89A78E"/>
<path d="M31.6098 96.0727H38.2329C38.2621 96.0725 38.2908 96.08 38.3161 96.0944C38.3414 96.1089 38.3625 96.1298 38.3772 96.155C38.3919 96.1802 38.3996 96.2089 38.3997 96.238C38.3997 96.2672 38.3921 96.2959 38.3775 96.3211L35.1924 101.839C35.1778 101.864 35.1567 101.885 35.1313 101.9C35.1059 101.914 35.0771 101.922 35.0479 101.922H28.4248C28.3957 101.922 28.3669 101.914 28.3416 101.9C28.3163 101.885 28.2952 101.865 28.2805 101.839C28.2659 101.814 28.2581 101.785 28.2581 101.756C28.258 101.727 28.2657 101.698 28.2803 101.673L31.4653 96.1555C31.4799 96.1301 31.501 96.1091 31.5264 96.0946C31.5518 96.08 31.5806 96.0725 31.6098 96.0727Z" fill="#89A78E"/>
<path d="M44.9704 101.893H38.4618C38.4296 101.893 38.3981 101.884 38.3703 101.868C38.3425 101.852 38.3194 101.829 38.3034 101.801C38.2874 101.773 38.279 101.741 38.2791 101.709C38.2791 101.677 38.2876 101.645 38.3037 101.617L41.445 96.175C41.4611 96.1473 41.4841 96.1242 41.5119 96.1081C41.5396 96.0919 41.5711 96.0834 41.6032 96.0832H48.1118C48.1439 96.0834 48.1755 96.092 48.2033 96.1082C48.2311 96.1244 48.2541 96.1476 48.2701 96.1755C48.2861 96.2034 48.2945 96.235 48.2945 96.2672C48.2944 96.2993 48.286 96.3309 48.2699 96.3588L45.1285 101.801C45.1125 101.829 45.0894 101.852 45.0617 101.868C45.034 101.884 45.0025 101.893 44.9704 101.893Z" fill="#89A78E"/>
<path d="M58.2948 96.0591C58.3176 96.0593 58.34 96.0654 58.3598 96.0769C58.3795 96.0884 58.3959 96.1049 58.4073 96.1246C58.4187 96.1444 58.4248 96.1669 58.4249 96.1897C58.4249 96.2125 58.419 96.235 58.4077 96.2549L55.1941 101.821C55.1795 101.846 55.1582 101.868 55.1326 101.882C55.1069 101.897 55.0778 101.905 55.048 101.905H48.3843C48.3567 101.905 48.3295 101.898 48.3057 101.884C48.2818 101.87 48.2621 101.85 48.2486 101.826C48.2351 101.802 48.2282 101.774 48.2288 101.747C48.2294 101.719 48.2373 101.692 48.2518 101.669C49.4756 99.6939 50.4439 98.0359 51.1567 96.6946C51.2501 96.5189 51.3515 96.3322 51.4609 96.1344C51.4737 96.1115 51.4922 96.0925 51.5145 96.0792C51.5367 96.066 51.5619 96.059 51.5874 96.0591H58.2948Z" fill="#89A78E"/>
<path d="M96.3479 113.327H94.1674C94.0975 113.327 94.0304 113.3 93.981 113.25C93.9316 113.201 93.9038 113.134 93.9038 113.064V107.944C93.9038 107.874 93.9316 107.807 93.981 107.757C94.0304 107.708 94.0975 107.68 94.1674 107.68H96.3479C96.4178 107.68 96.4849 107.708 96.5343 107.757C96.5837 107.807 96.6115 107.874 96.6115 107.944V113.064C96.6115 113.134 96.5837 113.201 96.5343 113.25C96.4849 113.3 96.4178 113.327 96.3479 113.327Z" fill="#38494C"/>
</svg>
