<svg width="187" height="286" viewBox="0 0 187 286" fill="none" xmlns="http://www.w3.org/2000/svg">
<path d="M127.139 273.161L123.949 269.681L127.999 267.551C128.1 267.495 128.18 267.407 128.227 267.301C128.273 267.195 128.284 267.077 128.256 266.965C128.228 266.854 128.164 266.755 128.074 266.686C127.984 266.616 127.873 266.579 127.759 266.581L104.079 266.791L91.4589 265.911C91.3809 265.907 91.3073 265.874 91.252 265.818C91.1968 265.763 91.1636 265.689 91.1589 265.611L91.1289 265.311C91.1178 265.183 91.1577 265.055 91.2401 264.956C91.3224 264.857 91.4406 264.794 91.5689 264.781L111.879 262.991C117.659 262.951 123.462 262.748 129.289 262.381C132.156 262.195 134.849 261.278 137.369 259.631C139.909 257.971 142.169 254.861 139.809 252.051C138.702 250.738 137.199 250.171 135.299 250.351C127.589 251.071 121.339 251.941 114.919 252.081C97.0789 252.481 79.1956 252.648 61.2689 252.581C58.7689 252.888 56.9356 252.311 55.7689 250.851C54.2389 249.001 52.0389 246.521 51.6989 244.381C51.2322 241.395 52.3222 238.765 54.9689 236.491C55.1426 236.341 55.2533 236.131 55.2792 235.901C55.3051 235.672 55.2443 235.44 55.1089 235.251C53.0989 232.541 50.9689 230.181 52.0389 227.061C52.5456 225.581 53.4955 223.951 54.8889 222.171C54.9642 222.075 55.0185 221.964 55.0484 221.845C55.0782 221.727 55.0829 221.604 55.0622 221.484C55.0414 221.364 54.9956 221.25 54.9279 221.15C54.8601 221.049 54.7719 220.965 54.6689 220.901C45.0189 214.751 38.8789 205.961 38.4589 194.241C38.2489 188.511 38.7889 182.001 37.4789 176.671C35.5322 168.711 32.8689 161.921 29.4889 156.301C22.7989 145.191 13.7889 133.791 8.1589 120.921C-4.8911 91.1014 -2.57111 55.9514 17.1789 29.4814C17.3585 29.2402 17.6172 29.0699 17.9098 29.0004C18.2023 28.9309 18.51 28.9667 18.7789 29.1014L19.6489 29.5314C19.8445 29.6286 20.0168 29.767 20.1541 29.9368C20.2914 30.1067 20.3904 30.3042 20.4445 30.5158C20.4986 30.7275 20.5065 30.9483 20.4675 31.1632C20.4286 31.3781 20.3438 31.5822 20.2189 31.7614C7.76557 49.6347 2.51889 69.7214 4.47889 92.0214C5.88889 108.081 12.7989 123.901 21.9589 137.151C25.7656 142.651 29.2789 147.968 32.4989 153.101C33.9922 155.488 35.8789 159.485 38.1589 165.091C40.6189 171.145 41.9122 176.625 42.0389 181.531C42.0522 181.938 42.1422 185.761 42.3089 193.001C42.5022 201.455 45.7389 208.355 52.0189 213.701C52.088 213.761 52.1736 213.798 52.2643 213.808C52.355 213.818 52.4465 213.8 52.5268 213.756C52.6071 213.713 52.6722 213.646 52.7137 213.565C52.7551 213.484 52.7709 213.392 52.7589 213.301C51.4789 203.511 54.1889 194.011 54.1089 184.181C54.0422 175.381 52.0889 166.548 48.2489 157.681C44.3289 148.651 37.5989 139.521 32.3189 130.221C21.4922 111.128 17.3856 91.0514 19.9989 69.9914C21.8056 55.4847 27.1656 42.268 36.0789 30.3414C49.3889 12.5314 71.8389 1.22136 93.7389 0.131359C118.099 -1.07531 139.349 6.03135 157.489 21.4514C173.649 35.1914 184.889 55.4114 186.389 76.7014C187.956 98.828 182.512 118.695 170.059 136.301C164.239 144.528 161.012 149.121 160.379 150.081C155.032 158.208 152.029 167.188 151.369 177.021C151.182 179.861 151.349 183.665 151.869 188.431C152.476 193.985 152.652 197.775 152.399 199.801C151.426 207.375 147.779 213.825 141.459 219.151C141.379 219.22 141.314 219.303 141.267 219.398C141.221 219.492 141.195 219.594 141.19 219.699C141.186 219.803 141.203 219.907 141.24 220.004C141.278 220.101 141.335 220.188 141.409 220.261C144.569 223.421 144.959 227.048 142.579 231.141C142.159 231.868 141.869 232.368 141.709 232.641C141.569 232.884 141.514 233.167 141.554 233.444C141.594 233.722 141.726 233.978 141.929 234.171C146.479 238.541 145.609 243.001 141.819 247.091C141.637 247.291 141.534 247.549 141.528 247.818C141.523 248.087 141.615 248.348 141.789 248.551C143.269 250.311 144.589 250.641 145.109 254.291C145.149 254.595 145.132 254.907 145.059 255.211C143.639 260.751 139.989 263.091 135.239 265.611C134.669 265.913 134.186 266.361 133.839 266.911C132.172 269.551 129.939 271.635 127.139 273.161ZM93.9089 188.491L94.1389 181.391C94.1415 181.341 94.1573 181.292 94.1844 181.25C94.2116 181.208 94.2491 181.174 94.2932 181.151C94.3372 181.129 94.386 181.119 94.4345 181.122C94.4831 181.126 94.5295 181.143 94.5689 181.171C96.2356 182.325 97.1722 184.228 97.3789 186.881C97.6056 189.755 97.7822 192.648 97.9089 195.561L97.8089 205.241C97.8076 205.362 97.8301 205.481 97.8753 205.593C97.9204 205.704 97.9872 205.806 98.0719 205.891C98.1565 205.977 98.2573 206.045 98.3683 206.091C98.4794 206.138 98.5986 206.161 98.7189 206.161H136.549C136.713 206.161 136.874 206.111 137.01 206.016C137.146 205.921 137.25 205.787 137.309 205.631C137.636 204.718 137.749 203.678 137.649 202.511C136.859 193.371 136.169 183.481 138.019 173.751C140.479 160.771 145.126 148.608 151.959 137.261C152.075 137.071 152.23 136.907 152.414 136.781C152.599 136.655 152.808 136.571 153.028 136.533C153.248 136.495 153.473 136.505 153.689 136.561C153.905 136.618 154.106 136.72 154.279 136.861L154.329 136.901C154.718 137.216 154.985 137.657 155.082 138.147C155.179 138.637 155.1 139.145 154.859 139.581C145.899 155.871 139.999 174.351 141.189 192.671C141.729 201.031 141.799 207.755 141.399 212.841C141.397 212.897 141.412 212.951 141.442 212.997C141.473 213.044 141.516 213.08 141.568 213.1C141.619 213.121 141.675 213.126 141.729 213.113C141.783 213.101 141.832 213.072 141.869 213.031C145.402 208.918 147.549 204.278 148.309 199.111C148.536 197.565 148.322 193.848 147.669 187.961C145.859 171.681 149.689 156.861 159.559 143.751C165.772 135.498 170.249 128.845 172.989 123.791C185.389 100.921 186.069 71.8414 173.839 48.5014C161.369 24.6814 136.379 7.16136 108.999 4.36136C86.7789 2.09469 67.1222 7.91135 50.0289 21.8114C23.6689 43.2314 17.7089 82.1614 28.6189 112.271C31.4456 120.078 34.8289 127.025 38.7689 133.111C43.9556 141.131 47.6422 147.241 49.8289 151.441C56.1222 163.501 58.7989 176.861 57.8589 191.521C57.6522 194.661 57.1756 199.191 56.4289 205.111C56.4134 205.243 56.4262 205.376 56.4663 205.502C56.5064 205.629 56.573 205.745 56.6618 205.844C56.7505 205.943 56.8593 206.023 56.9812 206.077C57.1031 206.132 57.2352 206.161 57.3689 206.161H93.1089C93.2139 206.161 93.318 206.141 93.415 206.101C93.5121 206.062 93.6003 206.003 93.6746 205.93C93.7489 205.857 93.8078 205.77 93.848 205.674C93.8882 205.578 93.9089 205.475 93.9089 205.371V188.491ZM136.919 210.021H58.7289C58.4285 210.022 58.1313 210.084 57.8565 210.205C57.5817 210.326 57.3352 210.503 57.1329 210.724C56.9306 210.945 56.7768 211.206 56.6814 211.49C56.586 211.773 56.5511 212.074 56.5789 212.371L56.8989 216.011C56.9862 216.98 57.4326 217.882 58.1505 218.539C58.8684 219.196 59.8059 219.56 60.7789 219.561C88.8089 219.551 106.609 220.221 128.529 218.221C131.209 217.975 133.732 217.541 136.099 216.921C136.349 216.858 136.571 216.713 136.731 216.509C136.892 216.305 136.983 216.053 136.989 215.791L137.109 210.211C137.11 210.187 137.106 210.162 137.097 210.14C137.088 210.117 137.075 210.096 137.057 210.078C137.039 210.06 137.018 210.046 136.994 210.036C136.97 210.026 136.945 210.021 136.919 210.021ZM60.3389 223.591C56.3589 225.441 54.4589 230.121 58.6689 233.321C59.3689 233.855 60.2722 234.141 61.3789 234.181C62.4722 234.228 76.9456 234.218 104.799 234.151C113.392 234.131 122.556 233.515 132.289 232.301C135.316 231.921 137.499 230.741 138.839 228.761C140.829 225.801 139.389 222.831 136.369 221.701C136.033 221.576 135.671 221.528 135.309 221.561C126.149 222.321 119.742 222.761 116.089 222.881C107.296 223.155 90.8589 223.271 66.7789 223.231C65.1922 223.231 63.3056 223.285 61.1189 223.391C60.8478 223.411 60.5836 223.479 60.3389 223.591ZM60.3289 238.051C58.7489 238.451 57.4122 239.495 56.3189 241.181C54.3189 244.271 57.4689 247.351 59.8989 248.651C60.1355 248.776 60.3999 248.841 60.6689 248.841C82.4222 248.828 96.7922 248.798 103.779 248.751C112.452 248.698 120.956 248.108 129.289 246.981C132.849 246.495 134.812 246.198 135.179 246.091C138.139 245.201 141.999 242.431 140.479 238.831C139.506 236.525 137.796 235.535 135.349 235.861C126.576 237.035 116.636 237.681 105.529 237.801C102.376 237.835 87.4922 237.895 60.8789 237.981C60.6929 237.981 60.5081 238.005 60.3289 238.051Z" fill="black"/>
<path d="M97.9089 195.561C98.0422 176.895 97.9256 158.238 97.5589 139.591C97.4289 132.961 98.1889 116.121 107.289 115.081C110.476 114.721 113.646 114.428 116.799 114.201C131.399 113.291 145.229 108.221 153.759 96.3213C159.006 88.9947 161.982 81.4847 162.689 73.7913C163.039 70.0113 163.149 63.7714 157.949 64.7314C151.616 65.9047 145.672 67.9547 140.119 70.8813C135.939 73.0913 130.449 77.3213 125.399 80.2313C120.212 82.5113 116.722 84.1547 114.929 85.1614C111.502 87.0747 108.572 90.2147 106.139 94.5813C106.13 94.5967 106.116 94.6083 106.1 94.6139C106.083 94.6195 106.065 94.6186 106.049 94.6113L105.799 94.5113C105.76 94.4938 105.73 94.4625 105.713 94.4237C105.697 94.3849 105.695 94.3413 105.709 94.3013C106.616 91.668 107.996 89.4047 109.849 87.5113C112.189 85.1413 114.729 81.9313 115.529 79.7913C118.549 71.698 119.062 63.1913 117.069 54.2713C116.502 51.7313 115.362 49.5814 113.649 47.8214C113.47 47.6382 113.23 47.5278 112.974 47.5112C112.717 47.4946 112.463 47.573 112.259 47.7314C101.339 56.4314 95.9856 67.6913 96.1989 81.5113C96.2589 85.2313 95.4689 87.0113 94.1789 90.2913C94.1496 90.3657 94.0971 90.4291 94.0292 90.4722C93.9614 90.5152 93.8819 90.5354 93.8028 90.5297C93.7237 90.5241 93.6493 90.4929 93.5909 90.4408C93.5324 90.3888 93.4931 90.3188 93.4789 90.2413C91.8189 82.5013 87.9389 76.3114 84.3789 69.7214C83.2989 67.7214 83.0489 66.1847 83.6289 65.1113C90.0789 53.1313 94.8589 46.4013 93.3389 33.5313C93.1989 32.3447 92.8956 31.4713 92.4289 30.9113C92.0316 30.4374 91.475 30.1215 90.8569 30.0191C90.2388 29.9167 89.5986 30.0344 89.0489 30.3514C78.7289 36.2614 77.1089 47.5913 78.3689 59.3613C78.5022 60.5813 79.1489 62.6414 80.3089 65.5414C80.3452 65.6329 80.3484 65.735 80.318 65.8295C80.2877 65.924 80.2256 66.0048 80.1429 66.0576C80.0602 66.1103 79.9622 66.1316 79.8663 66.1176C79.7703 66.1037 79.6827 66.0554 79.6189 65.9814C76.2389 62.3014 74.6789 54.0613 74.7189 48.9613C74.7589 44.6213 75.2989 40.0414 74.2189 36.2614C72.4922 30.248 69.3322 25.538 64.7389 22.1313C63.2456 21.018 62.2422 21.188 61.7289 22.6413C59.0689 30.2413 59.3122 37.6113 62.4589 44.7513C63.6189 47.3913 65.0955 50.258 66.8889 53.3513C66.9204 53.4022 66.9334 53.4624 66.9257 53.5218C66.918 53.5811 66.89 53.636 66.8465 53.6771C66.803 53.7183 66.7467 53.7431 66.687 53.7475C66.6273 53.752 66.5679 53.7356 66.5189 53.7013C62.3789 50.9813 54.9389 49.1214 50.3689 52.0414C49.9219 52.3253 49.5882 52.7567 49.4257 53.2607C49.2632 53.7647 49.282 54.3097 49.4789 54.8013C51.5589 60.0713 56.3789 64.5614 61.8189 66.8714C65.3389 68.3714 67.8322 69.2547 69.2989 69.5213C75.9689 70.7613 80.3889 71.4013 83.5289 76.8513C88.1222 84.838 90.8255 93.468 91.6389 102.741C91.6453 102.799 91.6325 102.856 91.6026 102.905C91.5727 102.955 91.5273 102.992 91.4735 103.013C91.4197 103.034 91.3607 103.036 91.3055 103.019C91.2504 103.003 91.2024 102.968 91.1689 102.921C88.0389 98.6813 85.7489 95.2813 81.8389 92.9213C77.0322 90.008 71.6056 87.9814 65.5589 86.8414C65.3817 86.8084 65.1987 86.8289 65.0331 86.9001C64.8676 86.9713 64.7269 87.0901 64.6289 87.2413C59.8789 94.7613 58.1089 104.671 60.3589 113.171C62.7189 122.065 68.1656 128.635 76.6989 132.881C80.6389 134.841 82.7622 135.888 83.0689 136.021C83.8956 136.375 85.0789 137.678 86.6189 139.931C91.3656 146.878 93.7856 154.498 93.8789 162.791C93.9656 171.351 93.9756 179.918 93.9089 188.491V205.371C93.9089 205.475 93.8882 205.578 93.848 205.674C93.8078 205.77 93.7489 205.857 93.6746 205.93C93.6003 206.003 93.5121 206.062 93.415 206.101C93.318 206.141 93.2139 206.161 93.1089 206.161H57.3689C57.2352 206.161 57.103 206.132 56.9812 206.077C56.8593 206.023 56.7505 205.943 56.6618 205.844C56.573 205.745 56.5064 205.629 56.4663 205.502C56.4262 205.376 56.4134 205.243 56.4289 205.111C57.1756 199.191 57.6522 194.661 57.8589 191.521C58.7989 176.861 56.1222 163.501 49.8289 151.441C47.6422 147.241 43.9556 141.131 38.7689 133.111C34.8289 127.025 31.4456 120.078 28.6189 112.271C17.7089 82.1613 23.6689 43.2313 50.0289 21.8113C67.1222 7.91134 86.7789 2.09468 108.999 4.36134C136.379 7.16134 161.369 24.6813 173.839 48.5013C186.069 71.8413 185.389 100.921 172.989 123.791C170.249 128.845 165.772 135.498 159.559 143.751C149.689 156.861 145.859 171.681 147.669 187.961C148.322 193.848 148.536 197.565 148.309 199.111C147.549 204.278 145.402 208.918 141.869 213.031C141.832 213.072 141.783 213.101 141.729 213.113C141.675 213.126 141.619 213.121 141.568 213.1C141.516 213.08 141.473 213.044 141.442 212.997C141.412 212.951 141.397 212.897 141.399 212.841C141.799 207.755 141.729 201.031 141.189 192.671C139.999 174.351 145.899 155.871 154.859 139.581C155.1 139.145 155.179 138.637 155.082 138.147C154.985 137.657 154.718 137.216 154.329 136.901L154.279 136.861C154.106 136.72 153.905 136.618 153.689 136.561C153.473 136.505 153.248 136.495 153.028 136.533C152.808 136.571 152.599 136.655 152.414 136.781C152.23 136.907 152.075 137.071 151.959 137.261C145.126 148.608 140.479 160.771 138.019 173.751C136.169 183.481 136.859 193.371 137.649 202.511C137.749 203.678 137.636 204.718 137.309 205.631C137.25 205.787 137.146 205.921 137.01 206.016C136.874 206.111 136.713 206.161 136.549 206.161H98.7189C98.5985 206.161 98.4794 206.137 98.3683 206.091C98.2573 206.045 98.1565 205.977 98.0719 205.891C97.9872 205.806 97.9204 205.704 97.8753 205.593C97.8301 205.481 97.8076 205.362 97.8089 205.241L97.9089 195.561Z" fill="#FDFCF8"/>
<path d="M125.399 80.2314C126.219 81.3247 126.532 82.7047 126.339 84.3714C122.206 86.0914 118.612 88.0647 115.559 90.2914C109.439 94.7514 107.429 102.111 105.779 109.071C105.779 109.08 105.781 109.09 105.785 109.098C105.79 109.106 105.796 109.113 105.803 109.116C105.81 109.12 105.818 109.12 105.824 109.118C105.831 109.115 105.836 109.109 105.839 109.101L110.629 104.281C110.695 104.215 110.749 104.144 110.789 104.071C113.256 99.2114 115.732 95.2614 118.219 92.2214C118.486 91.8947 118.776 91.8714 119.089 92.1514C119.254 92.3029 119.364 92.5055 119.4 92.7268C119.436 92.948 119.397 93.175 119.289 93.3714L114.739 101.661C114.721 101.691 114.711 101.724 114.711 101.758C114.711 101.792 114.721 101.824 114.739 101.851L114.759 101.891C114.838 101.954 114.938 101.985 115.037 101.98C115.137 101.974 115.23 101.932 115.299 101.861C120.706 96.2547 126.439 90.7314 132.499 85.2914C132.63 85.1741 132.789 85.0894 132.959 85.0457C133.13 85.002 133.306 85.0009 133.47 85.0424C133.634 85.084 133.78 85.1667 133.894 85.2823C134.008 85.398 134.086 85.5425 134.119 85.7014C134.212 86.1147 134.059 86.5414 133.659 86.9814C133.332 87.3347 133.116 87.578 133.009 87.7114C129.989 91.5447 126.529 95.068 122.629 98.2814C122.597 98.3098 122.577 98.3485 122.571 98.3907C122.565 98.4329 122.574 98.4759 122.597 98.5118C122.62 98.5478 122.654 98.5746 122.695 98.5873C122.736 98.6 122.78 98.5979 122.819 98.5814C126.919 96.5614 132.119 94.1114 135.989 90.9014C139.796 87.728 143.389 84.3047 146.769 80.6314C146.885 80.4972 147.046 80.4104 147.222 80.3876C147.397 80.3649 147.575 80.4078 147.722 80.5081C147.868 80.6084 147.972 80.7591 148.014 80.9313C148.056 81.1035 148.033 81.2851 147.949 81.4414C146.299 84.8014 143.399 87.5014 140.179 90.9014C140.102 90.9853 140.056 91.0929 140.048 91.2066C140.041 91.3202 140.072 91.433 140.138 91.5263C140.203 91.6197 140.298 91.6878 140.407 91.7197C140.517 91.7515 140.634 91.745 140.739 91.7014L143.709 90.4314C143.772 90.403 143.841 90.3889 143.91 90.3901C143.979 90.3913 144.047 90.4078 144.109 90.4384C144.171 90.4689 144.226 90.5129 144.269 90.567C144.312 90.6211 144.343 90.684 144.359 90.7514L144.369 90.8114C144.39 90.9701 144.366 91.1316 144.299 91.2768C144.231 91.4221 144.124 91.5451 143.989 91.6314C141.519 93.2814 138.779 93.1414 136.459 94.6114C136.026 94.8847 133.686 96.3214 129.439 98.9214C129.387 98.9565 129.348 99.0076 129.327 99.0668C129.307 99.1261 129.306 99.1903 129.325 99.25C129.345 99.3097 129.383 99.3616 129.434 99.3979C129.485 99.4342 129.546 99.453 129.609 99.4514C131.529 99.3447 133.586 99.0914 135.779 98.6914C136.112 98.6247 136.316 98.6247 136.389 98.6914C136.501 98.7964 136.584 98.9281 136.631 99.074C136.679 99.22 136.688 99.3755 136.659 99.5262C136.631 99.6768 136.564 99.8178 136.466 99.9358C136.368 100.054 136.242 100.145 136.099 100.201C134.339 100.888 132.189 101.285 129.649 101.391C128.702 101.431 125.489 102.258 120.009 103.871C119.944 103.891 119.887 103.931 119.846 103.985C119.804 104.039 119.782 104.105 119.781 104.173C119.78 104.241 119.8 104.307 119.839 104.363C119.879 104.418 119.934 104.46 119.999 104.481C120.926 104.761 122.279 104.678 124.059 104.231C124.133 104.213 124.21 104.212 124.285 104.228C124.359 104.244 124.429 104.277 124.489 104.324C124.549 104.372 124.597 104.432 124.63 104.501C124.663 104.57 124.68 104.645 124.679 104.721V105.061C124.679 105.313 124.588 105.556 124.422 105.745C124.257 105.935 124.028 106.058 123.779 106.091C118.619 106.831 112.249 107.141 110.179 110.001C110.141 110.052 110.118 110.113 110.115 110.176C110.111 110.239 110.126 110.302 110.158 110.357C110.19 110.411 110.238 110.455 110.295 110.483C110.352 110.51 110.416 110.52 110.479 110.511L115.679 109.991C116.652 111.378 117.026 112.781 116.799 114.201C113.646 114.428 110.476 114.721 107.289 115.081C98.1889 116.121 97.4289 132.961 97.5589 139.591C97.9256 158.238 98.0423 176.895 97.9089 195.561C97.7823 192.648 97.6056 189.755 97.3789 186.881C97.1723 184.228 96.2356 182.325 94.5689 181.171C94.5295 181.143 94.4831 181.126 94.4346 181.122C94.386 181.119 94.3372 181.129 94.2932 181.151C94.2491 181.174 94.2116 181.208 94.1844 181.25C94.1573 181.292 94.1415 181.341 94.1389 181.391L93.9089 188.491C93.9756 179.918 93.9656 171.351 93.8789 162.791C93.7856 154.498 91.3656 146.878 86.6189 139.931C85.0789 137.678 83.8956 136.375 83.0689 136.021C82.7623 135.888 80.6389 134.841 76.6989 132.881C68.1656 128.635 62.7189 122.065 60.3589 113.171C58.1089 104.671 59.8789 94.7614 64.6289 87.2414C64.7269 87.0901 64.8676 86.9713 65.0332 86.9001C65.1987 86.8289 65.3817 86.8085 65.5589 86.8414C71.6056 87.9814 77.0322 90.008 81.8389 92.9214C85.7489 95.2814 88.0389 98.6814 91.1689 102.921C91.2024 102.968 91.2504 103.003 91.3056 103.019C91.3607 103.036 91.4198 103.034 91.4735 103.013C91.5273 102.993 91.5727 102.955 91.6026 102.905C91.6325 102.856 91.6453 102.799 91.6389 102.741C90.8256 93.468 88.1222 84.838 83.5289 76.8514C80.3889 71.4014 75.9689 70.7614 69.2989 69.5214C67.8322 69.2547 65.3389 68.3714 61.8189 66.8714C56.3789 64.5614 51.5589 60.0714 49.4789 54.8014C49.282 54.3098 49.2632 53.7648 49.4257 53.2607C49.5883 52.7567 49.9219 52.3254 50.3689 52.0414C54.9389 49.1214 62.3789 50.9814 66.5189 53.7014C66.568 53.7357 66.6273 53.752 66.687 53.7476C66.7467 53.7432 66.8031 53.7183 66.8465 53.6772C66.89 53.636 66.918 53.5812 66.9257 53.5218C66.9334 53.4624 66.9204 53.4023 66.8889 53.3514C65.0956 50.258 63.6189 47.3914 62.4589 44.7514C59.3122 37.6114 59.0689 30.2414 61.7289 22.6414C62.2423 21.188 63.2456 21.018 64.7389 22.1314C69.3322 25.538 72.4923 30.248 74.2189 36.2614C75.2989 40.0414 74.7589 44.6214 74.7189 48.9614C74.6789 54.0614 76.2389 62.3014 79.6189 65.9814C79.6827 66.0554 79.7704 66.1037 79.8663 66.1177C79.9622 66.1316 80.0602 66.1103 80.1429 66.0576C80.2256 66.0049 80.2877 65.9241 80.3181 65.8296C80.3485 65.7351 80.3452 65.633 80.3089 65.5414C79.1489 62.6414 78.5022 60.5814 78.3689 59.3614C77.1089 47.5914 78.7289 36.2614 89.0489 30.3514C89.5987 30.0344 90.2388 29.9168 90.8569 30.0192C91.4751 30.1216 92.0316 30.4375 92.4289 30.9114C92.8956 31.4714 93.1989 32.3447 93.3389 33.5314C94.8589 46.4014 90.0789 53.1314 83.6289 65.1114C83.0489 66.1847 83.2989 67.7214 84.3789 69.7214C87.9389 76.3114 91.8189 82.5014 93.4789 90.2414C93.4932 90.3188 93.5325 90.3888 93.5909 90.4409C93.6493 90.4929 93.7238 90.5241 93.8028 90.5298C93.8819 90.5354 93.9614 90.5152 94.0293 90.4722C94.0971 90.4292 94.1496 90.3657 94.1789 90.2914C95.4689 87.0114 96.2589 85.2314 96.1989 81.5114C95.9856 67.6914 101.339 56.4314 112.259 47.7314C112.463 47.573 112.717 47.4946 112.974 47.5112C113.23 47.5278 113.47 47.6382 113.649 47.8214C115.362 49.5814 116.502 51.7314 117.069 54.2714C119.062 63.1914 118.549 71.698 115.529 79.7914C114.729 81.9314 112.189 85.1414 109.849 87.5114C107.996 89.4047 106.616 91.668 105.709 94.3014C105.695 94.3413 105.697 94.3849 105.713 94.4237C105.73 94.4626 105.76 94.4938 105.799 94.5114L106.049 94.6114C106.065 94.6186 106.083 94.6195 106.1 94.6139C106.116 94.6084 106.13 94.5968 106.139 94.5814C108.572 90.2147 111.502 87.0747 114.929 85.1614C116.722 84.1547 120.212 82.5114 125.399 80.2314ZM70.6889 50.9014C70.7389 43.3214 71.8089 36.1514 65.5289 28.5114C65.4775 28.451 65.4118 28.4043 65.338 28.3756C65.2641 28.3468 65.1846 28.337 65.1067 28.347C65.0289 28.357 64.9552 28.3864 64.8926 28.4327C64.8301 28.4789 64.7806 28.5404 64.7489 28.6114L64.6889 28.7514C64.6117 28.9223 64.5876 29.1121 64.6197 29.296C64.6519 29.4798 64.7387 29.649 64.8689 29.7814C67.5489 32.5614 67.4489 35.8914 68.3289 41.5014C68.4019 41.9259 68.4153 42.3567 68.3689 42.7814C68.1089 45.5947 68.7522 48.3347 70.2989 51.0014C70.3222 51.0402 70.3574 51.0705 70.3992 51.0877C70.4411 51.1049 70.4874 51.1081 70.5312 51.0969C70.5751 51.0856 70.6141 51.0605 70.6425 51.0253C70.6709 50.9901 70.6872 50.9466 70.6889 50.9014ZM66.4889 42.5914L64.7789 31.5714C64.7791 31.5652 64.7779 31.559 64.7753 31.5533C64.7727 31.5477 64.7688 31.5427 64.7639 31.5389C64.7591 31.535 64.7534 31.5323 64.7473 31.531C64.7412 31.5297 64.7349 31.5298 64.7289 31.5314L64.1689 31.6214C64.0598 31.6558 64.0426 32.2515 64.1213 33.2792C64.1999 34.3068 64.3679 35.6838 64.5889 37.1114L64.6289 37.3714C64.85 38.7997 65.1063 40.1636 65.3422 41.1671C65.5781 42.1705 65.7745 42.7326 65.8889 42.7314L66.4489 42.6414C66.4551 42.6416 66.4613 42.6403 66.4669 42.6377C66.4726 42.6351 66.4775 42.6312 66.4814 42.6264C66.4853 42.6215 66.488 42.6158 66.4893 42.6098C66.4906 42.6037 66.4905 42.5974 66.4889 42.5914ZM82.9989 56.8414C86.5322 51.6347 88.7822 45.648 89.7489 38.8814C89.7532 38.8474 89.7502 38.813 89.74 38.7803C89.7299 38.7476 89.7129 38.7175 89.6902 38.6919C89.6674 38.6664 89.6395 38.6459 89.6083 38.632C89.577 38.6182 89.5431 38.6111 89.5089 38.6114H89.1789C89.1326 38.6116 89.0879 38.6265 89.0517 38.6536C89.0156 38.6807 88.99 38.7186 88.9789 38.7614C88.3256 41.008 87.6156 42.988 86.8489 44.7014C85.5089 47.6814 85.3089 51.1414 83.3489 53.8214C83.3162 53.8664 83.2694 53.8991 83.216 53.9145C83.1626 53.93 83.1055 53.9271 83.0539 53.9064C83.0022 53.8858 82.959 53.8485 82.9309 53.8005C82.9029 53.7525 82.8916 53.6965 82.8989 53.6414C83.7522 47.4614 85.7256 41.8947 88.8189 36.9414C88.8579 36.8787 88.882 36.8078 88.8891 36.7344C88.8962 36.661 88.8862 36.5873 88.8599 36.5191C88.8336 36.4509 88.7918 36.3902 88.7377 36.342C88.6837 36.2937 88.619 36.2593 88.5489 36.2414L88.5189 36.2314C88.3577 36.187 88.1864 36.1929 88.0276 36.2482C87.8688 36.3035 87.7299 36.4057 87.6289 36.5414C84.9556 40.2147 83.0689 44.2747 81.9689 48.7214C81.9158 48.9602 81.8957 49.2058 81.9089 49.4514L82.3289 56.6614C82.3359 56.7366 82.3658 56.8078 82.4145 56.8656C82.4632 56.9233 82.5284 56.9648 82.6013 56.9844C82.6743 57.004 82.7514 57.0008 82.8225 56.9752C82.8936 56.9496 82.9552 56.9029 82.9989 56.8414ZM107.249 79.4114C107.429 79.2781 107.476 78.8147 107.389 78.0214C107.367 77.8158 107.387 77.6076 107.449 77.4098C107.511 77.212 107.613 77.0288 107.749 76.8714C109.396 74.958 110.939 72.8881 112.379 70.6614C115.139 66.3914 113.999 58.3414 112.699 53.9814C112.681 53.9182 112.647 53.8612 112.599 53.8156C112.552 53.7701 112.493 53.7377 112.429 53.7216C112.364 53.7055 112.297 53.7063 112.232 53.7237C112.167 53.7412 112.107 53.7748 112.059 53.8214C109.209 56.5714 107.899 57.5814 106.019 60.6714C101.409 68.2314 98.9489 78.7214 102.379 87.2514C102.41 87.3253 102.466 87.3866 102.536 87.4255C102.606 87.4645 102.688 87.4787 102.767 87.4661C102.846 87.4534 102.919 87.4146 102.974 87.3558C103.029 87.2969 103.062 87.2214 103.069 87.1414L103.639 78.5414C103.732 77.1262 103.99 75.7234 104.409 74.3614C104.676 73.7147 105.266 71.4814 106.179 67.6614C106.952 64.4214 108.422 60.8247 110.589 56.8714C110.625 56.8049 110.679 56.7494 110.746 56.7107C110.813 56.672 110.89 56.6515 110.969 56.6514L111.269 56.6614C111.336 56.6632 111.402 56.681 111.46 56.7133C111.519 56.7456 111.569 56.7914 111.605 56.8467C111.642 56.902 111.664 56.9651 111.67 57.0304C111.676 57.0957 111.665 57.1613 111.639 57.2214C108.672 64.388 107.026 71.6847 106.699 79.1114C106.697 79.1764 106.712 79.2408 106.744 79.2974C106.777 79.3539 106.824 79.4004 106.881 79.4316C106.938 79.4628 107.003 79.4774 107.068 79.4738C107.133 79.4702 107.196 79.4486 107.249 79.4114ZM57.0489 54.7114C59.0822 56.098 62.0056 57.8714 65.8189 60.0314C67.4989 60.9847 69.0323 62.1047 70.4189 63.3914C70.4598 63.4293 70.511 63.4541 70.5661 63.4627C70.6211 63.4713 70.6775 63.4633 70.728 63.4396C70.7785 63.416 70.8207 63.3779 70.8494 63.3301C70.8781 63.2823 70.8918 63.227 70.8889 63.1714C70.8356 62.598 70.5323 62.028 69.9789 61.4614C66.3656 57.8414 62.0956 55.4947 57.1689 54.4214C57.1326 54.4142 57.0949 54.4198 57.0623 54.4372C57.0297 54.4547 57.0041 54.4829 56.9899 54.5171C56.9758 54.5513 56.9739 54.5894 56.9847 54.6248C56.9954 54.6602 57.0181 54.6908 57.0489 54.7114ZM71.2689 65.9414C68.8422 64.2614 65.3556 62.108 60.8089 59.4814C58.8089 58.328 56.9822 56.9747 55.3289 55.4214C55.281 55.3745 55.22 55.3433 55.1539 55.3319C55.0878 55.3206 55.0199 55.3296 54.9591 55.3578C54.8983 55.3861 54.8475 55.4321 54.8135 55.4899C54.7796 55.5477 54.764 55.6145 54.7689 55.6814C54.8222 56.368 55.1789 57.0514 55.8389 57.7314C60.1322 62.1047 65.2256 64.9547 71.1189 66.2814C71.1615 66.2902 71.2058 66.2842 71.2445 66.2643C71.2832 66.2444 71.3139 66.2118 71.3314 66.172C71.349 66.1322 71.3524 66.0876 71.341 66.0457C71.3296 66.0037 71.3042 65.9669 71.2689 65.9414ZM113.139 73.0698C113.024 73.0131 112.815 73.1503 112.524 73.4735C112.233 73.7967 111.866 74.2995 111.445 74.9533C111.023 75.607 110.555 76.399 110.067 77.2838C109.578 78.1686 109.079 79.1291 108.599 80.1103C108.118 81.0915 107.665 82.0742 107.265 83.0024C106.865 83.9305 106.527 84.7859 106.268 85.5198C106.01 86.2536 105.838 86.8515 105.76 87.2793C105.683 87.7071 105.703 87.9564 105.819 88.013C105.934 88.0696 106.143 87.9324 106.434 87.6092C106.725 87.2861 107.091 86.7832 107.513 86.1295C107.935 85.4757 108.403 84.6838 108.891 83.799C109.38 82.9141 109.878 81.9537 110.359 80.9725C110.84 79.9913 111.293 79.0086 111.693 78.0804C112.093 77.1522 112.431 76.2968 112.689 75.563C112.948 74.8291 113.12 74.2313 113.197 73.8035C113.275 73.3757 113.255 73.1264 113.139 73.0698ZM83.9189 122.201V113.521C83.9216 113.356 83.9777 113.195 84.0788 113.064C84.1799 112.933 84.3206 112.838 84.48 112.793C84.6395 112.748 84.8092 112.756 84.9639 112.815C85.1186 112.874 85.2501 112.982 85.3389 113.121C85.8322 113.928 86.1022 114.838 86.1489 115.851C86.5389 124.891 85.8489 128.711 89.0689 134.721C90.2689 136.975 91.5889 139.541 93.0289 142.421C93.0395 142.462 93.066 142.498 93.1026 142.519C93.1392 142.541 93.1828 142.547 93.2239 142.536C93.265 142.526 93.3002 142.499 93.3218 142.463C93.3434 142.426 93.3495 142.382 93.3389 142.341C92.9789 132.901 92.3489 124.048 91.4489 115.781C90.0989 103.471 80.4689 94.2514 68.4989 91.8514C68.1383 91.7813 67.7649 91.8234 67.4288 91.9717C67.0928 92.1201 66.8101 92.3677 66.6189 92.6814C65.6456 94.2947 64.9423 96.0481 64.5089 97.9414C61.8889 109.401 64.8322 118.681 73.3389 125.781C75.2056 127.341 78.0356 128.951 81.8289 130.611C81.8797 130.633 81.9356 130.639 81.9898 130.629C82.044 130.619 82.094 130.593 82.1335 130.554C82.173 130.516 82.2003 130.467 82.2119 130.413C82.2236 130.359 82.2191 130.303 82.1989 130.251C81.0289 127.181 77.2689 124.271 73.3689 120.681C73.2007 120.527 73.1 120.312 73.0888 120.084C73.0776 119.855 73.1566 119.632 73.3089 119.461L73.5289 119.211C73.6914 119.03 73.9185 118.919 74.1603 118.904C74.4021 118.889 74.639 118.971 74.8189 119.131L79.2089 123.051C79.2473 123.083 79.295 123.1 79.3445 123.101C79.394 123.102 79.4423 123.086 79.4816 123.056C79.5209 123.026 79.5489 122.983 79.5611 122.935C79.5734 122.887 79.569 122.837 79.5489 122.791C74.6189 113.361 69.8089 104.231 67.4289 94.2714C67.3489 93.9314 67.3689 93.698 67.4889 93.5714C67.5858 93.4694 67.7062 93.3932 67.8401 93.3491C67.974 93.305 68.1174 93.2942 68.2584 93.3177C68.3994 93.3412 68.5338 93.3983 68.6505 93.4842C68.7671 93.5701 68.8626 93.6823 68.9289 93.8114C70.4356 96.718 72.1789 100.571 74.1589 105.371C75.4089 108.421 76.8889 110.931 78.4589 114.331C78.4825 114.393 78.5279 114.444 78.5864 114.474C78.6449 114.505 78.7125 114.512 78.7764 114.496C78.8404 114.481 78.8963 114.442 78.9336 114.387C78.9709 114.333 78.987 114.267 78.9789 114.201L78.4489 105.141C78.4451 105.072 78.459 105.002 78.4894 104.94C78.5198 104.877 78.5657 104.823 78.6228 104.783C78.6798 104.743 78.7461 104.718 78.8154 104.711C78.8848 104.704 78.9548 104.714 79.0189 104.741L79.5689 104.991C79.7404 105.067 79.8874 105.189 79.9934 105.342C80.0993 105.496 80.1601 105.676 80.1689 105.861C80.3023 108.501 80.6956 110.851 81.3489 112.911C81.4885 113.344 81.5824 113.789 81.6289 114.241C82.0589 118.041 82.0989 119.591 83.7489 122.251C83.7583 122.27 83.7741 122.285 83.7935 122.294C83.8129 122.302 83.8346 122.304 83.8548 122.298C83.8751 122.292 83.8926 122.279 83.9043 122.261C83.9161 122.244 83.9212 122.222 83.9189 122.201ZM96.6889 119.711C99.3756 114.051 100.786 107.988 100.919 101.521C100.925 101.21 100.885 100.896 100.799 100.591L98.9989 94.3214C98.9685 94.2125 98.9058 94.1154 98.8191 94.0428C98.7324 93.9702 98.6257 93.9256 98.5132 93.9148C98.4007 93.904 98.2875 93.9274 98.1886 93.9822C98.0896 94.0369 98.0095 94.1203 97.9589 94.2214C96.5189 97.0947 95.7589 100.325 95.6789 103.911C95.6389 105.671 95.7556 110.891 96.0289 119.571C96.0336 119.648 96.0632 119.721 96.1131 119.779C96.1631 119.837 96.2307 119.877 96.3056 119.892C96.3806 119.908 96.4586 119.899 96.5278 119.867C96.597 119.834 96.6536 119.779 96.6889 119.711Z" fill="black"/>
<path d="M70.6889 50.9014C70.6872 50.9466 70.6709 50.9901 70.6425 51.0253C70.6141 51.0605 70.5751 51.0856 70.5312 51.0969C70.4874 51.1081 70.4411 51.1049 70.3992 51.0877C70.3574 51.0705 70.3222 51.0402 70.2989 51.0014C68.7522 48.3347 68.1089 45.5947 68.3689 42.7814C68.4153 42.3567 68.4019 41.9259 68.3289 41.5014C67.4489 35.8914 67.5489 32.5614 64.8689 29.7814C64.7387 29.649 64.6519 29.4798 64.6197 29.296C64.5876 29.1122 64.6117 28.9223 64.6889 28.7514L64.7489 28.6114C64.7806 28.5404 64.8301 28.4789 64.8926 28.4327C64.9552 28.3864 65.0289 28.357 65.1067 28.347C65.1846 28.337 65.2641 28.3468 65.338 28.3756C65.4118 28.4043 65.4775 28.4511 65.5289 28.5114C71.8089 36.1514 70.7389 43.3214 70.6889 50.9014Z" fill="#FDFCF8"/>
<path d="M66.4889 42.5914C66.4904 42.5974 66.4906 42.6037 66.4893 42.6098C66.488 42.6158 66.4853 42.6215 66.4814 42.6264C66.4775 42.6312 66.4726 42.6351 66.4669 42.6377C66.4613 42.6403 66.4551 42.6416 66.4489 42.6414L65.8889 42.7314C65.7745 42.7326 65.5781 42.1705 65.3422 41.1671C65.1063 40.1636 64.85 38.7997 64.6289 37.3714L64.5889 37.1114C64.3679 35.6837 64.1999 34.3068 64.1212 33.2791C64.0426 32.2515 64.0598 31.6558 64.1689 31.6214L64.7289 31.5314C64.7349 31.5298 64.7412 31.5297 64.7473 31.531C64.7534 31.5323 64.7591 31.535 64.7639 31.5389C64.7688 31.5427 64.7726 31.5477 64.7752 31.5533C64.7778 31.559 64.7791 31.5652 64.7789 31.5714L66.4889 42.5914Z" fill="#FDFCF8"/>
<path d="M82.9989 56.8414C82.9552 56.9029 82.8936 56.9496 82.8225 56.9752C82.7514 57.0007 82.6743 57.004 82.6013 56.9844C82.5284 56.9648 82.4632 56.9233 82.4145 56.8656C82.3658 56.8078 82.3359 56.7366 82.3289 56.6614L81.9089 49.4514C81.8957 49.2058 81.9158 48.9602 81.9689 48.7214C83.0689 44.2747 84.9556 40.2147 87.6289 36.5414C87.7299 36.4057 87.8688 36.3035 88.0276 36.2482C88.1864 36.1929 88.3577 36.187 88.5189 36.2314L88.5489 36.2414C88.619 36.2592 88.6837 36.2937 88.7377 36.342C88.7918 36.3902 88.8336 36.4509 88.8599 36.5191C88.8862 36.5873 88.8962 36.661 88.8891 36.7344C88.882 36.8078 88.8579 36.8787 88.8189 36.9414C85.7256 41.8947 83.7522 47.4614 82.8989 53.6414C82.8916 53.6965 82.9029 53.7525 82.9309 53.8005C82.959 53.8485 83.0022 53.8858 83.0539 53.9064C83.1055 53.9271 83.1625 53.9299 83.216 53.9145C83.2694 53.8991 83.3162 53.8663 83.3489 53.8214C85.3089 51.1414 85.5089 47.6814 86.8489 44.7014C87.6156 42.988 88.3256 41.008 88.9789 38.7614C88.99 38.7186 89.0156 38.6807 89.0517 38.6536C89.0879 38.6265 89.1326 38.6116 89.1789 38.6114H89.5089C89.5431 38.6111 89.577 38.6181 89.6083 38.632C89.6395 38.6459 89.6674 38.6663 89.6902 38.6919C89.7129 38.7175 89.7299 38.7476 89.74 38.7803C89.7502 38.813 89.7532 38.8474 89.7489 38.8814C88.7822 45.648 86.5322 51.6347 82.9989 56.8414Z" fill="#FDFCF8"/>
<path d="M106.699 79.1114C107.026 71.6847 108.672 64.388 111.639 57.2214C111.665 57.1613 111.676 57.0957 111.67 57.0304C111.664 56.9651 111.642 56.902 111.605 56.8467C111.569 56.7914 111.519 56.7456 111.46 56.7133C111.402 56.681 111.336 56.6632 111.269 56.6614L110.969 56.6514C110.89 56.6515 110.813 56.672 110.746 56.7107C110.679 56.7494 110.625 56.8049 110.589 56.8714C108.422 60.8247 106.952 64.4214 106.179 67.6614C105.266 71.4814 104.676 73.7147 104.409 74.3614C103.99 75.7234 103.732 77.1262 103.639 78.5414L103.069 87.1414C103.062 87.2214 103.029 87.2969 102.974 87.3558C102.919 87.4146 102.846 87.4534 102.767 87.4661C102.688 87.4787 102.606 87.4645 102.536 87.4256C102.466 87.3866 102.41 87.3254 102.379 87.2514C98.9489 78.7214 101.409 68.2314 106.019 60.6714C107.899 57.5814 109.209 56.5714 112.059 53.8214C112.107 53.7749 112.167 53.7412 112.232 53.7237C112.296 53.7063 112.364 53.7055 112.429 53.7217C112.493 53.7378 112.552 53.7701 112.599 53.8156C112.647 53.8612 112.681 53.9183 112.699 53.9814C113.999 58.3414 115.139 66.3914 112.379 70.6614C110.939 72.8881 109.396 74.9581 107.749 76.8714C107.613 77.0288 107.511 77.212 107.449 77.4098C107.387 77.6076 107.367 77.8158 107.389 78.0214C107.476 78.8147 107.429 79.2781 107.249 79.4114C107.196 79.4486 107.133 79.4702 107.068 79.4738C107.003 79.4774 106.938 79.4628 106.881 79.4316C106.824 79.4004 106.777 79.3539 106.744 79.2974C106.712 79.2408 106.696 79.1764 106.699 79.1114Z" fill="#FDFCF8"/>
<path d="M57.0489 54.7113C57.0181 54.6908 56.9954 54.6602 56.9847 54.6248C56.9739 54.5894 56.9758 54.5513 56.9899 54.5171C57.0041 54.4829 57.0297 54.4547 57.0623 54.4372C57.0949 54.4197 57.1326 54.4141 57.1689 54.4213C62.0956 55.4947 66.3656 57.8413 69.9789 61.4613C70.5323 62.028 70.8356 62.598 70.8889 63.1713C70.8918 63.227 70.8781 63.2823 70.8494 63.3301C70.8207 63.3778 70.7785 63.416 70.728 63.4396C70.6775 63.4632 70.6211 63.4713 70.5661 63.4627C70.511 63.4541 70.4598 63.4292 70.4189 63.3913C69.0323 62.1047 67.4989 60.9847 65.8189 60.0313C62.0056 57.8713 59.0822 56.098 57.0489 54.7113Z" fill="#FDFCF8"/>
<path d="M71.2689 65.9414C71.3041 65.9669 71.3296 66.0037 71.341 66.0457C71.3524 66.0876 71.349 66.1322 71.3314 66.172C71.3139 66.2118 71.2832 66.2444 71.2445 66.2643C71.2058 66.2842 71.1615 66.2902 71.1189 66.2814C65.2256 64.9547 60.1322 62.1047 55.8389 57.7314C55.1789 57.0514 54.8222 56.3681 54.7689 55.6814C54.764 55.6145 54.7795 55.5477 54.8135 55.4899C54.8475 55.4322 54.8982 55.3861 54.9591 55.3578C55.0199 55.3296 55.0878 55.3206 55.1539 55.3319C55.2199 55.3433 55.281 55.3745 55.3289 55.4214C56.9822 56.9747 58.8089 58.3281 60.8089 59.4814C65.3556 62.1081 68.8422 64.2614 71.2689 65.9414Z" fill="#FDFCF8"/>
<path d="M116.799 114.201C117.026 112.781 116.652 111.378 115.679 109.991C127.299 109.471 140.679 105.421 148.249 96.5314C154.509 89.1714 158.002 80.4847 158.729 70.4714C158.744 70.2686 158.711 70.0651 158.633 69.8774C158.554 69.6898 158.432 69.5234 158.277 69.3918C158.122 69.2602 157.938 69.167 157.741 69.1201C157.543 69.0731 157.337 69.0735 157.139 69.1214C152.792 70.168 148.756 71.518 145.029 73.1714C143.322 73.9247 140.202 75.778 135.669 78.7314C132.629 80.7047 129.519 82.5847 126.339 84.3714C126.532 82.7047 126.219 81.3247 125.399 80.2314C130.449 77.3214 135.939 73.0913 140.119 70.8813C145.672 67.9547 151.616 65.9047 157.949 64.7314C163.149 63.7714 163.039 70.0113 162.689 73.7913C161.982 81.4847 159.006 88.9947 153.759 96.3213C145.229 108.221 131.399 113.291 116.799 114.201Z" fill="black"/>
<path d="M115.679 109.991L110.479 110.511C110.416 110.52 110.352 110.51 110.295 110.483C110.238 110.455 110.19 110.411 110.158 110.357C110.126 110.302 110.111 110.239 110.115 110.176C110.118 110.113 110.141 110.052 110.179 110.001C112.249 107.141 118.619 106.831 123.779 106.091C124.028 106.058 124.257 105.935 124.422 105.745C124.588 105.556 124.679 105.313 124.679 105.061V104.721C124.68 104.645 124.663 104.57 124.63 104.501C124.597 104.432 124.549 104.372 124.489 104.324C124.429 104.277 124.359 104.244 124.285 104.228C124.21 104.212 124.133 104.213 124.059 104.231C122.279 104.678 120.926 104.761 119.999 104.481C119.934 104.46 119.879 104.418 119.839 104.363C119.8 104.307 119.78 104.241 119.781 104.173C119.782 104.105 119.804 104.039 119.846 103.985C119.887 103.931 119.944 103.891 120.009 103.871C125.489 102.258 128.702 101.431 129.649 101.391C132.189 101.285 134.339 100.888 136.099 100.201C136.242 100.145 136.368 100.054 136.466 99.9358C136.564 99.8177 136.63 99.6768 136.659 99.5262C136.688 99.3755 136.679 99.22 136.631 99.074C136.584 98.9281 136.501 98.7964 136.389 98.6914C136.316 98.6247 136.112 98.6247 135.779 98.6914C133.586 99.0914 131.529 99.3447 129.609 99.4514C129.546 99.4529 129.485 99.4342 129.434 99.3979C129.383 99.3616 129.345 99.3097 129.325 99.25C129.306 99.1903 129.307 99.1261 129.327 99.0668C129.348 99.0076 129.387 98.9565 129.439 98.9214C133.686 96.3214 136.026 94.8847 136.459 94.6114C138.779 93.1414 141.519 93.2814 143.989 91.6314C144.124 91.5451 144.231 91.4221 144.299 91.2768C144.366 91.1316 144.39 90.9701 144.369 90.8114L144.359 90.7514C144.343 90.684 144.312 90.6211 144.269 90.567C144.226 90.5129 144.171 90.4689 144.109 90.4384C144.047 90.4078 143.979 90.3913 143.91 90.3901C143.841 90.3889 143.772 90.403 143.709 90.4314L140.739 91.7014C140.634 91.745 140.517 91.7515 140.407 91.7197C140.298 91.6878 140.203 91.6197 140.138 91.5263C140.072 91.433 140.041 91.3202 140.048 91.2066C140.056 91.0929 140.102 90.9853 140.179 90.9014C143.399 87.5014 146.299 84.8014 147.949 81.4414C148.033 81.2851 148.056 81.1035 148.014 80.9312C147.972 80.759 147.868 80.6084 147.722 80.5081C147.575 80.4078 147.397 80.3649 147.222 80.3876C147.046 80.4104 146.885 80.4972 146.769 80.6314C143.389 84.3047 139.796 87.728 135.989 90.9014C132.119 94.1114 126.919 96.5614 122.819 98.5814C122.78 98.5979 122.736 98.6 122.695 98.5873C122.654 98.5746 122.62 98.5478 122.597 98.5118C122.574 98.4758 122.565 98.4329 122.571 98.3907C122.577 98.3485 122.597 98.3098 122.629 98.2814C126.529 95.068 129.989 91.5447 133.009 87.7114C133.116 87.578 133.332 87.3347 133.659 86.9814C134.059 86.5414 134.212 86.1147 134.119 85.7014C134.086 85.5425 134.008 85.398 133.894 85.2823C133.78 85.1667 133.634 85.0839 133.47 85.0424C133.306 85.0009 133.13 85.002 132.959 85.0457C132.789 85.0894 132.63 85.1741 132.499 85.2914C126.439 90.7314 120.706 96.2547 115.299 101.861C115.23 101.932 115.137 101.974 115.037 101.98C114.938 101.985 114.838 101.954 114.759 101.891L114.739 101.851C114.721 101.824 114.711 101.792 114.711 101.758C114.711 101.724 114.721 101.691 114.739 101.661L119.289 93.3714C119.397 93.175 119.436 92.948 119.4 92.7268C119.364 92.5055 119.254 92.3029 119.089 92.1514C118.776 91.8714 118.486 91.8947 118.219 92.2214C115.732 95.2614 113.256 99.2114 110.789 104.071C110.749 104.144 110.695 104.215 110.629 104.281L105.839 109.101C105.836 109.109 105.831 109.115 105.824 109.118C105.818 109.12 105.81 109.12 105.803 109.116C105.796 109.113 105.79 109.106 105.785 109.098C105.781 109.09 105.779 109.08 105.779 109.071C107.429 102.111 109.439 94.7514 115.559 90.2914C118.612 88.0647 122.206 86.0914 126.339 84.3714C129.519 82.5847 132.629 80.7047 135.669 78.7314C140.202 75.778 143.322 73.9247 145.029 73.1714C148.756 71.518 152.792 70.168 157.139 69.1214C157.337 69.0735 157.543 69.0731 157.741 69.1201C157.938 69.1671 158.122 69.2602 158.277 69.3918C158.432 69.5234 158.554 69.6898 158.633 69.8774C158.711 70.0651 158.744 70.2686 158.729 70.4714C158.002 80.4847 154.509 89.1714 148.249 96.5314C140.679 105.421 127.299 109.471 115.679 109.991Z" fill="#FDFCF8"/>
<path d="M110.359 80.9725C112.38 76.8461 113.625 73.3079 113.139 73.0698C112.653 72.8317 110.62 75.9838 108.599 80.1102C106.577 84.2367 105.333 87.7748 105.819 88.013C106.305 88.2511 108.337 85.099 110.359 80.9725Z" fill="#FDFCF8"/>
<path d="M83.7489 122.251C82.0989 119.591 82.0589 118.041 81.6289 114.241C81.5823 113.789 81.4885 113.344 81.3489 112.911C80.6956 110.851 80.3022 108.501 80.1689 105.861C80.1601 105.676 80.0993 105.496 79.9933 105.342C79.8874 105.189 79.7404 105.067 79.5689 104.991L79.0189 104.741C78.9548 104.714 78.8847 104.704 78.8154 104.711C78.7461 104.718 78.6798 104.743 78.6227 104.783C78.5657 104.823 78.5198 104.877 78.4894 104.94C78.4589 105.002 78.445 105.072 78.4489 105.141L78.9789 114.201C78.987 114.267 78.9709 114.333 78.9336 114.387C78.8963 114.442 78.8404 114.481 78.7764 114.497C78.7125 114.512 78.6448 114.505 78.5864 114.474C78.5279 114.444 78.4825 114.393 78.4589 114.331C76.8889 110.931 75.4089 108.421 74.1589 105.371C72.1789 100.571 70.4355 96.718 68.9289 93.8114C68.8626 93.6823 68.7671 93.5701 68.6504 93.4842C68.5338 93.3983 68.3993 93.3412 68.2583 93.3177C68.1174 93.2942 67.9739 93.305 67.8401 93.3491C67.7062 93.3932 67.5858 93.4694 67.4889 93.5714C67.3689 93.698 67.3489 93.9314 67.4289 94.2714C69.8089 104.231 74.6189 113.361 79.5489 122.791C79.569 122.837 79.5733 122.887 79.5611 122.935C79.5489 122.983 79.5209 123.026 79.4816 123.056C79.4422 123.086 79.3939 123.102 79.3445 123.101C79.295 123.1 79.2472 123.083 79.2089 123.051L74.8189 119.131C74.639 118.971 74.4021 118.889 74.1603 118.904C73.9184 118.919 73.6914 119.03 73.5289 119.211L73.3089 119.461C73.1566 119.632 73.0776 119.855 73.0888 120.084C73.1 120.312 73.2006 120.527 73.3689 120.681C77.2689 124.271 81.0289 127.181 82.1989 130.251C82.219 130.303 82.2235 130.359 82.2119 130.413C82.2003 130.467 82.173 130.516 82.1335 130.554C82.094 130.593 82.044 130.619 81.9898 130.629C81.9356 130.639 81.8796 130.633 81.8289 130.611C78.0355 128.951 75.2056 127.341 73.3389 125.781C64.8322 118.681 61.8889 109.401 64.5089 97.9414C64.9422 96.0481 65.6455 94.2947 66.6189 92.6814C66.8101 92.3677 67.0927 92.1201 67.4288 91.9717C67.7648 91.8234 68.1383 91.7813 68.4989 91.8514C80.4689 94.2514 90.0989 103.471 91.4489 115.781C92.3489 124.048 92.9789 132.901 93.3389 142.341C93.3495 142.382 93.3433 142.426 93.3218 142.463C93.3002 142.499 93.265 142.526 93.2239 142.536C93.1828 142.547 93.1391 142.541 93.1026 142.519C93.066 142.498 93.0395 142.462 93.0289 142.421C91.5889 139.541 90.2689 136.975 89.0689 134.721C85.8489 128.711 86.5389 124.891 86.1489 115.851C86.1022 114.838 85.8322 113.928 85.3389 113.121C85.2501 112.982 85.1186 112.874 84.9639 112.815C84.8092 112.756 84.6394 112.748 84.48 112.793C84.3205 112.838 84.1798 112.933 84.0788 113.064C83.9777 113.195 83.9216 113.356 83.9189 113.521V122.201C83.9212 122.222 83.916 122.244 83.9043 122.261C83.8926 122.279 83.8751 122.292 83.8548 122.298C83.8345 122.304 83.8128 122.302 83.7935 122.294C83.7741 122.285 83.7583 122.27 83.7489 122.251Z" fill="#FDFCF8"/>
<path d="M96.6889 119.711C96.6536 119.779 96.597 119.834 96.5278 119.867C96.4586 119.899 96.3805 119.908 96.3056 119.892C96.2307 119.877 96.1631 119.837 96.1131 119.779C96.0631 119.721 96.0335 119.648 96.0289 119.571C95.7556 110.891 95.6389 105.671 95.6789 103.911C95.7589 100.325 96.5189 97.0947 97.9589 94.2214C98.0095 94.1203 98.0896 94.0369 98.1885 93.9822C98.2875 93.9274 98.4006 93.904 98.5132 93.9148C98.6257 93.9256 98.7324 93.9702 98.8191 94.0428C98.9058 94.1154 98.9685 94.2125 98.9989 94.3214L100.799 100.591C100.885 100.896 100.925 101.21 100.919 101.521C100.786 107.988 99.3756 114.051 96.6889 119.711Z" fill="#FDFCF8"/>
<path d="M136.919 210.021C136.945 210.021 136.97 210.026 136.994 210.036C137.018 210.046 137.039 210.06 137.057 210.078C137.075 210.096 137.088 210.117 137.097 210.14C137.106 210.162 137.11 210.187 137.109 210.211L136.989 215.791C136.983 216.053 136.892 216.305 136.731 216.509C136.571 216.713 136.349 216.858 136.099 216.921C133.732 217.541 131.209 217.975 128.529 218.221C106.609 220.221 88.8089 219.551 60.7789 219.561C59.8059 219.56 58.8684 219.196 58.1505 218.539C57.4326 217.882 56.9862 216.98 56.8989 216.011L56.5789 212.371C56.5511 212.074 56.586 211.773 56.6814 211.49C56.7768 211.206 56.9306 210.945 57.1329 210.724C57.3352 210.503 57.5817 210.326 57.8565 210.205C58.1313 210.084 58.4285 210.022 58.7289 210.021H136.919Z" fill="#FDFCF8"/>
<path d="M61.1189 223.391C63.3056 223.285 65.1922 223.231 66.7789 223.231C90.8589 223.271 107.296 223.155 116.089 222.881C119.742 222.761 126.149 222.321 135.309 221.561C135.671 221.528 136.033 221.576 136.369 221.701C139.389 222.831 140.829 225.801 138.839 228.761C137.499 230.741 135.316 231.921 132.289 232.301C122.556 233.515 113.392 234.131 104.799 234.151C76.9455 234.218 62.4722 234.228 61.3789 234.181C60.2722 234.141 59.3689 233.855 58.6689 233.321C54.4589 230.121 56.3589 225.441 60.3389 223.591C60.5836 223.479 60.8478 223.411 61.1189 223.391ZM136.359 226.991L136.209 225.381C136.208 225.362 136.202 225.342 136.194 225.325C136.185 225.307 136.173 225.291 136.158 225.278C136.143 225.265 136.126 225.255 136.107 225.249C136.088 225.243 136.069 225.24 136.049 225.241L133.909 225.431C132.48 225.556 131.067 225.7 129.751 225.853C128.435 226.006 127.242 226.167 126.241 226.325C125.24 226.482 124.451 226.635 123.918 226.774C123.386 226.912 123.121 227.034 123.139 227.131L123.169 227.541C123.174 227.64 123.461 227.713 124.013 227.756C124.564 227.799 125.37 227.812 126.384 227.794C127.397 227.775 128.598 227.726 129.919 227.648C131.239 227.57 132.653 227.466 134.079 227.341L136.219 227.161C136.24 227.16 136.26 227.155 136.278 227.145C136.297 227.136 136.313 227.123 136.326 227.107C136.339 227.091 136.349 227.072 136.355 227.053C136.36 227.033 136.362 227.012 136.359 226.991Z" fill="#FDFCF8"/>
<path d="M136.359 226.991C136.362 227.012 136.36 227.033 136.355 227.053C136.349 227.072 136.339 227.091 136.326 227.107C136.313 227.123 136.297 227.136 136.278 227.145C136.26 227.155 136.24 227.16 136.219 227.161L134.079 227.341C132.653 227.466 131.239 227.57 129.919 227.648C128.598 227.726 127.397 227.775 126.384 227.794C125.37 227.812 124.564 227.799 124.013 227.756C123.461 227.713 123.174 227.64 123.169 227.541L123.139 227.131C123.121 227.034 123.386 226.912 123.918 226.774C124.451 226.635 125.24 226.482 126.241 226.324C127.242 226.166 128.435 226.006 129.751 225.853C131.067 225.7 132.48 225.556 133.909 225.431L136.049 225.241C136.069 225.24 136.088 225.243 136.107 225.249C136.126 225.255 136.143 225.265 136.158 225.278C136.173 225.291 136.185 225.307 136.194 225.325C136.202 225.342 136.208 225.362 136.209 225.381L136.359 226.991Z" fill="black"/>
<path d="M60.8789 237.981C87.4922 237.895 102.376 237.835 105.529 237.801C116.636 237.681 126.576 237.035 135.349 235.861C137.796 235.535 139.506 236.525 140.479 238.831C141.999 242.431 138.139 245.201 135.179 246.091C134.812 246.198 132.849 246.495 129.289 246.981C120.956 248.108 112.452 248.698 103.779 248.751C96.7922 248.798 82.4222 248.828 60.6689 248.841C60.3999 248.841 60.1355 248.776 59.8989 248.651C57.4689 247.351 54.3189 244.271 56.3189 241.181C57.4122 239.495 58.7489 238.451 60.3289 238.051C60.5081 238.005 60.6929 237.981 60.8789 237.981ZM137.859 239.421L124.509 241.031C124.496 241.034 124.483 241.039 124.472 241.046C124.46 241.053 124.451 241.063 124.443 241.074C124.436 241.085 124.431 241.098 124.428 241.111C124.426 241.125 124.426 241.138 124.429 241.151C124.487 241.624 124.825 242.043 125.368 242.317C125.912 242.59 126.617 242.696 127.329 242.611L135.489 241.621C135.842 241.579 136.187 241.491 136.503 241.362C136.819 241.233 137.1 241.066 137.33 240.87C137.56 240.674 137.735 240.453 137.845 240.22C137.955 239.987 137.997 239.746 137.969 239.511C137.968 239.498 137.964 239.485 137.958 239.474C137.951 239.462 137.943 239.452 137.933 239.443C137.922 239.435 137.911 239.429 137.898 239.425C137.885 239.421 137.872 239.42 137.859 239.421Z" fill="#FDFCF8"/>
<path d="M137.859 239.421C137.872 239.42 137.885 239.421 137.898 239.425C137.911 239.429 137.922 239.435 137.933 239.443C137.943 239.452 137.951 239.462 137.958 239.474C137.964 239.485 137.968 239.498 137.969 239.511C137.997 239.746 137.955 239.987 137.845 240.22C137.735 240.453 137.56 240.674 137.33 240.87C137.1 241.066 136.819 241.233 136.503 241.362C136.187 241.491 135.842 241.579 135.489 241.621L127.329 242.611C126.617 242.696 125.912 242.59 125.368 242.317C124.825 242.043 124.487 241.624 124.429 241.151C124.426 241.138 124.426 241.125 124.428 241.111C124.431 241.098 124.436 241.085 124.443 241.074C124.451 241.063 124.46 241.053 124.472 241.046C124.483 241.039 124.496 241.034 124.509 241.031L137.859 239.421Z" fill="black"/>
<path d="M111.879 262.991C96.6322 262.925 81.4322 262.901 66.2789 262.921C63.0589 262.921 54.9589 261.721 56.3789 257.211C57.1122 254.871 58.7422 253.328 61.2689 252.581C79.1956 252.648 97.0789 252.481 114.919 252.081C121.339 251.941 127.589 251.071 135.299 250.351C137.199 250.171 138.702 250.738 139.809 252.051C142.169 254.861 139.909 257.971 137.369 259.631C134.849 261.278 132.156 262.195 129.289 262.381C123.462 262.748 117.659 262.951 111.879 262.991ZM135.949 253.961L124.649 255.271C124.646 255.271 124.644 255.272 124.642 255.274C124.64 255.276 124.639 255.279 124.639 255.281V255.311C124.692 255.754 125.019 256.145 125.55 256.401C126.081 256.656 126.771 256.753 127.469 256.671L133.529 255.971C134.226 255.891 134.875 255.638 135.332 255.269C135.79 254.899 136.019 254.444 135.969 254.001L135.959 253.971C135.959 253.969 135.958 253.966 135.956 253.964C135.954 253.962 135.952 253.961 135.949 253.961Z" fill="#FDFCF8"/>
<path d="M61.2689 252.581C58.7422 253.328 57.1122 254.871 56.3789 257.211C54.9589 261.721 63.0589 262.921 66.2789 262.921C81.4322 262.901 96.6322 262.925 111.879 262.991L91.5689 264.781C91.4406 264.794 91.3224 264.857 91.2401 264.956C91.1577 265.055 91.1178 265.183 91.1289 265.311L91.1589 265.611C91.1637 265.689 91.1968 265.763 91.2521 265.818C91.3073 265.873 91.3809 265.907 91.4589 265.911L104.079 266.791L67.6589 267.121C67.5634 267.12 67.4692 267.143 67.3847 267.188C67.3002 267.233 67.2281 267.298 67.1747 267.378C67.1212 267.458 67.0882 267.551 67.0785 267.647C67.0687 267.744 67.0826 267.841 67.1189 267.931C68.0689 270.331 72.6489 270.461 75.3089 270.511C86.1622 270.725 100.909 270.768 119.549 270.641C120.369 270.635 121.836 270.315 123.949 269.681L127.139 273.161L107.669 284.981C107.257 285.23 106.787 285.362 106.309 285.361C97.1889 285.401 91.5122 285.448 89.2789 285.501C87.7389 285.535 86.4156 285.201 85.3089 284.501C78.9689 280.468 73.0022 276.878 67.4089 273.731C64.3789 272.021 63.2789 270.261 61.5189 267.441C61.3511 267.169 61.1311 266.933 60.8718 266.748C60.6124 266.562 60.3191 266.431 60.0089 266.361C57.7223 265.855 55.9056 264.901 54.5589 263.501C50.5522 259.335 50.9556 255.118 55.7689 250.851C56.9356 252.311 58.7689 252.888 61.2689 252.581Z" fill="black"/>
<path d="M135.949 253.961C135.952 253.961 135.954 253.962 135.956 253.964C135.958 253.966 135.959 253.969 135.959 253.971L135.969 254.001C136.019 254.444 135.79 254.899 135.332 255.269C134.875 255.638 134.226 255.891 133.529 255.971L127.469 256.671C126.771 256.753 126.081 256.656 125.55 256.4C125.019 256.145 124.692 255.754 124.639 255.311V255.281C124.639 255.279 124.64 255.276 124.642 255.274C124.644 255.272 124.646 255.271 124.649 255.271L135.949 253.961Z" fill="black"/>
<path d="M123.949 269.681C121.836 270.315 120.369 270.635 119.549 270.641C100.909 270.768 86.1622 270.725 75.3089 270.511C72.6489 270.461 68.0689 270.331 67.1189 267.931C67.0826 267.841 67.0687 267.744 67.0785 267.647C67.0882 267.551 67.1212 267.458 67.1746 267.378C67.2281 267.298 67.3002 267.233 67.3847 267.188C67.4692 267.143 67.5634 267.12 67.6589 267.121L104.079 266.791L127.759 266.581C127.873 266.579 127.984 266.616 128.074 266.686C128.164 266.755 128.228 266.854 128.256 266.965C128.284 267.077 128.273 267.195 128.227 267.301C128.18 267.407 128.1 267.495 127.999 267.551L123.949 269.681Z" fill="#FDFCF8"/>
</svg>
