<svg width="586" height="463" viewBox="0 0 586 463" fill="none" xmlns="http://www.w3.org/2000/svg">
<path d="M543.364 423.298L490.374 423.838C490.087 423.844 489.806 423.931 489.564 424.088L484.804 427.218C484.717 427.273 484.65 427.354 484.614 427.45C484.578 427.547 484.574 427.652 484.603 427.752C484.632 427.851 484.693 427.94 484.776 428.004C484.859 428.068 484.96 428.104 485.064 428.108L539.684 429.768C539.742 429.77 539.796 429.794 539.837 429.835C539.878 429.875 539.902 429.93 539.904 429.988V429.998C539.905 430.028 539.901 430.058 539.89 430.086C539.879 430.115 539.862 430.141 539.841 430.163C539.82 430.185 539.794 430.203 539.765 430.216C539.737 430.229 539.706 430.236 539.674 430.238C518.894 431.284 498.378 431.808 478.124 431.808C477.493 431.808 476.876 431.959 476.324 432.248L469.974 435.568C469.936 435.59 469.906 435.625 469.888 435.666C469.871 435.707 469.867 435.752 469.877 435.796C469.887 435.839 469.91 435.878 469.944 435.907C469.978 435.936 470.02 435.954 470.064 435.958L527.874 437.518C527.89 437.518 527.905 437.523 527.917 437.532C527.928 437.542 527.934 437.554 527.934 437.568V437.838C527.934 437.911 527.907 437.982 527.856 438.036C527.806 438.09 527.738 438.123 527.664 438.128C503.378 439.501 480.448 440.144 458.874 440.058C458.237 440.051 457.606 440.198 457.034 440.488L446.814 445.668C446.764 445.693 446.724 445.734 446.699 445.784C446.675 445.834 446.667 445.891 446.677 445.946C446.687 446.001 446.714 446.051 446.755 446.09C446.796 446.128 446.849 446.151 446.904 446.158C449.971 446.564 453.094 446.861 456.274 447.048C469.604 447.838 487.284 448.118 504.224 449.248C510.438 449.661 516.741 450.044 523.134 450.398C523.191 450.399 523.246 450.422 523.288 450.46C523.33 450.498 523.357 450.55 523.364 450.607C523.371 450.664 523.358 450.721 523.327 450.769C523.296 450.816 523.249 450.851 523.194 450.868C522.954 450.941 522.571 450.984 522.044 450.998C515.064 451.204 494.804 451.521 461.264 451.948C448.798 452.108 438.534 451.894 430.474 451.308C429.959 451.275 429.446 451.339 428.964 451.498L418.584 454.968C418.51 454.992 418.448 455.042 418.41 455.108C418.371 455.175 418.359 455.254 418.374 455.331C418.39 455.407 418.433 455.476 418.496 455.525C418.558 455.574 418.636 455.6 418.714 455.598C420.901 455.438 423.418 455.384 426.264 455.438C479.384 456.311 507.341 456.888 510.134 457.168C507.808 457.574 505.684 457.808 503.764 457.868C486.984 458.368 468.818 458.851 449.264 459.318C431.904 459.724 416.421 459.788 402.814 459.508C399.601 459.441 396.091 459.701 392.284 460.288C379.298 462.301 365.631 462.754 351.284 461.648C339.364 460.728 329.621 459.698 322.054 458.558C321.156 458.425 320.249 458.381 319.344 458.428C315.471 458.621 312.944 458.704 311.764 458.678C272.964 457.678 229.954 455.888 200.074 454.998C199.975 454.995 199.881 454.954 199.812 454.883C199.743 454.812 199.704 454.717 199.704 454.618L199.714 454.358C199.714 454.35 199.716 454.342 199.72 454.336C199.724 454.331 199.729 454.328 199.734 454.328L296.304 454.398C296.357 454.397 296.407 454.378 296.447 454.345C296.488 454.311 296.515 454.265 296.526 454.214C296.536 454.162 296.529 454.109 296.505 454.062C296.481 454.016 296.442 453.979 296.394 453.958L273.274 444.638C272.752 444.426 272.199 444.314 271.644 444.308L140.024 442.748C139.952 442.745 139.883 442.714 139.833 442.662C139.782 442.61 139.754 442.54 139.754 442.468V442.458C139.754 442.409 139.773 442.362 139.806 442.327C139.84 442.291 139.886 442.27 139.934 442.268C145.448 442.028 151.391 441.861 157.764 441.768C179.798 441.441 207.401 441.081 240.574 440.688C244.108 440.641 247.801 440.364 251.654 439.858C251.714 439.85 251.77 439.821 251.811 439.777C251.852 439.733 251.877 439.675 251.88 439.615C251.884 439.555 251.866 439.495 251.83 439.446C251.795 439.397 251.743 439.362 251.684 439.348C250.304 439.028 248.641 438.861 246.694 438.848C243.881 438.841 230.488 438.954 206.514 439.188C185.034 439.401 164.034 439.094 143.514 438.268C117.424 437.228 90.9842 433.818 65.5242 426.768C44.2942 420.898 16.7042 409.848 6.79418 388.778C2.39418 379.438 1.49419 369.548 1.39419 359.538C1.28085 347.218 4.61418 335.928 11.3942 325.668C11.542 325.442 11.6248 325.179 11.6336 324.907C11.6424 324.636 11.5769 324.366 11.4442 324.128C6.69417 315.618 3.38419 307.808 2.47419 297.788C1.89419 291.381 1.68418 284.714 1.84418 277.788C2.10418 267.134 5.01752 257.241 10.5842 248.108C10.7965 247.763 10.9581 247.392 11.0642 247.008L13.3342 238.848C13.3974 238.62 13.3963 238.38 13.3309 238.153C13.2656 237.927 13.1385 237.724 12.9642 237.568C2.00418 227.718 -3.25582 213.858 2.13418 199.388C4.66751 192.608 8.41751 186.291 13.3842 180.438C13.5419 180.254 13.6209 180.016 13.6041 179.774C13.5872 179.533 13.4759 179.307 13.2942 179.148C4.38418 171.238 2.01417 162.398 1.77417 149.948C1.61417 141.581 2.04084 133.718 3.05417 126.358C4.95417 112.488 15.8742 100.928 27.4342 93.6776C38.5875 86.6843 50.2675 81.2909 62.4742 77.4976C78.8142 72.4076 94.6742 69.5676 112.304 67.1276C119.638 66.1076 127.294 65.3509 135.274 64.8576C156.821 63.5176 178.514 63.2142 200.354 63.9476C200.548 63.9541 200.741 63.9222 200.923 63.8535C201.104 63.7849 201.271 63.6809 201.414 63.5476C204.368 60.7742 208.381 57.0909 213.454 52.4976C230.414 37.1476 250.994 25.7176 272.014 16.7776C287.041 10.3842 302.371 5.95425 318.004 3.48759C337.664 0.387585 358.324 -1.47244 378.114 1.49756C391.641 3.52423 405.798 6.63756 420.584 10.8376C425.158 12.1376 429.761 13.7209 434.394 15.5876C439.414 17.6076 446.954 20.4376 452.394 23.2976C462.008 28.3576 470.144 33.1476 476.804 37.6676C510.274 60.3876 536.064 90.6976 556.414 125.898C560.814 133.518 565.041 142.538 569.094 152.958C578.444 176.988 584.514 201.288 585.574 226.508C585.954 235.594 585.544 245.788 584.344 257.088C582.658 272.881 579.317 288.884 574.324 305.098C568.124 325.248 560.974 342.528 550.254 359.308C548.587 361.908 545.937 365.921 542.304 371.348C536.044 380.701 528.647 389.478 520.114 397.678C517.714 399.984 514.337 403.418 509.984 407.978C505.664 412.498 500.918 416.608 495.744 420.308C495.707 420.331 495.678 420.365 495.663 420.406C495.647 420.447 495.645 420.493 495.658 420.535C495.67 420.577 495.696 420.613 495.732 420.639C495.767 420.665 495.81 420.679 495.854 420.678C507.234 421.304 518.454 421.781 529.514 422.108C534.627 422.254 539.251 422.561 543.384 423.028C543.42 423.028 543.454 423.042 543.477 423.067C543.501 423.092 543.513 423.127 543.51 423.163C543.509 423.18 543.504 423.198 543.496 423.214C543.488 423.231 543.477 423.245 543.463 423.258C543.436 423.283 543.4 423.298 543.364 423.298ZM259.354 419.118C259.337 419.147 259.333 419.181 259.342 419.215C259.352 419.248 259.374 419.278 259.404 419.298C267.424 424.204 275.148 428.091 282.574 430.958C315.614 443.728 351.694 449.118 387.294 444.978C409.734 442.358 432.424 434.548 453.074 425.088C483.024 411.368 511.584 388.068 529.944 360.748C537.084 350.108 541.544 343.054 543.324 339.588C558.304 310.408 566.821 279.558 568.874 247.038C570.724 217.768 565.884 190.828 554.814 163.878C553.361 160.338 550.987 155.688 547.694 149.928C545.421 145.941 543.014 141.241 540.474 135.828C533.424 120.798 527.184 109.278 517.454 97.3476C507.834 85.5609 497.094 74.6376 485.234 64.5776C458.294 41.7276 424.804 27.4776 390.294 19.7376C375.508 16.4243 361.834 15.1776 349.274 15.9976C318.254 18.0276 285.894 25.4576 259.314 40.8876C248.501 47.1609 241.544 51.4409 238.444 53.7276C224.698 63.8609 211.984 75.0576 200.304 87.3176C193.404 94.5709 187.841 101.258 183.614 107.378C181.841 109.951 179.051 114.411 175.244 120.758C163.414 140.478 155.464 162.778 151.314 184.638C145.481 215.424 146.458 245.864 154.244 275.958C155.544 280.991 157.684 287.524 160.664 295.558C162.951 301.731 165.234 308.224 167.514 315.038C171.874 328.048 179.224 340.848 186.544 353.008C190.624 359.788 196.441 367.858 203.994 377.218C204.039 377.274 204.104 377.311 204.176 377.32C204.249 377.33 204.323 377.311 204.384 377.268L204.394 377.258C204.448 377.219 204.486 377.162 204.499 377.096C204.512 377.031 204.499 376.964 204.464 376.908C200.231 370.281 197.481 365.838 196.214 363.578C189.988 352.431 184.704 341.818 180.364 331.738C175.774 321.088 171.564 312.358 168.634 303.338C162.568 284.631 158.598 270.471 156.724 260.858C153.478 244.118 151.838 228.014 151.804 212.548C151.798 207.554 152.341 202.298 153.434 196.778C153.484 196.518 153.624 196.284 153.831 196.118C154.038 195.951 154.298 195.862 154.564 195.868L154.864 195.878C155.026 195.881 155.186 195.918 155.333 195.985C155.481 196.052 155.613 196.148 155.723 196.268C155.832 196.387 155.916 196.528 155.969 196.681C156.023 196.834 156.045 196.996 156.034 197.158C155.681 202.224 155.668 206.851 155.994 211.038C156.928 223.024 158.544 236.598 160.844 251.758C161.764 257.838 163.981 267.771 167.494 281.558C169.834 290.758 173.111 300.381 177.324 310.428C187.484 334.668 194.954 350.918 206.864 369.298C213.644 379.758 222.694 390.271 234.014 400.838C234.881 401.651 235.671 402.201 236.384 402.488C236.409 402.5 236.438 402.503 236.465 402.496C236.493 402.489 236.517 402.473 236.533 402.451C236.55 402.428 236.558 402.401 236.556 402.373C236.555 402.345 236.543 402.318 236.524 402.298C214.294 373.628 195.364 342.018 182.464 308.348C177.178 294.534 172.428 279.118 168.214 262.098C166.714 256.038 165.378 248.618 164.204 239.838C164.098 239.047 164.233 238.243 164.589 237.53C164.946 236.817 165.508 236.227 166.204 235.838L166.464 235.688C166.737 235.534 167.043 235.448 167.357 235.438C167.67 235.428 167.981 235.495 168.263 235.631C168.545 235.768 168.79 235.971 168.977 236.223C169.163 236.475 169.286 236.768 169.334 237.078C171.828 252.964 175.941 268.734 181.674 284.388C181.716 284.5 181.78 284.603 181.863 284.688C181.945 284.773 182.044 284.839 182.15 284.879C182.257 284.92 182.368 284.935 182.476 284.922C182.585 284.91 182.687 284.871 182.774 284.808C183.168 284.528 183.121 284.034 182.634 283.328C181.281 281.354 180.497 279.488 180.284 277.728C180.225 277.231 180.245 276.724 180.344 276.228L180.844 273.658C180.919 273.289 180.91 272.909 180.818 272.543C180.727 272.178 180.554 271.838 180.314 271.548C178.507 269.368 178.234 267.451 179.494 265.798C181.454 263.228 184.114 263.598 186.334 265.678C186.502 265.837 186.726 265.924 186.956 265.92C187.186 265.916 187.405 265.822 187.564 265.658C192.254 260.868 197.134 258.298 203.994 258.938C212.274 259.711 218.814 263.681 223.614 270.848C227.604 276.798 227.534 282.198 223.904 288.588C221.764 292.354 219.574 298.278 217.334 306.358C216.194 310.464 213.908 313.828 210.474 316.448C207.754 318.528 205.188 319.471 202.774 319.278C199.588 319.018 196.948 318.121 194.854 316.588C193.768 315.801 193.024 315.321 192.624 315.148C192.554 315.118 192.478 315.109 192.403 315.123C192.328 315.136 192.259 315.171 192.204 315.223C192.149 315.275 192.11 315.341 192.092 315.415C192.075 315.489 192.079 315.566 192.104 315.638C196.258 326.911 201.554 337.904 207.994 348.618C218.324 365.818 226.984 379.528 237.214 392.148C243.134 399.454 250.404 405.918 259.024 411.538C268.964 418.018 279.734 423.688 291.024 428.198C297.504 430.784 301.157 432.238 301.984 432.558C304.437 433.498 306.428 433.724 307.954 433.238C311.148 432.218 313.581 431.831 315.254 432.078C342.744 436.198 369.344 435.708 396.514 431.718C419.114 428.408 436.914 421.698 460.714 411.628C460.85 411.569 461.001 411.553 461.147 411.582C461.293 411.61 461.428 411.682 461.534 411.788L461.834 412.088C461.954 412.208 462.046 412.354 462.103 412.514C462.16 412.675 462.18 412.846 462.163 413.015C462.146 413.184 462.091 413.348 462.003 413.494C461.915 413.639 461.796 413.764 461.654 413.858C454.608 418.538 448.274 422.061 442.654 424.428C433.141 428.434 421.951 432.078 409.084 435.358C397.351 438.351 386.448 440.178 376.374 440.838C354.354 442.268 330.534 440.878 307.774 435.858C304.668 435.171 302.314 434.588 300.714 434.108C297.094 433.001 294.771 432.348 293.744 432.148C281.431 429.674 270.108 425.291 259.774 418.998C259.74 418.978 259.702 418.965 259.663 418.96C259.624 418.955 259.584 418.957 259.546 418.968C259.508 418.978 259.473 418.995 259.441 419.019C259.41 419.043 259.384 419.073 259.364 419.108L259.354 419.118ZM134.454 184.018C138.434 166.431 143.054 151.441 148.314 139.048C157.274 117.948 169.634 98.9976 184.194 81.3076C184.246 81.246 184.283 81.1734 184.303 81.0953C184.322 81.0171 184.324 80.9352 184.308 80.8557C184.292 80.7761 184.258 80.7009 184.209 80.6354C184.159 80.57 184.096 80.5161 184.024 80.4776C183.871 80.3909 183.614 80.3509 183.254 80.3576C157.744 80.6876 142.534 80.6776 122.034 83.2776C112.314 84.5176 105.171 85.4876 100.604 86.1876C83.8175 88.7809 67.0075 93.5342 50.1742 100.448C46.4875 101.961 42.0675 104.288 36.9142 107.428C29.3942 112.008 23.3342 117.068 19.7342 124.778C17.0842 130.438 17.8342 136.208 17.8942 144.558C17.9542 153.811 21.4642 161.088 28.4242 166.388C34.3442 170.901 40.4142 174.251 46.6342 176.438C60.5408 181.324 75.2542 185.081 90.7742 187.708C102.014 189.608 115.938 191.001 132.544 191.888C132.666 191.894 132.788 191.876 132.903 191.835C133.018 191.794 133.123 191.729 133.213 191.646C133.303 191.563 133.375 191.463 133.425 191.352C133.475 191.24 133.502 191.12 133.504 190.998L133.624 186.748C133.626 186.71 133.618 186.673 133.601 186.639C133.584 186.606 133.559 186.577 133.528 186.556C133.497 186.535 133.461 186.522 133.423 186.519C133.386 186.516 133.348 186.522 133.314 186.538C132.134 187.051 130.871 187.301 129.524 187.288C119.814 187.198 108.624 187.078 99.7042 184.398C98.6575 184.084 98.2209 183.421 98.3942 182.408C98.4334 182.181 98.5556 181.978 98.7369 181.838C98.9182 181.697 99.1455 181.629 99.3742 181.648C108.501 182.388 118.631 182.641 129.764 182.408C131.731 182.368 133.178 182.931 134.104 184.098C134.128 184.127 134.159 184.148 134.194 184.161C134.23 184.173 134.268 184.175 134.304 184.167C134.341 184.158 134.374 184.14 134.4 184.114C134.427 184.087 134.446 184.054 134.454 184.018ZM131.514 248.718C130.354 235.651 130.198 222.418 131.044 209.018C131.051 208.927 131.039 208.835 131.01 208.749C130.981 208.662 130.935 208.583 130.874 208.515C130.813 208.447 130.74 208.391 130.657 208.352C130.575 208.313 130.485 208.291 130.394 208.288C97.5742 206.998 63.6042 201.308 32.7142 189.818C32.0809 189.584 30.9408 189.348 29.2942 189.108C29.1309 189.086 28.9652 189.105 28.8117 189.163C28.6581 189.22 28.5216 189.315 28.4142 189.438C24.1075 194.278 21.4475 197.711 20.4342 199.738C12.8142 214.928 22.7842 225.188 36.0242 231.078C52.5309 238.431 69.9575 243.384 88.3042 245.938C102.778 247.951 116.998 249.074 130.964 249.308C131.04 249.309 131.116 249.295 131.186 249.265C131.256 249.236 131.32 249.192 131.372 249.136C131.423 249.08 131.463 249.014 131.488 248.942C131.512 248.87 131.521 248.793 131.514 248.718ZM137.674 282.628L134.434 267.278C134.394 267.095 134.294 266.932 134.15 266.814C134.007 266.696 133.829 266.63 133.644 266.628C110.884 266.308 88.9142 263.888 67.7342 259.368C51.7042 255.958 36.4242 249.998 22.0642 244.128C22.0057 244.104 21.9427 244.093 21.8799 244.097C21.8171 244.1 21.756 244.117 21.7012 244.147C21.6464 244.177 21.5994 244.218 21.5636 244.269C21.5277 244.319 21.504 244.377 21.4942 244.438C21.0742 246.958 21.0908 248.584 21.5442 249.318C24.9775 254.898 29.4442 259.248 34.9442 262.368C40.3575 265.441 45.5875 267.881 50.6342 269.688C78.2142 279.558 107.494 282.098 137.304 283.058C137.359 283.058 137.414 283.047 137.464 283.025C137.514 283.002 137.559 282.969 137.594 282.928C137.63 282.887 137.655 282.838 137.669 282.786C137.683 282.734 137.685 282.68 137.674 282.628ZM199.604 300.588C199.918 297.861 199.894 294.898 199.534 291.698C198.854 285.708 197.904 276.848 204.904 274.128C205.016 274.082 205.109 273.999 205.167 273.893C205.226 273.787 205.246 273.664 205.225 273.545C205.204 273.426 205.143 273.318 205.052 273.238C204.961 273.158 204.845 273.112 204.724 273.108L199.734 272.968C199.605 272.964 199.477 272.99 199.358 273.041C199.239 273.093 199.132 273.17 199.044 273.268C197.424 275.074 196.558 277.018 196.444 279.098C196.051 286.378 196.804 294.178 198.704 302.498C199.011 303.831 199.791 304.794 201.044 305.388C201.488 305.593 201.972 305.665 202.421 305.593C202.87 305.521 203.258 305.308 203.524 304.988C204.398 303.921 205.111 302.564 205.664 300.918C206.938 297.091 208.544 292.041 210.484 285.768C210.858 284.568 210.914 282.231 210.654 278.758C210.636 278.498 210.552 278.248 210.41 278.031C210.268 277.814 210.074 277.637 209.844 277.518C208.784 276.958 207.994 276.298 207.474 275.538C207.268 275.243 206.955 275.041 206.602 274.974C206.249 274.907 205.884 274.98 205.584 275.178C201.564 277.858 201.824 280.268 201.914 285.638C202.004 291.668 202.624 296.578 200.214 300.788C200.175 300.851 200.116 300.899 200.047 300.925C199.977 300.95 199.901 300.951 199.83 300.928C199.76 300.905 199.699 300.859 199.658 300.797C199.617 300.735 199.598 300.661 199.604 300.588ZM164.624 349.368C156.257 333.588 149.198 317.758 143.444 301.878C143.345 301.607 143.172 301.37 142.946 301.193C142.72 301.017 142.449 300.907 142.164 300.878C139.704 300.618 137.238 300.444 134.764 300.358C122.024 299.944 110.338 299.194 99.7042 298.108C90.5175 297.161 79.2008 295.304 65.7542 292.538C59.8475 291.324 52.5908 289.171 43.9842 286.078C34.9308 282.831 26.8942 278.514 19.8742 273.128C19.7683 273.046 19.6418 272.995 19.5088 272.981C19.3758 272.967 19.2415 272.991 19.1211 273.049C19.0007 273.107 18.8988 273.198 18.8269 273.311C18.7551 273.423 18.716 273.554 18.7142 273.688C18.5408 283.234 18.7309 291.931 19.2842 299.778C19.5242 303.144 20.0509 305.628 20.8642 307.228C24.2175 313.834 29.1275 319.171 35.5942 323.238C52.5042 333.868 72.7342 339.498 92.2542 343.058C116.041 347.398 140.094 349.621 164.414 349.728C164.455 349.728 164.495 349.717 164.531 349.697C164.566 349.676 164.596 349.646 164.617 349.61C164.638 349.574 164.65 349.533 164.651 349.49C164.652 349.448 164.643 349.406 164.624 349.368ZM226.024 420.948C226.125 420.942 226.221 420.906 226.3 420.845C226.379 420.783 226.437 420.698 226.467 420.602C226.496 420.506 226.496 420.403 226.465 420.308C226.434 420.212 226.374 420.128 226.294 420.068C219.994 415.434 214.417 411.101 209.564 407.068C200.331 399.394 192.218 390.674 185.224 380.908C182.384 376.941 179.438 372.558 176.384 367.758C176.209 367.487 175.97 367.264 175.689 367.108C175.408 366.953 175.094 366.87 174.774 366.868C169.068 366.848 161.814 366.734 153.014 366.528C135.114 366.108 115.621 364.188 94.5342 360.768C81.0208 358.568 68.2842 355.551 56.3242 351.718C45.0842 348.108 35.5642 343.298 26.1242 337.058C25.9559 336.948 25.7519 336.907 25.5557 336.944C25.3595 336.982 25.1867 337.094 25.0742 337.258C20.8008 343.478 18.4142 350.064 17.9142 357.018C17.5242 362.548 18.7242 370.468 19.9042 375.938C21.2042 381.971 24.2175 387.024 28.9442 391.098C36.4308 397.538 44.7442 402.398 53.8842 405.678C58.9708 407.504 65.0175 409.308 72.0242 411.088C81.6242 413.528 90.6308 415.344 99.0442 416.538C140.554 422.418 182.834 422.728 226.024 420.948ZM259.014 418.118C258.868 417.718 258.614 417.538 258.254 417.578C258.16 417.587 258.072 417.627 258.004 417.693C257.936 417.759 257.892 417.845 257.879 417.939C257.866 418.033 257.885 418.128 257.934 418.209C257.982 418.291 258.056 418.354 258.144 418.388L258.564 418.558C258.626 418.584 258.695 418.592 258.761 418.58C258.827 418.568 258.889 418.536 258.937 418.489C258.985 418.441 259.018 418.381 259.032 418.315C259.046 418.249 259.04 418.18 259.014 418.118Z" fill="black"/>
<path d="M327.145 38.925C328.676 37.857 329.187 35.9446 328.286 34.6537C327.386 33.3628 325.415 33.1821 323.884 34.2501C322.353 35.3182 321.842 37.2305 322.742 38.5214C323.643 39.8124 325.614 39.993 327.145 38.925Z" fill="black"/>
<path d="M402.054 69.0676C402.124 78.8876 391.234 82.1676 383.474 80.2876C381.854 79.9009 379.281 78.4909 375.754 76.0576C375.249 75.705 374.71 75.4003 374.144 75.1476C366.804 71.9176 360.944 68.3976 355.994 62.0076C348.014 51.7276 355.424 42.3976 363.884 36.3576C365.724 35.0376 368.204 34.1876 371.324 33.8076C382.154 32.4876 392.254 44.1476 398.044 51.7976C399.084 53.1709 399.748 54.6742 400.034 56.3076C400.834 60.7876 401.354 63.3276 401.594 63.9276C401.888 64.6876 402.041 66.4009 402.054 69.0676ZM365.904 51.4176C367.984 51.1276 370.804 51.0576 371.144 48.6776C371.179 48.4424 371.142 48.2023 371.038 47.9882C370.935 47.7742 370.77 47.596 370.565 47.4765C370.359 47.3571 370.123 47.302 369.885 47.3182C369.648 47.3344 369.421 47.4213 369.234 47.5676L365.514 50.4776C365.425 50.5494 365.361 50.6483 365.333 50.7594C365.304 50.8706 365.313 50.9879 365.357 51.0939C365.401 51.1998 365.478 51.2887 365.576 51.347C365.675 51.4054 365.79 51.4301 365.904 51.4176ZM366.334 53.1776C366.287 53.1082 366.217 53.0571 366.136 53.0328C366.055 53.0085 365.969 53.0124 365.891 53.0439C365.813 53.0754 365.748 53.1325 365.707 53.2059C365.665 53.2793 365.65 53.3645 365.664 53.4476C366.394 57.2776 368.224 59.1576 372.164 60.4276C377.011 61.9943 381.488 64.1009 385.594 66.7476C385.866 66.9201 386.112 67.1252 386.324 67.3576L387.734 68.8876C387.794 68.9546 387.872 69.0033 387.959 69.0281C388.046 69.0529 388.138 69.0527 388.224 69.0277C388.311 69.0026 388.389 68.9537 388.449 68.8865C388.509 68.8193 388.549 68.7364 388.564 68.6476C390.174 59.0376 381.664 53.1476 373.534 48.9576C373.366 48.869 373.179 48.8207 372.988 48.8166C372.798 48.8125 372.608 48.8526 372.435 48.9338C372.262 49.0151 372.11 49.1352 371.99 49.285C371.87 49.4348 371.786 49.6102 371.744 49.7976C371.471 51.0442 371.144 51.9009 370.764 52.3676C370.628 52.5355 370.529 52.7312 370.475 52.9407C370.421 53.1503 370.414 53.3689 370.453 53.5812C370.492 53.7934 370.576 53.9943 370.701 54.1699C370.826 54.3454 370.987 54.4914 371.174 54.5976L386.864 63.5676C386.985 63.6367 387.088 63.7321 387.167 63.8465C387.246 63.9609 387.298 64.0913 387.319 64.228C387.34 64.3647 387.33 64.504 387.289 64.6356C387.249 64.7672 387.179 64.8875 387.084 64.9876L387.024 65.0576C386.794 65.1739 386.538 65.2313 386.282 65.2243C386.025 65.2173 385.775 65.1462 385.554 65.0176C381.054 62.4242 376.458 60.4976 371.764 59.2376C370.637 58.935 369.658 58.2268 369.014 57.2476L366.334 53.1776Z" fill="black"/>
<path d="M332.365 43.9787C330.726 43.0851 328.851 43.3631 328.177 44.5996C327.502 45.8361 328.285 47.5628 329.923 48.4564C331.562 49.35 333.438 49.072 334.112 47.8355C334.786 46.5991 334.004 44.8723 332.365 43.9787Z" fill="black"/>
<path d="M277.384 107.588C273.257 108.914 268.984 108.514 264.564 106.388C258.174 103.318 251.624 94.0876 255.324 86.5276C256.077 84.9876 257.011 82.6009 258.124 79.3676C258.337 78.7626 258.612 78.1828 258.944 77.6376C263.634 70.0376 270.484 61.1476 279.514 59.3376C280.987 59.0442 284.237 59.0342 289.264 59.3076C289.867 59.3407 290.464 59.4654 291.034 59.6776C300.004 63.0576 309.144 71.2976 308.734 81.5876C308.421 89.5276 304.858 95.2509 298.044 98.7576C295.104 100.278 291.964 100.618 288.874 101.258C287.905 101.462 286.985 101.867 286.174 102.448C282.261 105.254 279.331 106.968 277.384 107.588ZM271.604 83.8976C276.084 81.6442 280.808 78.6609 285.774 74.9476C285.877 74.8713 286.001 74.8278 286.129 74.8227C286.258 74.8176 286.384 74.8512 286.493 74.9192C286.602 74.9871 286.688 75.0862 286.74 75.2036C286.792 75.321 286.807 75.4513 286.784 75.5776C286.564 76.8076 284.874 78.5076 283.224 80.5076C282.231 81.7009 281.067 82.8676 279.734 84.0076C276.307 86.9342 272.961 90.1676 269.694 93.7076C269.147 94.3076 268.911 94.9009 268.984 95.4876C268.997 95.5825 269.031 95.6735 269.083 95.7541C269.134 95.8347 269.203 95.9031 269.284 95.9545C269.365 96.0059 269.456 96.0391 269.551 96.0517C269.646 96.0643 269.743 96.0561 269.834 96.0276C274.624 94.5576 278.764 92.2776 283.204 88.5776C286.077 86.1843 289.317 83.9876 292.924 81.9876C293.092 81.894 293.239 81.7669 293.356 81.614C293.472 81.4612 293.556 81.2859 293.602 81.0992C293.648 80.9125 293.655 80.7184 293.623 80.5288C293.591 80.3393 293.52 80.1584 293.414 79.9976L288.654 72.7876C288.409 72.4132 288.041 72.1371 287.614 72.0076C283.424 70.7576 280.344 72.2376 277.464 75.8176C273.718 80.4776 271.664 83.0509 271.304 83.5376C271.271 83.5808 271.253 83.6341 271.254 83.6887C271.255 83.7433 271.275 83.796 271.31 83.838C271.345 83.8799 271.393 83.9087 271.446 83.9195C271.5 83.9304 271.556 83.9226 271.604 83.8976Z" fill="black"/>
<path d="M431.124 74.4476C434.145 74.4476 436.594 71.9986 436.594 68.9776C436.594 65.9566 434.145 63.5076 431.124 63.5076C428.103 63.5076 425.654 65.9566 425.654 68.9776C425.654 71.9986 428.103 74.4476 431.124 74.4476Z" fill="black"/>
<path d="M331.995 82.2534C330.53 82.0423 329.181 82.9923 328.982 84.3753C328.782 85.7583 329.808 87.0506 331.273 87.2617C332.738 87.4728 334.087 86.5228 334.287 85.1398C334.486 83.7568 333.46 82.4645 331.995 82.2534Z" fill="black"/>
<path d="M223.831 84.3162C223.642 83.0936 222.617 82.2375 221.541 82.4039C220.466 82.5704 219.748 83.6964 219.937 84.9189C220.127 86.1415 221.152 86.9976 222.227 86.8312C223.302 86.6647 224.02 85.5387 223.831 84.3162Z" fill="black"/>
<path d="M461.554 92.1076C461.481 91.9876 461.428 91.8643 461.394 91.7376C461.37 91.6461 461.371 91.5505 461.395 91.4608C461.42 91.3711 461.468 91.2905 461.534 91.2276C468.004 85.1076 477.794 83.1176 485.254 88.2776C491.194 92.3842 495.581 96.1776 498.414 99.6576C500.248 101.911 501.001 105.141 500.674 109.348C500.044 117.618 494.124 122.298 486.884 125.148C479.137 128.201 472.257 130.641 466.244 132.468C465.264 132.768 463.014 133.178 461.614 132.918C453.454 131.411 447.961 126.814 445.134 119.128C444.949 118.631 444.844 118.111 444.824 117.588C444.534 110.138 443.874 101.878 449.194 97.7476C450.727 96.5609 452.111 96.5776 453.344 97.7976C453.512 97.9649 453.729 98.0738 453.963 98.108C454.197 98.1422 454.436 98.1 454.644 97.9876C456.984 96.7009 459.267 95.0243 461.494 92.9576C461.747 92.7176 461.767 92.4343 461.554 92.1076ZM486.884 109.628C486.956 109.572 487.016 109.501 487.058 109.421C487.101 109.341 487.126 109.252 487.131 109.161C487.137 109.07 487.123 108.979 487.091 108.894C487.059 108.809 487.009 108.732 486.944 108.668L481.744 103.468C481.625 103.348 481.49 103.241 481.344 103.148C476.244 99.9476 472.024 102.448 467.154 105.688C464.581 107.408 462.064 109.598 459.604 112.258C459.46 112.417 459.371 112.618 459.352 112.831C459.332 113.044 459.382 113.257 459.494 113.438C460.594 115.238 462.077 116.971 463.944 118.638C465.444 119.978 466.674 120.018 468.244 118.588C473.074 114.198 477.004 113.608 483.064 112.538C483.143 112.525 483.219 112.49 483.284 112.438L486.884 109.628Z" fill="black"/>
<path d="M234.984 93.0176C236.288 93.0176 237.344 91.961 237.344 90.6576C237.344 89.3542 236.288 88.2976 234.984 88.2976C233.681 88.2976 232.624 89.3542 232.624 90.6576C232.624 91.961 233.681 93.0176 234.984 93.0176Z" fill="black"/>
<path d="M160.264 90.3776C160.461 90.4759 160.627 90.6283 160.74 90.8171C160.854 91.0059 160.912 91.2231 160.907 91.4435C160.901 91.6638 160.833 91.8781 160.711 92.0612C160.588 92.2444 160.416 92.3888 160.214 92.4776L154.954 94.7776C154.315 95.0555 153.596 95.0889 152.934 94.8713C152.272 94.6538 151.714 94.2004 151.364 93.5976L150.554 92.1976C150.421 91.9681 150.35 91.7083 150.347 91.4432C150.344 91.1781 150.41 90.9167 150.538 90.6844C150.665 90.452 150.851 90.2566 151.076 90.117C151.302 89.9775 151.559 89.8984 151.824 89.8876C155.004 89.7576 158.324 89.1676 160.264 90.3776Z" fill="black"/>
<path d="M426.864 97.6576C428.156 97.6576 429.204 96.6099 429.204 95.3176C429.204 94.0252 428.156 92.9776 426.864 92.9776C425.572 92.9776 424.524 94.0252 424.524 95.3176C424.524 96.6099 425.572 97.6576 426.864 97.6576Z" fill="black"/>
<path d="M107.674 100.418C109.524 96.7776 113.444 94.8176 117.784 94.5676C122.264 94.3076 124.764 93.9576 128.164 95.8476C132.151 98.0609 135.147 100.914 137.154 104.408C137.344 104.742 137.444 105.121 137.444 105.508C137.404 114.488 122.014 114.758 116.524 112.968C112.584 111.694 109.701 109.271 107.874 105.698C107.481 104.924 107.317 103.534 107.384 101.528C107.397 101.139 107.496 100.76 107.674 100.418ZM118.073 102.081C118.047 102.163 118.087 102.266 118.193 102.384C118.299 102.502 118.468 102.632 118.69 102.767C118.912 102.903 119.183 103.04 119.487 103.172C119.791 103.304 120.123 103.428 120.463 103.536C120.804 103.645 121.146 103.736 121.47 103.805C121.795 103.874 122.095 103.919 122.354 103.937C122.614 103.955 122.827 103.947 122.981 103.912C123.136 103.877 123.229 103.817 123.255 103.735C123.282 103.652 123.241 103.549 123.135 103.431C123.029 103.313 122.86 103.183 122.638 103.048C122.416 102.913 122.146 102.775 121.841 102.643C121.537 102.511 121.205 102.387 120.865 102.279C120.525 102.17 120.182 102.079 119.858 102.01C119.533 101.941 119.233 101.897 118.974 101.878C118.714 101.86 118.502 101.868 118.347 101.903C118.192 101.938 118.099 101.998 118.073 102.081Z" fill="black"/>
<path d="M465.784 116.558C465.7 116.629 465.595 116.669 465.486 116.673C465.376 116.677 465.268 116.645 465.179 116.58C465.091 116.515 465.026 116.423 464.996 116.317C464.966 116.212 464.972 116.099 465.014 115.998C465.448 115.038 466.204 114.134 467.284 113.288C471.498 110.014 476.324 108.158 481.764 107.718C482.244 107.678 482.581 107.698 482.774 107.778C482.945 107.844 483.09 107.963 483.189 108.117C483.288 108.271 483.336 108.452 483.326 108.635C483.316 108.818 483.248 108.993 483.133 109.135C483.018 109.277 482.861 109.38 482.684 109.428C482.198 109.568 480.198 110.071 476.684 110.938C471.604 112.198 469.194 113.408 465.784 116.558Z" fill="black"/>
<path d="M56.9942 118.248C56.9755 118.024 57.0042 117.8 57.0783 117.59C57.1525 117.379 57.2704 117.188 57.4242 117.028C63.4442 110.778 69.5542 109.558 77.7642 109.948C82.1042 110.148 85.8242 111.508 90.7142 112.618C94.0409 113.371 96.0975 115.301 96.8842 118.408C98.6842 125.518 91.8642 128.128 86.1442 129.618C79.1175 131.451 72.5842 131.751 66.5442 130.518C63.7442 129.938 59.0542 128.238 57.6842 125.478C57.6512 125.411 57.6308 125.34 57.6242 125.268L56.9942 118.248ZM82.4801 118.1C82.4232 117.685 81.5326 117.402 80.0041 117.312C78.4756 117.222 76.4345 117.334 74.3298 117.622C73.2876 117.765 72.2612 117.947 71.3091 118.157C70.3571 118.368 69.498 118.603 68.781 118.849C68.064 119.096 67.5031 119.348 67.1303 119.593C66.7575 119.837 66.5801 120.069 66.6083 120.275C66.6652 120.69 67.5558 120.973 69.0843 121.063C70.6128 121.153 72.6539 121.041 74.7586 120.753C75.8008 120.61 76.8272 120.428 77.7793 120.218C78.7313 120.007 79.5904 119.772 80.3074 119.526C81.0244 119.279 81.5853 119.027 81.9581 118.782C82.3309 118.538 82.5083 118.306 82.4801 118.1Z" fill="black"/>
<path d="M185.014 123.498C184.294 127.284 182.341 130.378 179.154 132.778C178.932 132.941 178.668 133.035 178.394 133.048C173.104 133.288 175.624 126.348 177.024 123.508C178.437 120.641 179.387 118.481 179.874 117.028C179.986 116.703 180.156 116.402 180.374 116.138C181.514 114.771 182.701 113.621 183.934 112.688C186.214 110.958 190.454 111.208 191.524 114.488C191.608 114.758 191.59 115.049 191.474 115.308L189.504 119.818C189.306 120.254 189.028 120.651 188.684 120.988C187.997 121.641 187.057 122.161 185.864 122.548C185.65 122.614 185.457 122.738 185.308 122.905C185.158 123.072 185.057 123.277 185.014 123.498Z" fill="black"/>
<path d="M361.744 124.818C363.314 126.568 365.354 127.718 365.964 130.578C366.794 134.478 367.534 137.458 366.804 141.118C366.064 144.811 364.414 147.984 361.854 150.638C351.684 161.178 341.064 168.388 325.494 165.778C314.994 164.028 307.164 154.898 308.724 144.038C309.391 139.431 311.371 135.571 314.664 132.458C317.504 129.778 321.037 126.974 325.264 124.048C330.537 120.394 336.697 118.184 343.744 117.418C350.637 116.664 356.637 119.131 361.744 124.818ZM327.554 149.128C330.274 147.428 332.194 146.334 333.314 145.848C335.384 144.948 340.404 144.848 343.594 145.108C348.064 145.468 351.864 144.028 352.714 139.248C352.734 139.109 352.727 138.966 352.694 138.828L351.144 133.138C351.015 132.671 350.734 132.256 350.344 131.958C343.804 126.978 328.274 137.288 323.944 142.938C323.769 143.168 323.669 143.447 323.658 143.735C323.647 144.023 323.726 144.307 323.884 144.548L326.784 148.958C326.867 149.081 326.994 149.168 327.137 149.2C327.281 149.231 327.431 149.206 327.554 149.128Z" fill="black"/>
<path d="M42.2394 124.332C41.9216 122.824 40.5469 121.837 39.1689 122.128C37.7908 122.418 36.9312 123.876 37.249 125.383C37.5667 126.891 38.9414 127.878 40.3195 127.588C41.6975 127.297 42.5571 125.84 42.2394 124.332Z" fill="black"/>
<path d="M180.994 148.708C180.983 148.792 181.003 148.877 181.05 148.947C181.097 149.018 181.169 149.069 181.25 149.091C181.332 149.113 181.419 149.104 181.495 149.067C181.571 149.029 181.631 148.966 181.664 148.888L188.184 135.268C188.32 134.983 188.359 134.659 188.294 134.348C187.634 131.014 188.617 128.514 191.244 126.848C196.124 123.738 204.354 123.878 208.054 129.398C209.014 130.831 209.597 132.691 209.804 134.978C210.144 138.668 211.454 142.738 210.184 146.338C208.204 151.938 206.634 154.858 201.814 158.648C195.534 163.578 182.284 173.028 176.574 161.808C174.421 157.581 173.561 153.224 173.994 148.738C174.554 142.998 181.334 136.768 185.874 134.018C186.033 133.92 186.219 133.878 186.405 133.899C186.59 133.919 186.763 134 186.897 134.129C187.031 134.259 187.118 134.429 187.145 134.613C187.171 134.798 187.136 134.986 187.044 135.148C183.744 140.948 181.354 143.968 180.994 148.708ZM197.684 132.978C197.797 132.797 197.857 132.588 197.859 132.375C197.861 132.162 197.804 131.952 197.694 131.769C197.585 131.586 197.427 131.437 197.238 131.338C197.049 131.239 196.837 131.194 196.624 131.208C193.617 131.408 191.047 132.501 188.914 134.488C188.662 134.721 188.496 135.031 188.444 135.368L187.954 138.518C187.941 138.584 187.921 138.651 187.894 138.718L184.684 147.368C184.377 148.191 184.311 149.085 184.494 149.948L185.324 153.868C185.354 154.019 185.425 154.159 185.528 154.274C185.631 154.388 185.764 154.473 185.911 154.519C186.058 154.565 186.215 154.571 186.365 154.535C186.515 154.5 186.653 154.425 186.764 154.318C190.004 151.208 191.624 143.638 192.574 141.468C192.94 140.635 193.368 139.83 193.854 139.058L197.684 132.978Z" fill="black"/>
<path d="M136.764 127.278C136.975 127.493 137.125 127.76 137.2 128.053C137.276 128.346 137.274 128.657 137.196 128.957C137.118 129.257 136.965 129.538 136.752 129.774C136.539 130.009 136.271 130.193 135.974 130.308C134.401 130.914 132.954 131.271 131.634 131.378C131.173 131.417 130.712 131.287 130.339 131.011C129.966 130.735 129.704 130.332 129.604 129.878C128.614 125.258 134.574 124.998 136.764 127.278Z" fill="black"/>
<path d="M403.605 130.934C400.868 129.722 397.705 130.871 396.539 133.502C395.373 136.132 396.647 139.248 399.383 140.461C402.12 141.674 405.284 140.524 406.449 137.893C407.615 135.263 406.342 132.147 403.605 130.934Z" fill="black"/>
<path d="M350.644 138.188C350.807 138.142 350.98 138.144 351.142 138.194C351.304 138.244 351.448 138.34 351.556 138.47C351.665 138.6 351.734 138.758 351.755 138.926C351.776 139.095 351.748 139.265 351.674 139.418L350.954 140.928C350.728 141.399 350.394 141.812 349.979 142.133C349.564 142.454 349.08 142.675 348.564 142.778C343.917 143.711 338.537 144.278 332.424 144.478C330.764 144.538 329.504 144.938 328.274 145.948C328.129 146.063 327.95 146.129 327.765 146.135C327.579 146.141 327.397 146.086 327.246 145.979C327.095 145.873 326.984 145.72 326.929 145.544C326.875 145.369 326.88 145.18 326.944 145.008C327.351 143.881 328.168 143.188 329.394 142.928C341.221 140.421 348.304 138.841 350.644 138.188Z" fill="black"/>
<path d="M57.0022 139.482C54.5697 139.277 52.4464 140.914 52.2597 143.138C52.0729 145.361 53.8936 147.329 56.3261 147.533C58.7586 147.738 60.8819 146.101 61.0686 143.877C61.2554 141.654 59.4347 139.686 57.0022 139.482Z" fill="black"/>
<path d="M231.374 150.508C229.201 148.941 228.007 146.921 227.794 144.448C227.758 144.03 227.865 143.612 228.097 143.262C228.329 142.911 228.674 142.649 229.074 142.518C238.894 139.348 239.544 151.328 232.314 150.848C231.974 150.821 231.649 150.704 231.374 150.508Z" fill="black"/>
<path d="M513.844 150.608C515.772 150.608 517.334 149.045 517.334 147.118C517.334 145.19 515.772 143.628 513.844 143.628C511.917 143.628 510.354 145.19 510.354 147.118C510.354 149.045 511.917 150.608 513.844 150.608Z" fill="black"/>
<path d="M91.4942 150.548C96.8042 141.978 105.314 144.138 113.534 146.018C117.127 146.838 120.074 148.061 122.374 149.688C127.014 152.968 123.624 157.558 119.414 158.948C110.521 161.901 102.094 161.501 94.1341 157.748C91.8541 156.674 90.8575 154.624 91.1442 151.598C91.1769 151.229 91.2967 150.87 91.4942 150.548Z" fill="black"/>
<path d="M295.454 149.168C297.294 149.988 298.294 149.618 299.464 152.238C299.732 152.826 300.162 153.325 300.704 153.678C303.194 155.268 305.724 158.478 303.244 161.308C297.784 167.538 291.554 161.278 289.204 155.728C287.994 152.878 285.874 151.748 286.204 148.128C286.223 147.948 286.278 147.775 286.366 147.618C286.453 147.462 286.572 147.325 286.714 147.218C287.481 146.631 288.474 146.224 289.694 145.998C291.824 145.608 293.594 148.328 295.454 149.168Z" fill="black"/>
<path d="M229.709 150.092C228.818 148.32 226.8 147.536 225.201 148.34C223.603 149.144 223.029 151.232 223.92 153.003C224.811 154.775 226.829 155.559 228.427 154.755C230.026 153.951 230.6 151.863 229.709 150.092Z" fill="black"/>
<path d="M524.36 154.188C523.193 152.958 521.309 152.852 520.151 153.951C518.993 155.049 519.001 156.937 520.168 158.167C521.335 159.397 523.22 159.503 524.377 158.404C525.535 157.306 525.528 155.418 524.36 154.188Z" fill="black"/>
<path d="M86.9442 174.698C86.9242 174.864 86.8242 175.048 86.6442 175.248C86.4975 175.414 86.3175 175.514 86.1042 175.548C84.5042 175.761 83.1375 175.761 82.0042 175.548C77.8708 174.781 72.8475 173.458 66.9342 171.578C63.0475 170.344 59.2008 168.238 55.3942 165.258C55.2215 165.121 55.0843 164.945 54.9942 164.744C54.9041 164.543 54.8637 164.324 54.8764 164.104C54.8892 163.884 54.9547 163.671 55.0675 163.481C55.1802 163.292 55.3369 163.133 55.5242 163.018L55.5942 162.978C56.0886 162.674 56.6548 162.508 57.2347 162.496C57.8146 162.483 58.3873 162.626 58.8942 162.908C67.7075 167.808 76.5842 171.101 85.5242 172.788C85.9613 172.869 86.3513 173.111 86.615 173.466C86.8787 173.821 86.9964 174.261 86.9442 174.698Z" fill="black"/>
<path d="M71.3042 162.668C71.3231 162.584 71.3583 162.505 71.4077 162.435C71.4572 162.365 71.5199 162.306 71.5924 162.261C71.6649 162.215 71.7456 162.184 71.83 162.17C71.9144 162.156 72.0008 162.158 72.0842 162.178L72.7642 162.338C73.5266 162.514 74.2744 162.719 74.9647 162.941C75.6549 163.163 76.2742 163.398 76.7869 163.632C77.2996 163.866 77.6958 164.095 77.9528 164.305C78.2097 164.515 78.3223 164.703 78.2842 164.858L78.1542 165.438C78.0815 165.75 77.4011 165.909 76.2628 165.879C75.1245 165.849 73.6215 165.632 72.0842 165.278L71.4042 165.128C71.3207 165.109 71.2418 165.073 71.1719 165.024C71.1021 164.975 71.0427 164.912 70.9972 164.839C70.9516 164.767 70.9209 164.686 70.9066 164.602C70.8924 164.517 70.895 164.431 70.9142 164.348L71.3042 162.668Z" fill="black"/>
<path d="M401.624 200.958C401.557 200.744 401.361 200.441 401.034 200.048C399.794 198.538 399.884 196.858 400.974 195.238C406.121 187.604 411.701 180.604 417.714 174.238C420.904 170.858 423.864 170.838 428.434 170.758C431.967 170.698 435.234 171.801 438.234 174.068C442.174 177.048 447.164 181.438 448.344 186.418C448.671 187.804 448.651 190.758 448.284 195.278C447.844 200.788 445.714 205.228 441.344 209.288C435.731 214.501 430.454 218.168 425.514 220.288C420.114 222.608 414.701 222.324 409.274 219.438C401.024 215.048 399.354 211.228 401.664 201.818C401.729 201.536 401.716 201.239 401.624 200.958ZM416.614 195.098C417.521 194.418 418.787 193.284 420.414 191.698C423.474 188.718 426.454 186.514 429.354 185.088C429.496 185.02 429.655 184.996 429.81 185.019C429.966 185.041 430.111 185.109 430.229 185.213C430.346 185.318 430.43 185.455 430.47 185.606C430.51 185.758 430.505 185.919 430.454 186.068C430.381 186.288 430.091 186.638 429.584 187.118C427.417 189.138 424.681 191.461 421.374 194.088C420.75 194.589 420.333 195.305 420.204 196.098C419.584 199.938 417.714 203.641 414.594 207.208C414.485 207.329 414.411 207.477 414.377 207.637C414.343 207.796 414.352 207.962 414.403 208.117C414.454 208.272 414.544 208.411 414.666 208.52C414.787 208.629 414.935 208.704 415.094 208.738C417.544 209.278 421.064 206.248 422.474 204.738C427.944 198.928 431.594 195.758 434.664 190.598C434.761 190.434 434.822 190.253 434.843 190.067C434.863 189.881 434.843 189.693 434.784 189.518C433.771 186.351 431.991 183.858 429.444 182.038C429.187 181.853 428.894 181.727 428.584 181.668C425.817 181.174 423.587 182.328 421.894 185.128C419.954 188.334 418.091 191.568 416.304 194.828C416.281 194.87 416.272 194.919 416.28 194.966C416.289 195.014 416.313 195.057 416.349 195.089C416.386 195.12 416.432 195.138 416.48 195.14C416.528 195.142 416.576 195.127 416.614 195.098Z" fill="black"/>
<path d="M60.8241 174.468C60.8033 174.348 60.8135 174.225 60.8539 174.11C60.8943 173.995 60.9635 173.893 61.0548 173.812C61.1462 173.732 61.2566 173.677 61.3756 173.651C61.4945 173.626 61.618 173.632 61.7341 173.668C68.9741 175.981 76.6208 178.281 84.6742 180.568C85.0314 180.669 85.3377 180.9 85.5322 181.215C85.7268 181.53 85.7952 181.906 85.7241 182.268L85.7042 182.368C85.6696 182.538 85.6018 182.699 85.5046 182.843C85.4074 182.987 85.2828 183.111 85.1379 183.206C84.993 183.302 84.8306 183.368 84.6601 183.401C84.4896 183.434 84.3142 183.433 84.1442 183.398C78.0175 182.111 72.7641 180.621 68.3841 178.928C65.1175 177.668 62.7341 176.404 61.2341 175.138C61.0008 174.938 60.8641 174.714 60.8241 174.468Z" fill="black"/>
<path d="M129.261 175.38L99.6374 174.397C98.7432 174.367 97.9942 175.068 97.9645 175.963L97.9619 176.042C97.9322 176.937 98.6331 177.686 99.5273 177.715L129.151 178.698C130.045 178.728 130.794 178.027 130.824 177.133L130.826 177.053C130.856 176.158 130.155 175.41 129.261 175.38Z" fill="black"/>
<path d="M475.866 181.031C476.219 179.593 475.479 178.176 474.213 177.865C472.948 177.554 471.635 178.467 471.282 179.905C470.929 181.342 471.669 182.759 472.935 183.07C474.201 183.381 475.513 182.468 475.866 181.031Z" fill="black"/>
<path d="M358.734 183.658C358.871 183.992 358.88 184.368 358.757 184.718C358.634 185.068 358.388 185.369 358.064 185.568C356.664 186.428 355.791 187.511 355.444 188.818C353.664 195.528 342.984 188.388 349.544 183.018C352.534 180.578 357.024 179.418 358.734 183.658Z" fill="black"/>
<path d="M264.884 191.448C264.891 191.454 266.024 192.081 268.284 193.328C273.044 195.938 277.604 202.688 280.744 207.618C283.164 211.411 284.051 215.174 283.404 218.908C281.894 227.698 273.684 233.458 264.944 231.908C260.174 231.058 254.424 228.098 250.594 226.028C249.667 225.524 248.664 225.18 247.624 225.008C241.224 223.918 237.224 221.028 234.514 214.378C232.304 208.938 229.144 202.608 233.044 197.048C235.104 194.114 237.581 191.288 240.474 188.568C246.244 183.138 255.674 183.778 261.824 187.908C262.958 188.661 263.787 189.571 264.314 190.638C264.46 190.936 264.652 191.209 264.884 191.448ZM249.064 199.878C247.074 200.868 243.384 203.038 243.824 205.498C245.324 213.958 251.784 214.598 258.754 215.988C259.099 216.054 259.436 216.165 259.754 216.318C263.074 217.928 266.284 219.418 267.254 222.058C267.296 222.17 267.361 222.271 267.447 222.355C267.532 222.439 267.635 222.503 267.748 222.543C267.862 222.583 267.983 222.598 268.103 222.587C268.223 222.575 268.339 222.538 268.444 222.478C271.098 220.944 271.834 219.144 270.654 217.078C268.194 212.764 266.517 210.114 265.624 209.128C265.325 208.802 264.99 208.507 264.624 208.248C259.744 204.788 254.948 201.991 250.234 199.858C250.049 199.773 249.848 199.731 249.646 199.735C249.443 199.738 249.245 199.787 249.064 199.878Z" fill="black"/>
<path d="M517.614 238.648L513.884 241.658C513.838 241.691 513.787 241.721 513.734 241.748C506.544 245.528 500.714 249.348 492.944 244.968C486.344 241.241 482.841 235.621 482.434 228.108C481.994 220.021 484.814 213.714 490.894 209.188C495.927 205.434 498.861 202.874 499.694 201.508C499.858 201.232 499.954 200.923 499.974 200.608C500.254 196.014 502.444 193.031 506.544 191.658C509.418 190.698 512.611 190.724 516.124 191.738C523.704 193.908 530.004 201.468 532.984 208.598C535.831 215.404 534.518 221.234 529.044 226.088C528.867 226.245 528.654 226.355 528.424 226.408L527.394 226.638C527.247 226.671 527.111 226.741 526.997 226.84C526.884 226.94 526.797 227.066 526.744 227.208C526.351 228.274 525.888 229.168 525.354 229.888C524.201 231.408 521.624 234.324 517.624 238.638C517.624 238.64 517.623 238.643 517.621 238.645C517.619 238.647 517.617 238.648 517.614 238.648ZM511.364 205.378L509.024 203.038C508.902 202.915 508.738 202.844 508.565 202.839C508.392 202.833 508.224 202.893 508.094 203.008C506.847 204.094 505.817 205.434 505.004 207.028C503.111 210.741 500.797 214.758 498.064 219.078C495.364 223.378 495.414 229.418 501.224 230.788C503.391 231.294 505.201 231.024 506.654 229.978C511.194 226.708 515.504 219.328 517.254 214.958C517.383 214.635 517.394 214.277 517.284 213.948L515.644 209.048C515.547 208.748 515.362 208.487 515.114 208.298C513.914 207.371 512.641 207.018 511.294 207.238C510.935 207.296 510.602 207.46 510.334 207.708C506.204 211.518 504.894 215.098 501.924 221.418C500.854 223.698 500.784 225.138 500.334 227.378C500.309 227.5 500.254 227.614 500.173 227.71C500.093 227.805 499.99 227.879 499.874 227.925C499.758 227.97 499.632 227.986 499.508 227.971C499.384 227.956 499.266 227.91 499.164 227.838C497.204 226.418 498.814 221.398 499.604 219.898C502.364 214.624 504.621 210.544 506.374 207.658C507.341 206.064 508.958 205.404 511.224 205.678C511.26 205.683 511.296 205.677 511.327 205.661C511.358 205.644 511.383 205.617 511.399 205.584C511.414 205.551 511.419 205.513 511.413 205.476C511.407 205.439 511.39 205.405 511.364 205.378Z" fill="black"/>
<path d="M249.604 200.168C249.648 200.11 249.709 200.067 249.777 200.047C249.846 200.028 249.919 200.031 249.984 200.058L250.334 200.198C250.375 200.214 250.412 200.239 250.443 200.27C250.475 200.301 250.499 200.337 250.516 200.377C250.533 200.417 250.541 200.46 250.541 200.503C250.541 200.546 250.532 200.588 250.514 200.628C250.228 201.348 249.698 202.014 248.924 202.628C248.771 202.747 248.651 202.904 248.574 203.084C248.497 203.264 248.466 203.461 248.484 203.658C248.914 207.708 251.804 209.988 255.764 210.908C258.471 211.528 260.968 212.944 263.254 215.158C263.333 215.233 263.396 215.325 263.439 215.426C263.482 215.528 263.504 215.637 263.504 215.748V216.048C263.504 216.112 263.486 216.175 263.454 216.23C263.422 216.286 263.376 216.332 263.32 216.364C263.265 216.396 263.202 216.414 263.138 216.414C263.074 216.415 263.01 216.399 262.954 216.368C260.021 214.694 257.834 213.621 256.394 213.148C255.941 213.001 254.531 212.858 252.164 212.718C251.652 212.691 251.163 212.498 250.774 212.168C248.661 210.374 247.164 208.071 246.284 205.258C246.181 204.935 246.191 204.585 246.314 204.268C246.521 203.708 246.891 203.264 247.424 202.938C248.644 202.208 248.824 201.278 249.604 200.168Z" fill="black"/>
<path d="M43.1241 200.978C45.6641 200.628 48.4242 204.798 48.7642 206.698C48.8281 207.053 48.8006 207.421 48.6842 207.768C47.9308 209.914 46.5575 211.124 44.5641 211.398C42.5708 211.678 40.9208 210.888 39.6142 209.028C39.4033 208.726 39.2725 208.379 39.2342 208.018C39.0542 206.098 40.5741 201.328 43.1241 200.978Z" fill="black"/>
<path d="M182.294 211.528C185.111 211.528 187.394 209.244 187.394 206.428C187.394 203.611 185.111 201.328 182.294 201.328C179.478 201.328 177.194 203.611 177.194 206.428C177.194 209.244 179.478 211.528 182.294 211.528Z" fill="black"/>
<path d="M557.834 217.898C557.944 221.108 556.274 228.888 552.314 229.378C546.874 230.058 549.224 224.378 550.024 221.908C550.168 221.469 550.192 221 550.094 220.548C549.864 219.538 549.154 218.648 549.154 217.428C549.168 215.648 548.908 213.821 548.374 211.948C548.267 211.564 548.24 211.162 548.295 210.767C548.349 210.372 548.485 209.993 548.692 209.653C548.899 209.314 549.174 209.02 549.5 208.792C549.826 208.564 550.195 208.406 550.584 208.328L551.304 208.178C552.162 208.003 553.054 208.132 553.828 208.545C554.602 208.957 555.209 209.626 555.544 210.438C557.024 214.031 557.788 216.518 557.834 217.898Z" fill="black"/>
<path d="M108.324 223.568C108.511 224.654 107.884 226.144 106.444 228.038C106.295 228.23 106.187 228.452 106.125 228.689C106.063 228.926 106.049 229.174 106.084 229.418C106.304 230.878 106.421 231.671 106.434 231.798C106.944 237.448 100.074 240.978 95.5942 241.648C89.8642 242.498 79.4842 241.938 74.1242 238.188C70.6542 235.768 65.2942 232.178 64.8842 228.768C63.9442 220.868 64.0642 216.968 70.9342 212.648C74.8542 210.188 85.8742 211.028 90.2842 211.438C93.8842 211.778 100.764 213.288 103.714 215.988C106.348 218.408 107.884 220.934 108.324 223.568ZM74.0042 219.658C78.8242 220.358 83.9508 220.868 89.3842 221.188C92.5642 221.368 95.5308 222.264 98.2842 223.878C98.525 224.018 98.8004 224.096 99.0801 224.104C99.3597 224.112 99.6328 224.049 99.8694 223.922C100.106 223.795 100.297 223.609 100.421 223.384C100.546 223.159 100.599 222.904 100.574 222.648C100.548 222.421 100.377 222.194 100.064 221.968C99.6642 221.688 99.3609 221.424 99.1542 221.178C93.8142 214.958 87.7242 217.098 80.5242 218.548C80.0262 218.641 79.5189 218.671 79.0142 218.638L74.5342 218.318C74.465 218.311 74.3951 218.321 74.3294 218.345C74.2637 218.369 74.2039 218.407 74.1542 218.458L73.7442 218.878C73.684 218.938 73.6417 219.014 73.6222 219.097C73.6027 219.18 73.6066 219.267 73.6336 219.348C73.6606 219.429 73.7095 219.5 73.7749 219.555C73.8404 219.61 73.9197 219.645 74.0042 219.658Z" fill="black"/>
<path d="M385.107 217.887C386.115 215.676 385.498 213.23 383.729 212.424C381.96 211.618 379.709 212.757 378.701 214.968C377.693 217.179 378.311 219.625 380.08 220.431C381.849 221.238 384.1 220.099 385.107 217.887Z" fill="black"/>
<path d="M112.307 236.174C114.249 235.907 115.666 234.538 115.471 233.116C115.276 231.693 113.544 230.756 111.601 231.022C109.659 231.288 108.242 232.657 108.437 234.079C108.632 235.502 110.365 236.44 112.307 236.174Z" fill="black"/>
<path d="M322.084 232.548C323.284 232.641 324.604 232.394 326.044 231.808C333.334 228.838 346.314 236.618 352.854 240.228C361.954 245.258 369.024 257.048 366.834 267.448C365.988 271.468 363.274 274.831 358.694 277.538C352.924 280.948 347.664 280.628 341.704 277.658C339.658 276.638 337.337 275.728 334.744 274.928C331.751 274.001 328.784 272.808 325.844 271.348C318.924 267.918 312.414 264.578 311.884 256.118C311.878 256.104 311.904 254.261 311.964 250.588C312.044 245.128 314.104 239.658 317.304 235.368C318.284 234.058 319.894 232.378 322.084 232.548ZM325.884 247.318C324.044 253.551 326.044 257.844 331.884 260.198C340.184 263.544 345.021 265.471 346.394 265.978C347.544 266.408 348.594 267.108 350.244 267.998C350.422 268.093 350.621 268.141 350.822 268.137C351.023 268.134 351.22 268.079 351.394 267.978C354.081 266.418 354.868 264.198 353.754 261.318C351.704 256.008 347.354 253.058 342.524 250.238C340.838 249.251 338.661 248.611 335.994 248.318C333.354 248.031 330.111 247.614 326.264 247.068C326.181 247.057 326.098 247.077 326.028 247.122C325.958 247.168 325.907 247.237 325.884 247.318Z" fill="black"/>
<path d="M525.654 231.898C525.699 231.788 525.78 231.698 525.883 231.641C525.986 231.584 526.106 231.563 526.222 231.583C526.338 231.603 526.445 231.662 526.523 231.75C526.602 231.838 526.648 231.95 526.654 232.068C527.154 239.228 524.514 243.104 518.734 243.698C517.934 243.778 516.774 243.498 515.254 242.858C515.189 242.831 515.131 242.79 515.085 242.737C515.038 242.684 515.005 242.621 514.986 242.553C514.968 242.484 514.965 242.412 514.979 242.342C514.992 242.272 515.022 242.205 515.064 242.148C515.618 241.408 516.354 241.021 517.274 240.988C519.168 240.921 520.858 240.528 522.344 239.808C522.637 239.671 522.881 239.448 523.044 239.168C524.078 237.421 524.658 236.158 524.784 235.378C525.038 233.838 525.328 232.678 525.654 231.898Z" fill="black"/>
<path d="M549.924 249.258C550.219 248.874 550.654 248.623 551.134 248.559C551.614 248.495 552.099 248.624 552.484 248.918L553.254 249.508C553.777 249.909 554.213 250.413 554.537 250.992C554.861 251.57 555.066 252.212 555.141 252.88C555.216 253.547 555.16 254.228 554.975 254.883C554.79 255.538 554.481 256.155 554.064 256.698L554.004 256.778C553.163 257.873 551.938 258.602 550.598 258.804C549.257 259.007 547.911 258.666 546.854 257.858L546.084 257.268C545.893 257.121 545.732 256.939 545.611 256.731C545.491 256.522 545.412 256.292 545.381 256.053C545.349 255.814 545.365 255.572 545.427 255.339C545.49 255.107 545.597 254.888 545.744 254.698L549.924 249.258Z" fill="black"/>
<path d="M327.304 252.128C328.411 253.841 330.087 254.954 332.334 255.468C338.644 256.908 350.644 259.168 351.814 263.078C351.872 263.273 351.89 263.477 351.867 263.679C351.844 263.881 351.781 264.077 351.681 264.254C351.581 264.431 351.447 264.586 351.286 264.711C351.125 264.835 350.941 264.926 350.744 264.978C349.897 265.198 349.011 265.101 348.084 264.688C345.404 263.494 340.407 261.671 333.094 259.218C330.087 258.211 327.847 256.164 326.374 253.078C326.3 252.92 326.274 252.744 326.299 252.572C326.324 252.399 326.398 252.238 326.514 252.108L326.554 252.068C326.602 252.014 326.661 251.972 326.728 251.945C326.795 251.918 326.868 251.907 326.94 251.913C327.012 251.919 327.083 251.941 327.146 251.978C327.209 252.015 327.263 252.067 327.304 252.128Z" fill="black"/>
<path d="M527.977 269.316C530.644 267.838 531.85 264.917 530.672 262.791C529.494 260.666 526.377 260.141 523.711 261.619C521.045 263.097 519.838 266.018 521.016 268.144C522.194 270.269 525.311 270.794 527.977 269.316Z" fill="black"/>
<path d="M438.239 270.293C440.769 268.573 441.708 265.543 440.336 263.524C438.964 261.505 435.8 261.262 433.27 262.982C430.739 264.702 429.8 267.733 431.172 269.751C432.544 271.77 435.708 272.013 438.239 270.293Z" fill="black"/>
<path d="M293.754 270.798C295.035 270.798 296.074 269.759 296.074 268.478C296.074 267.196 295.035 266.158 293.754 266.158C292.473 266.158 291.434 267.196 291.434 268.478C291.434 269.759 292.473 270.798 293.754 270.798Z" fill="black"/>
<path d="M541.103 271.463C542.011 271.008 542.493 270.131 542.179 269.504C541.865 268.876 540.874 268.737 539.965 269.192C539.057 269.647 538.575 270.524 538.889 271.151C539.203 271.779 540.194 271.918 541.103 271.463Z" fill="black"/>
<path d="M267.487 282.42C268.491 279.818 267.329 276.947 264.892 276.006C262.455 275.066 259.665 276.413 258.661 279.015C257.657 281.617 258.819 284.489 261.256 285.429C263.693 286.369 266.483 285.022 267.487 282.42Z" fill="black"/>
<path d="M483.644 283.558C485.168 283.558 486.404 282.322 486.404 280.798C486.404 279.273 485.168 278.038 483.644 278.038C482.12 278.038 480.884 279.273 480.884 280.798C480.884 282.322 482.12 283.558 483.644 283.558Z" fill="black"/>
<path d="M493.974 345.808C489.244 343.978 483.774 341.298 480.974 337.088C479.608 335.021 478.277 331.931 476.984 327.818C474.954 321.348 477.494 314.968 481.614 309.608C483.854 306.678 485.674 304.968 487.744 301.818C489.644 298.928 492.794 295.068 496.174 294.458C502.524 293.298 509.574 294.318 514.154 299.438C518.664 304.468 518.774 310.138 518.484 316.598C518.144 324.108 513.914 330.428 510.114 336.248C509.889 336.599 509.616 336.919 509.304 337.198C507.924 338.444 506.927 339.788 506.314 341.228C503.944 346.738 499.344 347.888 493.974 345.808ZM493.514 326.068L494.134 320.428C494.134 320.414 494.134 320.398 494.134 320.378C494.587 317.371 496.561 313.344 500.054 308.298C500.241 308.024 500.444 307.891 500.664 307.898C500.829 307.901 500.991 307.944 501.136 308.023C501.28 308.103 501.401 308.215 501.487 308.349C501.573 308.484 501.62 308.635 501.625 308.789C501.63 308.943 501.592 309.094 501.514 309.228C497.364 316.338 494.654 323.888 495.374 332.248C495.394 332.459 495.467 332.663 495.587 332.838C495.707 333.014 495.87 333.156 496.06 333.251C496.25 333.346 496.461 333.391 496.674 333.382C496.886 333.373 497.093 333.309 497.274 333.198C498.341 332.531 499.087 331.548 499.514 330.248C500.654 326.798 501.224 323.908 502.834 320.798C504.024 318.478 506.344 314.478 506.214 312.048C506.144 310.638 504.384 308.078 503.574 306.928C501.764 304.338 497.214 305.718 495.774 307.838C495.628 308.057 495.51 308.292 495.424 308.538C493.654 314.078 491.924 320.128 493.044 326.088C493.057 326.141 493.089 326.189 493.133 326.222C493.178 326.255 493.232 326.272 493.287 326.27C493.343 326.267 493.395 326.246 493.437 326.209C493.478 326.172 493.505 326.122 493.514 326.068Z" fill="black"/>
<path d="M251.935 301.885C253.588 301.244 254.444 299.476 253.847 297.937C253.25 296.397 251.426 295.669 249.773 296.31C248.12 296.951 247.264 298.719 247.861 300.258C248.459 301.798 250.283 302.526 251.935 301.885Z" fill="black"/>
<path d="M425.774 330.068C424.581 333.054 422.921 335.561 420.794 337.588C417.004 341.188 412.984 341.138 407.454 340.378C403.368 339.804 399.544 339.821 395.984 340.428C395.169 340.566 394.33 340.511 393.534 340.268C384.044 337.358 379.184 331.368 379.864 321.298C380.031 318.871 381.157 316.288 383.244 313.548C388.304 306.908 394.878 302.171 402.964 299.338C417.994 294.068 427.974 301.118 431.944 315.598C433.274 320.478 431.984 324.788 428.064 327.838C426.711 328.891 425.948 329.634 425.774 330.068ZM406.104 325.428C411.178 325.068 415.654 322.998 419.534 319.218C419.646 319.109 419.723 318.968 419.755 318.813C419.787 318.658 419.773 318.496 419.714 318.348C418.584 315.568 418.914 310.738 414.964 309.878C413.358 309.524 411.734 309.614 410.094 310.148C403.254 312.358 394.244 317.458 391.914 324.138C391.859 324.296 391.85 324.466 391.887 324.63C391.923 324.793 392.005 324.943 392.123 325.063C392.24 325.182 392.389 325.267 392.551 325.307C392.714 325.346 392.885 325.34 393.044 325.288L414.104 318.248C414.265 318.195 414.436 318.181 414.604 318.208C414.771 318.235 414.929 318.302 415.065 318.403C415.202 318.504 415.312 318.636 415.386 318.788C415.461 318.94 415.498 319.108 415.494 319.278C415.481 320.098 415.277 320.638 414.884 320.898C412.491 322.484 409.541 323.864 406.034 325.038C405.988 325.053 405.949 325.084 405.925 325.125C405.9 325.166 405.891 325.216 405.899 325.263C405.908 325.311 405.933 325.353 405.971 325.384C406.009 325.414 406.056 325.43 406.104 325.428Z" fill="black"/>
<path d="M362.901 307.161C363.629 304.75 362.479 302.27 360.332 301.622C358.186 300.974 355.855 302.403 355.127 304.814C354.4 307.225 355.55 309.705 357.696 310.353C359.843 311.001 362.173 309.572 362.901 307.161Z" fill="black"/>
<path d="M108.874 327.808C108.394 328.121 108.118 328.288 108.044 328.308C101.998 330.128 96.0608 330.388 90.2342 329.088C89.5808 328.948 88.2742 328.368 86.3142 327.348C85.6204 326.991 84.8704 326.77 84.1042 326.698C75.3342 325.858 74.9442 316.928 76.1142 309.918C76.2075 309.391 76.2108 308.641 76.1242 307.668C76.0789 307.165 76.2211 306.66 76.5242 306.248C77.9442 304.361 79.4008 302.968 80.8942 302.068C81.3304 301.801 81.8403 301.675 82.3542 301.708C96.5142 302.518 111.024 301.618 115.024 318.488C116.184 323.398 115.314 327.008 109.844 327.478C109.496 327.504 109.163 327.617 108.874 327.808ZM87.0442 309.578C91.0942 311.008 95.3642 310.568 100.024 313.298C102.464 314.718 103.634 314.818 106.174 314.778C106.314 314.776 106.45 314.738 106.57 314.667C106.69 314.595 106.789 314.494 106.858 314.371C106.927 314.249 106.962 314.111 106.962 313.97C106.961 313.829 106.924 313.69 106.854 313.568C106.254 312.548 105.104 312.078 103.804 311.348C97.7642 307.958 93.2142 306.678 87.0442 308.768C86.9606 308.797 86.8883 308.852 86.8372 308.925C86.7861 308.997 86.7586 309.084 86.7586 309.173C86.7586 309.261 86.7861 309.348 86.8372 309.42C86.8883 309.493 86.9606 309.548 87.0442 309.578Z" fill="black"/>
<path d="M47.9854 316.561C50.1408 316.429 51.7935 314.776 51.6769 312.869C51.5602 310.962 49.7183 309.522 47.5629 309.654C45.4075 309.786 43.7548 311.439 43.8714 313.346C43.9881 315.254 45.83 316.693 47.9854 316.561Z" fill="black"/>
<path d="M544.444 315.258C545.164 315.678 545.787 316.298 546.314 317.118C546.508 317.421 546.586 317.787 546.534 318.148C546.234 320.174 546.028 322.441 545.914 324.948C545.524 333.308 533.884 331.938 539.144 325.358C539.517 324.895 539.703 324.306 539.664 323.708C539.531 321.281 540.541 318.584 542.694 315.618C542.886 315.352 543.171 315.168 543.495 315.101C543.818 315.035 544.157 315.09 544.444 315.258Z" fill="black"/>
<path d="M270.024 364.868C265.624 365.588 261.814 365.088 259.004 361.348C254.314 355.128 254.064 344.898 258.504 338.348C264.711 329.208 272.624 322.941 282.244 319.548C286.157 318.174 290.584 318.371 295.524 320.138C299.791 321.658 302.844 324.714 304.684 329.308C307.351 335.954 307.037 342.101 303.744 347.748C303.452 348.258 303.234 348.807 303.094 349.378C302.074 353.578 302.544 356.678 298.294 359.368C293.407 362.441 287.604 364.404 280.884 365.258C278.124 365.608 275.754 365.038 272.894 364.768C271.938 364.681 270.974 364.715 270.024 364.868ZM291.144 334.398C291.484 338.368 291.924 341.358 287.944 342.968C282.731 345.068 278.201 347.338 274.354 349.778C274.218 349.866 274.056 349.907 273.894 349.893C273.733 349.88 273.58 349.812 273.46 349.702C273.341 349.592 273.262 349.445 273.235 349.285C273.209 349.125 273.237 348.96 273.314 348.818C273.854 347.758 274.544 347.031 275.384 346.638C278.837 345.024 281.594 343.248 283.654 341.308C283.754 341.215 283.868 341.134 283.994 341.068L287.884 339.028C288.326 338.794 288.717 338.472 289.031 338.082C289.346 337.691 289.578 337.241 289.714 336.758L290.534 333.808C290.604 333.555 290.615 333.29 290.564 333.034C290.514 332.777 290.404 332.535 290.244 332.328C290.083 332.122 289.877 331.955 289.641 331.842C289.405 331.729 289.146 331.673 288.884 331.678C281.454 331.778 273.294 339.458 269.234 345.268C268.521 346.294 268.197 348.098 268.264 350.678C268.266 350.858 268.335 351.031 268.459 351.164C268.583 351.297 268.752 351.38 268.934 351.398C270.447 351.518 272.054 352.054 273.754 353.008C273.939 353.109 274.15 353.152 274.36 353.128C274.569 353.105 274.766 353.017 274.924 352.878C278.184 349.991 282.371 347.364 287.484 344.998C290.177 343.751 291.774 342.791 292.274 342.118C293.784 340.078 293.174 336.358 291.464 334.268C291.44 334.237 291.407 334.215 291.369 334.205C291.331 334.196 291.291 334.198 291.255 334.213C291.219 334.227 291.189 334.253 291.169 334.287C291.149 334.32 291.14 334.359 291.144 334.398Z" fill="black"/>
<path d="M137.26 328.698L136.822 328.288C135.447 327.001 133.289 327.073 132.002 328.448L130.608 329.937C129.322 331.312 129.393 333.47 130.768 334.757L131.206 335.167C132.581 336.454 134.739 336.382 136.026 335.007L137.42 333.518C138.707 332.143 138.635 329.985 137.26 328.698Z" fill="black"/>
<path d="M330.532 334.326C330.619 331.698 328.824 329.507 326.522 329.43C324.22 329.354 322.284 331.422 322.196 334.049C322.109 336.677 323.905 338.869 326.206 338.945C328.508 339.021 330.445 336.953 330.532 334.326Z" fill="black"/>
<path d="M315.81 337.495C317.324 337.043 318.235 335.618 317.845 334.311C317.455 333.003 315.912 332.309 314.399 332.761C312.885 333.212 311.974 334.637 312.363 335.945C312.753 337.252 314.296 337.946 315.81 337.495Z" fill="black"/>
<path d="M208.884 333.738C209.677 333.731 210.454 334.381 211.214 335.688C212.941 338.654 214.091 340.658 214.664 341.698C214.774 341.892 214.813 342.118 214.775 342.338C214.738 342.557 214.625 342.757 214.457 342.904C214.29 343.051 214.076 343.135 213.854 343.143C213.631 343.151 213.412 343.082 213.234 342.948C210.927 341.261 209.144 338.981 207.884 336.108C207.771 335.85 207.708 335.57 207.7 335.292C207.692 335.014 207.74 334.746 207.839 334.512C207.937 334.278 208.084 334.085 208.266 333.95C208.449 333.815 208.661 333.742 208.884 333.738Z" fill="black"/>
<path d="M226.964 340.708C230.094 343.068 224.724 349.858 220.764 346.278C218.714 344.428 219.464 341.188 222.004 340.198C222.397 340.044 223.761 340.098 226.094 340.358C226.408 340.39 226.709 340.511 226.964 340.708Z" fill="black"/>
<path d="M509.997 346.048C510.864 345.806 511.405 345.027 511.204 344.309C511.004 343.591 510.138 343.205 509.271 343.447C508.404 343.689 507.864 344.468 508.064 345.186C508.265 345.904 509.13 346.29 509.997 346.048Z" fill="black"/>
<path d="M231.254 367.668C231.401 368.081 231.258 368.331 230.824 368.418C230.504 368.491 230.221 368.388 229.974 368.108C226.734 364.508 223.711 360.718 220.904 356.738C220.745 356.517 220.659 356.251 220.66 355.978C220.661 355.706 220.748 355.44 220.91 355.221C221.071 355.001 221.297 354.837 221.557 354.754C221.816 354.671 222.095 354.672 222.354 354.758C225.384 355.728 224.004 357.658 225.604 359.498C228.124 362.398 230.214 364.738 231.254 367.668Z" fill="black"/>
<path d="M438.869 363.28C440.352 360.68 439.645 357.483 437.29 356.14C434.934 354.796 431.822 355.815 430.339 358.415C428.856 361.015 429.563 364.212 431.919 365.556C434.274 366.899 437.386 365.88 438.869 363.28Z" fill="black"/>
<path d="M74.6742 387.138C74.6837 387.348 74.6484 387.558 74.5708 387.753C74.4932 387.948 74.375 388.123 74.2241 388.268C69.8141 392.428 65.9142 396.228 59.4542 392.678C56.7275 391.184 53.9775 390.238 51.2042 389.838C50.716 389.766 50.2592 389.546 49.8942 389.208C44.3442 383.958 40.0741 380.418 42.0141 372.948C42.1861 372.306 42.2403 371.639 42.1742 370.978C41.9008 368.231 43.0775 365.788 45.7042 363.648C46.036 363.381 46.4414 363.223 46.8642 363.198C53.9708 362.784 59.1475 362.854 62.3942 363.408C67.1642 364.228 71.0441 374.308 73.0641 379.248C74.0041 381.534 74.5408 384.164 74.6742 387.138ZM69.2841 385.538C69.4007 385.446 69.4801 385.316 69.5077 385.171C69.5353 385.025 69.5092 384.875 69.4342 384.748L61.5941 371.168C61.2562 370.58 60.7702 370.091 60.1844 369.749C59.5986 369.407 58.9332 369.224 58.2541 369.218L56.3241 369.188C56.078 369.186 55.837 369.258 55.6319 369.395C55.4268 369.531 55.2669 369.725 55.1725 369.952C55.0781 370.18 55.0535 370.43 55.1019 370.671C55.1503 370.913 55.2694 371.134 55.4441 371.308C60.2641 376.034 64.4275 380.721 67.9342 385.368C68.3275 385.888 68.7775 385.944 69.2841 385.538Z" fill="black"/>
<path d="M30.6042 372.118C30.6588 372.346 30.6552 372.584 30.5939 372.81C30.5326 373.036 30.4154 373.243 30.2532 373.412C30.091 373.582 29.8888 373.707 29.6654 373.778C29.4419 373.849 29.2042 373.863 28.9742 373.818C27.3808 373.504 25.9608 372.761 24.7142 371.588C24.5972 371.477 24.5041 371.343 24.4405 371.193C24.3769 371.043 24.3441 370.882 24.3442 370.718C24.3442 365.348 30.6242 365.658 30.4442 369.948C30.4042 370.774 30.4575 371.498 30.6042 372.118Z" fill="black"/>
<path d="M322.67 371.508C322.023 368.812 319.391 367.132 316.792 367.756C314.193 368.38 312.611 371.072 313.258 373.767C313.905 376.463 316.537 378.143 319.136 377.519C321.735 376.895 323.318 374.204 322.67 371.508Z" fill="black"/>
<path d="M390.264 419.298C390.254 419.351 390.257 419.405 390.272 419.457C390.287 419.508 390.315 419.556 390.352 419.595C390.389 419.634 390.435 419.664 390.486 419.682C390.536 419.699 390.591 419.705 390.644 419.698C409.474 417.278 427.524 413.158 444.724 405.178C446.414 404.388 447.434 403.648 448.754 402.788C448.895 402.697 449.053 402.639 449.217 402.619C449.382 402.598 449.548 402.615 449.704 402.668C450.778 403.034 451.308 403.791 451.294 404.938C451.294 405.279 451.169 405.607 450.944 405.858C449.411 407.571 448.081 408.718 446.954 409.298C435.774 415.024 424.054 419.194 411.794 421.808C403.564 423.568 392.954 425.448 383.634 426.128C376.244 426.668 364.594 428.448 355.434 428.728C344.554 429.054 333.061 428.494 320.954 427.048C310.104 425.758 301.564 422.758 289.654 418.598C279.368 415.018 269.271 409.968 259.364 403.448C257.384 402.141 255.691 400.551 254.284 398.678C254.226 398.598 254.184 398.507 254.162 398.411C254.14 398.314 254.137 398.215 254.155 398.118C254.173 398.021 254.211 397.93 254.266 397.849C254.32 397.768 254.391 397.699 254.474 397.648C256.964 396.078 258.944 396.478 261.674 398.008C272.528 404.114 282.027 409.068 290.174 412.868C299.414 417.181 309.284 420.131 319.784 421.718C334.911 424.004 350.294 424.318 365.934 422.658C367.381 422.504 368.384 422.338 368.944 422.158C369.057 422.126 369.156 422.056 369.222 421.96C369.289 421.864 369.319 421.747 369.309 421.63C369.298 421.513 369.247 421.404 369.164 421.321C369.08 421.239 368.971 421.188 368.854 421.178C364.041 420.578 359.917 418.881 356.484 416.088C353.924 414.001 351.458 411.878 349.084 409.718C346.991 407.818 345.881 405.511 345.754 402.798C345.607 399.564 345.457 396.308 345.304 393.028C345.231 391.501 345.558 390.351 346.284 389.578C346.978 388.838 347.381 388.098 347.494 387.358C348.414 381.338 353.634 380.568 357.584 377.268C357.999 376.919 358.484 376.666 359.004 376.528C368.004 374.198 373.904 376.858 379.724 383.808C380.003 384.139 380.168 384.549 380.194 384.978L380.234 385.628C380.246 385.824 380.314 386.012 380.429 386.17C380.544 386.328 380.702 386.448 380.884 386.518C389.694 389.918 399.214 392.248 400.624 403.138C400.804 404.551 400.551 405.751 399.864 406.738C399.798 406.83 399.724 406.911 399.644 406.978L392.344 412.678C391.63 413.231 391.152 414.035 391.004 414.928L390.264 419.298ZM369.204 403.358C369.244 403.37 369.287 403.369 369.326 403.354C369.365 403.338 369.397 403.31 369.417 403.273C369.437 403.236 369.444 403.194 369.436 403.152C369.428 403.111 369.406 403.074 369.374 403.048C366.647 401.088 364.488 399.288 362.894 397.648C362.341 397.081 362.181 395.918 362.414 394.158C362.429 394.058 362.467 393.963 362.527 393.881C362.586 393.8 362.664 393.734 362.755 393.69C362.845 393.647 362.944 393.626 363.044 393.631C363.143 393.636 363.239 393.666 363.324 393.718C364.384 394.358 365.211 394.391 365.804 393.818C365.852 393.772 365.911 393.741 365.975 393.728C366.04 393.715 366.106 393.72 366.168 393.743C366.23 393.766 366.283 393.806 366.323 393.858C366.363 393.91 366.388 393.972 366.394 394.038C366.541 395.711 367.464 397.178 369.164 398.438C372.464 400.871 376.588 403.358 381.534 405.898C382.479 406.383 383.558 406.531 384.594 406.318L386.574 405.938C386.741 405.907 386.895 405.828 387.016 405.71C387.137 405.592 387.221 405.44 387.256 405.273C387.291 405.107 387.277 404.933 387.214 404.773C387.151 404.614 387.044 404.476 386.904 404.378L370.724 392.928C370.479 392.755 370.213 392.617 369.934 392.518C368.427 391.998 366.974 391.401 365.574 390.728C364.999 390.455 364.354 390.364 363.726 390.468C363.099 390.571 362.519 390.864 362.064 391.308C360.614 392.718 358.704 395.688 360.484 397.478C362.984 399.978 365.891 401.938 369.204 403.358Z" fill="black"/>
<path d="M485.363 386.701C488.179 386.385 490.247 384.216 489.982 381.856C489.717 379.496 487.22 377.839 484.405 378.154C481.589 378.47 479.521 380.639 479.786 382.999C480.051 385.359 482.548 387.017 485.363 386.701Z" fill="black"/>
<path d="M86.0941 387.508C88.2149 387.508 89.9342 385.788 89.9342 383.668C89.9342 381.547 88.2149 379.828 86.0941 379.828C83.9734 379.828 82.2542 381.547 82.2542 383.668C82.2542 385.788 83.9734 387.508 86.0941 387.508Z" fill="black"/>
<path d="M135.014 399.158C134.858 399.703 134.595 400.213 134.241 400.657C133.888 401.102 133.45 401.472 132.953 401.747C132.456 402.022 131.91 402.196 131.345 402.26C130.781 402.323 130.21 402.275 129.664 402.118L129.074 401.948C124.39 400.605 120.153 398.428 117.294 395.897C114.434 393.365 113.186 390.686 113.824 388.448L113.964 387.948C114.28 386.838 115.051 385.871 116.232 385.1C117.413 384.33 118.981 383.772 120.847 383.458C122.713 383.144 124.839 383.081 127.105 383.271C129.372 383.461 131.733 383.902 134.054 384.568L134.654 384.738C135.2 384.894 135.71 385.157 136.154 385.51C136.598 385.864 136.969 386.302 137.243 386.799C137.518 387.296 137.693 387.842 137.756 388.406C137.82 388.971 137.772 389.542 137.614 390.088L135.014 399.158ZM124.769 390.991C124.752 391.033 124.781 391.095 124.855 391.173C124.93 391.25 125.049 391.342 125.205 391.443C125.36 391.545 125.551 391.653 125.764 391.762C125.977 391.871 126.21 391.979 126.448 392.08C126.929 392.283 127.405 392.444 127.771 392.528C128.137 392.611 128.363 392.61 128.399 392.524C128.417 392.482 128.388 392.42 128.313 392.342C128.238 392.265 128.12 392.173 127.964 392.072C127.808 391.971 127.618 391.862 127.404 391.753C127.191 391.644 126.959 391.536 126.72 391.435C126.239 391.232 125.763 391.071 125.397 390.988C125.032 390.904 124.806 390.906 124.769 390.991Z" fill="black"/>
<path d="M419.814 405.428C419.088 404.848 418.711 404.081 418.684 403.128C418.681 402.951 418.715 402.776 418.784 402.612C418.853 402.449 418.955 402.301 419.084 402.178C420.278 401.058 421.178 400.494 421.784 400.488C430.804 400.414 438.921 397.734 446.134 392.448C448.504 390.708 451.104 389.388 453.074 391.938C453.242 392.154 453.36 392.405 453.421 392.673C453.481 392.94 453.482 393.217 453.424 393.484C453.366 393.751 453.25 394.002 453.084 394.219C452.918 394.435 452.706 394.612 452.464 394.738C446.711 397.724 439.691 400.864 431.404 404.158C428.438 405.338 424.868 405.871 420.694 405.758C420.37 405.744 420.061 405.629 419.814 405.428Z" fill="black"/>
<path d="M266.338 392.529C265.625 392.164 264.952 392.056 264.833 392.287C264.715 392.518 265.197 393.001 265.91 393.366C266.623 393.731 267.297 393.839 267.415 393.608C267.533 393.377 267.051 392.894 266.338 392.529Z" fill="black"/>
<path d="M168.428 405.521C170.497 403.577 170.799 400.537 169.101 398.729C167.404 396.921 164.35 397.031 162.281 398.975C160.211 400.918 159.91 403.958 161.607 405.766C163.305 407.574 166.358 407.464 168.428 405.521Z" fill="black"/>
</svg>
