<svg width="153" height="137" viewBox="0 0 153 137" fill="none" xmlns="http://www.w3.org/2000/svg">
<path d="M58.9557 28.6789C57.7294 30.6683 56.4955 32.6561 55.254 34.6421C54.1152 36.4639 52.9757 38.2929 51.8352 40.1291C50.7403 41.8919 49.5944 43.7167 48.3975 45.6033C46.6347 48.3811 44.8845 51.1669 43.1469 53.9607C42.5379 54.9403 41.7264 56.2386 40.7123 57.8558C35.8011 65.6897 30.9201 73.4642 26.0696 81.1793C22.2061 87.327 20.2044 90.5095 20.0646 90.7268C19.0211 92.3515 17.8996 94.1451 16.7002 96.1076C16.0243 97.2143 15.2094 98.4588 14.4615 99.6842C14.1776 100.149 13.615 101.042 12.7736 102.363C11.7081 104.035 10.5934 105.813 9.42937 107.697C9.42269 107.708 9.41905 107.72 9.41882 107.733C9.41859 107.746 9.42178 107.759 9.42806 107.77C9.43435 107.782 9.4435 107.791 9.4546 107.798C9.46571 107.804 9.47836 107.808 9.49128 107.808H142.58C142.594 107.808 142.608 107.804 142.62 107.797C142.632 107.79 142.642 107.78 142.649 107.768C142.656 107.756 142.659 107.742 142.659 107.728C142.658 107.714 142.654 107.701 142.647 107.689L93.051 28.593C93.0463 28.5853 93.0395 28.5791 93.0315 28.575C93.0235 28.5709 93.0145 28.5691 93.0055 28.5697C92.9965 28.5704 92.9879 28.5735 92.9805 28.5787C92.9732 28.5839 92.9674 28.591 92.9638 28.5993C92.8821 28.7812 92.7634 29.0002 92.6075 29.2563C92.1232 30.048 91.6339 30.8334 91.1395 31.6125C90.8817 32.0168 90.7415 32.3529 90.509 32.6952C90.2808 33.0288 90.125 33.2633 90.0416 33.3989C89.8681 33.6819 89.7047 33.9485 89.5514 34.1987C83.5781 43.9555 80.5867 48.8338 80.5775 48.8338C80.5598 48.8322 80.2667 49.3211 79.6982 50.3006C79.5238 50.6005 79.1254 51.2419 78.503 52.2248C77.9496 53.0991 77.2804 54.2117 76.4955 55.5627C76.3775 55.7648 76.2516 55.9493 76.1177 56.1161C76.1104 56.1253 76.1009 56.1326 76.0901 56.1374C76.0793 56.1422 76.0675 56.1443 76.0557 56.1436C76.0439 56.1429 76.0325 56.1393 76.0224 56.1332C76.0123 56.127 76.0038 56.1186 75.9977 56.1085L61.8161 33.0048" stroke="#9CA4A7" stroke-width="2"/>
<path d="M61.8161 33.0048C61.9635 32.6013 62.1656 32.2404 62.4225 31.922C62.4536 31.8834 62.4815 31.8424 62.5059 31.7995C62.9569 30.977 63.5065 29.9385 64.1015 29.0718C64.7459 28.1335 65.3477 27.1923 65.9069 26.2481C68.6232 21.6607 71.3509 17.5155 73.8714 13.2933C74.4281 12.3617 75.1394 11.212 76.0053 9.84421C76.0102 9.83665 76.0169 9.83044 76.0249 9.82614C76.0328 9.82184 76.0417 9.81959 76.0507 9.81959C76.0598 9.81959 76.0687 9.82184 76.0766 9.82614C76.0845 9.83044 76.0913 9.83665 76.0962 9.84421L83.5806 21.9437C83.5876 21.9548 83.5973 21.9639 83.6087 21.9704C83.6201 21.9769 83.6328 21.9805 83.6458 21.9808C83.6588 21.9812 83.6717 21.9784 83.6832 21.9726C83.6947 21.9668 83.7046 21.9582 83.712 21.9475C84.0291 21.4889 84.4978 21.0922 84.825 20.6892C85.1021 20.3481 85.7321 19.5479 86.7151 18.2887C86.727 18.2734 86.7341 18.2549 86.7355 18.2356C86.7368 18.2162 86.7324 18.1969 86.7226 18.1801C86.0379 17.0266 85.4062 16.0866 84.6962 14.9016C83.8657 13.5135 82.8453 11.8699 81.6349 9.97055C80.2642 7.81898 79.2219 6.03002 77.7652 3.73696C77.2459 2.91954 76.7633 2.03516 76.1594 1.04213C76.1516 1.02947 76.1408 1.01898 76.1279 1.01162C76.115 1.00426 76.1004 1.00026 76.0855 1.00001C76.0707 0.999761 76.056 1.00326 76.0429 1.01018C76.0297 1.0171 76.0185 1.02722 76.0103 1.03961C75.6742 1.55002 75.3201 2.14171 74.9478 2.81467C74.5321 3.56766 73.8638 4.45077 73.4987 5.05973C72.3086 7.04326 71.0991 9.01205 69.8702 10.9661C69.6748 11.2777 69.5636 11.4542 69.5367 11.4955C68.4485 13.2002 67.391 14.9129 66.3643 16.6337C65.7793 17.6141 65.2563 18.3822 64.7345 19.2755C64.3925 19.8608 63.9849 20.5207 63.5115 21.2552C61.939 23.6944 60.4204 26.169 58.9557 28.6789" stroke="#C5D4C8" stroke-width="2"/>
<path d="M61.8161 33.0048L59.1541 28.5993C59.1499 28.5924 59.1444 28.5865 59.1377 28.582C59.1311 28.5775 59.1235 28.5745 59.1156 28.5731C59.1077 28.5718 59.0996 28.5722 59.0918 28.5744C59.0841 28.5765 59.0769 28.5802 59.0707 28.5854L58.9557 28.6789" stroke="#617970" stroke-width="2"/>
<path d="M66.1508 32.9921C67.0048 34.1595 68.0067 35.3631 69.1564 36.6029C69.4697 36.9402 69.8803 37.4772 70.1052 37.7766C70.5575 38.3793 71.1147 38.944 71.5922 39.5656C71.922 39.9939 72.3717 40.4222 72.7533 40.8732C73.7303 42.0313 74.7874 43.2968 75.9244 44.6697C75.9381 44.6864 75.9553 44.6997 75.9749 44.7087C75.9945 44.7177 76.016 44.7221 76.0376 44.7216C76.0592 44.7211 76.0805 44.7158 76.0999 44.7059C76.1192 44.696 76.1361 44.6819 76.1493 44.6646C76.7052 43.9369 77.227 43.3027 77.7146 42.762C78.8833 41.467 80.0203 39.9421 81.0576 38.7077C82.3075 37.222 83.0697 36.306 83.3443 35.9599C84.1116 34.9938 84.8625 34.0673 85.597 33.1804C86.8212 31.701 88.3158 29.7591 89.7245 28.0902C90.1785 27.5528 90.648 26.9977 91.1332 26.425C91.1635 26.3896 91.3934 26.1125 91.823 25.5937C94.1788 22.7485 95.59 21.0463 96.0566 20.4871C97.7344 18.477 99.5196 16.17 101.373 14.0311C102.05 13.2491 102.481 12.6767 103.312 11.6269C103.852 10.9459 104.516 10.2447 105.019 9.53847C105.03 9.52337 105.036 9.50565 105.037 9.48723C105.039 9.46882 105.035 9.45041 105.026 9.43401C105.018 9.41761 105.005 9.40383 104.989 9.39419C104.974 9.38454 104.955 9.37938 104.937 9.37928H98.1349C98.0658 9.37925 97.9975 9.39464 97.9348 9.42434C97.8721 9.45405 97.8166 9.49734 97.7723 9.5511C96.8542 10.6747 96.0305 11.6622 95.3011 12.5138C94.6239 13.3046 93.801 14.2964 92.8324 15.4891C90.886 17.8861 89.0048 20.1506 87.1888 22.2823C86.7707 22.7725 86.4144 23.2665 86.0669 23.6923C84.4195 25.7137 82.7013 27.6606 81.0058 29.7781C80.396 30.5386 79.7171 31.3535 78.9692 32.2227C77.9799 33.3724 77.3255 34.2442 76.0962 35.807C76.0909 35.8138 76.0841 35.8193 76.0763 35.8231C76.0686 35.8269 76.06 35.8289 76.0514 35.8289C76.0427 35.8289 76.0342 35.8269 76.0264 35.8231C76.0186 35.8193 76.0118 35.8138 76.0065 35.807C74.8682 34.3654 73.716 33.2196 72.6421 31.8147C72.413 31.5131 71.9051 30.8869 71.1184 29.936C70.9946 29.7861 70.6409 29.3969 70.0572 28.7686C70.0508 28.7616 70.043 28.7559 70.0343 28.7521C70.0256 28.7482 70.0162 28.7462 70.0067 28.7462C69.9971 28.7462 69.9877 28.7482 69.979 28.7521C69.9703 28.7559 69.9625 28.7616 69.9561 28.7686L66.1571 32.8822C66.1435 32.8968 66.1354 32.9157 66.1342 32.9358C66.1331 32.9558 66.1389 32.9757 66.1508 32.9921Z" stroke="#C5D4C8" stroke-width="2"/>
<path d="M12.5917 131.088C10.4068 128.184 8.87263 126.151 7.9891 124.988C7.88213 124.847 7.91077 124.697 8.07501 124.536C8.98971 123.645 9.91452 122.741 10.8494 121.824C11.3333 121.35 11.6706 120.933 12.1141 120.514C12.1228 120.506 12.1289 120.495 12.1316 120.484C12.1342 120.472 12.1333 120.46 12.1289 120.449C12.1245 120.438 12.1169 120.429 12.107 120.422C12.0971 120.416 12.0855 120.413 12.0737 120.413C11.9515 120.413 11.0019 120.402 9.2247 120.38C8.82968 120.375 8.55468 120.437 8.3997 120.566C7.69094 121.158 7.0744 121.899 6.31131 122.602C5.34229 123.494 4.72322 124.083 4.13574 124.769C4.12925 124.776 4.1207 124.781 4.11123 124.784C4.10177 124.786 4.09184 124.786 4.08277 124.782C4.0737 124.779 4.06593 124.773 4.0605 124.765C4.05507 124.758 4.05222 124.748 4.05236 124.739V116.39C4.05236 116.363 4.04158 116.337 4.02239 116.318C4.0032 116.299 3.97717 116.288 3.95003 116.288H1.06064C1.04456 116.288 1.02913 116.294 1.01776 116.306C1.00639 116.317 1 116.332 1 116.348V131.081C1 131.114 1.01318 131.146 1.03663 131.169C1.06009 131.193 1.0919 131.206 1.12507 131.206H3.98161C4.00205 131.206 4.02165 131.198 4.0361 131.183C4.05056 131.169 4.05868 131.149 4.05868 131.129V128.514C4.05869 128.471 4.06955 128.428 4.09026 128.39C4.1467 128.285 4.24693 128.162 4.39095 128.02C4.77839 127.635 5.13593 127.298 5.46357 127.01C5.47883 126.997 5.49666 126.987 5.51599 126.98C5.53532 126.974 5.55572 126.972 5.57596 126.974C5.59619 126.976 5.61582 126.982 5.63365 126.991C5.65147 127.001 5.66711 127.014 5.67961 127.03L8.82926 131.143C8.84611 131.165 8.8679 131.183 8.89289 131.196C8.91789 131.208 8.94542 131.215 8.97329 131.215H12.5297C12.5442 131.215 12.5583 131.211 12.5706 131.203C12.5828 131.195 12.5927 131.184 12.5991 131.171C12.6055 131.158 12.6082 131.143 12.6069 131.129C12.6056 131.114 12.6003 131.1 12.5917 131.088Z" stroke="#9CA4A7" stroke-width="2"/>
<path d="M21.4531 121.257C21.4472 121.258 21.4337 121.255 21.4127 121.249C21.4035 121.247 21.3949 121.242 21.3874 121.235C20.9764 120.869 20.6104 120.631 20.2895 120.521C18.7393 119.997 16.7646 120.171 15.3787 121.094C14.3242 121.795 13.6234 122.711 13.2764 123.842C12.8393 125.262 12.889 126.701 13.4255 128.16C13.826 129.25 14.5941 130.075 15.5215 130.678C16.5815 131.366 17.9497 131.499 19.3091 131.325C20.2137 131.209 20.9751 130.844 21.5933 130.231C21.605 130.219 21.6199 130.211 21.6362 130.207C21.6525 130.204 21.6694 130.206 21.6847 130.212C21.7001 130.219 21.7132 130.229 21.7223 130.243C21.7315 130.257 21.7363 130.273 21.7361 130.29V131.096C21.7361 131.113 21.7394 131.13 21.7458 131.145C21.7522 131.161 21.7616 131.175 21.7735 131.187C21.7853 131.199 21.7994 131.209 21.8149 131.215C21.8304 131.222 21.847 131.225 21.8637 131.225H24.4385C24.4599 131.225 24.4811 131.221 24.5009 131.213C24.5207 131.204 24.5386 131.192 24.5538 131.177C24.5689 131.162 24.5809 131.144 24.5891 131.124C24.5973 131.105 24.6015 131.083 24.6015 131.062V116.377C24.6015 116.355 24.5926 116.334 24.5767 116.319C24.5608 116.303 24.5393 116.294 24.5168 116.294H21.5959C21.5763 116.294 21.5575 116.302 21.5436 116.316C21.5297 116.329 21.5217 116.348 21.5213 116.367L21.4999 121.197C21.4999 121.211 21.4953 121.224 21.4869 121.235C21.4784 121.246 21.4665 121.254 21.4531 121.257Z" stroke="#9CA4A7" stroke-width="2"/>
<path d="M80.2591 121.407C80.2531 121.412 80.2459 121.414 80.2384 121.415C80.2309 121.415 80.2234 121.414 80.2167 121.411C80.2101 121.407 80.2044 121.402 80.2006 121.396C80.1967 121.389 80.1946 121.382 80.1947 121.374V116.384C80.1947 116.359 80.185 116.336 80.1677 116.319C80.1504 116.301 80.1269 116.292 80.1025 116.292H77.1688C77.1481 116.292 77.1281 116.3 77.1135 116.315C77.0988 116.329 77.0905 116.349 77.0905 116.37V131.104C77.0905 131.132 77.1016 131.159 77.1212 131.179C77.1409 131.199 77.1676 131.21 77.1954 131.21H80.086C80.1122 131.21 80.1372 131.2 80.1557 131.181C80.1742 131.163 80.1846 131.138 80.1846 131.112C80.1812 128.962 80.1825 127.246 80.1884 125.965C80.1922 125.015 80.3387 124.002 81.0967 123.404C81.5971 123.01 82.1614 122.825 82.7897 122.85C84.5825 122.922 85.0032 124.368 85.0006 125.871C84.9981 127.594 84.9893 129.33 84.9741 131.08C84.9739 131.098 84.9775 131.117 84.9846 131.134C84.9917 131.151 85.0022 131.167 85.0155 131.181C85.0287 131.194 85.0445 131.204 85.0619 131.212C85.0794 131.219 85.098 131.222 85.1169 131.222H87.9292C87.9597 131.222 87.9889 131.21 88.0105 131.189C88.032 131.167 88.0442 131.138 88.0442 131.107C88.0458 130.002 88.0446 128.133 88.0404 125.5C88.0378 124.098 87.9052 122.952 87.2331 121.96C86.7176 121.199 85.7195 120.499 84.7075 120.348C84.2089 120.274 83.9276 120.235 83.8636 120.231C82.633 120.138 81.5065 120.474 80.484 121.239C80.3644 121.329 80.2894 121.385 80.2591 121.407Z" stroke="#9CA4A7" stroke-width="2"/>
<path d="M106.601 117.838H103.778C103.744 117.838 103.711 117.852 103.686 117.876C103.662 117.9 103.648 117.934 103.648 117.968V120.376C103.648 120.41 103.635 120.442 103.611 120.466C103.586 120.49 103.554 120.504 103.519 120.504H102.022C102.003 120.504 101.985 120.511 101.971 120.525C101.958 120.538 101.95 120.557 101.95 120.576V122.78C101.95 122.812 101.963 122.841 101.985 122.863C102.007 122.885 102.037 122.898 102.068 122.898H103.522C103.538 122.898 103.553 122.901 103.568 122.907C103.583 122.913 103.596 122.922 103.607 122.933C103.618 122.944 103.627 122.958 103.632 122.972C103.638 122.987 103.641 123.002 103.641 123.018C103.617 124.106 103.607 125.495 103.609 127.186C103.61 127.931 103.659 128.464 103.756 128.783C104.093 129.892 104.72 130.763 105.814 131.121C107.076 131.534 108.352 131.504 109.644 131.03C109.824 130.965 109.975 130.874 110.097 130.759C110.111 130.745 110.121 130.728 110.126 130.708C110.131 130.689 110.13 130.668 110.123 130.649L109.476 128.707C109.468 128.683 109.454 128.661 109.436 128.643C109.418 128.625 109.396 128.612 109.371 128.604C109.347 128.596 109.321 128.594 109.296 128.598C109.271 128.602 109.247 128.612 109.226 128.627C108.825 128.921 108.362 129.03 107.835 128.952C106.753 128.794 106.643 127.754 106.651 126.883C106.675 124.798 106.684 123.509 106.679 123.015C106.679 122.998 106.682 122.981 106.689 122.965C106.695 122.949 106.705 122.934 106.717 122.922C106.729 122.909 106.744 122.9 106.76 122.893C106.776 122.886 106.793 122.883 106.811 122.883H109.368C109.388 122.883 109.408 122.875 109.422 122.861C109.437 122.846 109.445 122.827 109.445 122.807V120.585C109.445 120.568 109.438 120.552 109.427 120.54C109.415 120.528 109.399 120.521 109.383 120.521H106.747C106.729 120.521 106.711 120.514 106.697 120.501C106.684 120.488 106.677 120.47 106.677 120.452V117.914C106.677 117.894 106.669 117.874 106.654 117.86C106.64 117.846 106.621 117.838 106.601 117.838Z" stroke="#9CA4A7" stroke-width="2"/>
<path d="M42.5998 121.485C42.5908 121.494 42.5794 121.5 42.5671 121.502C42.5549 121.504 42.5422 121.503 42.5307 121.498C42.5192 121.493 42.5093 121.485 42.5023 121.475C42.4953 121.464 42.4914 121.452 42.4912 121.44V120.532C42.4912 120.506 42.4812 120.482 42.4634 120.465C42.4456 120.447 42.4215 120.437 42.3964 120.437H39.5828C39.5597 120.437 39.5375 120.446 39.5212 120.462C39.5048 120.479 39.4957 120.501 39.4957 120.524V131.11C39.4957 131.135 39.5056 131.159 39.5234 131.177C39.5412 131.195 39.5653 131.205 39.5904 131.205H42.428C42.4549 131.205 42.4808 131.194 42.4999 131.175C42.5191 131.156 42.53 131.131 42.5303 131.104C42.543 127.528 42.5497 125.721 42.5505 125.681C42.5556 124.967 42.7472 124.358 43.1254 123.856C43.7234 123.061 44.5501 122.769 45.6054 122.979C46.3037 123.118 46.7913 123.484 47.0684 124.077C47.2617 124.488 47.3514 125.148 47.3603 125.586C47.3679 126.047 47.37 127.875 47.3666 131.07C47.3666 131.104 47.3805 131.138 47.4051 131.162C47.4297 131.187 47.4632 131.201 47.498 131.201H50.3343C50.3551 131.201 50.375 131.193 50.3897 131.178C50.4044 131.164 50.4127 131.144 50.4127 131.124C50.443 127.431 50.4581 125.461 50.4581 125.215C50.4556 123.714 50.0728 122.207 48.8953 121.191C47.9693 120.391 46.7223 120.178 45.4538 120.247C44.3336 120.31 43.3823 120.722 42.5998 121.485Z" stroke="#9CA4A7" stroke-width="2"/>
<path d="M59.3865 124.792C58.1779 124.752 57.3335 124.741 56.8534 124.758C56.2344 124.779 55.7294 124.835 55.3386 124.927C54.5541 125.113 53.5762 125.59 53.0683 126.251C52.0361 127.591 52.2875 129.39 53.537 130.488C53.9582 130.858 54.4951 131.12 55.1479 131.273C56.7524 131.648 58.4921 131.402 59.6266 130.194C59.6535 130.165 59.6733 130.15 59.686 130.151C59.7407 130.155 59.7694 130.186 59.7719 130.242C59.7769 130.376 59.7765 130.658 59.7706 131.088C59.7703 131.103 59.7729 131.118 59.7784 131.132C59.7839 131.146 59.7922 131.159 59.8026 131.17C59.8131 131.18 59.8256 131.189 59.8394 131.195C59.8532 131.2 59.8681 131.203 59.8831 131.203H62.468C62.5028 131.203 62.5362 131.189 62.5609 131.165C62.5855 131.14 62.5994 131.106 62.5994 131.071C62.596 130.005 62.6019 128.5 62.617 126.555C62.6263 125.343 62.5905 124.448 62.5097 123.869C62.4195 123.235 62.2856 122.774 62.1079 122.485C61.4147 121.361 60.4141 120.665 59.1061 120.396C57.9362 120.155 56.6997 120.175 55.3967 120.454C54.5819 120.629 53.6747 121.044 53.0506 121.512C52.9928 121.555 52.953 121.618 52.9385 121.689C52.9241 121.759 52.9361 121.833 52.9723 121.895L53.8781 123.464C53.8877 123.481 53.9004 123.495 53.9157 123.507C53.931 123.519 53.9484 123.527 53.967 123.532C53.9856 123.537 54.005 123.538 54.024 123.535C54.043 123.532 54.0613 123.526 54.0778 123.516C55.1276 122.889 56.2672 122.654 57.4889 122.691C58.6753 122.727 59.4965 123.415 59.5255 124.653C59.526 124.671 59.5228 124.689 59.516 124.707C59.5092 124.724 59.499 124.739 59.486 124.752C59.473 124.765 59.4574 124.775 59.4403 124.782C59.4232 124.789 59.4049 124.792 59.3865 124.792Z" stroke="#9CA4A7" stroke-width="2"/>
<path d="M71.3446 128.771C70.328 129.02 69.4861 128.842 68.8191 128.238C68.1217 127.607 67.7839 126.828 67.8058 125.901C67.8176 125.389 67.8244 125.124 67.826 125.106C67.8311 125.059 67.84 125.012 67.8526 124.966C68.224 123.571 69.1147 122.841 70.5246 122.774C71.5741 122.724 72.3949 123.166 72.987 124.099C72.9988 124.118 73.0164 124.133 73.0374 124.142C73.0584 124.151 73.0818 124.153 73.1045 124.149C73.2266 124.123 73.3732 124.06 73.5442 123.959C74.2946 123.514 74.9036 123.148 75.371 122.861C75.388 122.851 75.4026 122.837 75.4138 122.82C75.4251 122.804 75.4327 122.785 75.4363 122.765C75.4399 122.746 75.4393 122.726 75.4346 122.706C75.4298 122.687 75.4211 122.669 75.4089 122.653C75.0375 122.173 74.613 121.597 74.1013 121.243C72.157 119.897 69.6567 119.935 67.5645 120.927C66.79 121.295 66.2253 121.909 65.7819 122.485C65.4172 122.958 65.1704 123.397 65.0415 123.802C64.3534 125.961 64.7004 127.875 66.0826 129.545C66.881 130.509 68.0471 131.075 69.2701 131.265C69.8807 131.361 70.2897 131.411 70.4969 131.418C71.0351 131.436 71.652 131.364 72.3477 131.202C73.3446 130.971 74.3085 130.276 74.901 129.49C75.1108 129.212 75.2464 128.985 75.3079 128.808C75.3263 128.755 75.3249 128.697 75.3041 128.644C75.2832 128.592 75.2442 128.549 75.1942 128.523L73.2296 127.497C73.1969 127.48 73.1591 127.475 73.1232 127.484C73.0874 127.493 73.0561 127.514 73.035 127.545C72.7015 128.029 72.0205 128.722 71.4065 128.761C71.3855 128.763 71.3648 128.766 71.3446 128.771Z" stroke="#9CA4A7" stroke-width="2"/>
<path d="M140.893 128.677C140.902 128.658 140.903 128.636 140.896 128.617C140.89 128.597 140.876 128.58 140.858 128.571L138.771 127.401C138.713 127.369 138.645 127.36 138.581 127.377C138.517 127.394 138.463 127.435 138.428 127.492C137.986 128.231 137.344 128.672 136.502 128.814C135.382 129.003 134.483 128.682 133.804 127.85C133.383 127.335 133.16 126.718 133.135 125.998C133.073 124.242 134.139 122.838 135.938 122.784C137.051 122.75 137.897 123.186 138.478 124.091C138.497 124.12 138.526 124.141 138.56 124.151C138.594 124.16 138.63 124.157 138.662 124.142C139.433 123.768 140.128 123.342 140.748 122.862C140.774 122.842 140.792 122.813 140.798 122.781C140.804 122.748 140.798 122.714 140.781 122.686C139.908 121.238 138.619 120.43 136.912 120.261C135.053 120.078 132.796 120.506 131.52 121.929C129.885 123.753 129.524 126.401 130.703 128.564C131.031 129.167 131.522 129.722 132.175 130.228C133.938 131.596 136.929 131.725 138.877 130.768C139.792 130.317 140.464 129.62 140.893 128.677Z" stroke="#C5D4C8" stroke-width="2"/>
<path d="M94.6643 124.74C94.586 124.731 94.543 124.739 94.5355 124.761" stroke="#C5D4C8" stroke-width="2"/>
<path d="M94.5355 124.761C94.2264 124.778 93.9164 124.801 93.6056 124.828C93.2392 124.86 92.9377 124.922 92.701 125.013C92.1691 125.216 91.5374 125.441 91.1117 125.862C90.5288 126.439 90.2121 127.099 90.1616 127.842C90.0631 129.306 90.8994 130.65 92.3106 131.12C92.9954 131.347 93.7307 131.446 94.5165 131.414C95.5892 131.37 96.5354 130.953 97.2669 130.221C97.2806 130.207 97.298 130.197 97.3171 130.193C97.3361 130.189 97.3559 130.191 97.3739 130.199C97.3918 130.206 97.4071 130.219 97.4178 130.235C97.4284 130.251 97.434 130.271 97.4337 130.29V131.037C97.4337 131.085 97.4529 131.131 97.487 131.165C97.5211 131.199 97.5674 131.219 97.6156 131.219H100.252C100.263 131.219 100.273 131.217 100.283 131.212C100.293 131.208 100.302 131.202 100.309 131.195C100.316 131.187 100.322 131.178 100.326 131.169C100.33 131.159 100.332 131.148 100.332 131.138C100.313 129.744 100.321 128.325 100.356 126.88C100.384 125.696 100.36 124.75 100.285 124.044C100.054 121.877 98.3787 120.499 96.2474 120.286C95.4599 120.209 94.7199 120.212 94.0276 120.295C93.9956 120.3 93.9665 120.313 93.9404 120.334C93.924 120.348 93.9037 120.356 93.8823 120.357C93.2523 120.391 92.5103 120.597 91.6562 120.976C91.246 121.158 90.9015 121.39 90.6227 121.672C90.6082 121.687 90.5989 121.706 90.5961 121.727C90.5934 121.747 90.5974 121.768 90.6076 121.786L91.5905 123.488C91.5984 123.501 91.6113 123.511 91.6264 123.516C91.6414 123.52 91.6576 123.518 91.6714 123.511C92.6787 122.961 93.7568 122.689 94.9057 122.696C96.1653 122.705 97.2859 123.317 97.2505 124.654C97.2495 124.689 97.2349 124.721 97.2098 124.745C97.1847 124.769 97.1512 124.782 97.1166 124.782L94.6644 124.74" stroke="#9CA4A7" stroke-width="2"/>
<path d="M94.5355 124.761L94.6643 124.74" stroke="#617970" stroke-width="2"/>
<path d="M27.8838 120.413L26.1643 120.432C26.1479 120.432 26.1318 120.436 26.1174 120.444C26.1029 120.451 26.0906 120.463 26.0814 120.476C26.0722 120.49 26.0664 120.506 26.0646 120.522C26.0627 120.539 26.0649 120.555 26.0708 120.571C26.5092 121.708 27.0512 122.735 27.5161 123.848C28.4822 126.165 29.5245 128.562 30.643 131.039C30.7188 131.207 30.6856 131.41 30.5432 131.648C30.283 132.084 30.1251 132.344 29.626 132.515C28.825 132.789 28.0729 132.66 27.3696 132.13C27.3565 132.119 27.3415 132.112 27.3255 132.108C27.3095 132.104 27.2928 132.103 27.2764 132.105C27.2601 132.107 27.2443 132.113 27.2302 132.122C27.216 132.13 27.2037 132.141 27.194 132.155C26.7897 132.709 26.5421 133.364 26.2249 133.97C26.1942 134.029 26.1863 134.097 26.2029 134.162C26.2195 134.226 26.2593 134.282 26.3147 134.319C28.096 135.507 31.017 135.424 32.4206 133.699C32.7938 133.24 33.0704 132.807 33.2507 132.4C33.8874 130.965 34.2551 130.178 34.7781 128.891C35.9346 126.041 37.1192 123.254 38.3321 120.529C38.3382 120.515 38.3408 120.5 38.3396 120.485C38.3385 120.47 38.3336 120.456 38.3254 120.443C38.3172 120.431 38.3061 120.421 38.2929 120.413C38.2797 120.406 38.2649 120.403 38.2499 120.403H35.3997C35.3509 120.403 35.3032 120.417 35.2627 120.444C35.2221 120.472 35.1907 120.51 35.1723 120.556L32.3107 127.566C32.3045 127.58 32.2942 127.593 32.2812 127.601C32.2682 127.61 32.2529 127.615 32.2372 127.615C32.2216 127.615 32.2062 127.611 32.193 127.602C32.1798 127.594 32.1694 127.582 32.1629 127.567C31.8521 126.861 31.679 126.252 31.348 125.499C30.9753 124.653 30.5255 123.394 29.981 122.238C29.722 121.69 29.5489 121.02 29.2963 120.482C29.2794 120.446 29.244 120.421 29.1901 120.406" stroke="#9CA4A7" stroke-width="2"/>
<path d="M29.1901 120.406L27.8838 120.413" stroke="#C5D4C8" stroke-width="2"/>
<path d="M29.1901 120.406L27.8838 120.413" stroke="#617970" stroke-width="2"/>
<path d="M122.584 120.458C122.577 120.442 122.565 120.428 122.55 120.419C122.535 120.41 122.518 120.405 122.501 120.405L119.633 120.424C119.611 120.424 119.59 120.433 119.574 120.448C119.559 120.464 119.55 120.485 119.549 120.508C119.542 121.578 119.536 123.45 119.533 126.123C119.532 126.774 119.372 127.347 119.052 127.844C118.555 128.616 117.546 128.946 116.669 128.812C115.28 128.598 115.006 127.228 114.996 125.997C114.984 124.344 114.987 122.534 115.004 120.569C115.004 120.55 115 120.53 114.993 120.512C114.986 120.494 114.975 120.477 114.961 120.463C114.947 120.449 114.931 120.438 114.913 120.431C114.895 120.423 114.875 120.419 114.856 120.419H111.997C111.985 120.419 111.974 120.421 111.963 120.426C111.953 120.43 111.943 120.437 111.935 120.445C111.927 120.454 111.92 120.464 111.916 120.475C111.912 120.485 111.91 120.497 111.91 120.509C111.932 121.677 111.924 122.827 111.883 123.959C111.844 125.078 111.898 126.083 111.926 127.181C111.941 127.745 112.046 128.292 112.239 128.821C112.622 129.862 113.335 130.596 114.378 131.024C115.309 131.406 116.367 131.499 117.551 131.306C118.365 131.173 119.058 130.814 119.628 130.229C119.638 130.219 119.651 130.212 119.666 130.209C119.68 130.206 119.695 130.207 119.709 130.213C119.723 130.218 119.734 130.228 119.743 130.24C119.751 130.252 119.755 130.266 119.755 130.281V131.101C119.755 131.131 119.767 131.16 119.789 131.181C119.811 131.203 119.84 131.215 119.87 131.215H122.512C122.537 131.215 122.561 131.205 122.578 131.187C122.596 131.17 122.606 131.146 122.606 131.121L122.603 120.487C122.603 120.487 122.603 120.487 122.603 120.486C122.603 120.485 122.602 120.484 122.602 120.484C122.591 120.468 122.585 120.46 122.584 120.458Z" stroke="#9CA4A7" stroke-width="2"/>
<path d="M151.415 120.412H142.227C142.208 120.412 142.19 120.419 142.176 120.433C142.163 120.446 142.155 120.464 142.155 120.484V122.742C142.155 122.761 142.163 122.779 142.176 122.792C142.189 122.805 142.206 122.812 142.225 122.812H147.397C147.409 122.812 147.42 122.816 147.429 122.822C147.439 122.829 147.446 122.838 147.45 122.849C147.465 122.887 147.459 122.924 147.434 122.957C147.359 123.052 147.171 123.246 146.872 123.538C146.381 124.016 145.903 124.712 145.487 125.14C144.772 125.879 144.26 126.557 143.559 127.279C143.099 127.756 142.699 128.336 142.153 128.886C142.061 128.98 142.007 129.105 142.002 129.236L141.937 131.106C141.936 131.119 141.938 131.132 141.943 131.144C141.948 131.156 141.955 131.166 141.964 131.176C141.973 131.185 141.983 131.192 141.995 131.197C142.007 131.202 142.02 131.205 142.033 131.205H151.684C151.7 131.205 151.715 131.198 151.727 131.187C151.738 131.176 151.745 131.16 151.745 131.144V128.953C151.745 128.913 151.729 128.875 151.7 128.846C151.672 128.818 151.633 128.802 151.593 128.802H146.023C146.011 128.802 145.999 128.798 145.989 128.791C145.98 128.784 145.972 128.775 145.967 128.764C145.963 128.753 145.962 128.741 145.964 128.729C145.967 128.717 145.972 128.707 145.981 128.698C146.745 127.946 147.483 126.943 148.231 126.075C148.848 125.359 149.407 124.715 149.909 124.144C150.071 123.959 150.531 123.418 151.29 122.519C151.423 122.361 151.497 122.213 151.512 122.074C151.555 121.698 151.556 121.176 151.515 120.506C151.513 120.481 151.502 120.457 151.484 120.439C151.465 120.421 151.44 120.411 151.415 120.412Z" stroke="#C5D4C8" stroke-width="2"/>
<path d="M128.811 129.441C128.811 128.916 128.603 128.412 128.231 128.04C127.86 127.669 127.356 127.46 126.83 127.46C126.305 127.46 125.801 127.669 125.43 128.04C125.058 128.412 124.849 128.916 124.849 129.441C124.849 129.966 125.058 130.47 125.43 130.842C125.801 131.213 126.305 131.422 126.83 131.422C127.356 131.422 127.86 131.213 128.231 130.842C128.603 130.47 128.811 129.966 128.811 129.441Z" stroke="#C5D4C8" stroke-width="2"/>
<path d="M58.9797 37.2157C58.6403 37.7867 58.3333 38.2723 58.0587 38.6724C57.8073 39.0375 57.5862 39.5302 57.3184 39.9396C57.2173 40.0937 57.0518 40.3556 56.8219 40.7254C55.3071 43.1536 53.7708 45.5073 52.4164 47.7448C51.3918 49.439 50.654 50.5799 49.3969 52.6038C48.3445 54.2968 46.8448 56.5595 45.757 58.3636C44.836 59.8911 44.0502 61.0648 43.2353 62.4103C43.002 62.7961 42.7308 63.2227 42.4217 63.6901C42.1475 64.1058 41.9732 64.4848 41.7218 64.8512C41.4927 65.1847 41.3175 65.4484 41.1962 65.6421C37.283 71.8866 35.0388 75.4574 34.4636 76.3544C33.2456 78.2545 32.5815 79.307 32.4712 79.5116C32.1452 80.1105 31.7447 80.6323 31.4049 81.2248C31.2373 81.5162 30.9711 81.9449 30.6064 82.5109C29.1796 84.7252 27.8012 86.9257 26.4713 89.1122C26.4621 89.1272 26.457 89.1443 26.4566 89.162C26.4563 89.1796 26.4606 89.197 26.4693 89.2123C26.4779 89.2277 26.4905 89.2404 26.5058 89.2492C26.521 89.2581 26.5383 89.2627 26.556 89.2625H55.5471C55.5977 89.2625 55.6475 89.2496 55.6917 89.225C55.736 89.2005 55.7731 89.1651 55.7998 89.1223C56.2268 88.4434 57.0674 87.081 58.3215 85.0352C58.9898 83.9449 59.7214 82.8394 60.5944 81.408C61.3019 80.2499 61.9218 79.2265 62.4541 78.3379C63.2867 76.9457 64.4086 75.254 65.207 73.7998C65.2992 73.6305 65.4951 73.4208 65.5734 73.2843C66.0611 72.4404 66.7319 71.348 67.586 70.0071C67.9928 69.3678 68.3453 68.654 68.742 68.0817C68.9913 67.7212 69.2853 67.2441 69.6238 66.6503C70.1355 65.7532 70.8367 64.7274 71.4052 63.7356C71.8613 62.9397 72.3717 62.2094 72.7975 61.4286C73.0022 61.0534 73.1891 60.8336 73.3521 60.4849C73.3606 60.4672 73.3643 60.4476 73.363 60.4281C73.3616 60.4087 73.3553 60.3899 73.3445 60.3737C72.6783 59.3512 71.8824 58.1038 70.9567 56.6315C70.1545 55.3542 69.3497 53.9114 68.4388 52.5381C68.1141 52.0479 67.7149 51.3025 67.4912 50.9614C66.7888 49.885 66.2758 48.9551 65.5267 47.7878C64.9312 46.8621 64.5147 46.1971 64.2772 45.7929C64.0818 45.461 62.3404 42.602 59.053 37.2157C59.0492 37.2094 59.0438 37.2042 59.0374 37.2006C59.031 37.197 59.0237 37.1951 59.0164 37.1951C59.009 37.1951 59.0018 37.197 58.9954 37.2006C58.989 37.2042 58.9836 37.2094 58.9797 37.2157Z" stroke="#9CA4A7" stroke-width="2"/>
<path d="M93.0396 37.2359L90.7794 40.877C90.7631 40.9036 90.7545 40.9342 90.7545 40.9654C90.7545 40.9966 90.7631 41.0272 90.7794 41.0539C92.0453 43.0963 93.2156 44.9704 94.2904 46.676C96.6681 50.4468 97.8835 52.3735 97.9365 52.456C98.5265 53.3859 99.306 54.715 99.9984 55.7749C101.339 57.8292 102.924 60.38 103.877 61.9428C104.818 63.4867 105.509 64.5227 106.387 65.9238C109.207 70.4299 111.652 74.3351 113.721 77.6393C114.035 78.1396 114.305 78.4617 114.544 78.9027C114.715 79.2193 114.912 79.5407 115.134 79.8666C115.227 80.0031 115.949 81.1502 117.299 83.3081C118.364 85.0095 119.026 86.0606 119.285 86.4615C119.612 86.9652 119.839 87.327 119.966 87.5468C120.577 88.6055 121.068 89.284 121.671 90.2846C122.94 92.3995 124.565 94.8935 125.917 97.0968C127.08 98.9944 128.348 101.034 129.721 103.214C129.736 103.237 129.756 103.257 129.781 103.27C129.805 103.283 129.832 103.29 129.86 103.29C131.516 103.283 132.658 103.269 133.288 103.247C133.569 103.238 133.908 103.253 134.305 103.294C134.316 103.295 134.328 103.293 134.339 103.289C134.35 103.285 134.36 103.278 134.368 103.27C134.376 103.261 134.381 103.251 134.385 103.239C134.388 103.228 134.389 103.216 134.387 103.204C134.377 103.155 134.355 103.103 134.32 103.049C133.472 101.735 132.903 100.812 132.61 100.279C132.103 99.3558 131.538 98.6078 130.85 97.4847C129.23 94.8353 127.893 92.656 126.622 90.7495C126.027 89.8576 125.432 88.766 124.801 87.8083C124.476 87.3148 124.257 86.9661 124.144 86.7622C123.681 85.9297 122.867 84.8078 122.438 84.1053C121.284 82.2178 119.926 80.1484 118.91 78.4933C118.038 77.0707 117.398 76.0272 116.989 75.3626C116.644 74.805 116.391 74.4067 116.23 74.1675C115.546 73.1454 114.982 72.1384 114.349 71.1719C113.298 69.5674 112.102 67.527 111.024 65.8518C109.67 63.7482 109.188 63.0193 107.608 60.404C107.175 59.6881 106.475 58.5864 105.507 57.099C104.61 55.721 101.891 51.3661 97.3516 44.0342C96.4243 42.5371 95.3276 40.8858 94.4786 39.4266C93.9871 38.5801 93.5285 37.9333 93.0826 37.2359C93.0803 37.2322 93.0771 37.2292 93.0734 37.2271C93.0696 37.225 93.0654 37.2239 93.0611 37.2239C93.0568 37.2239 93.0525 37.225 93.0488 37.2271C93.045 37.2292 93.0419 37.2322 93.0396 37.2359Z" stroke="#9CA4A7" stroke-width="2"/>
<path d="M109.796 79.2829C109.791 79.2751 109.784 79.269 109.775 79.2654C109.767 79.2618 109.757 79.2609 109.748 79.2628C109.739 79.2648 109.731 79.2694 109.724 79.2762C109.718 79.2829 109.714 79.2915 109.713 79.3006C109.655 79.7117 109.629 80.1269 109.634 80.5463C109.678 83.7722 109.681 86.9728 109.642 90.1481C109.636 90.6072 109.649 91.6196 109.682 93.1853C109.682 93.1901 109.682 93.1948 109.68 93.1993C109.678 93.2037 109.676 93.2078 109.672 93.2112C109.669 93.2146 109.665 93.2173 109.661 93.2192C109.656 93.221 109.652 93.222 109.647 93.222H97.9858C97.9573 93.222 97.93 93.2105 97.9099 93.1902C97.8897 93.1698 97.8784 93.1421 97.8784 93.1133V77.6456C97.8784 77.6228 97.8875 77.6009 97.9036 77.5848C97.9197 77.5687 97.9415 77.5597 97.9643 77.5597H108.434C108.459 77.5597 108.483 77.5531 108.505 77.5404C108.526 77.5277 108.544 77.5095 108.556 77.4877C108.568 77.4659 108.574 77.4412 108.573 77.4163C108.572 77.3914 108.565 77.3672 108.552 77.3462L88.3133 45.0689C88.3092 45.0623 88.3036 45.0567 88.2969 45.0528C88.2901 45.0489 88.2826 45.0467 88.2748 45.0464C88.267 45.0462 88.2593 45.0479 88.2523 45.0514C88.2454 45.0548 88.2394 45.06 88.2349 45.0664C87.9393 45.4926 87.6866 45.8948 87.4769 46.2729C87.2924 46.6048 87.0456 47.0091 86.7365 47.4858C85.7662 48.9829 84.5092 51.0776 83.3329 52.9841C82.6785 54.0437 82.3496 54.5764 82.3462 54.5823C82.0742 55.0666 81.5827 55.8676 80.8719 56.9853C80.3008 57.8831 79.48 59.2291 78.4095 61.0231C77.5706 62.4292 76.2478 64.5214 75.4885 65.7874C74.8227 66.8966 74.1872 67.853 73.4027 69.1783C71.4305 72.5086 68.8608 76.5881 66.7724 80.0195C63.2382 85.8277 60.9367 89.5998 59.8679 91.3357C59.1722 92.4669 58.6715 93.27 58.3657 93.745C57.2047 95.5517 56.247 97.2674 54.9849 99.2977C54.3953 100.246 53.7598 101.287 53.0784 102.42C52.8451 102.807 52.7061 103.059 52.6615 103.175C52.6572 103.187 52.6558 103.199 52.6574 103.211C52.659 103.224 52.6635 103.235 52.6706 103.246C52.6776 103.256 52.687 103.264 52.698 103.27C52.7089 103.276 52.7211 103.279 52.7335 103.279H75.4405C75.467 103.279 75.4924 103.268 75.5111 103.249C75.5298 103.23 75.5403 103.204 75.5403 103.178V77.5925C75.5403 77.5808 75.545 77.5695 75.5533 77.5613C75.5616 77.553 75.5728 77.5483 75.5845 77.5483H95.0749C95.0813 77.5483 95.0875 77.5495 95.0933 77.552C95.0991 77.5544 95.1044 77.5579 95.1089 77.5624C95.1134 77.5668 95.1169 77.5721 95.1193 77.5779C95.1217 77.5838 95.123 77.59 95.123 77.5963V103.195C95.123 103.217 95.1316 103.238 95.147 103.253C95.1624 103.269 95.1833 103.277 95.2051 103.277H124.69C124.705 103.277 124.72 103.273 124.733 103.266C124.745 103.258 124.756 103.247 124.763 103.234C124.77 103.221 124.774 103.207 124.774 103.192C124.773 103.177 124.769 103.162 124.761 103.15L109.796 79.2829Z" stroke="#9CA4A7" stroke-width="2"/>
<path d="M91.31 81.4813C91.31 81.4725 91.3066 81.4642 91.3004 81.458C91.2943 81.4519 91.2859 81.4484 91.2772 81.4484H79.4114C79.4027 81.4484 79.3943 81.4519 79.3882 81.458C79.382 81.4642 79.3785 81.4725 79.3785 81.4813V103.247C79.3785 103.256 79.382 103.264 79.3882 103.27C79.3943 103.276 79.4027 103.28 79.4114 103.28H91.2772C91.2859 103.28 91.2943 103.276 91.3004 103.27C91.3066 103.264 91.31 103.256 91.31 103.247V81.4813Z" stroke="#9CA4A7" stroke-width="2"/>
<path d="M101.497 89.2676C101.497 89.2725 101.498 89.2775 101.5 89.2821C101.502 89.2867 101.504 89.2908 101.508 89.2944C101.511 89.2979 101.516 89.3007 101.52 89.3026C101.525 89.3045 101.53 89.3055 101.535 89.3055H105.839C105.849 89.3055 105.859 89.3015 105.866 89.2944C105.873 89.2873 105.877 89.2776 105.877 89.2676V81.4674C105.877 81.4573 105.873 81.4477 105.866 81.4406C105.859 81.4335 105.849 81.4295 105.839 81.4295H101.535C101.53 81.4295 101.525 81.4304 101.52 81.4323C101.516 81.4342 101.511 81.437 101.508 81.4406C101.504 81.4441 101.502 81.4483 101.5 81.4529C101.498 81.4574 101.497 81.4624 101.497 81.4674V89.2676Z" stroke="#9CA4A7" stroke-width="2"/>
<path d="M17.6654 103.135C17.6564 103.149 17.6513 103.166 17.6509 103.183C17.6504 103.2 17.6545 103.216 17.6628 103.231C17.6711 103.246 17.6832 103.258 17.6979 103.267C17.7126 103.276 17.7293 103.28 17.7463 103.28H47.1253C47.1414 103.28 47.1573 103.276 47.1715 103.268C47.1856 103.261 47.1976 103.249 47.2062 103.236L53.3273 93.3711C53.3364 93.3567 53.3414 93.3401 53.3419 93.3231C53.3423 93.3061 53.3382 93.2893 53.33 93.2744C53.3217 93.2596 53.3096 93.2472 53.2949 93.2387C53.2802 93.2301 53.2635 93.2256 53.2465 93.2258H23.8675C23.8513 93.2256 23.8354 93.2296 23.8213 93.2374C23.8071 93.2451 23.7952 93.2563 23.7866 93.27L17.6654 103.135Z" stroke="#9CA4A7" stroke-width="2"/>
<path d="M50.3053 64.956C50.3196 64.956 50.3336 64.9523 50.346 64.9452C50.3584 64.9381 50.3688 64.9279 50.376 64.9156L53.1252 60.2815C53.1325 60.269 53.1364 60.2548 53.1365 60.2403C53.1366 60.2259 53.1329 60.2116 53.1257 60.199C53.1185 60.1865 53.1082 60.176 53.0956 60.1688C53.0831 60.1615 53.0689 60.1577 53.0544 60.1577H47.4664C47.4521 60.1577 47.4381 60.1614 47.4257 60.1685C47.4133 60.1756 47.4029 60.1858 47.3957 60.1981L44.6478 64.8322C44.6404 64.8447 44.6365 64.8589 44.6364 64.8734C44.6363 64.8879 44.64 64.9021 44.6472 64.9147C44.6544 64.9272 44.6648 64.9377 44.6773 64.9449C44.6898 64.9522 44.7041 64.956 44.7185 64.956H50.3053Z" stroke="#C5D4C8" stroke-width="2"/>
<path d="M55.8301 60.1539C55.8148 60.1539 55.7998 60.1578 55.7865 60.1654C55.7733 60.1729 55.7621 60.1837 55.7543 60.1968L53.019 64.8108C53.011 64.8242 53.0066 64.8395 53.0064 64.8551C53.0063 64.8708 53.0102 64.8862 53.0179 64.8998C53.0256 64.9134 53.0368 64.9247 53.0503 64.9326C53.0638 64.9405 53.0792 64.9447 53.0948 64.9447H58.7725C58.7878 64.9447 58.8028 64.9407 58.8161 64.9332C58.8294 64.9256 58.8405 64.9148 58.8483 64.9017L61.5849 60.2878C61.5929 60.2744 61.5972 60.2591 61.5974 60.2434C61.5976 60.2278 61.5937 60.2124 61.586 60.1988C61.5783 60.1851 61.5671 60.1738 61.5536 60.1659C61.5401 60.158 61.5247 60.1539 61.5091 60.1539H55.8301Z" stroke="#C5D4C8" stroke-width="2"/>
<path d="M67.0377 64.9598C67.0591 64.9599 67.0803 64.9544 67.0991 64.9441C67.1178 64.9337 67.1337 64.9187 67.1451 64.9004L69.965 60.356C69.9769 60.3369 69.9835 60.3149 69.9841 60.2923C69.9847 60.2697 69.9792 60.2474 69.9683 60.2277C69.9573 60.208 69.9412 60.1915 69.9218 60.1801C69.9023 60.1687 69.8801 60.1627 69.8576 60.1627H64.3087C64.2868 60.1627 64.2653 60.1684 64.2462 60.1793C64.2272 60.1901 64.2113 60.2058 64.2001 60.2246L61.5065 64.7691C61.4952 64.7882 61.4891 64.8101 61.4889 64.8324C61.4887 64.8547 61.4944 64.8766 61.5054 64.896C61.5165 64.9154 61.5324 64.9315 61.5517 64.9427C61.571 64.9539 61.5929 64.9598 61.6152 64.9598H67.0377Z" stroke="#C5D4C8" stroke-width="2"/>
<path d="M46.2599 71.8479C46.2675 71.8479 46.275 71.8459 46.2817 71.8421C46.2883 71.8383 46.2939 71.8329 46.2978 71.8264L49.0949 67.1089C49.099 67.1022 49.1011 67.0945 49.1012 67.0867C49.1013 67.0789 49.0994 67.0711 49.0955 67.0643C49.0916 67.0575 49.0861 67.0519 49.0793 67.0479C49.0725 67.044 49.0649 67.0419 49.057 67.0419H43.325C43.3174 67.0419 43.3099 67.0439 43.3032 67.0476C43.2966 67.0514 43.291 67.0568 43.2871 67.0634L40.4899 71.7809C40.4859 71.7876 40.4838 71.7953 40.4837 71.8031C40.4836 71.8109 40.4855 71.8186 40.4894 71.8254C40.4932 71.8322 40.4988 71.8379 40.5056 71.8418C40.5124 71.8458 40.52 71.8479 40.5279 71.8479H46.2599Z" stroke="#C5D4C8" stroke-width="2"/>
<path d="M54.6476 71.8517C54.6646 71.8517 54.6814 71.8472 54.6962 71.8388C54.7111 71.8304 54.7234 71.8183 54.7322 71.8036L57.4599 67.2024C57.4688 67.1874 57.4736 67.1703 57.4738 67.1529C57.474 67.1355 57.4696 67.1183 57.461 67.1032C57.4524 67.088 57.4399 67.0754 57.4248 67.0666C57.4098 67.0579 57.3927 67.0533 57.3752 67.0533H51.7392C51.7222 67.0533 51.7054 67.0577 51.6906 67.0661C51.6757 67.0745 51.6633 67.0866 51.6546 67.1013L48.9269 71.7026C48.918 71.7175 48.9132 71.7346 48.913 71.752C48.9128 71.7695 48.9172 71.7866 48.9258 71.8018C48.9344 71.8169 48.9469 71.8295 48.9619 71.8383C48.977 71.847 48.9941 71.8517 49.0115 71.8517H54.6476Z" stroke="#C5D4C8" stroke-width="2"/>
<path d="M57.3803 71.8567H62.8862C62.9342 71.8568 62.9815 71.8443 63.0234 71.8206C63.0652 71.7969 63.1002 71.7628 63.1249 71.7215L65.8602 67.1101C65.8626 67.1059 65.8639 67.1011 65.8639 67.0963C65.8639 67.0914 65.8626 67.0866 65.8602 67.0824C65.8578 67.0781 65.8543 67.0746 65.8501 67.0722C65.8458 67.0697 65.8411 67.0685 65.8362 67.0684C64.2325 67.0727 62.4486 67.063 60.4844 67.0394C60.3539 67.0377 60.204 67.0545 60.0347 67.0899C60.0132 67.0947 59.993 67.1039 59.9753 67.117C59.9577 67.13 59.943 67.1466 59.9323 67.1657C59.0656 68.6957 58.7915 69.2781 58.0448 70.4051C57.7568 70.8397 57.5104 71.2852 57.3057 71.7417C57.3003 71.7542 57.298 71.7678 57.2992 71.7813C57.3003 71.7948 57.3047 71.8079 57.3121 71.8193C57.3195 71.8307 57.3296 71.84 57.3415 71.8466C57.3534 71.8531 57.3667 71.8566 57.3803 71.8567Z" stroke="#C5D4C8" stroke-width="2"/>
<path d="M47.6395 73.8832C47.6196 73.8833 47.6 73.8886 47.5827 73.8986C47.5654 73.9085 47.551 73.9228 47.541 73.94L44.8145 78.5375C44.8043 78.555 44.7988 78.575 44.7988 78.5953C44.7987 78.6156 44.804 78.6355 44.8141 78.6531C44.8243 78.6707 44.8389 78.6852 44.8565 78.6954C44.8741 78.7055 44.8941 78.7107 44.9144 78.7106H50.5125C50.5324 78.7105 50.552 78.7052 50.5693 78.6952C50.5865 78.6853 50.6009 78.671 50.611 78.6538L53.3387 74.0563C53.3489 74.0388 53.3544 74.0189 53.3544 73.9986C53.3545 73.9783 53.3492 73.9583 53.3391 73.9407C53.3289 73.9231 53.3143 73.9086 53.2967 73.8985C53.2791 73.8883 53.2592 73.8831 53.2389 73.8832H47.6395Z" stroke="#C5D4C8" stroke-width="2"/>
<path d="M44.975 74.0158C44.9821 74.0035 44.9859 73.9895 44.9858 73.9752C44.9858 73.961 44.982 73.947 44.9748 73.9347C44.9676 73.9224 44.9573 73.9122 44.9449 73.9051C44.9325 73.8981 44.9185 73.8944 44.9042 73.8946H39.243C39.2107 73.8946 39.179 73.903 39.1513 73.919C39.1236 73.935 39.1007 73.9579 39.085 73.9855C38.4373 75.11 37.8511 76.095 37.3264 76.9406C36.9988 77.4687 36.7115 78.0036 36.4648 78.5451C36.4554 78.5652 36.4512 78.5874 36.4527 78.6095C36.4542 78.6316 36.4613 78.653 36.4732 78.6717C36.4852 78.6904 36.5017 78.7057 36.5212 78.7163C36.5407 78.7268 36.5626 78.7323 36.5848 78.7321H42.121C42.1472 78.7322 42.1729 78.7254 42.1957 78.7126C42.2185 78.6998 42.2376 78.6812 42.2511 78.6588C42.4217 78.3758 42.5783 77.9842 42.7628 77.6885C43.6227 76.3089 44.3601 75.0847 44.975 74.0158Z" stroke="#C5D4C8" stroke-width="2"/>
<path d="M56.0828 73.8895C56.0566 73.8893 56.0308 73.896 56.008 73.9089C55.9851 73.9217 55.9661 73.9403 55.9526 73.9628L53.2717 78.4845C53.2581 78.5073 53.2508 78.5333 53.2505 78.5598C53.2502 78.5864 53.2569 78.6126 53.27 78.6357C53.2831 78.6588 53.3021 78.678 53.325 78.6914C53.348 78.7048 53.374 78.7118 53.4006 78.7119H58.9418C58.968 78.7121 58.9938 78.7054 59.0166 78.6925C59.0395 78.6797 59.0585 78.6611 59.072 78.6386L61.7529 74.1169C61.7665 74.0941 61.7738 74.0681 61.7741 74.0416C61.7744 74.015 61.7677 73.9888 61.7546 73.9657C61.7415 73.9426 61.7225 73.9234 61.6996 73.91C61.6767 73.8966 61.6506 73.8896 61.624 73.8895H56.0828Z" stroke="#C5D4C8" stroke-width="2"/>
<path d="M37.9707 85.6732C37.9914 85.6732 38.0117 85.6679 38.0296 85.6577C38.0476 85.6475 38.0625 85.6328 38.0731 85.6151L40.8424 80.9468C40.8532 80.9288 40.8589 80.9082 40.8591 80.8872C40.8593 80.8662 40.8539 80.8456 40.8435 80.8274C40.8331 80.8091 40.818 80.794 40.7999 80.7834C40.7817 80.7729 40.7611 80.7674 40.7401 80.7674H35.1357C35.115 80.7674 35.0948 80.7727 35.0768 80.7829C35.0589 80.7931 35.0439 80.8078 35.0333 80.8255L32.264 85.4938C32.2533 85.5119 32.2475 85.5324 32.2473 85.5534C32.2471 85.5744 32.2525 85.595 32.2629 85.6133C32.2733 85.6315 32.2884 85.6467 32.3065 85.6572C32.3247 85.6677 32.3453 85.6732 32.3663 85.6732H37.9707Z" stroke="#C5D4C8" stroke-width="2"/>
<path d="M46.2978 85.6643C46.3195 85.6643 46.3408 85.6585 46.3597 85.6476C46.3785 85.6368 46.3942 85.6212 46.4052 85.6024L49.1518 80.9696C49.1629 80.9506 49.1688 80.9291 49.1689 80.9071C49.169 80.8851 49.1634 80.8635 49.1525 80.8444C49.1416 80.8253 49.1259 80.8095 49.1069 80.7984C49.0879 80.7873 49.0664 80.7814 49.0444 80.7813H43.4476C43.4254 80.7815 43.4036 80.7875 43.3845 80.7988C43.3654 80.8101 43.3497 80.8263 43.3389 80.8458L40.7439 85.4786C40.7334 85.4976 40.728 85.519 40.7282 85.5407C40.7285 85.5624 40.7344 85.5837 40.7453 85.6024C40.7563 85.6212 40.7719 85.6367 40.7907 85.6476C40.8095 85.6584 40.8308 85.6642 40.8525 85.6643H46.2978Z" stroke="#C5D4C8" stroke-width="2"/>
<path d="M51.9565 80.7649C51.9346 80.7649 51.913 80.7706 51.894 80.7815C51.8749 80.7923 51.859 80.808 51.8479 80.8268L49.0937 85.4723C49.0823 85.4915 49.0762 85.5133 49.076 85.5356C49.0758 85.5579 49.0815 85.5799 49.0926 85.5993C49.1036 85.6187 49.1196 85.6348 49.1388 85.646C49.1581 85.6572 49.18 85.6631 49.2023 85.6631H54.7549C54.7769 85.6631 54.7984 85.6574 54.8175 85.6465C54.8365 85.6357 54.8524 85.6201 54.8636 85.6012L57.6178 80.9557C57.6292 80.9364 57.6353 80.9144 57.6355 80.892C57.6356 80.8696 57.6298 80.8476 57.6186 80.8282C57.6074 80.8088 57.5913 80.7927 57.5718 80.7816C57.5523 80.7704 57.5303 80.7647 57.5079 80.7649H51.9565Z" stroke="#C5D4C8" stroke-width="2"/>
<path d="M89.6134 90.6517C89.6134 90.6361 89.6104 90.6206 89.6044 90.6062C89.5985 90.5918 89.5897 90.5787 89.5787 90.5676C89.5677 90.5566 89.5546 90.5478 89.5402 90.5418C89.5258 90.5358 89.5104 90.5327 89.4948 90.5327L87.5037 90.5292C87.4722 90.5292 87.442 90.5416 87.4197 90.5639C87.3974 90.5861 87.3848 90.6163 87.3847 90.6478L87.377 95.0873C87.377 95.1029 87.38 95.1184 87.3859 95.1328C87.3919 95.1472 87.4006 95.1603 87.4116 95.1714C87.4226 95.1824 87.4357 95.1912 87.4501 95.1972C87.4645 95.2032 87.48 95.2063 87.4955 95.2063L89.4867 95.2098C89.5181 95.2098 89.5484 95.1974 89.5707 95.1751C89.593 95.1529 89.6056 95.1227 89.6056 95.0912L89.6134 90.6517Z" stroke="#9CA4A7" stroke-width="2"/>
<path d="M16.1468 125.873C16.1911 127.54 17.1411 128.918 18.9389 128.871C20.7368 128.824 21.6148 127.398 21.5719 125.732C21.5276 124.067 20.5763 122.688 18.7785 122.735C16.9807 122.782 16.1039 124.208 16.1468 125.873Z" stroke="#9CA4A7" stroke-width="2"/>
<path d="M59.4257 126.655C58.4234 126.574 57.5142 126.56 56.698 126.612C56.1144 126.649 55.7303 126.922 55.5458 127.43C55.3479 127.973 55.4191 128.424 55.7593 128.783C56.386 129.444 57.6443 129.34 58.4504 128.979C58.8024 128.82 59.093 128.523 59.3221 128.085C59.5192 127.71 59.5331 127.193 59.5217 126.755C59.5212 126.73 59.511 126.705 59.4932 126.687C59.4755 126.668 59.4514 126.657 59.4257 126.655Z" stroke="#9CA4A7" stroke-width="2"/>
<path d="M97.2316 126.825C97.2238 126.781 97.2022 126.742 97.1701 126.712C97.1379 126.682 97.097 126.663 97.0534 126.659C96.1792 126.571 95.2977 126.56 94.4091 126.624C93.4578 126.693 92.8539 127.613 93.2506 128.523C93.6018 129.329 94.8058 129.317 95.5538 129.176C96.0937 129.074 96.5068 128.843 96.7932 128.482C97.189 127.983 97.3352 127.43 97.2316 126.825Z" stroke="#9CA4A7" stroke-width="2"/>
<path d="M61.8161 33.0048L59.1541 28.5993C59.1499 28.5924 59.1444 28.5865 59.1377 28.582C59.1311 28.5775 59.1235 28.5745 59.1156 28.5731C59.1077 28.5718 59.0996 28.5722 59.0918 28.5744C59.0841 28.5765 59.0769 28.5802 59.0707 28.5854L58.9557 28.6789C60.4204 26.169 61.939 23.6944 63.5115 21.2552C63.9849 20.5207 64.3925 19.8608 64.7345 19.2755C65.2563 18.3822 65.7793 17.6141 66.3643 16.6337C67.391 14.9129 68.4485 13.2002 69.5367 11.4955C69.5636 11.4542 69.6748 11.2777 69.8702 10.9661C71.0991 9.01205 72.3086 7.04326 73.4987 5.05973C73.8638 4.45077 74.5321 3.56766 74.9478 2.81467C75.3201 2.14171 75.6742 1.55002 76.0103 1.03961C76.0185 1.02722 76.0297 1.0171 76.0429 1.01018C76.056 1.00326 76.0707 0.999761 76.0855 1.00001C76.1004 1.00026 76.115 1.00426 76.1279 1.01162C76.1408 1.01898 76.1516 1.02947 76.1594 1.04213C76.7633 2.03516 77.2459 2.91954 77.7652 3.73696C79.2219 6.03002 80.2642 7.81898 81.6349 9.97055C82.8453 11.8699 83.8657 13.5135 84.6962 14.9016C85.4062 16.0866 86.0379 17.0266 86.7226 18.1801C86.7324 18.1969 86.7368 18.2162 86.7355 18.2356C86.7341 18.2549 86.727 18.2734 86.7151 18.2887C85.7321 19.5479 85.1021 20.3481 84.825 20.6892C84.4978 21.0922 84.0291 21.4889 83.712 21.9475C83.7046 21.9582 83.6947 21.9668 83.6832 21.9726C83.6717 21.9784 83.6588 21.9812 83.6458 21.9808C83.6328 21.9805 83.6201 21.9769 83.6087 21.9704C83.5973 21.9639 83.5876 21.9548 83.5806 21.9437L76.0962 9.84421C76.0913 9.83665 76.0845 9.83044 76.0766 9.82614C76.0687 9.82184 76.0598 9.81959 76.0507 9.81959C76.0417 9.81959 76.0328 9.82184 76.0249 9.82614C76.0169 9.83044 76.0102 9.83665 76.0053 9.84421C75.1394 11.212 74.4281 12.3617 73.8714 13.2933C71.3509 17.5155 68.6232 21.6607 65.9069 26.2481C65.3477 27.1923 64.7459 28.1335 64.1015 29.0718C63.5065 29.9385 62.9569 30.977 62.5059 31.7995C62.4815 31.8424 62.4536 31.8834 62.4225 31.922C62.1656 32.2404 61.9635 32.6013 61.8161 33.0048Z" fill="#8AA891"/>
<path d="M66.1508 32.9921C66.1389 32.9757 66.1331 32.9558 66.1342 32.9358C66.1354 32.9157 66.1435 32.8968 66.1571 32.8822L69.9561 28.7686C69.9625 28.7616 69.9703 28.7559 69.979 28.7521C69.9877 28.7482 69.9971 28.7462 70.0067 28.7462C70.0162 28.7462 70.0256 28.7482 70.0343 28.7521C70.043 28.7559 70.0508 28.7616 70.0572 28.7686C70.6409 29.3969 70.9946 29.7861 71.1184 29.936C71.9051 30.8869 72.413 31.5131 72.6421 31.8147C73.716 33.2196 74.8682 34.3654 76.0065 35.807C76.0118 35.8138 76.0186 35.8193 76.0264 35.8231C76.0342 35.8269 76.0427 35.8289 76.0514 35.8289C76.06 35.8289 76.0686 35.8269 76.0763 35.8231C76.0841 35.8193 76.0909 35.8138 76.0962 35.807C77.3255 34.2442 77.9799 33.3724 78.9692 32.2227C79.7171 31.3535 80.396 30.5386 81.0058 29.7781C82.7013 27.6606 84.4195 25.7137 86.0669 23.6923C86.4144 23.2665 86.7707 22.7725 87.1888 22.2823C89.0048 20.1506 90.886 17.8861 92.8324 15.4891C93.801 14.2964 94.6239 13.3046 95.3011 12.5138C96.0305 11.6622 96.8542 10.6747 97.7723 9.5511C97.8166 9.49734 97.8721 9.45405 97.9348 9.42434C97.9975 9.39464 98.0658 9.37925 98.1349 9.37928H104.937C104.955 9.37938 104.974 9.38454 104.989 9.39419C105.005 9.40383 105.018 9.41761 105.026 9.43401C105.035 9.45041 105.039 9.46882 105.037 9.48723C105.036 9.50565 105.03 9.52337 105.019 9.53847C104.516 10.2447 103.852 10.9459 103.312 11.6269C102.481 12.6767 102.05 13.2491 101.373 14.0311C99.5196 16.17 97.7344 18.477 96.0566 20.4871C95.59 21.0463 94.1788 22.7485 91.823 25.5937C91.3934 26.1125 91.1635 26.3896 91.1332 26.425C90.648 26.9977 90.1785 27.5528 89.7245 28.0902C88.3158 29.7591 86.8212 31.701 85.597 33.1804C84.8625 34.0673 84.1116 34.9938 83.3443 35.9599C83.0697 36.306 82.3075 37.222 81.0576 38.7077C80.0203 39.9421 78.8833 41.467 77.7146 42.762C77.227 43.3027 76.7052 43.9369 76.1493 44.6646C76.1361 44.6819 76.1192 44.696 76.0999 44.7059C76.0805 44.7158 76.0592 44.7211 76.0376 44.7216C76.016 44.7221 75.9945 44.7177 75.9749 44.7087C75.9553 44.6997 75.9381 44.6864 75.9244 44.6697C74.7874 43.2968 73.7303 42.0313 72.7533 40.8732C72.3717 40.4222 71.922 39.9939 71.5922 39.5656C71.1147 38.944 70.5575 38.3793 70.1052 37.7766C69.8803 37.4772 69.4697 36.9402 69.1564 36.6029C68.0067 35.3631 67.0048 34.1595 66.1508 32.9921Z" fill="#8AA891"/>
<path d="M58.9557 28.6789L59.0707 28.5854C59.0769 28.5802 59.0841 28.5765 59.0918 28.5743C59.0996 28.5722 59.1077 28.5718 59.1156 28.5731C59.1235 28.5745 59.1311 28.5775 59.1377 28.582C59.1444 28.5865 59.1499 28.5924 59.1541 28.5993L61.8161 33.0048L75.9977 56.1085C76.0038 56.1186 76.0123 56.127 76.0224 56.1332C76.0325 56.1393 76.0439 56.1429 76.0557 56.1436C76.0675 56.1443 76.0793 56.1422 76.0901 56.1374C76.1009 56.1326 76.1104 56.1253 76.1177 56.1161C76.2516 55.9493 76.3775 55.7648 76.4955 55.5627C77.2804 54.2117 77.9496 53.0991 78.503 52.2248C79.1254 51.2419 79.5238 50.6005 79.6982 50.3006C80.2667 49.3211 80.5598 48.8322 80.5775 48.8338C80.5867 48.8338 83.5781 43.9555 89.5514 34.1987C89.7047 33.9485 89.8681 33.6819 90.0416 33.3989C90.125 33.2633 90.2808 33.0288 90.509 32.6952C90.7415 32.3529 90.8817 32.0168 91.1395 31.6125C91.6339 30.8334 92.1232 30.048 92.6075 29.2563C92.7634 29.0002 92.8821 28.7812 92.9638 28.5993C92.9674 28.591 92.9732 28.5839 92.9805 28.5787C92.9879 28.5735 92.9965 28.5704 93.0055 28.5697C93.0145 28.5691 93.0235 28.5709 93.0315 28.575C93.0395 28.5791 93.0463 28.5853 93.051 28.593L142.647 107.689C142.654 107.701 142.658 107.714 142.659 107.728C142.659 107.742 142.656 107.756 142.649 107.768C142.642 107.78 142.632 107.79 142.62 107.797C142.608 107.804 142.594 107.808 142.58 107.808H9.49128C9.47836 107.808 9.46571 107.804 9.4546 107.798C9.4435 107.791 9.43435 107.782 9.42806 107.77C9.42178 107.759 9.41859 107.746 9.41882 107.733C9.41905 107.72 9.42269 107.708 9.42937 107.697C10.5934 105.813 11.7081 104.035 12.7736 102.363C13.615 101.042 14.1776 100.149 14.4615 99.6842C15.2094 98.4588 16.0243 97.2143 16.7002 96.1076C17.8996 94.1451 19.0211 92.3515 20.0646 90.7268C20.2044 90.5095 22.2061 87.327 26.0696 81.1793C30.9201 73.4642 35.8011 65.6897 40.7123 57.8558C41.7264 56.2386 42.5379 54.9403 43.1469 53.9607C44.8845 51.1669 46.6347 48.3811 48.3975 45.6033C49.5944 43.7167 50.7403 41.8919 51.8352 40.1291C52.9757 38.2929 54.1152 36.4639 55.254 34.6421C56.4955 32.6561 57.7294 30.6683 58.9557 28.6789ZM58.9797 37.2157C58.6403 37.7867 58.3333 38.2723 58.0587 38.6724C57.8073 39.0375 57.5862 39.5302 57.3184 39.9395C57.2173 40.0937 57.0518 40.3556 56.8219 40.7254C55.307 43.1536 53.7708 45.5073 52.4164 47.7448C51.3918 49.439 50.654 50.5799 49.3969 52.6038C48.3445 54.2968 46.8448 56.5595 45.757 58.3636C44.836 59.8911 44.0502 61.0648 43.2353 62.4103C43.002 62.7961 42.7308 63.2227 42.4217 63.6901C42.1475 64.1058 41.9732 64.4848 41.7218 64.8512C41.4927 65.1847 41.3175 65.4483 41.1962 65.6421C37.283 71.8866 35.0388 75.4574 34.4635 76.3544C33.2456 78.2545 32.5815 79.3069 32.4712 79.5116C32.1452 80.1105 31.7447 80.6322 31.4049 81.2248C31.2373 81.5162 30.9711 81.9449 30.6064 82.5109C29.1796 84.7252 27.8012 86.9256 26.4713 89.1122C26.462 89.1271 26.457 89.1443 26.4566 89.1619C26.4563 89.1796 26.4606 89.1969 26.4693 89.2123C26.4779 89.2276 26.4905 89.2404 26.5058 89.2492C26.521 89.2581 26.5383 89.2626 26.556 89.2625H55.5471C55.5977 89.2625 55.6475 89.2496 55.6917 89.225C55.736 89.2005 55.7731 89.1651 55.7998 89.1223C56.2268 88.4434 57.0674 87.081 58.3215 85.0352C58.9898 83.9449 59.7214 82.8394 60.5944 81.408C61.3019 80.2498 61.9218 79.2265 62.4541 78.3379C63.2867 76.9457 64.4085 75.254 65.207 73.7998C65.2992 73.6305 65.4951 73.4208 65.5734 73.2843C66.0611 72.4404 66.7319 71.348 67.586 70.0071C67.9928 69.3678 68.3453 68.654 68.742 68.0817C68.9913 67.7212 69.2853 67.244 69.6238 66.6502C70.1355 65.7532 70.8367 64.7274 71.4052 63.7356C71.8613 62.9397 72.3717 62.2094 72.7975 61.4286C73.0022 61.0534 73.1891 60.8336 73.3521 60.4849C73.3606 60.4672 73.3643 60.4476 73.363 60.4281C73.3616 60.4086 73.3553 60.3899 73.3445 60.3737C72.6783 59.3512 71.8824 58.1038 70.9567 56.6315C70.1545 55.3542 69.3497 53.9114 68.4388 52.5381C68.1141 52.0479 67.7149 51.3025 67.4912 50.9614C66.7888 49.885 66.2758 48.9551 65.5266 47.7878C64.9312 46.8621 64.5147 46.1971 64.2772 45.7929C64.0818 45.461 62.3404 42.6019 59.053 37.2157C59.0492 37.2094 59.0438 37.2042 59.0374 37.2006C59.031 37.197 59.0237 37.1951 59.0164 37.1951C59.009 37.1951 59.0018 37.197 58.9954 37.2006C58.989 37.2042 58.9836 37.2094 58.9797 37.2157ZM93.0396 37.2359L90.7794 40.877C90.7631 40.9036 90.7545 40.9342 90.7545 40.9654C90.7545 40.9966 90.7631 41.0272 90.7794 41.0539C92.0453 43.0963 93.2156 44.9704 94.2904 46.676C96.6681 50.4468 97.8835 52.3735 97.9365 52.456C98.5265 53.3859 99.3061 54.715 99.9984 55.7749C101.339 57.8292 102.924 60.38 103.877 61.9428C104.818 63.4867 105.509 64.5227 106.387 65.9238C109.207 70.4299 111.652 74.3351 113.721 77.6393C114.035 78.1396 114.305 78.4617 114.544 78.9027C114.715 79.2193 114.912 79.5407 115.134 79.8666C115.227 80.0031 115.949 81.1502 117.299 83.3081C118.364 85.0095 119.026 86.0606 119.285 86.4615C119.612 86.9652 119.839 87.327 119.966 87.5468C120.577 88.6055 121.068 89.284 121.671 90.2846C122.94 92.3995 124.565 94.8935 125.917 97.0968C127.08 98.9944 128.348 101.034 129.721 103.214C129.736 103.237 129.756 103.257 129.781 103.27C129.805 103.283 129.832 103.29 129.86 103.29C131.516 103.283 132.658 103.269 133.288 103.247C133.569 103.238 133.908 103.253 134.305 103.294C134.316 103.295 134.328 103.293 134.339 103.289C134.35 103.285 134.36 103.278 134.368 103.27C134.376 103.261 134.381 103.251 134.385 103.239C134.388 103.228 134.389 103.216 134.387 103.204C134.377 103.155 134.355 103.103 134.32 103.049C133.472 101.735 132.903 100.812 132.61 100.279C132.103 99.3558 131.538 98.6078 130.851 97.4847C129.23 94.8353 127.893 92.656 126.622 90.7495C126.027 89.8576 125.432 88.766 124.801 87.8083C124.476 87.3148 124.257 86.9661 124.144 86.7622C123.681 85.9297 122.867 84.8078 122.438 84.1053C121.284 82.2178 119.926 80.1484 118.91 78.4933C118.038 77.0707 117.398 76.0272 116.989 75.3626C116.644 74.805 116.391 74.4067 116.231 74.1675C115.546 73.1454 114.982 72.1384 114.349 71.1719C113.298 69.5674 112.102 67.527 111.024 65.8518C109.67 63.7482 109.188 63.0193 107.608 60.404C107.175 59.6881 106.475 58.5864 105.507 57.099C104.61 55.721 101.891 51.3661 97.3516 44.0342C96.4243 42.5371 95.3276 40.8858 94.4786 39.4266C93.9872 38.5801 93.5286 37.9333 93.0826 37.2359C93.0803 37.2322 93.0771 37.2292 93.0734 37.2271C93.0696 37.225 93.0654 37.2239 93.0611 37.2239C93.0568 37.2239 93.0526 37.225 93.0488 37.2271C93.045 37.2292 93.0419 37.2322 93.0396 37.2359ZM109.796 79.2829C109.791 79.2751 109.784 79.269 109.775 79.2654C109.767 79.2618 109.757 79.2609 109.748 79.2628C109.739 79.2648 109.731 79.2694 109.724 79.2762C109.718 79.2829 109.714 79.2915 109.713 79.3006C109.655 79.7117 109.629 80.1269 109.634 80.5463C109.678 83.7722 109.681 86.9728 109.642 90.1481C109.636 90.6072 109.649 91.6196 109.682 93.1853C109.683 93.1901 109.682 93.1948 109.68 93.1993C109.678 93.2037 109.676 93.2078 109.672 93.2112C109.669 93.2146 109.665 93.2173 109.661 93.2192C109.656 93.221 109.652 93.222 109.647 93.222H97.9858C97.9573 93.222 97.93 93.2105 97.9099 93.1902C97.8897 93.1698 97.8784 93.1421 97.8784 93.1133V77.6456C97.8784 77.6228 97.8875 77.6009 97.9036 77.5848C97.9197 77.5687 97.9416 77.5597 97.9643 77.5597H108.434C108.459 77.5597 108.483 77.553 108.505 77.5404C108.526 77.5277 108.544 77.5095 108.556 77.4877C108.568 77.4659 108.574 77.4412 108.573 77.4163C108.572 77.3914 108.565 77.3672 108.552 77.3462L88.3133 45.0689C88.3092 45.0623 88.3036 45.0567 88.2969 45.0528C88.2902 45.0489 88.2826 45.0467 88.2748 45.0464C88.267 45.0462 88.2593 45.0479 88.2523 45.0514C88.2454 45.0548 88.2394 45.06 88.2349 45.0664C87.9393 45.4926 87.6866 45.8948 87.4769 46.2729C87.2924 46.6048 87.0456 47.0091 86.7365 47.4858C85.7662 48.9829 84.5092 51.0776 83.3329 52.9841C82.6785 54.0437 82.3496 54.5764 82.3462 54.5823C82.0742 55.0666 81.5827 55.8676 80.8719 56.9853C80.3008 57.8831 79.48 59.2291 78.4095 61.0231C77.5706 62.4292 76.2478 64.5214 75.4885 65.7873C74.8227 66.8966 74.1872 67.853 73.4027 69.1783C71.4305 72.5086 68.8608 76.5881 66.7724 80.0195C63.2382 85.8277 60.9367 89.5998 59.8679 91.3357C59.1722 92.4669 58.6715 93.27 58.3657 93.745C57.2047 95.5517 56.247 97.2674 54.9849 99.2977C54.3953 100.246 53.7598 101.287 53.0784 102.42C52.8451 102.807 52.7061 103.059 52.6615 103.175C52.6572 103.187 52.6558 103.199 52.6574 103.211C52.659 103.224 52.6635 103.235 52.6706 103.246C52.6776 103.256 52.687 103.264 52.698 103.27C52.709 103.276 52.7211 103.279 52.7335 103.279H75.4405C75.467 103.279 75.4924 103.268 75.5111 103.249C75.5298 103.23 75.5403 103.204 75.5403 103.178V77.5925C75.5403 77.5808 75.545 77.5695 75.5533 77.5613C75.5616 77.553 75.5728 77.5483 75.5846 77.5483H95.075C95.0813 77.5483 95.0875 77.5495 95.0933 77.552C95.0991 77.5544 95.1044 77.5579 95.1089 77.5624C95.1134 77.5668 95.1169 77.5721 95.1193 77.5779C95.1217 77.5838 95.123 77.59 95.123 77.5963V103.195C95.123 103.217 95.1316 103.238 95.147 103.253C95.1624 103.269 95.1833 103.277 95.2051 103.277H124.69C124.705 103.277 124.72 103.273 124.733 103.266C124.745 103.258 124.756 103.247 124.763 103.234C124.77 103.221 124.774 103.207 124.774 103.192C124.773 103.177 124.769 103.162 124.761 103.15L109.796 79.2829ZM91.31 81.4812C91.31 81.4725 91.3066 81.4642 91.3004 81.458C91.2942 81.4519 91.2859 81.4484 91.2772 81.4484H79.4114C79.4027 81.4484 79.3943 81.4519 79.3881 81.458C79.382 81.4642 79.3785 81.4725 79.3785 81.4812V103.247C79.3785 103.256 79.382 103.264 79.3881 103.27C79.3943 103.276 79.4027 103.28 79.4114 103.28H91.2772C91.2859 103.28 91.2942 103.276 91.3004 103.27C91.3066 103.264 91.31 103.256 91.31 103.247V81.4812ZM101.497 89.2676C101.497 89.2725 101.498 89.2775 101.5 89.2821C101.502 89.2867 101.504 89.2908 101.508 89.2944C101.511 89.2979 101.516 89.3007 101.52 89.3026C101.525 89.3045 101.53 89.3054 101.535 89.3054H105.839C105.849 89.3054 105.859 89.3015 105.866 89.2944C105.873 89.2873 105.877 89.2776 105.877 89.2676V81.4674C105.877 81.4573 105.873 81.4477 105.866 81.4405C105.859 81.4334 105.849 81.4294 105.839 81.4294H101.535C101.53 81.4294 101.525 81.4304 101.52 81.4323C101.516 81.4342 101.511 81.437 101.508 81.4405C101.504 81.4441 101.502 81.4482 101.5 81.4528C101.498 81.4574 101.497 81.4624 101.497 81.4674V89.2676ZM17.6654 103.135C17.6564 103.149 17.6513 103.166 17.6509 103.183C17.6504 103.2 17.6545 103.216 17.6628 103.231C17.6711 103.246 17.6832 103.258 17.6979 103.267C17.7126 103.276 17.7293 103.28 17.7463 103.28H47.1253C47.1414 103.28 47.1573 103.276 47.1715 103.268C47.1856 103.261 47.1976 103.249 47.2062 103.236L53.3273 93.3711C53.3364 93.3567 53.3414 93.3401 53.3419 93.3231C53.3423 93.3061 53.3382 93.2893 53.3299 93.2744C53.3217 93.2596 53.3096 93.2472 53.2949 93.2387C53.2802 93.2301 53.2635 93.2256 53.2465 93.2258H23.8675C23.8513 93.2256 23.8354 93.2296 23.8213 93.2374C23.8071 93.2451 23.7952 93.2563 23.7866 93.27L17.6654 103.135Z" fill="#38494F"/>
<path d="M50.3053 64.956H44.7185C44.7041 64.956 44.6898 64.9522 44.6773 64.9449C44.6648 64.9377 44.6544 64.9272 44.6472 64.9147C44.64 64.9021 44.6363 64.8879 44.6364 64.8734C44.6365 64.8589 44.6404 64.8447 44.6478 64.8322L47.3957 60.1981C47.4029 60.1858 47.4133 60.1756 47.4257 60.1685C47.4381 60.1614 47.4521 60.1577 47.4664 60.1577H53.0544C53.0689 60.1577 53.0831 60.1615 53.0956 60.1688C53.1082 60.176 53.1185 60.1865 53.1257 60.199C53.1329 60.2116 53.1366 60.2259 53.1365 60.2403C53.1364 60.2548 53.1325 60.269 53.1252 60.2815L50.376 64.9156C50.3688 64.9279 50.3584 64.9381 50.346 64.9452C50.3336 64.9523 50.3196 64.956 50.3053 64.956Z" fill="#8AA891"/>
<path d="M55.8301 60.1539H61.5091C61.5247 60.1539 61.5401 60.158 61.5536 60.1659C61.5671 60.1738 61.5783 60.1851 61.586 60.1988C61.5937 60.2124 61.5976 60.2278 61.5974 60.2434C61.5972 60.2591 61.5929 60.2744 61.5849 60.2878L58.8483 64.9017C58.8405 64.9148 58.8294 64.9256 58.8161 64.9332C58.8028 64.9407 58.7878 64.9447 58.7725 64.9447H53.0948C53.0792 64.9447 53.0638 64.9405 53.0503 64.9326C53.0368 64.9247 53.0256 64.9134 53.0179 64.8998C53.0102 64.8862 53.0063 64.8708 53.0064 64.8551C53.0066 64.8395 53.011 64.8242 53.019 64.8108L55.7543 60.1968C55.7621 60.1837 55.7733 60.1729 55.7865 60.1654C55.7998 60.1578 55.8148 60.1539 55.8301 60.1539Z" fill="#8AA891"/>
<path d="M67.0377 64.9598H61.6152C61.5929 64.9598 61.571 64.9539 61.5517 64.9427C61.5324 64.9315 61.5165 64.9154 61.5054 64.896C61.4944 64.8766 61.4887 64.8547 61.4889 64.8324C61.4891 64.8101 61.4952 64.7882 61.5065 64.7691L64.2001 60.2246C64.2113 60.2058 64.2272 60.1901 64.2462 60.1793C64.2653 60.1684 64.2868 60.1627 64.3087 60.1627H69.8576C69.8801 60.1627 69.9023 60.1687 69.9218 60.1801C69.9412 60.1915 69.9573 60.208 69.9683 60.2277C69.9792 60.2474 69.9847 60.2697 69.9841 60.2923C69.9835 60.3149 69.9769 60.3369 69.965 60.356L67.1451 64.9004C67.1337 64.9187 67.1178 64.9337 67.0991 64.9441C67.0803 64.9544 67.0591 64.9599 67.0377 64.9598Z" fill="#8AA891"/>
<path d="M46.2599 71.8479H40.5279C40.52 71.8479 40.5124 71.8458 40.5056 71.8418C40.4988 71.8379 40.4932 71.8322 40.4894 71.8254C40.4855 71.8186 40.4836 71.8109 40.4837 71.8031C40.4838 71.7953 40.4859 71.7876 40.4899 71.7809L43.2871 67.0634C43.291 67.0568 43.2966 67.0514 43.3032 67.0476C43.3099 67.0439 43.3174 67.0419 43.325 67.0419H49.057C49.0649 67.0419 49.0725 67.044 49.0793 67.0479C49.0861 67.0519 49.0916 67.0575 49.0955 67.0643C49.0994 67.0711 49.1013 67.0789 49.1012 67.0867C49.1011 67.0945 49.099 67.1022 49.0949 67.1089L46.2978 71.8264C46.2939 71.8329 46.2883 71.8383 46.2817 71.8421C46.275 71.8459 46.2675 71.8479 46.2599 71.8479Z" fill="#8AA891"/>
<path d="M54.6476 71.8517H49.0115C48.9941 71.8517 48.977 71.847 48.9619 71.8383C48.9469 71.8295 48.9344 71.8169 48.9258 71.8018C48.9172 71.7866 48.9128 71.7695 48.913 71.752C48.9132 71.7346 48.918 71.7175 48.9269 71.7026L51.6546 67.1013C51.6633 67.0866 51.6757 67.0745 51.6906 67.0661C51.7054 67.0577 51.7222 67.0533 51.7392 67.0533H57.3752C57.3927 67.0533 57.4098 67.0579 57.4248 67.0666C57.4399 67.0754 57.4524 67.088 57.461 67.1032C57.4696 67.1183 57.474 67.1355 57.4738 67.1529C57.4736 67.1703 57.4688 67.1874 57.4599 67.2024L54.7322 71.8036C54.7234 71.8183 54.7111 71.8304 54.6962 71.8388C54.6814 71.8472 54.6646 71.8517 54.6476 71.8517Z" fill="#8AA891"/>
<path d="M57.3803 71.8567C57.3667 71.8566 57.3534 71.8531 57.3415 71.8466C57.3296 71.84 57.3195 71.8306 57.3121 71.8193C57.3047 71.8079 57.3003 71.7948 57.2992 71.7813C57.298 71.7678 57.3003 71.7542 57.3057 71.7417C57.5104 71.2852 57.7568 70.8397 58.0448 70.4051C58.7915 69.2781 59.0656 68.6957 59.9323 67.1657C59.943 67.1466 59.9577 67.13 59.9753 67.117C59.993 67.1039 60.0132 67.0947 60.0347 67.0899C60.204 67.0545 60.3539 67.0377 60.4844 67.0394C62.4486 67.063 64.2325 67.0726 65.8362 67.0684C65.8411 67.0684 65.8458 67.0697 65.8501 67.0722C65.8543 67.0746 65.8578 67.0781 65.8602 67.0824C65.8626 67.0866 65.8639 67.0914 65.8639 67.0962C65.8639 67.1011 65.8626 67.1059 65.8602 67.1101L63.1249 71.7215C63.1002 71.7628 63.0652 71.7969 63.0234 71.8206C62.9815 71.8443 62.9342 71.8567 62.8862 71.8567H57.3803Z" fill="#8AA891"/>
<path d="M47.6395 73.8832H53.2389C53.2592 73.8831 53.2791 73.8883 53.2967 73.8985C53.3143 73.9086 53.3289 73.9231 53.3391 73.9407C53.3492 73.9583 53.3545 73.9783 53.3545 73.9986C53.3544 74.0189 53.3489 74.0388 53.3387 74.0563L50.611 78.6538C50.6009 78.671 50.5865 78.6853 50.5693 78.6952C50.552 78.7052 50.5324 78.7105 50.5125 78.7106H44.9144C44.8941 78.7107 44.8741 78.7055 44.8565 78.6954C44.8389 78.6852 44.8243 78.6707 44.8142 78.6531C44.804 78.6355 44.7987 78.6156 44.7988 78.5953C44.7988 78.575 44.8043 78.555 44.8145 78.5375L47.541 73.94C47.551 73.9228 47.5654 73.9085 47.5827 73.8986C47.6 73.8886 47.6196 73.8833 47.6395 73.8832Z" fill="#8AA891"/>
<path d="M44.975 74.0158C44.3602 75.0847 43.6227 76.3089 42.7628 77.6885C42.5783 77.9842 42.4217 78.3758 42.2511 78.6588C42.2376 78.6812 42.2185 78.6998 42.1957 78.7126C42.1729 78.7254 42.1472 78.7322 42.121 78.7321H36.5848C36.5626 78.7323 36.5408 78.7268 36.5212 78.7163C36.5017 78.7057 36.4852 78.6904 36.4733 78.6717C36.4613 78.653 36.4542 78.6316 36.4527 78.6095C36.4512 78.5874 36.4554 78.5652 36.4648 78.5451C36.7116 78.0036 36.9988 77.4687 37.3264 76.9406C37.8511 76.095 38.4374 75.11 39.0851 73.9855C39.1007 73.9579 39.1236 73.935 39.1513 73.919C39.1791 73.903 39.2107 73.8946 39.243 73.8946H44.9043C44.9185 73.8944 44.9325 73.8981 44.9449 73.9051C44.9573 73.9122 44.9676 73.9224 44.9748 73.9347C44.982 73.947 44.9858 73.961 44.9858 73.9752C44.9859 73.9895 44.9821 74.0035 44.975 74.0158Z" fill="#8AA891"/>
<path d="M56.0828 73.8895H61.624C61.6506 73.8896 61.6767 73.8966 61.6996 73.91C61.7225 73.9234 61.7415 73.9426 61.7546 73.9657C61.7677 73.9888 61.7744 74.015 61.7741 74.0416C61.7738 74.0681 61.7665 74.0941 61.7529 74.1169L59.072 78.6386C59.0585 78.6611 59.0395 78.6797 59.0166 78.6925C58.9938 78.7054 58.968 78.7121 58.9418 78.7119H53.4006C53.374 78.7118 53.348 78.7048 53.325 78.6914C53.3021 78.678 53.2831 78.6588 53.27 78.6357C53.2569 78.6126 53.2502 78.5864 53.2505 78.5598C53.2508 78.5333 53.2581 78.5073 53.2717 78.4845L55.9526 73.9628C55.9661 73.9403 55.9851 73.9217 56.008 73.9089C56.0308 73.896 56.0566 73.8893 56.0828 73.8895Z" fill="#8AA891"/>
<path d="M37.9707 85.6732H32.3663C32.3453 85.6732 32.3247 85.6677 32.3065 85.6572C32.2884 85.6467 32.2733 85.6315 32.2629 85.6133C32.2525 85.595 32.2471 85.5744 32.2473 85.5534C32.2475 85.5324 32.2533 85.5119 32.264 85.4938L35.0333 80.8255C35.0439 80.8078 35.0589 80.7931 35.0768 80.7829C35.0948 80.7727 35.115 80.7674 35.1357 80.7674H40.7401C40.7611 80.7674 40.7817 80.7729 40.7999 80.7834C40.818 80.794 40.8331 80.8091 40.8435 80.8274C40.8539 80.8456 40.8593 80.8662 40.8591 80.8872C40.8589 80.9082 40.8532 80.9288 40.8424 80.9468L38.0731 85.6151C38.0625 85.6328 38.0476 85.6475 38.0296 85.6577C38.0117 85.6679 37.9914 85.6732 37.9707 85.6732Z" fill="#8AA891"/>
<path d="M46.2978 85.6643H40.8525C40.8308 85.6642 40.8095 85.6584 40.7907 85.6476C40.7719 85.6367 40.7563 85.6212 40.7453 85.6024C40.7344 85.5837 40.7285 85.5624 40.7282 85.5407C40.728 85.519 40.7334 85.4976 40.7439 85.4786L43.3389 80.8458C43.3497 80.8263 43.3654 80.8101 43.3845 80.7988C43.4036 80.7875 43.4254 80.7815 43.4476 80.7813H49.0444C49.0664 80.7814 49.0879 80.7873 49.1069 80.7984C49.1259 80.8095 49.1416 80.8253 49.1525 80.8444C49.1634 80.8635 49.169 80.8851 49.1689 80.9071C49.1688 80.9291 49.1629 80.9506 49.1518 80.9696L46.4052 85.6024C46.3942 85.6212 46.3785 85.6368 46.3597 85.6476C46.3408 85.6585 46.3195 85.6643 46.2978 85.6643Z" fill="#8AA891"/>
<path d="M51.9565 80.7649H57.5079C57.5303 80.7647 57.5524 80.7704 57.5718 80.7816C57.5913 80.7927 57.6074 80.8088 57.6186 80.8282C57.6298 80.8476 57.6356 80.8696 57.6355 80.892C57.6353 80.9144 57.6292 80.9364 57.6178 80.9557L54.8636 85.6012C54.8524 85.6201 54.8365 85.6357 54.8175 85.6465C54.7984 85.6574 54.7769 85.6631 54.7549 85.6631H49.2023C49.18 85.6631 49.1581 85.6572 49.1388 85.646C49.1196 85.6348 49.1036 85.6187 49.0926 85.5993C49.0815 85.5799 49.0758 85.5579 49.076 85.5356C49.0762 85.5133 49.0823 85.4915 49.0937 85.4723L51.8479 80.8268C51.8591 80.808 51.8749 80.7923 51.894 80.7815C51.913 80.7706 51.9346 80.7649 51.9565 80.7649Z" fill="#8AA891"/>
<path d="M89.4948 90.5327L87.5037 90.5292C87.4381 90.5291 87.3849 90.5822 87.3847 90.6478L87.377 95.0873C87.3769 95.1529 87.43 95.2062 87.4955 95.2063L89.4867 95.2098C89.5522 95.2099 89.6055 95.1568 89.6056 95.0912L89.6134 90.6517C89.6135 90.5861 89.5604 90.5328 89.4948 90.5327Z" fill="#38494F"/>
<path d="M12.5917 131.088C12.6003 131.1 12.6056 131.114 12.6069 131.129C12.6082 131.143 12.6055 131.158 12.5991 131.171C12.5927 131.184 12.5828 131.195 12.5706 131.203C12.5583 131.211 12.5442 131.215 12.5297 131.215H8.97329C8.94542 131.215 8.91789 131.208 8.89289 131.196C8.8679 131.183 8.84611 131.165 8.82926 131.143L5.67961 127.03C5.66711 127.014 5.65147 127.001 5.63365 126.991C5.61582 126.982 5.59619 126.976 5.57596 126.974C5.55572 126.972 5.53532 126.974 5.51599 126.98C5.49666 126.987 5.47883 126.997 5.46357 127.01C5.13593 127.298 4.77839 127.635 4.39095 128.02C4.24693 128.162 4.1467 128.285 4.09026 128.39C4.06955 128.428 4.05869 128.471 4.05868 128.514V131.129C4.05868 131.149 4.05056 131.169 4.0361 131.183C4.02165 131.198 4.00205 131.206 3.98161 131.206H1.12507C1.0919 131.206 1.06009 131.193 1.03663 131.169C1.01318 131.146 1 131.114 1 131.081V116.348C1 116.332 1.00639 116.317 1.01776 116.306C1.02913 116.294 1.04456 116.288 1.06064 116.288H3.95003C3.97717 116.288 4.0032 116.299 4.02239 116.318C4.04158 116.337 4.05236 116.363 4.05236 116.39V124.739C4.05222 124.748 4.05507 124.758 4.0605 124.765C4.06593 124.773 4.0737 124.779 4.08277 124.782C4.09184 124.786 4.10177 124.786 4.11123 124.784C4.1207 124.781 4.12925 124.776 4.13574 124.769C4.72322 124.083 5.34229 123.494 6.31131 122.602C7.0744 121.899 7.69094 121.158 8.3997 120.566C8.55468 120.437 8.82968 120.375 9.2247 120.38C11.0019 120.402 11.9515 120.413 12.0737 120.413C12.0855 120.413 12.0971 120.416 12.107 120.422C12.1169 120.429 12.1245 120.438 12.1289 120.449C12.1333 120.46 12.1342 120.472 12.1316 120.484C12.1289 120.495 12.1228 120.506 12.1141 120.514C11.6706 120.933 11.3333 121.35 10.8494 121.824C9.91452 122.741 8.98971 123.645 8.07501 124.536C7.91077 124.697 7.88213 124.847 7.9891 124.988C8.87263 126.151 10.4068 128.184 12.5917 131.088Z" fill="#38494F"/>
<path d="M21.4531 121.257C21.4665 121.254 21.4784 121.246 21.4869 121.235C21.4953 121.224 21.4999 121.211 21.4999 121.197L21.5213 116.367C21.5217 116.348 21.5297 116.329 21.5436 116.316C21.5575 116.302 21.5763 116.294 21.5959 116.294H24.5168C24.5393 116.294 24.5608 116.303 24.5767 116.319C24.5926 116.334 24.6015 116.355 24.6015 116.377V131.062C24.6015 131.083 24.5973 131.105 24.5891 131.124C24.5809 131.144 24.5689 131.162 24.5538 131.177C24.5386 131.192 24.5207 131.204 24.5009 131.213C24.4811 131.221 24.4599 131.225 24.4385 131.225H21.8637C21.847 131.225 21.8304 131.222 21.8149 131.215C21.7994 131.209 21.7853 131.199 21.7735 131.187C21.7616 131.175 21.7522 131.161 21.7458 131.145C21.7394 131.13 21.7361 131.113 21.7361 131.096V130.29C21.7363 130.273 21.7315 130.257 21.7223 130.243C21.7132 130.229 21.7001 130.219 21.6847 130.212C21.6694 130.206 21.6525 130.204 21.6362 130.207C21.6199 130.211 21.605 130.219 21.5933 130.231C20.9751 130.844 20.2137 131.209 19.3091 131.325C17.9497 131.499 16.5815 131.366 15.5215 130.678C14.5941 130.075 13.826 129.25 13.4255 128.16C12.889 126.701 12.8393 125.262 13.2764 123.842C13.6234 122.711 14.3242 121.795 15.3787 121.094C16.7646 120.171 18.7393 119.997 20.2895 120.521C20.6104 120.631 20.9764 120.869 21.3874 121.235C21.3949 121.242 21.4035 121.247 21.4127 121.249C21.4337 121.255 21.4472 121.258 21.4531 121.257ZM16.1468 125.873C16.1911 127.54 17.1411 128.918 18.939 128.871C20.7368 128.824 21.6148 127.398 21.5719 125.732C21.5276 124.067 20.5763 122.688 18.7785 122.735C16.9807 122.782 16.1039 124.208 16.1468 125.873Z" fill="#38494F"/>
<path d="M80.2591 121.407C80.2894 121.385 80.3644 121.329 80.484 121.239C81.5065 120.474 82.633 120.138 83.8636 120.231C83.9276 120.235 84.2089 120.274 84.7075 120.348C85.7195 120.499 86.7176 121.199 87.2331 121.96C87.9052 122.952 88.0378 124.098 88.0404 125.5C88.0446 128.133 88.0458 130.002 88.0442 131.107C88.0442 131.138 88.032 131.167 88.0105 131.189C87.9889 131.21 87.9597 131.222 87.9292 131.222H85.1169C85.098 131.222 85.0794 131.219 85.0619 131.212C85.0445 131.204 85.0287 131.194 85.0155 131.181C85.0022 131.167 84.9917 131.151 84.9846 131.134C84.9775 131.117 84.9739 131.098 84.9741 131.08C84.9893 129.33 84.9981 127.594 85.0006 125.871C85.0032 124.368 84.5825 122.922 82.7897 122.85C82.1614 122.825 81.5971 123.01 81.0967 123.404C80.3387 124.002 80.1922 125.015 80.1884 125.965C80.1825 127.246 80.1812 128.962 80.1846 131.112C80.1846 131.138 80.1742 131.163 80.1557 131.181C80.1372 131.2 80.1122 131.21 80.086 131.21H77.1954C77.1676 131.21 77.1409 131.199 77.1212 131.179C77.1016 131.159 77.0905 131.132 77.0905 131.104V116.37C77.0905 116.349 77.0988 116.329 77.1135 116.315C77.1281 116.3 77.1481 116.292 77.1688 116.292H80.1025C80.1269 116.292 80.1504 116.301 80.1677 116.319C80.185 116.336 80.1947 116.359 80.1947 116.384V121.374C80.1946 121.382 80.1967 121.389 80.2006 121.396C80.2044 121.402 80.2101 121.407 80.2167 121.411C80.2234 121.414 80.2309 121.415 80.2384 121.415C80.2459 121.414 80.2531 121.412 80.2591 121.407Z" fill="#38494F"/>
<path d="M106.677 117.914V120.452C106.677 120.47 106.684 120.488 106.697 120.501C106.711 120.514 106.729 120.521 106.747 120.521H109.383C109.399 120.521 109.415 120.528 109.427 120.54C109.438 120.552 109.445 120.568 109.445 120.585V122.807C109.445 122.827 109.437 122.846 109.422 122.861C109.408 122.875 109.388 122.883 109.368 122.883H106.811C106.793 122.883 106.776 122.886 106.76 122.893C106.744 122.9 106.729 122.909 106.717 122.922C106.705 122.934 106.695 122.949 106.689 122.965C106.682 122.981 106.679 122.998 106.679 123.015C106.684 123.509 106.675 124.798 106.651 126.883C106.643 127.754 106.753 128.794 107.835 128.952C108.362 129.03 108.825 128.921 109.226 128.627C109.247 128.612 109.271 128.602 109.296 128.598C109.321 128.594 109.347 128.596 109.371 128.604C109.396 128.612 109.418 128.625 109.436 128.643C109.454 128.661 109.468 128.683 109.476 128.707L110.123 130.649C110.13 130.668 110.131 130.689 110.126 130.708C110.121 130.728 110.111 130.745 110.097 130.759C109.975 130.874 109.824 130.965 109.644 131.03C108.352 131.504 107.076 131.534 105.814 131.121C104.72 130.763 104.093 129.892 103.756 128.783C103.659 128.464 103.61 127.931 103.609 127.186C103.607 125.495 103.617 124.106 103.641 123.018C103.641 123.002 103.638 122.987 103.632 122.972C103.627 122.958 103.618 122.944 103.607 122.933C103.596 122.922 103.583 122.913 103.568 122.907C103.553 122.901 103.538 122.898 103.522 122.898H102.068C102.037 122.898 102.007 122.885 101.985 122.863C101.963 122.841 101.95 122.812 101.95 122.78V120.576C101.95 120.557 101.958 120.538 101.971 120.525C101.985 120.511 102.003 120.504 102.022 120.504H103.519C103.554 120.504 103.586 120.49 103.611 120.466C103.635 120.442 103.648 120.41 103.648 120.376V117.968C103.648 117.934 103.662 117.9 103.686 117.876C103.711 117.852 103.744 117.838 103.778 117.838H106.601C106.621 117.838 106.64 117.846 106.654 117.86C106.669 117.874 106.677 117.894 106.677 117.914Z" fill="#38494F"/>
<path d="M42.5998 121.485C43.3823 120.722 44.3336 120.31 45.4538 120.247C46.7223 120.178 47.9693 120.391 48.8953 121.191C50.0728 122.207 50.4556 123.714 50.4581 125.215C50.4581 125.461 50.443 127.431 50.4127 131.124C50.4127 131.144 50.4044 131.164 50.3897 131.178C50.375 131.193 50.3551 131.201 50.3343 131.201H47.498C47.4632 131.201 47.4297 131.187 47.4051 131.162C47.3805 131.138 47.3666 131.104 47.3666 131.07C47.37 127.875 47.3679 126.047 47.3603 125.586C47.3514 125.148 47.2617 124.488 47.0684 124.077C46.7913 123.484 46.3037 123.118 45.6054 122.979C44.5501 122.769 43.7234 123.061 43.1254 123.856C42.7472 124.358 42.5556 124.967 42.5505 125.681C42.5497 125.721 42.543 127.528 42.5303 131.104C42.53 131.131 42.5191 131.156 42.4999 131.175C42.4808 131.194 42.4549 131.205 42.428 131.205H39.5904C39.5653 131.205 39.5412 131.195 39.5234 131.177C39.5056 131.159 39.4957 131.135 39.4957 131.11V120.524C39.4957 120.501 39.5048 120.479 39.5212 120.462C39.5375 120.446 39.5597 120.437 39.5828 120.437H42.3964C42.4215 120.437 42.4456 120.447 42.4634 120.465C42.4812 120.482 42.4912 120.506 42.4912 120.532V121.44C42.4914 121.452 42.4953 121.464 42.5023 121.475C42.5093 121.485 42.5192 121.493 42.5307 121.498C42.5422 121.503 42.5549 121.504 42.5671 121.502C42.5794 121.5 42.5908 121.494 42.5998 121.485Z" fill="#38494F"/>
<path d="M59.3865 124.792C59.4049 124.792 59.4232 124.789 59.4403 124.782C59.4574 124.775 59.473 124.765 59.486 124.752C59.499 124.739 59.5092 124.724 59.516 124.707C59.5228 124.689 59.526 124.671 59.5255 124.653C59.4965 123.415 58.6753 122.727 57.4889 122.691C56.2672 122.654 55.1276 122.889 54.0778 123.516C54.0613 123.526 54.043 123.532 54.024 123.535C54.005 123.538 53.9856 123.537 53.967 123.532C53.9484 123.527 53.931 123.519 53.9157 123.507C53.9004 123.495 53.8877 123.481 53.8781 123.464L52.9723 121.895C52.9361 121.833 52.9241 121.759 52.9385 121.689C52.953 121.618 52.9928 121.555 53.0506 121.512C53.6747 121.044 54.5819 120.629 55.3967 120.454C56.6997 120.175 57.9362 120.155 59.1061 120.396C60.4141 120.665 61.4147 121.361 62.1079 122.485C62.2856 122.774 62.4195 123.235 62.5097 123.869C62.5905 124.448 62.6263 125.343 62.617 126.555C62.6019 128.5 62.596 130.005 62.5994 131.071C62.5994 131.106 62.5855 131.14 62.5609 131.165C62.5362 131.189 62.5028 131.203 62.468 131.203H59.8831C59.8681 131.203 59.8532 131.2 59.8394 131.195C59.8256 131.189 59.8131 131.18 59.8026 131.17C59.7922 131.159 59.7839 131.146 59.7784 131.132C59.7729 131.118 59.7703 131.103 59.7706 131.088C59.7765 130.658 59.7769 130.376 59.7719 130.242C59.7694 130.186 59.7407 130.155 59.686 130.151C59.6733 130.15 59.6535 130.165 59.6266 130.194C58.4921 131.402 56.7524 131.648 55.1479 131.273C54.4951 131.12 53.9582 130.858 53.537 130.488C52.2875 129.39 52.0361 127.591 53.0683 126.251C53.5762 125.59 54.5541 125.113 55.3386 124.927C55.7294 124.835 56.2344 124.779 56.8534 124.758C57.3335 124.741 58.1779 124.752 59.3865 124.792ZM59.4257 126.655C58.4234 126.574 57.5142 126.56 56.698 126.612C56.1144 126.649 55.7303 126.922 55.5458 127.43C55.3479 127.973 55.4191 128.424 55.7593 128.783C56.386 129.444 57.6443 129.34 58.4504 128.979C58.8024 128.82 59.093 128.523 59.3221 128.085C59.5192 127.71 59.5331 127.193 59.5217 126.755C59.5212 126.73 59.511 126.705 59.4932 126.687C59.4755 126.668 59.4514 126.657 59.4257 126.655Z" fill="#38494F"/>
<path d="M71.4065 128.761C72.0205 128.722 72.7015 128.029 73.035 127.545C73.056 127.514 73.0874 127.493 73.1232 127.484C73.159 127.475 73.1969 127.48 73.2296 127.497L75.1942 128.523C75.2442 128.549 75.2832 128.592 75.3041 128.644C75.3249 128.697 75.3263 128.755 75.3079 128.808C75.2464 128.985 75.1108 129.212 74.901 129.49C74.3085 130.276 73.3445 130.971 72.3477 131.202C71.652 131.364 71.0351 131.436 70.4968 131.418C70.2897 131.411 69.8807 131.361 69.2701 131.265C68.0471 131.075 66.881 130.509 66.0825 129.545C64.7004 127.875 64.3534 125.961 65.0415 123.802C65.1704 123.397 65.4172 122.958 65.7819 122.485C66.2253 121.909 66.79 121.295 67.5645 120.927C69.6567 119.935 72.157 119.897 74.1013 121.243C74.613 121.597 75.0375 122.173 75.4089 122.653C75.4211 122.669 75.4298 122.687 75.4346 122.706C75.4393 122.726 75.4399 122.746 75.4363 122.765C75.4327 122.785 75.4251 122.804 75.4138 122.82C75.4026 122.837 75.388 122.851 75.371 122.861C74.9036 123.148 74.2946 123.514 73.5442 123.959C73.3732 124.06 73.2266 124.123 73.1045 124.149C73.0818 124.153 73.0584 124.151 73.0374 124.142C73.0164 124.133 72.9988 124.118 72.987 124.099C72.3949 123.166 71.5741 122.724 70.5246 122.774C69.1147 122.841 68.224 123.571 67.8526 124.966C67.8399 125.012 67.8311 125.059 67.826 125.106C67.8243 125.124 67.8176 125.389 67.8058 125.901C67.7839 126.828 68.1217 127.607 68.8191 128.238C69.4861 128.842 70.328 129.02 71.3446 128.771C71.3648 128.766 71.3855 128.763 71.4065 128.761Z" fill="#38494F"/>
<path d="M140.893 128.677C140.464 129.62 139.792 130.317 138.877 130.768C136.929 131.725 133.938 131.596 132.175 130.228C131.522 129.722 131.031 129.167 130.703 128.564C129.524 126.401 129.885 123.753 131.52 121.929C132.796 120.506 135.053 120.078 136.912 120.261C138.619 120.43 139.908 121.238 140.781 122.686C140.798 122.714 140.804 122.748 140.798 122.781C140.792 122.813 140.774 122.842 140.748 122.862C140.128 123.342 139.433 123.768 138.662 124.142C138.63 124.157 138.594 124.16 138.56 124.151C138.526 124.141 138.497 124.12 138.478 124.091C137.897 123.186 137.051 122.75 135.938 122.784C134.139 122.838 133.073 124.242 133.135 125.998C133.16 126.718 133.383 127.335 133.804 127.85C134.483 128.682 135.382 129.003 136.502 128.814C137.344 128.672 137.986 128.231 138.428 127.492C138.463 127.435 138.517 127.394 138.581 127.377C138.645 127.36 138.713 127.369 138.771 127.401L140.858 128.571C140.876 128.58 140.89 128.597 140.896 128.617C140.903 128.636 140.902 128.658 140.893 128.677Z" fill="#8AA891"/>
<path d="M94.5355 124.761L94.6644 124.74L97.1166 124.782C97.1512 124.782 97.1847 124.769 97.2098 124.745C97.2349 124.721 97.2495 124.689 97.2505 124.654C97.2859 123.317 96.1653 122.705 94.9057 122.696C93.7568 122.689 92.6787 122.961 91.6714 123.511C91.6576 123.518 91.6414 123.52 91.6264 123.516C91.6113 123.511 91.5984 123.501 91.5905 123.488L90.6076 121.786C90.5974 121.768 90.5934 121.747 90.5961 121.727C90.5989 121.706 90.6082 121.687 90.6227 121.672C90.9015 121.39 91.246 121.158 91.6562 120.976C92.5103 120.597 93.2523 120.391 93.8823 120.357C93.9037 120.356 93.924 120.348 93.9404 120.334C93.9665 120.313 93.9956 120.3 94.0276 120.295C94.7199 120.212 95.4599 120.209 96.2474 120.286C98.3787 120.499 100.054 121.877 100.285 124.044C100.36 124.75 100.384 125.696 100.356 126.88C100.321 128.325 100.313 129.744 100.332 131.138C100.332 131.148 100.33 131.159 100.326 131.169C100.322 131.178 100.316 131.187 100.309 131.195C100.302 131.202 100.293 131.208 100.283 131.212C100.273 131.217 100.263 131.219 100.252 131.219H97.6156C97.5674 131.219 97.5211 131.199 97.487 131.165C97.4529 131.131 97.4337 131.085 97.4337 131.037V130.29C97.434 130.271 97.4284 130.251 97.4178 130.235C97.4071 130.219 97.3918 130.206 97.3739 130.199C97.3559 130.191 97.3361 130.189 97.3171 130.193C97.298 130.197 97.2806 130.207 97.2669 130.221C96.5354 130.953 95.5892 131.37 94.5165 131.414C93.7307 131.446 92.9954 131.347 92.3106 131.12C90.8994 130.65 90.0631 129.306 90.1616 127.842C90.2121 127.099 90.5288 126.439 91.1117 125.862C91.5374 125.441 92.1691 125.216 92.701 125.013C92.9377 124.922 93.2392 124.86 93.6056 124.828C93.9164 124.801 94.2264 124.778 94.5355 124.761ZM97.2316 126.825C97.2238 126.781 97.2022 126.742 97.1701 126.712C97.1379 126.682 97.097 126.663 97.0534 126.659C96.1792 126.571 95.2977 126.56 94.4091 126.624C93.4578 126.693 92.8539 127.613 93.2506 128.523C93.6018 129.329 94.8058 129.317 95.5538 129.176C96.0937 129.074 96.5068 128.843 96.7932 128.482C97.189 127.983 97.3352 127.43 97.2316 126.825Z" fill="#38494F"/>
<path d="M27.8838 120.413L29.1901 120.406C29.244 120.421 29.2794 120.446 29.2963 120.482C29.5489 121.02 29.722 121.69 29.981 122.238C30.5255 123.394 30.9753 124.653 31.348 125.499C31.679 126.252 31.8521 126.861 32.1629 127.567C32.1694 127.582 32.1798 127.594 32.193 127.602C32.2062 127.611 32.2216 127.615 32.2372 127.615C32.2529 127.615 32.2682 127.61 32.2812 127.601C32.2942 127.593 32.3045 127.58 32.3107 127.566L35.1723 120.556C35.1907 120.51 35.2221 120.472 35.2627 120.444C35.3032 120.417 35.3509 120.403 35.3997 120.403H38.2499C38.2649 120.403 38.2797 120.406 38.2929 120.413C38.3061 120.421 38.3172 120.431 38.3254 120.443C38.3336 120.456 38.3385 120.47 38.3396 120.485C38.3408 120.5 38.3382 120.515 38.3321 120.529C37.1192 123.254 35.9346 126.041 34.7781 128.891C34.2551 130.178 33.8874 130.965 33.2507 132.4C33.0704 132.807 32.7938 133.24 32.4206 133.699C31.017 135.424 28.096 135.507 26.3147 134.319C26.2593 134.282 26.2195 134.226 26.2029 134.162C26.1863 134.097 26.1942 134.029 26.2249 133.97C26.5421 133.364 26.7897 132.709 27.194 132.155C27.2037 132.141 27.216 132.13 27.2302 132.122C27.2443 132.113 27.2601 132.107 27.2764 132.105C27.2928 132.103 27.3095 132.104 27.3255 132.108C27.3415 132.112 27.3565 132.119 27.3696 132.13C28.0729 132.66 28.825 132.789 29.626 132.515C30.1251 132.344 30.283 132.084 30.5432 131.648C30.6856 131.41 30.7188 131.207 30.643 131.039C29.5245 128.562 28.4822 126.165 27.5161 123.848C27.0512 122.735 26.5092 121.708 26.0708 120.571C26.0649 120.555 26.0627 120.539 26.0646 120.522C26.0664 120.506 26.0722 120.49 26.0814 120.476C26.0906 120.463 26.1029 120.451 26.1174 120.444C26.1318 120.436 26.1479 120.432 26.1643 120.432L27.8838 120.413Z" fill="#38494F"/>
<path d="M122.584 120.458C122.585 120.46 122.591 120.468 122.602 120.484C122.602 120.484 122.603 120.485 122.603 120.486C122.603 120.487 122.603 120.487 122.603 120.487L122.606 131.121C122.606 131.146 122.596 131.17 122.578 131.187C122.561 131.205 122.537 131.215 122.512 131.215H119.87C119.84 131.215 119.811 131.203 119.789 131.181C119.767 131.16 119.755 131.131 119.755 131.101V130.281C119.755 130.266 119.751 130.252 119.743 130.24C119.734 130.228 119.723 130.218 119.709 130.213C119.695 130.207 119.68 130.206 119.666 130.209C119.651 130.212 119.638 130.219 119.628 130.229C119.058 130.814 118.365 131.173 117.551 131.306C116.367 131.499 115.309 131.406 114.378 131.024C113.335 130.596 112.622 129.862 112.239 128.821C112.046 128.292 111.941 127.745 111.926 127.181C111.898 126.083 111.844 125.078 111.883 123.959C111.924 122.827 111.932 121.677 111.91 120.509C111.91 120.497 111.912 120.485 111.916 120.475C111.92 120.464 111.927 120.454 111.935 120.445C111.943 120.437 111.953 120.43 111.963 120.426C111.974 120.421 111.985 120.419 111.997 120.419H114.856C114.875 120.419 114.895 120.423 114.913 120.431C114.931 120.438 114.947 120.449 114.961 120.463C114.975 120.477 114.986 120.494 114.993 120.512C115 120.53 115.004 120.55 115.004 120.569C114.987 122.534 114.984 124.344 114.996 125.997C115.006 127.228 115.28 128.598 116.669 128.812C117.546 128.946 118.555 128.616 119.052 127.844C119.372 127.347 119.532 126.774 119.533 126.123C119.536 123.45 119.542 121.578 119.549 120.508C119.55 120.485 119.559 120.464 119.574 120.448C119.59 120.433 119.611 120.424 119.633 120.424L122.501 120.405C122.518 120.405 122.535 120.41 122.55 120.419C122.565 120.428 122.577 120.442 122.584 120.458Z" fill="#38494F"/>
<path d="M151.515 120.506C151.556 121.176 151.555 121.698 151.512 122.074C151.497 122.213 151.423 122.361 151.29 122.519C150.531 123.418 150.071 123.959 149.909 124.144C149.407 124.715 148.848 125.359 148.231 126.075C147.483 126.943 146.745 127.946 145.981 128.698C145.972 128.707 145.967 128.717 145.964 128.729C145.962 128.741 145.963 128.753 145.967 128.764C145.972 128.775 145.98 128.784 145.989 128.791C145.999 128.798 146.011 128.802 146.023 128.802H151.593C151.633 128.802 151.672 128.818 151.7 128.846C151.729 128.875 151.745 128.913 151.745 128.953V131.144C151.745 131.16 151.738 131.176 151.727 131.187C151.715 131.198 151.7 131.205 151.684 131.205H142.033C142.02 131.205 142.007 131.202 141.995 131.197C141.983 131.192 141.973 131.185 141.964 131.176C141.955 131.166 141.948 131.156 141.943 131.144C141.938 131.132 141.936 131.119 141.937 131.106L142.002 129.236C142.007 129.105 142.061 128.98 142.153 128.886C142.699 128.336 143.099 127.756 143.559 127.279C144.26 126.557 144.772 125.879 145.487 125.14C145.903 124.712 146.381 124.016 146.872 123.538C147.171 123.246 147.359 123.052 147.434 122.957C147.459 122.924 147.465 122.887 147.45 122.849C147.446 122.838 147.439 122.829 147.429 122.822C147.42 122.816 147.409 122.812 147.397 122.812H142.225C142.206 122.812 142.189 122.805 142.176 122.792C142.163 122.779 142.155 122.761 142.155 122.742V120.484C142.155 120.464 142.163 120.446 142.176 120.433C142.19 120.419 142.208 120.412 142.227 120.412H151.415C151.44 120.411 151.465 120.421 151.484 120.439C151.502 120.457 151.513 120.481 151.515 120.506Z" fill="#8AA891"/>
<path d="M94.6643 124.74L94.5355 124.761C94.5431 124.739 94.586 124.731 94.6643 124.74Z" fill="#8AA891"/>
<path d="M126.83 131.422C127.924 131.422 128.811 130.535 128.811 129.441C128.811 128.347 127.924 127.46 126.83 127.46C125.736 127.46 124.849 128.347 124.849 129.441C124.849 130.535 125.736 131.422 126.83 131.422Z" fill="#8AA891"/>
</svg>
