<svg width="266" height="263" viewBox="0 0 266 263" fill="none" xmlns="http://www.w3.org/2000/svg">
<path d="M258.317 90.4828L261.047 99.2429C260.847 106.493 259.307 115.983 251.737 118.403C243.607 121.003 234.517 120.543 221.597 121.213C209.47 121.846 197.947 124.726 187.027 129.853C189.247 127.18 191.534 124.553 193.887 121.973C195.527 120.18 195.944 118.176 195.137 115.963L199.667 112.163C200.867 107.656 200.62 102.633 198.927 97.0928L193.587 87.2828C193.085 86.358 192.766 85.3463 192.647 84.3028C192.36 81.9228 191.934 79.3328 191.367 76.5328C190.647 72.9794 189.334 69.9495 187.427 67.4428C185.567 64.0961 183.087 61.9862 179.987 61.1129C171.027 56.5329 162.014 56.6861 152.947 61.5728C139.367 59.0528 125.787 59.0562 112.207 61.5828C103.84 56.8762 95.5071 56.6028 87.2071 60.7628C84.9738 61.0428 83.0504 62.1395 81.4371 64.0528C73.9871 69.0728 73.697 75.9128 72.387 83.9628C72.1137 85.6362 71.1271 88.1362 69.4271 91.4628C67.4604 94.2562 66.0205 97.2662 65.1071 100.493L64.8371 106.943C43.9371 107.736 23.0737 107.966 2.24707 107.633C4.92707 93.5261 9.85036 79.9928 17.017 67.0328C26.7704 50.3261 39.7404 36.0795 55.9271 24.2928C67.1071 16.1528 78.8604 10.2028 91.1871 6.44281C118.194 -1.80386 144.74 -2.13385 170.827 5.45282C193.52 12.0528 213.737 24.7662 231.477 43.5928C233.47 45.7062 236.48 49.5328 240.507 55.0728C248.467 66.0128 254.097 77.7928 258.317 90.4828Z" fill="#DADC9A"/>
<path d="M179.987 61.1129C173.394 60.3796 167.861 61.9395 163.387 65.7929C157.647 70.7329 155.007 76.8129 151.537 83.0629C147.717 78.5829 145.927 73.9429 148.677 68.3129C149.891 65.8329 151.314 63.5862 152.947 61.5729C162.014 56.6862 171.027 56.5329 179.987 61.1129Z" fill="#688043"/>
<path d="M112.207 61.5829C114.287 63.3629 115.904 65.4795 117.057 67.9329C119.007 72.0629 119.317 80.5229 112.987 81.3629C109.747 75.9329 107.647 70.8728 102.497 66.2928C98.7637 62.9662 93.667 61.1228 87.207 60.7628C95.507 56.6028 103.84 56.8762 112.207 61.5829Z" fill="#688043"/>
<path d="M152.947 61.5729C151.314 63.5863 149.89 65.8329 148.677 68.3129C145.927 73.9429 147.717 78.5829 151.537 83.0629C149.804 86.8629 148.09 90.7762 146.397 94.8029C143.727 101.143 136.287 113.003 127.487 106.763C125.154 105.103 123.197 102.813 121.617 99.8929C117.917 93.0395 115.04 86.863 112.987 81.363C119.317 80.523 119.007 72.0629 117.057 67.9329C115.904 65.4796 114.287 63.3629 112.207 61.5829C125.787 59.0563 139.367 59.0529 152.947 61.5729ZM122.237 68.8929C122.147 68.9433 122.069 69.0148 122.012 69.1011C121.955 69.1874 121.919 69.286 121.908 69.3884C121.898 69.4907 121.912 69.5937 121.95 69.6885C121.988 69.7834 122.049 69.8673 122.127 69.9329C127.3 74.4262 133.047 75.2196 139.367 72.3129C140.534 71.7729 141.35 70.9296 141.817 69.7829C141.882 69.6297 141.889 69.458 141.838 69.2986C141.786 69.1392 141.68 69.0025 141.537 68.9129C137.857 66.6529 131.537 67.373 126.817 67.623C125.124 67.7096 123.597 68.1329 122.237 68.8929Z" fill="#829A4D"/>
<path d="M87.2069 60.7628C93.6669 61.1228 98.7636 62.9662 102.497 66.2928C107.647 70.8728 109.747 75.9329 112.987 81.3629C115.04 86.8629 117.917 93.0395 121.617 99.8928C123.197 102.813 125.154 105.103 127.487 106.763C136.287 113.003 143.727 101.143 146.397 94.8029C148.09 90.7762 149.804 86.8629 151.537 83.0629C155.007 76.8129 157.647 70.7328 163.387 65.7928C167.86 61.9395 173.394 60.3796 179.987 61.1129C183.087 61.9862 185.567 64.0962 187.427 67.4429C181.247 65.3095 176.074 66.0928 171.907 69.7928C168.134 73.1395 165.43 77.2195 163.797 82.0328C163.044 84.2328 162.364 86.1662 161.757 87.8329C158.604 93.7996 155.75 99.6562 153.197 105.403C152.597 106.743 152.36 108.133 152.487 109.573C152.56 110.426 152.937 111.07 153.617 111.503C150.25 117.983 147.83 124.823 146.357 132.023C141.647 130.783 136.137 129.193 131.497 129.483C129.477 129.603 127.294 129.97 124.947 130.583C121.667 131.443 117.597 132.226 112.737 132.933C109.137 133.46 105.37 132.67 101.437 130.563C94.0169 126.576 84.9702 122.053 74.2969 116.993C72.2435 116.02 70.0668 114.723 67.7668 113.103C67.7092 113.063 67.6402 113.043 67.5712 113.046C67.5021 113.05 67.4371 113.077 67.3868 113.123C67.2935 113.216 67.2602 113.323 67.2869 113.443C65.7969 112.173 65.2669 108.813 64.8369 106.943L65.1069 100.493L76.6569 103.593C76.7633 103.619 76.8704 103.656 76.9769 103.703L81.3369 105.673C85.8702 107.826 90.3902 107.616 94.8969 105.043L111.217 112.853C111.43 112.955 111.674 112.97 111.899 112.895C112.124 112.821 112.313 112.663 112.427 112.453C113.497 110.503 113.367 108.703 112.587 106.483C110.254 99.8296 107.167 93.4596 103.327 87.3729C100.067 78.6629 96.9269 71.1028 87.9169 66.9128C87.6911 66.8066 87.4525 66.7293 87.2069 66.6829C84.8536 66.2629 82.9302 65.3862 81.4369 64.0529C83.0502 62.1395 84.9736 61.0428 87.2069 60.7628ZM117.48 114.031C117.007 114.24 116.662 114.688 116.522 115.277C116.382 115.865 116.458 116.546 116.733 117.17C116.869 117.479 117.05 117.764 117.265 118.01C117.481 118.256 117.727 118.457 117.989 118.602C118.251 118.747 118.524 118.834 118.792 118.856C119.061 118.879 119.32 118.838 119.554 118.734C120.027 118.526 120.372 118.078 120.512 117.489C120.652 116.901 120.576 116.22 120.301 115.596C120.165 115.287 119.984 115.002 119.768 114.756C119.553 114.51 119.307 114.309 119.045 114.164C118.783 114.018 118.51 113.932 118.241 113.909C117.973 113.887 117.714 113.928 117.48 114.031ZM147.783 114.283C147.419 114.013 146.906 113.975 146.358 114.176C145.811 114.377 145.272 114.801 144.862 115.356C144.452 115.91 144.204 116.549 144.171 117.131C144.139 117.714 144.326 118.193 144.69 118.463C145.055 118.733 145.568 118.771 146.115 118.57C146.663 118.369 147.201 117.944 147.611 117.39C148.022 116.836 148.27 116.197 148.302 115.614C148.335 115.032 148.148 114.553 147.783 114.283Z" fill="#97AC51"/>
<path d="M81.4368 64.0529C82.9301 65.3862 84.8535 66.2629 87.2068 66.6829C87.4524 66.7293 87.6909 66.8066 87.9167 66.9128C96.9267 71.1028 100.067 78.6629 103.327 87.3729L102.027 94.5128C102.007 94.6126 101.977 94.7131 101.937 94.8129C100.257 99.1329 97.9101 102.543 94.8967 105.043C90.3901 107.616 85.8701 107.826 81.3368 105.673C75.1268 102.003 72.8668 97.0029 69.4268 91.4629C71.1268 88.1362 72.1134 85.6362 72.3867 83.9629C73.6967 75.9129 73.9868 69.0729 81.4368 64.0529ZM84.4457 72.387C81.0552 72.8454 78.0292 74.9534 76.0333 78.2473C74.0375 81.5413 73.2353 85.7514 73.8031 89.9513C74.0843 92.0309 74.6934 94.0454 75.5956 95.8799C76.4978 97.7143 77.6754 99.3327 79.0613 100.643C80.4472 101.953 82.0141 102.929 83.6727 103.515C85.3313 104.101 87.0491 104.286 88.7279 104.059C92.1183 103.6 95.1443 101.492 97.1401 98.1984C99.136 94.9044 99.9383 90.6944 99.3705 86.4945C99.0893 84.4149 98.4802 82.4004 97.578 80.5659C96.6758 78.7315 95.4981 77.113 94.1122 75.803C92.7263 74.493 91.1593 73.517 89.5007 72.9309C87.8421 72.3448 86.1245 72.16 84.4457 72.387Z" fill="#67652C"/>
<path d="M187.427 67.4429C189.334 69.9495 190.647 72.9795 191.367 76.5328C191.934 79.3328 192.36 81.9229 192.647 84.3029C192.766 85.3464 193.085 86.3581 193.587 87.2828L198.927 97.0929C195.847 99.8262 192.53 102.093 188.977 103.893C187.504 104.253 186.234 104.87 185.167 105.743C184.925 105.946 184.631 106.081 184.317 106.133C176.767 107.393 170.517 107.313 166.047 100.383C165.14 98.9828 164.297 96.9529 163.517 94.2929C162.904 92.2262 162.317 90.0729 161.757 87.8329C162.364 86.1662 163.044 84.2328 163.797 82.0328C165.43 77.2195 168.134 73.1395 171.907 69.7929C176.074 66.0929 181.247 65.3095 187.427 67.4429ZM180.67 72.1342C177.293 71.6356 173.809 72.8219 170.984 75.4321C168.158 78.0424 166.224 81.8627 165.605 86.0527C165.299 88.1275 165.325 90.2306 165.681 92.2418C166.038 94.2531 166.719 96.1332 167.684 97.7748C168.65 99.4164 169.882 100.787 171.309 101.809C172.737 102.832 174.332 103.485 176.004 103.732C179.381 104.23 182.865 103.044 185.69 100.434C188.515 97.8234 190.45 94.003 191.069 89.813C191.375 87.7383 191.349 85.6352 190.992 83.6239C190.636 81.6126 189.955 79.7326 188.989 78.0909C188.024 76.4493 186.792 75.0783 185.365 74.0563C183.937 73.0342 182.342 72.3811 180.67 72.1342Z" fill="#67652C"/>
<path d="M122.237 68.8929C123.597 68.1329 125.123 67.7096 126.817 67.623C131.537 67.373 137.856 66.6529 141.536 68.9129C141.679 69.0025 141.786 69.1392 141.837 69.2986C141.889 69.4581 141.881 69.6297 141.817 69.7829C141.35 70.9296 140.533 71.7729 139.367 72.3129C133.047 75.2196 127.3 74.4263 122.127 69.9329C122.048 69.8673 121.987 69.7834 121.949 69.6885C121.911 69.5937 121.897 69.4907 121.908 69.3884C121.919 69.286 121.954 69.1874 122.011 69.1011C122.069 69.0148 122.146 68.9433 122.237 68.8929Z" fill="#67652C"/>
<path d="M180.67 72.1341C182.342 72.381 183.938 73.0342 185.365 74.0562C186.793 75.0783 188.024 76.4493 188.99 78.0909C189.956 79.7325 190.636 81.6126 190.993 83.6238C191.35 85.6351 191.376 87.7382 191.069 89.8129C190.451 94.003 188.516 97.8233 185.691 100.434C182.865 103.044 179.381 104.23 176.005 103.732C174.333 103.485 172.737 102.831 171.31 101.809C169.882 100.787 168.651 99.4164 167.685 97.7747C166.719 96.1331 166.039 94.253 165.682 92.2418C165.325 90.2305 165.299 88.1274 165.606 86.0527C166.224 81.8626 168.159 78.0423 170.984 75.4321C173.809 72.8218 177.294 71.6355 180.67 72.1341ZM177.187 84.4728C175.907 89.7595 176.371 94.8395 178.577 99.7128C178.657 99.89 178.786 100.041 178.949 100.147C179.112 100.253 179.302 100.311 179.496 100.313C179.69 100.315 179.881 100.262 180.046 100.159C180.211 100.056 180.344 99.9083 180.427 99.7329C182.734 94.9795 183.417 89.8895 182.477 84.4628C182.127 82.4028 180.527 79.0128 178.017 78.5728C178.084 77.9995 177.917 77.5228 177.517 77.1428C177.392 77.0297 177.24 76.9503 177.076 76.9118C176.911 76.8733 176.74 76.8771 176.577 76.9228C174.331 77.5695 173.011 79.2062 172.617 81.8328C172.237 84.4228 175.267 85.2828 177.187 84.4728Z" fill="#CD7839"/>
<path d="M84.4457 72.3869C86.1245 72.1599 87.8422 72.3447 89.5008 72.9308C91.1593 73.517 92.7263 74.4929 94.1122 75.8029C95.4981 77.1129 96.6758 78.7314 97.578 80.5659C98.4802 82.4003 99.0893 84.4148 99.3705 86.4944C99.9383 90.6944 99.136 94.9044 97.1402 98.1983C95.1443 101.492 92.1184 103.6 88.7279 104.059C87.0491 104.286 85.3313 104.101 83.6727 103.515C82.0142 102.929 80.4472 101.953 79.0613 100.643C77.6754 99.3326 76.4978 97.7143 75.5956 95.8798C74.6934 94.0454 74.0843 92.0308 73.8031 89.9512C73.2353 85.7513 74.0375 81.5412 76.0333 78.2473C78.0292 74.9533 81.0553 72.8453 84.4457 72.3869ZM86.9768 79.3428C86.6235 78.3428 85.5835 78.6995 83.8568 80.4128C83.4502 79.0528 82.7902 79.0829 81.8769 80.5029C80.2635 82.9895 80.2901 84.3462 81.9568 84.5728C81.3301 86.6662 81.3067 88.9528 81.8867 91.4328C82.6067 94.5195 83.7734 97.4328 85.3867 100.173C85.4274 100.24 85.4854 100.295 85.5547 100.333C85.624 100.37 85.702 100.388 85.7807 100.385C85.8593 100.382 85.9357 100.358 86.0019 100.315C86.068 100.273 86.1215 100.213 86.1568 100.143C88.5434 95.2561 89.3368 90.0995 88.5368 84.6728C89.7234 84.7261 90.7301 84.4361 91.5568 83.8028C91.9273 83.5166 92.1935 83.1161 92.3145 82.6628C92.4355 82.2094 92.4047 81.7281 92.2268 81.2928C91.5668 79.6995 90.6502 78.4894 89.4768 77.6628C89.3468 77.5717 89.1953 77.517 89.0386 77.5047C88.8819 77.4924 88.7258 77.5229 88.5868 77.5928C87.8801 77.9595 87.3435 78.5428 86.9768 79.3428Z" fill="#CF8D45"/>
<path d="M178.016 78.5729C178.343 81.1929 178.067 83.1596 177.187 84.4729C175.267 85.2829 172.237 84.4229 172.617 81.8329C173.01 79.2063 174.33 77.5696 176.577 76.9229C176.739 76.8773 176.91 76.8734 177.075 76.9119C177.239 76.9504 177.391 77.0298 177.516 77.1429C177.916 77.5229 178.083 77.9996 178.016 78.5729Z" fill="#F3E2C1"/>
<path d="M88.5367 84.6728C87.0433 83.2395 86.5234 81.4629 86.9767 79.3429C87.3434 78.5429 87.88 77.9595 88.5867 77.5929C88.7257 77.5229 88.8818 77.4924 89.0385 77.5047C89.1952 77.5171 89.3467 77.5717 89.4767 77.6628C90.6501 78.4895 91.5667 79.6995 92.2267 81.2928C92.4046 81.7282 92.4354 82.2095 92.3144 82.6628C92.1934 83.1162 91.9272 83.5166 91.5567 83.8028C90.73 84.4362 89.7233 84.7262 88.5367 84.6728Z" fill="#F3E2C1"/>
<path d="M86.977 79.3429C86.5236 81.4629 87.0436 83.2395 88.5369 84.6728C89.3369 90.0995 88.5436 95.2561 86.1569 100.143C86.1216 100.213 86.0682 100.273 86.002 100.315C85.9358 100.358 85.8595 100.382 85.7808 100.385C85.7022 100.388 85.6241 100.37 85.5549 100.333C85.4856 100.296 85.4276 100.24 85.3869 100.173C83.7736 97.4328 82.6069 94.5195 81.8869 91.4328C81.3069 88.9528 81.3303 86.6662 81.957 84.5729L83.857 80.4128C85.5837 78.6995 86.6236 78.3429 86.977 79.3429Z" fill="#301A15"/>
<path d="M177.187 84.4729C178.067 83.1596 178.344 81.1929 178.017 78.5729C180.527 79.0129 182.127 82.4029 182.477 84.4629C183.417 89.8896 182.734 94.9796 180.427 99.7329C180.343 99.9083 180.211 100.056 180.046 100.159C179.881 100.262 179.69 100.315 179.496 100.313C179.301 100.311 179.112 100.253 178.949 100.147C178.786 100.041 178.657 99.8901 178.577 99.7129C176.371 94.8396 175.907 89.7596 177.187 84.4729Z" fill="#301A15"/>
<path d="M83.8569 80.4129L81.9568 84.5729C80.2902 84.3462 80.2635 82.9896 81.8769 80.5029C82.7902 79.0829 83.4502 79.0529 83.8569 80.4129Z" fill="#E5CBAC"/>
<path d="M94.8965 105.043C97.9098 102.543 100.257 99.1329 101.937 94.8129C101.976 94.7131 102.007 94.6126 102.026 94.5128L103.327 87.3729C107.167 93.4596 110.253 99.8296 112.587 106.483C113.367 108.703 113.497 110.503 112.427 112.453C112.313 112.663 112.124 112.821 111.899 112.895C111.674 112.97 111.429 112.955 111.217 112.853L94.8965 105.043Z" fill="#688043"/>
<path d="M161.757 87.8329C162.317 90.0729 162.904 92.2262 163.517 94.2928C164.297 96.9528 165.14 98.9828 166.047 100.383C170.517 107.313 176.767 107.393 184.317 106.133C184.632 106.081 184.925 105.946 185.167 105.743C186.234 104.87 187.504 104.253 188.977 103.893C187.011 105.366 185.681 106.18 184.987 106.333C179.027 107.673 173.877 106.783 168.037 106.083C167.717 106.044 167.391 106.096 167.097 106.233C162.577 108.293 159.037 110.403 153.617 111.503C152.937 111.07 152.561 110.426 152.487 109.573C152.361 108.133 152.597 106.743 153.197 105.403C155.751 99.6562 158.604 93.7996 161.757 87.8329Z" fill="#688043"/>
<path d="M81.3374 105.673L76.9774 103.703C76.8709 103.656 76.7638 103.619 76.6573 103.593L65.1074 100.493C66.0208 97.2663 67.4607 94.2562 69.4274 91.4629C72.8674 97.0029 75.1274 102.003 81.3374 105.673Z" fill="#688043"/>
<path d="M199.667 112.163C189.361 117.143 179.291 122.303 169.457 127.643C164.511 130.329 160.814 131.913 158.367 132.393C154.501 133.153 150.497 133.029 146.357 132.023C147.831 124.823 150.251 117.983 153.617 111.503C159.037 110.403 162.577 108.293 167.097 106.233C167.392 106.096 167.717 106.044 168.037 106.083C173.877 106.783 179.027 107.673 184.987 106.333C185.681 106.18 187.011 105.366 188.977 103.893C192.531 102.093 195.847 99.8262 198.927 97.0929C200.621 102.633 200.867 107.656 199.667 112.163Z" fill="#829A4D"/>
<path d="M261.497 162.453C261.463 162.846 261.34 163.176 261.127 163.443C257.14 178.403 250.763 192.31 241.997 205.163L235.136 214.393L227.766 221.573C227.986 214.166 226.79 207.576 224.177 201.803C222.11 197.603 219.58 194.216 216.587 191.643C212.213 187.769 207.356 185.606 202.016 185.153C190.476 178.983 178.517 179.383 165.727 180.483C166.08 170.243 168.353 160.813 172.547 152.193C176.133 144.82 180.916 137.67 186.896 130.743C186.93 130.703 186.954 130.655 186.964 130.604C186.975 130.554 186.972 130.502 186.957 130.453C186.923 130.333 186.887 130.253 186.847 130.213L187.026 129.853C197.946 124.726 209.47 121.846 221.597 121.213C234.517 120.543 243.607 121.003 251.737 118.403C259.307 115.983 260.847 106.493 261.047 99.2429C264.893 113.336 266.113 127.396 264.707 141.423C264.093 147.596 263.023 154.606 261.497 162.453Z" fill="#B7BF8B"/>
<path d="M64.837 106.943C65.267 108.813 65.797 112.173 67.287 113.443C67.4736 113.55 67.5603 113.723 67.547 113.963C66.627 114.156 65.9304 114.57 65.457 115.203C65.3634 115.33 65.3065 115.48 65.2924 115.637C65.2782 115.794 65.3076 115.951 65.3771 116.093C66.6904 118.72 68.347 121.076 70.347 123.163C73.0204 125.943 75.7003 128.416 78.387 130.583C82.067 135.69 85.6804 140.593 89.227 145.293C91.447 148.226 93.9236 152.77 96.657 158.923C99.317 167.423 101.117 176.013 102.057 184.693C102.297 186.88 101.91 188.483 100.897 189.503C87.807 189.393 74.597 188.113 63.177 181.883C62.3037 181.409 61.3003 180.553 60.167 179.313C59.8313 178.944 59.582 178.507 59.437 178.033C58.8837 176.193 58.3003 175.019 57.687 174.513C54.7403 172.066 52.2171 169.366 50.1171 166.413C50.0489 166.314 49.9495 166.242 49.8349 166.207C49.7204 166.173 49.5974 166.178 49.4861 166.222C49.3748 166.266 49.2817 166.346 49.2219 166.45C49.1622 166.554 49.1393 166.674 49.157 166.793L49.667 170.373C49.6766 170.453 49.6664 170.534 49.6371 170.609C49.6077 170.685 49.5602 170.751 49.4989 170.804C49.4375 170.856 49.3642 170.893 49.2854 170.91C49.2066 170.927 49.1246 170.925 49.047 170.903C47.7603 170.543 46.8204 170.026 46.227 169.353C42.0604 164.58 40.637 159.46 41.957 153.993C42.1931 153.015 42.1828 151.994 41.927 151.023C39.9337 143.503 39.4703 135.49 40.537 126.983C40.5903 126.536 40.487 125.576 40.227 124.103C40.198 123.929 40.1224 123.766 40.0083 123.631C39.8942 123.496 39.7458 123.395 39.5788 123.337C39.4119 123.28 39.2324 123.269 39.0596 123.305C38.8867 123.341 38.727 123.423 38.597 123.543C34.517 127.213 32.737 134.763 31.567 139.943C30.5337 144.49 30.5636 149.599 31.657 155.273C34.9436 170.806 42.7903 182.99 55.197 191.823C68.0837 201.003 82.8737 205.746 99.567 206.053C99.9537 206.06 100.524 206.21 101.277 206.503L101.617 215.703C86.7504 212.136 72.1137 212.656 57.707 217.263L53.887 218.853C49.7603 220.08 45.9504 222.683 42.457 226.663C41.1104 226.85 39.5036 225.816 37.637 223.563C33.1303 219.303 29.0936 214.583 25.527 209.403C18.4736 199.243 12.737 188.293 8.31701 176.553C-0.109659 154.393 -2.133 131.419 2.247 107.633C23.0737 107.966 43.937 107.736 64.837 106.943Z" fill="#B7BF8B"/>
<path d="M199.667 112.163L195.137 115.963C187.784 119.95 178.247 125.346 166.527 132.153C163.694 133.799 160.444 134.996 156.777 135.743C153.491 135.856 150.697 135.723 148.397 135.343C144.517 134.703 139.117 132.873 134.827 132.793C131.254 132.726 129.107 132.813 128.387 133.053C126.847 133.546 125.151 134.07 123.297 134.623C119.904 135.443 116.337 135.916 112.597 136.043C108.427 136.183 104.357 135.243 100.957 133.303C91.7173 128.036 84.4673 124.03 79.2073 121.283C74.7739 118.97 70.8872 116.53 67.5472 113.963C67.5606 113.723 67.4739 113.55 67.2872 113.443C67.2605 113.323 67.2939 113.216 67.3872 113.123C67.4375 113.077 67.5025 113.05 67.5715 113.046C67.6406 113.043 67.7096 113.063 67.7672 113.103C70.0672 114.723 72.2439 116.02 74.2972 116.993C84.9706 122.053 94.0172 126.576 101.437 130.563C105.371 132.67 109.137 133.46 112.737 132.933C117.597 132.226 121.667 131.443 124.947 130.583C127.294 129.97 129.477 129.603 131.497 129.483C136.137 129.193 141.647 130.783 146.357 132.023C150.497 133.029 154.501 133.153 158.367 132.393C160.814 131.913 164.511 130.329 169.457 127.643C179.291 122.303 189.361 117.143 199.667 112.163Z" fill="#573D20"/>
<path d="M67.5472 113.963C70.8872 116.53 74.7739 118.97 79.2072 121.283C84.4672 124.03 91.7172 128.036 100.957 133.303C104.357 135.243 108.427 136.183 112.597 136.043C116.337 135.916 119.904 135.443 123.297 134.623C125.057 134.69 126.687 134.47 128.187 133.963C128.314 133.918 128.45 133.905 128.584 133.924C128.717 133.944 128.844 133.995 128.954 134.075C129.064 134.154 129.153 134.259 129.215 134.38C129.276 134.502 129.308 134.637 129.307 134.773L129.167 148.393C117.58 147.713 106.221 144.973 95.0872 140.173C89.7072 137.766 84.1405 134.57 78.3871 130.583C75.7005 128.416 73.0205 125.943 70.3472 123.163C68.3472 121.076 66.6906 118.72 65.3772 116.093C65.3077 115.951 65.2784 115.794 65.2925 115.637C65.3066 115.48 65.3636 115.33 65.4572 115.203C65.9305 114.57 66.6272 114.156 67.5472 113.963Z" fill="#E7CD89"/>
<path d="M120.301 115.596C119.728 114.297 118.465 113.597 117.479 114.031C116.494 114.466 116.16 115.871 116.732 117.17C117.305 118.468 118.568 119.169 119.554 118.734C120.539 118.3 120.874 116.895 120.301 115.596Z" fill="#573D20"/>
<path d="M147.612 117.39C148.466 116.236 148.543 114.845 147.784 114.283C147.025 113.721 145.717 114.201 144.863 115.356C144.009 116.51 143.932 117.901 144.691 118.463C145.45 119.025 146.758 118.544 147.612 117.39Z" fill="#573D20"/>
<path d="M195.137 115.963C195.943 118.176 195.527 120.18 193.887 121.973C191.533 124.553 189.247 127.18 187.027 129.853L186.847 130.213L169.257 140.723C168.023 141.07 166.113 141.883 163.527 143.163C159.62 145.096 154.537 146.586 148.277 147.633C144.717 148.233 140.047 148.373 135.867 149.013L135.717 134.803C135.716 134.736 135.73 134.67 135.757 134.609C135.784 134.548 135.825 134.494 135.875 134.45C135.926 134.406 135.985 134.374 136.049 134.356C136.113 134.337 136.181 134.333 136.247 134.343C138.867 134.743 141.52 135.286 144.207 135.973C147.233 136.753 151.423 136.676 156.777 135.743C160.443 134.996 163.693 133.799 166.527 132.153C178.247 125.346 187.783 119.95 195.137 115.963Z" fill="#E7CD89"/>
<path d="M100.897 189.503C101.79 191.376 102.107 193.543 101.847 196.003C86.6067 195.753 72.6966 195.423 59.9066 187.643C52.5133 183.15 46.7366 178.393 42.5766 173.373C38.1366 168.026 35.09 161.926 33.4366 155.073C33.3977 154.91 33.3193 154.759 33.2081 154.633C33.0969 154.508 32.9565 154.411 32.7993 154.353C32.6421 154.295 32.4729 154.276 32.3067 154.299C32.1406 154.321 31.9825 154.385 31.8467 154.483C31.8067 154.51 31.7433 154.773 31.6566 155.273C30.5633 149.6 30.5333 144.49 31.5666 139.943C32.7366 134.763 34.5167 127.213 38.5967 123.543C38.7266 123.423 38.8864 123.341 39.0592 123.305C39.232 123.269 39.4115 123.28 39.5785 123.337C39.7455 123.395 39.8938 123.496 40.0079 123.631C40.122 123.766 40.1976 123.929 40.2267 124.103C40.4867 125.576 40.5899 126.536 40.5366 126.983C39.4699 135.49 39.9333 143.503 41.9266 151.023C42.1824 151.994 42.1927 153.015 41.9566 153.993C40.6366 159.46 42.06 164.58 46.2267 169.353C46.82 170.026 47.7599 170.543 49.0466 170.903C49.1243 170.925 49.2062 170.927 49.285 170.91C49.3638 170.893 49.4372 170.856 49.4985 170.804C49.5599 170.751 49.6074 170.685 49.6367 170.61C49.666 170.534 49.6762 170.453 49.6666 170.373L49.1566 166.793C49.1389 166.675 49.1618 166.554 49.2215 166.45C49.2813 166.346 49.3744 166.266 49.4857 166.222C49.597 166.178 49.72 166.173 49.8346 166.207C49.9491 166.242 50.0486 166.314 50.1167 166.413C52.2167 169.366 54.74 172.066 57.6866 174.513C58.3 175.02 58.8833 176.193 59.4366 178.033C59.5816 178.507 59.8309 178.944 60.1666 179.313C61.2999 180.553 62.3033 181.41 63.1766 181.883C74.5966 188.113 87.8066 189.393 100.897 189.503Z" fill="#829A4D"/>
<path d="M186.847 130.213C186.887 130.253 186.924 130.333 186.957 130.453C186.973 130.502 186.976 130.554 186.965 130.604C186.955 130.655 186.931 130.703 186.897 130.743C180.917 137.67 176.134 144.82 172.547 152.193C168.354 160.813 166.081 170.243 165.727 180.483L165.677 192.803L164.877 202.723C164.664 207.51 164.987 212.196 165.847 216.783C165.467 221.823 165.654 226.583 166.407 231.063C166.734 232.403 167.431 233.32 168.497 233.813C176.887 237.723 187.967 238.743 194.357 230.173C202.651 227.2 209.237 222.556 214.117 216.243C216.031 213.756 217.394 210.429 218.207 206.263L224.177 201.803C226.791 207.576 227.987 214.166 227.767 221.573C224.307 226.106 219.954 230.303 214.707 234.163C210.467 237.67 206.617 240.456 203.157 242.523C194.677 247.569 185.221 252.013 174.787 255.853C169.147 257.926 162.531 259.486 154.937 260.533C154.151 260.94 153.624 260.8 153.357 260.113C155.231 253.9 156.474 247.51 157.087 240.943C157.881 232.443 158.004 224.12 157.457 215.973L157.107 212.523L156.207 189.043C156.061 180.536 157.091 172.17 159.297 163.943C160.397 159.833 162.547 154.893 164.177 150.423C165.357 147.173 167.437 143.853 169.257 140.723L186.847 130.213Z" fill="#5E7344"/>
<path d="M95.0868 140.173L104.957 160.903C104.99 161.216 104.99 161.396 104.957 161.443C104.839 161.616 104.658 161.737 104.453 161.78C104.248 161.823 104.034 161.784 103.857 161.673C101.723 160.366 99.3234 159.45 96.6567 158.923C93.9234 152.77 91.4468 148.226 89.2268 145.293C85.6801 140.593 82.0667 135.69 78.3867 130.583C84.1401 134.57 89.7068 137.766 95.0868 140.173Z" fill="#5E7344"/>
<path d="M156.777 135.743C151.424 136.676 147.234 136.753 144.207 135.973C141.52 135.286 138.867 134.743 136.247 134.343C136.181 134.333 136.113 134.337 136.049 134.356C135.985 134.374 135.926 134.406 135.875 134.45C135.825 134.494 135.785 134.548 135.757 134.609C135.73 134.67 135.716 134.736 135.717 134.803L135.867 149.013C136.274 157.006 137.167 165.089 138.547 173.263L133.237 162.663C133.189 162.562 133.112 162.477 133.016 162.418C132.92 162.359 132.809 162.33 132.697 162.333C132.585 162.336 132.476 162.372 132.384 162.436C132.291 162.5 132.219 162.589 132.177 162.693L127.827 173.183L127.637 173.583C127.589 173.69 127.507 173.777 127.404 173.83C127.3 173.883 127.181 173.9 127.066 173.877C126.951 173.854 126.846 173.793 126.768 173.703C126.69 173.613 126.644 173.501 126.637 173.383C126.524 171.623 126.67 169.893 127.077 168.193C128.61 161.7 129.307 155.099 129.167 148.393L129.307 134.773C129.308 134.637 129.276 134.502 129.214 134.381C129.153 134.259 129.064 134.154 128.954 134.075C128.844 133.995 128.717 133.944 128.583 133.924C128.45 133.905 128.314 133.918 128.187 133.963C126.687 134.47 125.057 134.69 123.297 134.623C125.15 134.07 126.847 133.546 128.387 133.053C129.107 132.813 131.254 132.726 134.827 132.793C139.117 132.873 144.517 134.703 148.397 135.343C150.697 135.723 153.49 135.856 156.777 135.743Z" fill="#B3453B"/>
<path d="M129.167 148.393C129.307 155.099 128.61 161.7 127.077 168.193C126.67 169.893 126.524 171.623 126.637 173.383C126.644 173.501 126.69 173.613 126.768 173.703C126.846 173.793 126.951 173.854 127.066 173.877C127.181 173.9 127.3 173.883 127.404 173.83C127.507 173.777 127.589 173.69 127.637 173.583L127.827 173.183C131.527 174.123 135.1 174.149 138.547 173.263C137.167 165.089 136.274 157.006 135.867 149.013C140.047 148.373 144.717 148.233 148.277 147.633C154.537 146.586 159.62 145.096 163.527 143.163C166.114 141.883 168.024 141.07 169.257 140.723C167.437 143.853 165.357 147.173 164.177 150.423C162.547 154.893 160.397 159.833 159.297 163.943C157.09 172.17 156.06 180.536 156.207 189.043C155.814 188.376 154.954 188.243 153.627 188.643C152.247 189.063 151.347 189.306 150.927 189.373C147.247 189.953 143.554 190.453 139.847 190.873C131.037 190.743 123.637 191.173 117.827 186.643C115.414 184.756 113.627 183.436 112.467 182.683C112.421 182.663 112.384 182.625 112.365 182.579C112.346 182.532 112.347 182.479 112.367 182.433C112.387 182.386 112.424 182.35 112.471 182.331C112.518 182.312 112.571 182.313 112.617 182.333C112.81 182.373 114.784 182.84 118.537 183.733C124.01 185.04 130.11 185.496 136.837 185.103C137.037 185.09 137.164 185.063 137.217 185.023C137.285 184.974 137.342 184.911 137.385 184.839C137.428 184.767 137.456 184.687 137.468 184.604C137.479 184.52 137.473 184.436 137.451 184.355C137.428 184.274 137.389 184.198 137.337 184.133C136.017 182.499 133.52 180.246 129.847 177.373C127.98 175.92 125.174 174.126 121.427 171.993C116.727 169.32 111.6 166.233 106.047 162.733C106.004 162.706 105.956 162.689 105.906 162.683C105.855 162.677 105.804 162.682 105.756 162.699C105.708 162.715 105.665 162.742 105.629 162.777C105.592 162.812 105.564 162.855 105.547 162.903C105.507 163.003 105.497 163.169 105.517 163.403L104.957 160.903L95.0869 140.173C106.22 144.973 117.58 147.713 129.167 148.393Z" fill="#B58D6B"/>
<path d="M101.847 196.003C102.181 199.283 102.181 202.596 101.847 205.943C101.821 206.236 101.631 206.423 101.277 206.503C100.524 206.21 99.9539 206.059 99.5673 206.053C82.8739 205.746 68.0839 201.003 55.1973 191.823C42.7906 182.989 34.9439 170.806 31.6572 155.273C31.7439 154.773 31.8073 154.51 31.8473 154.483C31.9832 154.385 32.1412 154.321 32.3074 154.299C32.4735 154.276 32.6427 154.295 32.7999 154.353C32.9572 154.411 33.0976 154.508 33.2087 154.633C33.3199 154.759 33.3984 154.91 33.4373 155.073C35.0906 161.926 38.1373 168.026 42.5773 173.373C46.7373 178.393 52.5139 183.149 59.9072 187.643C72.6972 195.423 86.6073 195.753 101.847 196.003Z" fill="#5E7344"/>
<path d="M104.957 160.903L105.517 163.403C106.557 167.323 107.214 170.186 107.487 171.993C108.894 181.393 109.817 190.49 110.257 199.283L110.217 201.193C110.144 206.8 110.024 212.296 109.857 217.683C109.507 228.913 107.377 240.003 102.307 250.083L99.6471 254.033L97.1971 257.523C94.2705 255.903 90.9805 255.173 87.3271 255.333C90.6071 252.773 93.4671 249.483 95.9071 245.463C96.1979 244.98 96.398 244.445 96.4972 243.883C97.3772 238.963 99.2572 235.423 98.8672 229.853L101.617 215.703L101.277 206.503C101.63 206.423 101.821 206.236 101.847 205.943C102.181 202.596 102.181 199.283 101.847 196.003C102.107 193.543 101.79 191.376 100.897 189.503C101.91 188.483 102.297 186.88 102.057 184.693C101.117 176.013 99.3171 167.423 96.6571 158.923C99.3238 159.45 101.724 160.366 103.857 161.673C104.035 161.784 104.248 161.823 104.453 161.78C104.659 161.737 104.839 161.616 104.957 161.443C104.99 161.396 104.99 161.216 104.957 160.903Z" fill="#97AC51"/>
<path d="M138.547 173.263C135.1 174.149 131.527 174.123 127.827 173.183L132.177 162.693C132.22 162.589 132.292 162.5 132.384 162.436C132.476 162.372 132.585 162.336 132.697 162.333C132.81 162.33 132.92 162.359 133.016 162.418C133.112 162.476 133.189 162.562 133.237 162.663L138.547 173.263Z" fill="#B97E51"/>
<path d="M139.847 190.873L143.257 191.253C143.407 191.269 143.552 191.318 143.68 191.398C143.808 191.478 143.916 191.585 143.997 191.713L149.037 199.753C149.107 199.868 149.151 199.998 149.163 200.132C149.175 200.266 149.156 200.401 149.108 200.526C149.059 200.652 148.982 200.764 148.883 200.853C148.784 200.943 148.666 201.008 148.537 201.043C146.217 201.703 144.144 202.093 142.317 202.213C131.59 202.933 120.903 201.956 110.257 199.283C109.817 190.49 108.894 181.393 107.487 171.993C107.214 170.186 106.557 167.323 105.517 163.403C105.497 163.17 105.507 163.003 105.547 162.903C105.564 162.855 105.592 162.812 105.629 162.777C105.665 162.742 105.708 162.715 105.756 162.699C105.804 162.682 105.855 162.677 105.906 162.683C105.956 162.689 106.004 162.706 106.047 162.733C111.6 166.233 116.727 169.32 121.427 171.993C125.174 174.126 127.98 175.92 129.847 177.373C133.52 180.246 136.017 182.499 137.337 184.133C137.389 184.198 137.428 184.274 137.451 184.355C137.473 184.436 137.479 184.52 137.468 184.604C137.456 184.687 137.428 184.767 137.385 184.839C137.342 184.911 137.285 184.974 137.217 185.023C137.164 185.063 137.037 185.09 136.837 185.103C130.11 185.496 124.01 185.04 118.537 183.733C114.784 182.84 112.81 182.373 112.617 182.333C112.571 182.313 112.518 182.312 112.471 182.331C112.424 182.35 112.387 182.386 112.367 182.433C112.347 182.479 112.346 182.532 112.365 182.579C112.384 182.626 112.42 182.663 112.467 182.683C113.627 183.436 115.414 184.756 117.827 186.643C123.637 191.173 131.037 190.743 139.847 190.873Z" fill="#E7CD89"/>
<path d="M202.017 185.153C206.587 188.873 209.077 194.393 210.587 199.953C208.807 207.813 204.467 213.973 197.567 218.433C197.587 216.133 197.777 213.946 198.137 211.873C199.037 206.703 197.347 202.453 193.627 198.853C185.787 191.243 175.907 191.483 165.677 192.803L165.727 180.483C178.517 179.383 190.477 178.983 202.017 185.153Z" fill="#688043"/>
<path d="M216.587 191.643C219.747 195.509 220.68 199.396 219.387 203.303C218.527 204.67 217.627 205.093 216.687 204.573C214.84 203.54 212.807 202 210.587 199.953C209.077 194.393 206.587 188.873 202.017 185.153C207.357 185.606 212.213 187.769 216.587 191.643Z" fill="#E2A35E"/>
<path d="M156.207 189.043L157.107 212.523C155.767 211.53 154.99 210.7 154.777 210.033C154.337 208.66 153.88 207.39 153.407 206.223C153.259 205.858 152.98 205.562 152.624 205.394C152.269 205.225 151.863 205.196 151.487 205.313C138.353 209.433 125.367 208.903 112.527 203.723C111.96 203.496 111.19 202.653 110.217 201.193L110.257 199.283C120.903 201.956 131.59 202.933 142.317 202.213C144.143 202.093 146.217 201.703 148.537 201.043C148.666 201.008 148.784 200.943 148.883 200.853C148.982 200.764 149.059 200.652 149.108 200.527C149.156 200.401 149.175 200.266 149.163 200.132C149.15 199.998 149.107 199.868 149.037 199.753L143.997 191.713C143.916 191.585 143.808 191.478 143.68 191.398C143.551 191.318 143.407 191.269 143.257 191.253L139.847 190.873C143.553 190.453 147.247 189.953 150.927 189.373C151.347 189.306 152.247 189.063 153.627 188.643C154.953 188.243 155.813 188.376 156.207 189.043Z" fill="#C6AA68"/>
<path d="M224.177 201.803L218.207 206.263L219.387 203.303C220.68 199.396 219.747 195.509 216.587 191.643C219.58 194.216 222.11 197.603 224.177 201.803Z" fill="#688043"/>
<path d="M197.567 218.433C195.7 219.859 194.464 220.706 193.857 220.973C191.39 222.066 188.954 223.299 186.547 224.673L166.407 231.063C165.654 226.583 165.467 221.823 165.847 216.783C173.56 217.896 180.887 219.026 187.827 220.173C189.394 220.426 190.544 220.453 191.277 220.253C191.62 220.158 191.927 219.964 192.158 219.695C192.39 219.426 192.536 219.094 192.577 218.743C193.47 210.89 190.237 205.853 182.877 203.633C176.484 201.699 170.484 201.396 164.877 202.723L165.677 192.803C175.907 191.483 185.787 191.243 193.627 198.853C197.347 202.453 199.037 206.703 198.137 211.873C197.777 213.946 197.587 216.133 197.567 218.433Z" fill="#495E3D"/>
<path d="M219.387 203.303L218.207 206.263C217.394 210.429 216.03 213.756 214.117 216.243C209.237 222.556 202.65 227.2 194.357 230.173C193.637 226.653 189.917 225.663 186.547 224.673C188.954 223.3 191.39 222.066 193.857 220.973C194.464 220.706 195.7 219.86 197.567 218.433C204.467 213.973 208.807 207.813 210.587 199.953C212.807 202 214.84 203.54 216.687 204.573C217.627 205.093 218.527 204.67 219.387 203.303Z" fill="#97AC51"/>
<path d="M157.107 212.523L157.457 215.973C156.777 216.353 155.247 216.836 152.867 217.423C138.5 220.97 125.023 220.686 112.437 216.573C112.218 216.501 111.985 216.48 111.757 216.511C111.529 216.541 111.31 216.623 111.118 216.75C110.926 216.877 110.765 217.046 110.647 217.244C110.529 217.441 110.457 217.663 110.437 217.893L110.417 218.113C110.364 218.676 110.499 219.24 110.801 219.719C111.103 220.198 111.555 220.565 112.087 220.763C117.74 222.876 122.27 224.233 125.677 224.833C133.79 226.26 142.91 225.94 153.037 223.873C153.113 223.857 153.193 223.858 153.27 223.874C153.347 223.891 153.42 223.923 153.484 223.969C153.549 224.014 153.603 224.073 153.645 224.141C153.687 224.208 153.714 224.284 153.727 224.363L154.907 232.723C154.966 233.158 154.874 233.599 154.647 233.973C154.419 234.347 154.069 234.629 153.657 234.773C147.947 236.773 141.357 238.853 134.977 238.853C126.477 238.853 118.163 237.313 110.037 234.233C109.853 234.164 109.655 234.141 109.46 234.169C109.265 234.196 109.081 234.273 108.923 234.39C108.766 234.508 108.641 234.663 108.559 234.842C108.478 235.021 108.442 235.217 108.457 235.413L108.477 235.583C108.515 236.126 108.703 236.649 109.018 237.095C109.333 237.54 109.765 237.893 110.267 238.113C117.667 241.346 122.813 243.203 125.707 243.683C134.12 245.083 143.023 244.7 152.417 242.533C152.523 242.508 152.635 242.515 152.738 242.553C152.841 242.591 152.931 242.658 152.996 242.746C153.061 242.835 153.098 242.94 153.104 243.05C153.109 243.16 153.082 243.268 153.027 243.363L146.707 254.323C146.643 254.438 146.536 254.524 146.407 254.563C143.493 255.556 140.957 256.143 138.797 256.323C131.843 256.89 124.663 256.636 117.257 255.563C114.143 255.116 109.16 253.29 102.307 250.083C107.377 240.003 109.507 228.913 109.857 217.683C110.023 212.296 110.143 206.8 110.217 201.193C111.19 202.653 111.96 203.496 112.527 203.723C125.367 208.903 138.353 209.433 151.487 205.313C151.863 205.196 152.268 205.225 152.624 205.394C152.98 205.562 153.259 205.858 153.407 206.223C153.88 207.39 154.337 208.66 154.777 210.033C154.99 210.7 155.767 211.529 157.107 212.523Z" fill="#E7CD89"/>
<path d="M165.847 216.783C164.987 212.196 164.664 207.51 164.877 202.723C170.484 201.396 176.484 201.7 182.877 203.633C190.237 205.853 193.47 210.89 192.577 218.743C192.536 219.095 192.39 219.426 192.158 219.695C191.927 219.964 191.62 220.158 191.277 220.253C190.544 220.453 189.394 220.426 187.827 220.173C180.887 219.026 173.56 217.896 165.847 216.783Z" fill="#ACA978"/>
<path d="M101.617 215.703L98.8671 229.853L95.3571 234.433C85.8071 227.843 75.767 221.373 64.427 218.823L57.707 217.263C72.1137 212.656 86.7504 212.136 101.617 215.703Z" fill="#495E3D"/>
<path d="M153.357 260.113C149.297 260.38 145.333 260.953 141.467 261.833C139.253 262.333 135.157 262.486 129.177 262.293C126.497 262.206 121.01 261.819 112.717 261.133C112.517 261.259 112.597 261.28 112.957 261.193C113.035 261.175 113.106 261.131 113.157 261.068C113.208 261.006 113.236 260.928 113.237 260.847C113.239 260.766 113.212 260.687 113.163 260.623C113.114 260.559 113.045 260.513 112.967 260.493C111.407 260.073 110.067 259.743 108.617 258.743C105.63 256.69 102.64 255.12 99.6465 254.033L102.307 250.083C109.16 253.29 114.143 255.116 117.256 255.563C124.663 256.636 131.843 256.89 138.797 256.323C140.957 256.143 143.493 255.556 146.406 254.563C146.535 254.524 146.643 254.438 146.707 254.323L153.026 243.363C153.082 243.268 153.109 243.16 153.104 243.05C153.098 242.94 153.061 242.835 152.996 242.746C152.931 242.658 152.841 242.591 152.738 242.553C152.635 242.515 152.523 242.508 152.417 242.533C143.023 244.7 134.12 245.083 125.707 243.683C122.813 243.203 117.666 241.346 110.266 238.113C109.765 237.893 109.333 237.54 109.018 237.095C108.702 236.649 108.515 236.126 108.477 235.583L108.457 235.413C108.442 235.217 108.477 235.021 108.559 234.842C108.641 234.663 108.766 234.508 108.923 234.39C109.081 234.273 109.265 234.196 109.46 234.169C109.654 234.141 109.853 234.164 110.036 234.233C118.163 237.313 126.477 238.853 134.977 238.853C141.357 238.853 147.946 236.773 153.656 234.773C154.069 234.629 154.419 234.347 154.646 233.973C154.874 233.599 154.966 233.158 154.906 232.723L153.727 224.363C153.714 224.284 153.686 224.208 153.645 224.141C153.603 224.073 153.548 224.014 153.484 223.969C153.419 223.923 153.346 223.891 153.27 223.874C153.193 223.858 153.113 223.857 153.036 223.873C142.91 225.94 133.79 226.26 125.677 224.833C122.27 224.233 117.74 222.876 112.087 220.763C111.555 220.565 111.103 220.198 110.801 219.719C110.499 219.24 110.364 218.676 110.417 218.113L110.437 217.893C110.457 217.663 110.529 217.441 110.646 217.244C110.764 217.046 110.926 216.877 111.118 216.75C111.31 216.623 111.529 216.541 111.757 216.511C111.985 216.48 112.218 216.501 112.437 216.573C125.023 220.686 138.5 220.97 152.867 217.423C155.247 216.836 156.777 216.353 157.457 215.973C158.003 224.12 157.88 232.443 157.087 240.943C156.473 247.51 155.23 253.9 153.357 260.113Z" fill="#C6AA68"/>
<path d="M57.7068 217.263L64.4268 218.823L63.4668 218.973C63.2937 219.099 63.1542 219.266 63.0607 219.459C62.9671 219.652 62.9223 219.865 62.9302 220.079C62.9381 220.293 62.9984 220.502 63.106 220.688C63.2135 220.873 63.3648 221.03 63.5468 221.143C66.7068 223.096 70.1668 224.506 73.9268 225.373C74.0162 225.392 74.0983 225.437 74.1632 225.501C74.2281 225.566 74.2732 225.648 74.2932 225.737C74.3132 225.827 74.3071 225.92 74.2759 226.006C74.2446 226.092 74.1895 226.167 74.1168 226.223C71.7768 228.076 70.9134 230.589 71.5267 233.763C72.0967 236.703 77.2368 238.233 79.5468 238.513C84.3868 239.119 88.9667 238.536 93.2867 236.763C92.0667 239.676 90.1101 241.71 87.4167 242.863C83.3567 244.603 76.6768 245.123 72.9268 242.043C69.6134 239.33 67.5601 237.3 66.7667 235.953C65.4534 233.72 63.7402 230.536 61.6268 226.403C60.5668 224.336 57.9867 221.82 53.8867 218.853L57.7068 217.263Z" fill="#829A4D"/>
<path d="M53.887 218.853C57.987 221.82 60.5671 224.336 61.6271 226.403C63.7404 230.536 65.4536 233.72 66.767 235.953C67.5603 237.3 69.6137 239.33 72.927 242.043C76.677 245.123 83.357 244.603 87.417 242.863C90.1103 241.71 92.067 239.676 93.287 236.763C94.6137 235.889 95.3037 235.113 95.3571 234.433L98.8671 229.853C99.2571 235.423 97.3771 238.963 96.4971 243.883C96.3979 244.445 96.1978 244.98 95.907 245.463C93.467 249.483 90.607 252.773 87.327 255.333C70.937 249.513 55.997 239.613 42.917 228.393L42.457 226.663C45.9504 222.683 49.7603 220.08 53.887 218.853Z" fill="#688043"/>
<path d="M64.4272 218.823C75.7672 221.373 85.8072 227.843 95.3572 234.433C95.3039 235.113 94.6138 235.889 93.2871 236.763C88.9671 238.536 84.3872 239.119 79.5472 238.513C77.2372 238.233 72.0971 236.703 71.5271 233.763C70.9138 230.589 71.7772 228.076 74.1172 226.223C74.1899 226.167 74.245 226.092 74.2763 226.006C74.3075 225.92 74.3136 225.827 74.2936 225.737C74.2736 225.648 74.2285 225.566 74.1636 225.501C74.0987 225.437 74.0166 225.392 73.9272 225.373C70.1672 224.506 66.7072 223.096 63.5472 221.143C63.3652 221.03 63.2139 220.873 63.1064 220.688C62.9988 220.502 62.9385 220.293 62.9306 220.079C62.9227 219.865 62.9675 219.652 63.0611 219.459C63.1546 219.266 63.2941 219.099 63.4672 218.973L64.4272 218.823Z" fill="#E2A35E"/>
<path d="M186.547 224.673C189.917 225.663 193.637 226.653 194.357 230.173C187.967 238.743 176.887 237.723 168.497 233.813C167.431 233.32 166.734 232.403 166.407 231.063L186.547 224.673Z" fill="#E2A35E"/>
<path d="M112.717 261.133C106.844 260.813 101.671 259.609 97.1973 257.523L99.6472 254.033C102.641 255.12 105.631 256.69 108.617 258.743C110.067 259.743 111.407 260.073 112.967 260.493C113.046 260.513 113.115 260.559 113.164 260.623C113.213 260.687 113.239 260.766 113.238 260.847C113.237 260.928 113.209 261.006 113.158 261.068C113.107 261.131 113.036 261.175 112.957 261.193C112.597 261.28 112.517 261.259 112.717 261.133Z" fill="#E5CBAC"/>
</svg>
