<svg width="264" height="283" viewBox="0 0 264 283" fill="none" xmlns="http://www.w3.org/2000/svg">
<path d="M27.669 35.0063L29.239 45.3263C24.1257 47.6463 19.9656 46.5896 16.7589 42.1563C13.9589 38.2763 11.5723 35.6729 9.59895 34.3463C8.69895 29.0129 9.04231 23.3196 10.629 17.2663C11.849 13.1163 15.879 0.75628 20.829 0.00628047C20.9637 -0.0122923 21.1009 0.0105553 21.2223 0.0718017C21.3437 0.133048 21.4436 0.229784 21.5087 0.349161C21.5738 0.468538 21.601 0.604903 21.5868 0.740137C21.5726 0.87537 21.5175 1.00307 21.429 1.10627C21.249 1.30627 20.0957 4.60294 17.969 10.9963C17.2357 13.1896 16.6923 16.6263 16.339 21.3063C15.739 29.1863 17.6789 35.4263 22.5189 41.3063C22.5567 41.3546 22.6069 41.3919 22.6641 41.414C22.7213 41.4362 22.7833 41.4425 22.8438 41.4323C22.9042 41.422 22.9609 41.3956 23.0076 41.3558C23.0543 41.316 23.0893 41.2644 23.109 41.2063L25.949 33.0263C26.0044 32.8718 26.1098 32.7395 26.2482 32.6504C26.3866 32.5612 26.5503 32.5203 26.7133 32.5341C26.8763 32.5478 27.0292 32.6155 27.148 32.7264C27.2667 32.8373 27.3446 32.9851 27.369 33.1463L27.669 35.0063Z" fill="#83604A"/>
<path d="M250.849 10.2462L253.679 19.5362L254.579 26.7762C254.393 26.5095 254.219 26.3695 254.059 26.3562C253.679 26.3295 253.453 26.5229 253.379 26.9362C252.459 31.9962 252.069 35.1462 249.439 38.7462C245.279 44.4562 241.369 50.0162 233.539 50.8062C233.412 50.821 233.295 50.8822 233.21 50.9782C233.125 51.0741 233.079 51.1981 233.079 51.3262C233.073 61.1129 232.886 66.8062 232.519 68.4062C230.453 77.4462 227.203 85.3729 222.769 92.1862C222.694 92.3038 222.663 92.4447 222.683 92.5831C222.703 92.7214 222.773 92.8479 222.878 92.9392C222.984 93.0305 223.12 93.0804 223.26 93.0799C223.399 93.0793 223.534 93.0283 223.639 92.9362L233.039 84.7462C233.398 84.4273 233.717 84.0681 233.989 83.6762C235.856 80.9362 237.153 77.9495 237.879 74.7162L239.519 78.0362C239.631 78.2639 239.796 78.4613 240 78.6114C240.204 78.7615 240.442 78.86 240.692 78.8983C240.943 78.9366 241.199 78.9137 241.439 78.8315C241.679 78.7493 241.895 78.6102 242.069 78.4262C244.443 75.9195 246.346 72.8995 247.779 69.3662L249.639 65.2362C250.033 64.9362 250.409 64.6728 250.769 64.4462C251.296 64.1128 251.686 64.2929 251.939 64.9862C251.766 69.6995 250.566 74.2262 248.339 78.5662L246.759 82.0162C246.624 82.307 246.595 82.6365 246.679 82.9462C248.099 88.3862 250.313 93.4862 253.319 98.2462V100.266L245.599 83.6762L245.329 82.8662C245.304 82.7902 245.263 82.7203 245.209 82.6613C245.155 82.6024 245.089 82.5557 245.016 82.5244C244.943 82.4931 244.865 82.478 244.786 82.48C244.707 82.482 244.63 82.5012 244.559 82.5362C242.639 83.4762 241.359 84.2362 240.719 84.8162C233.813 91.0428 226.853 95.9895 219.839 99.6562C216.413 101.45 210.249 104.17 201.349 107.816C198.089 109.156 194.369 110.136 190.809 111.396C190.754 111.416 190.693 111.416 190.637 111.397C190.581 111.378 190.533 111.34 190.502 111.29C190.47 111.239 190.457 111.18 190.464 111.121C190.471 111.062 190.497 111.008 190.539 110.966L196.189 105.006C199.603 103.513 202.749 101.926 205.629 100.246C207.729 99.0262 209.736 97.4295 211.649 95.4562C222.509 84.2362 226.729 68.4162 224.809 53.2262C224.429 50.2128 222.753 47.0329 219.779 43.6862C215.286 38.9262 210.826 34.0562 206.399 29.0762C205.406 27.9629 204.826 26.7828 204.659 25.5362C204.647 25.4364 204.66 25.3353 204.695 25.2412C204.73 25.1471 204.787 25.0628 204.861 24.9953C204.936 24.9277 205.025 24.879 205.122 24.853C205.219 24.8271 205.321 24.8247 205.419 24.8462C207.709 25.3662 209.509 26.4262 211.199 28.2062C214.386 31.5395 217.443 34.0962 220.369 35.8762C220.458 35.9295 220.558 35.9584 220.662 35.9598C220.765 35.9612 220.866 35.935 220.956 35.8841C221.045 35.8332 221.12 35.7592 221.172 35.67C221.223 35.5807 221.25 35.4793 221.249 35.3762C221.229 33.9162 220.936 32.2329 220.369 30.3262C217.509 20.7862 213.299 13.8962 207.899 5.46619C207.339 4.58619 207.136 3.51952 207.289 2.26619C207.304 2.14953 207.35 2.03907 207.423 1.94656C207.495 1.85406 207.592 1.78298 207.702 1.74091C207.812 1.69883 207.931 1.68732 208.046 1.70763C208.162 1.72793 208.27 1.77927 208.359 1.85619C221.439 13.3862 231.419 29.8162 234.229 47.3262C234.241 47.3751 234.269 47.4185 234.309 47.4492C234.349 47.4798 234.398 47.4959 234.448 47.4948C234.499 47.4936 234.547 47.4752 234.585 47.4427C234.624 47.4102 234.65 47.3656 234.659 47.3162L236.529 33.1362C236.544 33.004 236.603 32.8806 236.696 32.786C236.789 32.6914 236.912 32.6311 237.044 32.6149C237.176 32.5986 237.309 32.6275 237.423 32.6967C237.537 32.7659 237.623 32.8715 237.669 32.9962L240.679 40.6662C240.714 40.7521 240.77 40.8279 240.842 40.8864C240.913 40.9448 240.999 40.984 241.089 41.0001C241.18 41.0162 241.272 41.0086 241.358 40.9781C241.444 40.9477 241.52 40.8954 241.579 40.8262C250.109 31.0962 247.789 16.0262 243.609 4.56619C243.583 4.49994 243.566 4.42919 243.559 4.35619L243.069 1.19618C243.037 0.976104 243.078 0.750969 243.186 0.555863C243.294 0.360756 243.463 0.206651 243.666 0.1176C243.869 0.0285484 244.095 0.00955684 244.309 0.0635685C244.523 0.11758 244.713 0.241555 244.849 0.416184C247.443 3.69618 249.443 6.97285 250.849 10.2462Z" fill="#83604A"/>
<path d="M57.9396 27.9961C54.3329 32.6561 49.9829 37.7327 44.8895 43.2261C42.5695 45.7261 40.5963 48.7027 38.9696 52.1561C37.4629 62.5761 38.7829 72.5061 42.9296 81.9461C44.9229 86.4927 47.8829 90.5594 51.8096 94.1461C56.0229 97.9861 60.7229 101.016 65.9096 103.236L71.1896 110.596C71.2232 110.645 71.2403 110.704 71.2383 110.763C71.2363 110.823 71.2154 110.88 71.1786 110.927C71.1418 110.974 71.0911 111.008 71.0337 111.024C70.9763 111.04 70.9154 111.037 70.8596 111.016C67.753 109.743 64.8363 108.659 62.1096 107.766C45.6896 102.376 30.4596 92.2961 18.2196 80.2861C18.1546 80.223 18.0746 80.1773 17.9873 80.1532C17.9001 80.1292 17.8085 80.1276 17.7212 80.1487C17.6339 80.1698 17.554 80.2128 17.4889 80.2736C17.4238 80.3344 17.3759 80.411 17.3496 80.4961L17.1395 81.1161L15.0096 77.0261L12.1796 68.6961L12.0196 64.3461C12.0117 64.2134 12.0488 64.0819 12.1249 63.973C12.201 63.864 12.3117 63.784 12.439 63.7458C12.5663 63.7076 12.7028 63.7135 12.8263 63.7626C12.9498 63.8116 13.0532 63.9009 13.1196 64.0161L15.7596 68.2961C17.9096 73.1861 20.6596 77.8761 25.2096 80.9361C25.2653 80.9734 25.3302 80.9945 25.3972 80.9969C25.4642 80.9993 25.5305 80.983 25.5888 80.9497C25.647 80.9165 25.6948 80.8676 25.7267 80.8086C25.7586 80.7497 25.7735 80.683 25.7695 80.6161L25.5195 77.3361C27.9095 82.8361 32.4796 86.1861 37.2396 89.6761C37.5063 89.8694 37.7463 89.8427 37.9596 89.5961C38.1529 89.3694 38.1862 89.0961 38.0596 88.7761C35.0596 81.3761 33.0995 74.4461 32.7695 66.2161C32.4829 59.1227 32.4829 52.8361 32.7695 47.3561C32.7787 47.182 32.7347 47.0093 32.6434 46.8608C32.5522 46.7123 32.418 46.595 32.2586 46.5246C32.0991 46.4541 31.9221 46.4337 31.7509 46.4661C31.5796 46.4985 31.4222 46.5822 31.2996 46.7061L30.2196 47.7761C30.1757 47.8221 30.1219 47.8575 30.0621 47.8798C30.0024 47.9021 29.9381 47.9107 29.874 47.905C29.8099 47.8992 29.7476 47.8793 29.6915 47.8466C29.6354 47.814 29.5869 47.7694 29.5496 47.7161C29.1362 47.1161 29.0096 46.3627 29.1696 45.4561C29.4962 45.6694 29.6796 45.6394 29.7196 45.3661C29.9863 43.6727 30.2996 41.9894 30.6596 40.3161C31.4696 36.5461 33.2796 32.8261 34.8096 29.2261C40.1696 19.0061 46.4196 9.69606 55.2896 2.13606C55.4074 2.03405 55.5505 1.96557 55.7039 1.93778C55.8572 1.90998 56.0152 1.92389 56.1614 1.97806C56.3075 2.03222 56.4364 2.12465 56.5346 2.24568C56.6328 2.36671 56.6967 2.51189 56.7196 2.66606C56.8596 3.59273 56.6163 4.56273 55.9896 5.57607C49.9996 15.3161 44.0896 23.5361 42.3696 32.6561C42.2763 33.1427 42.2862 33.5727 42.3995 33.9461C42.4693 34.1777 42.5948 34.3886 42.765 34.5605C42.9352 34.7324 43.145 34.8599 43.3759 34.9319C43.6068 35.004 43.8519 35.0183 44.0896 34.9737C44.3273 34.9291 44.5505 34.8269 44.7396 34.6761C46.0196 33.6561 49.0829 30.9361 53.9296 26.5161C54.7629 25.7561 56.0229 24.9161 57.7096 23.9961C57.8724 23.9075 58.0567 23.8664 58.2417 23.8775C58.4267 23.8885 58.6049 23.9513 58.756 24.0586C58.9071 24.166 59.025 24.3135 59.0963 24.4845C59.1677 24.6556 59.1896 24.8432 59.1596 25.0261C59.0196 25.9127 58.6129 26.9027 57.9396 27.9961Z" fill="#83604A"/>
<path d="M219.779 43.6864C222.753 47.033 224.429 50.213 224.809 53.2263C226.729 68.4163 222.509 84.2363 211.649 95.4563C209.736 97.4297 207.729 99.0264 205.629 100.246C202.749 101.926 199.603 103.513 196.189 105.006C200.223 98.813 202.686 92.4197 203.579 85.8263C204.313 77.6863 202.62 69.8363 198.5 62.2763C198.457 62.2024 198.389 62.1466 198.308 62.1195C198.227 62.0923 198.139 62.0956 198.06 62.1288C197.982 62.1619 197.918 62.2227 197.881 62.2996C197.844 62.3765 197.836 62.4642 197.86 62.5463C198.6 65.0063 198.99 66.9663 198.75 69.8863C198.59 71.8463 198.519 73.823 198.539 75.8163C198.679 87.4063 191.679 100.146 181.829 106.426C175.839 110.246 171.65 113.166 165.59 114.086C166.763 110.266 167.789 106.476 168.669 102.716C170.149 96.4164 170.106 89.9763 168.539 83.3963C168.353 81.2297 167.713 79.1997 166.62 77.3063C164.493 73.6063 162.676 70.433 161.169 67.7863C161.119 67.701 161.04 67.6355 160.946 67.6016C160.852 67.5677 160.75 67.5675 160.657 67.6012C160.565 67.6349 160.488 67.7002 160.441 67.7855C160.393 67.8707 160.379 67.9703 160.399 68.0663L162.909 80.7363C163.087 81.6312 163.06 82.5511 162.829 83.4263C162.209 85.813 162.029 88.273 162.289 90.8064C162.463 97.1864 160.856 103.6 157.47 110.046C153.07 118.426 149.953 124.053 148.12 126.926C146.506 127.393 145.019 128.12 143.659 129.106C137.799 130.82 132.096 131.35 126.549 130.696C124.703 130.483 122.673 129.966 120.459 129.146L115.09 126.206C114.283 125.206 113.666 124.293 113.24 123.466C107.88 113.076 101.489 102.636 100.519 90.7363C100.713 82.343 101.913 74.1363 104.12 66.1163C104.137 66.0562 104.132 65.9918 104.105 65.9351C104.079 65.8783 104.033 65.833 103.976 65.8075C103.918 65.782 103.854 65.7779 103.794 65.7961C103.734 65.8142 103.683 65.8534 103.649 65.9064C102.609 67.5664 101.443 69.073 100.149 70.4263C99.9168 70.6657 99.7122 70.9272 99.5395 71.2063C96.9195 75.3797 95.1194 79.7663 94.1394 84.3663C92.6994 91.7663 92.9928 98.543 95.0194 104.696C96.4394 109.023 97.4195 112.206 97.9595 114.246C90.2262 111.666 83.3595 107.7 77.3595 102.346C74.4129 99.7263 71.9694 96.7597 70.0294 93.4463C66.7094 87.7763 63.3994 77.6063 64.2694 70.7363C64.6761 67.543 65.3928 64.5897 66.4195 61.8763C66.4413 61.8125 66.4417 61.7433 66.4207 61.6792C66.3996 61.6152 66.3583 61.5597 66.3029 61.5213C66.2475 61.4828 66.1811 61.4635 66.1137 61.4662C66.0463 61.4689 65.9816 61.4935 65.9295 61.5363C63.8295 63.3563 62.6595 67.4164 61.6795 69.9664C60.8461 72.113 60.2894 73.943 60.0094 75.4563C59.3294 79.1297 59.2829 82.6297 59.8695 85.9563C60.7229 91.9097 62.7361 97.6697 65.9094 103.236C60.7228 101.016 56.0228 97.9863 51.8095 94.1463C47.8828 90.5597 44.9228 86.493 42.9295 81.9463C38.7828 72.5063 37.4628 62.5764 38.9695 52.1564L38.8195 58.3663C38.816 58.4685 38.8419 58.5693 38.8943 58.6569C38.9467 58.7445 39.0234 58.8155 39.1155 58.8615C39.2076 58.9076 39.3113 58.9268 39.4147 58.917C39.518 58.9073 39.6168 58.8689 39.6995 58.8063L62.7794 40.7463C72.3394 35.133 80.7661 31.113 88.0595 28.6864C96.8528 25.7664 108.319 23.6597 122.459 22.3663C139.939 20.7597 157.276 22.6364 174.47 27.9964C178.29 29.1864 180.919 30.5363 185.519 32.3963C193.819 35.7563 200.1 39.2097 204.36 42.7563C207.326 45.223 209.566 46.853 211.079 47.6463C211.387 47.8099 211.643 48.0518 211.819 48.3463C212.093 48.813 212.576 49.1197 213.269 49.2663C217.989 50.2563 221.469 49.7564 219.779 43.6864Z" fill="#ACA978"/>
<path d="M254.579 26.7764C255.312 33.9764 253.622 40.3398 249.509 45.8664C245.909 50.6998 243.312 54.4398 241.719 57.0864C241.547 57.3713 241.422 57.6855 241.349 58.0164L237.879 74.7164C237.152 77.9498 235.856 80.9364 233.989 83.6764C233.717 84.0683 233.398 84.4275 233.039 84.7464L223.639 92.9364C223.534 93.0286 223.399 93.0796 223.259 93.0801C223.119 93.0807 222.984 93.0307 222.878 92.9394C222.772 92.8482 222.703 92.7217 222.683 92.5833C222.663 92.445 222.693 92.304 222.769 92.1864C227.202 85.3731 230.452 77.4464 232.519 68.4064C232.885 66.8064 233.072 61.1131 233.079 51.3264C233.078 51.1983 233.124 51.0744 233.209 50.9784C233.294 50.8824 233.412 50.8212 233.539 50.8064C241.369 50.0164 245.279 44.4564 249.439 38.7464C252.069 35.1464 252.459 31.9964 253.379 26.9364C253.452 26.5231 253.679 26.3298 254.059 26.3564C254.219 26.3698 254.392 26.5098 254.579 26.7764Z" fill="#614739"/>
<path d="M29.2397 45.3262C29.2197 45.3729 29.1963 45.4162 29.1696 45.4562C29.0096 46.3629 29.1363 47.1162 29.5496 47.7162C29.587 47.7695 29.6355 47.8141 29.6916 47.8468C29.7477 47.8794 29.81 47.8994 29.8741 47.9051C29.9382 47.9108 30.0024 47.9023 30.0622 47.88C30.1219 47.8577 30.1757 47.8222 30.2197 47.7762L31.2996 46.7062C31.4222 46.5823 31.5797 46.4987 31.7509 46.4662C31.9222 46.4338 32.0992 46.4542 32.2586 46.5247C32.418 46.5952 32.5522 46.7124 32.6435 46.8609C32.7348 47.0094 32.7787 47.1821 32.7696 47.3562C32.4829 52.8362 32.4829 59.1229 32.7696 66.2162C33.0996 74.4462 35.0596 81.3762 38.0596 88.7762C38.1863 89.0962 38.153 89.3695 37.9597 89.5962C37.7463 89.8429 37.5064 89.8695 37.2397 89.6762C32.4797 86.1862 27.9096 82.8362 25.5196 77.3362C24.2796 68.5095 23.4529 62.8762 23.0396 60.4362C22.5096 57.3062 21.0196 54.5262 18.8196 51.6862C14.1196 45.6762 10.7096 41.6662 9.59961 34.3462C11.5729 35.6729 13.9596 38.2762 16.7596 42.1562C19.9662 46.5896 24.1264 47.6462 29.2397 45.3262Z" fill="#614739"/>
<path d="M97.9595 114.246C98.6928 114.253 98.9495 115.186 98.7295 117.046C98.7128 117.198 98.6455 117.34 98.5385 117.448C98.4315 117.557 98.2909 117.627 98.1394 117.646C96.1728 117.906 94.4162 117.82 92.8695 117.386C84.7029 115.086 78.1129 110.86 73.0995 104.706C71.6329 102.906 70.3661 101.376 69.2995 100.116C67.0461 97.4696 65.8328 95.8662 65.6595 95.3062C64.4461 91.4196 62.5162 88.3029 59.8695 85.9562C59.2829 82.6296 59.3294 79.1296 60.0094 75.4562C60.2894 73.9429 60.8461 72.1129 61.6795 69.9662C62.6595 67.4162 63.8295 63.3562 65.9295 61.5362C65.9816 61.4934 66.0463 61.4688 66.1137 61.4661C66.1811 61.4633 66.2475 61.4827 66.3029 61.5211C66.3583 61.5596 66.3997 61.615 66.4207 61.6791C66.4417 61.7432 66.4413 61.8124 66.4195 61.8762C65.3928 64.5895 64.6761 67.5429 64.2694 70.7362C63.3994 77.6062 66.7095 87.7762 70.0295 93.4462C71.9695 96.7595 74.4129 99.7262 77.3595 102.346C83.3595 107.7 90.2262 111.666 97.9595 114.246Z" fill="#73572D"/>
<path d="M203.579 85.8262C200.449 87.8362 199.419 91.5162 198.149 94.9562C197.349 97.1228 195.846 99.5462 193.639 102.226C188.612 108.346 182.206 112.933 174.419 115.986C171.059 117.306 168.116 117.943 165.589 117.896C165.513 117.894 165.438 117.876 165.369 117.843C165.301 117.81 165.24 117.762 165.192 117.703C165.144 117.644 165.108 117.576 165.089 117.502C165.069 117.428 165.066 117.351 165.079 117.276L165.589 114.086C171.649 113.166 175.839 110.246 181.829 106.426C191.679 100.146 198.679 87.4062 198.539 75.8162C198.519 73.8228 198.589 71.8462 198.749 69.8862C198.989 66.9662 198.599 65.0062 197.859 62.5462C197.836 62.4641 197.843 62.3763 197.88 62.2994C197.917 62.2225 197.981 62.1618 198.06 62.1286C198.138 62.0954 198.226 62.0921 198.307 62.1193C198.388 62.1465 198.456 62.2023 198.499 62.2762C202.619 69.8362 204.312 77.6862 203.579 85.8262Z" fill="#6E5242"/>
<path d="M100.519 90.7361L100.409 86.8561C100.4 86.552 100.324 86.264 100.189 86.0263C100.054 85.7887 99.8666 85.6116 99.6487 85.5161C99.122 85.2828 98.7487 84.6161 98.5287 83.5161C98.5204 83.4742 98.4989 83.4361 98.4674 83.4073C98.4359 83.3785 98.396 83.3605 98.3535 83.3561C98.311 83.3516 98.2682 83.3608 98.2313 83.3824C98.1945 83.404 98.1655 83.4369 98.1487 83.4761L96.4888 87.5561C96.4372 87.7019 96.3337 87.8235 96.1982 87.898C96.0627 87.9724 95.9046 87.9945 95.7539 87.9599C95.6032 87.9253 95.4706 87.8365 95.3811 87.7104C95.2916 87.5843 95.2516 87.4298 95.2687 87.2761C95.4353 84.7761 95.0587 83.8061 94.1387 84.3661C95.1187 79.7661 96.9187 75.3795 99.5387 71.2061C99.7115 70.927 99.916 70.6654 100.149 70.4261C101.442 69.0728 102.609 67.5661 103.649 65.9061C103.682 65.8532 103.733 65.814 103.793 65.7958C103.853 65.7777 103.918 65.7818 103.975 65.8073C104.032 65.8328 104.078 65.8781 104.104 65.9349C104.131 65.9916 104.136 66.0559 104.119 66.1161C101.912 74.1361 100.712 82.3428 100.519 90.7361ZM101.73 71.2015C101.754 71.1368 101.751 71.0653 101.722 71.0027C101.693 70.9402 101.64 70.8917 101.575 70.868L100.73 70.5587C100.665 70.535 100.594 70.538 100.531 70.5671C100.469 70.5961 100.42 70.6488 100.397 70.7135L95.8672 83.0907C95.8435 83.1555 95.8466 83.227 95.8756 83.2895C95.9046 83.3521 95.9572 83.4005 96.022 83.4242L96.8672 83.7335C96.9319 83.7572 97.0035 83.7542 97.066 83.7252C97.1286 83.6962 97.177 83.6435 97.2007 83.5787L101.73 71.2015Z" fill="#966841"/>
<path d="M168.539 83.3962L167.369 87.9562C167.354 88.0325 167.313 88.1011 167.253 88.1502C167.193 88.1992 167.117 88.2254 167.04 88.2242C166.962 88.223 166.887 88.1945 166.829 88.1436C166.77 88.0928 166.731 88.0229 166.719 87.9462L165.889 84.0462C165.843 83.8212 165.727 83.6163 165.559 83.4603C165.39 83.3043 165.177 83.2049 164.949 83.1762H164.899C164.791 83.1777 164.684 83.2035 164.587 83.2518C164.49 83.3 164.406 83.3695 164.34 83.455C164.273 83.5405 164.227 83.6399 164.204 83.7457C164.182 83.8515 164.183 83.9611 164.209 84.0662C164.942 86.9262 165.122 89.7562 164.749 92.5562C164.742 92.6199 164.711 92.6785 164.663 92.721C164.615 92.7634 164.553 92.7866 164.489 92.7862H164.219C164.148 92.786 164.079 92.7702 164.015 92.7401C163.951 92.7099 163.895 92.666 163.85 92.6116C163.805 92.5572 163.773 92.4935 163.755 92.4252C163.738 92.3568 163.736 92.2855 163.749 92.2162C164.042 90.6696 163.822 89.3295 163.089 88.1962C163.054 88.1454 163.003 88.1076 162.945 88.0885C162.886 88.0694 162.823 88.0702 162.765 88.0907C162.707 88.1112 162.657 88.1503 162.623 88.2019C162.59 88.2535 162.574 88.3148 162.579 88.3762C162.652 89.1762 162.556 89.9862 162.289 90.8062C162.029 88.2729 162.209 85.8129 162.829 83.4262C163.059 82.551 163.087 81.6311 162.909 80.7362L160.399 68.0662C160.378 67.9701 160.393 67.8706 160.44 67.7854C160.487 67.7001 160.564 67.6348 160.657 67.6011C160.749 67.5674 160.852 67.5675 160.946 67.6015C161.04 67.6354 161.119 67.7009 161.169 67.7862C162.676 70.4329 164.492 73.6062 166.619 77.3062C167.712 79.1996 168.352 81.2296 168.539 83.3962Z" fill="#966841"/>
<path d="M101.576 70.8681L100.73 70.5588C100.596 70.5095 100.446 70.5788 100.397 70.7136L95.8675 83.0909C95.8182 83.2258 95.8875 83.3751 96.0224 83.4244L96.8675 83.7337C97.0024 83.7831 97.1517 83.7138 97.2011 83.5789L101.73 71.2016C101.78 71.0668 101.711 70.9175 101.576 70.8681Z" fill="#938D60"/>
<path d="M17.1392 81.1164C20.0258 85.3297 22.6225 88.553 24.9292 90.7863C31.2692 96.9197 39.1825 102.91 48.6692 108.756C58.5092 114.816 69.6592 118.176 81.0892 123.116C87.4026 125.843 93.0892 129.733 98.1492 134.786C98.4492 135.086 98.5993 135.573 98.5993 136.246L97.1093 142.326C92.3493 137.893 87.2825 134.18 81.9092 131.186C73.1892 126.326 62.6593 123.786 52.4993 121.206C48.7193 120.246 45.1592 119.8 41.8192 119.866C41.5055 119.873 41.2007 119.966 40.9392 120.136C38.4092 121.716 40.6992 128.556 41.5492 130.706C34.3492 136.66 28.4725 140.94 23.9192 143.546C14.6192 148.866 7.94919 154.026 1.59919 162.376C1.40615 162.633 1.31692 162.955 1.34919 163.276L2.95923 180.476C1.0659 171.256 0.0825545 161.95 0.00922115 152.556C-0.0907788 143.203 0.622569 135.09 2.14924 128.216C4.1559 119.176 5.55257 113.61 6.33924 111.516C7.06924 109.556 7.84923 107.526 8.32923 105.416C9.5959 99.7964 11.3492 94.2297 13.5892 88.7164C14.6092 86.2097 15.0826 82.313 15.0092 77.0264L17.1392 81.1164Z" fill="#ACA978"/>
<path d="M65.9087 103.236C62.7354 97.6697 60.7221 91.9097 59.8688 85.9564C62.5154 88.303 64.4454 91.4197 65.6587 95.3064C65.832 95.8664 67.0454 97.4697 69.2987 100.116C70.3654 101.376 71.6321 102.906 73.0988 104.706C78.1121 110.86 84.7021 115.086 92.8688 117.386C94.4154 117.82 96.172 117.906 98.1387 117.646C98.2901 117.627 98.4307 117.557 98.5377 117.449C98.6447 117.34 98.712 117.198 98.7288 117.046C98.9488 115.186 98.6921 114.253 97.9587 114.246C97.4187 112.206 96.4387 109.023 95.0187 104.696C92.992 98.543 92.6987 91.7664 94.1387 84.3664C95.0587 83.8064 95.4353 84.7764 95.2687 87.2764C95.2516 87.43 95.2916 87.5846 95.3811 87.7107C95.4706 87.8368 95.6032 87.9255 95.7539 87.9601C95.9046 87.9947 96.0627 87.9727 96.1982 87.8982C96.3337 87.8238 96.4372 87.7021 96.4888 87.5564L98.1487 83.4764C98.1655 83.4371 98.1945 83.4043 98.2313 83.3827C98.2682 83.3611 98.311 83.3518 98.3535 83.3563C98.396 83.3608 98.4359 83.3787 98.4674 83.4075C98.4989 83.4363 98.5204 83.4745 98.5287 83.5164C98.7487 84.6164 99.122 85.283 99.6487 85.5164C99.8666 85.6119 100.054 85.789 100.189 86.0266C100.324 86.2642 100.4 86.5523 100.409 86.8564L100.519 90.7364C101.489 102.636 107.879 113.076 113.239 123.466C113.665 124.293 114.282 125.206 115.089 126.206C114.015 126.926 112.825 127.546 111.519 128.066C111.306 128.153 111.102 128.257 110.909 128.376L98.5988 136.246C98.5988 135.573 98.4487 135.086 98.1487 134.786C93.0887 129.733 87.4021 125.843 81.0887 123.116C69.6587 118.176 58.5087 114.816 48.6687 108.756C39.182 102.91 31.2687 96.9197 24.9287 90.7864C22.622 88.553 20.0253 85.3297 17.1387 81.1164L17.3488 80.4964C17.375 80.4113 17.423 80.3347 17.488 80.2739C17.5531 80.2131 17.6331 80.1701 17.7203 80.149C17.8076 80.1279 17.8992 80.1295 17.9865 80.1535C18.0737 80.1776 18.1537 80.2233 18.2188 80.2864C30.4587 92.2964 45.6888 102.376 62.1088 107.766C64.8354 108.66 67.7521 109.743 70.8588 111.016C70.9145 111.037 70.9755 111.04 71.0328 111.024C71.0902 111.008 71.1409 110.974 71.1777 110.927C71.2145 110.881 71.2355 110.823 71.2374 110.764C71.2394 110.704 71.2223 110.646 71.1887 110.596L65.9087 103.236Z" fill="#4A2C1F"/>
<path d="M245.599 83.6764C245.499 83.7897 245.399 83.9064 245.299 84.0264C244.986 84.2397 244.789 84.5497 244.709 84.9564C239.189 92.0164 232.732 98.0097 225.339 102.936C217.786 107.963 211.532 111.453 206.579 113.406C198.359 116.646 190.186 119.963 182.059 123.356C175.179 126.236 169.256 130.31 164.289 135.576C164.409 135.696 164.352 135.773 164.119 135.806C164.002 135.819 163.886 135.795 163.789 135.736L148.119 126.926C149.952 124.053 153.069 118.426 157.469 110.046C160.856 103.6 162.462 97.1864 162.289 90.8064C162.556 89.9864 162.652 89.1763 162.579 88.3763C162.574 88.3149 162.59 88.2536 162.624 88.202C162.657 88.1504 162.707 88.1113 162.765 88.0908C162.823 88.0703 162.886 88.0695 162.945 88.0886C163.004 88.1077 163.054 88.1456 163.089 88.1963C163.822 89.3297 164.042 90.6697 163.749 92.2164C163.736 92.2857 163.738 92.357 163.755 92.4253C163.773 92.4937 163.805 92.5573 163.85 92.6117C163.895 92.6661 163.951 92.71 164.015 92.7402C164.079 92.7704 164.149 92.7861 164.219 92.7863H164.489C164.553 92.7868 164.615 92.7635 164.663 92.7211C164.711 92.6787 164.742 92.62 164.749 92.5564C165.122 89.7564 164.942 86.9263 164.209 84.0663C164.184 83.9612 164.182 83.8517 164.205 83.7458C164.227 83.64 164.273 83.5407 164.34 83.4551C164.406 83.3696 164.491 83.3002 164.588 83.2519C164.684 83.2036 164.791 83.1778 164.899 83.1764H164.949C165.177 83.2051 165.39 83.3044 165.559 83.4604C165.727 83.6165 165.843 83.8213 165.889 84.0464L166.719 87.9463C166.731 88.023 166.77 88.0929 166.829 88.1438C166.888 88.1946 166.962 88.2231 167.04 88.2243C167.118 88.2255 167.193 88.1993 167.253 88.1503C167.314 88.1013 167.355 88.0326 167.369 87.9564L168.539 83.3964C170.106 89.9764 170.149 96.4164 168.669 102.716C167.789 106.476 166.762 110.266 165.589 114.086L165.079 117.276C165.066 117.351 165.069 117.428 165.089 117.502C165.108 117.576 165.144 117.644 165.192 117.703C165.24 117.762 165.301 117.81 165.37 117.843C165.438 117.876 165.513 117.895 165.589 117.896C168.116 117.943 171.059 117.306 174.419 115.986C182.206 112.933 188.612 108.346 193.639 102.226C195.846 99.5463 197.349 97.123 198.149 94.9564C199.419 91.5164 200.449 87.8364 203.579 85.8264C202.686 92.4197 200.222 98.813 196.189 105.006L190.539 110.966C190.497 111.008 190.47 111.063 190.463 111.121C190.457 111.18 190.47 111.24 190.501 111.29C190.533 111.34 190.581 111.378 190.636 111.397C190.692 111.417 190.753 111.416 190.809 111.396C194.369 110.136 198.089 109.156 201.349 107.816C210.249 104.17 216.412 101.45 219.839 99.6564C226.852 95.9897 233.812 91.043 240.719 84.8163C241.359 84.2363 242.639 83.4763 244.559 82.5363C244.63 82.5014 244.707 82.4822 244.786 82.4802C244.865 82.4781 244.943 82.4933 245.016 82.5245C245.089 82.5558 245.155 82.6025 245.209 82.6615C245.263 82.7205 245.304 82.7903 245.329 82.8664L245.599 83.6764Z" fill="#4A2C1F"/>
<path d="M253.319 100.266C253.559 100.686 253.669 101.123 253.649 101.576L245.299 84.0263C245.399 83.9063 245.499 83.7896 245.599 83.6763L253.319 100.266Z" fill="#A29C9C"/>
<path d="M244.709 84.9561C249.769 95.0094 254.316 105.293 258.349 115.806C259.776 119.546 260.846 123.363 261.559 127.256C262.266 131.156 262.899 135.079 263.459 139.026L263.969 144.806C263.919 152.296 263.469 159.696 262.819 167.146C262.819 164.746 262.749 162.366 262.589 159.996C256.822 157.689 251.602 156.203 246.929 155.536C233.922 153.676 222.542 151.429 212.789 148.796C217.729 142.636 221.276 135.796 223.429 128.276C224.102 125.929 224.236 123.469 223.829 120.896C223.763 120.476 223.559 120.091 223.248 119.803C222.938 119.514 222.54 119.339 222.119 119.306C221.332 119.239 220.376 119.329 219.249 119.576C210.889 121.403 203.026 123.483 195.659 125.816C185.092 129.163 175.489 134.416 166.849 141.576L164.569 136.886C164.437 136.622 164.359 136.337 164.339 136.046C164.326 135.913 164.309 135.756 164.289 135.576C169.256 130.309 175.179 126.236 182.059 123.356C190.186 119.963 198.359 116.646 206.579 113.406C211.532 111.453 217.786 107.963 225.339 102.936C232.732 98.0094 239.189 92.0161 244.709 84.9561Z" fill="#ACA978"/>
<path d="M212.789 148.796C206.619 156.276 198.709 162.116 188.869 163.076C185.119 163.436 179.789 162.386 176.489 162.546C175.276 162.606 174.292 163.123 173.539 164.096C173.468 164.185 173.377 164.255 173.274 164.299C173.171 164.343 173.059 164.359 172.949 164.346L172.619 164.316L170.559 158.586C170.489 156.336 172.269 155.556 174.099 156.166C197.079 163.826 211.799 147.006 217.339 126.816C217.355 126.754 217.354 126.688 217.338 126.626C217.321 126.564 217.289 126.507 217.244 126.462C217.2 126.416 217.145 126.384 217.084 126.367C217.023 126.35 216.96 126.35 216.899 126.366L207.749 128.726C196.079 130.996 182.619 136.286 177.059 147.466C176.359 147.713 175.572 147.803 174.699 147.736L167.719 146.476C167.442 146.425 167.193 146.276 167.019 146.056C165.686 144.343 165.629 142.85 166.849 141.576C175.489 134.416 185.092 129.163 195.659 125.816C203.026 123.483 210.889 121.403 219.249 119.576C220.376 119.33 221.332 119.24 222.119 119.306C222.54 119.34 222.938 119.515 223.248 119.803C223.559 120.092 223.763 120.477 223.829 120.896C224.236 123.47 224.102 125.93 223.429 128.276C221.276 135.796 217.729 142.636 212.789 148.796Z" fill="#573D20"/>
<path d="M97.1095 142.326C98.0695 142.713 98.5728 143.63 98.6195 145.076C95.5195 147.616 91.5928 148.153 86.8394 146.686C83.4994 141.426 79.0727 137.496 73.5594 134.896C70.0327 133.236 65.5961 131.583 60.2495 129.936L47.2294 126.476C47.1597 126.459 47.0868 126.46 47.0175 126.479C46.9483 126.497 46.8851 126.533 46.8339 126.582C46.7828 126.631 46.7453 126.692 46.7253 126.76C46.7053 126.827 46.7033 126.898 46.7194 126.966C48.5528 135.6 52.4194 143.156 58.3194 149.636C61.8261 153.49 66.3194 156.09 71.7994 157.436C72.2327 159.236 71.8427 160.873 70.6294 162.346C56.0394 158.296 45.9894 144.586 41.5494 130.706C40.6994 128.556 38.4094 121.716 40.9394 120.136C41.2009 119.966 41.5057 119.873 41.8194 119.866C45.1594 119.8 48.7195 120.246 52.4995 121.206C62.6595 123.786 73.1894 126.326 81.9094 131.186C87.2827 134.18 92.3495 137.893 97.1095 142.326Z" fill="#573D20"/>
<path d="M120.459 129.146C116.506 133.899 111.583 137.879 105.689 141.086L98.6194 145.076C98.5727 143.629 98.0694 142.713 97.1094 142.326L98.5994 136.246L110.909 128.376C111.102 128.256 111.306 128.153 111.519 128.066C112.826 127.546 114.016 126.926 115.089 126.206L120.459 129.146Z" fill="#824D37"/>
<path d="M60.2488 129.936C59.9288 130.21 59.7754 130.41 59.7888 130.536C59.8421 130.983 60.0655 131.313 60.4588 131.526C64.2288 133.536 68.0188 136.116 70.5488 139.516C72.2621 141.803 73.9888 143.996 75.7288 146.096C78.0588 148.896 79.5487 150.036 83.0087 151.146C85.3887 151.906 87.2688 152.43 88.6488 152.716C87.6554 153.656 87.3688 154.833 87.7888 156.246C83.3488 158.526 78.0188 158.923 71.7988 157.436C66.3188 156.09 61.8255 153.49 58.3188 149.636C52.4188 143.156 48.5522 135.6 46.7188 126.966C46.7026 126.898 46.7046 126.827 46.7247 126.76C46.7447 126.692 46.7822 126.631 46.8333 126.582C46.8845 126.533 46.9477 126.497 47.0169 126.479C47.0862 126.46 47.1591 126.46 47.2288 126.476L60.2488 129.936Z" fill="#D29D77"/>
<path d="M170.559 158.586C168.866 156.773 166.959 155.586 164.839 155.026C168.692 152.54 172.372 151.226 175.879 151.086C179.779 152.013 183.266 150.563 186.339 146.736C186.492 146.543 186.626 146.336 186.739 146.116C189.946 139.676 194.769 134.97 201.209 131.996C201.376 131.923 202.562 131.539 204.769 130.846C206.235 130.379 207.229 129.673 207.749 128.726L216.899 126.366C216.959 126.35 217.023 126.35 217.084 126.367C217.144 126.383 217.2 126.416 217.244 126.462C217.289 126.507 217.321 126.564 217.337 126.626C217.354 126.688 217.355 126.754 217.339 126.816C211.799 147.006 197.079 163.826 174.099 156.166C172.269 155.556 170.489 156.336 170.559 158.586Z" fill="#A27F6B"/>
<path d="M148.119 126.926L163.789 135.736C163.886 135.795 164.002 135.819 164.119 135.806C164.352 135.773 164.409 135.696 164.289 135.576C164.309 135.756 164.326 135.913 164.339 136.046C164.359 136.337 164.437 136.622 164.569 136.886L166.849 141.576C165.629 142.85 165.685 144.343 167.019 146.056C167.193 146.276 167.442 146.425 167.719 146.476L174.699 147.736C172.439 148.176 170.259 148.126 168.159 147.586C164.609 146.656 160.939 143.296 157.469 141.106C152.576 138.066 147.849 134.75 143.289 131.156C142.822 130.79 142.645 130.43 142.759 130.076C142.865 129.723 143.165 129.4 143.659 129.106C145.019 128.12 146.506 127.393 148.119 126.926Z" fill="#824D37"/>
<path d="M207.749 128.726C207.229 129.673 206.236 130.379 204.769 130.846C202.562 131.539 201.376 131.923 201.209 131.996C194.769 134.969 189.946 139.676 186.739 146.116C186.626 146.336 186.492 146.543 186.339 146.736C183.266 150.563 179.779 152.013 175.879 151.086L177.059 147.466C182.619 136.286 196.079 130.996 207.749 128.726Z" fill="#BA9A85"/>
<path d="M143.659 129.106C143.166 129.4 142.866 129.723 142.759 130.076C142.646 130.43 142.823 130.79 143.289 131.156C147.849 134.75 152.576 138.066 157.469 141.106C155.409 142.16 151.869 143.846 146.849 146.166C138.329 150.113 129.813 150.486 121.299 147.286C116.219 145.373 111.016 143.306 105.689 141.086C111.583 137.88 116.506 133.9 120.459 129.146C122.673 129.966 124.703 130.483 126.549 130.696C132.096 131.35 137.799 130.82 143.659 129.106Z" fill="#925738"/>
<path d="M86.8389 146.686C87.9856 148.893 88.5889 150.903 88.6489 152.716C87.2689 152.43 85.3889 151.906 83.0089 151.146C79.5489 150.036 78.0589 148.896 75.7289 146.096C73.9889 143.996 72.2622 141.803 70.5489 139.516C68.0189 136.116 64.2289 133.536 60.4589 131.526C60.0656 131.313 59.8422 130.983 59.7889 130.536C59.7756 130.41 59.929 130.21 60.249 129.936C65.5956 131.583 70.0322 133.236 73.5589 134.896C79.0722 137.496 83.4989 141.426 86.8389 146.686Z" fill="#DBB788"/>
<path d="M70.6292 162.346C75.9292 163.253 81.2026 163.366 86.4493 162.686C87.6026 162.539 89.5193 162.993 92.1993 164.046C92.3993 164.373 92.7159 164.559 93.1492 164.606L89.3193 165.046C89.0697 165.075 88.8353 165.18 88.6485 165.348C88.4617 165.516 88.3319 165.738 88.2769 165.983C88.222 166.229 88.2447 166.485 88.3419 166.716C88.439 166.948 88.6059 167.144 88.8193 167.276C89.9393 167.969 91.1026 168.119 92.3093 167.726C92.4693 174.313 95.0093 179.263 99.9293 182.576L96.1993 188.086C94.2926 192.893 93.0625 197.903 92.5092 203.116C77.5892 201.976 62.7759 202.309 48.0693 204.116C35.9593 205.606 25.4493 208.066 15.4393 214.796C14.0526 212.449 13.1826 210.893 12.8293 210.126C11.1093 206.426 8.43259 199.196 4.79925 188.436L2.95929 180.476L1.34924 163.276C1.31698 162.954 1.40621 162.633 1.59924 162.376C7.94924 154.026 14.6193 148.866 23.9193 143.546C28.4726 140.939 34.3493 136.659 41.5493 130.706C45.9893 144.586 56.0392 158.296 70.6292 162.346Z" fill="#938D60"/>
<path d="M105.689 141.086C111.016 143.306 116.219 145.373 121.299 147.286C129.812 150.486 138.329 150.113 146.849 146.166C151.869 143.846 155.409 142.16 157.469 141.106C160.939 143.296 164.609 146.656 168.159 147.586C170.259 148.126 172.439 148.176 174.699 147.736C175.572 147.803 176.359 147.713 177.059 147.466L175.879 151.086C172.372 151.226 168.692 152.54 164.839 155.026C158.846 155.673 154.492 159.19 151.779 165.576C148.359 162.606 146.229 166.076 143.709 168.936C136.959 176.586 136.199 186.686 136.989 196.946C130.559 196.786 125.979 195.856 119.809 199.326C119.996 195.126 119.729 191.346 119.009 187.986C118.195 184.873 117.256 181.836 116.189 178.876C113.179 170.476 112.499 158.566 101.699 155.956C98.6189 155.21 96.0056 155.91 93.8589 158.056C91.4322 156.883 89.4088 156.28 87.7888 156.246C87.3688 154.833 87.6555 153.656 88.6488 152.716C88.5888 150.903 87.9855 148.893 86.8389 146.686C91.5922 148.153 95.5189 147.616 98.6189 145.076L105.689 141.086Z" fill="#966841"/>
<path d="M262.289 177.646C260.682 185.233 258.476 192.526 255.669 199.526C258.269 189.979 259.716 183.903 260.009 181.296C260.829 174.169 261.689 167.069 262.589 159.996C262.749 162.366 262.819 164.746 262.819 167.146C263.469 159.696 263.919 152.296 263.969 144.806C264.036 148.586 263.962 155.149 263.749 164.496C263.636 169.549 263.149 173.933 262.289 177.646Z" fill="#A0978D"/>
<path d="M212.789 148.796C222.543 151.43 233.923 153.676 246.929 155.536C251.603 156.203 256.823 157.69 262.589 159.996C261.689 167.07 260.829 174.17 260.009 181.296C259.716 183.903 258.269 189.98 255.669 199.526C253.096 206.16 250.042 212.536 246.509 218.656C239.462 215.21 231.079 212.78 221.359 211.366C199.333 208.166 182.656 206.03 171.329 204.956C170.896 201.87 170.383 198.686 169.789 195.406C169.256 192.426 168.493 189.966 167.499 188.026C167.466 186.72 167.592 184.396 167.879 181.056C167.946 180.316 167.623 179.83 166.909 179.596C169.876 176.21 171.619 172.433 172.139 168.266C172.906 168.513 173.716 168.133 174.569 167.126C174.666 167.011 174.736 166.877 174.776 166.732C174.816 166.587 174.823 166.435 174.799 166.286C174.774 166.138 174.717 165.997 174.633 165.873C174.548 165.748 174.438 165.644 174.309 165.566C173.623 165.16 172.982 164.933 172.389 164.886C172.602 164.633 172.679 164.443 172.619 164.316L172.949 164.346C173.059 164.359 173.171 164.342 173.274 164.299C173.378 164.255 173.469 164.185 173.539 164.096C174.293 163.123 175.276 162.606 176.489 162.546C179.789 162.386 185.119 163.436 188.869 163.076C198.709 162.116 206.619 156.276 212.789 148.796Z" fill="#938D60"/>
<path d="M164.839 155.026C166.959 155.586 168.866 156.773 170.559 158.586L172.619 164.316C172.679 164.443 172.602 164.633 172.389 164.886C168.089 163.826 160.939 162.896 158.609 167.206C155.543 172.866 153.749 176.153 153.229 177.066C153.192 177.118 153.177 177.182 153.187 177.245C153.198 177.308 153.232 177.364 153.284 177.401C153.336 177.438 153.4 177.454 153.463 177.443C153.526 177.433 153.582 177.398 153.619 177.346C154.699 176.113 155.716 175.386 156.669 175.166C156.788 175.133 156.913 175.12 157.039 175.126L163.699 175.326C164.097 175.333 164.489 175.276 164.859 175.156C167.906 174.17 169.313 171.766 169.079 167.946C169.071 167.818 169.089 167.689 169.134 167.569C169.179 167.448 169.249 167.338 169.339 167.246C169.43 167.153 169.539 167.081 169.659 167.033C169.78 166.985 169.909 166.962 170.039 166.966C170.759 166.993 171.459 167.426 172.139 168.266C171.619 172.433 169.876 176.21 166.909 179.596C164.196 181.99 160.856 183.066 156.889 182.826C156.45 182.794 156.006 182.873 155.599 183.056L147.629 186.646C147.62 186.65 147.61 186.651 147.6 186.649C147.59 186.648 147.581 186.644 147.573 186.638C147.565 186.632 147.559 186.624 147.555 186.615C147.551 186.606 147.549 186.596 147.549 186.586C147.529 185.386 147.639 184.156 147.879 182.896C148.979 177.043 150.279 171.27 151.779 165.576C154.492 159.19 158.846 155.673 164.839 155.026Z" fill="#E4C395"/>
<path d="M93.859 158.056L92.199 164.046C89.519 162.993 87.6023 162.539 86.449 162.686C81.2023 163.366 75.9289 163.253 70.6289 162.346C71.8422 160.873 72.2323 159.236 71.799 157.436C78.0189 158.923 83.3489 158.526 87.7889 156.246C89.4089 156.279 91.4323 156.883 93.859 158.056Z" fill="#73572D"/>
<path d="M119.009 187.986C114.849 187.536 112.649 184.916 109.079 184.326C106.166 183.84 103.116 183.256 99.9292 182.576C95.0092 179.263 92.4692 174.313 92.3092 167.726C93.0625 167.333 93.7392 167.1 94.3392 167.026C94.4083 167.018 94.4782 167.026 94.5438 167.048C94.6094 167.071 94.6689 167.107 94.718 167.155C94.7671 167.203 94.8044 167.262 94.8271 167.326C94.8499 167.39 94.8574 167.459 94.8492 167.526C94.4092 171.693 96.1126 174.336 99.9592 175.456C103.569 176.516 107.429 173.996 109.799 178.166C109.842 178.243 109.912 178.301 109.996 178.327C110.08 178.353 110.171 178.346 110.249 178.306L110.259 178.296C110.308 178.271 110.345 178.23 110.364 178.181C110.383 178.133 110.381 178.081 110.359 178.036C108.853 174.503 107.079 171.133 105.039 167.926C102.189 163.426 97.7392 163.896 93.1492 164.606C92.7158 164.56 92.3992 164.373 92.1992 164.046L93.8593 158.056C96.0059 155.91 98.6192 155.21 101.699 155.956C112.499 158.566 113.179 170.476 116.189 178.876C117.256 181.836 118.196 184.873 119.009 187.986Z" fill="#E4C395"/>
<path d="M151.779 165.576C150.279 171.27 148.979 177.043 147.879 182.896C147.639 184.156 147.529 185.386 147.549 186.586C147.548 186.596 147.55 186.606 147.554 186.615C147.558 186.624 147.565 186.632 147.573 186.638C147.581 186.644 147.59 186.648 147.6 186.649C147.609 186.651 147.619 186.65 147.629 186.646L155.599 183.056C156.006 182.873 156.449 182.793 156.889 182.826C160.855 183.066 164.195 181.99 166.909 179.596C167.622 179.83 167.945 180.316 167.879 181.056C167.592 184.396 167.466 186.72 167.499 188.026C165.992 191.933 164.782 195.806 163.869 199.646C163.076 202.96 160.725 208.306 156.819 215.686C154.845 219.406 152.692 222.15 150.359 223.916C152.372 218.036 152.712 213 151.379 208.806C149.245 202.106 144.449 198.153 136.989 196.946C136.199 186.686 136.959 176.586 143.709 168.936C146.229 166.076 148.359 162.606 151.779 165.576Z" fill="#925738"/>
<path d="M92.3097 167.726C91.103 168.12 89.9397 167.97 88.8197 167.276C88.6063 167.144 88.4395 166.948 88.3423 166.717C88.2451 166.485 88.2224 166.229 88.2774 165.984C88.3323 165.739 88.4622 165.517 88.6489 165.349C88.8357 165.181 89.0702 165.075 89.3197 165.046L93.1497 164.606C97.7397 163.896 102.19 163.426 105.04 167.926C107.08 171.133 108.853 174.503 110.36 178.036C110.381 178.081 110.383 178.133 110.364 178.181C110.346 178.23 110.308 178.271 110.26 178.296L110.25 178.306C110.171 178.346 110.08 178.353 109.996 178.327C109.913 178.301 109.842 178.243 109.8 178.166C107.43 173.996 103.57 176.516 99.9597 175.456C96.1131 174.336 94.4097 171.693 94.8497 167.526C94.8579 167.459 94.8504 167.39 94.8276 167.326C94.8049 167.262 94.7676 167.204 94.7185 167.156C94.6694 167.107 94.6099 167.071 94.5443 167.048C94.4787 167.026 94.4087 167.019 94.3397 167.026C93.7397 167.1 93.063 167.333 92.3097 167.726ZM101.51 168.486C101.51 168.051 101.337 167.634 101.029 167.327C100.722 167.019 100.305 166.846 99.8698 166.846C99.6544 166.846 99.441 166.889 99.2421 166.971C99.0431 167.054 98.8624 167.174 98.7101 167.327C98.5578 167.479 98.4369 167.66 98.3545 167.859C98.2721 168.058 98.2297 168.271 98.2297 168.486C98.2297 168.702 98.2721 168.915 98.3545 169.114C98.4369 169.313 98.5578 169.494 98.7101 169.646C98.8624 169.798 99.0431 169.919 99.2421 170.002C99.441 170.084 99.6544 170.126 99.8698 170.126C100.305 170.126 100.722 169.954 101.029 169.646C101.337 169.339 101.51 168.921 101.51 168.486ZM102.239 167.752C102.169 167.829 102.122 167.925 102.101 168.034C102.079 168.143 102.083 168.264 102.112 168.389C102.141 168.513 102.195 168.64 102.27 168.761C102.346 168.882 102.442 168.995 102.552 169.094C102.663 169.194 102.786 169.276 102.914 169.338C103.043 169.4 103.174 169.44 103.301 169.456C103.428 169.471 103.549 169.462 103.655 169.429C103.761 169.395 103.851 169.338 103.921 169.261C103.99 169.184 104.037 169.088 104.059 168.979C104.08 168.869 104.077 168.749 104.047 168.624C104.018 168.5 103.965 168.373 103.889 168.252C103.814 168.131 103.718 168.018 103.607 167.918C103.497 167.819 103.374 167.736 103.245 167.674C103.117 167.612 102.985 167.572 102.858 167.557C102.731 167.542 102.611 167.551 102.505 167.584C102.398 167.618 102.308 167.675 102.239 167.752Z" fill="#3D261D"/>
<path d="M172.39 164.886C172.983 164.933 173.623 165.159 174.31 165.566C174.438 165.644 174.549 165.748 174.633 165.872C174.718 165.997 174.774 166.138 174.799 166.286C174.824 166.434 174.816 166.586 174.776 166.731C174.737 166.876 174.666 167.011 174.57 167.126C173.716 168.133 172.906 168.513 172.14 168.266C171.46 167.426 170.76 166.993 170.04 166.966C169.91 166.962 169.78 166.984 169.66 167.032C169.539 167.081 169.43 167.153 169.34 167.245C169.249 167.338 169.179 167.448 169.135 167.568C169.09 167.689 169.071 167.818 169.08 167.946C169.313 171.766 167.906 174.169 164.86 175.156C164.489 175.275 164.097 175.333 163.7 175.326L157.04 175.126C156.914 175.119 156.789 175.133 156.67 175.166C155.716 175.386 154.7 176.113 153.62 177.346C153.582 177.398 153.526 177.433 153.464 177.443C153.401 177.453 153.336 177.438 153.285 177.401C153.233 177.364 153.198 177.308 153.188 177.245C153.177 177.182 153.192 177.118 153.23 177.066C153.75 176.153 155.543 172.866 158.61 167.206C160.94 162.896 168.09 163.826 172.39 164.886ZM163.401 167.257C163.234 166.95 162.908 166.745 162.493 166.689C162.078 166.632 161.609 166.728 161.19 166.956C160.77 167.184 160.434 167.525 160.256 167.903C160.077 168.282 160.071 168.667 160.238 168.975C160.405 169.283 160.732 169.487 161.146 169.544C161.561 169.6 162.03 169.504 162.449 169.276C162.869 169.048 163.205 168.708 163.383 168.329C163.562 167.95 163.569 167.565 163.401 167.257ZM164.431 168.185C164.259 168.254 164.136 168.427 164.091 168.668C164.046 168.908 164.081 169.195 164.19 169.466C164.298 169.737 164.47 169.969 164.669 170.112C164.867 170.255 165.076 170.296 165.248 170.227C165.42 170.158 165.543 169.985 165.588 169.744C165.633 169.504 165.598 169.217 165.49 168.946C165.381 168.675 165.209 168.443 165.01 168.3C164.812 168.157 164.603 168.116 164.431 168.185Z" fill="#3D261D"/>
<path d="M99.8695 170.126C100.775 170.126 101.509 169.392 101.509 168.486C101.509 167.58 100.775 166.846 99.8695 166.846C98.9638 166.846 98.2295 167.58 98.2295 168.486C98.2295 169.392 98.9638 170.126 99.8695 170.126Z" fill="#EDD7B6"/>
<path d="M162.449 169.276C163.323 168.802 163.749 167.898 163.401 167.257C163.053 166.617 162.063 166.482 161.189 166.956C160.316 167.43 159.889 168.334 160.237 168.975C160.585 169.616 161.575 169.75 162.449 169.276Z" fill="#E5CBAC"/>
<path d="M103.607 167.918C103.142 167.501 102.529 167.427 102.238 167.752C101.947 168.076 102.087 168.677 102.552 169.094C103.016 169.511 103.629 169.586 103.92 169.261C104.212 168.936 104.071 168.335 103.607 167.918Z" fill="#CEA78B"/>
<path d="M165.489 168.946C165.263 168.382 164.79 168.041 164.431 168.185C164.072 168.328 163.964 168.902 164.189 169.466C164.415 170.03 164.889 170.371 165.248 170.228C165.607 170.084 165.715 169.51 165.489 168.946Z" fill="#BA9A85"/>
<path d="M99.9292 182.576C103.116 183.256 106.166 183.84 109.079 184.326C112.649 184.916 114.849 187.536 119.009 187.986C119.729 191.346 119.996 195.126 119.809 199.326C116.903 201.046 114.693 203.77 113.179 207.496C111.219 212.316 110.933 217.866 112.319 224.146C107.846 220.053 104.436 214.713 102.089 208.126C100.819 204.576 100.079 200.866 99.0192 197.746C97.9792 194.686 97.0392 191.466 96.1992 188.086L99.9292 182.576Z" fill="#9E734F"/>
<path d="M96.1991 188.086C97.0391 191.466 97.979 194.686 99.019 197.746C100.079 200.866 100.819 204.576 102.089 208.126C104.436 214.713 107.846 220.053 112.319 224.146C113.999 224.733 115.462 225.08 116.709 225.186C118.276 225.32 120.372 225.356 122.999 225.296L121.709 227.366H115.709C115.652 227.367 115.596 227.383 115.546 227.411C115.496 227.439 115.454 227.48 115.424 227.529C115.394 227.578 115.377 227.633 115.375 227.691C115.372 227.748 115.384 227.805 115.409 227.856C118.536 233.956 123.792 236.776 131.179 236.316C131.159 242.396 131.146 248.433 131.139 254.426C131.139 256.746 131.349 258.463 131.769 259.576C131.823 259.721 131.917 259.848 132.04 259.942C132.162 260.037 132.309 260.095 132.463 260.111C132.616 260.126 132.772 260.099 132.911 260.031C133.05 259.963 133.167 259.857 133.249 259.726C133.869 258.733 134.576 257.893 135.369 257.206C146.669 247.426 155.119 237.386 160.119 223.136C160.143 223.072 160.186 223.018 160.243 222.98C160.3 222.942 160.367 222.924 160.435 222.927C160.503 222.931 160.568 222.956 160.621 222.999C160.674 223.042 160.712 223.1 160.729 223.166C162.149 229.476 163.769 235.896 164.019 242.086C164.179 246.086 164.169 248.823 163.989 250.296C162.569 261.796 155.789 270.656 147.959 279.586L131.669 278.666L131.689 260.746C131.689 260.405 131.61 260.068 131.457 259.763C131.304 259.457 131.082 259.191 130.809 258.986C122.309 252.573 115.262 244.433 109.669 234.566C107.029 229.906 105.749 225.706 104.069 220.816C104.052 220.758 104.016 220.706 103.966 220.67C103.917 220.633 103.857 220.614 103.795 220.615C103.734 220.617 103.675 220.638 103.627 220.676C103.578 220.714 103.544 220.767 103.529 220.826C99.6891 234.466 97.1991 246.316 102.189 259.546C102.949 261.586 104.892 264.89 108.019 269.456C110.326 272.83 112.492 276.026 114.519 279.046C115.186 279.746 114.976 280.57 113.889 281.516L97.2491 278.246C92.9958 274.513 89.2825 270.363 86.1091 265.796C85.9187 265.527 85.7953 265.215 85.7491 264.886C84.6891 257.846 84.7491 250.376 82.8691 243.536C83.8891 241.063 84.4224 239.386 84.4691 238.506C85.0758 227.733 87.4458 217.373 91.5791 207.426C91.9258 206.6 92.2357 205.163 92.509 203.116C93.0624 197.903 94.2924 192.893 96.1991 188.086Z" fill="#73572D"/>
<path d="M167.499 188.026C168.492 189.966 169.255 192.426 169.789 195.406C170.382 198.686 170.895 201.87 171.329 204.956C175.162 216.05 177.739 227.296 179.059 238.696C179.099 239.009 179.172 239.317 179.279 239.616C179.699 240.81 180.685 243.17 182.239 246.696C185.372 253.79 187.199 261.4 187.719 269.526C187.728 269.681 187.706 269.837 187.652 269.983C187.599 270.129 187.516 270.263 187.409 270.376L186.169 271.746L175.579 275.706C170.252 273.233 166.952 274.186 165.679 278.566C159.125 280.36 152.275 281.536 145.129 282.096C145.502 281.31 146.122 280.68 146.989 280.206L147.959 279.586C155.789 270.656 162.569 261.796 163.989 250.296C164.169 248.823 164.179 246.086 164.019 242.086C163.769 235.896 162.149 229.476 160.729 223.166C160.712 223.1 160.674 223.042 160.621 222.999C160.568 222.956 160.503 222.931 160.435 222.927C160.367 222.924 160.299 222.942 160.242 222.98C160.186 223.018 160.142 223.072 160.119 223.136C155.119 237.386 146.669 247.426 135.369 257.206C134.575 257.893 133.869 258.733 133.249 259.726C133.167 259.857 133.049 259.963 132.91 260.031C132.771 260.099 132.616 260.126 132.462 260.111C132.308 260.095 132.162 260.037 132.039 259.942C131.917 259.848 131.823 259.721 131.769 259.576C131.349 258.463 131.139 256.746 131.139 254.426C131.145 248.433 131.159 242.396 131.179 236.316C134.159 236.623 136.905 236.416 139.419 235.696C143.339 234.563 146.232 232.026 148.099 228.086C148.122 228.035 148.133 227.979 148.13 227.922C148.127 227.866 148.11 227.812 148.081 227.764C148.052 227.716 148.012 227.677 147.965 227.65C147.917 227.622 147.864 227.607 147.809 227.606L139.639 227.446C139.779 226.693 139.665 225.856 139.299 224.936C144.059 225.816 147.745 225.476 150.359 223.916C152.692 222.15 154.845 219.406 156.819 215.686C160.725 208.306 163.075 202.96 163.869 199.646C164.782 195.806 165.992 191.933 167.499 188.026Z" fill="#573D20"/>
<path d="M136.989 196.946C144.449 198.153 149.245 202.106 151.379 208.806C152.712 212.999 152.372 218.036 150.359 223.916C147.746 225.476 144.059 225.816 139.299 224.936C138.772 225.076 138.206 225.076 137.599 224.936C137.514 224.918 137.436 224.879 137.371 224.822C137.307 224.765 137.258 224.692 137.23 224.61C137.202 224.529 137.195 224.441 137.211 224.357C137.226 224.272 137.264 224.192 137.319 224.126C138.849 222.286 139.839 221.666 140.539 219.536C140.752 218.889 141.232 218.376 141.979 217.996C145.519 216.196 146.979 212.696 145.259 209.206C142.109 202.856 134.219 204.326 125.819 204.416C122.659 204.456 120.345 205.786 118.879 208.406C115.749 214.006 119.599 217.016 123.949 219.756C124.576 220.149 125.142 221.173 125.649 222.826C125.696 222.978 125.711 223.138 125.692 223.296C125.673 223.455 125.621 223.608 125.539 223.746C124.986 224.666 124.139 225.183 122.999 225.296C120.372 225.356 118.276 225.319 116.709 225.186C115.462 225.079 113.999 224.733 112.319 224.146C110.932 217.866 111.219 212.316 113.179 207.496C114.692 203.769 116.902 201.046 119.809 199.326C125.979 195.856 130.559 196.786 136.989 196.946Z" fill="#E4C395"/>
<path d="M92.5094 203.116C92.2361 205.163 91.9261 206.599 91.5795 207.426C87.4461 217.373 85.0761 227.733 84.4695 238.506C84.4228 239.386 83.8895 241.063 82.8695 243.536C78.4562 251.763 76.0228 260.786 75.5695 270.606C60.1428 263.813 46.8561 254.393 35.7095 242.346L25.2295 230.246L21.5895 225.206C19.1361 221.986 17.0861 218.516 15.4395 214.796C25.4495 208.066 35.9595 205.606 48.0695 204.116C62.7761 202.309 77.5894 201.976 92.5094 203.116Z" fill="#8A8256"/>
<path d="M246.509 218.656C240.076 229.776 232.156 239.599 222.749 248.126C222.022 248.779 221.246 249.229 220.419 249.476C219.672 249.703 219.102 250.299 218.709 251.266C218.604 251.535 218.432 251.776 218.209 251.966L210.099 258.946C202.352 263.813 194.376 268.079 186.169 271.746L187.409 270.376C187.516 270.263 187.599 270.129 187.653 269.982C187.706 269.836 187.729 269.681 187.719 269.526C187.199 261.399 185.372 253.789 182.239 246.696C180.686 243.169 179.699 240.809 179.279 239.616C179.173 239.317 179.099 239.009 179.059 238.696C177.739 227.296 175.162 216.049 171.329 204.956C182.656 206.029 199.332 208.166 221.359 211.366C231.079 212.779 239.462 215.209 246.509 218.656Z" fill="#8A8256"/>
<path d="M139.3 224.936C139.666 225.856 139.78 226.693 139.64 227.446L121.71 227.366L123 225.296C124.14 225.183 124.986 224.666 125.54 223.746C125.621 223.608 125.673 223.455 125.692 223.296C125.711 223.138 125.697 222.978 125.65 222.826C125.143 221.173 124.576 220.15 123.95 219.756C119.6 217.016 115.75 214.006 118.88 208.406C120.346 205.786 122.66 204.456 125.82 204.416C134.22 204.326 142.11 202.856 145.26 209.206C146.98 212.696 145.52 216.196 141.98 217.996C141.233 218.376 140.753 218.89 140.54 219.536C139.84 221.666 138.85 222.286 137.32 224.126C137.264 224.193 137.227 224.272 137.211 224.357C137.196 224.442 137.202 224.529 137.23 224.611C137.259 224.692 137.308 224.765 137.372 224.822C137.437 224.879 137.515 224.919 137.6 224.936C138.206 225.076 138.773 225.076 139.3 224.936ZM121.18 210.966L124.51 217.636C124.569 217.761 124.673 217.857 124.8 217.908C124.928 217.958 125.069 217.958 125.198 217.908C125.327 217.858 125.433 217.762 125.496 217.637C125.56 217.513 125.575 217.37 125.54 217.236L124.73 214.256C124.705 214.173 124.703 214.084 124.725 213.999C124.746 213.915 124.789 213.837 124.851 213.775C124.912 213.713 124.988 213.668 125.073 213.646C125.157 213.623 125.246 213.623 125.33 213.646C129.223 214.686 131.89 214.963 133.33 214.476C135.643 213.69 137.746 213.093 139.64 212.686C141.906 211.98 142.786 210.86 142.28 209.326L139.85 207.476C135.49 206.763 130.936 206.57 126.19 206.896C124.45 207.01 122.983 207.663 121.79 208.856C121.05 209.596 120.846 210.3 121.18 210.966Z" fill="#3D261D"/>
<path d="M139.849 207.476C140.102 208.576 139.899 209.133 139.239 209.146C136.545 209.199 134.149 209.316 132.049 209.496C130.299 209.646 127.869 209.216 125.849 209.576C125.618 209.617 125.398 209.705 125.202 209.834C125.006 209.963 124.838 210.13 124.709 210.326C123.935 211.539 122.759 211.753 121.179 210.966C120.845 210.299 121.049 209.596 121.789 208.856C122.982 207.663 124.449 207.009 126.189 206.896C130.935 206.569 135.489 206.763 139.849 207.476Z" fill="#BA9A85"/>
<path d="M142.28 209.326C139.58 209.846 138.7 210.966 139.64 212.686C137.746 213.093 135.643 213.689 133.33 214.476C131.89 214.963 129.223 214.686 125.33 213.646C125.246 213.623 125.157 213.623 125.073 213.645C124.988 213.668 124.912 213.713 124.851 213.775C124.79 213.837 124.746 213.915 124.725 213.999C124.704 214.084 124.705 214.172 124.73 214.256L125.54 217.236C125.575 217.37 125.56 217.513 125.496 217.637C125.433 217.761 125.327 217.858 125.198 217.908C125.07 217.958 124.928 217.958 124.8 217.907C124.673 217.857 124.569 217.76 124.51 217.636L121.18 210.966C122.76 211.753 123.936 211.539 124.71 210.326C124.839 210.13 125.007 209.963 125.203 209.834C125.399 209.705 125.619 209.617 125.85 209.576C127.87 209.216 130.3 209.646 132.05 209.496C134.15 209.316 136.546 209.199 139.24 209.146C139.9 209.133 140.103 208.576 139.85 207.476L142.28 209.326Z" fill="#6E5242"/>
<path d="M142.28 209.326C142.786 210.86 141.906 211.98 139.64 212.686C138.7 210.966 139.58 209.846 142.28 209.326Z" fill="#CFB9A8"/>
<path d="M131.669 278.666C126.383 279.253 120.666 279.38 114.519 279.046C112.493 276.026 110.326 272.83 108.019 269.456C104.893 264.89 102.949 261.586 102.189 259.546C97.1994 246.316 99.6893 234.466 103.529 220.826C103.544 220.767 103.579 220.714 103.627 220.676C103.675 220.638 103.734 220.616 103.796 220.615C103.857 220.614 103.917 220.633 103.966 220.67C104.016 220.706 104.052 220.757 104.069 220.816C105.749 225.706 107.029 229.906 109.669 234.566C115.263 244.433 122.309 252.573 130.809 258.986C131.083 259.191 131.304 259.457 131.457 259.762C131.61 260.068 131.689 260.405 131.689 260.746L131.669 278.666Z" fill="#966841"/>
<path d="M21.5889 225.206L25.2289 230.246C23.0222 228.879 21.8089 227.199 21.5889 225.206Z" fill="#949491"/>
<path d="M121.709 227.366L139.639 227.446L147.809 227.606C147.864 227.607 147.918 227.622 147.965 227.649C148.013 227.677 148.053 227.716 148.081 227.764C148.11 227.812 148.127 227.866 148.13 227.922C148.133 227.978 148.122 228.035 148.099 228.086C146.232 232.026 143.339 234.563 139.419 235.696C136.906 236.416 134.159 236.623 131.179 236.316C123.792 236.776 118.536 233.956 115.409 227.856C115.384 227.805 115.372 227.748 115.374 227.69C115.377 227.633 115.394 227.578 115.424 227.529C115.454 227.48 115.496 227.439 115.546 227.411C115.595 227.382 115.652 227.367 115.709 227.366H121.709Z" fill="#DBB788"/>
<path d="M82.8694 243.536C84.7494 250.376 84.6894 257.846 85.7494 264.886C85.7955 265.215 85.919 265.527 86.1094 265.796C89.2827 270.363 92.9961 274.513 97.2494 278.246C89.5294 276.039 82.3027 273.493 75.5693 270.606C76.0227 260.786 78.4561 251.763 82.8694 243.536Z" fill="#925738"/>
<path d="M175.58 275.706L165.68 278.566C166.953 274.186 170.253 273.233 175.58 275.706Z" fill="#614739"/>
<path d="M131.669 278.666L147.959 279.586L146.989 280.206L132.289 280.216C132.15 280.217 132.015 280.267 131.911 280.357C131.806 280.447 131.738 280.571 131.719 280.706L131.439 282.806L122.909 282.666C120.495 281.373 118.355 281.126 116.489 281.926L113.889 281.516C114.975 280.57 115.185 279.746 114.519 279.046C120.665 279.38 126.382 279.253 131.669 278.666Z" fill="#83604A"/>
<path d="M146.99 280.206C146.123 280.679 145.503 281.309 145.129 282.096L131.439 282.806L131.719 280.706C131.739 280.571 131.807 280.447 131.911 280.357C132.016 280.267 132.15 280.217 132.289 280.216L146.99 280.206Z" fill="#6E5242"/>
<path d="M122.909 282.666L116.489 281.926C118.356 281.126 120.496 281.373 122.909 282.666Z" fill="#8A8256"/>
</svg>
