<svg width="270" height="267" viewBox="0 0 270 267" fill="none" xmlns="http://www.w3.org/2000/svg">
<path d="M255.607 82.7539L259.277 94.2339C259.325 94.3848 259.33 94.5468 259.292 94.7021C259.253 94.8573 259.172 94.9998 259.057 95.1139C252.344 101.901 244.064 105.201 234.217 105.014C216.047 104.654 197.647 100.804 179.927 97.2439C192.817 87.6239 200.447 72.924 203.817 57.314C205.764 51.1273 206.62 44.1906 206.387 36.5039C206.28 32.8306 205.394 30.2806 203.727 28.8539C198.567 27.6839 193.787 29.844 189.507 32.394C185.034 35.0673 180.957 37.9605 177.277 41.0739C166.777 49.3639 159.527 58.894 152.437 69.924C148.847 75.514 145.557 82.9239 141.617 89.3739C135.677 87.6273 129.917 87.6873 124.337 89.554C122.617 87.1473 120.76 83.9239 118.767 79.8839C116.18 74.6439 112.514 68.6272 107.767 61.8339C98.1071 48.0272 85.6871 37.4773 70.5071 30.184C67.8271 28.8907 64.9138 28.5506 61.7671 29.164C60.4071 29.9373 59.6938 31.3006 59.6271 33.2539C59.5338 36.1339 59.6138 38.5406 59.8671 40.4739C59.7004 42.9672 59.6671 44.5606 59.7671 45.2539C61.2771 55.7239 63.4971 66.024 68.5071 75.394C58.7971 80.454 51.0171 81.3839 38.3571 83.3739C29.6571 84.7339 21.1271 88.384 14.7671 94.524C13.3338 95.904 11.2071 97.9873 8.3871 100.774C8.27201 100.888 8.12915 100.97 7.97265 101.012C7.81615 101.053 7.65143 101.054 7.49483 101.012C7.33823 100.971 7.19516 100.889 7.07979 100.776C6.96443 100.662 6.88076 100.52 6.83709 100.364C6.08709 97.7739 7.10709 92.694 7.58709 90.044C13.9671 72.0373 23.4638 56.2539 36.0771 42.6939C41.5971 36.7672 48.0571 31.004 55.4571 25.404C62.5504 20.0373 69.9671 15.6006 77.7071 12.0939C104.6 -0.0860977 132.974 -3.06604 162.827 3.15396C167.434 4.11396 173.78 6.17389 181.867 9.33389C198.34 15.7606 213.114 25.4639 226.187 38.4439C238.974 51.1305 248.78 65.9006 255.607 82.7539Z" fill="#E5CBAC"/>
<path d="M203.727 28.8539C193.64 34.2539 184.714 40.5206 176.947 47.654C176.96 47.1473 176.754 46.944 176.327 47.044C178.68 44.004 178.997 42.0139 177.277 41.0739C180.957 37.9606 185.034 35.0673 189.507 32.394C193.787 29.844 198.567 27.6839 203.727 28.8539Z" fill="#B97E51"/>
<path d="M124.338 89.554L107.588 99.5839C110.228 86.5639 106.468 71.8839 100.068 60.5739C99.0342 58.7339 97.3076 56.3172 94.8876 53.3239C94.0809 52.3239 92.2575 49.9373 89.4175 46.164C89.3754 46.1087 89.3183 46.0666 89.2529 46.0431C89.1875 46.0196 89.1166 46.0156 89.049 46.0314C88.9813 46.0473 88.9196 46.0825 88.8715 46.1326C88.8233 46.1827 88.7907 46.2457 88.7776 46.314C88.7176 46.6207 88.7542 46.994 88.8876 47.434C81.2076 39.5207 72.1676 33.4306 61.7676 29.164C64.9142 28.5506 67.8276 28.8907 70.5076 30.184C85.6876 37.4773 98.1076 48.0272 107.768 61.8339C112.514 68.6272 116.181 74.644 118.768 79.884C120.761 83.924 122.618 87.1473 124.338 89.554Z" fill="#966841"/>
<path d="M203.817 57.314C201.797 60.274 199.181 64.6205 195.967 70.3539C190.667 79.7839 183.327 86.9439 173.407 93.8539C170.021 96.2139 166.114 99.0839 161.687 102.464C161.629 102.511 161.559 102.542 161.485 102.554C161.412 102.567 161.335 102.56 161.264 102.535C161.192 102.511 161.128 102.468 161.076 102.412C161.024 102.356 160.987 102.288 160.967 102.214L160.777 101.464C162.411 97.8905 163.994 94.3172 165.527 90.7439C166.787 87.7972 167.297 85.7139 167.057 84.4939C164.297 70.7739 168.737 58.4739 176.947 47.6539C184.714 40.5206 193.641 34.2539 203.727 28.8539C205.394 30.2805 206.281 32.8306 206.387 36.5039C206.621 44.1906 205.764 51.1273 203.817 57.314Z" fill="#824D37"/>
<path d="M61.7676 29.1639C72.1676 33.4306 81.2075 39.5206 88.8875 47.434C94.2575 54.954 98.0075 63.2139 99.0675 72.4539C99.5175 76.4239 99.0275 80.9939 98.6975 85.0939C98.5667 86.7436 98.8809 88.401 99.6075 89.8939L105.178 101.264C105.224 101.531 105.234 101.691 105.208 101.744C105.161 101.832 105.097 101.909 105.02 101.971C104.942 102.033 104.851 102.078 104.755 102.103C104.658 102.129 104.557 102.134 104.457 102.118C104.358 102.103 104.263 102.067 104.178 102.014C95.7475 96.7439 86.8575 91.0839 80.4775 84.4139C75.2442 78.9473 70.6809 72.2406 66.7875 64.2939C65.4475 61.5439 64.8075 59.0639 63.6175 55.8339C62.9309 53.9539 62.3242 51.7806 61.7976 49.314C61.2042 46.5873 60.5609 43.6405 59.8675 40.4739C59.6142 38.5405 59.5342 36.1339 59.6275 33.2539C59.6942 31.3006 60.4076 29.9373 61.7676 29.1639Z" fill="#824D37"/>
<path d="M105.177 101.264C105.784 101.584 106.587 101.024 107.587 99.5839L124.337 89.554C129.917 87.6873 135.677 87.6272 141.617 89.3739C147.497 92.5006 153.057 96.1239 158.297 100.244C158.319 100.259 158.345 100.27 158.371 100.274C158.398 100.278 158.426 100.277 158.451 100.269C158.477 100.261 158.501 100.248 158.521 100.23C158.541 100.211 158.557 100.189 158.567 100.164C158.594 100.097 158.621 100.014 158.647 99.9139C159.614 101.667 160.324 102.184 160.777 101.464L160.967 102.214C160.987 102.288 161.024 102.356 161.076 102.412C161.128 102.468 161.192 102.511 161.264 102.535C161.335 102.56 161.411 102.567 161.485 102.554C161.559 102.542 161.629 102.511 161.687 102.464C166.114 99.0839 170.021 96.2139 173.407 93.8539C183.327 86.9439 190.667 79.7839 195.967 70.3539C199.181 64.6205 201.797 60.274 203.817 57.314C200.447 72.924 192.817 87.6239 179.927 97.2439L167.087 106.974C166.864 107.145 166.716 107.395 166.673 107.673C166.63 107.95 166.696 108.234 166.857 108.464C170.01 112.951 171.284 118.027 170.677 123.694C170.771 124.227 170.587 124.747 170.127 125.254C166.987 124.494 164.727 122.824 160.597 122.964C155.327 123.144 151.987 128.914 151.687 133.544C151.681 133.649 151.646 133.755 151.587 133.854L150.557 135.644C150.515 135.712 150.496 135.792 150.502 135.873C150.508 135.953 150.54 136.029 150.592 136.09C150.644 136.151 150.714 136.194 150.793 136.213C150.871 136.232 150.953 136.225 151.027 136.194C152.334 135.694 154.137 135.967 156.437 137.014C158.671 138.021 160.921 137.954 163.187 136.814C165.127 135.834 166.127 131.694 166.967 129.144C167.065 128.845 167.254 128.586 167.507 128.404C168.101 127.984 168.837 127.747 169.717 127.694C170.457 131.734 171.294 135.747 172.227 139.734C173.52 145.274 174.107 149.314 173.987 151.854C173.767 156.514 172.517 160.964 170.237 165.204C169.964 165.717 169.907 166.807 170.067 168.474L169.787 166.334C169.78 166.268 169.755 166.205 169.713 166.153C169.671 166.102 169.615 166.063 169.551 166.042C169.487 166.021 169.418 166.019 169.352 166.035C169.286 166.051 169.225 166.086 169.177 166.134L154.937 180.524C155.471 173.617 153.457 167.591 148.897 162.444C148.611 162.124 148.267 162.054 147.867 162.234C147.314 162.327 146.907 162.214 146.647 161.894C146.595 161.828 146.564 161.752 146.557 161.674C146.277 155.774 145.047 152.504 143.007 143.904C142.307 140.944 140.804 136.761 138.497 131.354C137.651 129.361 136.727 127.847 135.727 126.814C135.41 126.49 134.991 126.282 134.537 126.224C131.45 125.797 129.284 126.697 128.037 128.924C123.204 137.604 120.097 147.204 118.717 157.724C118.591 158.724 118.017 160.157 116.997 162.024C112.204 165.851 109.904 171.484 110.097 178.924L109.877 178.254C109.829 178.106 109.743 177.974 109.626 177.872C109.51 177.77 109.369 177.701 109.217 177.674C108.697 177.574 108.224 177.377 107.797 177.084C103.31 174.044 99.1139 170.111 95.2072 165.284L91.6372 156.454C90.8505 151.674 90.8238 147.934 91.5572 145.234C92.9572 140.101 94.2572 134.941 95.4572 129.754C95.4946 129.598 95.5661 129.452 95.6664 129.328C95.7668 129.203 95.8934 129.103 96.0372 129.034C97.3905 128.381 97.7605 127.951 97.1472 127.744C97.5405 127.551 97.9539 127.494 98.3872 127.574C98.5369 127.601 98.6716 127.681 98.7657 127.799C98.8597 127.917 98.9065 128.064 98.8972 128.214C98.6572 133.344 100.367 138.384 106.487 137.294C106.534 137.287 106.577 137.277 106.617 137.264L111.597 135.444C111.703 135.406 111.817 135.392 111.929 135.403C112.041 135.413 112.15 135.448 112.247 135.504L113.947 136.484C114.042 136.538 114.151 136.562 114.26 136.553C114.369 136.544 114.473 136.502 114.558 136.432C114.642 136.363 114.704 136.27 114.734 136.165C114.764 136.059 114.762 135.948 114.727 135.844C113.357 131.634 112.207 127.454 108.507 124.644C103.847 121.094 99.6372 123.484 94.9072 125.194C94.7072 120.634 94.7172 113.564 97.4672 109.824C98.3405 108.631 98.8005 107.987 98.8472 107.894C98.9097 107.759 98.9271 107.609 98.8963 107.466C98.8655 107.323 98.7884 107.195 98.6772 107.104C92.0772 101.634 85.3072 97.1838 80.3572 92.1938C75.5239 87.3205 71.5739 81.7206 68.5072 75.3939C63.4972 66.0239 61.2772 55.7239 59.7672 45.2539C59.6672 44.5606 59.7005 42.9672 59.8672 40.4739C60.5605 43.6405 61.2039 46.5873 61.7972 49.314C62.3239 51.7806 62.9305 53.9539 63.6172 55.8339C64.8072 59.0639 65.4472 61.5439 66.7872 64.2939C70.6805 72.2406 75.2439 78.9473 80.4772 84.4139C86.8572 91.0839 95.7472 96.7439 104.177 102.014C104.262 102.067 104.358 102.103 104.457 102.118C104.556 102.134 104.658 102.129 104.754 102.103C104.851 102.078 104.941 102.033 105.019 101.971C105.097 101.909 105.161 101.832 105.207 101.744C105.234 101.691 105.224 101.531 105.177 101.264Z" fill="#B97E51"/>
<path d="M177.277 41.0739C178.997 42.0139 178.681 44.0039 176.327 47.0439C170.261 53.5839 165.437 61.0306 161.857 69.3839C160.297 73.0106 158.984 77.3906 157.917 82.5239C156.644 88.6373 156.887 94.4339 158.647 99.9139C158.621 100.014 158.594 100.097 158.567 100.164C158.557 100.189 158.541 100.211 158.521 100.23C158.501 100.248 158.477 100.261 158.451 100.269C158.426 100.277 158.398 100.278 158.371 100.274C158.345 100.27 158.319 100.259 158.297 100.244C153.057 96.1239 147.497 92.5006 141.617 89.3739C145.557 82.9239 148.847 75.514 152.437 69.924C159.527 58.894 166.777 49.3639 177.277 41.0739Z" fill="#966841"/>
<path d="M107.587 99.5838C106.587 101.024 105.784 101.584 105.177 101.264L99.6069 89.8939C98.8802 88.401 98.5661 86.7436 98.6969 85.0938C99.0269 80.9938 99.5169 76.4238 99.0669 72.4538C98.0069 63.2138 94.2569 54.9539 88.8869 47.4339C88.7536 46.9939 88.717 46.6206 88.777 46.3139C88.7901 46.2457 88.8227 46.1827 88.8708 46.1325C88.919 46.0824 88.9806 46.0472 89.0483 46.0313C89.116 46.0155 89.1868 46.0196 89.2522 46.0431C89.3177 46.0666 89.3748 46.1086 89.4169 46.1639C92.2569 49.9373 94.0803 52.3238 94.8869 53.3238C97.3069 56.3172 99.0336 58.7338 100.067 60.5738C106.467 71.8838 110.227 86.5638 107.587 99.5838Z" fill="#D4AD89"/>
<path d="M176.327 47.0439C176.754 46.9439 176.96 47.1472 176.947 47.6539C168.737 58.4739 164.297 70.7738 167.057 84.4938C167.297 85.7138 166.787 87.7972 165.527 90.7438C163.994 94.3172 162.41 97.8905 160.777 101.464C160.324 102.184 159.614 101.667 158.647 99.9139C156.887 94.4339 156.644 88.6372 157.917 82.5239C158.984 77.3905 160.297 73.0105 161.857 69.3839C165.437 61.0305 170.26 53.5839 176.327 47.0439Z" fill="#DBB788"/>
<path d="M94.9071 125.194C92.3271 126.301 93.0738 127.151 97.1471 127.744C97.7604 127.951 97.3904 128.381 96.0371 129.034C95.8933 129.103 95.7667 129.203 95.6663 129.328C95.566 129.452 95.4945 129.598 95.4571 129.754C94.2571 134.941 92.9571 140.101 91.5571 145.234C90.8237 147.934 90.8504 151.674 91.6371 156.454C79.3438 158.814 66.8271 160.204 54.0871 160.624C42.9537 160.991 31.8204 161.411 20.6871 161.884C12.6604 162.224 6.43376 159.537 2.00709 153.824L1.15708 150.424C-1.58958 129.797 0.553743 109.671 7.58708 90.0439C7.10708 92.6939 6.08708 97.7739 6.83708 100.364C6.88075 100.52 6.96442 100.662 7.07978 100.776C7.19515 100.889 7.33822 100.971 7.49482 101.012C7.65142 101.054 7.81614 101.053 7.97264 101.012C8.12914 100.97 8.272 100.888 8.38709 100.774C11.2071 97.9873 13.3338 95.9039 14.7671 94.5239C21.1271 88.3839 29.6571 84.7339 38.3571 83.3739C51.0171 81.3839 58.7971 80.4539 68.5071 75.3939C71.5738 81.7206 75.5238 87.3205 80.3571 92.1938C85.3071 97.1838 92.0771 101.634 98.6771 107.104C98.7883 107.195 98.8654 107.323 98.8962 107.466C98.927 107.609 98.9096 107.759 98.8471 107.894C98.8004 107.987 98.3404 108.631 97.4671 109.824C94.7171 113.564 94.7071 120.634 94.9071 125.194Z" fill="#DEBEA0"/>
<path d="M265.597 129.714C265.45 138.447 264.734 147.114 263.447 155.714C263.92 149.181 264.214 142.644 264.327 136.104C264.347 135.111 264.177 134.321 263.817 133.734C263.76 133.641 263.684 133.561 263.593 133.501C263.503 133.441 263.401 133.401 263.294 133.385C263.187 133.369 263.078 133.376 262.974 133.407C262.871 133.438 262.777 133.492 262.697 133.564C255.087 140.384 246.827 141.674 236.657 142.624C231.737 143.077 228.067 143.247 225.647 143.134C215.614 142.667 205.8 142.234 196.207 141.834C184.427 141.344 177.497 132.814 170.677 123.694C171.284 118.027 170.01 112.951 166.857 108.464C166.696 108.234 166.63 107.95 166.673 107.673C166.716 107.395 166.864 107.145 167.087 106.974L179.927 97.2439C197.647 100.804 216.047 104.654 234.217 105.014C244.064 105.201 252.344 101.901 259.057 95.1139C259.172 94.9998 259.253 94.8573 259.292 94.702C259.33 94.5468 259.325 94.3847 259.277 94.2339L255.607 82.7539C256.607 84.7139 257.467 86.7706 258.187 88.924C262.647 102.137 265.117 115.734 265.597 129.714Z" fill="#DEBEA0"/>
<path d="M263.447 155.714L262.847 160.554C260.64 169.914 257.63 178.987 253.817 187.774L245.557 202.454L241.437 208.494C243.537 203.501 245.247 198.417 246.567 193.244C250.747 176.874 239.117 173.134 225.807 173.034C205.687 172.881 187.13 173.354 170.137 174.454L170.067 168.474C169.907 166.807 169.963 165.717 170.237 165.204C172.517 160.964 173.767 156.514 173.987 151.854C174.107 149.314 173.52 145.274 172.227 139.734C171.293 135.747 170.457 131.734 169.717 127.694C170.377 127.241 171.137 126.941 171.997 126.794C172.075 126.784 172.149 126.748 172.205 126.691C172.261 126.635 172.297 126.562 172.307 126.484C172.317 126.405 172.301 126.325 172.261 126.256C172.222 126.188 172.16 126.134 172.087 126.104L170.127 125.254C170.587 124.747 170.77 124.227 170.677 123.694C177.497 132.814 184.427 141.344 196.207 141.834C205.8 142.234 215.613 142.667 225.647 143.134C228.067 143.247 231.737 143.077 236.657 142.624C246.827 141.674 255.087 140.384 262.697 133.564C262.776 133.492 262.871 133.438 262.974 133.407C263.077 133.376 263.186 133.369 263.293 133.385C263.4 133.401 263.503 133.441 263.593 133.501C263.684 133.561 263.76 133.641 263.817 133.734C264.177 134.321 264.347 135.111 264.327 136.104C264.213 142.644 263.92 149.181 263.447 155.714Z" fill="#DAB79A"/>
<path d="M97.1469 127.744C93.0736 127.151 92.3269 126.301 94.9069 125.194C99.6369 123.484 103.847 121.094 108.507 124.644C112.207 127.454 113.357 131.634 114.727 135.844C114.762 135.948 114.764 136.06 114.734 136.165C114.703 136.27 114.642 136.363 114.557 136.433C114.473 136.502 114.369 136.544 114.26 136.553C114.151 136.562 114.042 136.538 113.947 136.484L112.247 135.504C112.149 135.448 112.041 135.413 111.928 135.403C111.816 135.392 111.703 135.406 111.597 135.444L106.617 137.264C106.577 137.277 106.533 137.287 106.487 137.294C100.367 138.384 98.6569 133.344 98.8969 128.214C98.9062 128.065 98.8594 127.917 98.7654 127.799C98.6714 127.681 98.5367 127.601 98.3869 127.574C97.9536 127.494 97.5403 127.551 97.1469 127.744ZM106.437 128.234C106.437 127.807 106.267 127.397 105.965 127.096C105.663 126.794 105.254 126.624 104.827 126.624C104.4 126.624 103.99 126.794 103.688 127.096C103.387 127.397 103.217 127.807 103.217 128.234C103.217 128.661 103.387 129.07 103.688 129.372C103.99 129.674 104.4 129.844 104.827 129.844C105.254 129.844 105.663 129.674 105.965 129.372C106.267 129.07 106.437 128.661 106.437 128.234Z" fill="#301A15"/>
<path d="M170.127 125.254L172.088 126.104C172.161 126.134 172.222 126.188 172.262 126.256C172.302 126.325 172.318 126.405 172.308 126.484C172.298 126.562 172.262 126.635 172.205 126.691C172.149 126.748 172.076 126.784 171.997 126.794C171.137 126.941 170.378 127.24 169.718 127.694C168.838 127.747 168.101 127.984 167.507 128.404C167.254 128.586 167.065 128.845 166.968 129.144C166.128 131.694 165.127 135.834 163.187 136.814C160.921 137.954 158.671 138.021 156.437 137.014C154.137 135.967 152.334 135.694 151.028 136.194C150.953 136.225 150.871 136.232 150.793 136.213C150.715 136.194 150.644 136.151 150.592 136.09C150.54 136.029 150.508 135.953 150.502 135.873C150.496 135.792 150.515 135.712 150.557 135.644L151.588 133.854C151.647 133.755 151.681 133.649 151.687 133.544C151.987 128.914 155.327 123.144 160.597 122.964C164.727 122.824 166.987 124.494 170.127 125.254ZM161.778 128.074C161.778 127.626 161.599 127.196 161.283 126.879C160.966 126.562 160.536 126.384 160.088 126.384C159.639 126.384 159.209 126.562 158.892 126.879C158.576 127.196 158.398 127.626 158.398 128.074C158.398 128.522 158.576 128.952 158.892 129.269C159.209 129.586 159.639 129.764 160.088 129.764C160.536 129.764 160.966 129.586 161.283 129.269C161.599 128.952 161.778 128.522 161.778 128.074Z" fill="#301A15"/>
<path d="M147.867 162.234L147.377 166.554C146.064 164.887 144.397 164.081 142.377 164.134C136.464 164.294 132.944 164.341 131.817 164.274C128.757 164.104 125.837 163.454 122.927 163.554C122.512 163.567 122.106 163.673 121.737 163.864L118.347 165.624C118.094 163.577 117.644 162.377 116.997 162.024C118.017 160.157 118.59 158.724 118.717 157.724C120.097 147.204 123.204 137.604 128.037 128.924C129.284 126.697 131.45 125.797 134.537 126.224C134.991 126.282 135.41 126.49 135.727 126.814C136.727 127.847 137.65 129.361 138.497 131.354C140.804 136.761 142.307 140.944 143.007 143.904C145.047 152.504 146.277 155.774 146.557 161.674C146.563 161.752 146.595 161.828 146.647 161.894C146.907 162.214 147.314 162.327 147.867 162.234Z" fill="#D29D77"/>
<path d="M160.087 129.764C161.021 129.764 161.777 129.007 161.777 128.074C161.777 127.14 161.021 126.384 160.087 126.384C159.154 126.384 158.397 127.14 158.397 128.074C158.397 129.007 159.154 129.764 160.087 129.764Z" fill="#D7D7D4"/>
<path d="M104.827 129.844C105.716 129.844 106.437 129.123 106.437 128.234C106.437 127.345 105.716 126.624 104.827 126.624C103.938 126.624 103.217 127.345 103.217 128.234C103.217 129.123 103.938 129.844 104.827 129.844Z" fill="#F5EDE2"/>
<path d="M268.472 154.486L266.542 163.057L267.142 158.216C268.429 149.616 269.145 140.95 269.292 132.216C269.972 139.543 269.699 146.966 268.472 154.486Z" fill="#BBB0A4"/>
<path d="M91.6367 156.454L95.2067 165.284L95.1967 177.234L92.0667 191.274C78.3933 189.227 64.82 188.664 51.3467 189.584C47.48 189.844 43.64 190.334 39.8267 191.054C28.0767 193.274 25.4567 200.194 26.0967 211.234L23.8567 208.804C12.7367 192.317 5.40001 174.304 1.84668 154.764L2.00668 153.824C6.43335 159.537 12.66 162.224 20.6867 161.884C31.82 161.411 42.9533 160.991 54.0867 160.624C66.8267 160.204 79.3434 158.814 91.6367 156.454Z" fill="#DAB79A"/>
<path d="M154.937 180.524C154.437 184.251 152.971 187.611 150.537 190.604C147.304 195.017 143.211 197.771 138.257 198.864C128.504 201.024 120.531 198.204 114.337 190.404C112.657 187.317 111.551 185.141 111.017 183.874C110.351 182.307 110.044 180.657 110.097 178.924C109.904 171.484 112.204 165.851 116.997 162.024C117.644 162.377 118.094 163.577 118.347 165.624C118.094 167.024 118.087 168.291 118.327 169.424C118.747 173.391 120.441 176.164 123.407 177.744C126.027 179.137 128.511 180.747 130.857 182.574C131.075 182.742 131.252 182.959 131.373 183.207C131.494 183.455 131.557 183.727 131.557 184.004C131.551 184.884 131.434 186.351 131.207 188.404C131.047 189.837 130.041 190.497 128.187 190.384C127.981 190.371 125.374 190.274 120.367 190.094C120.295 190.095 120.224 190.12 120.166 190.166C120.109 190.211 120.069 190.275 120.052 190.345C120.036 190.415 120.044 190.488 120.076 190.552C120.108 190.615 120.161 190.665 120.227 190.694C128.301 194.147 136.471 194.281 144.737 191.094C144.823 191.059 144.893 190.995 144.937 190.914C144.981 190.832 144.996 190.738 144.978 190.647C144.96 190.557 144.912 190.475 144.84 190.416C144.769 190.357 144.68 190.324 144.587 190.324H135.657C135.061 190.324 134.488 190.087 134.066 189.665C133.644 189.243 133.407 188.671 133.407 188.074V183.804C133.407 183.667 133.438 183.532 133.499 183.409C133.56 183.286 133.648 183.178 133.757 183.094C136.831 180.747 140.057 178.741 143.437 177.074C145.184 176.214 146.477 174.214 147.317 171.074C147.744 170.034 147.764 168.527 147.377 166.554L147.867 162.234C148.267 162.054 148.611 162.124 148.897 162.444C153.457 167.591 155.471 173.617 154.937 180.524Z" fill="#E5CBAC"/>
<path d="M147.377 166.554C147.764 168.527 147.744 170.034 147.317 171.074C145.604 169.154 143.051 168.977 139.658 170.544C135.848 172.294 133.738 174.994 133.468 178.944C133.459 179.051 133.415 179.152 133.342 179.231C133.269 179.31 133.172 179.362 133.066 179.379C132.96 179.397 132.852 179.378 132.758 179.326C132.664 179.274 132.59 179.193 132.547 179.094C131.987 177.754 131.571 176.481 131.297 175.274C130.944 173.767 130.171 172.657 128.977 171.944C125.937 170.124 122.387 169.284 118.327 169.424C118.087 168.291 118.094 167.024 118.347 165.624L121.737 163.864C122.106 163.673 122.513 163.567 122.927 163.554C125.837 163.454 128.757 164.104 131.817 164.274C132.944 164.341 136.464 164.294 142.377 164.134C144.397 164.081 146.064 164.887 147.377 166.554Z" fill="#6E5242"/>
<path d="M110.097 178.924C110.044 180.657 110.351 182.307 111.017 183.874C111.551 185.141 112.657 187.317 114.337 190.404L113.087 201.184C112.601 201.691 112.241 201.774 112.007 201.434C106.594 193.347 100.991 185.281 95.1973 177.234L95.2073 165.284C99.1139 170.111 103.311 174.044 107.797 177.084C108.224 177.377 108.697 177.574 109.217 177.674C109.369 177.701 109.51 177.77 109.626 177.872C109.743 177.974 109.829 178.106 109.877 178.254L110.097 178.924Z" fill="#925738"/>
<path d="M170.067 168.474L170.137 174.454L170.297 178.594C167.757 181.614 165.857 185.644 163.667 188.154C159.887 192.507 156.7 197.217 154.107 202.284C154.021 202.45 153.895 202.592 153.742 202.699C153.589 202.805 153.412 202.872 153.227 202.894L152.727 202.954L150.537 190.604C152.97 187.61 154.437 184.251 154.937 180.524L169.177 166.134C169.225 166.086 169.286 166.051 169.352 166.035C169.418 166.019 169.487 166.021 169.551 166.042C169.615 166.063 169.671 166.102 169.713 166.153C169.755 166.205 169.78 166.268 169.787 166.334L170.067 168.474Z" fill="#925738"/>
<path d="M147.317 171.074C146.477 174.214 145.184 176.214 143.437 177.074C140.057 178.741 136.83 180.747 133.757 183.094C133.648 183.178 133.56 183.286 133.499 183.409C133.438 183.532 133.407 183.667 133.407 183.804V188.074C133.407 188.671 133.644 189.243 134.066 189.665C134.488 190.087 135.06 190.324 135.657 190.324H144.587C144.68 190.324 144.769 190.357 144.84 190.416C144.911 190.475 144.96 190.557 144.978 190.647C144.995 190.738 144.981 190.832 144.937 190.914C144.893 190.995 144.823 191.059 144.737 191.094C136.47 194.281 128.3 194.147 120.227 190.694C120.161 190.665 120.108 190.615 120.076 190.552C120.044 190.488 120.036 190.415 120.052 190.345C120.069 190.275 120.109 190.211 120.166 190.166C120.224 190.12 120.294 190.095 120.367 190.094C125.374 190.274 127.98 190.371 128.187 190.384C130.04 190.497 131.047 189.837 131.207 188.404C131.434 186.351 131.55 184.884 131.557 184.004C131.557 183.727 131.494 183.455 131.373 183.207C131.252 182.959 131.075 182.742 130.857 182.574C128.51 180.747 126.027 179.137 123.407 177.744C120.44 176.164 118.747 173.391 118.327 169.424C122.387 169.284 125.937 170.124 128.977 171.944C130.17 172.657 130.944 173.767 131.297 175.274C131.57 176.481 131.987 177.754 132.547 179.094C132.589 179.193 132.663 179.274 132.757 179.326C132.851 179.378 132.96 179.397 133.066 179.379C133.172 179.362 133.269 179.31 133.342 179.231C133.414 179.152 133.459 179.051 133.467 178.944C133.737 174.994 135.847 172.294 139.657 170.544C143.05 168.977 145.604 169.154 147.317 171.074Z" fill="#301A15"/>
<path d="M241.437 208.494L233.117 220.374C226.243 228.027 218.013 235.414 208.427 242.534C204.473 245.467 200.79 247.817 197.377 249.584C195.43 238.09 191.93 227.321 186.877 217.274C183.747 211.054 177.507 202.034 174.317 194.774C172.363 190.347 171.023 184.954 170.297 178.594L170.137 174.454C187.13 173.354 205.687 172.881 225.807 173.034C239.117 173.134 250.747 176.874 246.567 193.244C245.247 198.417 243.537 203.501 241.437 208.494Z" fill="#D4AD89"/>
<path d="M95.1969 177.234C100.99 185.281 106.594 193.347 112.007 201.434C112.24 201.774 112.6 201.691 113.087 201.184L112.657 204.044C110.717 213.011 108.147 221.811 104.947 230.444C103.807 233.511 102.84 236.631 102.047 239.804C101.274 242.931 101.04 245.747 101.347 248.254C101.86 252.441 103.04 256.951 104.887 261.784C100.46 261.604 96.3669 260.751 92.6069 259.224C84.6669 256.011 78.1869 253.481 73.1669 251.634C71.2336 250.241 69.7902 248.374 68.8369 246.034C71.1902 236.547 72.9969 230.097 74.2569 226.684C75.9836 222.004 79.0836 215.834 83.5569 208.174C87.6302 201.201 90.4669 195.567 92.0669 191.274L95.1969 177.234Z" fill="#B97E51"/>
<path d="M197.377 249.584C189.177 255.084 179.777 258.817 169.177 260.784L166.217 261.564C164.163 261.664 162.313 261.337 160.667 260.584C164.5 254.397 165.647 247.864 164.107 240.984C162.547 233.984 159.887 225.394 156.127 215.214C154.817 211.674 154.077 207.694 152.897 203.964C152.783 203.657 152.727 203.321 152.727 202.954L153.227 202.894C153.411 202.872 153.588 202.805 153.741 202.699C153.895 202.592 154.02 202.45 154.107 202.284C156.7 197.217 159.887 192.507 163.667 188.154C165.857 185.644 167.757 181.614 170.297 178.594C171.023 184.954 172.363 190.347 174.317 194.774C177.507 202.034 183.747 211.054 186.877 217.274C191.93 227.321 195.43 238.091 197.377 249.584ZM194.25 250.764C194.221 250.699 194.167 250.648 194.1 250.623C194.033 250.597 193.958 250.599 193.893 250.629L184.06 255.048C183.995 255.077 183.944 255.131 183.919 255.198C183.893 255.265 183.895 255.339 183.925 255.405L184.023 255.624C184.053 255.689 184.107 255.74 184.174 255.765C184.241 255.791 184.315 255.788 184.38 255.759L194.213 251.34C194.278 251.311 194.329 251.257 194.354 251.19C194.38 251.123 194.378 251.048 194.348 250.983L194.25 250.764Z" fill="#B16B40"/>
<path d="M92.0671 191.274C90.4671 195.567 87.6304 201.201 83.5571 208.174C79.0838 215.834 75.9838 222.004 74.2571 226.684C72.9971 230.097 71.1904 236.547 68.8371 246.034C68.7638 248.267 68.3805 249.397 67.6871 249.424C57.3338 242.917 47.7338 235.617 38.8871 227.524L26.0971 211.234C25.4571 200.194 28.0771 193.274 39.8271 191.054C43.6405 190.334 47.4805 189.844 51.3471 189.584C64.8205 188.664 78.3938 189.227 92.0671 191.274Z" fill="#D4AD89"/>
<path d="M150.537 190.604L152.727 202.954C152.727 203.321 152.784 203.657 152.897 203.964C152.497 203.931 152.221 203.997 152.067 204.164C147.441 209.371 142.284 213.721 136.597 217.214C135.497 217.894 134.597 218.367 133.897 218.634C133.311 218.86 132.676 218.932 132.054 218.843C131.433 218.753 130.845 218.506 130.347 218.124L124.187 213.434L113.967 203.794C113.849 203.682 113.695 203.615 113.533 203.604C113.371 203.593 113.209 203.639 113.077 203.734L112.657 204.044L113.087 201.184L114.337 190.404C120.531 198.204 128.504 201.024 138.257 198.864C143.211 197.771 147.304 195.017 150.537 190.604Z" fill="#B58D6B"/>
<path d="M245.557 202.454C242.451 209.161 238.304 215.134 233.117 220.374L241.437 208.494L245.557 202.454Z" fill="#BA9A85"/>
<path d="M124.187 213.434C136.397 227.934 145.477 242.404 155.467 257.394C157.154 259.927 158.887 260.991 160.667 260.584C162.314 261.337 164.164 261.664 166.217 261.564L160.007 263.434C159.98 263.438 159.957 263.452 159.941 263.474C159.925 263.495 159.918 263.522 159.922 263.549C159.926 263.575 159.94 263.599 159.962 263.615C159.983 263.631 160.01 263.638 160.037 263.634L165.987 263.264C163.687 263.697 161.347 263.911 158.967 263.904C158.355 263.897 157.739 263.954 157.127 264.074C149.514 265.501 141.844 266.161 134.117 266.054C139.124 265.661 144.154 265.147 149.207 264.514C150.027 264.414 151.414 264.014 153.367 263.314C153.459 263.283 153.537 263.222 153.588 263.141C153.64 263.06 153.662 262.963 153.652 262.866C153.642 262.769 153.599 262.678 153.531 262.607C153.463 262.536 153.374 262.489 153.277 262.474C150.977 262.127 147.027 262.037 141.427 262.204C133.347 262.454 124.917 262.004 116.657 261.684C113.49 261.557 109.734 262.034 105.387 263.114L97.417 261.634C99.897 262.174 102.387 262.224 104.887 261.784C103.04 256.951 101.86 252.441 101.347 248.254C101.04 245.747 101.274 242.931 102.047 239.804C102.84 236.631 103.807 233.511 104.947 230.444C108.147 221.811 110.717 213.011 112.657 204.044L113.077 203.734C113.209 203.639 113.37 203.593 113.533 203.604C113.695 203.615 113.849 203.682 113.967 203.794L124.187 213.434Z" fill="#DBB788"/>
<path d="M152.898 203.964C154.078 207.694 154.818 211.674 156.128 215.214C159.888 225.394 162.547 233.984 164.107 240.984C165.647 247.864 164.501 254.397 160.667 260.584C158.887 260.991 157.154 259.927 155.468 257.394C145.478 242.404 136.398 227.934 124.188 213.434L130.347 218.124C130.845 218.506 131.433 218.753 132.055 218.843C132.676 218.932 133.311 218.86 133.898 218.634C134.598 218.367 135.497 217.894 136.597 217.214C142.284 213.721 147.441 209.371 152.068 204.164C152.221 203.997 152.498 203.931 152.898 203.964Z" fill="#CEA78B"/>
<path d="M26.0974 211.234L38.8874 227.524C33.1474 221.857 28.1374 215.617 23.8574 208.804L26.0974 211.234Z" fill="#C3AE99"/>
<path d="M34.6188 224.37C34.4859 224.193 34.3459 224.075 34.3062 224.104C34.2665 224.134 34.3421 224.302 34.4751 224.478C34.608 224.654 34.748 224.773 34.7877 224.743C34.8274 224.713 34.7518 224.546 34.6188 224.37Z" fill="#989FA7"/>
<path d="M68.8375 246.034C69.7908 248.374 71.2342 250.241 73.1675 251.634L73.6675 252.754L67.6875 249.424C68.3808 249.397 68.7642 248.267 68.8375 246.034Z" fill="#BA9A85"/>
<path d="M193.893 250.629L184.061 255.048C183.925 255.109 183.864 255.269 183.925 255.405L184.024 255.624C184.085 255.76 184.244 255.82 184.38 255.759L194.213 251.34C194.349 251.279 194.41 251.119 194.349 250.983L194.25 250.764C194.189 250.628 194.029 250.568 193.893 250.629Z" fill="#9E734F"/>
<path d="M104.887 261.784C102.387 262.224 99.897 262.174 97.417 261.634C89.337 260.124 81.667 256.684 73.667 252.754L73.167 251.634C78.187 253.481 84.667 256.011 92.607 259.224C96.367 260.751 100.46 261.604 104.887 261.784Z" fill="#B58D6B"/>
<path d="M165.987 263.264L160.037 263.634C160.01 263.638 159.984 263.631 159.962 263.615C159.94 263.599 159.926 263.575 159.922 263.549C159.918 263.522 159.925 263.495 159.941 263.474C159.957 263.452 159.981 263.438 160.007 263.434L166.217 261.564L169.177 260.784C172.064 260.864 171 261.691 165.987 263.264Z" fill="#BA9A85"/>
<path d="M134.117 266.054C124.363 266.607 114.787 265.627 105.387 263.114C109.733 262.034 113.49 261.557 116.657 261.684C124.917 262.004 133.347 262.454 141.427 262.204C147.027 262.037 150.977 262.127 153.277 262.474C153.373 262.489 153.463 262.536 153.531 262.607C153.599 262.678 153.641 262.77 153.652 262.866C153.662 262.963 153.64 263.06 153.588 263.141C153.536 263.222 153.458 263.283 153.367 263.314C151.413 264.014 150.027 264.414 149.207 264.514C144.153 265.147 139.123 265.661 134.117 266.054Z" fill="#DAB79A"/>
</svg>
