<svg width="277" height="279" viewBox="0 0 277 279" fill="none" xmlns="http://www.w3.org/2000/svg">
<path d="M246.842 54.2758L249.992 58.7559C248.065 64.6693 245.465 70.1892 242.192 75.3159C241.032 74.3492 240.082 73.2093 239.342 71.8959C239.309 71.8367 239.294 71.7693 239.3 71.7019C239.305 71.6344 239.331 71.5699 239.373 71.5159C239.415 71.462 239.472 71.421 239.538 71.3979C239.603 71.3748 239.674 71.3707 239.742 71.3859L242.772 72.1359C242.89 72.1659 243.014 72.1603 243.129 72.1201C243.244 72.0798 243.345 72.0066 243.418 71.9095C243.492 71.8124 243.535 71.6959 243.543 71.5743C243.551 71.4527 243.523 71.3315 243.462 71.2259C238.582 62.8259 231.282 59.6359 222.742 55.6459C222.616 55.593 222.484 55.5625 222.352 55.5559L212.582 55.1059C212.537 55.1059 212.493 55.0897 212.46 55.0602C212.427 55.0308 212.405 54.9901 212.399 54.9449C212.393 54.8997 212.403 54.8531 212.428 54.8131C212.452 54.7731 212.489 54.7422 212.532 54.7259L219.092 52.4559C219.144 52.44 219.189 52.4062 219.218 52.3603C219.248 52.3144 219.26 52.2595 219.253 52.2054C219.246 52.1513 219.219 52.1016 219.179 52.065C219.138 52.0285 219.086 52.0075 219.032 52.0059C214.065 51.7393 209.375 52.1392 204.962 53.2059C202.632 53.7759 199.612 55.5059 197.902 56.0859C197.839 56.1048 197.773 56.1037 197.711 56.0826C197.65 56.0615 197.596 56.0216 197.559 55.9685C197.521 55.9154 197.501 55.8518 197.502 55.7867C197.502 55.7216 197.523 55.6584 197.562 55.6059L201.872 50.3759C201.928 50.3061 201.962 50.2207 201.969 50.1312C201.975 50.0416 201.954 49.9521 201.909 49.8748C201.863 49.7975 201.795 49.7362 201.713 49.6988C201.631 49.6614 201.54 49.6499 201.452 49.6658C198.618 50.1658 196.105 50.9726 193.912 52.0859C183.318 57.4592 175.875 65.7259 171.582 76.8859C171.428 76.8659 171.278 76.8592 171.132 76.8659C170.965 76.8726 170.822 76.8393 170.702 76.7659C165.788 73.7726 160.538 71.7159 154.952 70.5959C150.152 69.6259 144.002 69.8258 138.612 69.7958C132.512 69.8892 126.472 70.6358 120.492 72.0358C116.645 72.9358 112.532 74.6425 108.152 77.1558C107.692 77.4225 107.212 77.1592 106.712 76.3659C100.892 62.3059 91.6418 52.6959 77.2018 49.3359C77.1293 49.3182 77.053 49.3235 76.9836 49.351C76.9143 49.3786 76.8552 49.4271 76.8146 49.4897C76.7739 49.5523 76.7538 49.6259 76.7568 49.7005C76.7599 49.7751 76.7861 49.8468 76.8318 49.9058L81.3018 55.9058C81.3486 55.9692 81.3726 56.0467 81.37 56.1254C81.3674 56.2042 81.3383 56.2798 81.2874 56.3399C81.2364 56.4001 81.1667 56.4412 81.0895 56.4569C81.0122 56.4725 80.932 56.4615 80.8617 56.4258C74.4917 53.0258 66.4917 50.8559 58.9917 52.2659C58.9289 52.2784 58.8717 52.3106 58.8285 52.3579C58.7853 52.4052 58.7583 52.465 58.7516 52.5288C58.7449 52.5925 58.7589 52.6567 58.7913 52.712C58.8237 52.7672 58.8729 52.8106 58.9318 52.8359L64.0417 54.9158C64.0991 54.9365 64.1463 54.9771 64.1746 55.0301C64.2028 55.0831 64.2104 55.1451 64.1958 55.2045C64.1812 55.264 64.1455 55.3171 64.0952 55.3541C64.0449 55.3911 63.9833 55.4094 63.9218 55.4058C54.4518 54.6358 44.7718 60.6259 38.3018 67.2459C36.8818 68.7059 35.865 70.0125 35.2517 71.1658C35.2048 71.2558 35.1842 71.3572 35.1923 71.4583C35.2003 71.5594 35.2367 71.6562 35.2972 71.7376C35.3578 71.819 35.44 71.8818 35.5345 71.9186C35.6291 71.9555 35.7321 71.9649 35.8318 71.9459L39.5417 71.2159C39.6494 71.1928 39.7616 71.2058 39.8611 71.253C39.9605 71.3002 40.0416 71.379 40.0918 71.477C40.1419 71.575 40.1583 71.6868 40.1384 71.7951C40.1185 71.9034 40.0634 72.0021 39.9817 72.0759C35.9484 75.8425 32.9384 80.5126 30.9518 86.0859C30.9136 86.1914 30.9079 86.3061 30.9357 86.4149C30.9634 86.5237 31.0232 86.6216 31.1073 86.696C31.1914 86.7704 31.2959 86.8177 31.4072 86.832C31.5186 86.8462 31.6316 86.8266 31.7317 86.7758L34.9917 85.1558C35.0716 85.1136 35.1623 85.0975 35.2515 85.1097C35.3407 85.1218 35.4241 85.1617 35.4906 85.2238C35.5571 85.2859 35.6034 85.3673 35.6233 85.4571C35.6432 85.5469 35.6356 85.6407 35.6017 85.7259L33.2018 91.4258L20.0518 76.0559C26.9251 60.5425 36.7285 47.0758 49.4618 35.6558C76.8018 10.0958 113.762 -2.57414 151.002 0.435859C172.072 2.13586 195.082 10.1359 212.302 21.3959C225.082 29.7493 236.595 40.7092 246.842 54.2758Z" fill="#CCC3D2"/>
<path d="M49.4614 35.6559C36.728 47.0759 26.9247 60.5426 20.0513 76.0559C15.1913 85.7826 11.6813 95.9026 9.52131 106.416C6.80131 119.646 5.66129 133.046 7.19129 146.326C8.02463 153.493 9.3613 160.529 11.2013 167.436C11.3213 170.809 11.718 173.603 12.3913 175.816C14.4313 182.496 17.408 190.046 21.3213 198.466C24.1613 204.573 27.3647 210.103 30.9313 215.056C40.1313 227.826 49.7214 239.076 62.4414 248.006C78.0714 258.976 97.9113 267.956 116.731 270.356C136.911 272.936 155.241 273.116 173.311 268.056C190.621 263.216 205.431 256.406 220.251 245.316C225.665 241.263 231.095 236.079 236.541 229.766C247.681 216.873 256.545 202.406 263.131 186.366C264.118 183.959 264.418 182.003 264.031 180.496C264.02 180.443 263.991 180.395 263.95 180.359C263.909 180.324 263.857 180.303 263.803 180.3C263.748 180.296 263.694 180.311 263.649 180.341C263.604 180.371 263.569 180.415 263.551 180.466C254.181 204.896 236.841 226.516 216.301 242.476C204.515 251.643 191.221 257.933 176.421 261.346C189.948 257.646 202.391 251.683 213.751 243.456C218.178 240.249 221.858 237.449 224.791 235.056C225.039 234.852 225.219 234.579 225.308 234.272C225.397 233.965 225.391 233.639 225.291 233.336C224.051 229.523 222.368 223.806 220.241 216.186C218.381 209.506 215.811 203.686 212.641 198.076C212.616 198.042 212.597 198.004 212.586 197.964C212.575 197.923 212.573 197.88 212.578 197.839C212.589 197.754 212.634 197.678 212.701 197.626C212.769 197.574 212.854 197.551 212.939 197.563C213.023 197.574 213.1 197.618 213.151 197.686L217.351 201.896C217.437 201.975 217.548 202.022 217.665 202.03C217.781 202.037 217.897 202.004 217.991 201.936C218.085 201.868 218.152 201.77 218.179 201.658C218.207 201.547 218.193 201.429 218.141 201.326C215.575 196.353 212.641 191.289 209.341 186.136C206.835 182.216 204.078 178.243 201.071 174.216C205.151 168.429 207.715 162.039 208.761 155.046C221.541 159.166 234.161 161.766 246.621 162.846C250.928 163.219 258.015 163.586 267.881 163.946C268.024 163.948 268.162 163.903 268.275 163.818C268.388 163.733 268.467 163.612 268.501 163.476C277.631 127.526 269.871 89.826 249.991 58.756L246.841 54.2759C250.711 53.4759 255.401 61.4059 256.771 63.7059C268.165 82.9059 274.518 103.406 275.831 125.206C277.291 149.456 275.521 174.766 264.731 196.956C258.545 209.683 251.668 221.289 244.101 231.776C239.035 238.803 232.761 245.099 225.281 250.666C212.261 260.346 199.531 268.516 183.801 272.836C141.721 284.386 96.6713 279.086 60.9213 253.486C57.628 251.126 52.3246 246.803 45.0113 240.516C38.6046 235.009 33.7013 230.173 30.3013 226.006C24.548 218.959 19.128 210.483 14.0413 200.576C4.768 182.523 0.0879569 163.943 0.00129022 144.836C-0.0253764 138.976 0.361324 131.626 1.16132 122.786C2.53132 107.606 6.25134 95.0759 12.1113 81.0759C18.2713 66.3459 25.6613 55.2959 36.6213 43.8459C40.568 39.7193 44.848 36.9892 49.4614 35.6559Z" fill="#ABB0B6"/>
<path d="M106.711 76.366C106.811 77.246 106.411 78.0192 105.511 78.6859C98.5976 83.7526 92.5409 89.946 87.3409 97.266C86.5876 98.326 85.7209 98.6826 84.7409 98.3359L78.151 96.8259C78.0121 96.7949 77.8855 96.7235 77.7872 96.6206C77.6889 96.5177 77.6232 96.3879 77.5986 96.2477C77.574 96.1075 77.5915 95.9633 77.6489 95.833C77.7063 95.7028 77.8009 95.5924 77.921 95.516C79.881 94.236 82.4409 93.2193 85.6009 92.4659C85.7833 92.4234 85.9459 92.3218 86.0636 92.1768C86.1812 92.0317 86.2475 91.8513 86.252 91.6636C86.2566 91.4758 86.1993 91.2911 86.0888 91.1379C85.9784 90.9847 85.8209 90.8715 85.641 90.8159L79.961 89.0959C79.859 89.0621 79.77 88.9975 79.7063 88.911C79.6425 88.8245 79.607 88.7205 79.6048 88.613C79.6026 88.5056 79.6337 88.4 79.6939 88.311C79.7541 88.222 79.8405 88.1539 79.941 88.116C82.861 87.0426 85.7042 86.6826 88.4709 87.0359C88.5461 87.0468 88.6229 87.0367 88.6926 87.0066C88.7623 86.9765 88.8223 86.9276 88.8658 86.8654C88.9094 86.8031 88.9347 86.73 88.9392 86.6542C88.9436 86.5784 88.9269 86.5028 88.891 86.4359C86.541 81.9159 83.751 77.226 79.781 74.386C68.041 65.966 53.711 74.246 49.451 86.646C43.751 103.186 53.331 126.436 73.791 125.136C72.9976 128.396 72.171 130.856 71.311 132.516C70.7843 133.523 69.8443 134.499 68.4909 135.446C58.6109 136.006 50.9176 132.393 45.411 124.606C45.3479 124.514 45.2634 124.438 45.1645 124.385C45.0657 124.333 44.9553 124.305 44.8427 124.304C44.7301 124.303 44.6185 124.329 44.5173 124.38C44.4161 124.431 44.3282 124.505 44.2609 124.596L43.3409 125.846C43.2497 125.97 43.1292 126.069 42.9902 126.135C42.8512 126.201 42.698 126.231 42.5444 126.223C42.3908 126.215 42.2417 126.169 42.1102 126.089C41.9787 126.01 41.869 125.899 41.791 125.766C38.1643 119.599 36.3076 113.213 36.2209 106.606C36.2184 106.485 36.1853 106.366 36.1247 106.261C36.0641 106.156 35.9778 106.068 35.8741 106.005C35.7704 105.942 35.6525 105.907 35.5313 105.901C35.4101 105.896 35.2896 105.922 35.181 105.976L31.711 107.706C31.6208 107.751 31.5208 107.772 31.4201 107.769C31.3195 107.766 31.2211 107.738 31.134 107.687C31.0468 107.637 30.9736 107.565 30.9207 107.48C30.8679 107.394 30.837 107.296 30.831 107.196C30.5577 101.856 31.3477 96.5992 33.201 91.4259L35.6009 85.7259C35.6348 85.6408 35.6424 85.5469 35.6225 85.4571C35.6027 85.3674 35.5563 85.286 35.4898 85.2239C35.4234 85.1618 35.3399 85.1219 35.2507 85.1097C35.1615 85.0976 35.0708 85.1137 34.9909 85.1559L31.7309 86.7759C31.6308 86.8267 31.5178 86.8463 31.4065 86.832C31.2951 86.8178 31.1906 86.7704 31.1065 86.696C31.0224 86.6217 30.9626 86.5237 30.9349 86.4149C30.9072 86.3061 30.9128 86.1915 30.951 86.0859C32.9377 80.5126 35.9476 75.8426 39.9809 72.0759C40.0626 72.0021 40.1178 71.9034 40.1377 71.7952C40.1576 71.6869 40.1412 71.5751 40.091 71.477C40.0409 71.379 39.9598 71.3003 39.8603 71.253C39.7609 71.2058 39.6486 71.1928 39.541 71.2159L35.831 71.9459C35.7314 71.9649 35.6283 71.9555 35.5338 71.9187C35.4393 71.8819 35.357 71.8191 35.2965 71.7377C35.2359 71.6563 35.1995 71.5595 35.1915 71.4584C35.1834 71.3572 35.2041 71.2558 35.2509 71.1659C35.8643 70.0126 36.881 68.706 38.301 67.246C44.771 60.626 54.451 54.6359 63.921 55.4059C63.9825 55.4094 64.0441 55.3911 64.0944 55.3541C64.1448 55.3171 64.1805 55.2641 64.195 55.2046C64.2096 55.1451 64.2021 55.0831 64.1738 55.0301C64.1455 54.9771 64.0983 54.9366 64.041 54.9159L58.931 52.8359C58.8721 52.8107 58.8229 52.7673 58.7905 52.712C58.7581 52.6568 58.7441 52.5925 58.7508 52.5288C58.7575 52.4651 58.7845 52.4052 58.8277 52.3579C58.8709 52.3106 58.9281 52.2784 58.9909 52.266C66.4909 50.856 74.4909 53.0259 80.8609 56.4259C80.9312 56.4616 81.0115 56.4725 81.0887 56.4569C81.166 56.4413 81.2357 56.4001 81.2866 56.34C81.3375 56.2798 81.3666 56.2042 81.3692 56.1255C81.3718 56.0467 81.3478 55.9693 81.301 55.9059L76.831 49.9059C76.7854 49.8468 76.7591 49.7751 76.7561 49.7006C76.753 49.626 76.7732 49.5523 76.8138 49.4897C76.8544 49.4271 76.9135 49.3786 76.9829 49.3511C77.0522 49.3235 77.1285 49.3183 77.201 49.3359C91.641 52.6959 100.891 62.306 106.711 76.366Z" fill="#877F81"/>
<path d="M242.191 75.3159C245.184 78.6759 247.478 82.3926 249.071 86.466C249.104 86.5467 249.112 86.6352 249.094 86.7205C249.076 86.8057 249.034 86.8838 248.972 86.9448C248.909 87.0059 248.831 87.0472 248.745 87.0634C248.66 87.0796 248.571 87.07 248.491 87.0359L244.081 85.246C244.006 85.215 243.924 85.208 243.845 85.2261C243.766 85.2442 243.695 85.2864 243.641 85.3468C243.587 85.4073 243.553 85.483 243.544 85.5635C243.535 85.644 243.552 85.7252 243.591 85.7959C247.144 92.4026 248.544 99.416 247.791 106.836C247.778 106.955 247.737 107.069 247.673 107.17C247.608 107.271 247.521 107.356 247.419 107.417C247.316 107.479 247.201 107.517 247.082 107.527C246.963 107.537 246.842 107.52 246.731 107.476L243.831 106.286C243.771 106.262 243.706 106.253 243.641 106.259C243.577 106.265 243.514 106.286 243.459 106.32C243.404 106.353 243.357 106.4 243.323 106.454C243.289 106.509 243.267 106.572 243.261 106.636C242.641 114.169 240.188 121.019 235.901 127.186C235.801 127.331 235.658 127.44 235.493 127.499C235.327 127.558 235.147 127.564 234.978 127.515C234.809 127.467 234.66 127.366 234.551 127.228C234.442 127.09 234.379 126.922 234.371 126.746L234.271 124.786C234.265 124.704 234.235 124.627 234.183 124.563C234.132 124.5 234.062 124.453 233.984 124.431C233.906 124.408 233.822 124.409 233.745 124.435C233.667 124.461 233.6 124.51 233.551 124.576C227.871 132.463 220.094 136.073 210.221 135.406C208.101 132.019 207.084 128.453 207.171 124.706C212.751 124.673 217.304 123.113 220.831 120.026C234.641 107.926 236.171 85.3259 220.161 74.0659C213.061 69.0759 203.161 69.4959 197.231 76.1859C194.531 79.2326 192.258 82.7359 190.411 86.6959C190.387 86.7499 190.378 86.8093 190.385 86.8679C190.392 86.9266 190.414 86.9823 190.45 87.0293C190.486 87.0763 190.534 87.1129 190.588 87.1352C190.643 87.1574 190.703 87.1645 190.761 87.1559C193.634 86.6759 196.314 86.8059 198.801 87.5459C198.906 87.5794 199 87.6433 199.069 87.7296C199.138 87.8159 199.18 87.9207 199.189 88.0309C199.199 88.1411 199.176 88.2517 199.123 88.3487C199.07 88.4456 198.989 88.5247 198.891 88.5759L193.201 91.4259C193.13 91.4608 193.07 91.5158 193.029 91.5841C192.988 91.6525 192.968 91.7312 192.971 91.8107C192.975 91.8902 193.001 91.9672 193.047 92.032C193.093 92.0969 193.157 92.1468 193.231 92.1759L200.341 95.0759C200.422 95.1084 200.492 95.1614 200.545 95.23C200.599 95.2986 200.633 95.3802 200.645 95.4669C200.657 95.5537 200.647 95.6425 200.614 95.7248C200.582 95.807 200.529 95.8798 200.461 95.9359C198.748 97.3226 196.414 98.0793 193.461 98.206C189.081 93.1726 185.534 89.4092 182.821 86.9159C181.088 85.3292 177.451 82.3793 171.911 78.0659C171.786 77.9712 171.687 77.8452 171.624 77.7C171.561 77.5547 171.536 77.395 171.551 77.236L171.581 76.886C175.874 65.726 183.318 57.4593 193.911 52.086C196.104 50.9726 198.618 50.1659 201.451 49.6659C201.539 49.65 201.631 49.6615 201.712 49.6989C201.794 49.7362 201.862 49.7976 201.908 49.8749C201.954 49.9522 201.975 50.0417 201.968 50.1312C201.961 50.2208 201.928 50.3062 201.871 50.376L197.561 55.606C197.523 55.6584 197.502 55.7217 197.501 55.7868C197.5 55.8518 197.52 55.9154 197.558 55.9685C197.596 56.0216 197.649 56.0616 197.711 56.0827C197.772 56.1037 197.839 56.1049 197.901 56.086C199.611 55.506 202.631 53.776 204.961 53.206C209.374 52.1393 214.064 51.7393 219.031 52.006C219.086 52.0076 219.138 52.0285 219.178 52.0651C219.219 52.1016 219.245 52.1514 219.252 52.2055C219.259 52.2596 219.247 52.3145 219.218 52.3604C219.188 52.4063 219.143 52.4401 219.091 52.456L212.531 54.726C212.488 54.7423 212.451 54.7731 212.427 54.8131C212.403 54.8531 212.393 54.8998 212.399 54.945C212.405 54.9901 212.426 55.0309 212.459 55.0603C212.493 55.0897 212.536 55.1059 212.581 55.106L222.351 55.5559C222.483 55.5625 222.615 55.5931 222.741 55.646C231.281 59.636 238.581 62.826 243.461 71.226C243.522 71.3316 243.55 71.4528 243.542 71.5744C243.535 71.6959 243.491 71.8125 243.418 71.9096C243.344 72.0066 243.243 72.0799 243.128 72.1201C243.013 72.1604 242.889 72.166 242.771 72.136L239.741 71.386C239.673 71.3708 239.603 71.3749 239.537 71.398C239.472 71.421 239.414 71.4621 239.372 71.516C239.33 71.5699 239.304 71.6345 239.299 71.7019C239.293 71.7694 239.308 71.8368 239.341 71.896C240.081 73.2093 241.031 74.3493 242.191 75.3159Z" fill="#757579"/>
<path d="M208.761 155.046C209.668 148.746 209.618 142.363 208.611 135.896C208.6 135.824 208.603 135.75 208.621 135.679C208.638 135.608 208.67 135.541 208.714 135.482C208.757 135.424 208.812 135.374 208.876 135.337C208.939 135.3 209.009 135.276 209.081 135.266C209.401 135.226 209.781 135.273 210.221 135.406C220.094 136.073 227.871 132.463 233.551 124.576C233.6 124.51 233.667 124.461 233.745 124.435C233.822 124.409 233.906 124.408 233.984 124.431C234.062 124.453 234.132 124.5 234.183 124.563C234.235 124.627 234.265 124.704 234.271 124.786L234.371 126.746C234.379 126.922 234.442 127.09 234.551 127.228C234.66 127.366 234.809 127.467 234.978 127.515C235.147 127.564 235.327 127.558 235.493 127.499C235.658 127.44 235.801 127.331 235.901 127.186C240.188 121.019 242.641 114.169 243.261 106.636C243.267 106.572 243.289 106.509 243.323 106.454C243.357 106.4 243.404 106.353 243.459 106.32C243.515 106.286 243.577 106.265 243.641 106.259C243.706 106.253 243.771 106.262 243.831 106.286L246.731 107.476C246.843 107.52 246.963 107.537 247.082 107.527C247.201 107.517 247.317 107.479 247.419 107.417C247.522 107.356 247.608 107.271 247.673 107.17C247.737 107.069 247.778 106.955 247.791 106.836C248.544 99.4159 247.144 92.4026 243.591 85.7959C243.552 85.7252 243.535 85.644 243.544 85.5635C243.553 85.483 243.587 85.4073 243.641 85.3468C243.695 85.2863 243.766 85.2442 243.845 85.2261C243.924 85.208 244.006 85.215 244.081 85.246L248.491 87.0359C248.571 87.07 248.66 87.0796 248.745 87.0634C248.831 87.0471 248.91 87.0059 248.972 86.9448C249.034 86.8838 249.076 86.8057 249.094 86.7205C249.112 86.6352 249.104 86.5466 249.071 86.4659C247.478 82.3926 245.184 78.6759 242.191 75.3159C245.464 70.1893 248.064 64.6693 249.991 58.756C269.871 89.826 277.631 127.526 268.501 163.476C268.467 163.612 268.387 163.733 268.275 163.818C268.162 163.903 268.023 163.948 267.881 163.946C258.014 163.586 250.928 163.219 246.621 162.846C234.161 161.766 221.541 159.166 208.761 155.046Z" fill="#BFB5C4"/>
<path d="M138.611 69.7959C140.251 83.8059 138.441 97.7959 138.801 111.826C138.928 116.833 138.995 121.843 139.001 126.856C129.021 127.176 123.971 137.166 122.991 145.936C123.065 145.076 122.968 144.479 122.701 144.146C122.652 144.085 122.588 144.039 122.515 144.011C122.442 143.983 122.363 143.976 122.287 143.989C122.211 144.002 122.14 144.036 122.083 144.087C122.026 144.137 121.983 144.203 121.961 144.276L117.951 156.476C117.931 156.529 117.918 156.586 117.911 156.646C117.658 158.466 117.495 160.783 117.421 163.596C117.355 166.283 117.641 167.943 118.281 168.576C118.061 169.669 118.488 170.993 119.561 172.546C119.801 178.496 121.531 184.726 125.901 188.986C126.388 193.346 127.545 197.523 129.371 201.516L122.091 200.936C108.285 198.423 96.0845 192.599 85.4912 183.466C85.0445 183.079 84.3312 182.316 83.3512 181.176C82.6112 180.316 81.8212 179.626 80.9812 179.106C79.9279 175.906 78.7513 174.293 77.4513 174.266C75.0313 170.313 72.9346 165.933 71.1613 161.126C68.7346 153.333 68.5679 145.173 70.6613 136.646C70.6939 136.514 70.6969 136.376 70.67 136.243C70.6432 136.11 70.587 135.984 70.5057 135.875C70.4244 135.766 70.32 135.676 70.2 135.613C70.0799 135.549 69.9471 135.512 69.8113 135.506L68.4912 135.446C69.8445 134.499 70.7846 133.523 71.3113 132.516C72.1713 130.856 72.9979 128.396 73.7913 125.136C75.6979 119.396 78.0512 113.816 80.8512 108.396C82.5612 105.086 83.5012 101.806 84.7412 98.3359C85.7212 98.6826 86.5879 98.326 87.3412 97.266C92.5412 89.946 98.5979 83.7526 105.511 78.6859C106.411 78.0192 106.811 77.246 106.711 76.366C107.211 77.1593 107.691 77.4226 108.151 77.1559C112.531 74.6426 116.645 72.9359 120.491 72.0359C126.471 70.6359 132.511 69.8892 138.611 69.7959ZM114.681 125.586C110.391 121.186 105.391 119.106 99.8013 122.936C96.8613 124.949 95.2413 128.279 94.9413 132.926C94.588 138.466 97.0679 142.236 102.381 144.236C102.694 144.353 103.032 144.374 103.351 144.296C113.911 141.746 115.091 136.436 115.041 126.456C115.035 126.134 114.906 125.824 114.681 125.586Z" fill="#A29C9C"/>
<path d="M171.581 76.886L171.551 77.236C171.536 77.395 171.562 77.5547 171.625 77.7C171.688 77.8452 171.786 77.9712 171.911 78.0659C177.451 82.3793 181.088 85.3292 182.821 86.9159C185.535 89.4092 189.081 93.1726 193.461 98.2059C197.701 105.766 201.615 114.306 205.201 123.826C205.455 124.493 206.111 124.786 207.171 124.706C207.085 128.453 208.101 132.019 210.221 135.406C209.781 135.273 209.401 135.226 209.081 135.266C209.009 135.276 208.939 135.3 208.876 135.337C208.813 135.374 208.758 135.424 208.714 135.482C208.67 135.541 208.639 135.608 208.621 135.679C208.603 135.75 208.6 135.824 208.611 135.896C209.618 142.363 209.668 148.746 208.761 155.046C207.715 162.039 205.151 168.429 201.071 174.216L198.571 178.176C191.671 186.256 183.591 192.109 174.331 195.736C159.871 201.396 144.885 203.323 129.371 201.516C127.545 197.523 126.388 193.346 125.901 188.986C129.328 192.173 133.411 193.833 138.151 193.966C149.085 194.266 155.885 189.236 158.551 178.876C159.091 176.796 159.358 174.689 159.351 172.556C160.618 170.836 160.965 169.556 160.391 168.716C161.211 165.689 161.491 163.059 161.231 160.826C160.625 155.679 158.758 149.986 155.631 143.746C155.251 142.886 154.481 140.773 153.321 137.406C151.181 131.213 146.631 127.729 139.671 126.956L139.001 126.856C138.995 121.843 138.928 116.833 138.801 111.826C138.441 97.7959 140.251 83.8059 138.611 69.7959C144.001 69.8259 150.151 69.6259 154.951 70.5959C160.538 71.7159 165.788 73.7727 170.701 76.766C170.821 76.8393 170.965 76.8726 171.131 76.866C171.278 76.8593 171.428 76.866 171.581 76.886ZM162.051 132.536C160.501 141.026 167.531 144.496 174.741 143.896C189.061 142.706 185.941 117.326 170.701 121.516C165.761 122.876 162.971 127.476 162.051 132.536Z" fill="#918589"/>
<path d="M207.171 124.706C206.111 124.786 205.454 124.493 205.201 123.826C201.614 114.306 197.701 105.766 193.461 98.2059C196.414 98.0792 198.748 97.3226 200.461 95.9359C200.529 95.8797 200.582 95.8069 200.614 95.7247C200.647 95.6425 200.657 95.5536 200.645 95.4669C200.633 95.3802 200.599 95.2985 200.545 95.23C200.492 95.1614 200.422 95.1083 200.341 95.0759L193.231 92.1759C193.157 92.1468 193.093 92.0968 193.047 92.032C193.001 91.9671 192.975 91.8902 192.971 91.8106C192.968 91.7311 192.988 91.6524 193.029 91.5841C193.07 91.5158 193.13 91.4608 193.201 91.4259L198.891 88.5759C198.989 88.5247 199.07 88.4456 199.123 88.3486C199.176 88.2516 199.199 88.141 199.19 88.0309C199.18 87.9207 199.138 87.8159 199.069 87.7296C199 87.6433 198.906 87.5793 198.801 87.5459C196.314 86.8059 193.634 86.6759 190.761 87.1559C190.703 87.1645 190.643 87.1574 190.588 87.1351C190.534 87.1128 190.486 87.0763 190.45 87.0293C190.414 86.9823 190.392 86.9265 190.385 86.8679C190.378 86.8093 190.387 86.7499 190.411 86.6959C192.258 82.7359 194.531 79.2326 197.231 76.1859C203.161 69.4959 213.061 69.0759 220.161 74.0659C236.171 85.3259 234.641 107.926 220.831 120.026C217.304 123.113 212.751 124.673 207.171 124.706Z" fill="#E4B3AE"/>
<path d="M84.7416 98.336C83.5016 101.806 82.5616 105.086 80.8516 108.396C78.0516 113.816 75.6983 119.396 73.7916 125.136C53.3316 126.436 43.7517 103.186 49.4517 86.646C53.7117 74.246 68.0416 65.966 79.7816 74.386C83.7516 77.226 86.5416 81.9159 88.8916 86.4359C88.9276 86.5028 88.9443 86.5784 88.9398 86.6542C88.9354 86.73 88.91 86.8032 88.8664 86.8654C88.8229 86.9276 88.7629 86.9765 88.6932 87.0066C88.6235 87.0367 88.5467 87.0468 88.4715 87.0359C85.7049 86.6826 82.8616 87.0427 79.9416 88.116C79.8411 88.154 79.7548 88.222 79.6946 88.3111C79.6344 88.4001 79.6033 88.5056 79.6055 88.6131C79.6077 88.7205 79.6431 88.8245 79.7069 88.911C79.7707 88.9975 79.8597 89.0621 79.9617 89.096L85.6416 90.8159C85.8216 90.8715 85.979 90.9847 86.0895 91.138C86.1999 91.2912 86.2572 91.4758 86.2527 91.6636C86.2481 91.8514 86.1819 92.0318 86.0642 92.1768C85.9465 92.3218 85.7839 92.4234 85.6016 92.466C82.4416 93.2193 79.8816 94.236 77.9216 95.516C77.8016 95.5925 77.7069 95.7028 77.6495 95.833C77.5922 95.9633 77.5746 96.1075 77.5992 96.2477C77.6238 96.3879 77.6895 96.5177 77.7878 96.6206C77.8861 96.7235 78.0127 96.795 78.1516 96.8259L84.7416 98.336Z" fill="#E4B3AE"/>
<path d="M20.0517 76.0559L33.2017 91.4259C31.3483 96.5992 30.5583 101.856 30.8317 107.196C30.8377 107.296 30.8685 107.394 30.9214 107.48C30.9743 107.565 31.0475 107.637 31.1347 107.687C31.2218 107.738 31.3201 107.766 31.4208 107.769C31.5215 107.772 31.6214 107.751 31.7117 107.706L35.1817 105.976C35.2903 105.922 35.4108 105.896 35.532 105.901C35.6532 105.907 35.771 105.942 35.8748 106.005C35.9785 106.068 36.0648 106.156 36.1254 106.261C36.186 106.366 36.2191 106.485 36.2216 106.606C36.3082 113.213 38.165 119.599 41.7916 125.766C41.8697 125.899 41.9794 126.01 42.1109 126.089C42.2424 126.169 42.3915 126.215 42.5451 126.223C42.6986 126.231 42.8519 126.201 42.9909 126.135C43.1299 126.069 43.2503 125.97 43.3416 125.846L44.2616 124.596C44.3289 124.505 44.4167 124.431 44.518 124.38C44.6192 124.329 44.7308 124.303 44.8434 124.304C44.956 124.305 45.0663 124.333 45.1652 124.385C45.264 124.438 45.3486 124.514 45.4116 124.606C50.9183 132.393 58.6116 136.006 68.4916 135.446L69.8117 135.506C69.9475 135.512 70.0802 135.549 70.2003 135.613C70.3204 135.676 70.4248 135.766 70.5061 135.875C70.5874 135.984 70.6435 136.11 70.6704 136.243C70.6973 136.376 70.6943 136.514 70.6616 136.646C68.5683 145.173 68.735 153.333 71.1616 161.126C63.995 165.699 57.3116 169.186 51.1116 171.586C39.6216 176.046 26.9216 176.996 14.2816 177.106L11.2016 167.436C9.36161 160.529 8.02494 153.493 7.1916 146.326C5.6616 133.046 6.80162 119.646 9.52162 106.416C11.6816 95.9026 15.1916 85.7826 20.0517 76.0559Z" fill="#BFB5C4"/>
<path d="M115.041 126.456C115.091 136.436 113.911 141.746 103.351 144.296C103.032 144.374 102.694 144.353 102.381 144.236C97.0679 142.236 94.5879 138.466 94.9413 132.926C95.2413 128.279 96.8612 124.949 99.8012 122.936C105.391 119.106 110.391 121.186 114.681 125.586C114.906 125.824 115.035 126.134 115.041 126.456ZM113.351 136.816C113.504 133.323 112.708 130.463 110.961 128.236C110.736 127.951 110.47 127.701 110.171 127.496C106.391 124.903 103.088 125.313 100.261 128.726C99.0679 130.179 98.7012 131.973 99.1612 134.106C100.671 141.096 107.721 141.456 112.811 137.816C112.971 137.7 113.102 137.551 113.195 137.378C113.289 137.204 113.342 137.012 113.351 136.816Z" fill="#ABA8A5"/>
<path d="M174.742 143.896C167.532 144.496 160.502 141.026 162.052 132.536C162.972 127.476 165.762 122.876 170.702 121.516C185.942 117.326 189.062 142.706 174.742 143.896ZM166.832 138.806C168.778 140.419 171.165 141.013 173.992 140.586C180.912 139.546 182.392 129.446 176.002 126.556C174.402 125.829 172.885 125.783 171.452 126.416C167.338 128.243 165.528 131.859 166.022 137.266C166.047 137.564 166.132 137.853 166.271 138.118C166.41 138.382 166.601 138.616 166.832 138.806Z" fill="#A29C9C"/>
<path d="M112.812 137.816C107.722 141.456 100.672 141.096 99.1617 134.106C98.7017 131.973 99.0683 130.179 100.262 128.726C103.088 125.313 106.392 124.903 110.172 127.496C110.47 127.702 110.736 127.951 110.962 128.236C112.708 130.463 113.505 133.323 113.352 136.816C113.343 137.012 113.289 137.204 113.196 137.378C113.102 137.551 112.971 137.701 112.812 137.816ZM107.942 130.846C107.942 130.278 107.716 129.734 107.315 129.333C106.914 128.931 106.369 128.706 105.802 128.706C105.521 128.706 105.242 128.761 104.983 128.869C104.723 128.976 104.487 129.134 104.289 129.333C104.09 129.532 103.932 129.767 103.825 130.027C103.717 130.287 103.662 130.565 103.662 130.846C103.662 131.127 103.717 131.405 103.825 131.665C103.932 131.925 104.09 132.16 104.289 132.359C104.487 132.558 104.723 132.715 104.983 132.823C105.242 132.931 105.521 132.986 105.802 132.986C106.369 132.986 106.914 132.761 107.315 132.359C107.716 131.958 107.942 131.414 107.942 130.846Z" fill="#301A15"/>
<path d="M166.022 137.266C165.528 131.859 167.338 128.243 171.452 126.416C172.885 125.783 174.402 125.829 176.002 126.556C182.392 129.446 180.912 139.546 173.992 140.586C171.165 141.013 168.778 140.419 166.832 138.806C166.601 138.616 166.41 138.382 166.271 138.118C166.132 137.853 166.047 137.564 166.022 137.266ZM175.192 130.826C175.192 130.333 174.996 129.86 174.647 129.511C174.298 129.162 173.825 128.966 173.332 128.966C172.838 128.966 172.365 129.162 172.016 129.511C171.668 129.86 171.472 130.333 171.472 130.826C171.472 131.319 171.668 131.792 172.016 132.141C172.365 132.49 172.838 132.686 173.332 132.686C173.825 132.686 174.298 132.49 174.647 132.141C174.996 131.792 175.192 131.319 175.192 130.826Z" fill="#301A15"/>
<path d="M139.001 126.856L139.671 126.956C139.245 126.936 138.851 126.983 138.491 127.096C138.354 127.141 138.237 127.233 138.161 127.355C138.084 127.478 138.053 127.623 138.071 127.766C138.198 128.666 138.151 129.449 137.931 130.116C136.531 134.376 134.508 139.939 131.861 146.806C131.228 148.466 129.118 152.133 125.531 157.806C125.509 157.838 125.478 157.863 125.442 157.878C125.406 157.892 125.367 157.896 125.329 157.889C125.29 157.881 125.255 157.863 125.227 157.836C125.199 157.809 125.18 157.774 125.171 157.736L124.131 152.476C124.11 152.372 124.051 152.278 123.964 152.214C123.878 152.15 123.77 152.118 123.661 152.126C123.068 152.179 122.858 152.679 123.031 153.626L122.991 145.936C123.971 137.166 129.021 127.176 139.001 126.856Z" fill="#4F4747"/>
<path d="M139.671 126.956C146.631 127.729 151.181 131.213 153.321 137.406C154.481 140.773 155.251 142.886 155.631 143.746C155.824 150.606 155.864 155.979 155.751 159.866C155.551 166.799 152.474 171.786 146.521 174.826L132.541 174.736C123.241 170.986 122.481 162.576 123.031 153.626C122.858 152.679 123.068 152.179 123.661 152.126C123.77 152.118 123.877 152.15 123.964 152.214C124.05 152.278 124.11 152.372 124.131 152.476L125.171 157.736C125.18 157.774 125.199 157.809 125.227 157.836C125.255 157.863 125.29 157.881 125.328 157.889C125.367 157.896 125.406 157.892 125.442 157.878C125.478 157.863 125.509 157.838 125.531 157.806C129.118 152.133 131.228 148.466 131.861 146.806C134.508 139.939 136.531 134.376 137.931 130.116C138.151 129.449 138.198 128.666 138.071 127.766C138.052 127.623 138.084 127.478 138.16 127.355C138.237 127.233 138.354 127.141 138.491 127.096C138.851 126.983 139.245 126.936 139.671 126.956ZM135.201 168.656L128.531 162.996C128.523 162.992 128.513 162.99 128.504 162.992C128.495 162.994 128.487 162.999 128.481 163.006L128.461 163.026C127.965 163.61 127.826 164.456 128.075 165.379C128.325 166.302 128.942 167.225 129.791 167.946L130.111 168.216C130.532 168.574 130.997 168.871 131.48 169.091C131.963 169.311 132.455 169.449 132.927 169.498C133.399 169.546 133.841 169.503 134.23 169.373C134.619 169.242 134.945 169.026 135.191 168.736L135.201 168.706C135.207 168.699 135.21 168.69 135.21 168.681C135.21 168.672 135.207 168.663 135.201 168.656ZM149.591 163.386L143.681 169.176C143.67 169.187 143.661 169.2 143.655 169.215C143.649 169.23 143.646 169.245 143.646 169.261C143.646 169.277 143.649 169.292 143.655 169.307C143.661 169.322 143.67 169.335 143.681 169.346L143.731 169.396C144.149 169.821 144.859 169.925 145.707 169.685C146.554 169.445 147.469 168.881 148.251 168.116L148.441 167.936C148.829 167.556 149.172 167.138 149.451 166.706C149.73 166.274 149.939 165.836 150.066 165.418C150.194 165 150.237 164.61 150.193 164.27C150.149 163.93 150.019 163.646 149.811 163.436L149.761 163.386C149.75 163.375 149.737 163.366 149.722 163.36C149.708 163.354 149.692 163.351 149.676 163.351C149.66 163.351 149.645 163.354 149.63 163.36C149.616 163.366 149.602 163.375 149.591 163.386Z" fill="#2C292D"/>
<path d="M105.801 132.986C106.983 132.986 107.941 132.028 107.941 130.846C107.941 129.664 106.983 128.706 105.801 128.706C104.619 128.706 103.661 129.664 103.661 130.846C103.661 132.028 104.619 132.986 105.801 132.986Z" fill="#F5EDE2"/>
<path d="M173.332 132.686C174.359 132.686 175.192 131.853 175.192 130.826C175.192 129.799 174.359 128.966 173.332 128.966C172.305 128.966 171.472 129.799 171.472 130.826C171.472 131.853 172.305 132.686 173.332 132.686Z" fill="#F5EDE2"/>
<path d="M160.392 168.716C156.932 172.549 152.848 174.849 148.142 175.616C146.688 175.856 146.148 175.593 146.522 174.826C152.475 171.786 155.552 166.799 155.752 159.866C155.865 155.979 155.825 150.606 155.632 143.746C158.758 149.986 160.625 155.679 161.232 160.826C161.492 163.059 161.212 165.689 160.392 168.716Z" fill="#BBB0A4"/>
<path d="M122.991 145.936L123.032 153.626C122.482 162.576 123.242 170.986 132.542 174.736C132.588 175.616 132.025 175.956 130.851 175.756C126.371 174.989 122.182 172.596 118.282 168.576C117.642 167.943 117.355 166.283 117.422 163.596C117.495 160.783 117.658 158.466 117.912 156.646C117.918 156.586 117.932 156.529 117.952 156.476L121.962 144.276C121.984 144.203 122.026 144.137 122.083 144.087C122.141 144.036 122.211 144.002 122.287 143.989C122.363 143.976 122.442 143.983 122.515 144.011C122.588 144.038 122.653 144.085 122.702 144.146C122.968 144.479 123.065 145.076 122.991 145.936Z" fill="#D2C6B7"/>
<path d="M71.1613 161.126C72.9346 165.933 75.0313 170.313 77.4513 174.266L60.4413 201.416C60.387 201.504 60.3634 201.608 60.3743 201.711C60.3851 201.814 60.4298 201.911 60.5012 201.986L60.8013 202.316C60.8494 202.366 60.9157 202.395 60.9865 202.397C61.0572 202.399 61.1271 202.373 61.1813 202.326L64.2512 199.476C64.3123 199.417 64.3915 199.381 64.4756 199.375C64.5597 199.368 64.6436 199.391 64.7136 199.44C64.7836 199.489 64.8355 199.561 64.8605 199.644C64.8855 199.727 64.8822 199.816 64.8512 199.896C60.7245 210.203 57.0979 221.309 53.9712 233.216C50.4579 231.549 46.7379 228.539 42.8113 224.186C33.9779 214.366 27.0912 204.756 22.1512 195.356C18.6979 188.803 16.0746 182.719 14.2812 177.106C26.9213 176.996 39.6212 176.046 51.1112 171.586C57.3112 169.186 63.9946 165.699 71.1613 161.126Z" fill="#ABB0B6"/>
<path d="M135.201 168.656C135.207 168.663 135.21 168.672 135.21 168.681C135.21 168.69 135.207 168.699 135.201 168.706L135.191 168.736C134.945 169.026 134.618 169.242 134.23 169.373C133.841 169.504 133.398 169.546 132.927 169.498C132.455 169.449 131.963 169.311 131.48 169.091C130.997 168.871 130.532 168.574 130.111 168.216L129.791 167.946C128.942 167.225 128.325 166.302 128.075 165.379C127.826 164.456 127.965 163.61 128.461 163.026L128.481 163.006C128.487 162.999 128.495 162.994 128.504 162.992C128.513 162.99 128.523 162.992 128.531 162.996L135.201 168.656Z" fill="#BBB0A4"/>
<path d="M149.592 163.386C149.603 163.375 149.616 163.366 149.631 163.36C149.645 163.354 149.661 163.351 149.677 163.351C149.693 163.351 149.708 163.354 149.723 163.36C149.737 163.366 149.751 163.375 149.762 163.386L149.812 163.436C150.02 163.646 150.15 163.93 150.193 164.27C150.237 164.61 150.194 165 150.067 165.418C149.94 165.836 149.731 166.274 149.452 166.706C149.173 167.138 148.83 167.556 148.442 167.936L148.252 168.116C147.47 168.881 146.555 169.445 145.707 169.685C144.86 169.925 144.149 169.821 143.732 169.396L143.682 169.346C143.671 169.335 143.662 169.322 143.656 169.307C143.65 169.292 143.646 169.277 143.646 169.261C143.646 169.245 143.65 169.23 143.656 169.215C143.662 169.2 143.671 169.187 143.682 169.176L149.592 163.386Z" fill="#BBB0A4"/>
<path d="M11.2012 167.436L14.2812 177.106C16.0745 182.719 18.6979 188.803 22.1512 195.356C27.0912 204.756 33.9779 214.366 42.8112 224.186C46.7379 228.539 50.4578 231.549 53.9711 233.216C56.2245 236.796 59.7345 240.136 64.5012 243.236C83.9812 255.886 103.541 263.546 126.311 265.646C128.911 265.886 131.818 265.876 135.031 265.616C137.418 266.289 140.391 266.526 143.951 266.326C144.11 266.316 144.264 266.271 144.403 266.193C144.542 266.115 144.661 266.007 144.751 265.876C144.918 265.623 145.001 265.419 145.001 265.266C155.474 266.033 165.948 264.726 176.421 261.346C191.221 257.933 204.515 251.643 216.301 242.476C236.841 226.516 254.181 204.896 263.551 180.466C263.569 180.415 263.604 180.371 263.649 180.341C263.694 180.311 263.748 180.296 263.803 180.3C263.857 180.303 263.909 180.324 263.95 180.359C263.991 180.395 264.02 180.443 264.031 180.496C264.418 182.003 264.118 183.959 263.131 186.366C256.544 202.406 247.681 216.873 236.541 229.766C231.095 236.079 225.664 241.263 220.251 245.316C205.431 256.406 190.621 263.216 173.311 268.056C155.241 273.116 136.911 272.936 116.731 270.356C97.9111 267.956 78.0712 258.976 62.4412 248.006C49.7212 239.076 40.1312 227.826 30.9312 215.056C27.3645 210.103 24.1612 204.573 21.3212 198.466C17.4078 190.046 14.4312 182.496 12.3912 175.816C11.7178 173.603 11.3212 170.809 11.2012 167.436Z" fill="#989FA7"/>
<path d="M118.282 168.576C122.182 172.596 126.372 174.989 130.852 175.756C132.025 175.956 132.588 175.616 132.542 174.736L146.522 174.826C146.148 175.593 146.688 175.856 148.142 175.616C152.848 174.849 156.932 172.549 160.392 168.716C160.965 169.556 160.618 170.836 159.352 172.556C148.202 181.496 130.762 181.406 119.562 172.546C118.488 170.993 118.062 169.669 118.282 168.576Z" fill="#83604A"/>
<path d="M119.562 172.546C130.762 181.406 148.201 181.496 159.351 172.556C159.358 174.689 159.092 176.796 158.552 178.876C155.885 189.236 149.085 194.266 138.151 193.966C133.411 193.833 129.328 192.173 125.901 188.986C121.531 184.726 119.802 178.496 119.562 172.546Z" fill="#D2C6B7"/>
<path d="M80.9817 179.106C85.975 194.913 94.2217 208.999 105.722 221.366C105.757 221.402 105.805 221.425 105.855 221.431C105.906 221.437 105.957 221.426 105.999 221.4C106.042 221.374 106.073 221.335 106.089 221.288C106.104 221.242 106.101 221.192 106.082 221.146L103.802 215.326C103.775 215.25 103.776 215.167 103.803 215.091C103.831 215.015 103.884 214.951 103.954 214.91C104.023 214.869 104.105 214.853 104.184 214.865C104.264 214.877 104.338 214.916 104.392 214.976C108.132 219.529 112.312 224.389 116.932 229.556C118.525 231.343 120.335 233.813 122.362 236.966C128.355 245.739 132.578 255.289 135.032 265.616C131.818 265.876 128.912 265.886 126.312 265.646C103.542 263.546 83.9817 255.886 64.5017 243.236C59.735 240.136 56.225 236.796 53.9717 233.216C57.0983 221.309 60.725 210.203 64.8517 199.896C64.8827 199.816 64.886 199.727 64.861 199.644C64.8359 199.561 64.7841 199.489 64.7141 199.44C64.6441 199.391 64.5602 199.368 64.4761 199.375C64.392 199.381 64.3128 199.417 64.2517 199.476L61.1818 202.326C61.1275 202.373 61.0577 202.399 60.9869 202.397C60.9162 202.395 60.8498 202.366 60.8018 202.316L60.5017 201.986C60.4303 201.911 60.3856 201.814 60.3748 201.711C60.3639 201.608 60.3875 201.504 60.4418 201.416L77.4518 174.266C78.7518 174.293 79.9284 175.906 80.9817 179.106Z" fill="#918589"/>
<path d="M201.071 174.216C204.078 178.243 206.834 182.216 209.341 186.136C212.641 191.289 215.574 196.353 218.141 201.326C218.193 201.429 218.206 201.547 218.179 201.658C218.151 201.77 218.085 201.868 217.991 201.936C217.897 202.004 217.781 202.037 217.664 202.03C217.547 202.022 217.436 201.975 217.351 201.896L213.151 197.686C213.099 197.618 213.023 197.574 212.938 197.563C212.854 197.551 212.769 197.574 212.701 197.626C212.633 197.678 212.589 197.754 212.578 197.839C212.567 197.923 212.589 198.008 212.641 198.076C215.811 203.686 218.381 209.506 220.241 216.186C222.368 223.806 224.051 229.523 225.291 233.336C225.391 233.639 225.397 233.965 225.308 234.272C225.219 234.579 225.038 234.852 224.791 235.056C221.858 237.449 218.178 240.249 213.751 243.456C202.391 251.683 189.948 257.646 176.421 261.346C165.948 264.726 155.474 266.033 145.001 265.266C146.874 255.999 150.431 247.269 155.671 239.076C159.418 233.209 163.464 228.216 167.811 224.096C169.681 222.326 171.451 219.676 172.821 218.506C172.9 218.44 172.999 218.402 173.102 218.399C173.205 218.395 173.306 218.427 173.389 218.488C173.472 218.549 173.533 218.636 173.56 218.736C173.588 218.835 173.581 218.941 173.541 219.036L172.801 220.866C172.768 220.935 172.76 221.013 172.779 221.087C172.799 221.161 172.844 221.225 172.907 221.269C172.97 221.312 173.046 221.332 173.122 221.324C173.198 221.316 173.268 221.281 173.321 221.226C185.321 209.726 193.761 194.216 198.571 178.176L201.071 174.216Z" fill="#877F81"/>
<path d="M198.572 178.176C193.762 194.216 185.322 209.726 173.322 221.226C173.269 221.281 173.199 221.316 173.123 221.324C173.047 221.332 172.97 221.312 172.908 221.269C172.845 221.225 172.8 221.161 172.78 221.087C172.761 221.013 172.769 220.935 172.802 220.866L173.542 219.036C173.582 218.941 173.588 218.835 173.561 218.736C173.533 218.636 173.473 218.549 173.39 218.488C173.307 218.427 173.206 218.395 173.103 218.399C173 218.402 172.901 218.44 172.822 218.506C171.452 219.676 169.682 222.326 167.812 224.096C163.465 228.216 159.419 233.209 155.672 239.076C150.432 247.269 146.875 255.999 145.002 265.266C145.002 265.419 144.918 265.623 144.752 265.876C144.661 266.007 144.542 266.115 144.404 266.193C144.265 266.271 144.111 266.316 143.952 266.326C140.392 266.526 137.419 266.289 135.032 265.616C132.579 255.289 128.355 245.739 122.362 236.966L122.092 200.936L129.372 201.516C144.885 203.323 159.872 201.396 174.332 195.736C183.592 192.109 191.672 186.256 198.572 178.176Z" fill="#D2C6B7"/>
<path d="M122.091 200.936L122.361 236.966C120.335 233.813 118.525 231.343 116.932 229.556C112.312 224.389 108.131 219.529 104.391 214.976C104.337 214.916 104.264 214.877 104.184 214.865C104.104 214.853 104.023 214.869 103.953 214.91C103.884 214.951 103.831 215.015 103.803 215.091C103.776 215.167 103.775 215.25 103.802 215.326L106.082 221.146C106.101 221.192 106.103 221.242 106.088 221.288C106.073 221.335 106.042 221.374 105.999 221.4C105.957 221.426 105.906 221.437 105.855 221.431C105.804 221.425 105.757 221.402 105.721 221.366C94.2214 208.999 85.9748 194.913 80.9814 179.106C81.8214 179.626 82.6114 180.316 83.3514 181.176C84.3314 182.316 85.0448 183.079 85.4915 183.466C96.0848 192.599 108.285 198.423 122.091 200.936Z" fill="#DCD5C9"/>
</svg>
