<svg width="269" height="272" viewBox="0 0 269 272" fill="none" xmlns="http://www.w3.org/2000/svg">
<path d="M201.182 17.5311L192.662 25.4111C186.669 30.2978 181.272 35.7445 176.472 41.7511C162.002 59.8611 153.952 81.8111 149.742 104.431L119.172 88.1611C116.079 77.9678 112.915 69.4744 109.682 62.6811C103.075 48.8011 93.5353 36.3245 81.062 25.2511C76.4486 20.6111 71.3319 16.4144 65.7119 12.6611C70.0219 13.9911 72.8819 16.2211 77.8619 13.8011C102.332 1.88111 130.922 -3.08892 157.852 1.96108C170.102 4.26108 182.492 7.99112 193.592 13.6911C196.105 14.9778 198.635 16.2578 201.182 17.5311Z" fill="#D2C6B7"/>
<path d="M65.7122 12.6612C71.3322 16.4145 76.4489 20.6112 81.0622 25.2512C81.8222 27.2912 83.5289 30.1679 86.1822 33.8812C90.2289 39.5345 93.4355 45.6212 95.8022 52.1412C95.9755 52.6278 95.8556 53.0212 95.4422 53.3212C95.3822 53.3679 95.2356 53.3279 95.0022 53.2012C94.3356 52.1012 93.8055 51.4178 93.4122 51.1512C90.9055 49.4178 88.8755 47.5312 87.3222 45.4912C81.9888 38.5112 76.5456 32.3845 70.9922 27.1112C68.7422 24.9012 60.3422 18.6212 57.5322 22.0712C54.1822 26.1812 54.9522 35.7012 55.5522 40.5412C56.1055 44.8612 56.0889 48.9812 55.5022 52.9012C53.7156 45.3412 52.5022 37.9045 51.8622 30.5912C51.2155 25.6845 51.6222 20.8779 53.0822 16.1712C54.0022 13.4179 55.5822 11.4012 57.8222 10.1212C57.9535 10.0458 58.1005 10.0005 58.2525 9.98839C58.4046 9.97629 58.5581 9.99772 58.7022 10.0512L65.7122 12.6612Z" fill="#4A2C1F"/>
<path d="M220.602 31.1211L217.352 52.8111C216.819 53.0044 216.572 51.9844 216.612 49.7511C217.252 43.8378 217.542 37.8044 217.482 31.6511C217.452 27.6811 216.732 22.9911 213.292 20.8411C213.115 20.7309 212.918 20.6589 212.713 20.6296C212.508 20.6003 212.3 20.6145 212.102 20.6711C210.149 21.2444 208.385 22.1244 206.812 23.3111C201.659 27.2044 196.995 31.6277 192.822 36.5811C190.135 39.6411 187.512 42.7677 184.952 45.9611C183.242 48.1011 181.312 49.6011 179.232 51.2411C178.592 51.7411 177.622 53.2911 176.322 55.8911C175.395 55.9511 175.192 55.3844 175.712 54.1911C180.132 44.1178 185.782 34.5244 192.662 25.4111L201.182 17.5311C204.952 14.4611 209.622 11.0111 214.462 10.1011C214.788 10.0426 215.122 10.0809 215.422 10.2111C217.615 11.1511 219.055 12.9311 219.742 15.5511C221.189 21.0378 221.475 26.2278 220.602 31.1211Z" fill="#4A2C1F"/>
<path d="M53.0813 16.1711C51.6213 20.8778 51.2147 25.6845 51.8613 30.5911L45.6113 36.6111C47.638 29.5978 50.128 22.7845 53.0813 16.1711Z" fill="#ABB0B6"/>
<path d="M216.611 49.7511C211.365 61.8111 205.065 73.1011 197.711 83.6211C190.325 83.2811 182.985 84.0078 175.691 85.8011C176.791 76.5744 177.865 70.1178 178.911 66.4311C180.071 62.3311 181.848 57.3578 184.241 51.5111C186.471 46.0511 190.071 41.7811 193.511 37.3611C193.551 37.3108 193.579 37.2529 193.595 37.1909C193.61 37.129 193.613 37.0642 193.603 37.0006C193.592 36.937 193.569 36.8758 193.535 36.8209C193.5 36.766 193.455 36.7184 193.401 36.6811C193.235 36.5678 193.041 36.5344 192.821 36.5811C196.995 31.6277 201.658 27.2044 206.811 23.3111C208.385 22.1244 210.148 21.2444 212.101 20.6711C212.299 20.6145 212.508 20.6003 212.713 20.6296C212.918 20.6589 213.115 20.7309 213.291 20.8411C216.731 22.9911 217.451 27.6811 217.481 31.6511C217.541 37.8044 217.251 43.8378 216.611 49.7511Z" fill="#C68370"/>
<path d="M70.9917 27.1112C70.3917 27.1579 70.1383 27.4712 70.2317 28.0512C70.2638 28.2381 70.3631 28.4084 70.5116 28.5312C79.7716 36.1845 86.7116 45.8212 91.3316 57.4412C92.6516 60.7546 93.865 65.4012 94.9716 71.3812C96.2116 78.1012 96.985 82.8612 97.2917 85.6612C97.7383 89.7212 98.135 97.4312 98.4817 108.791C95.6683 105.718 92.4883 103.141 88.9417 101.061C88.3105 100.689 87.7232 100.243 87.1917 99.7312C86.6383 99.1979 86.025 98.6279 85.3516 98.0212C85.025 97.7212 84.715 97.6946 84.4217 97.9412C84.2617 98.0746 84.2483 98.2179 84.3816 98.3712C78.8749 91.5312 75.5216 86.8246 74.3216 84.2512C71.0416 77.2246 67.6983 70.2212 64.2917 63.2412C62.4183 59.3946 59.505 51.8279 55.5517 40.5412C54.9517 35.7012 54.1816 26.1812 57.5316 22.0712C60.3416 18.6212 68.7417 24.9012 70.9917 27.1112Z" fill="#C68370"/>
<path d="M119.172 88.1612C122.672 99.5745 124.922 111.541 125.922 124.061C124.435 124.248 122.878 124.871 121.252 125.931C115.092 129.051 109.528 133.278 104.562 138.611C104.471 138.71 104.351 138.777 104.22 138.8C104.089 138.823 103.953 138.801 103.834 138.739C103.715 138.677 103.619 138.577 103.56 138.454C103.502 138.332 103.485 138.194 103.511 138.061C103.705 137.155 104.231 136.345 105.091 135.631C106.251 133.938 106.898 131.948 107.031 129.661C108.571 103.571 106.462 76.5912 95.0015 53.2012C95.2349 53.3279 95.3815 53.3679 95.4415 53.3212C95.8549 53.0212 95.9748 52.6278 95.8015 52.1412C93.4348 45.6212 90.2282 39.5346 86.1815 33.8812C83.5282 30.1679 81.8215 27.2912 81.0615 25.2512C93.5349 36.3246 103.075 48.8012 109.682 62.6812C112.915 69.4745 116.078 77.9679 119.172 88.1612Z" fill="#83604A"/>
<path d="M192.662 25.4111C185.782 34.5245 180.132 44.1178 175.712 54.1912C175.192 55.3845 175.395 55.9511 176.322 55.8911C172.795 64.5578 170.255 72.3345 168.702 79.2211C165.088 95.2411 164.045 112.061 165.572 129.681C165.665 130.828 166.355 132.484 167.642 134.651L169.782 138.381C169.828 138.801 169.775 139.118 169.622 139.331C169.422 139.624 169.155 139.618 168.822 139.311C161.592 132.491 156.302 127.101 147.672 124.381C147.352 124.281 147.105 123.948 146.932 123.381L149.742 104.431C153.952 81.8112 162.002 59.8612 176.472 41.7512C181.272 35.7445 186.668 30.2978 192.662 25.4111Z" fill="#83604A"/>
<path d="M70.9917 27.1111C76.5451 32.3844 81.9884 38.5111 87.3217 45.4911C88.875 47.5311 90.9051 49.4177 93.4117 51.1511C93.8051 51.4177 94.3351 52.1011 95.0018 53.2011C106.462 76.5911 108.572 103.571 107.032 129.661C106.898 131.948 106.252 133.938 105.092 135.631L104.052 129.701C103.225 122.261 101.368 115.291 98.4817 108.791C98.1351 97.4311 97.7384 89.7211 97.2917 85.6611C96.9851 82.8611 96.2117 78.1011 94.9717 71.3811C93.8651 65.4011 92.6517 60.7544 91.3317 57.4411C86.7117 45.8211 79.7717 36.1844 70.5117 28.5311C70.3632 28.4082 70.2639 28.238 70.2317 28.0511C70.1384 27.4711 70.3917 27.1578 70.9917 27.1111Z" fill="#F3E2C1"/>
<path d="M51.8618 30.5911C52.5018 37.9044 53.7151 45.3411 55.5018 52.9011C56.8285 62.8811 59.3485 72.8544 63.0618 82.8211C68.5918 97.6911 77.5218 106.701 89.1118 119.971C91.1251 122.271 92.8985 125.464 94.4318 129.551C84.2185 137.511 72.6518 142.001 59.7318 143.021C46.6618 144.051 33.1618 143.361 21.6918 144.081C15.1785 144.494 9.60845 147.078 4.98178 151.831C2.18178 134.751 4.14177 117.211 8.47177 100.691C11.1984 90.2711 15.1284 80.3411 20.2617 70.9011C27.0751 58.3611 35.5251 46.9311 45.6118 36.6111L51.8618 30.5911Z" fill="#CBBFAA"/>
<path d="M247.761 61.7711C252.331 70.3111 256.061 77.1611 260.241 87.6611C260.981 99.4311 259.541 107.211 246.081 108.911C235.535 110.238 225.051 110.251 214.631 108.951C210.364 108.418 204.388 107.398 196.701 105.891C207.651 91.2611 213.151 74.3611 216.921 56.9211C217.181 55.7144 217.325 54.3444 217.351 52.8111L220.601 31.1211C222.395 32.1144 223.715 33.0177 224.561 33.8311C233.355 42.2311 241.088 51.5444 247.761 61.7711Z" fill="#CBBFAA"/>
<path d="M192.822 36.5812C193.042 36.5345 193.235 36.5679 193.402 36.6812C193.455 36.7186 193.501 36.7661 193.535 36.821C193.57 36.8759 193.593 36.9371 193.603 37.0007C193.613 37.0643 193.611 37.1291 193.595 37.1911C193.579 37.253 193.551 37.3109 193.512 37.3612C190.072 41.7812 186.472 46.0513 184.242 51.5113C181.848 57.3579 180.072 62.3312 178.912 66.4312C177.865 70.1179 176.792 76.5746 175.692 85.8012L173.492 110.031C172.225 114.498 170.965 119.231 169.712 124.231C168.878 127.578 168.405 130.868 168.292 134.101C168.525 134.415 168.308 134.598 167.642 134.651C166.355 132.485 165.665 130.828 165.572 129.681C164.045 112.061 165.088 95.2412 168.702 79.2212C170.255 72.3345 172.795 64.5579 176.322 55.8912C177.622 53.2912 178.592 51.7412 179.232 51.2412C181.312 49.6012 183.242 48.1012 184.952 45.9612C187.512 42.7679 190.135 39.6412 192.822 36.5812Z" fill="#F3E2C1"/>
<path d="M84.3819 98.3712C88.7152 104.671 92.942 111.044 97.062 117.491C98.942 120.431 100.509 123.534 101.762 126.801C102.329 128.288 103.092 129.255 104.052 129.701L105.092 135.631C104.232 136.344 103.705 137.154 103.512 138.061C103.485 138.194 103.503 138.332 103.561 138.454C103.619 138.577 103.715 138.677 103.834 138.739C103.953 138.801 104.089 138.823 104.22 138.8C104.352 138.777 104.472 138.71 104.562 138.611C109.529 133.278 115.092 129.051 121.252 125.931C124.252 126.838 126.102 128.618 126.802 131.271C126.838 131.413 126.913 131.543 127.018 131.647C127.124 131.751 127.257 131.825 127.402 131.861L135.462 133.871C135.599 133.905 135.72 133.983 135.807 134.093C135.894 134.204 135.942 134.34 135.942 134.481V182.071C135.942 182.269 135.982 182.465 136.059 182.647C136.137 182.828 136.251 182.993 136.394 183.129C136.537 183.266 136.706 183.372 136.892 183.441C137.077 183.51 137.274 183.541 137.472 183.531C144.272 183.221 149.372 186.341 155.252 189.121C155.394 189.189 155.554 189.214 155.71 189.193C155.866 189.171 156.013 189.105 156.132 189.001C156.625 188.574 156.799 187.971 156.652 187.191C156.799 187.451 156.959 187.661 157.132 187.821C157.352 188.028 157.559 188.084 157.752 187.991C157.925 187.911 158.065 187.738 158.172 187.471L159.422 190.841C159.634 191.425 159.927 191.977 160.292 192.481C161.545 194.248 162.582 196.084 163.402 197.991C163.48 198.173 163.615 198.324 163.786 198.423C163.957 198.522 164.156 198.564 164.352 198.541L171.352 197.771L184.972 197.651L195.112 198.961C195.151 198.968 195.186 198.989 195.212 199.021C195.219 199.041 195.229 199.058 195.242 199.071C195.249 199.082 195.254 199.094 195.254 199.107C195.255 199.12 195.252 199.133 195.246 199.145C195.24 199.156 195.23 199.166 195.219 199.172C195.208 199.178 195.195 199.182 195.182 199.181C193.729 199.141 191.559 198.931 188.672 198.551C187.599 198.411 186.382 198.471 185.022 198.731L169.982 199.131L164.492 199.821C164.412 199.831 164.336 199.865 164.275 199.918C164.214 199.971 164.17 200.041 164.149 200.12C164.127 200.198 164.129 200.28 164.155 200.357C164.18 200.434 164.228 200.501 164.292 200.551C164.679 200.844 164.929 201.248 165.042 201.761C165.086 201.944 165.187 202.108 165.332 202.228C165.477 202.347 165.656 202.415 165.842 202.421L169.352 202.541L184.592 203.951L197.612 207.351C197.661 207.366 197.704 207.396 197.732 207.437C197.759 207.477 197.77 207.525 197.762 207.571V207.581C197.757 207.605 197.748 207.628 197.734 207.648C197.72 207.668 197.703 207.685 197.682 207.698C197.661 207.711 197.638 207.72 197.614 207.724C197.59 207.728 197.566 207.727 197.542 207.721L185.762 205.261L171.822 204.011L165.942 204.041C165.862 204.042 165.783 204.062 165.714 204.102C165.644 204.141 165.585 204.197 165.542 204.266C165.499 204.334 165.474 204.413 165.469 204.494C165.464 204.575 165.478 204.657 165.512 204.731C166.065 205.938 166.392 207.211 166.492 208.551C166.503 208.706 166.562 208.854 166.66 208.974C166.759 209.094 166.892 209.18 167.042 209.221L170.032 210.061L183.372 213.311L194.582 217.581C194.603 217.589 194.621 217.602 194.637 217.618C194.652 217.634 194.664 217.654 194.671 217.676C194.679 217.697 194.682 217.72 194.68 217.744C194.679 217.767 194.672 217.79 194.662 217.811C194.642 217.85 194.609 217.881 194.569 217.898C194.528 217.914 194.483 217.915 194.442 217.901L183.032 214.171L169.702 210.941L163.522 210.031L162.072 202.091L160.752 198.671C159.862 195.751 156.332 190.001 152.482 192.231C147.835 193.144 143.499 194.814 139.472 197.241C139.065 197.488 138.025 197.584 136.352 197.531C136.191 197.526 136.038 197.458 135.926 197.343C135.814 197.227 135.752 197.072 135.752 196.911V183.301C135.752 183.148 135.718 182.997 135.653 182.858C135.587 182.72 135.491 182.598 135.372 182.501C135.254 182.404 135.115 182.335 134.966 182.299C134.817 182.263 134.662 182.26 134.512 182.291C128.382 183.591 120.802 186.271 116.802 191.481C114.535 192.854 112.749 194.631 111.442 196.811C111.383 196.913 111.353 197.028 111.355 197.146C111.357 197.263 111.392 197.378 111.455 197.477C111.518 197.576 111.607 197.656 111.712 197.708C111.817 197.76 111.935 197.782 112.052 197.771C113.642 197.621 116.212 197.771 115.562 200.131C115.511 200.305 115.412 200.461 115.278 200.581C115.144 200.701 114.979 200.781 114.802 200.811L109.502 201.691C109.442 201.771 109.379 201.851 109.312 201.931L109.512 199.461C109.52 199.358 109.507 199.254 109.474 199.155C109.44 199.057 109.387 198.967 109.318 198.891C109.248 198.815 109.164 198.754 109.07 198.713C108.976 198.672 108.874 198.651 108.772 198.651H102.742C102.448 198.651 102.162 198.75 101.93 198.931C101.698 199.112 101.533 199.366 101.462 199.651L100.962 201.671C100.929 201.802 100.926 201.938 100.953 202.07C100.98 202.202 101.036 202.326 101.118 202.434C101.199 202.542 101.303 202.631 101.423 202.695C101.544 202.758 101.676 202.794 101.812 202.801L105.092 202.961L87.6219 204.231L86.3819 198.521L96.9019 198.271C96.9797 198.269 97.0535 198.236 97.1076 198.18C97.1617 198.124 97.192 198.049 97.192 197.971V197.961C97.1933 197.922 97.1868 197.883 97.1728 197.847C97.1588 197.811 97.1377 197.778 97.1106 197.75C97.0835 197.722 97.0511 197.699 97.0153 197.684C96.9794 197.669 96.9409 197.661 96.9019 197.661L86.9919 197.531C87.8986 192.431 89.2986 187.571 91.192 182.951C91.832 181.378 93.5252 178.065 96.2719 173.011C96.3087 172.945 96.3588 172.888 96.4191 172.843C96.4794 172.797 96.5485 172.765 96.622 172.748C96.6955 172.731 96.7717 172.73 96.8458 172.744C96.9198 172.758 96.99 172.788 97.0519 172.831L97.8819 173.411C99.2352 174.504 100.842 175.268 102.702 175.701C104.475 176.121 106.969 176.594 110.182 177.121C108.489 177.214 107.132 178.564 106.112 181.171C104.265 185.898 102.909 190.938 102.042 196.291C102.025 196.4 102.031 196.51 102.059 196.616C102.088 196.723 102.138 196.821 102.206 196.907C102.275 196.993 102.361 197.063 102.458 197.114C102.556 197.164 102.662 197.194 102.772 197.201L108.822 197.531C108.989 197.541 109.156 197.501 109.302 197.418C109.449 197.335 109.571 197.211 109.652 197.061L113.502 189.801C113.535 190.268 113.595 190.574 113.682 190.721C113.719 190.78 113.767 190.831 113.823 190.872C113.88 190.913 113.944 190.942 114.012 190.957C114.08 190.973 114.15 190.975 114.218 190.964C114.287 190.953 114.353 190.928 114.412 190.891C115.452 190.264 116.095 189.368 116.342 188.201C119.195 174.848 117.432 162.384 111.052 150.811C110.085 149.058 108.979 147.654 107.732 146.601C105.159 144.434 102.432 144.318 99.5519 146.251C98.8986 146.344 98.5253 145.981 98.4319 145.161C97.7719 139.554 96.4386 134.351 94.4319 129.551C92.8986 125.464 91.1253 122.271 89.1119 119.971C77.5219 106.701 68.592 97.6912 63.062 82.8212C59.3486 72.8545 56.8286 62.8811 55.502 52.9011C56.0886 48.9811 56.1053 44.8611 55.5519 40.5411C59.5053 51.8278 62.4186 59.3945 64.2919 63.2411C67.6986 70.2211 71.0419 77.2245 74.3219 84.2512C75.5219 86.8245 78.8752 91.5312 84.3819 98.3712Z" fill="#B58D6B"/>
<path d="M216.612 49.7512C216.572 51.9846 216.818 53.0046 217.352 52.8112C217.325 54.3446 217.182 55.7145 216.922 56.9212C213.152 74.3612 207.652 91.2612 196.702 105.891C193.568 109.265 190.495 112.638 187.482 116.011C179.675 124.765 175.335 135.265 174.462 147.511C172.848 145.165 170.652 144.508 167.872 145.541L170.072 140.181C170.188 139.905 170.198 139.598 170.102 139.321L169.782 138.381L167.642 134.651C168.308 134.598 168.525 134.415 168.292 134.101L168.802 134.801C168.869 134.891 168.96 134.959 169.066 134.997C169.171 135.035 169.286 135.041 169.395 135.014C169.503 134.988 169.602 134.93 169.678 134.847C169.754 134.765 169.804 134.662 169.822 134.551C171.712 123.161 177.882 114.221 184.402 104.791C186.475 101.778 188.642 98.8279 190.902 95.9412C193.802 92.2612 196.072 88.1545 197.712 83.6212C205.065 73.1012 211.365 61.8112 216.612 49.7512Z" fill="#B58D6B"/>
<path d="M197.712 83.6211C196.072 88.1544 193.802 92.2611 190.902 95.9411C190.875 95.7078 190.889 95.5277 190.942 95.401C190.947 95.39 190.949 95.378 190.948 95.3659C190.948 95.3539 190.944 95.3422 190.939 95.3316C190.933 95.321 190.925 95.3119 190.915 95.3049C190.905 95.2978 190.894 95.2931 190.882 95.2911C190.809 95.2911 190.722 95.2911 190.622 95.2911C190.594 95.2909 190.567 95.2962 190.543 95.3066C190.518 95.3169 190.498 95.3321 190.482 95.3511L188.732 97.3611C188.692 97.4075 188.645 97.4512 188.592 97.4911L173.492 110.031L175.692 85.8011C182.986 84.0077 190.325 83.2811 197.712 83.6211Z" fill="#BB756F"/>
<path d="M266.562 158.511C247.255 155.938 228.925 155.188 211.572 156.261C200.985 156.921 190.042 159.238 178.742 163.211C178.598 163.26 178.469 163.347 178.366 163.462C178.263 163.577 178.189 163.718 178.152 163.871L175.952 173.401C173.185 177.241 169.462 178.574 164.782 177.401C164.51 177.335 164.228 177.301 163.942 177.301L161.612 177.281C161.345 177.068 160.935 176.968 160.382 176.981L162.282 173.821C164.575 173.501 166.965 173.414 169.452 173.561C176.752 174.001 175.972 160.471 175.322 156.361C175.308 156.278 175.311 156.193 175.33 156.111C175.35 156.029 175.387 155.952 175.437 155.885C175.488 155.818 175.551 155.761 175.624 155.719C175.697 155.677 175.778 155.651 175.862 155.641C177.275 155.461 178.622 154.924 179.902 154.031C179.96 153.991 180.006 153.934 180.032 153.868C180.058 153.801 180.064 153.729 180.049 153.659C180.034 153.59 179.999 153.526 179.948 153.477C179.896 153.427 179.832 153.394 179.762 153.381L175.462 152.561L174.462 147.511C175.335 135.265 179.675 124.765 187.482 116.011C190.495 112.638 193.569 109.264 196.702 105.891C204.389 107.398 210.365 108.418 214.632 108.951C225.052 110.251 235.535 110.238 246.082 108.911C259.542 107.211 260.982 99.4311 260.242 87.6611C268.889 110.634 270.995 134.251 266.562 158.511Z" fill="#BBB0A4"/>
<path d="M149.742 104.431L146.932 123.381C146.859 123.461 146.795 123.528 146.742 123.581C146.665 123.656 146.571 123.711 146.468 123.742C146.366 123.773 146.257 123.78 146.152 123.761C139.439 122.608 132.695 122.708 125.922 124.061C124.922 111.541 122.672 99.5745 119.172 88.1611L149.742 104.431Z" fill="#CBBFAA"/>
<path d="M190.902 95.9412C188.642 98.8278 186.475 101.778 184.402 104.791C177.882 114.221 171.712 123.161 169.822 134.551C169.804 134.662 169.754 134.765 169.678 134.847C169.602 134.93 169.504 134.988 169.395 135.014C169.286 135.041 169.172 135.035 169.066 134.997C168.961 134.959 168.869 134.891 168.802 134.801L168.292 134.101C168.405 130.868 168.879 127.578 169.712 124.231C170.965 119.231 172.225 114.498 173.492 110.031L188.592 97.4912C188.645 97.4512 188.692 97.4076 188.732 97.3612L190.482 95.3511C190.498 95.3322 190.518 95.317 190.543 95.3066C190.567 95.2963 190.594 95.2909 190.622 95.2911C190.722 95.2911 190.809 95.2911 190.882 95.2911C190.894 95.2932 190.905 95.2979 190.915 95.3049C190.925 95.312 190.933 95.3211 190.939 95.3317C190.944 95.3422 190.948 95.354 190.948 95.366C190.949 95.3781 190.947 95.39 190.942 95.4011C190.889 95.5278 190.875 95.7078 190.902 95.9412Z" fill="#824D37"/>
<path d="M98.4819 108.791C101.369 115.291 103.225 122.261 104.052 129.701C103.092 129.254 102.329 128.288 101.762 126.801C100.509 123.534 98.942 120.431 97.062 117.491C92.942 111.044 88.7152 104.671 84.3819 98.3711C84.2486 98.2178 84.2619 98.0745 84.4219 97.9411C84.7153 97.6945 85.0253 97.7211 85.3519 98.0211C86.0253 98.6278 86.6386 99.1978 87.192 99.7311C87.7235 100.243 88.3108 100.689 88.942 101.061C92.4886 103.141 95.6686 105.718 98.4819 108.791Z" fill="#824D37"/>
<path d="M146.932 123.381C147.105 123.948 147.352 124.281 147.672 124.381C156.302 127.101 161.592 132.491 168.822 139.311C169.155 139.618 169.422 139.624 169.622 139.331C169.775 139.118 169.829 138.801 169.782 138.381L170.102 139.321C170.199 139.598 170.188 139.905 170.072 140.181L167.872 145.541C162.105 150.008 158.372 156.274 156.672 164.341C155.265 171.054 155.039 177.828 155.992 184.661C156.119 185.534 156.339 186.378 156.652 187.191C156.799 187.971 156.625 188.575 156.132 189.001C156.013 189.105 155.866 189.171 155.71 189.193C155.554 189.214 155.394 189.189 155.252 189.121C149.372 186.341 144.272 183.221 137.472 183.531C137.274 183.541 137.077 183.51 136.892 183.441C136.706 183.372 136.537 183.266 136.394 183.129C136.251 182.993 136.137 182.828 136.059 182.647C135.982 182.465 135.942 182.269 135.942 182.071V134.481C135.942 134.34 135.894 134.204 135.807 134.093C135.72 133.983 135.599 133.905 135.462 133.871L127.402 131.861C127.257 131.825 127.124 131.751 127.018 131.647C126.913 131.543 126.838 131.413 126.802 131.271C126.102 128.618 124.252 126.838 121.252 125.931C122.879 124.871 124.435 124.248 125.922 124.061C132.695 122.708 139.439 122.608 146.152 123.761C146.257 123.78 146.366 123.773 146.469 123.742C146.571 123.711 146.665 123.656 146.742 123.581C146.795 123.528 146.859 123.461 146.932 123.381Z" fill="#9E734F"/>
<path d="M0.620981 128.679C0.688504 127.737 0.631599 126.965 0.493881 126.956C0.356164 126.946 0.189783 127.701 0.122261 128.643C0.054738 129.585 0.111642 130.357 0.24936 130.367C0.387078 130.377 0.553458 129.621 0.620981 128.679Z" fill="#ABB0B6"/>
<path d="M99.5515 146.251L96.9214 151.901L93.5615 152.811C93.4293 152.847 93.309 152.917 93.2136 153.015C93.1182 153.114 93.0511 153.236 93.0193 153.369C92.9876 153.502 92.9924 153.641 93.0333 153.772C93.0741 153.903 93.1495 154.02 93.2515 154.111C94.0515 154.838 95.0547 155.338 96.2614 155.611C96.4607 155.659 96.6417 155.764 96.782 155.913C96.9224 156.062 97.0161 156.249 97.0515 156.451C97.2315 157.451 97.1614 158.511 96.8414 159.631C96.7681 159.318 96.6515 159.158 96.4915 159.151C96.1381 159.144 95.9181 159.314 95.8314 159.661C94.6648 164.414 95.3481 168.998 97.8814 173.411L97.0515 172.831C96.9896 172.788 96.9193 172.758 96.8453 172.744C96.7712 172.73 96.695 172.731 96.6215 172.748C96.548 172.765 96.4789 172.797 96.4186 172.843C96.3583 172.888 96.3082 172.945 96.2714 173.011C93.5248 178.065 91.8315 181.378 91.1915 182.951C89.2981 187.571 87.8981 192.431 86.9915 197.531L75.5814 199.091C75.5513 199.094 75.5223 199.104 75.4961 199.12C75.4699 199.136 75.4472 199.157 75.4294 199.182C75.4115 199.207 75.399 199.236 75.3925 199.267C75.3859 199.298 75.3856 199.33 75.3914 199.361L75.4514 199.661C75.4526 199.666 75.4548 199.672 75.458 199.676C75.4612 199.68 75.4653 199.684 75.47 199.687C75.4747 199.69 75.4798 199.692 75.4852 199.692C75.4906 199.693 75.4962 199.693 75.5015 199.691L86.3814 198.521L87.6215 204.231L73.4114 207.611C73.3723 207.621 73.3357 207.639 73.304 207.665C73.2722 207.69 73.2461 207.721 73.2273 207.757C73.2085 207.793 73.1973 207.832 73.1946 207.872C73.1918 207.913 73.1976 207.953 73.2114 207.991L73.2914 208.241C73.2921 208.245 73.294 208.249 73.2969 208.253C73.2999 208.256 73.3039 208.259 73.3087 208.261C73.3134 208.263 73.3189 208.264 73.3245 208.264C73.3302 208.264 73.3359 208.263 73.3414 208.261L86.0214 205.511L88.6014 213.521C85.1348 214.621 81.6648 215.854 78.1915 217.221C77.8248 217.368 77.6048 217.594 77.5314 217.901C77.4514 217.861 77.3681 217.818 77.2814 217.771C77.2531 217.754 77.2214 217.744 77.1886 217.74C77.1558 217.737 77.1226 217.74 77.0913 217.751C77.06 217.761 77.0313 217.778 77.0071 217.801C76.983 217.823 76.964 217.851 76.9514 217.881C76.8981 218.008 76.8248 218.128 76.7314 218.241C76.6114 218.381 76.4981 218.438 76.3914 218.411C76.0714 218.324 75.7848 218.381 75.5314 218.581C75.525 218.587 75.5206 218.594 75.5187 218.602C75.5168 218.611 75.5176 218.619 75.5209 218.627C75.5243 218.635 75.53 218.641 75.5373 218.646C75.5446 218.65 75.553 218.652 75.5615 218.651C75.6948 218.624 75.7848 218.624 75.8314 218.651C75.8847 218.675 75.9295 218.715 75.9598 218.765C75.9902 218.815 76.0046 218.873 76.0014 218.931C75.9982 218.99 75.9773 219.046 75.9417 219.092C75.906 219.139 75.8571 219.173 75.8015 219.191C64.6915 222.481 53.8114 226.281 46.5314 236.111C45.5848 234.911 44.6181 234.128 43.6314 233.761C40.8714 229.881 37.7781 226.384 34.3514 223.271C32.7781 220.791 31.1447 218.368 29.4514 216.001C27.2114 212.861 25.5847 210.444 24.5714 208.751C19.1981 199.731 14.6081 190.164 10.8015 180.051C8.22145 170.684 6.28145 161.278 4.98145 151.831C9.60811 147.078 15.1781 144.494 21.6915 144.081C33.1615 143.361 46.6614 144.051 59.7314 143.021C72.6514 142.001 84.2181 137.511 94.4315 129.551C96.4381 134.351 97.7715 139.554 98.4315 145.161C98.5248 145.981 98.8981 146.344 99.5515 146.251Z" fill="#BDB09B"/>
<path d="M113.502 189.801C115.602 186.151 114.302 182.341 112.632 178.371C113.052 176.398 112.179 174.781 110.012 173.521C111.002 165.481 108.542 149.731 96.9219 151.901L99.5519 146.251C102.432 144.318 105.159 144.434 107.732 146.601C108.979 147.654 110.085 149.058 111.052 150.811C117.432 162.384 119.195 174.848 116.342 188.201C116.095 189.368 115.452 190.264 114.412 190.891C114.353 190.928 114.287 190.953 114.218 190.964C114.15 190.975 114.079 190.973 114.012 190.957C113.944 190.942 113.88 190.913 113.823 190.872C113.767 190.831 113.719 190.78 113.682 190.721C113.595 190.574 113.535 190.268 113.502 189.801Z" fill="#E7D7BF"/>
<path d="M174.462 147.511L175.462 152.561C172.142 150.834 169.602 151.268 167.842 153.861C163.815 159.801 161.962 166.454 162.282 173.821L160.382 176.981C158.622 180.231 158.542 183.831 158.172 187.471C158.065 187.738 157.925 187.911 157.752 187.991C157.558 188.084 157.352 188.028 157.132 187.821C156.958 187.661 156.798 187.451 156.652 187.191C156.338 186.378 156.118 185.534 155.992 184.661C155.038 177.828 155.265 171.054 156.672 164.341C158.372 156.274 162.105 150.008 167.872 145.541C170.652 144.508 172.848 145.164 174.462 147.511Z" fill="#E5CBAC"/>
<path d="M175.461 152.561L179.761 153.381C179.831 153.394 179.896 153.427 179.947 153.477C179.998 153.526 180.033 153.59 180.048 153.659C180.063 153.729 180.057 153.801 180.031 153.867C180.005 153.934 179.96 153.991 179.901 154.031C178.621 154.924 177.275 155.461 175.861 155.641C175.778 155.651 175.697 155.677 175.624 155.719C175.551 155.761 175.487 155.818 175.437 155.885C175.386 155.952 175.35 156.029 175.33 156.111C175.31 156.193 175.307 156.278 175.321 156.361C175.971 160.471 176.751 174.001 169.451 173.561C166.965 173.414 164.575 173.501 162.281 173.821C161.961 166.454 163.815 159.801 167.841 153.861C169.601 151.268 172.141 150.834 175.461 152.561ZM169.911 158.851C168.221 159.881 165.071 162.961 165.891 164.981C166.358 166.141 166.928 167.068 167.601 167.761C167.722 167.886 167.867 167.984 168.028 168.05C168.189 168.115 168.361 168.146 168.535 168.14C168.708 168.134 168.878 168.092 169.035 168.017C169.191 167.941 169.329 167.834 169.441 167.701C171.268 165.528 171.741 162.864 170.861 159.711C171.375 160.198 171.868 160.468 172.341 160.521C172.511 160.537 172.68 160.491 172.817 160.391C172.954 160.292 173.048 160.146 173.081 159.981C173.468 158.121 172.948 156.774 171.521 155.941C171.32 155.823 171.095 155.747 170.863 155.721C170.631 155.694 170.396 155.716 170.174 155.786C169.952 155.856 169.748 155.972 169.575 156.126C169.403 156.28 169.265 156.47 169.171 156.681C168.831 157.441 169.078 158.164 169.911 158.851Z" fill="#573D20"/>
<path d="M110.012 173.521C108.058 173.548 106.025 173.575 103.912 173.601C97.2018 173.681 96.5418 164.801 96.8418 159.631C97.1618 158.511 97.2319 157.451 97.0519 156.451C97.0165 156.249 96.9228 156.062 96.7824 155.913C96.6421 155.764 96.4611 155.659 96.2618 155.611C95.0551 155.338 94.0519 154.838 93.2519 154.111C93.1499 154.02 93.0745 153.903 93.0337 153.772C92.9928 153.641 92.988 153.502 93.0197 153.369C93.0515 153.236 93.1186 153.114 93.214 153.015C93.3094 152.917 93.4296 152.847 93.5619 152.811L96.9218 151.901C108.542 149.731 111.002 165.481 110.012 173.521ZM99.7718 159.721C99.8509 159.931 99.9865 160.113 100.167 160.25C100.347 160.387 100.566 160.476 100.806 160.508C101.045 160.541 101.298 160.516 101.541 160.436C101.784 160.357 102.011 160.225 102.202 160.051C102.688 159.611 103.188 159.085 103.702 158.471C103.826 158.323 103.919 158.15 103.974 157.965C104.029 157.779 104.046 157.583 104.022 157.39C103.999 157.197 103.936 157.011 103.838 156.843C103.74 156.674 103.608 156.527 103.452 156.411C100.942 154.571 99.0618 157.821 99.7718 159.721Z" fill="#4A2C1F"/>
<path d="M266.561 158.511C265.108 168.331 262.538 177.865 258.851 187.111C255.171 196.851 250.811 205.425 245.771 212.831C235.998 227.191 223.591 239.468 208.551 249.661L193.571 257.801C191.505 244.641 186.265 233.071 177.851 223.091C177.753 222.972 177.686 222.831 177.657 222.68C177.627 222.53 177.635 222.376 177.681 222.231C177.875 221.611 177.891 221.055 177.731 220.561L190.991 228.551C190.999 228.556 191.009 228.557 191.018 228.555C191.027 228.553 191.035 228.548 191.041 228.541L191.191 228.341C191.215 228.308 191.232 228.271 191.241 228.232C191.25 228.193 191.252 228.152 191.245 228.113C191.239 228.074 191.224 228.037 191.203 228.004C191.182 227.971 191.154 227.943 191.121 227.921L179.341 220.041L183.031 214.171L194.441 217.901C194.483 217.915 194.528 217.914 194.568 217.898C194.609 217.881 194.642 217.85 194.661 217.811C194.672 217.79 194.678 217.767 194.679 217.744C194.681 217.72 194.678 217.697 194.67 217.676C194.663 217.654 194.651 217.634 194.636 217.618C194.62 217.602 194.602 217.589 194.581 217.581L183.371 213.311L185.761 205.261L197.541 207.721C197.565 207.727 197.589 207.728 197.614 207.724C197.638 207.72 197.661 207.711 197.681 207.698C197.702 207.685 197.719 207.668 197.733 207.648C197.747 207.628 197.756 207.605 197.761 207.581V207.571C197.769 207.525 197.758 207.477 197.731 207.437C197.703 207.396 197.661 207.366 197.611 207.351L184.591 203.951L185.321 204.011C185.403 204.018 185.485 204.007 185.561 203.977C185.637 203.947 185.706 203.9 185.761 203.84C185.817 203.779 185.859 203.706 185.883 203.627C185.907 203.547 185.913 203.463 185.901 203.381C185.841 202.961 185.675 202.575 185.401 202.221C185.286 202.072 185.207 201.898 185.171 201.714C185.134 201.53 185.141 201.341 185.191 201.161C185.558 199.835 185.501 199.025 185.021 198.731C186.381 198.471 187.598 198.411 188.671 198.551C191.558 198.931 193.728 199.141 195.181 199.181C195.194 199.182 195.207 199.179 195.218 199.172C195.23 199.166 195.239 199.156 195.245 199.145C195.251 199.133 195.254 199.12 195.254 199.107C195.253 199.094 195.249 199.082 195.241 199.071C195.228 199.058 195.218 199.041 195.211 199.021C195.185 198.989 195.15 198.968 195.111 198.961L184.971 197.651C184.758 191.758 183.181 186.225 180.241 181.051C178.801 178.525 177.371 175.975 175.951 173.401L178.151 163.871C178.188 163.718 178.262 163.577 178.365 163.462C178.468 163.347 178.598 163.26 178.741 163.211C190.041 159.238 200.984 156.921 211.571 156.261C228.924 155.188 247.255 155.938 266.561 158.511Z" fill="#BDB09B"/>
<path d="M99.7716 159.721C99.0616 157.821 100.942 154.571 103.452 156.411C103.608 156.527 103.74 156.674 103.838 156.843C103.936 157.011 103.999 157.197 104.022 157.39C104.045 157.583 104.029 157.779 103.974 157.965C103.919 158.15 103.826 158.323 103.702 158.471C103.188 159.085 102.688 159.611 102.202 160.051C102.011 160.225 101.784 160.357 101.541 160.436C101.297 160.516 101.045 160.541 100.805 160.508C100.566 160.476 100.347 160.387 100.166 160.25C99.9862 160.113 99.8507 159.931 99.7716 159.721Z" fill="#F5E8D6"/>
<path d="M170.861 159.711L169.911 158.851C169.078 158.164 168.831 157.441 169.171 156.681C169.265 156.47 169.402 156.281 169.575 156.126C169.748 155.972 169.952 155.856 170.174 155.786C170.396 155.717 170.631 155.694 170.863 155.721C171.095 155.748 171.319 155.823 171.521 155.941C172.948 156.774 173.468 158.121 173.081 159.981C173.048 160.146 172.953 160.292 172.817 160.391C172.68 160.491 172.511 160.537 172.341 160.521C171.868 160.468 171.375 160.198 170.861 159.711Z" fill="#F5E8D6"/>
<path d="M169.912 158.851L170.862 159.711C171.742 162.864 171.268 165.528 169.442 167.701C169.33 167.834 169.191 167.941 169.035 168.017C168.879 168.092 168.708 168.134 168.535 168.14C168.362 168.146 168.189 168.115 168.028 168.05C167.867 167.984 167.722 167.886 167.602 167.761C166.928 167.068 166.358 166.141 165.892 164.981C165.072 162.961 168.222 159.881 169.912 158.851Z" fill="#301A15"/>
<path d="M96.8411 159.631C96.5411 164.801 97.2011 173.681 103.911 173.601C106.024 173.574 108.058 173.548 110.011 173.521C112.178 174.781 113.051 176.398 112.631 178.371C112.324 177.824 111.508 177.408 110.181 177.121C106.968 176.594 104.474 176.121 102.701 175.701C100.841 175.268 99.2344 174.504 97.8811 173.411C95.3478 168.998 94.6644 164.414 95.8311 159.661C95.9178 159.314 96.1378 159.144 96.4911 159.151C96.6511 159.158 96.7678 159.318 96.8411 159.631Z" fill="#E5CBAC"/>
<path d="M175.951 173.401C177.371 175.974 178.801 178.524 180.241 181.051C183.181 186.224 184.758 191.758 184.971 197.651L171.351 197.771C170.645 190.671 168.151 184.171 163.871 178.271C163.721 178.069 163.516 177.916 163.281 177.831L161.611 177.281L163.941 177.301C164.227 177.301 164.509 177.335 164.781 177.401C169.461 178.574 173.185 177.241 175.951 173.401Z" fill="#9E734F"/>
<path d="M160.382 176.981C160.935 176.968 161.345 177.068 161.612 177.281L163.282 177.831C163.517 177.916 163.722 178.069 163.872 178.271C168.152 184.171 170.645 190.671 171.352 197.771L164.352 198.541C164.155 198.564 163.957 198.522 163.786 198.423C163.615 198.324 163.48 198.173 163.402 197.991C162.582 196.085 161.545 194.248 160.292 192.481C159.927 191.977 159.634 191.425 159.422 190.841L158.172 187.471C158.542 183.831 158.622 180.231 160.382 176.981Z" fill="#824D37"/>
<path d="M110.182 177.121C111.508 177.408 112.325 177.824 112.632 178.371C114.302 182.341 115.602 186.151 113.502 189.801L109.652 197.061C109.57 197.211 109.449 197.335 109.302 197.418C109.155 197.501 108.989 197.541 108.822 197.531L102.772 197.201C102.662 197.194 102.555 197.164 102.458 197.114C102.36 197.063 102.275 196.993 102.206 196.907C102.137 196.821 102.087 196.722 102.059 196.616C102.031 196.51 102.025 196.4 102.042 196.291C102.908 190.938 104.265 185.898 106.112 181.171C107.132 178.564 108.488 177.214 110.182 177.121Z" fill="#824D37"/>
<path d="M10.8018 180.051C14.6084 190.164 19.1984 199.731 24.5717 208.751C25.585 210.444 27.2117 212.861 29.4517 216.001C31.1451 218.368 32.7784 220.791 34.3517 223.271C30.0784 219.431 26.5084 214.948 23.6417 209.821C16.7017 200.468 12.4218 190.544 10.8018 180.051Z" fill="#A29C9C"/>
<path d="M152.482 192.231C151.382 192.858 150.632 193.535 150.232 194.261C149.472 194.955 149.058 195.615 148.992 196.241C145.265 196.868 141.742 198.491 138.422 201.111C138.173 201.307 137.872 201.429 137.552 201.461C136.305 201.601 135.255 201.428 134.402 200.941C130.995 199.021 127.515 197.105 123.962 195.191C123.362 195.078 122.615 194.398 121.722 193.151C120.568 191.544 118.928 190.988 116.802 191.481C120.802 186.271 128.382 183.591 134.512 182.291C134.662 182.26 134.817 182.263 134.966 182.299C135.115 182.335 135.253 182.404 135.372 182.501C135.491 182.598 135.587 182.72 135.652 182.858C135.718 182.997 135.752 183.148 135.752 183.301V196.911C135.752 197.072 135.814 197.227 135.926 197.343C136.038 197.458 136.191 197.526 136.352 197.531C138.025 197.584 139.065 197.488 139.472 197.241C143.498 194.815 147.835 193.144 152.482 192.231Z" fill="#D29D77"/>
<path d="M123.962 195.191C123.842 196.945 124.282 198.235 125.282 199.061C127.629 201.008 130.842 203.071 134.922 205.251C135.058 205.324 135.172 205.432 135.251 205.564C135.33 205.696 135.372 205.847 135.372 206.001L135.332 214.171C135.332 214.317 135.308 214.466 135.262 214.611C133.282 220.721 127.432 219.141 123.152 220.421C120.979 222.041 118.992 222.455 117.192 221.661C115.012 220.695 113.079 218.675 111.392 215.601C111.665 214.948 112.519 214.561 113.952 214.441C114.167 214.422 114.368 214.326 114.518 214.17C114.669 214.014 114.759 213.809 114.772 213.591L114.782 213.241C114.788 213.149 114.773 213.057 114.736 212.972C114.699 212.887 114.643 212.812 114.572 212.753C114.5 212.694 114.416 212.654 114.325 212.634C114.235 212.615 114.141 212.617 114.052 212.641L110.162 213.701C110.082 212.988 110.372 212.525 111.032 212.311C112.405 211.858 113.709 211.365 114.942 210.831C115.088 210.77 115.219 210.678 115.325 210.562C115.432 210.447 115.51 210.311 115.555 210.165C115.6 210.02 115.609 209.869 115.582 209.724C115.556 209.579 115.494 209.445 115.402 209.331C115.209 209.098 114.879 209.005 114.412 209.051C112.745 209.225 111.092 209.335 109.452 209.381C108.985 209.101 108.849 208.705 109.042 208.191C109.215 207.731 109.539 207.455 110.012 207.361C111.072 207.141 112.905 206.781 115.512 206.281C115.716 206.243 115.903 206.143 116.048 205.995C116.194 205.848 116.291 205.66 116.327 205.455C116.363 205.251 116.336 205.041 116.249 204.853C116.162 204.664 116.02 204.507 115.842 204.401C115.662 204.295 115.262 204.221 114.642 204.181C113.982 204.128 112.399 204.121 109.892 204.161C109.815 204.163 109.738 204.148 109.666 204.118C109.595 204.087 109.531 204.042 109.478 203.984C109.425 203.926 109.385 203.858 109.359 203.784C109.334 203.709 109.325 203.63 109.332 203.551L109.502 201.691L114.802 200.811C114.979 200.781 115.144 200.701 115.278 200.581C115.412 200.461 115.511 200.305 115.562 200.131C116.212 197.771 113.642 197.621 112.052 197.771C111.935 197.782 111.817 197.76 111.712 197.708C111.607 197.656 111.518 197.576 111.455 197.477C111.392 197.378 111.357 197.263 111.355 197.146C111.353 197.028 111.383 196.913 111.442 196.811C112.749 194.631 114.535 192.855 116.802 191.481C118.929 190.988 120.569 191.545 121.722 193.151C122.615 194.398 123.362 195.078 123.962 195.191Z" fill="#F5EDE2"/>
<path d="M160.751 198.671L155.991 199.181C155.7 199.213 155.407 199.146 155.161 198.991C153.261 197.758 151.618 196.181 150.231 194.261C150.631 193.534 151.381 192.858 152.481 192.231C156.331 190.001 159.861 195.751 160.751 198.671Z" fill="#E7D7BF"/>
<path d="M150.232 194.261C151.619 196.181 153.262 197.758 155.162 198.991C155.408 199.146 155.7 199.213 155.992 199.181L160.752 198.671L162.072 202.091L162.022 202.771C162.016 202.873 161.975 202.97 161.905 203.044C161.836 203.119 161.743 203.167 161.642 203.181L155.932 203.991C155.748 204.018 155.573 204.09 155.424 204.201C155.275 204.312 155.156 204.459 155.077 204.628C154.999 204.796 154.964 204.982 154.975 205.168C154.986 205.353 155.044 205.533 155.142 205.691C156.002 207.071 157.215 207.631 158.782 207.371C159.872 207.201 161.602 207.571 162.482 208.271C162.573 208.347 162.637 208.449 162.665 208.564C162.693 208.679 162.683 208.8 162.637 208.908C162.591 209.017 162.511 209.108 162.41 209.168C162.308 209.228 162.189 209.254 162.072 209.241L156.562 208.511C156.482 208.501 156.401 208.507 156.324 208.529C156.247 208.55 156.175 208.587 156.112 208.636C156.05 208.686 155.998 208.747 155.96 208.817C155.922 208.886 155.899 208.963 155.892 209.041C155.682 211.271 156.012 213.331 155.192 215.531C154.232 218.111 152.449 219.478 149.842 219.631C144.995 220.325 141.269 218.938 138.662 215.471C137.012 213.281 137.252 208.011 137.472 206.081C137.491 205.921 137.544 205.766 137.629 205.626C137.713 205.486 137.827 205.365 137.962 205.271C140.935 203.225 143.755 201.448 146.422 199.941C147.602 199.275 148.459 198.041 148.992 196.241C149.059 195.615 149.472 194.955 150.232 194.261Z" fill="#F5EDE2"/>
<path d="M148.991 196.241C148.458 198.041 147.601 199.274 146.421 199.941C143.755 201.448 140.935 203.224 137.961 205.271C137.826 205.365 137.713 205.486 137.628 205.626C137.544 205.766 137.49 205.921 137.471 206.081C137.251 208.011 137.011 213.281 138.661 215.471C141.268 218.938 144.995 220.324 149.841 219.631C150.781 220.218 149.888 220.868 147.161 221.581C143.148 221.574 139.061 221.608 134.901 221.681C131.301 221.751 127.631 221.241 123.941 221.131C123.415 221.324 123.151 221.088 123.151 220.421C127.431 219.141 133.281 220.721 135.261 214.611C135.308 214.465 135.331 214.317 135.331 214.171L135.371 206.001C135.371 205.847 135.33 205.696 135.25 205.564C135.171 205.432 135.057 205.324 134.921 205.251C130.841 203.071 127.628 201.008 125.281 199.061C124.281 198.234 123.841 196.944 123.961 195.191C127.515 197.104 130.995 199.021 134.401 200.941C135.255 201.428 136.305 201.601 137.551 201.461C137.871 201.429 138.173 201.307 138.421 201.111C141.741 198.491 145.265 196.868 148.991 196.241Z" fill="#614739"/>
<path d="M86.3818 198.521L75.5019 199.691C75.4966 199.693 75.4911 199.693 75.4857 199.692C75.4802 199.692 75.4751 199.69 75.4704 199.687C75.4657 199.684 75.4616 199.68 75.4584 199.676C75.4552 199.672 75.453 199.666 75.4518 199.661L75.3918 199.361C75.386 199.33 75.3863 199.298 75.3929 199.267C75.3994 199.236 75.412 199.207 75.4298 199.182C75.4476 199.157 75.4704 199.136 75.4965 199.12C75.5227 199.104 75.5517 199.094 75.5818 199.091L86.9919 197.531L96.9018 197.661C96.9408 197.661 96.9793 197.669 97.0152 197.684C97.051 197.699 97.0835 197.722 97.1105 197.75C97.1376 197.778 97.1588 197.811 97.1727 197.847C97.1867 197.883 97.1932 197.922 97.1919 197.961V197.971C97.1919 198.049 97.1617 198.124 97.1075 198.18C97.0534 198.236 96.9797 198.269 96.9018 198.271L86.3818 198.521Z" fill="#F5E8D6"/>
<path d="M109.311 201.931C109.258 202.758 107.851 203.101 105.091 202.961L101.811 202.801C101.676 202.794 101.543 202.758 101.423 202.695C101.303 202.631 101.198 202.542 101.117 202.434C101.036 202.326 100.98 202.202 100.953 202.07C100.926 201.938 100.929 201.802 100.961 201.671L101.461 199.651C101.533 199.366 101.697 199.112 101.929 198.931C102.161 198.75 102.447 198.651 102.741 198.651H108.771C108.874 198.651 108.975 198.672 109.069 198.713C109.163 198.754 109.248 198.815 109.317 198.891C109.387 198.967 109.44 199.057 109.473 199.155C109.507 199.254 109.52 199.358 109.511 199.461L109.311 201.931Z" fill="#6E5242"/>
<path d="M185.022 198.731C185.502 199.025 185.558 199.835 185.192 201.161C185.142 201.341 185.135 201.53 185.171 201.714C185.208 201.898 185.287 202.072 185.402 202.221C185.675 202.575 185.842 202.961 185.902 203.381C185.914 203.463 185.908 203.547 185.883 203.627C185.859 203.706 185.818 203.779 185.762 203.84C185.706 203.9 185.637 203.947 185.561 203.977C185.485 204.007 185.403 204.018 185.322 204.011L184.592 203.951L169.352 202.541L170.632 202.351C170.78 202.328 170.919 202.261 171.031 202.158C171.143 202.055 171.223 201.92 171.262 201.771C171.682 200.145 171.255 199.265 169.982 199.131L185.022 198.731Z" fill="#9E734F"/>
<path d="M169.982 199.131C171.255 199.264 171.682 200.144 171.262 201.771C171.223 201.92 171.143 202.054 171.031 202.157C170.919 202.261 170.78 202.328 170.632 202.351L169.352 202.541L165.842 202.421C165.655 202.415 165.476 202.347 165.332 202.228C165.187 202.108 165.085 201.944 165.042 201.761C164.928 201.248 164.678 200.844 164.292 200.551C164.228 200.501 164.18 200.434 164.155 200.357C164.129 200.28 164.127 200.198 164.148 200.119C164.17 200.041 164.214 199.971 164.275 199.918C164.336 199.865 164.411 199.831 164.492 199.821L169.982 199.131Z" fill="#693623"/>
<path d="M109.312 201.931C109.379 201.851 109.442 201.771 109.502 201.691L109.332 203.551C109.325 203.63 109.334 203.709 109.359 203.783C109.384 203.858 109.425 203.926 109.478 203.984C109.53 204.042 109.595 204.087 109.666 204.118C109.737 204.148 109.814 204.163 109.892 204.161C112.399 204.121 113.982 204.128 114.642 204.181C115.262 204.221 115.662 204.294 115.842 204.401C116.02 204.507 116.162 204.664 116.249 204.852C116.336 205.041 116.363 205.251 116.327 205.455C116.291 205.659 116.194 205.848 116.048 205.995C115.903 206.143 115.716 206.243 115.512 206.281C112.905 206.781 111.072 207.141 110.012 207.361C109.538 207.454 109.215 207.731 109.042 208.191C108.849 208.704 108.985 209.101 109.452 209.381H108.332L108.912 204.031C108.921 203.947 108.912 203.862 108.883 203.782C108.855 203.702 108.809 203.63 108.749 203.569C108.689 203.509 108.615 203.463 108.535 203.433C108.454 203.404 108.368 203.393 108.282 203.401L101.952 204.021L86.0218 205.511L73.3418 208.261C73.3363 208.263 73.3306 208.264 73.3249 208.264C73.3193 208.264 73.3138 208.263 73.3091 208.261C73.3043 208.259 73.3003 208.256 73.2974 208.253C73.2944 208.249 73.2925 208.245 73.2919 208.241L73.2118 207.991C73.198 207.953 73.1923 207.913 73.195 207.872C73.1977 207.832 73.2089 207.793 73.2277 207.757C73.2465 207.721 73.2727 207.69 73.3044 207.665C73.3361 207.639 73.3727 207.621 73.4119 207.611L87.6219 204.231L105.092 202.961C107.852 203.101 109.259 202.758 109.312 201.931Z" fill="#CBBFAA"/>
<path d="M163.521 210.031L163.182 211.111C163.16 211.175 163.124 211.233 163.077 211.282C163.03 211.33 162.973 211.368 162.909 211.393C162.846 211.418 162.777 211.428 162.709 211.425C162.64 211.421 162.573 211.403 162.511 211.371C162.478 211.351 162.428 211.238 162.362 211.031C162.275 210.758 162.148 210.578 161.982 210.491C160.582 209.784 159.428 209.484 158.521 209.591C158.452 209.6 158.388 209.631 158.338 209.68C158.288 209.729 158.255 209.793 158.245 209.862C158.235 209.931 158.247 210.002 158.281 210.063C158.315 210.124 158.368 210.173 158.432 210.201L163.161 212.321C163.181 212.421 163.198 212.524 163.211 212.631C163.244 212.826 163.213 213.026 163.122 213.201C162.122 215.228 161.041 217.118 159.881 218.871C158.921 220.324 157.825 221.464 156.591 222.291C156.459 222.384 156.31 222.455 156.151 222.501L152.562 223.601C152.496 223.62 152.438 223.661 152.398 223.717C152.357 223.773 152.337 223.84 152.339 223.909C152.341 223.978 152.366 224.044 152.41 224.096C152.454 224.149 152.514 224.186 152.581 224.201C153.648 224.454 154.555 224.488 155.302 224.301C155.426 224.27 155.558 224.279 155.677 224.326C155.797 224.373 155.899 224.456 155.969 224.564C156.04 224.672 156.075 224.798 156.07 224.927C156.065 225.055 156.02 225.179 155.942 225.281L153.422 228.501C148.728 230.654 145.188 231.934 142.802 232.341C137.535 233.241 131.538 232.744 124.812 230.851C131.092 231.824 136.648 231.211 141.482 229.011C143.708 227.998 146.308 226.311 149.281 223.951C149.332 223.911 149.374 223.86 149.404 223.803C149.434 223.746 149.453 223.683 149.459 223.619C149.464 223.554 149.457 223.49 149.437 223.428C149.416 223.367 149.384 223.31 149.341 223.261C148.808 222.654 148.081 222.094 147.161 221.581C149.888 220.868 150.781 220.218 149.841 219.631C152.448 219.478 154.232 218.111 155.192 215.531C156.012 213.331 155.681 211.271 155.891 209.041C155.899 208.962 155.922 208.886 155.96 208.816C155.998 208.747 156.049 208.686 156.112 208.636C156.174 208.587 156.246 208.55 156.324 208.529C156.401 208.507 156.482 208.501 156.562 208.511L162.071 209.241C162.189 209.254 162.307 209.228 162.409 209.168C162.511 209.108 162.591 209.017 162.637 208.908C162.683 208.8 162.692 208.679 162.664 208.564C162.637 208.449 162.572 208.347 162.482 208.271C161.602 207.571 159.871 207.201 158.781 207.371C157.215 207.631 156.001 207.071 155.141 205.691C155.043 205.533 154.986 205.353 154.975 205.167C154.963 204.982 154.998 204.796 155.077 204.627C155.155 204.459 155.274 204.312 155.424 204.201C155.573 204.09 155.747 204.018 155.932 203.991L161.641 203.181C161.743 203.167 161.836 203.119 161.905 203.044C161.974 202.969 162.015 202.873 162.021 202.771L162.071 202.091L163.521 210.031Z" fill="#DEBEA0"/>
<path d="M108.332 209.381C108.398 210.348 108.692 211.298 109.212 212.231C108.912 213.331 108.025 214.111 106.552 214.571C105.725 214.824 105.105 214.604 104.692 213.911L102.832 210.431C103.125 210.458 103.302 210.421 103.362 210.321L106.412 209.751C106.458 209.743 106.501 209.721 106.535 209.689C106.569 209.657 106.593 209.615 106.604 209.569C106.614 209.523 106.611 209.475 106.595 209.431C106.579 209.387 106.55 209.349 106.512 209.321L106.272 209.141C106.24 209.119 106.204 209.104 106.166 209.097C106.128 209.09 106.089 209.092 106.052 209.101L104.192 209.591C103.777 209.703 103.335 209.652 102.955 209.45C102.575 209.248 102.284 208.909 102.142 208.501L100.942 205.041C100.897 204.909 100.903 204.766 100.959 204.638C101.014 204.511 101.115 204.408 101.242 204.351L101.952 204.021L108.282 203.401C108.367 203.393 108.454 203.404 108.534 203.433C108.615 203.463 108.688 203.509 108.749 203.569C108.809 203.63 108.855 203.702 108.883 203.782C108.911 203.862 108.921 203.947 108.912 204.031L108.332 209.381Z" fill="#824D37"/>
<path d="M171.822 204.011L170.032 210.061L167.042 209.221C166.892 209.18 166.759 209.094 166.66 208.974C166.562 208.854 166.503 208.706 166.492 208.551C166.392 207.211 166.065 205.938 165.512 204.731C165.478 204.657 165.464 204.575 165.469 204.494C165.474 204.413 165.499 204.334 165.542 204.266C165.585 204.197 165.644 204.141 165.713 204.102C165.783 204.062 165.862 204.042 165.942 204.041L171.822 204.011Z" fill="#614739"/>
<path d="M101.951 204.021L101.242 204.351C101.115 204.408 101.014 204.511 100.958 204.638C100.903 204.766 100.897 204.909 100.942 205.041L102.141 208.501C102.284 208.909 102.574 209.248 102.955 209.45C103.335 209.652 103.777 209.703 104.192 209.591L106.052 209.101C106.089 209.092 106.128 209.09 106.166 209.097C106.204 209.104 106.24 209.119 106.271 209.141L106.511 209.321C106.549 209.349 106.578 209.387 106.595 209.431C106.611 209.475 106.614 209.523 106.604 209.569C106.593 209.615 106.569 209.657 106.535 209.689C106.501 209.721 106.458 209.743 106.411 209.751L103.362 210.321C103.135 210.055 102.818 209.961 102.411 210.041C97.8048 210.981 93.2015 212.141 88.6015 213.521L86.0215 205.511L101.951 204.021Z" fill="#B58D6B"/>
<path d="M185.761 205.261L183.371 213.311L170.031 210.061L171.821 204.011L185.761 205.261Z" fill="#9E734F"/>
<path d="M110.162 213.701C109.562 213.855 109.245 213.365 109.212 212.231C108.692 211.298 108.399 210.348 108.332 209.381H109.452C111.092 209.335 112.745 209.225 114.412 209.051C114.879 209.005 115.209 209.098 115.402 209.331C115.494 209.445 115.556 209.579 115.583 209.724C115.609 209.869 115.6 210.02 115.555 210.165C115.51 210.311 115.432 210.447 115.325 210.562C115.219 210.678 115.088 210.77 114.942 210.831C113.709 211.365 112.405 211.858 111.032 212.311C110.372 212.525 110.082 212.988 110.162 213.701Z" fill="#BA9A85"/>
<path d="M163.521 210.031L169.701 210.941C169.381 212.121 168.828 213.101 168.041 213.881C167.928 213.992 167.789 214.074 167.637 214.119C167.486 214.164 167.326 214.172 167.171 214.141C165.811 213.868 164.475 213.261 163.161 212.321L158.431 210.201C158.367 210.173 158.315 210.124 158.281 210.063C158.247 210.002 158.234 209.931 158.245 209.862C158.255 209.793 158.287 209.729 158.337 209.68C158.387 209.631 158.452 209.6 158.521 209.591C159.428 209.484 160.581 209.784 161.981 210.491C162.148 210.578 162.275 210.758 162.361 211.031C162.428 211.238 162.478 211.351 162.511 211.371C162.573 211.403 162.64 211.421 162.708 211.425C162.777 211.428 162.845 211.418 162.909 211.393C162.973 211.368 163.03 211.33 163.077 211.282C163.124 211.233 163.159 211.175 163.181 211.111L163.521 210.031Z" fill="#6E5242"/>
<path d="M103.361 210.321C103.301 210.421 103.125 210.458 102.831 210.431L89.2513 214.111L77.5312 217.901C77.6046 217.594 77.8246 217.368 78.1913 217.221C81.6646 215.854 85.1346 214.621 88.6013 213.521C93.2013 212.141 97.8046 210.981 102.411 210.041C102.818 209.961 103.135 210.054 103.361 210.321Z" fill="#F5EDE2"/>
<path d="M102.832 210.431L104.692 213.911L104.502 214.311C104.467 214.386 104.452 214.47 104.458 214.552C104.464 214.635 104.491 214.714 104.537 214.783C104.582 214.851 104.644 214.907 104.717 214.943C104.79 214.98 104.871 214.996 104.952 214.991C105.105 214.984 105.322 214.964 105.602 214.931C105.742 214.911 105.892 215.094 106.052 215.481C107.059 217.914 108.569 220.471 110.582 223.151C110.763 223.397 111.024 223.577 111.322 223.661C112.902 224.114 114.229 224.278 115.302 224.151L122.982 229.951C115.509 229.071 108.429 227.425 101.742 225.011C100.682 224.631 99.8619 224.434 99.2819 224.421C98.0885 224.401 97.4752 224.828 97.4419 225.701C99.6619 229.148 101.842 231.868 103.982 233.861C104.609 234.448 106.779 236.281 110.492 239.361C116.782 244.591 125.332 249.291 131.012 252.821C135.172 255.401 137.329 258.758 137.482 262.891C137.629 266.878 137.845 269.554 138.132 270.921C127.739 270.801 118.565 269.824 110.612 267.991C103.179 266.284 95.7319 264.628 88.2719 263.021C83.8852 262.074 78.6385 259.911 72.5319 256.531C61.3519 250.351 51.7185 242.761 43.6318 233.761C44.6185 234.128 45.5852 234.911 46.5319 236.111C52.8652 241.871 58.8585 246.538 64.5118 250.111C68.1118 252.384 74.4319 255.918 83.4719 260.711C83.4978 260.725 83.5274 260.73 83.5551 260.724C83.5828 260.719 83.6065 260.703 83.6219 260.681L83.8119 260.411C83.8347 260.381 83.8503 260.346 83.8576 260.309C83.8649 260.272 83.8638 260.233 83.8541 260.197C83.8445 260.16 83.8267 260.126 83.8021 260.098C83.7774 260.069 83.7466 260.046 83.7119 260.031C82.7319 259.591 81.9285 258.994 81.3019 258.241C81.185 258.099 81.0982 257.935 81.0466 257.758C80.9951 257.581 80.9799 257.395 81.0019 257.211C81.3952 253.691 81.9019 251.138 82.5219 249.551C84.9885 243.238 89.2152 233.488 95.2018 220.301L105.302 215.551C105.312 215.547 105.322 215.542 105.33 215.534C105.339 215.526 105.345 215.517 105.349 215.507C105.353 215.498 105.354 215.487 105.353 215.478C105.352 215.468 105.348 215.459 105.342 215.451L105.182 215.251C105.175 215.251 105.169 215.251 105.162 215.251L93.8918 220.031C91.7852 218.438 90.2386 216.464 89.2519 214.111L102.832 210.431Z" fill="#B58D6B"/>
<path d="M183.031 214.171L179.341 220.041L168.251 215.151C168.201 215.131 168.145 215.131 168.094 215.152C168.044 215.172 168.003 215.211 167.981 215.261L167.861 215.541C167.861 215.544 167.862 215.548 167.864 215.551C167.866 215.555 167.868 215.558 167.871 215.561L177.731 220.561C177.891 221.054 177.875 221.611 177.681 222.231C177.636 222.376 177.627 222.53 177.657 222.68C177.687 222.83 177.753 222.972 177.851 223.091C186.265 233.071 191.505 244.641 193.571 257.801C193.165 258.514 192.521 259.061 191.641 259.441C183.608 261.748 175.571 264.021 167.531 266.261C164.951 266.975 163.028 267.408 161.761 267.561C155.855 268.248 150.001 269.211 144.201 270.451C142.575 270.991 140.551 271.148 138.131 270.921C137.845 269.554 137.628 266.878 137.481 262.891C137.328 258.758 135.171 255.401 131.011 252.821C125.331 249.291 116.781 244.591 110.491 239.361C106.778 236.281 104.608 234.448 103.981 233.861C101.841 231.868 99.6614 229.148 97.4414 225.701C98.8547 225.468 99.9581 225.675 100.751 226.321C104.411 229.311 110.061 234.001 115.901 236.401C117.008 236.854 119.605 238.094 123.691 240.121C127.671 242.094 131.785 243.511 136.031 244.371C138.045 244.778 140.908 244.714 144.621 244.181C151.508 243.181 157.578 240.988 162.831 237.601C169.031 233.601 173.751 230.251 177.061 224.181C177.106 224.101 177.131 224.013 177.135 223.922C177.139 223.831 177.122 223.74 177.085 223.657C177.048 223.574 176.993 223.5 176.923 223.442C176.853 223.383 176.77 223.342 176.681 223.321C176.315 223.235 175.861 223.281 175.321 223.461C168.341 225.808 161.041 227.488 153.421 228.501L155.941 225.281C156.02 225.179 156.065 225.055 156.07 224.927C156.074 224.799 156.039 224.672 155.969 224.564C155.899 224.456 155.797 224.373 155.677 224.326C155.557 224.279 155.426 224.27 155.301 224.301C154.555 224.488 153.648 224.455 152.581 224.201C152.514 224.186 152.454 224.149 152.41 224.096C152.366 224.044 152.341 223.978 152.339 223.909C152.337 223.84 152.357 223.773 152.398 223.717C152.438 223.661 152.495 223.621 152.561 223.601L156.151 222.501C156.31 222.455 156.459 222.384 156.591 222.291C157.825 221.464 158.921 220.324 159.881 218.871C161.041 217.118 162.121 215.228 163.121 213.201C163.212 213.026 163.244 212.826 163.211 212.631C163.198 212.524 163.181 212.421 163.161 212.321C164.475 213.261 165.811 213.868 167.171 214.141C167.326 214.172 167.486 214.164 167.637 214.119C167.789 214.074 167.928 213.992 168.041 213.881C168.828 213.101 169.381 212.121 169.701 210.941L183.031 214.171Z" fill="#9E734F"/>
<path d="M110.162 213.701C110.375 214.588 110.785 215.221 111.392 215.601C113.079 218.675 115.012 220.695 117.192 221.661C118.992 222.455 120.979 222.041 123.152 220.421C123.152 221.088 123.415 221.325 123.942 221.131C121.675 222.485 118.795 223.491 115.302 224.151C114.229 224.278 112.902 224.115 111.322 223.661C111.024 223.577 110.763 223.397 110.582 223.151C108.569 220.471 107.059 217.915 106.052 215.481C105.892 215.095 105.742 214.911 105.602 214.931C105.322 214.965 105.105 214.985 104.952 214.991C104.871 214.996 104.79 214.98 104.717 214.943C104.644 214.907 104.582 214.851 104.537 214.783C104.491 214.714 104.464 214.635 104.458 214.552C104.452 214.47 104.467 214.387 104.502 214.311L104.692 213.911C105.105 214.605 105.725 214.825 106.552 214.571C108.025 214.111 108.912 213.331 109.212 212.231C109.245 213.365 109.562 213.855 110.162 213.701Z" fill="#9E734F"/>
<path d="M111.392 215.601C110.785 215.221 110.375 214.588 110.162 213.701L114.052 212.641C114.141 212.617 114.235 212.615 114.326 212.634C114.416 212.654 114.5 212.694 114.572 212.753C114.643 212.812 114.7 212.887 114.736 212.972C114.773 213.057 114.788 213.149 114.782 213.241L114.772 213.591C114.759 213.809 114.669 214.014 114.518 214.17C114.368 214.326 114.167 214.422 113.952 214.441C112.519 214.561 111.665 214.948 111.392 215.601Z" fill="#CEA78B"/>
<path d="M89.2513 214.111C90.2379 216.464 91.7846 218.438 93.8912 220.031C90.1179 222.104 86.4813 224.451 82.9813 227.071C82.9279 227.111 82.9479 227.188 83.0413 227.301C83.0644 227.329 83.0955 227.349 83.1286 227.356C83.1617 227.363 83.1946 227.358 83.2213 227.341L95.2012 220.301C89.2146 233.488 84.9879 243.238 82.5212 249.551C81.9012 251.138 81.3946 253.691 81.0013 257.211C80.9793 257.395 80.9945 257.581 81.046 257.758C81.0976 257.935 81.1844 258.099 81.3013 258.241C81.9279 258.994 82.7312 259.591 83.7112 260.031C83.7459 260.046 83.7768 260.069 83.8015 260.098C83.8261 260.126 83.8439 260.16 83.8535 260.197C83.8631 260.233 83.8643 260.272 83.857 260.309C83.8497 260.346 83.8341 260.381 83.8113 260.411L83.6213 260.681C83.6059 260.703 83.5822 260.719 83.5545 260.724C83.5268 260.73 83.4972 260.725 83.4713 260.711C74.4313 255.918 68.1112 252.384 64.5112 250.111C58.8579 246.538 52.8646 241.871 46.5312 236.111C53.8113 226.281 64.6913 222.481 75.8013 219.191C75.8569 219.173 75.9058 219.139 75.9415 219.092C75.9772 219.046 75.998 218.99 76.0012 218.931C76.0045 218.873 75.99 218.815 75.9597 218.765C75.9293 218.715 75.8845 218.675 75.8312 218.651C75.7846 218.624 75.6946 218.624 75.5613 218.651C75.5528 218.652 75.5444 218.65 75.5371 218.646C75.5298 218.641 75.5241 218.635 75.5208 218.627C75.5174 218.619 75.5166 218.611 75.5185 218.602C75.5204 218.594 75.5249 218.587 75.5312 218.581C75.7846 218.381 76.0712 218.324 76.3912 218.411C76.4979 218.438 76.6113 218.381 76.7313 218.241C76.8246 218.128 76.8979 218.008 76.9512 217.881C76.9638 217.851 76.9828 217.823 77.007 217.801C77.0311 217.778 77.0598 217.761 77.0911 217.751C77.1224 217.74 77.1556 217.737 77.1884 217.74C77.2212 217.744 77.2529 217.754 77.2812 217.771C77.3679 217.818 77.4513 217.861 77.5312 217.901L89.2513 214.111Z" fill="#BA9A85"/>
<path d="M95.2012 220.301L83.2212 227.341C83.1946 227.358 83.1617 227.363 83.1286 227.356C83.0955 227.349 83.0644 227.329 83.0412 227.301C82.9479 227.188 82.9279 227.111 82.9812 227.071C86.4812 224.451 90.1179 222.105 93.8912 220.031L105.161 215.251C105.168 215.251 105.175 215.251 105.181 215.251L105.341 215.451C105.347 215.459 105.351 215.468 105.352 215.478C105.353 215.487 105.352 215.498 105.348 215.507C105.344 215.517 105.338 215.526 105.33 215.534C105.322 215.542 105.312 215.548 105.301 215.551L95.2012 220.301Z" fill="#F5EDE2"/>
<path d="M179.341 220.041L191.121 227.921C191.154 227.943 191.182 227.971 191.203 228.004C191.225 228.037 191.239 228.074 191.245 228.113C191.252 228.152 191.251 228.193 191.241 228.232C191.232 228.271 191.215 228.308 191.191 228.341L191.041 228.541C191.035 228.548 191.027 228.553 191.018 228.555C191.009 228.557 191 228.556 190.991 228.551L177.731 220.561L167.871 215.561C167.868 215.558 167.866 215.555 167.864 215.551C167.862 215.548 167.861 215.544 167.861 215.541L167.981 215.261C168.003 215.211 168.044 215.172 168.094 215.152C168.144 215.131 168.201 215.131 168.251 215.151L179.341 220.041Z" fill="#CBBFAA"/>
<path d="M147.162 221.581C148.082 222.094 148.808 222.654 149.342 223.261C149.384 223.31 149.417 223.367 149.437 223.428C149.457 223.49 149.464 223.554 149.459 223.619C149.453 223.683 149.435 223.746 149.404 223.803C149.374 223.86 149.332 223.911 149.282 223.951C146.308 226.311 143.708 227.998 141.482 229.011C136.648 231.211 131.092 231.824 124.812 230.851C124.038 230.331 123.428 230.031 122.982 229.951L115.302 224.151C118.795 223.491 121.675 222.484 123.942 221.131C127.632 221.241 131.302 221.751 134.902 221.681C139.062 221.608 143.148 221.574 147.162 221.581Z" fill="#E7D7BF"/>
<path d="M97.4414 225.701C97.4747 224.828 98.088 224.401 99.2814 224.421C99.8614 224.435 100.681 224.631 101.741 225.011C108.428 227.425 115.508 229.071 122.981 229.951C123.428 230.031 124.038 230.331 124.811 230.851C131.538 232.744 137.535 233.241 142.801 232.341C145.188 231.934 148.728 230.655 153.421 228.501C161.041 227.488 168.341 225.808 175.321 223.461C175.861 223.281 176.315 223.235 176.681 223.321C176.77 223.342 176.853 223.383 176.923 223.442C176.993 223.5 177.048 223.574 177.085 223.657C177.122 223.74 177.139 223.831 177.135 223.922C177.131 224.013 177.106 224.102 177.061 224.181C173.751 230.251 169.031 233.601 162.831 237.601C157.578 240.988 151.508 243.181 144.621 244.181C140.908 244.715 138.045 244.778 136.031 244.371C131.785 243.511 127.671 242.095 123.691 240.121C119.605 238.095 117.008 236.854 115.901 236.401C110.061 234.001 104.411 229.311 100.751 226.321C99.9581 225.675 98.8547 225.468 97.4414 225.701Z" fill="#824D37"/>
<path d="M191.641 259.441L180.691 264.061C176.351 265.061 172.018 266.118 167.691 267.231C164.085 268.164 157.585 269.121 148.191 270.101L144.201 270.451C150.001 269.211 155.855 268.248 161.761 267.561C163.028 267.408 164.951 266.975 167.531 266.261C175.571 264.021 183.608 261.748 191.641 259.441Z" fill="#A27F6B"/>
</svg>
