<svg width="265" height="263" viewBox="0 0 265 263" fill="none" xmlns="http://www.w3.org/2000/svg">
<path d="M260.546 99.9635C261.239 103.443 261.576 105.693 261.556 106.713C261.529 108.313 260.919 109.21 259.726 109.404C256.696 109.874 249.386 102.363 247.446 100.353C247.752 99.1002 247.526 97.8769 246.766 96.6836C245.672 94.9769 244.649 93.9168 243.696 93.5035C235.389 87.6835 226.339 85.0035 216.546 85.4635C209.866 85.7735 205.276 87.8935 199.506 91.0935C196.406 92.8135 191.836 95.1836 189.316 95.1836C183.836 95.1736 183.206 92.4635 180.176 89.2735C180.256 89.1202 180.102 88.5702 179.716 87.6235C185.009 86.4235 189.899 84.6169 194.386 82.2036C204.312 76.8636 209.452 68.7068 209.806 57.7335C209.956 53.0735 209.906 48.7735 208.746 44.4035L207.906 42.0135C207.857 41.8701 207.771 41.7425 207.656 41.644C207.541 41.5455 207.402 41.4796 207.252 41.4531C207.102 41.4266 206.948 41.4404 206.804 41.4933C206.661 41.5461 206.533 41.6359 206.436 41.7535C206.156 42.0935 205.986 42.3469 205.926 42.5135C202.746 51.1135 200.066 59.0835 191.526 63.6035C186.052 66.4968 178.916 68.3536 170.116 69.1736C161.949 64.7269 153.012 61.9535 143.306 60.8535C126.906 59.0068 111.142 61.4902 96.0157 68.3036L87.0457 67.9536C87.0126 67.9536 86.9822 67.9502 86.9557 67.9436C80.6757 66.7836 72.1657 64.2535 67.8357 59.7535C63.3957 55.1435 61.0357 47.6236 58.9657 41.3236C58.9187 41.179 58.8289 41.0521 58.7082 40.9597C58.5875 40.8673 58.4416 40.8137 58.2898 40.8061C58.138 40.7985 57.9874 40.8372 57.8581 40.9171C57.7288 40.997 57.6268 41.1143 57.5657 41.2535C56.8057 43.0202 56.4223 44.6335 56.4157 46.0935C54.3157 55.1835 54.8657 64.3935 59.5657 72.1435C53.3157 76.3835 45.7257 80.3435 38.2757 77.0335C31.7457 74.1335 28.6557 69.3135 24.5557 64.5935C24.1676 64.1436 23.6258 63.8544 23.036 63.7823C22.4462 63.7102 21.8507 63.8604 21.3657 64.2036C19.399 65.6036 17.5457 67.5335 15.8057 69.9935C18.919 64.0868 22.4357 58.4903 26.3557 53.2036C37.2357 39.6736 49.1857 28.3735 64.1057 19.1435C69.0923 16.0569 73.6123 13.6235 77.6657 11.8435C103.752 0.383478 130.816 -2.75979 158.856 2.41355C168.169 4.12688 177.359 7.06348 186.426 11.2235C195.859 15.5501 204.212 20.4668 211.486 25.9735C213.319 27.3668 216.766 30.2468 221.826 34.6135C241.096 51.2635 254.346 75.3135 260.546 99.9635Z" fill="#EFC1BA"/>
<path d="M96.016 68.3035C92.8494 72.7435 90.266 77.6368 88.266 82.9835C86.396 81.8935 84.496 80.7935 82.476 80.0335C74.176 76.8802 67.6327 71.4935 62.846 63.8735C60.076 59.4535 58.746 54.0235 57.816 49.1135C57.5627 47.7602 57.096 46.7535 56.416 46.0935C56.4227 44.6335 56.806 43.0202 57.566 41.2535C57.6271 41.1143 57.7291 40.997 57.8585 40.9171C57.9878 40.8372 58.1383 40.7985 58.2901 40.8061C58.442 40.8137 58.5879 40.8673 58.7086 40.9597C58.8293 41.0521 58.9191 41.179 58.966 41.3236C61.036 47.6236 63.396 55.1435 67.836 59.7535C72.166 64.2535 80.676 66.7836 86.956 67.9436C86.9826 67.9502 87.0129 67.9536 87.046 67.9536L96.016 68.3035Z" fill="#BA9A85"/>
<path d="M208.745 44.4035L208.185 44.4834C208.035 44.5031 207.896 44.5732 207.79 44.6822C207.685 44.7911 207.62 44.9325 207.605 45.0834C207.315 47.9434 207.415 51.2635 206.655 54.4435C204.435 63.6235 199.045 70.7435 190.485 75.8035C184.245 79.4968 179.855 82.0235 177.315 83.3835L170.115 69.1735C178.915 68.3535 186.052 66.4968 191.525 63.6034C200.065 59.0834 202.745 51.1135 205.925 42.5135C205.985 42.3468 206.155 42.0935 206.435 41.7535C206.533 41.6359 206.66 41.546 206.804 41.4932C206.947 41.4404 207.102 41.4265 207.252 41.453C207.401 41.4795 207.541 41.5454 207.656 41.644C207.771 41.7425 207.857 41.87 207.905 42.0135L208.745 44.4035Z" fill="#BA9A85"/>
<path d="M208.745 44.4036C209.905 48.7736 209.955 53.0735 209.805 57.7335C209.452 68.7069 204.312 76.8636 194.385 82.2036C189.899 84.6169 185.009 86.4235 179.715 87.6235L174.985 85.1135L177.315 83.3835C179.855 82.0235 184.245 79.4969 190.485 75.8036C199.045 70.7436 204.435 63.6236 206.655 54.4436C207.415 51.2636 207.315 47.9435 207.605 45.0835C207.62 44.9326 207.685 44.7912 207.791 44.6823C207.896 44.5733 208.035 44.5032 208.185 44.4835L208.745 44.4036Z" fill="#8A8256"/>
<path d="M88.2658 82.9835C87.7058 83.6102 87.7624 84.2669 88.4357 84.9536C87.1824 86.2403 86.3224 87.3869 85.8557 88.3936C81.4157 86.6936 77.0291 84.9802 72.6957 83.2535C67.6557 81.2402 63.2791 77.5369 59.5657 72.1436C54.8657 64.3936 54.3157 55.1835 56.4157 46.0935C57.0957 46.7535 57.5624 47.7602 57.8157 49.1135C58.7457 54.0235 60.0757 59.4535 62.8457 63.8735C67.6324 71.4935 74.1757 76.8802 82.4757 80.0336C84.4957 80.7936 86.3958 81.8935 88.2658 82.9835Z" fill="#A27F6B"/>
<path d="M59.5656 72.1435C63.279 77.5369 67.6556 81.2402 72.6956 83.2535C77.029 84.9802 81.4156 86.6935 85.8556 88.3935C84.829 90.1469 84.379 91.0935 84.5056 91.2335C80.2323 95.7402 75.7423 96.5802 71.0356 93.7535C67.1223 91.4002 63.0623 89.3602 58.8556 87.6335C48.1956 83.2535 34.2656 86.1735 24.5856 91.7435C22.5323 92.7902 20.8823 93.9535 19.6356 95.2335C16.7056 98.2235 18.0656 101.494 20.6356 104.534C27.4956 112.654 39.1956 123.004 50.0356 124.144C54.949 124.657 59.5756 124.254 63.9156 122.934C65.9356 122.32 70.9556 120.717 78.9756 118.124C79.3156 126.277 80.2623 134.114 81.8156 141.634C81.929 142.2 81.6523 142.943 80.9856 143.863C72.3923 158.45 64.709 173.504 57.9356 189.024C54.329 197.284 52.609 206.32 52.7756 216.134C52.9023 223.887 53.389 230.437 54.2356 235.784C55.2156 237.624 54.4323 237.504 51.8856 235.424C35.1123 222.144 22.019 205.953 12.6056 186.853C10.5656 182.713 8.3723 176.793 6.02563 169.093C0.992301 153.933 -0.887699 138.37 0.385634 122.404C0.625634 119.397 0.872306 116.39 1.12564 113.384C2.93897 102.79 5.47897 93.2735 8.74564 84.8335C10.239 80.9735 12.5923 76.0268 15.8056 69.9935C17.5456 67.5335 19.399 65.6036 21.3656 64.2036C21.8507 63.8604 22.4462 63.7102 23.036 63.7823C23.6257 63.8544 24.1675 64.1436 24.5556 64.5935C28.6556 69.3135 31.7456 74.1335 38.2756 77.0335C45.7256 80.3435 53.3156 76.3835 59.5656 72.1435Z" fill="#E4B3AE"/>
<path d="M170.116 69.1734L177.316 83.3834L174.986 85.1134C165.666 89.3634 159.046 97.5234 155.216 106.883C148.816 122.503 147.456 138.497 151.136 154.863C151.983 158.623 153.006 161.713 154.206 164.133C156.276 168.283 161.016 172.693 163.176 176.053C165.903 180.287 168.063 185.467 169.656 191.593C170.016 194.987 170.443 198.95 170.936 203.483C171.643 210.07 169.193 214.297 163.586 216.163L154.266 214.803L151.806 214.643L147.786 212.803C149.32 211.17 150.79 209.603 152.196 208.103C154.003 206.177 155.286 204.47 156.046 202.983C159.476 196.253 162.386 184.593 155.576 179.383C151.909 176.57 147.256 174.833 141.616 174.173C138.463 173.8 132.076 173.857 122.456 174.343C118.823 174.523 114.763 176.02 110.276 178.833C108.346 180.033 105.996 182.983 105.606 184.853C104.66 189.4 104.903 193.877 106.336 198.283C107.616 202.203 111.966 207.193 115.036 210.653C115.136 210.769 115.209 210.904 115.251 211.051C115.293 211.197 115.302 211.351 115.278 211.5C115.254 211.65 115.198 211.793 115.113 211.918C115.028 212.042 114.916 212.147 114.786 212.223C111.906 213.917 108.959 214.993 105.946 215.453C102.186 215.987 99.1562 215.18 96.8562 213.033C92.9862 208.123 93.8162 202.113 94.6862 196.383C95.6962 188.753 98.1662 179.713 103.146 173.723C107.416 168.573 112.166 164.433 113.816 157.603C117.163 143.83 117.076 129.997 113.556 116.103C110.146 102.633 102.246 89.4935 88.4362 84.9535C87.7628 84.2668 87.7062 83.61 88.2662 82.9834C90.2662 77.6367 92.8495 72.7434 96.0162 68.3034C111.143 61.4901 126.906 59.0067 143.306 60.8534C153.013 61.9534 161.949 64.7268 170.116 69.1734Z" fill="#F5E8D6"/>
<path d="M88.4356 84.9536C102.246 89.4936 110.146 102.634 113.556 116.104C117.076 129.997 117.162 143.83 113.816 157.604C112.166 164.434 107.416 168.574 103.146 173.724C98.1656 179.714 95.6956 188.754 94.6856 196.384C94.2789 191.797 93.4656 187.65 92.2456 183.944C88.8123 173.464 86.0656 163.8 84.0056 154.954C83.2523 151.72 82.6689 148.314 82.2556 144.734C82.2305 144.52 82.1547 144.316 82.0346 144.138C81.9145 143.961 81.7536 143.815 81.5656 143.714C81.5189 143.694 81.3256 143.744 80.9856 143.864C81.6522 142.944 81.9289 142.2 81.8156 141.634C80.2622 134.114 79.3156 126.277 78.9756 118.124L80.1856 105.124L84.5056 91.2335C84.3789 91.0935 84.8289 90.1469 85.8556 88.3936C86.3223 87.3869 87.1823 86.2403 88.4356 84.9536ZM100.316 133.004C100.431 132.952 100.53 132.869 100.604 132.759C100.679 132.649 100.727 132.515 100.747 132.365C100.767 132.216 100.758 132.054 100.719 131.892C100.681 131.73 100.615 131.57 100.526 131.424C98.5356 128.204 98.1656 124.554 95.8856 121.094C92.9256 116.594 87.3256 116.654 83.6056 120.074C83.5509 120.121 83.5111 120.183 83.4906 120.253C83.4701 120.322 83.4697 120.396 83.4894 120.467C83.5091 120.537 83.5482 120.602 83.6022 120.652C83.6563 120.703 83.7233 120.738 83.7956 120.754C84.1023 120.82 84.4956 120.76 84.9756 120.574C85.1171 120.518 85.2708 120.495 85.4221 120.509C85.5734 120.522 85.7173 120.57 85.8404 120.649C85.9635 120.728 86.0616 120.835 86.1255 120.96C86.1893 121.085 86.2169 121.224 86.2056 121.364C85.8856 125.234 85.4456 126.814 87.2856 129.644C89.8256 133.564 92.4156 131.634 95.8956 130.864C96.2037 130.791 96.5246 130.802 96.8256 130.894L98.9956 131.554C99.2085 131.617 99.4016 131.736 99.5558 131.899C99.7101 132.062 99.8203 132.264 99.8756 132.484C99.9889 132.904 100.136 133.077 100.316 133.004Z" fill="#AD724D"/>
<path d="M174.985 85.1135L179.715 87.6235C180.102 88.5702 180.255 89.1202 180.175 89.2736C180.082 89.7602 180.372 90.7303 181.045 92.1836C182.165 94.5903 183.402 99.7536 184.755 107.674L185.995 118.694C185.742 127.267 184.965 135.57 183.665 143.604C183.345 145.41 183.055 146.974 182.795 148.294C181.682 153.82 180.512 159.34 179.285 164.854C178.305 169.254 175.095 178.167 169.655 191.594C168.062 185.467 165.902 180.287 163.175 176.054C161.015 172.694 156.275 168.284 154.205 164.134C153.005 161.714 151.982 158.624 151.135 154.864C147.455 138.497 148.815 122.504 155.215 106.884C159.045 97.5235 165.665 89.3635 174.985 85.1135ZM165.765 132.124C167.495 132.094 169.165 131.104 170.645 131.304C171.645 131.437 172.515 131.65 173.255 131.944C173.753 132.134 174.295 132.175 174.817 132.063C175.339 131.952 175.817 131.691 176.195 131.314C179.202 128.3 179.922 125.087 178.355 121.674C178.315 121.585 178.297 121.487 178.304 121.39C178.31 121.292 178.341 121.198 178.392 121.117C178.444 121.035 178.516 120.968 178.6 120.922C178.685 120.876 178.779 120.852 178.875 120.854L181.705 120.864C181.759 120.865 181.811 120.848 181.853 120.815C181.895 120.783 181.924 120.736 181.936 120.685C181.948 120.633 181.941 120.578 181.917 120.531C181.894 120.483 181.854 120.445 181.805 120.424L176.545 117.804C176.393 117.731 176.231 117.68 176.065 117.654C168.515 116.294 165.915 125.594 165.165 131.454C165.154 131.538 165.161 131.625 165.186 131.706C165.211 131.788 165.253 131.864 165.31 131.927C165.367 131.991 165.438 132.042 165.516 132.076C165.595 132.109 165.68 132.126 165.765 132.124Z" fill="#AD724D"/>
<path d="M243.695 93.5037C236.702 91.5303 229.985 90.6204 223.545 90.7737C218.825 90.887 214.759 91.7237 211.345 93.2837C207.592 94.997 203.975 97.097 200.495 99.5836C194.305 103.994 190.375 107.554 186.715 108.954C186.563 109.013 186.397 109.027 186.237 108.993C186.077 108.959 185.931 108.879 185.815 108.764L184.755 107.674C183.402 99.7537 182.165 94.5904 181.045 92.1837C180.372 90.7304 180.082 89.7604 180.175 89.2737C183.205 92.4637 183.835 95.1737 189.315 95.1837C191.835 95.1837 196.405 92.8136 199.505 91.0936C205.275 87.8936 209.865 85.7736 216.545 85.4636C226.339 85.0036 235.389 87.6837 243.695 93.5037Z" fill="#693623"/>
<path d="M84.5059 91.2336L80.1859 105.124L78.8659 108.534C78.8296 108.629 78.7735 108.716 78.7012 108.788C78.6289 108.86 78.5421 108.915 78.4466 108.951C78.3511 108.987 78.249 109.002 78.1472 108.996C78.0454 108.989 77.9461 108.961 77.8559 108.914C73.2159 106.504 69.4959 102.494 65.6659 100.344C61.4859 97.9936 55.1459 92.6336 48.1959 90.8536C45.5893 90.1803 42.4059 89.9837 38.6459 90.2637C34.0459 90.6037 29.3593 91.097 24.5859 91.7436C34.2659 86.1736 48.1959 83.2537 58.8559 87.6337C63.0626 89.3603 67.1226 91.4003 71.0359 93.7537C75.7426 96.5803 80.2326 95.7403 84.5059 91.2336Z" fill="#693623"/>
<path d="M80.1854 105.123L78.9754 118.123C70.9554 120.717 65.9354 122.32 63.9154 122.934C59.5754 124.254 54.9487 124.657 50.0354 124.144C39.1954 123.004 27.4954 112.654 20.6354 104.534C18.0654 101.494 16.7054 98.2235 19.6354 95.2335C20.8821 93.9535 22.532 92.7901 24.5854 91.7435C29.3587 91.0968 34.0454 90.6035 38.6454 90.2635C42.4054 89.9835 45.5887 90.1801 48.1954 90.8535C55.1454 92.6335 61.4854 97.9935 65.6654 100.343C69.4954 102.493 73.2154 106.504 77.8554 108.914C77.9456 108.961 78.0448 108.989 78.1467 108.996C78.2485 109.002 78.3506 108.987 78.4461 108.951C78.5416 108.915 78.6283 108.859 78.7006 108.787C78.7729 108.715 78.8291 108.629 78.8654 108.534L80.1854 105.123Z" fill="#824D37"/>
<path d="M243.696 93.5034C244.649 93.9167 245.673 94.9768 246.766 96.6835C247.526 97.8768 247.753 99.1 247.446 100.353C242.516 108.953 233.496 115.883 224.786 120.873C219.553 123.873 214.089 125.11 208.396 124.583C207.376 124.483 203.743 123.44 197.496 121.453C193.736 120.253 189.903 119.333 185.996 118.693L184.756 107.673L185.816 108.763C185.931 108.879 186.078 108.959 186.238 108.993C186.397 109.026 186.564 109.013 186.716 108.953C190.376 107.553 194.306 103.993 200.496 99.5834C203.976 97.0967 207.593 94.9968 211.346 93.2834C214.759 91.7234 218.826 90.8868 223.546 90.7734C229.986 90.6201 236.703 91.5301 243.696 93.5034Z" fill="#824D37"/>
<path d="M264.656 126.213C264.909 140.833 262.913 155.243 258.666 169.443C256.379 177.343 253.316 184.973 249.476 192.333C245.156 200.313 241.689 205.843 239.076 208.923C234.376 214.473 229.876 220.503 224.646 225.193C220.433 228.967 216.019 232.57 211.406 236.003C212.613 224.943 213.009 216.24 212.596 209.893C212.209 203.933 210.973 198.327 208.886 193.073C206.253 186.46 203.093 179.31 199.406 171.623C194.813 162.483 189.566 153.143 183.666 143.603C184.966 135.57 185.743 127.267 185.996 118.693C189.903 119.333 193.736 120.253 197.496 121.453C203.743 123.44 207.376 124.483 208.396 124.583C214.089 125.11 219.553 123.873 224.786 120.873C233.496 115.883 242.516 108.953 247.446 100.353C249.386 102.363 256.696 109.873 259.726 109.403C260.919 109.21 261.529 108.313 261.556 106.713C261.576 105.693 261.239 103.443 260.546 99.9634C262.853 108.49 264.223 117.24 264.656 126.213Z" fill="#E4B3AE"/>
<path d="M165.166 131.454C165.916 125.594 168.516 116.294 176.066 117.654C176.231 117.68 176.393 117.731 176.546 117.804L181.806 120.424C181.854 120.445 181.894 120.483 181.918 120.531C181.942 120.578 181.948 120.633 181.936 120.685C181.925 120.736 181.895 120.783 181.853 120.815C181.811 120.848 181.759 120.865 181.706 120.864L178.876 120.854C178.78 120.852 178.685 120.876 178.601 120.922C178.516 120.968 178.445 121.035 178.393 121.117C178.341 121.199 178.31 121.292 178.304 121.39C178.297 121.487 178.315 121.585 178.356 121.674C179.922 125.087 179.202 128.3 176.196 131.314C175.818 131.691 175.339 131.952 174.817 132.063C174.296 132.175 173.753 132.134 173.256 131.944C172.516 131.65 171.646 131.437 170.646 131.304C169.166 131.104 167.496 132.094 165.766 132.124C165.68 132.126 165.595 132.109 165.517 132.076C165.438 132.042 165.368 131.991 165.311 131.927C165.254 131.864 165.211 131.788 165.186 131.706C165.161 131.625 165.154 131.538 165.166 131.454ZM174.729 120.045C174.334 120.059 173.962 120.273 173.696 120.641C173.429 121.008 173.289 121.499 173.307 122.006C173.315 122.256 173.362 122.503 173.445 122.732C173.528 122.961 173.645 123.168 173.79 123.34C173.934 123.513 174.103 123.647 174.287 123.737C174.471 123.827 174.667 123.869 174.862 123.862C175.257 123.849 175.629 123.634 175.896 123.266C176.162 122.899 176.302 122.408 176.285 121.902C176.276 121.651 176.229 121.404 176.146 121.175C176.063 120.946 175.946 120.739 175.801 120.567C175.657 120.395 175.488 120.26 175.304 120.17C175.12 120.081 174.925 120.038 174.729 120.045Z" fill="#301A15"/>
<path d="M100.315 133.003C100.135 133.077 99.9886 132.903 99.8753 132.483C99.82 132.264 99.7098 132.062 99.5556 131.899C99.4013 131.736 99.2082 131.617 98.9953 131.554L96.8253 130.893C96.5243 130.802 96.2034 130.791 95.8953 130.863C92.4153 131.633 89.8253 133.563 87.2853 129.643C85.4453 126.813 85.8853 125.233 86.2053 121.363C86.2166 121.224 86.1891 121.085 86.1252 120.96C86.0613 120.835 85.9632 120.728 85.8401 120.649C85.7171 120.57 85.5731 120.522 85.4218 120.508C85.2705 120.495 85.1168 120.518 84.9753 120.574C84.4953 120.76 84.102 120.82 83.7953 120.753C83.723 120.738 83.656 120.703 83.602 120.652C83.5479 120.602 83.5088 120.537 83.4891 120.467C83.4694 120.396 83.4698 120.322 83.4903 120.253C83.5108 120.183 83.5507 120.121 83.6053 120.074C87.3253 116.654 92.9253 116.593 95.8853 121.093C98.1653 124.553 98.5353 128.204 100.525 131.424C100.615 131.57 100.681 131.73 100.719 131.892C100.757 132.054 100.767 132.216 100.747 132.365C100.727 132.515 100.678 132.649 100.604 132.759C100.53 132.869 100.431 132.952 100.315 133.003ZM89.942 120.374C89.7477 120.371 89.5546 120.412 89.3737 120.494C89.1928 120.577 89.0277 120.699 88.8878 120.855C88.7479 121.011 88.636 121.196 88.5584 121.402C88.4808 121.607 88.439 121.827 88.4355 122.05C88.4284 122.501 88.5776 122.936 88.8501 123.259C89.1226 123.582 89.4961 123.767 89.8886 123.773C90.0829 123.776 90.2761 123.735 90.457 123.653C90.6378 123.57 90.8029 123.447 90.9428 123.292C91.0827 123.136 91.1947 122.95 91.2723 122.745C91.3499 122.54 91.3916 122.32 91.3951 122.097C91.4022 121.646 91.2531 121.211 90.9806 120.888C90.708 120.565 90.3345 120.38 89.942 120.374Z" fill="#301A15"/>
<path d="M176.285 121.902C176.248 120.847 175.551 120.016 174.729 120.045C173.906 120.074 173.27 120.951 173.306 122.006C173.343 123.06 174.04 123.891 174.862 123.863C175.685 123.834 176.321 122.956 176.285 121.902Z" fill="#F5EDE2"/>
<path d="M91.3955 122.097C91.4103 121.158 90.7597 120.387 89.9424 120.374C89.1251 120.361 88.4506 121.111 88.4359 122.05C88.4211 122.989 89.0717 123.76 89.889 123.773C90.7063 123.786 91.3808 123.035 91.3955 122.097Z" fill="#F5EDE2"/>
<path d="M80.9857 143.864C81.3257 143.744 81.519 143.694 81.5657 143.714C81.7537 143.815 81.9146 143.961 82.0347 144.138C82.1548 144.316 82.2306 144.52 82.2557 144.734C82.669 148.314 83.2524 151.72 84.0057 154.954C86.0657 163.8 88.8124 173.464 92.2457 183.944C93.4657 187.65 94.279 191.797 94.6857 196.384C93.8157 202.114 92.9857 208.124 96.8557 213.034L95.6157 213.074C95.5153 213.077 95.4177 213.108 95.3337 213.163C95.2497 213.218 95.1824 213.296 95.1391 213.386C95.0958 213.477 95.0782 213.578 95.0881 213.678C95.0981 213.778 95.1353 213.873 95.1957 213.954C95.749 214.694 97.5224 217.61 100.516 222.704C101.956 225.157 103.766 227.93 105.946 231.024C109.266 235.724 113.899 242.257 119.846 250.624C120.466 251.504 121.726 253.68 123.626 257.154C117.139 257.787 110.576 257.26 103.936 255.574C94.509 253.174 85.8924 250.377 78.0857 247.184C70.4924 242.65 62.5423 238.85 54.2357 235.784C53.389 230.437 52.9024 223.887 52.7757 216.134C52.609 206.32 54.329 197.284 57.9357 189.024C64.709 173.504 72.3923 158.45 80.9857 143.864Z" fill="#925738"/>
<path d="M183.665 143.604C189.565 153.144 194.812 162.484 199.405 171.624C194.439 172.864 189.759 174.63 185.365 176.924C185.23 176.993 185.111 177.089 185.017 177.206C184.922 177.323 184.853 177.459 184.815 177.604C182.325 187.234 180.565 197.964 176.395 206.554C173.535 212.427 170.552 217.767 167.445 222.574C167.079 223.14 164.449 226.69 159.555 233.224C154.685 239.744 151.055 245.234 145.605 251.944C143.392 254.67 141.245 257.94 139.165 261.754C139.141 261.799 139.129 261.85 139.131 261.901C139.132 261.952 139.146 262.002 139.172 262.046C139.198 262.09 139.235 262.127 139.28 262.153C139.324 262.179 139.374 262.193 139.425 262.194L142.005 262.214L127.025 262.514L123.625 257.154C121.725 253.68 120.465 251.504 119.845 250.624C113.899 242.257 109.265 235.724 105.945 231.024C103.765 227.93 101.955 225.157 100.515 222.704C97.5219 217.61 95.7486 214.694 95.1952 213.954C95.1349 213.873 95.0977 213.778 95.0877 213.678C95.0777 213.578 95.0953 213.477 95.1386 213.386C95.1819 213.296 95.2492 213.218 95.3332 213.163C95.4173 213.108 95.5148 213.077 95.6152 213.074L96.8552 213.034C99.1552 215.18 102.185 215.987 105.945 215.454L110.015 219.034C118.265 226.084 128.465 226.114 138.735 225.614C146.475 225.234 152.805 222.35 157.725 216.964C157.936 216.733 158.203 216.555 158.505 216.444C159.945 215.93 161.639 215.837 163.585 216.164C169.192 214.297 171.642 210.07 170.935 203.484C170.442 198.95 170.015 194.987 169.655 191.594C175.095 178.167 178.305 169.254 179.285 164.854C180.512 159.34 181.682 153.82 182.795 148.294C183.055 146.974 183.345 145.41 183.665 143.604Z" fill="#693623"/>
<path d="M199.406 171.624C203.092 179.31 206.252 186.46 208.886 193.074C210.972 198.327 212.209 203.934 212.596 209.894C213.009 216.24 212.612 224.944 211.406 236.004C206.506 240.464 200.769 244.174 194.196 247.134C190.576 248.054 187.286 249.65 184.326 251.924C177.419 253.63 170.719 255.874 164.226 258.654C163.879 258.84 163.426 258.924 162.866 258.904L154.756 260.714L142.006 262.214L139.426 262.194C139.374 262.193 139.324 262.179 139.28 262.153C139.236 262.127 139.199 262.09 139.173 262.046C139.147 262.002 139.132 261.952 139.131 261.901C139.13 261.85 139.142 261.799 139.166 261.754C141.246 257.94 143.392 254.67 145.606 251.944C151.056 245.234 154.686 239.744 159.556 233.224C164.449 226.69 167.079 223.14 167.446 222.574C170.552 217.767 173.536 212.427 176.396 206.554C180.566 197.964 182.326 187.234 184.816 177.604C184.853 177.459 184.922 177.323 185.017 177.206C185.112 177.089 185.23 176.993 185.366 176.924C189.759 174.63 194.439 172.864 199.406 171.624Z" fill="#824D37"/>
<path d="M147.786 212.804C144.299 212.324 140.143 212.104 135.316 212.144C124.529 212.23 118.316 212.457 116.676 212.824C116.413 212.882 116.175 213.022 115.996 213.224C115.817 213.426 115.707 213.678 115.68 213.947C115.653 214.215 115.712 214.485 115.848 214.717C115.984 214.95 116.189 215.134 116.436 215.243C116.943 215.477 117.659 215.544 118.586 215.444C129.606 214.284 140.463 214.317 151.156 215.544C151.463 215.577 151.713 215.477 151.906 215.243C152.026 215.097 151.992 214.897 151.806 214.644L154.266 214.804L156.386 215.394C156.459 215.414 156.525 215.454 156.577 215.51C156.629 215.566 156.664 215.636 156.678 215.71C156.693 215.785 156.686 215.862 156.659 215.934C156.632 216.005 156.586 216.067 156.526 216.113L153.736 218.184C153.489 218.372 153.188 218.477 152.876 218.483L110.016 219.034L105.946 215.454C108.959 214.994 111.906 213.917 114.786 212.223C114.916 212.147 115.027 212.043 115.112 211.918C115.197 211.793 115.254 211.65 115.278 211.501C115.302 211.351 115.292 211.197 115.251 211.051C115.209 210.904 115.135 210.769 115.036 210.654C111.966 207.194 107.616 202.204 106.336 198.284C104.902 193.877 104.659 189.4 105.606 184.853C105.996 182.983 108.346 180.033 110.276 178.833C114.762 176.02 118.822 174.523 122.456 174.343C132.076 173.857 138.462 173.8 141.616 174.174C147.256 174.834 151.909 176.57 155.576 179.384C162.386 184.594 159.476 196.253 156.046 202.983C155.286 204.47 154.003 206.177 152.196 208.103C150.789 209.603 149.319 211.17 147.786 212.804ZM153.526 182.064C153.423 181.967 153.298 181.898 153.162 181.861C153.026 181.825 152.883 181.822 152.746 181.854C152.608 181.885 152.481 181.95 152.375 182.043C152.268 182.135 152.186 182.252 152.136 182.384C151.422 184.257 150.693 185.587 149.946 186.374C149.713 186.613 149.476 186.85 149.236 187.083C147.866 188.423 143.276 190.213 142.136 193.243C141.236 195.65 141.939 197.494 144.246 198.774C147.496 200.574 151.666 196.404 153.116 194.034C154.476 191.814 154.606 184.763 153.956 182.973C153.776 182.46 153.632 182.157 153.526 182.064ZM111.126 182.164C108.096 185.584 111.246 193.613 113.456 196.213C116.386 199.673 121.476 199.914 123.206 195.304C124.476 191.944 118.696 189.314 115.616 187.414C115.497 187.334 115.392 187.236 115.306 187.124L111.766 182.204C111.731 182.153 111.684 182.111 111.631 182.081C111.577 182.051 111.517 182.033 111.455 182.029C111.394 182.026 111.332 182.036 111.275 182.059C111.218 182.082 111.167 182.118 111.126 182.164Z" fill="#E79D8E"/>
<path d="M153.526 182.064C153.632 182.157 153.776 182.46 153.956 182.974C154.606 184.764 154.476 191.814 153.116 194.034C151.666 196.404 147.496 200.574 144.246 198.774C141.939 197.494 141.236 195.65 142.136 193.244C143.276 190.214 147.866 188.424 149.236 187.084C149.475 186.851 149.713 186.613 149.946 186.374C150.692 185.587 151.422 184.257 152.136 182.384C152.186 182.252 152.268 182.135 152.375 182.043C152.481 181.95 152.608 181.886 152.746 181.854C152.883 181.822 153.026 181.825 153.162 181.862C153.298 181.898 153.423 181.967 153.526 182.064Z" fill="#693623"/>
<path d="M111.126 182.164C111.167 182.118 111.218 182.082 111.275 182.059C111.332 182.036 111.394 182.026 111.456 182.029C111.517 182.033 111.577 182.051 111.631 182.081C111.684 182.111 111.731 182.153 111.766 182.204L115.306 187.123C115.392 187.236 115.497 187.334 115.616 187.414C118.696 189.314 124.476 191.944 123.206 195.304C121.476 199.914 116.386 199.673 113.456 196.213C111.246 193.613 108.096 185.584 111.126 182.164Z" fill="#824D37"/>
<path d="M147.786 212.804L151.806 214.644C151.993 214.897 152.026 215.097 151.906 215.244C151.713 215.477 151.463 215.577 151.156 215.544C140.463 214.317 129.606 214.284 118.586 215.444C117.659 215.544 116.943 215.477 116.436 215.244C116.189 215.134 115.984 214.95 115.848 214.718C115.712 214.485 115.653 214.215 115.68 213.947C115.707 213.678 115.817 213.426 115.996 213.224C116.175 213.022 116.413 212.882 116.676 212.824C118.316 212.457 124.529 212.23 135.316 212.144C140.143 212.104 144.299 212.324 147.786 212.804Z" fill="#966841"/>
<path d="M163.586 216.164C161.639 215.837 159.946 215.93 158.506 216.444C158.203 216.555 157.936 216.734 157.726 216.964C152.806 222.35 146.476 225.234 138.736 225.614C128.466 226.114 118.266 226.084 110.016 219.034L152.876 218.484C153.188 218.477 153.489 218.372 153.736 218.184L156.526 216.114C156.586 216.067 156.632 216.005 156.659 215.934C156.686 215.862 156.693 215.785 156.678 215.71C156.664 215.636 156.629 215.566 156.577 215.51C156.525 215.455 156.459 215.414 156.386 215.394L154.266 214.804L163.586 216.164Z" fill="#EFC1BA"/>
<path d="M54.2357 235.784C62.5424 238.85 70.4924 242.65 78.0857 247.184L55.4057 236.964C55.3325 236.94 55.2532 236.942 55.1816 236.971C55.11 236.999 55.0507 237.052 55.0139 237.12C54.9771 237.187 54.9651 237.266 54.9801 237.341C54.995 237.417 55.0359 237.485 55.0957 237.534L66.3257 244.724C60.9324 242.404 56.1191 239.304 51.8857 235.424C54.4324 237.504 55.2157 237.624 54.2357 235.784Z" fill="#966841"/>
<path d="M78.0856 247.183C85.8922 250.377 94.5089 253.174 103.936 255.574C110.576 257.26 117.139 257.787 123.626 257.153L127.026 262.513C105.292 261.367 85.0589 255.437 66.3256 244.723L55.0955 237.533C55.0358 237.485 54.9948 237.417 54.9799 237.341C54.965 237.266 54.9769 237.187 55.0137 237.12C55.0505 237.052 55.1099 236.999 55.1814 236.971C55.253 236.942 55.3323 236.94 55.4056 236.963L78.0856 247.183Z" fill="#83604A"/>
<path d="M194.196 247.134L190.336 249.264C190.27 249.301 190.196 249.323 190.118 249.328C190.041 249.334 189.961 249.322 189.886 249.294C189.586 249.187 189.45 249.257 189.476 249.504C189.482 249.561 189.468 249.619 189.437 249.668C189.407 249.717 189.36 249.754 189.306 249.774L184.326 251.924C187.286 249.65 190.576 248.054 194.196 247.134Z" fill="#83604A"/>
<path d="M184.326 251.924C177.866 254.79 171.166 257.034 164.226 258.654C170.719 255.874 177.419 253.63 184.326 251.924Z" fill="#6E5242"/>
</svg>
