<svg width="265" height="264" viewBox="0 0 265 264" fill="none" xmlns="http://www.w3.org/2000/svg">
<path d="M212.168 26.1762L217.318 30.5362C219.291 33.4096 220.885 36.4129 222.098 39.5462C224.718 46.3162 219.168 49.7462 213.278 50.2662C202.268 51.2362 191.918 49.1462 181.408 46.0262C181.495 37.3262 178.935 29.5063 173.728 22.5663C172.768 21.2863 171.595 20.3329 170.208 19.7063C170.014 19.6186 169.804 19.5734 169.592 19.5737C169.379 19.574 169.17 19.6199 168.977 19.7081C168.784 19.7964 168.613 19.9249 168.475 20.0851C168.338 20.2452 168.236 20.4333 168.178 20.6363C166.651 25.9897 164.128 31.2563 160.608 36.4363C160.249 36.9612 159.954 37.5216 159.728 38.1063L154.098 52.5863C151.271 47.4396 147.221 44.2162 141.948 42.9162C139.068 42.2062 135.408 42.7562 132.148 42.5362C128.375 42.2762 125.931 42.2329 124.818 42.4062C119.398 43.2596 114.558 46.123 110.298 50.9963C108.911 46.643 107.328 42.5262 105.548 38.6462C104.475 36.3062 103.041 33.7863 101.248 31.0863C99.2347 28.0596 97.728 24.6997 96.728 21.0063C96.6514 20.7222 96.5074 20.4606 96.3082 20.244C96.1089 20.0274 95.8604 19.862 95.5837 19.7619C95.3069 19.6618 95.0101 19.63 94.7184 19.669C94.4267 19.7081 94.1488 19.8169 93.9081 19.9863C92.5947 20.9063 91.3581 22.1696 90.1981 23.7762C82.7781 34.0462 81.768 48.2363 86.368 59.8763C74.588 57.1363 63.6648 56.2262 53.5981 57.1462C50.5114 57.4262 43.7014 58.333 33.168 59.8663C29.8747 60.3463 26.4014 60.0762 22.748 59.0562L24.248 55.5763C26.0014 53.5296 27.7047 51.413 29.358 49.2263C29.998 48.3863 30.5581 47.6763 31.0381 47.0963C43.5114 32.103 58.2914 20.6595 75.3781 12.7662C102.045 0.439543 129.818 -2.96041 158.698 2.56626C165.185 3.80626 171.231 5.40965 176.838 7.37632C189.565 11.843 201.341 18.1096 212.168 26.1762Z" fill="#E5CBAC"/>
<path d="M110.298 50.9963C109.678 52.3763 108.815 54.1496 107.708 56.3162C104.521 62.5296 101.011 68.1962 97.1778 73.3162C97.1031 73.4167 96.9912 73.4835 96.866 73.5021C96.7408 73.5208 96.6123 73.49 96.5078 73.4162L96.4978 73.4062C96.4041 73.3388 96.3401 73.2382 96.3195 73.1259C96.299 73.0137 96.3235 72.8989 96.3878 72.8062C99.5278 68.1996 101.755 63.1495 103.068 57.6562C105.318 48.2362 99.1378 36.2763 93.8678 28.7263C93.8319 28.6746 93.783 28.6333 93.7261 28.6064C93.6692 28.5795 93.6062 28.5681 93.5435 28.5732C93.4808 28.5783 93.4204 28.5996 93.3686 28.6352C93.3167 28.6708 93.2751 28.7195 93.2478 28.7762C91.2478 33.0162 89.4479 37.3062 89.2179 42.1462C88.8179 50.3962 90.1178 60.8462 96.2378 66.9262C96.5183 67.2065 96.7211 67.5557 96.8263 67.9395C96.9314 68.3234 96.9354 68.7289 96.8379 69.1163C96.2579 71.4096 95.5445 72.4963 94.6978 72.3763C91.4178 68.5296 88.6412 64.363 86.3678 59.8763C81.7678 48.2363 82.7778 34.0462 90.1978 23.7762C91.3578 22.1695 92.5945 20.9063 93.9079 19.9863C94.1485 19.8169 94.4265 19.7081 94.7182 19.669C95.0099 19.63 95.3067 19.6618 95.5835 19.7619C95.8602 19.862 96.1087 20.0274 96.3079 20.244C96.5072 20.4606 96.6512 20.7222 96.7278 21.0063C97.7278 24.6996 99.2345 28.0596 101.248 31.0863C103.041 33.7863 104.474 36.3062 105.548 38.6462C107.328 42.5262 108.911 46.643 110.298 50.9963Z" fill="#925738"/>
<path d="M181.408 46.0262C180.638 55.1862 178.108 63.5963 172.238 70.4463C170.668 72.2763 170.488 73.1564 170.928 75.3864C171.435 77.9197 172.401 81.5996 173.828 86.4263C174.315 88.0796 175.141 90.0796 176.308 92.4263C177.275 94.3729 178.178 96.3497 179.018 98.3563L180.238 107.576C178.591 105.73 177.075 104.53 175.688 103.976C177.168 101.416 177.118 98.4997 175.538 95.2263C174.191 92.4463 172.708 90.0429 171.088 88.0162C167.008 82.9262 161.538 84.3363 156.198 85.9363C156.152 85.9495 156.104 85.9529 156.058 85.9463C155.778 85.8996 155.668 85.7196 155.728 85.4062L156.008 85.4263C156.127 85.4316 156.245 85.4091 156.354 85.3604C156.462 85.3116 156.558 85.238 156.633 85.1456C156.708 85.0532 156.76 84.9445 156.785 84.8282C156.81 84.712 156.808 84.5915 156.778 84.4763C155.245 78.523 152.775 73.0297 149.368 67.9963C149.316 67.9158 149.296 67.8191 149.312 67.7247C149.327 67.6304 149.376 67.5449 149.45 67.4845C149.524 67.4241 149.618 67.393 149.713 67.397C149.809 67.401 149.899 67.4399 149.968 67.5063C156.888 74.2963 160.028 78.3763 167.548 81.7463C167.586 81.763 167.628 81.7698 167.669 81.7662C167.71 81.7627 167.75 81.7489 167.785 81.7261C167.82 81.7032 167.848 81.6721 167.868 81.6355C167.888 81.5989 167.898 81.5578 167.898 81.5162C167.798 77.9462 166.998 76.7063 164.168 73.7563C158.341 67.7097 154.985 60.653 154.098 52.5863L159.728 38.1063C159.954 37.5216 160.249 36.9612 160.608 36.4363C164.128 31.2563 166.651 25.9897 168.178 20.6364C168.236 20.4333 168.337 20.2453 168.475 20.0851C168.613 19.9249 168.784 19.7964 168.977 19.7081C169.169 19.6199 169.379 19.574 169.592 19.5737C169.804 19.5734 170.014 19.6186 170.208 19.7063C171.595 20.333 172.768 21.2863 173.728 22.5663C178.934 29.5063 181.495 37.3262 181.408 46.0262ZM168.048 68.4163L172.628 61.9062C172.734 61.7536 172.818 61.5922 172.878 61.4263C177.118 50.3463 176.928 39.373 172.308 28.5063C172.233 28.3301 172.108 28.1795 171.949 28.0734C171.79 27.9672 171.603 27.9101 171.411 27.9091C171.22 27.908 171.032 27.963 170.872 28.0674C170.711 28.1717 170.585 28.3209 170.508 28.4963C169.141 31.683 167.731 34.6696 166.278 37.4563C164.218 41.403 162.958 44.4363 162.498 46.5563C160.785 54.4496 162.368 61.7363 167.248 68.4163C167.293 68.4802 167.353 68.5325 167.423 68.5685C167.492 68.6045 167.57 68.6233 167.648 68.6233C167.726 68.6233 167.803 68.6045 167.873 68.5685C167.943 68.5325 168.003 68.4802 168.048 68.4163Z" fill="#925738"/>
<path d="M168.048 68.4163C168.003 68.4802 167.943 68.5325 167.873 68.5685C167.803 68.6045 167.726 68.6233 167.648 68.6233C167.57 68.6233 167.492 68.6045 167.423 68.5685C167.353 68.5325 167.293 68.4802 167.248 68.4163C162.368 61.7363 160.785 54.4496 162.498 46.5563C162.958 44.4363 164.218 41.403 166.278 37.4563C167.731 34.6696 169.141 31.683 170.508 28.4964C170.585 28.3209 170.711 28.1718 170.872 28.0674C171.032 27.963 171.22 27.908 171.411 27.9091C171.603 27.9101 171.79 27.9672 171.949 28.0734C172.108 28.1795 172.233 28.3301 172.308 28.5064C176.928 39.373 177.118 50.3463 172.878 61.4263C172.818 61.5922 172.734 61.7536 172.628 61.9063L168.048 68.4163Z" fill="#5A2C1F"/>
<path d="M110.298 50.9963C114.558 46.123 119.398 43.2595 124.818 42.4062C125.932 42.2329 128.375 42.2762 132.148 42.5362C135.408 42.7562 139.068 42.2062 141.948 42.9162C147.222 44.2162 151.272 47.4396 154.098 52.5863C154.985 60.6529 158.342 67.7096 164.168 73.7563C166.998 76.7063 167.798 77.9462 167.898 81.5162C167.899 81.5578 167.888 81.5988 167.869 81.6354C167.849 81.6721 167.82 81.7032 167.786 81.726C167.751 81.7489 167.711 81.7627 167.67 81.7662C167.628 81.7697 167.586 81.7629 167.548 81.7463C160.028 78.3763 156.888 74.2963 149.968 67.5063C149.9 67.4399 149.809 67.4009 149.714 67.3969C149.618 67.3929 149.525 67.424 149.451 67.4844C149.376 67.5449 149.327 67.6303 149.312 67.7247C149.297 67.819 149.317 67.9157 149.368 67.9963C152.775 73.0296 155.245 78.5229 156.778 84.4763C156.808 84.5914 156.811 84.7119 156.785 84.8282C156.76 84.9444 156.708 85.0532 156.633 85.1456C156.558 85.238 156.463 85.3116 156.354 85.3603C156.246 85.4091 156.127 85.4316 156.008 85.4262L155.728 85.4062C149.215 81.6595 142.715 77.8929 136.228 74.1063C134.915 73.3396 133.628 72.9496 132.368 72.9362C132.212 72.936 132.058 72.9008 131.918 72.8333C131.778 72.7658 131.655 72.6677 131.558 72.5462L128.688 68.9763L125.938 65.0063C125.856 64.8857 125.732 64.8002 125.591 64.7668C125.45 64.7334 125.303 64.7547 125.178 64.8262C119.372 68.0796 112.568 72.0762 104.768 76.8162C100.095 79.6562 96.2684 82.9329 93.2884 86.6462C92.4617 87.6795 90.9883 90.1229 88.8683 93.9763C87.535 96.4096 86.1017 98.8862 84.5684 101.406C85.3217 97.9329 86.475 94.7262 88.0284 91.7862C88.3003 91.2622 88.4956 90.7033 88.6083 90.1263C89.7217 84.2396 91.7517 78.323 94.6984 72.3763C95.545 72.4963 96.2584 71.4096 96.8384 69.1163C96.936 68.7289 96.932 68.3234 96.8268 67.9395C96.7216 67.5557 96.5188 67.2065 96.2383 66.9262C90.1183 60.8462 88.8184 50.3962 89.2184 42.1462C89.4484 37.3062 91.2484 33.0162 93.2484 28.7762C93.2756 28.7195 93.3172 28.6708 93.3691 28.6352C93.421 28.5996 93.4813 28.5783 93.544 28.5732C93.6067 28.5681 93.6697 28.5795 93.7266 28.6064C93.7835 28.6333 93.8324 28.6746 93.8683 28.7263C99.1383 36.2763 105.318 48.2362 103.068 57.6562C101.755 63.1495 99.5284 68.1996 96.3884 72.8062C96.324 72.8989 96.2995 73.0137 96.3201 73.1259C96.3406 73.2382 96.4047 73.3388 96.4984 73.4062L96.5084 73.4162C96.6128 73.49 96.7413 73.5208 96.8665 73.5021C96.9917 73.4835 97.1036 73.4167 97.1783 73.3162C101.012 68.1962 104.522 62.5296 107.708 56.3162C108.815 54.1496 109.678 52.3763 110.298 50.9963Z" fill="#4A2C1F"/>
<path d="M253.448 78.5763C254.268 84.4663 253.938 90.5863 248.448 93.3163C243.088 95.9663 236.308 96.6963 230.688 97.2063C218.841 98.2796 206.971 98.953 195.078 99.2263C190.551 99.3263 185.198 99.0363 179.018 98.3563C178.178 96.3497 177.274 94.3729 176.308 92.4263C175.141 90.0796 174.314 88.0796 173.828 86.4263C172.401 81.5996 171.434 77.9197 170.928 75.3864C170.488 73.1564 170.668 72.2763 172.238 70.4463C178.108 63.5963 180.638 55.1862 181.408 46.0262C191.918 49.1462 202.268 51.2362 213.278 50.2662C219.168 49.7462 224.718 46.3163 222.098 39.5463C220.884 36.4129 219.291 33.4096 217.318 30.5363C229.638 40.5029 239.628 52.3429 247.288 66.0563C248.688 68.5563 250.741 72.7296 253.448 78.5763Z" fill="#DEBEA0"/>
<path d="M86.3679 59.8763C88.6412 64.363 91.4179 68.5296 94.6979 72.3763C91.7512 78.323 89.7212 84.2396 88.6079 90.1263C88.4951 90.7033 88.2999 91.2622 88.0279 91.7862C86.4746 94.7262 85.3212 97.9329 84.5679 101.406C83.6612 102.813 83.1646 104.67 83.0779 106.976C81.0779 115.03 77.8246 122.486 73.3179 129.346C75.3679 117.176 74.4279 108.296 59.7279 107.836C58.8745 107.81 52.3046 108.023 40.0179 108.476C35.9113 108.623 27.9579 108.546 16.1579 108.246C7.42794 108.016 6.04789 102.316 7.66789 95.0063C10.4479 82.5163 16.4879 70.2162 22.7479 59.0562C26.4012 60.0762 29.8746 60.3463 33.1679 59.8663C43.7012 58.3329 50.5113 57.4262 53.5979 57.1462C63.6646 56.2262 74.5879 57.1363 86.3679 59.8763Z" fill="#DEBEA0"/>
<path d="M24.2478 55.5763L22.7478 59.0563C16.4878 70.2163 10.4478 82.5163 7.66778 95.0063C6.04778 102.316 7.42783 108.016 16.1578 108.246C27.9578 108.546 35.9112 108.623 40.0178 108.476C52.3045 108.023 58.8744 107.81 59.7278 107.836C74.4278 108.296 75.3678 117.176 73.3178 129.346L65.7178 138.866C65.679 138.913 65.655 138.97 65.6492 139.03C65.6433 139.09 65.6558 139.151 65.685 139.204C65.7142 139.257 65.7588 139.3 65.8128 139.327C65.8668 139.354 65.9278 139.364 65.9878 139.356C70.6611 138.896 74.7711 137.463 78.3178 135.056C78.3866 135.009 78.4683 134.983 78.5519 134.984C78.6356 134.984 78.7171 135.01 78.7856 135.057C78.8542 135.105 78.9065 135.173 78.9355 135.251C78.9645 135.33 78.9688 135.415 78.9478 135.496C76.6278 144.506 70.4778 154.096 64.7978 161.416C64.4678 157.126 67.2678 154.226 69.8678 150.266C69.9029 150.214 69.9243 150.153 69.9302 150.09C69.9362 150.027 69.9264 149.964 69.9018 149.905C69.8772 149.846 69.8385 149.793 69.7891 149.752C69.7396 149.71 69.6808 149.681 69.6178 149.666C60.2911 147.566 52.6911 146.403 46.8178 146.176C42.7778 146.023 34.2911 145.796 21.3578 145.496C14.0645 145.33 7.06445 143.966 0.357784 141.406C-0.0488828 134.12 -0.108875 128.32 0.177791 124.006C1.17779 108.993 4.80112 93.9962 11.0478 79.0162C14.5811 70.8229 18.9811 63.0096 24.2478 55.5763Z" fill="#DAB79A"/>
<path d="M128.688 68.9764L115.268 79.0964C114.139 79.9468 112.914 80.6617 111.618 81.2264C107.688 82.9264 101.878 85.1063 99.3381 87.3963C94.6981 91.5963 91.9681 96.5064 91.1481 102.126L83.0781 106.976C83.1648 104.67 83.6614 102.813 84.5681 101.406C86.1014 98.8863 87.5348 96.4097 88.8681 93.9764C90.9881 90.123 92.4615 87.6796 93.2881 86.6463C96.2681 82.9329 100.095 79.6563 104.768 76.8163C112.568 72.0763 119.371 68.0797 125.178 64.8263C125.303 64.7547 125.45 64.7335 125.591 64.7669C125.732 64.8003 125.856 64.8858 125.938 65.0064L128.688 68.9764Z" fill="#925738"/>
<path d="M128.687 68.9763L131.557 72.5463C131.654 72.6677 131.777 72.7659 131.917 72.8334C132.057 72.9009 132.211 72.9361 132.367 72.9363C133.627 72.9496 134.914 73.3397 136.227 74.1063C142.714 77.893 149.214 81.6596 155.727 85.4062C155.667 85.7196 155.777 85.8996 156.057 85.9463C156.103 85.9529 156.151 85.9495 156.197 85.9363C161.537 84.3363 167.007 82.9262 171.087 88.0162C172.707 90.0429 174.191 92.4463 175.537 95.2263C177.117 98.4997 177.167 101.416 175.687 103.976L173.797 103.156L162.947 102.436C162.791 102.424 162.634 102.451 162.491 102.513C162.348 102.576 162.223 102.673 162.127 102.796C160.807 104.49 159.851 106.186 159.257 107.886C156.267 116.516 153.497 125.656 152.387 134.946C151.094 145.766 151.101 156.59 152.407 167.416C140.854 171.643 128.827 173.73 116.327 173.676C114.054 174.783 112.307 176.34 111.087 178.346L108.097 175.766L108.827 174.026C115.167 168.386 114.407 154.866 114.147 146.996C113.777 135.846 110.857 124.626 107.547 114.366C105.507 108.046 100.967 102.576 93.9374 102.226L91.1475 102.126C91.9675 96.5063 94.6975 91.5962 99.3375 87.3962C101.877 85.1062 107.687 82.9263 111.617 81.2263C112.913 80.6616 114.138 79.9467 115.267 79.0963L128.687 68.9763ZM132.207 74.6163C132.043 74.5573 131.864 74.5559 131.7 74.6123C131.536 74.6688 131.398 74.7796 131.307 74.9263C127.501 81.1463 123.734 86.7763 120.007 91.8163C118.534 93.8096 118.191 95.5996 118.977 97.1863C121.844 102.94 123.761 108.996 124.727 115.356C126.254 125.33 128.134 139.273 130.367 157.186C130.554 158.7 131.174 160.323 132.227 162.056C132.288 162.156 132.376 162.235 132.482 162.285C132.587 162.335 132.704 162.354 132.819 162.338C132.933 162.321 133.04 162.272 133.125 162.195C133.21 162.118 133.27 162.018 133.297 161.906C133.847 159.756 134.557 156.816 134.817 154.446C136.364 140.133 137.631 129.37 138.617 122.156C139.877 112.836 141.367 104.726 145.397 97.0262C145.574 96.6913 145.659 96.3159 145.645 95.937C145.631 95.5581 145.518 95.189 145.317 94.8663L132.977 75.1963C132.853 75 132.677 74.841 132.467 74.7363C132.327 74.6697 132.241 74.6297 132.207 74.6163Z" fill="#B16B40"/>
<path d="M132.208 74.6164C132.241 74.6297 132.328 74.6697 132.468 74.7364C132.678 74.8411 132.854 75.0001 132.978 75.1963L145.318 94.8664C145.519 95.1891 145.631 95.5582 145.645 95.9371C145.66 96.3159 145.574 96.6914 145.398 97.0263C141.368 104.726 139.878 112.836 138.618 122.156C137.631 129.37 136.365 140.133 134.818 154.446C134.558 156.816 133.848 159.756 133.298 161.906C133.271 162.018 133.211 162.118 133.126 162.195C133.04 162.272 132.934 162.322 132.819 162.338C132.705 162.354 132.588 162.336 132.482 162.285C132.377 162.235 132.289 162.156 132.228 162.056C131.175 160.323 130.555 158.7 130.368 157.186C128.135 139.273 126.255 125.33 124.728 115.356C123.761 108.996 121.845 102.94 118.978 97.1863C118.191 95.5997 118.535 93.8097 120.008 91.8163C123.735 86.7763 127.501 81.1463 131.308 74.9263C131.398 74.7797 131.537 74.6688 131.701 74.6124C131.865 74.5559 132.044 74.5574 132.208 74.6164Z" fill="#F5E8D6"/>
<path d="M260.068 96.5463C260.694 101.92 260.934 107.303 260.788 112.696C260.358 128.726 250.198 131.716 235.528 134.176C222.288 136.396 209.754 136.573 197.928 134.706C194.468 134.16 186.441 132.613 173.848 130.066L175.538 112.056C175.824 109.163 177.391 107.67 180.238 107.576L179.018 98.3563C185.198 99.0363 190.551 99.3263 195.078 99.2263C206.971 98.953 218.841 98.2796 230.688 97.2063C236.308 96.6963 243.088 95.9663 248.448 93.3163C253.938 90.5863 254.268 84.4663 253.448 78.5763C256.368 84.2896 258.574 90.2796 260.068 96.5463Z" fill="#DAB79A"/>
<path d="M259.788 162.506C252.641 168.96 244.328 172.533 234.848 173.226C226.968 173.806 218.998 174.116 211.228 174.846C198.648 176.036 190.148 176.736 178.678 174.756L174.358 138.526L173.848 130.066C186.441 132.613 194.468 134.16 197.928 134.706C209.754 136.573 222.288 136.396 235.528 134.176C250.198 131.716 260.358 128.726 260.788 112.696C260.934 107.303 260.694 101.92 260.068 96.5463C261.614 101.406 262.601 105.81 263.028 109.756C264.778 125.886 265.328 137.146 263.488 150.356C262.914 154.476 261.681 158.526 259.788 162.506Z" fill="#D4AD89"/>
<path d="M173.798 103.156C168.398 102.876 164.905 104.993 163.318 109.506C162.138 112.876 162.588 116.266 166.598 116.966C172.248 117.946 172.498 114.816 175.538 112.056L173.848 130.066L174.358 138.526C174.065 138.04 173.758 137.676 173.438 137.436C173.391 137.399 173.335 137.376 173.276 137.368C173.217 137.36 173.157 137.368 173.101 137.391C173.046 137.414 172.997 137.452 172.959 137.5C172.922 137.549 172.897 137.606 172.888 137.666C172.288 142.136 171.898 146.466 170.258 150.836C169.191 153.71 168.158 155.836 167.158 157.216C163.531 162.256 159.855 167.526 156.128 173.026L152.408 167.416C151.101 156.59 151.095 145.766 152.388 134.946C153.498 125.656 156.268 116.516 159.258 107.886C159.851 106.186 160.808 104.49 162.128 102.796C162.223 102.673 162.348 102.576 162.491 102.513C162.635 102.451 162.791 102.424 162.948 102.436L173.798 103.156Z" fill="#925738"/>
<path d="M93.9377 102.226C95.8077 103.446 97.4276 102.796 98.8576 105.016C100.968 108.306 103.018 110.226 101.798 115.086C101.705 115.464 101.524 115.815 101.271 116.111C101.017 116.406 100.697 116.637 100.338 116.786C96.0843 118.58 92.7443 117.613 90.3177 113.886C90.2852 113.83 90.2341 113.786 90.173 113.763C90.1119 113.74 90.0447 113.739 89.9831 113.761C89.9214 113.782 89.8691 113.824 89.8353 113.88C89.8014 113.936 89.7881 114.002 89.7976 114.066L92.2077 142.866L88.3277 171.346L82.3777 203.676C82.0732 205.311 81.4879 206.877 80.6477 208.306C75.3743 217.28 70.9577 226.41 67.3977 235.696C66.6577 237.636 65.9744 240.443 65.3477 244.116C65.3232 244.269 65.2399 244.406 65.1151 244.499C64.9904 244.592 64.8336 244.634 64.6776 244.616C64.1243 244.55 63.5977 244.196 63.0977 243.556L62.8377 243.136L62.4077 241.796C59.2977 225.736 60.9077 211.636 70.5977 198.116C70.668 198.029 70.7042 197.92 70.6996 197.808C70.695 197.696 70.65 197.59 70.5728 197.509C70.4956 197.429 70.3916 197.379 70.2802 197.369C70.1689 197.359 70.0578 197.39 69.9677 197.456C65.2943 200.476 61.1677 204.126 57.5877 208.406C57.2077 208.866 56.8077 209.226 56.3877 209.486C56.3153 209.533 56.2309 209.558 56.1447 209.558C56.0585 209.559 55.9741 209.534 55.9014 209.488C55.8287 209.441 55.7709 209.375 55.7348 209.297C55.6987 209.219 55.6858 209.132 55.6977 209.046C56.1577 205.193 56.8277 201.36 57.7077 197.546C59.1277 191.386 62.2777 186.466 67.1377 179.536C70.331 174.983 72.811 170.386 74.5777 165.746C74.6053 165.675 74.6084 165.597 74.5865 165.525C74.5645 165.452 74.5188 165.388 74.4566 165.345C74.3944 165.301 74.3193 165.279 74.2434 165.283C74.1674 165.287 74.095 165.316 74.0377 165.366C68.991 169.506 63.211 171.296 56.6977 170.736C56.5824 170.727 56.4722 170.685 56.3803 170.615C56.2884 170.545 56.2187 170.45 56.1796 170.341C56.1405 170.232 56.1337 170.114 56.1599 170.002C56.1862 169.889 56.2445 169.787 56.3277 169.706L64.7976 161.416C70.4776 154.096 76.6277 144.506 78.9477 135.496C78.9686 135.415 78.9643 135.33 78.9353 135.251C78.9063 135.173 78.854 135.105 78.7855 135.057C78.7169 135.01 78.6354 134.984 78.5518 134.984C78.4682 134.983 78.3865 135.009 78.3177 135.056C74.771 137.463 70.661 138.896 65.9876 139.356C65.9277 139.364 65.8667 139.354 65.8127 139.327C65.7586 139.3 65.714 139.257 65.6848 139.204C65.6556 139.151 65.6432 139.09 65.649 139.03C65.6549 138.97 65.6788 138.913 65.7177 138.866L73.3177 129.346C77.8243 122.486 81.0777 115.03 83.0777 106.976L91.1477 102.126L93.9377 102.226ZM96.2677 108.526C96.2677 108.131 96.1107 107.752 95.8313 107.473C95.5518 107.193 95.1729 107.036 94.7777 107.036C94.3825 107.036 94.0035 107.193 93.7241 107.473C93.4447 107.752 93.2877 108.131 93.2877 108.526C93.2877 108.921 93.4447 109.3 93.7241 109.58C94.0035 109.859 94.3825 110.016 94.7777 110.016C95.1729 110.016 95.5518 109.859 95.8313 109.58C96.1107 109.3 96.2677 108.921 96.2677 108.526Z" fill="#3D261D"/>
<path d="M108.828 174.026C108.795 172.713 108.278 171.39 107.278 170.056C101.118 161.816 94.428 153.456 92.208 142.866L89.7979 114.066C89.7884 114.002 89.8017 113.936 89.8356 113.88C89.8694 113.824 89.9217 113.782 89.9833 113.761C90.045 113.739 90.1122 113.74 90.1733 113.763C90.2344 113.786 90.2855 113.83 90.3179 113.886C92.7446 117.613 96.0846 118.58 100.338 116.786C100.698 116.637 101.017 116.406 101.271 116.111C101.525 115.815 101.705 115.464 101.798 115.086C103.018 110.226 100.968 108.306 98.8579 105.016C97.4279 102.796 95.8079 103.446 93.9379 102.226C100.968 102.576 105.508 108.046 107.548 114.366C110.858 124.626 113.778 135.846 114.148 146.996C114.408 154.866 115.168 168.386 108.828 174.026Z" fill="#925738"/>
<path d="M173.798 103.156L175.688 103.976C177.075 104.53 178.591 105.73 180.238 107.576C177.391 107.67 175.825 109.163 175.538 112.056C172.498 114.816 172.248 117.946 166.598 116.966C162.588 116.266 162.138 112.876 163.318 109.506C164.905 104.993 168.398 102.876 173.798 103.156ZM171.638 108.036C171.638 107.585 171.459 107.153 171.14 106.834C170.821 106.515 170.389 106.336 169.938 106.336C169.487 106.336 169.055 106.515 168.736 106.834C168.417 107.153 168.238 107.585 168.238 108.036C168.238 108.487 168.417 108.92 168.736 109.238C169.055 109.557 169.487 109.736 169.938 109.736C170.389 109.736 170.821 109.557 171.14 109.238C171.459 108.92 171.638 108.487 171.638 108.036Z" fill="#301A15"/>
<path d="M169.938 109.736C170.877 109.736 171.638 108.975 171.638 108.036C171.638 107.097 170.877 106.336 169.938 106.336C168.999 106.336 168.238 107.097 168.238 108.036C168.238 108.975 168.999 109.736 169.938 109.736Z" fill="#F5EDE2"/>
<path d="M94.7781 110.016C95.601 110.016 96.2681 109.349 96.2681 108.526C96.2681 107.703 95.601 107.036 94.7781 107.036C93.9552 107.036 93.2881 107.703 93.2881 108.526C93.2881 109.349 93.9552 110.016 94.7781 110.016Z" fill="#DCD5C9"/>
<path d="M174.358 138.526L178.678 174.756L182.768 201.906C182.939 203.051 183.37 204.139 184.028 205.086C191.768 216.24 197.318 228.7 200.678 242.466L200.928 243.306C200.915 244.233 200.528 244.91 199.768 245.336C177.908 257.736 152.398 264.456 126.978 263.136C126.585 263.003 126.338 262.853 126.238 262.686C126.005 262.313 126.191 262.17 126.798 262.256C127.451 262.35 127.898 261.996 128.138 261.196C128.183 261.06 128.18 260.915 128.128 260.786C126.948 257.64 124.478 252.776 120.718 246.196C118.985 243.17 116.561 238.44 113.448 232.006C107.435 219.593 101.985 207.523 97.0981 195.796C93.7081 187.656 91.2581 179.826 89.5281 171.406C89.5057 171.295 89.4598 171.19 89.3935 171.097C89.3272 171.005 89.2421 170.928 89.1437 170.871C89.0453 170.815 88.9359 170.779 88.8229 170.768C88.7098 170.757 88.5957 170.77 88.4881 170.806C88.4548 170.813 88.4015 170.993 88.3281 171.346L92.2081 142.866C94.4281 153.456 101.118 161.816 107.278 170.056C108.278 171.39 108.795 172.713 108.828 174.026L108.098 175.766C105.991 180.54 105.505 185.263 106.638 189.936C108.438 197.39 111.451 203.69 115.678 208.836C118.738 211.503 122.011 213.066 125.498 213.526C131.138 214.276 136.838 214.216 141.758 213.316C144.471 212.816 146.875 211.603 148.968 209.676C149.013 209.634 149.048 209.583 149.071 209.525C149.093 209.468 149.102 209.406 149.098 209.344C149.093 209.283 149.074 209.223 149.043 209.17C149.012 209.116 148.969 209.071 148.918 209.036C148.751 208.923 148.431 208.913 147.958 209.006C150.685 207.106 152.325 205.413 152.878 203.926C155.568 196.666 159.248 190.346 158.998 181.976L156.128 173.026C159.855 167.526 163.531 162.256 167.158 157.216C168.158 155.836 169.191 153.71 170.258 150.836C171.898 146.466 172.288 142.136 172.888 137.666C172.897 137.606 172.922 137.549 172.959 137.501C172.997 137.452 173.046 137.415 173.102 137.391C173.157 137.368 173.218 137.36 173.277 137.368C173.336 137.376 173.391 137.399 173.438 137.436C173.758 137.676 174.065 138.04 174.358 138.526ZM120.168 214.496C127.208 218.346 138.738 219.316 145.938 214.216C146.021 214.158 146.08 214.072 146.104 213.973C146.128 213.875 146.116 213.771 146.07 213.681C146.024 213.591 145.946 213.521 145.852 213.483C145.758 213.445 145.654 213.443 145.558 213.476C137.151 216.35 128.758 216.523 120.378 213.996C120.345 213.983 120.31 213.975 120.274 213.975C120.239 213.975 120.204 213.982 120.171 213.995C120.138 214.009 120.108 214.029 120.082 214.054C120.057 214.079 120.037 214.108 120.023 214.141C120.009 214.174 120.002 214.209 120.002 214.245C120.002 214.281 120.009 214.316 120.022 214.349C120.036 214.382 120.055 214.412 120.08 214.437C120.105 214.462 120.135 214.483 120.168 214.496Z" fill="#693623"/>
<path d="M64.7974 161.416L56.3275 169.706C56.2442 169.787 56.186 169.889 56.1597 170.002C56.1335 170.114 56.1403 170.232 56.1794 170.341C56.2185 170.45 56.2882 170.545 56.3801 170.615C56.472 170.685 56.5822 170.727 56.6974 170.736C63.2108 171.296 68.9908 169.506 74.0375 165.366C74.0948 165.316 74.1672 165.287 74.2432 165.283C74.3191 165.279 74.3942 165.301 74.4564 165.345C74.5185 165.388 74.5643 165.452 74.5862 165.525C74.6082 165.597 74.6051 165.675 74.5775 165.746C72.8108 170.386 70.3308 174.983 67.1375 179.536C62.2775 186.466 59.1275 191.386 57.7075 197.546C56.8275 201.36 56.1574 205.193 55.6974 209.046C55.6856 209.132 55.6984 209.219 55.7346 209.297C55.7707 209.375 55.8285 209.441 55.9012 209.488C55.9739 209.534 56.0583 209.559 56.1445 209.558C56.2307 209.558 56.3151 209.533 56.3875 209.486C56.8075 209.226 57.2075 208.866 57.5875 208.406C61.1675 204.126 65.2941 200.476 69.9675 197.456C70.0576 197.39 70.1687 197.359 70.28 197.369C70.3914 197.379 70.4954 197.429 70.5726 197.509C70.6498 197.59 70.6948 197.696 70.6994 197.808C70.704 197.92 70.6678 198.029 70.5975 198.116C60.9075 211.636 59.2975 225.736 62.4075 241.796L58.7974 241.146C40.2308 228.946 25.7041 213.176 15.2175 193.836C7.12747 178.016 1.47742 159.156 0.357422 141.406C7.06409 143.966 14.0641 145.33 21.3574 145.496C34.2908 145.796 42.7774 146.023 46.8174 146.176C52.6908 146.403 60.2908 147.566 69.6174 149.666C69.6805 149.681 69.7392 149.71 69.7887 149.752C69.8382 149.793 69.8768 149.846 69.9014 149.905C69.926 149.964 69.9358 150.027 69.9299 150.09C69.9239 150.153 69.9025 150.214 69.8674 150.266C67.2674 154.226 64.4674 157.126 64.7974 161.416Z" fill="#CEA78B"/>
<path d="M262.666 158.426C262.752 158.038 262.783 157.715 262.735 157.704C262.686 157.693 262.577 157.999 262.49 158.387C262.403 158.775 262.372 159.098 262.421 159.109C262.469 159.12 262.579 158.814 262.666 158.426Z" fill="#ABA8A5"/>
<path d="M259.788 162.506C258.748 167.633 257.541 172.633 256.168 177.506C256.165 177.517 256.164 177.529 256.164 177.542C256.165 177.554 256.167 177.567 256.17 177.58C256.174 177.592 256.179 177.604 256.185 177.615C256.192 177.626 256.199 177.635 256.207 177.642C256.215 177.65 256.223 177.655 256.231 177.657C256.24 177.66 256.248 177.66 256.255 177.658C256.263 177.655 256.27 177.65 256.275 177.643C256.281 177.636 256.285 177.627 256.288 177.616C256.301 177.57 256.321 177.54 256.348 177.526C256.36 177.521 256.373 177.503 256.386 177.474C256.398 177.445 256.41 177.407 256.418 177.366C257.358 173.62 258.748 169.53 260.588 165.096C254.548 187.27 244.298 205.956 229.838 221.156C225.764 225.443 220.118 230.366 212.898 235.926C209.064 238.613 204.991 240.793 200.678 242.466C197.318 228.7 191.768 216.24 184.028 205.086C183.37 204.139 182.939 203.051 182.768 201.906L178.678 174.756C190.148 176.736 198.648 176.036 211.228 174.846C218.998 174.116 226.968 173.806 234.848 173.226C244.328 172.533 252.641 168.96 259.788 162.506Z" fill="#CEA78B"/>
<path d="M156.128 173.026L158.998 181.976C157.911 182.536 156.848 182.72 155.808 182.526C154.981 178.666 152.795 175.69 149.248 173.596C149.13 173.529 148.995 173.499 148.86 173.51C148.725 173.521 148.596 173.572 148.491 173.658C148.386 173.744 148.31 173.859 148.272 173.989C148.233 174.119 148.236 174.258 148.278 174.386L148.938 176.326C138.685 180.72 127.848 182.356 116.428 181.236C115.815 180.783 115.331 180.176 114.978 179.416C114.91 179.278 114.879 179.125 114.886 178.971C114.893 178.817 114.938 178.668 115.018 178.536C116.111 176.723 116.548 175.103 116.328 173.676C128.828 173.73 140.855 171.643 152.408 167.416L156.128 173.026Z" fill="#966841"/>
<path d="M126.977 263.136C113.037 262.746 99.1074 259.516 85.8574 255.306C77.8708 252.773 70.3074 249.313 63.1674 244.926C63.025 244.841 62.9183 244.707 62.8669 244.549C62.8155 244.391 62.8228 244.219 62.8875 244.066L63.0975 243.556C63.5975 244.196 64.1241 244.55 64.6774 244.616C64.8334 244.634 64.9902 244.592 65.1149 244.499C65.2397 244.406 65.323 244.269 65.3475 244.116C65.9742 240.443 66.6575 237.636 67.3975 235.696C70.9575 226.41 75.3741 217.28 80.6475 208.306C81.4877 206.877 82.0731 205.311 82.3775 203.676L88.3275 171.346C88.4008 170.993 88.4541 170.813 88.4874 170.806C88.5951 170.77 88.7092 170.757 88.8222 170.768C88.9353 170.779 89.0446 170.815 89.143 170.871C89.2414 170.928 89.3265 171.005 89.3928 171.097C89.4591 171.19 89.505 171.295 89.5275 171.406C91.2575 179.826 93.7075 187.656 97.0975 195.796C101.984 207.523 107.434 219.593 113.447 232.006C116.561 238.44 118.984 243.17 120.717 246.196C124.477 252.776 126.947 257.64 128.127 260.786C128.179 260.915 128.183 261.06 128.137 261.196C127.897 261.996 127.451 262.35 126.797 262.256C126.191 262.17 126.004 262.313 126.237 262.686C126.337 262.853 126.584 263.003 126.977 263.136Z" fill="#824D37"/>
<path d="M155.807 182.526C155.661 186.74 154.267 190.466 151.627 193.706C149.247 196.616 144.907 197.136 144.227 192.356C143.557 187.666 146.487 183.456 149.737 179.696C149.95 179.446 150.06 179.125 150.047 178.796C150.001 177.923 149.631 177.1 148.937 176.326L148.277 174.386C148.235 174.258 148.233 174.119 148.271 173.989C148.309 173.859 148.386 173.744 148.491 173.658C148.596 173.572 148.724 173.521 148.859 173.51C148.994 173.499 149.13 173.529 149.247 173.596C152.794 175.69 154.981 178.666 155.807 182.526Z" fill="#301A15"/>
<path d="M116.328 173.676C116.548 175.103 116.111 176.723 115.018 178.536C114.938 178.668 114.893 178.817 114.886 178.971C114.879 179.125 114.91 179.278 114.978 179.416C115.331 180.176 115.814 180.783 116.428 181.236C119.421 184.21 120.911 187.573 120.898 191.326C120.878 196.376 115.298 196.916 112.958 193.126C110.178 188.646 108.318 183.066 111.088 178.346C112.308 176.34 114.054 174.783 116.328 173.676Z" fill="#3D261D"/>
<path d="M111.088 178.346C108.318 183.066 110.178 188.646 112.958 193.126C115.298 196.916 120.878 196.376 120.898 191.326C120.911 187.573 119.421 184.21 116.428 181.236C127.848 182.356 138.684 180.72 148.938 176.326C149.631 177.1 150.001 177.923 150.048 178.796C150.061 179.125 149.95 179.446 149.738 179.696C146.488 183.456 143.558 187.666 144.228 192.356C144.908 197.136 149.248 196.616 151.628 193.706C154.268 190.466 155.661 186.74 155.808 182.526C156.848 182.72 157.911 182.536 158.998 181.976C159.248 190.346 155.568 196.666 152.878 203.926C152.324 205.413 150.684 207.106 147.958 209.006C146.251 210.02 144.228 210.75 141.888 211.196C133.254 212.856 124.518 212.07 115.678 208.836C111.451 203.69 108.438 197.39 106.638 189.936C105.504 185.263 105.991 180.54 108.098 175.766L111.088 178.346Z" fill="#6E5242"/>
<path d="M115.678 208.836C124.518 212.07 133.254 212.856 141.888 211.196C144.228 210.75 146.251 210.02 147.958 209.006C148.431 208.913 148.751 208.923 148.918 209.036C148.969 209.071 149.012 209.116 149.043 209.17C149.074 209.223 149.092 209.283 149.097 209.344C149.102 209.406 149.093 209.468 149.07 209.525C149.048 209.583 149.013 209.634 148.968 209.676C146.874 211.603 144.471 212.816 141.758 213.316C136.838 214.216 131.138 214.276 125.498 213.526C122.011 213.066 118.738 211.503 115.678 208.836Z" fill="#301A15"/>
<path d="M120.168 214.496C120.135 214.483 120.106 214.462 120.08 214.437C120.055 214.412 120.036 214.382 120.022 214.349C120.009 214.316 120.002 214.281 120.002 214.245C120.002 214.209 120.009 214.174 120.023 214.141C120.037 214.108 120.057 214.079 120.082 214.054C120.108 214.029 120.138 214.009 120.171 213.995C120.204 213.982 120.239 213.975 120.274 213.975C120.31 213.975 120.345 213.983 120.378 213.996C128.758 216.523 137.151 216.35 145.558 213.476C145.654 213.443 145.758 213.445 145.852 213.483C145.946 213.521 146.024 213.591 146.07 213.681C146.116 213.771 146.128 213.875 146.104 213.973C146.08 214.072 146.021 214.158 145.938 214.216C138.738 219.316 127.208 218.346 120.168 214.496Z" fill="#3D261D"/>
<path d="M212.898 235.926C209.278 239.646 205.288 242.106 200.928 243.306L200.678 242.466C204.991 240.793 209.064 238.613 212.898 235.926Z" fill="#BA9A85"/>
<path d="M62.4079 241.796L62.8379 243.136C61.3579 242.883 60.0112 242.22 58.7979 241.146L62.4079 241.796Z" fill="#BA9A85"/>
</svg>
