<svg width="273" height="282" viewBox="0 0 273 282" fill="none" xmlns="http://www.w3.org/2000/svg">
<path d="M263.095 94.4935L264.435 100.644C263.288 98.5102 261.988 96.7735 260.535 95.4335C260.084 95.0195 259.516 94.7544 258.908 94.6739C258.3 94.5934 257.681 94.7015 257.135 94.9835C255.675 95.7435 254.305 96.7335 253.025 97.9535C243.715 106.814 237.595 116.734 231.505 127.814C231.472 127.707 231.418 127.627 231.345 127.574C230.805 118.914 225.365 108.804 220.475 100.934C220.446 100.885 220.433 100.829 220.438 100.773C220.442 100.717 220.464 100.664 220.501 100.621C220.537 100.578 220.586 100.547 220.641 100.533C220.695 100.519 220.753 100.523 220.805 100.544L235.505 106.534C235.584 106.564 235.67 106.57 235.753 106.552C235.835 106.534 235.91 106.492 235.969 106.431C236.028 106.37 236.067 106.293 236.082 106.21C236.098 106.127 236.088 106.041 236.055 105.963C232.768 98.5768 228.112 88.0069 222.085 74.2535C220.192 69.9402 217.582 66.3935 214.255 63.6135C212.915 62.5002 210.108 60.4135 205.835 57.3535C207.635 56.6468 208.355 55.7369 207.995 54.6235C206.595 50.2835 199.845 47.9335 194.165 45.5135C187.898 42.8469 181.945 40.1769 176.305 37.5035C175.452 36.2369 173.738 36.3169 171.165 37.7435C172.998 34.8835 175.215 32.3202 177.815 30.0535C178.262 29.6669 178.478 29.2535 178.465 28.8135C178.464 28.7381 178.447 28.6637 178.416 28.5951C178.384 28.5265 178.338 28.4653 178.28 28.4153C178.223 28.3654 178.155 28.3279 178.082 28.3052C178.009 28.2825 177.931 28.2751 177.855 28.2835C165.375 29.6135 154.395 30.6335 144.155 36.1635C141.842 37.4102 139.455 38.7935 136.995 40.3135C136.854 40.3971 136.693 40.4395 136.531 40.436C136.368 40.4324 136.21 40.383 136.075 40.2935L134.095 38.9335C123.055 30.2835 108.945 29.7835 95.6151 28.0035C95.5561 27.9965 95.4963 28.0014 95.4395 28.0181C95.3827 28.0348 95.3301 28.0628 95.285 28.1004C95.2399 28.138 95.2033 28.1843 95.1775 28.2365C95.1517 28.2887 95.1372 28.3455 95.1351 28.4035C95.1151 28.7035 95.1717 28.9269 95.3051 29.0735C97.3784 31.3869 99.3751 33.8235 101.295 36.3835C101.342 36.447 101.372 36.5209 101.383 36.5989C101.395 36.6768 101.387 36.7564 101.36 36.8305C101.333 36.9046 101.289 36.971 101.23 37.0239C101.172 37.0767 101.101 37.1144 101.025 37.1335C99.4517 37.5202 97.7451 38.1002 95.9051 38.8735C88.5117 41.9869 81.4151 45.1402 74.6151 48.3335C70.5084 50.2669 67.5484 52.2135 65.7351 54.1735C65.647 54.2613 65.594 54.3781 65.5861 54.5022C65.5782 54.6262 65.6158 54.7489 65.692 54.8472C65.7681 54.9454 65.8775 55.0125 65.9996 55.0358C66.1217 55.059 66.2481 55.0369 66.3551 54.9735C67.0417 54.6002 67.8151 54.5335 68.6751 54.7735C68.7877 54.806 68.8873 54.8743 68.9587 54.9679C69.0301 55.0616 69.0694 55.1754 69.0705 55.292C69.0716 55.4087 69.0346 55.5218 68.965 55.6141C68.8954 55.7065 68.7971 55.773 68.6851 55.8035L65.3551 56.7535C64.6551 56.7402 64.0784 56.9402 63.6251 57.3535C63.5516 57.4207 63.499 57.5077 63.4735 57.6039C63.448 57.7002 63.4507 57.8018 63.4812 57.8966C63.5117 57.9914 63.5689 58.0755 63.6458 58.1387C63.7227 58.202 63.8162 58.2418 63.9151 58.2535C64.9751 58.3735 65.8951 57.9468 66.6751 56.9735C67.1151 56.9868 67.7017 56.7902 68.4351 56.3835C69.1484 55.9835 69.5851 56.2935 69.7451 57.3135C61.6651 59.8735 55.8951 65.1602 52.4351 73.1735C50.3817 77.9402 45.6251 88.6268 38.1651 105.234C31.2951 99.3635 23.4751 95.0635 16.2651 103.343C11.8551 108.403 8.85507 115.194 6.29507 121.354L8.27507 102.384C9.41507 96.4235 11.1917 90.8635 13.6051 85.7035C11.3117 91.6769 9.49175 97.8169 8.14508 104.124C8.13818 104.161 8.14464 104.199 8.16318 104.23C8.18172 104.262 8.21097 104.284 8.24507 104.294L8.52507 104.364C8.6112 104.386 8.70255 104.374 8.78056 104.332C8.85858 104.289 8.91739 104.218 8.94507 104.134C11.2351 97.2735 13.0651 90.6435 15.8051 83.5935C17.5384 79.1335 18.6051 76.2835 19.0051 75.0435C16.1717 78.7835 14.4117 81.3668 13.7251 82.7935C7.70507 95.3068 3.98841 108.474 2.57507 122.294C2.57472 122.306 2.57183 122.318 2.56662 122.328C2.56141 122.338 2.55404 122.347 2.54507 122.354C2.53174 122.36 2.52174 122.367 2.51508 122.374C2.50933 122.377 2.50283 122.379 2.49617 122.379C2.48951 122.379 2.48289 122.378 2.47693 122.375C2.47097 122.372 2.46585 122.367 2.46204 122.362C2.45822 122.356 2.45583 122.35 2.45508 122.343C3.13508 111.903 5.95507 101.294 8.85507 91.2835C12.3751 84.0635 15.6051 75.6235 19.2551 69.5135C22.4017 64.2469 26.1017 59.2968 30.3551 54.6635C33.3951 51.3502 34.9217 49.6868 34.9351 49.6735C43.2451 40.2335 51.3751 31.8535 61.3051 24.8235C81.0917 10.8102 102.732 2.71684 126.225 0.543509C146.255 -1.31649 164.565 1.6535 183.055 8.5935C184.148 9.00016 188.902 11.2035 197.315 15.2035C201.935 17.3969 206.438 20.0735 210.825 23.2335C220.325 30.0735 227.512 35.9935 232.385 40.9935C246.598 55.5802 256.835 73.4135 263.095 94.4935Z" fill="#E9C285"/>
<path d="M134.094 38.9335L136.884 48.0535L136.335 82.5035L127.744 77.4535C128.064 77.3135 128.274 77.0934 128.374 76.7934C128.419 76.6457 128.405 76.4847 128.334 76.3434C121.674 63.4434 113.618 51.3968 104.164 40.2035C103.464 39.3768 102.484 38.5835 101.224 37.8235C101.052 37.7183 100.85 37.6728 100.649 37.6939C100.448 37.715 100.26 37.8017 100.113 37.9404C99.9665 38.0792 99.8695 38.2624 99.8372 38.4617C99.8049 38.6611 99.8391 38.8655 99.9345 39.0434C101.388 41.7901 102.278 43.4368 102.604 43.9834C108.898 54.5501 115.558 64.9834 122.584 75.2834L116.254 75.2134C105.701 67.1068 93.9478 61.2768 80.9945 57.7234C78.8345 56.5534 70.2045 52.9635 69.7445 57.3135C69.5845 56.2935 69.1478 55.9835 68.4345 56.3835C67.7012 56.7901 67.1145 56.9868 66.6745 56.9734C66.3478 56.7468 65.9078 56.6735 65.3545 56.7535L68.6845 55.8035C68.7965 55.7729 68.8948 55.7064 68.9644 55.6141C69.034 55.5217 69.0711 55.4086 69.0699 55.292C69.0688 55.1753 69.0296 55.0615 68.9582 54.9679C68.8868 54.8743 68.7872 54.806 68.6745 54.7734C67.8145 54.5334 67.0412 54.6001 66.3545 54.9734C66.2476 55.0368 66.1211 55.059 65.999 55.0357C65.8769 55.0124 65.7675 54.9454 65.6914 54.8471C65.6152 54.7488 65.5776 54.6262 65.5855 54.5021C65.5935 54.3781 65.6464 54.2612 65.7345 54.1735C67.5478 52.2135 70.5078 50.2668 74.6145 48.3335C81.4145 45.1402 88.5112 41.9868 95.9045 38.8735C97.7445 38.1001 99.4512 37.5201 101.024 37.1335C101.101 37.1143 101.171 37.0766 101.23 37.0238C101.288 36.9709 101.333 36.9045 101.359 36.8304C101.386 36.7563 101.394 36.6768 101.383 36.5988C101.372 36.5209 101.341 36.4469 101.294 36.3835C99.3745 33.8235 97.3778 31.3868 95.3045 29.0735C95.1712 28.9268 95.1145 28.7034 95.1345 28.4034C95.1366 28.3454 95.1511 28.2886 95.1769 28.2364C95.2027 28.1843 95.2393 28.1379 95.2844 28.1003C95.3295 28.0628 95.3821 28.0347 95.4389 28.0181C95.4957 28.0014 95.5555 27.9964 95.6145 28.0035C108.944 29.7835 123.054 30.2835 134.094 38.9335Z" fill="#BC6D32"/>
<path d="M171.165 37.7434L149.465 67.3434C149.425 67.401 149.369 67.4461 149.305 67.4734C149.24 67.5007 149.169 67.509 149.1 67.4975C149.031 67.486 148.966 67.455 148.914 67.4083C148.862 67.3615 148.824 67.3009 148.805 67.2334C148.345 65.7634 147.555 63.5634 147.105 62.7534C143.591 56.5534 140.471 50.6667 137.745 45.0934C137.716 45.0345 137.671 44.9852 137.615 44.9514C137.559 44.9176 137.494 44.9007 137.428 44.9028C137.363 44.9049 137.299 44.9259 137.245 44.9633C137.192 45.0006 137.15 45.0528 137.125 45.1134C136.798 45.9401 136.718 46.9201 136.885 48.0534L134.095 38.9334L136.075 40.2934C136.21 40.3829 136.368 40.4323 136.53 40.4359C136.693 40.4394 136.854 40.397 136.995 40.3134C139.455 38.7934 141.841 37.4101 144.155 36.1634C154.395 30.6334 165.375 29.6134 177.855 28.2834C177.931 28.275 178.008 28.2824 178.082 28.3051C178.155 28.3278 178.222 28.3653 178.28 28.4152C178.337 28.4652 178.383 28.5264 178.415 28.595C178.447 28.6636 178.464 28.738 178.465 28.8134C178.478 29.2534 178.261 29.6668 177.815 30.0534C175.215 32.3201 172.998 34.8834 171.165 37.7434Z" fill="#A55728"/>
<path d="M176.305 37.5035C169.892 47.2902 163.375 57.0402 156.755 66.7535C155.462 68.6535 153.965 71.3135 152.265 74.7335C149.978 75.1268 147.958 75.9435 146.205 77.1835C143.145 79.3502 140.038 81.4235 136.885 83.4035L136.335 82.5035L136.885 48.0535C136.718 46.9201 136.798 45.9401 137.125 45.1135C137.15 45.0529 137.192 45.0007 137.246 44.9633C137.299 44.926 137.363 44.905 137.428 44.9028C137.494 44.9007 137.559 44.9176 137.615 44.9514C137.671 44.9852 137.716 45.0346 137.745 45.0935C140.472 50.6668 143.592 56.5535 147.105 62.7535C147.555 63.5635 148.345 65.7635 148.805 67.2335C148.824 67.3009 148.862 67.3616 148.914 67.4083C148.966 67.4551 149.031 67.486 149.1 67.4976C149.169 67.5091 149.24 67.5007 149.305 67.4735C149.369 67.4462 149.425 67.4011 149.465 67.3435L171.165 37.7435C173.738 36.3168 175.452 36.2368 176.305 37.5035Z" fill="#894020"/>
<path d="M205.835 57.3535C203.235 54.6268 200.485 53.9502 197.585 55.3235C190.905 58.4835 184.215 61.6235 177.515 64.7435C170.081 68.1968 163.801 71.7101 158.675 75.2834L152.265 74.7335C153.965 71.3135 155.461 68.6535 156.755 66.7535C163.375 57.0401 169.891 47.2901 176.305 37.5035C181.945 40.1768 187.898 42.8468 194.165 45.5135C199.845 47.9335 206.595 50.2835 207.995 54.6235C208.355 55.7368 207.635 56.6468 205.835 57.3535Z" fill="#A55728"/>
<path d="M127.744 77.4535L122.584 75.2834C115.558 64.9834 108.898 54.5501 102.604 43.9834C102.278 43.4368 101.388 41.7901 99.9343 39.0434C99.8389 38.8655 99.8047 38.6611 99.837 38.4617C99.8693 38.2624 99.9663 38.0792 100.113 37.9404C100.26 37.8017 100.448 37.715 100.649 37.6939C100.85 37.6728 101.052 37.7183 101.224 37.8235C102.484 38.5835 103.464 39.3768 104.164 40.2035C113.618 51.3968 121.674 63.4434 128.334 76.3434C128.405 76.4847 128.419 76.6457 128.374 76.7934C128.274 77.0934 128.064 77.3135 127.744 77.4535Z" fill="#894020"/>
<path d="M205.835 57.3535C210.108 60.4135 212.915 62.5002 214.255 63.6135C217.581 66.3935 220.191 69.9402 222.085 74.2535C228.111 88.0068 232.768 98.5768 236.055 105.963C236.088 106.041 236.097 106.127 236.082 106.21C236.067 106.293 236.027 106.37 235.969 106.431C235.91 106.492 235.835 106.534 235.752 106.552C235.67 106.57 235.584 106.564 235.505 106.533L220.805 100.543C220.752 100.523 220.695 100.519 220.64 100.533C220.586 100.547 220.537 100.578 220.5 100.621C220.464 100.664 220.442 100.717 220.437 100.773C220.433 100.829 220.446 100.885 220.475 100.933C225.365 108.803 230.805 118.914 231.345 127.574C231.065 127.72 230.811 127.79 230.585 127.783C230.378 127.783 230.165 127.65 229.945 127.384C228.925 126.157 227.785 125.057 226.525 124.084C220.858 119.697 215.251 115.39 209.705 111.163C208.505 110.25 206.731 108.617 204.385 106.264L199.205 100.403C202.645 96.6635 205.171 92.5268 206.785 87.9935C208.675 82.6835 209.045 74.5135 204.685 70.1835C194.545 60.1135 180.715 66.8335 171.145 74.0035C171.086 74.048 171.038 74.1054 171.005 74.1713C170.972 74.2371 170.955 74.3095 170.955 74.3826C170.955 74.4556 170.972 74.5273 171.005 74.5917C171.038 74.6561 171.086 74.7116 171.145 74.7535L174.035 76.8335L169.395 82.9135C166.935 78.9935 163.361 76.4501 158.675 75.2835C163.801 71.7101 170.081 68.1968 177.515 64.7435C184.215 61.6235 190.905 58.4835 197.585 55.3235C200.485 53.9502 203.235 54.6268 205.835 57.3535Z" fill="#693623"/>
<path d="M80.9948 57.7234L83.5048 64.9734C75.2448 64.4934 66.6548 70.4334 66.1848 79.0534C65.7548 87.0434 69.8148 94.2635 75.0348 100.323L54.4848 120.003C53.5515 120.583 52.5948 121.17 51.6148 121.763C50.8615 122.223 49.9548 122.883 48.8948 123.743C46.7748 125.47 44.5315 126.703 42.1648 127.443C44.8515 117.963 48.8148 109.067 54.0548 100.753C54.0823 100.712 54.0958 100.664 54.0933 100.614C54.0909 100.565 54.0726 100.518 54.0412 100.479C54.0097 100.441 53.9669 100.414 53.9189 100.402C53.8709 100.39 53.8204 100.394 53.7748 100.413C49.1215 102.307 44.2282 104.317 39.0948 106.443C38.9694 106.496 38.834 106.521 38.6985 106.517C38.563 106.513 38.4307 106.479 38.3111 106.419C38.1915 106.359 38.0877 106.273 38.0071 106.168C37.9265 106.064 37.871 105.942 37.8448 105.813C37.8115 105.647 37.9181 105.453 38.1648 105.233C45.6248 88.6268 50.3815 77.9401 52.4348 73.1734C55.8948 65.1601 61.6648 59.8735 69.7448 57.3135C70.2048 52.9635 78.8348 56.5534 80.9948 57.7234Z" fill="#894020"/>
<path d="M65.355 56.7535C65.9083 56.6735 66.3483 56.7468 66.675 56.9734C65.895 57.9468 64.975 58.3735 63.915 58.2535C63.8161 58.2418 63.7226 58.2019 63.6457 58.1387C63.5688 58.0754 63.5117 57.9913 63.4811 57.8965C63.4506 57.8017 63.4479 57.7002 63.4734 57.6039C63.4989 57.5076 63.5515 57.4207 63.625 57.3535C64.0783 56.9401 64.655 56.7401 65.355 56.7535Z" fill="#925738"/>
<path d="M116.254 75.2134C111.214 77.1668 107.191 80.2335 104.184 84.4135C100.271 89.8668 95.3077 96.0835 89.2944 103.063L85.6044 107.483C81.6977 107.35 78.0277 108.287 74.5944 110.293C67.9244 114.183 62.5744 117.873 54.4844 120.003L75.0344 100.323L77.0244 97.8535C79.751 95.1335 82.4744 92.3235 85.1944 89.4235C87.781 86.6635 92.361 82.5534 98.9344 77.0934L102.154 74.5934C102.199 74.5592 102.236 74.5149 102.26 74.4641C102.285 74.4133 102.297 74.3574 102.296 74.301C102.295 74.2445 102.281 74.189 102.255 74.1391C102.228 74.0892 102.19 74.0461 102.144 74.0135C96.4777 69.9868 90.2644 66.9734 83.5044 64.9734L80.9944 57.7234C93.9477 61.2768 105.701 67.1068 116.254 75.2134Z" fill="#A55728"/>
<path d="M83.5046 64.9735C90.2646 66.9735 96.4779 69.9868 102.145 74.0135C102.191 74.0462 102.228 74.0892 102.255 74.1391C102.281 74.1891 102.295 74.2445 102.296 74.301C102.297 74.3574 102.285 74.4133 102.26 74.4641C102.236 74.5149 102.199 74.5592 102.155 74.5935L98.9346 77.0935C93.1146 73.6201 86.9979 71.7101 80.5846 71.3635C80.3522 71.3502 80.117 71.367 79.8846 71.4135C76.0712 72.2135 73.7546 74.1435 72.9346 77.2035C71.7746 81.5035 71.9546 86.0701 73.4746 90.9035C73.4878 90.9366 73.5046 90.9736 73.5246 91.0135L77.0246 97.8535L75.0346 100.324C69.8146 94.2635 65.7546 87.0435 66.1846 79.0535C66.6546 70.4335 75.2446 64.4935 83.5046 64.9735Z" fill="#E2A35E"/>
<path d="M199.205 100.403C198.532 100.19 197.835 99.4102 197.115 98.0635C200.215 93.8968 201.855 89.2268 202.035 84.0535C202.185 79.9335 200.425 74.8235 196.525 72.8335C194.898 72.0069 193.745 71.5935 193.065 71.5935C187.232 71.5868 181.172 73.5135 174.885 77.3735C174.985 77.1202 174.702 76.9402 174.035 76.8335L171.145 74.7535C171.086 74.7116 171.038 74.6561 171.005 74.5917C170.972 74.5273 170.955 74.4556 170.955 74.3826C170.955 74.3095 170.972 74.2371 171.005 74.1713C171.038 74.1054 171.086 74.048 171.145 74.0035C180.715 66.8335 194.545 60.1135 204.685 70.1835C209.045 74.5135 208.675 82.6835 206.785 87.9935C205.172 92.5268 202.645 96.6635 199.205 100.403Z" fill="#D59659"/>
<path d="M98.9348 77.0934C92.3614 82.5534 87.7814 86.6635 85.1948 89.4235C82.4748 92.3235 79.7514 95.1334 77.0248 97.8534L73.5248 91.0135C73.5048 90.9736 73.488 90.9366 73.4748 90.9034C71.9548 86.0701 71.7748 81.5035 72.9348 77.2035C73.7548 74.1435 76.0714 72.2134 79.8848 71.4134C80.1172 71.367 80.3524 71.3502 80.5848 71.3635C86.9981 71.7101 93.1148 73.6201 98.9348 77.0934Z" fill="#CD7839"/>
<path d="M197.115 98.0635C191.368 91.3635 186.468 86.4968 182.415 83.4635C179.861 81.5568 177.351 79.5268 174.885 77.3735C181.171 73.5135 187.231 71.5868 193.065 71.5935C193.745 71.5935 194.898 72.0068 196.525 72.8335C200.425 74.8235 202.185 79.9335 202.035 84.0535C201.855 89.2268 200.215 93.8968 197.115 98.0635Z" fill="#A55728"/>
<path d="M13.6043 85.7035L19.0043 75.0435C18.6043 76.2835 17.5376 79.1334 15.8043 83.5934C13.0643 90.6434 11.2343 97.2735 8.94429 104.133C8.91661 104.218 8.85779 104.289 8.77978 104.332C8.70177 104.374 8.61041 104.386 8.52429 104.363L8.24429 104.293C8.21019 104.284 8.18094 104.262 8.16239 104.23C8.14385 104.199 8.1374 104.161 8.1443 104.123C9.49096 97.8168 11.311 91.6768 13.6043 85.7035Z" fill="#DAB79A"/>
<path d="M152.265 74.7335L158.675 75.2834C163.361 76.4501 166.935 78.9935 169.395 82.9135L190.155 108.823L191.495 112.483L191.385 144.533L190.295 146.844C190.228 146.976 190.148 147.101 190.055 147.214C184.401 153.834 179.125 160.74 174.225 167.933C173.765 168.607 173.415 169.3 173.175 170.013C172.961 169.733 172.638 169.547 172.205 169.453C172.07 169.425 171.951 169.345 171.873 169.229C171.795 169.114 171.763 168.972 171.785 168.833C172.178 166.387 171.815 163.99 170.695 161.643C169.848 159.85 167.045 154.587 162.285 145.854C160.418 142.42 158.698 138.26 157.125 133.373C156.905 132.693 156.911 132.147 157.145 131.733C157.378 131.307 157.771 130.903 158.325 130.523C161.765 127.563 166.375 127.463 170.595 126.203C170.909 126.112 171.192 125.936 171.415 125.693C172.515 124.527 173.688 123.433 174.935 122.413C176.901 120.8 177.751 118.45 177.485 115.363C177.725 115.183 177.875 114.993 177.935 114.793C178.008 114.587 177.938 114.373 177.725 114.153C177.418 113.827 176.975 113.51 176.395 113.203C173.961 111.07 170.981 109.677 167.455 109.023C163.961 108.383 161.868 107.89 161.175 107.543C156.035 105.033 153.245 98.7535 150.845 94.5535C150.778 94.4394 150.685 94.3431 150.574 94.2728C150.462 94.2024 150.335 94.16 150.203 94.1492C150.072 94.1384 149.94 94.1595 149.818 94.2108C149.696 94.262 149.589 94.3418 149.505 94.4435L137.845 108.513C137.807 108.558 137.758 108.594 137.704 108.616C137.65 108.639 137.591 108.648 137.532 108.643C137.473 108.638 137.417 108.619 137.367 108.588C137.317 108.557 137.275 108.514 137.245 108.463C136.891 107.863 136.701 107.13 136.675 106.263L136.885 83.4034C140.038 81.4234 143.145 79.3501 146.205 77.1835C147.958 75.9435 149.978 75.1268 152.265 74.7335Z" fill="#CF8D45"/>
<path d="M122.585 75.2834L127.745 77.4535L136.335 82.5035L136.885 83.4034L136.675 106.263L136.195 153.253C136.195 153.313 136.207 153.373 136.23 153.428C136.253 153.483 136.287 153.533 136.33 153.575C136.373 153.617 136.424 153.65 136.48 153.672C136.535 153.694 136.595 153.705 136.655 153.703C138.175 153.65 139.528 153.563 140.715 153.443C144.902 153.017 148.972 153.377 152.925 154.523C153.212 154.608 153.515 154.604 153.795 154.513C154.902 154.14 155.972 154.047 157.005 154.234C156.412 155.494 155.538 156.447 154.385 157.094C154.205 157.194 153.997 157.234 153.792 157.207C153.587 157.18 153.395 157.088 153.245 156.943C150.325 154.103 146.535 154.993 142.345 155.883C138.025 156.803 133.785 156.293 129.095 155.203C126.075 154.503 123.605 154.994 121.255 157.114C121.095 157.259 120.89 157.344 120.674 157.353C120.458 157.362 120.246 157.295 120.075 157.163C118.975 156.317 118.092 155.34 117.425 154.234C117.369 154.144 117.288 154.073 117.192 154.029C117.096 153.985 116.99 153.971 116.886 153.986C116.781 154.002 116.684 154.048 116.606 154.119C116.528 154.19 116.472 154.281 116.445 154.383C116.325 154.843 116.295 155.4 116.355 156.053C115.305 158.833 117.045 161.093 118.255 163.703C118.725 164.703 119.019 165.775 119.125 166.873C119.632 172.047 119.535 176.727 118.835 180.913C118.635 182.133 117.792 184.167 116.305 187.013C116.23 187.157 116.109 187.272 115.961 187.341C115.813 187.41 115.646 187.428 115.485 187.393C108.925 185.963 107.425 182.564 103.355 178.614C103.215 178.48 103.105 178.28 103.025 178.013L101.925 171.864C102.058 171.77 102.078 171.12 101.985 169.913C102.218 168.713 102.482 166.76 102.775 164.053C103.185 160.263 104.465 157.494 106.675 153.864C111.062 146.624 114.488 138.993 116.955 130.973C117.808 130.593 118.655 130.077 119.495 129.423C121.615 127.773 122.045 124.543 122.185 122.043C122.204 121.686 122.11 121.332 121.915 121.033C119.668 117.513 118.012 115.223 116.945 114.163C112.475 109.743 104.435 108.423 99.6249 113.343C98.4916 113.517 97.5982 113.953 96.9449 114.653C96.7382 114.867 96.9049 115.07 97.4449 115.263L96.8549 117.273L89.2949 103.063C95.3083 96.0835 100.272 89.8668 104.185 84.4135C107.192 80.2335 111.215 77.1668 116.255 75.2134L122.585 75.2834Z" fill="#F5C470"/>
<path d="M19.0047 75.0435L13.6047 85.7035C11.1913 90.8635 9.41468 96.4235 8.27468 102.383C5.25468 108.71 3.54469 115.583 3.14469 123.003C0.724689 138.67 1.50801 154.113 5.49468 169.333C6.10135 171.64 8.15136 178.217 11.6447 189.063C14.8147 198.903 20.1147 206.403 26.1947 216.253C33.2147 227.623 43.1747 237.713 52.1647 246.053C54.378 248.1 57.0813 250.147 60.2747 252.193C64.6947 255.033 71.8047 260.783 77.9847 263.453C85.3514 266.64 91.758 269.3 97.2047 271.433C110.215 276.533 127.555 277.714 142.265 277.354C150.415 277.154 158.605 275.263 165.965 274.373C167.738 274.153 170.938 273.227 175.565 271.594C187.551 267.374 198.308 262.367 207.835 256.573C209.341 255.66 213.921 252.2 221.575 246.193C225.685 242.973 229.965 237.983 233.045 235.013C239.955 228.333 242.935 223.443 250.335 213.033C252.661 209.753 254.625 206.157 256.225 202.243C261.898 188.337 265.265 179.59 266.325 176.003C267.031 173.597 268.308 167.85 270.155 158.763C274.655 131.473 270.585 105.573 259.325 80.4734C259.294 80.4017 259.293 80.3209 259.321 80.248C259.349 80.1752 259.404 80.1162 259.475 80.0835L259.485 80.0735C259.528 80.0541 259.574 80.0437 259.622 80.0427C259.669 80.0418 259.717 80.0503 259.761 80.068C259.806 80.0856 259.847 80.112 259.882 80.1455C259.917 80.179 259.945 80.2192 259.965 80.2635C264.271 90.4302 266.998 97.5335 268.145 101.573C271.998 115.16 273.518 128.843 272.705 142.623C272.305 149.297 271.358 157.76 269.865 168.013C268.465 177.66 266.511 185.917 264.005 192.783C258.505 207.863 250.871 221.033 241.105 232.293C238.365 235.453 233.755 240.123 227.275 246.303C204.345 268.183 171.815 281.253 140.185 281.763C111.231 282.23 85.0814 274.457 61.7347 258.443C51.7747 251.61 42.0013 242.64 32.4147 231.533C17.9847 214.823 5.95469 190.873 2.23469 168.583C-2.03531 143.033 -0.375319 116.003 8.85468 91.2834C5.95468 101.293 3.13469 111.903 2.45469 122.343C2.45544 122.35 2.45783 122.356 2.46164 122.362C2.46546 122.367 2.47058 122.372 2.47654 122.375C2.4825 122.378 2.48912 122.379 2.49578 122.379C2.50244 122.379 2.50894 122.377 2.51468 122.373C2.52135 122.367 2.53135 122.36 2.54468 122.353C2.55365 122.347 2.56102 122.338 2.56623 122.328C2.57143 122.318 2.57433 122.306 2.57468 122.293C3.98801 108.473 7.70468 95.3068 13.7247 82.7935C14.4113 81.3668 16.1713 78.7835 19.0047 75.0435Z" fill="#ABB0B6"/>
<path d="M174.885 77.3735C177.351 79.5268 179.861 81.5568 182.415 83.4634C186.468 86.4968 191.368 91.3635 197.115 98.0635C197.835 99.4101 198.531 100.19 199.205 100.403L204.385 106.263C198.865 106.753 194.115 106.743 190.155 108.823L169.395 82.9135L174.035 76.8335C174.701 76.9402 174.985 77.1201 174.885 77.3735Z" fill="#894020"/>
<path d="M264.435 100.644C266.548 107.357 267.931 114.207 268.585 121.194C268.588 121.238 268.601 121.281 268.621 121.32C268.642 121.359 268.669 121.394 268.703 121.422C268.737 121.45 268.775 121.471 268.817 121.483C268.858 121.495 268.902 121.499 268.945 121.493H268.955C269.044 121.481 269.125 121.435 269.181 121.364C269.237 121.293 269.263 121.203 269.255 121.113C268.595 113.773 267.171 106.574 264.985 99.5135L264.085 95.7835C264.074 95.7487 264.077 95.7116 264.091 95.6798C264.106 95.6481 264.133 95.6243 264.165 95.6135L264.175 95.6035C264.206 95.5923 264.241 95.5955 264.273 95.6122C264.304 95.6289 264.33 95.6581 264.345 95.6935C266.525 101.714 268.078 107.907 269.005 114.273C270.025 123.593 270.305 132.773 270.195 142.163C270.195 135.463 269.935 128.754 269.455 122.084C269.449 122.024 269.422 121.969 269.377 121.93C269.332 121.891 269.274 121.871 269.215 121.874H269.205C269.145 121.879 269.09 121.906 269.051 121.951C269.012 121.996 268.992 122.054 268.995 122.113C269.341 128.76 269.505 133.327 269.485 135.814C269.418 144.787 268.455 153.69 266.595 162.523C266.835 161.343 266.888 160.2 266.755 159.094C266.746 159.039 266.719 158.99 266.679 158.952C266.639 158.914 266.588 158.891 266.534 158.885C266.479 158.879 266.424 158.892 266.377 158.92C266.33 158.949 266.294 158.992 266.275 159.043C265.988 159.983 265.598 160.827 265.105 161.574C264.395 162.674 263.849 163.87 263.485 165.123C259.735 178.083 257.195 186.674 251.155 197.324C250.585 187.664 247.615 180.974 237.665 178.194C233.438 177.014 229.015 176.427 224.395 176.433L228.925 164.364C228.934 164.338 228.948 164.315 228.964 164.294C228.98 164.273 228.998 164.256 229.016 164.245C229.035 164.233 229.053 164.227 229.07 164.226C229.088 164.226 229.103 164.232 229.115 164.243C229.148 164.27 229.185 164.307 229.225 164.354C230.951 166.44 233.028 168.194 235.455 169.614C235.517 169.651 235.588 169.67 235.661 169.669C235.733 169.667 235.804 169.645 235.866 169.604C235.927 169.564 235.976 169.507 236.008 169.439C236.039 169.372 236.052 169.297 236.045 169.224L231.505 127.814C237.595 116.734 243.715 106.814 253.025 97.9535C254.305 96.7335 255.675 95.7435 257.135 94.9835C257.68 94.7015 258.299 94.5934 258.907 94.6739C259.515 94.7543 260.083 95.0195 260.535 95.4335C261.988 96.7735 263.288 98.5102 264.435 100.644Z" fill="#E4B278"/>
<path d="M38.165 105.233C37.9183 105.453 37.8117 105.647 37.845 105.813C37.8712 105.943 37.9266 106.064 38.0073 106.168C38.0879 106.273 38.1917 106.359 38.3113 106.419C38.4308 106.479 38.5631 106.513 38.6987 106.517C38.8342 106.521 38.9696 106.496 39.095 106.443C44.2283 104.317 49.1217 102.307 53.775 100.413C53.8206 100.394 53.8711 100.391 53.9191 100.402C53.9671 100.414 54.0099 100.441 54.0413 100.479C54.0728 100.518 54.091 100.565 54.0935 100.614C54.096 100.664 54.0825 100.712 54.055 100.753C48.815 109.067 44.8517 117.963 42.165 127.443C41.405 141.13 39.9283 154.84 37.735 168.573C37.712 168.706 37.7285 168.842 37.7826 168.965C37.8366 169.087 37.9259 169.192 38.0394 169.265C38.1529 169.338 38.2858 169.377 38.4218 169.377C38.5577 169.377 38.6909 169.337 38.805 169.263L45.485 164.923L57.265 192.523L57.865 193.743C53.725 203.053 51.875 212.124 50.105 222.734C49.745 224.914 49.855 227.043 49.185 229.033C49.0656 229.398 48.995 229.778 48.975 230.163L48.765 235.484C48.5317 235.277 48.125 235.16 47.545 235.133L37.795 225.203C37.7581 225.163 37.7088 225.135 37.6546 225.125C37.6005 225.115 37.5446 225.123 37.4956 225.148C37.4466 225.173 37.4072 225.214 37.3836 225.264C37.36 225.314 37.3534 225.37 37.365 225.423C37.625 226.61 38.1117 227.797 38.825 228.984L36.605 226.583L30.405 217.753C30.366 217.699 30.3486 217.631 30.356 217.563C30.3633 217.496 30.3949 217.432 30.445 217.383C30.6917 217.157 30.8117 217.27 30.805 217.723C30.805 217.957 30.9883 218.02 31.355 217.913C31.555 217.86 31.6783 217.717 31.725 217.484C32.8183 219.284 34.0817 220.907 35.515 222.354C35.5321 222.375 35.5532 222.393 35.5773 222.407C35.6014 222.42 35.6278 222.429 35.6552 222.432C35.6826 222.435 35.7104 222.433 35.737 222.426C35.7635 222.418 35.7883 222.405 35.81 222.388C35.8317 222.371 35.8498 222.35 35.8633 222.326C35.8767 222.302 35.8853 222.276 35.8886 222.248C35.8918 222.221 35.8897 222.193 35.8822 222.166C35.8747 222.14 35.8621 222.115 35.845 222.093L21.065 198.523C18.735 191.853 16.085 185.483 13.865 178.643C12.6583 174.93 10.9083 169.74 8.61499 163.073C6.84166 157.9 5.745 151.79 5.325 144.743C5.045 136.923 5.36833 129.127 6.295 121.353C8.855 115.193 11.855 108.403 16.265 103.343C23.475 95.0634 31.295 99.3634 38.165 105.233Z" fill="#E4B278"/>
<path d="M176.394 113.203C174.414 112.863 172.454 112.37 170.514 111.723C166.401 110.35 162.921 111.13 160.074 114.063C159.148 115.017 158.568 116.147 158.334 117.453C157.708 120.947 157.101 124.323 156.514 127.583C156.128 129.71 156.481 130.367 157.574 129.553L158.324 130.523C157.771 130.903 157.378 131.307 157.144 131.733C156.911 132.147 156.904 132.693 157.124 133.373C158.698 138.26 160.418 142.42 162.284 145.854C167.044 154.587 169.848 159.85 170.694 161.643C171.814 163.99 172.178 166.387 171.784 168.833C171.763 168.972 171.794 169.114 171.873 169.229C171.951 169.345 172.069 169.425 172.204 169.453C172.638 169.547 172.961 169.733 173.174 170.013L172.924 172.433C171.824 181.343 169.544 189.433 159.184 190.043C159.638 188.757 158.654 188.154 156.234 188.234C155.999 188.242 155.765 188.203 155.545 188.119C155.326 188.036 155.125 187.909 154.954 187.747C154.784 187.585 154.648 187.391 154.553 187.176C154.459 186.96 154.408 186.728 154.404 186.493C154.311 179.42 154.558 173.36 155.144 168.313C155.524 165.02 156.528 161.93 158.154 159.043C158.394 158.617 158.338 158.23 157.984 157.883C157.731 157.643 157.498 157.643 157.284 157.883C157.764 156.517 157.988 155.273 157.954 154.153C157.952 154.092 157.932 154.033 157.897 153.982C157.863 153.931 157.815 153.891 157.759 153.866C157.703 153.841 157.641 153.832 157.58 153.841C157.519 153.849 157.462 153.874 157.414 153.913L157.004 154.234C155.971 154.047 154.901 154.14 153.794 154.513C153.514 154.604 153.211 154.608 152.924 154.523C148.971 153.377 144.901 153.017 140.714 153.443C139.528 153.563 138.174 153.65 136.654 153.703C136.594 153.705 136.535 153.694 136.479 153.672C136.423 153.65 136.373 153.617 136.33 153.575C136.287 153.533 136.253 153.483 136.23 153.428C136.206 153.373 136.194 153.313 136.194 153.253L136.674 106.263C136.701 107.13 136.891 107.863 137.244 108.463C137.274 108.514 137.316 108.557 137.366 108.588C137.416 108.619 137.473 108.638 137.531 108.643C137.59 108.648 137.649 108.639 137.704 108.616C137.758 108.594 137.806 108.558 137.844 108.513L149.504 94.4435C149.589 94.3418 149.696 94.262 149.818 94.2108C149.939 94.1595 150.071 94.1384 150.203 94.1492C150.335 94.16 150.462 94.2024 150.573 94.2728C150.685 94.3431 150.778 94.4394 150.844 94.5535C153.244 98.7535 156.034 105.033 161.174 107.543C161.868 107.89 163.961 108.383 167.454 109.023C170.981 109.677 173.961 111.07 176.394 113.203Z" fill="#E2A35E"/>
<path d="M264.985 99.5135C267.171 106.573 268.595 113.773 269.255 121.113C269.263 121.203 269.237 121.293 269.181 121.364C269.125 121.435 269.044 121.481 268.955 121.493H268.945C268.902 121.499 268.859 121.495 268.817 121.483C268.776 121.471 268.737 121.45 268.703 121.422C268.67 121.394 268.642 121.359 268.621 121.32C268.601 121.281 268.589 121.238 268.585 121.193C267.931 114.207 266.548 107.357 264.435 100.643L263.095 94.4935L264.985 99.5135Z" fill="#C3AE99"/>
<path d="M8.27504 102.383L6.29505 121.353C5.36838 129.127 5.04505 136.923 5.32505 144.743L5.20505 125.853C5.20505 125.795 5.18293 125.739 5.14354 125.698C5.10416 125.657 5.05074 125.633 4.99505 125.633H4.98505C4.95664 125.632 4.92826 125.637 4.90162 125.646C4.87497 125.656 4.85063 125.672 4.83005 125.691C4.80948 125.711 4.7931 125.735 4.78193 125.761C4.77075 125.787 4.76502 125.815 4.76505 125.843L4.63505 147.724C3.49505 153.804 4.91505 159.563 5.99505 165.513C1.58505 151.883 2.71506 137.143 3.14506 123.003C3.54506 115.583 5.25504 108.71 8.27504 102.383Z" fill="#BDB09B"/>
<path d="M89.2946 103.063L96.8546 117.273C97.9213 121.12 100.161 123.897 103.575 125.603C106.055 126.833 109.485 127.183 112.435 127.673C113.501 127.847 115.008 128.947 116.955 130.973C114.488 138.993 111.061 146.624 106.675 153.864C104.465 157.494 103.185 160.263 102.775 164.053C102.481 166.76 102.218 168.713 101.985 169.913C98.1046 163.96 93.8346 158.153 89.1746 152.493C87.0479 149.913 84.9579 147.29 82.9046 144.623C82.2846 134.79 82.2679 124.997 82.8546 115.243C82.9146 114.27 82.9946 113.307 83.0946 112.353L85.6046 107.483L89.2946 103.063Z" fill="#E2A35E"/>
<path d="M204.384 106.263C206.731 108.617 208.504 110.25 209.704 111.163C215.251 115.39 220.858 119.697 226.524 124.083C227.784 125.057 228.924 126.157 229.944 127.383C230.164 127.65 230.378 127.783 230.584 127.783C230.811 127.79 231.064 127.72 231.344 127.573C231.418 127.627 231.471 127.707 231.504 127.813L236.044 169.224C236.052 169.297 236.039 169.372 236.008 169.439C235.976 169.507 235.927 169.564 235.865 169.604C235.804 169.645 235.733 169.667 235.661 169.669C235.588 169.67 235.517 169.651 235.454 169.614C233.028 168.194 230.951 166.44 229.224 164.354C229.458 164.02 229.514 163.767 229.394 163.594C225.781 158.287 222.544 153.557 219.684 149.403C212.051 138.323 203.994 127.557 195.514 117.103C195.468 117.043 194.924 116.29 193.884 114.843C193.184 113.87 192.388 113.083 191.494 112.483L190.154 108.823C194.114 106.743 198.864 106.753 204.384 106.263Z" fill="#A55728"/>
<path d="M85.6047 107.483L83.0947 112.353C82.9947 112.147 82.8214 112.057 82.5747 112.084C82.5207 112.09 82.4682 112.107 82.4201 112.135C82.3721 112.162 82.3294 112.199 82.2947 112.243C74.1547 122.95 66.0547 133.687 57.9947 144.454C55.308 148.04 51.7847 153.363 47.4247 160.423C46.9714 161.157 46.3247 162.657 45.4847 164.923L38.8047 169.263C38.6906 169.337 38.5574 169.377 38.4215 169.377C38.2855 169.377 38.1526 169.338 38.0391 169.265C37.9256 169.192 37.8363 169.087 37.7823 168.965C37.7282 168.842 37.7117 168.706 37.7347 168.573C39.928 154.84 41.4047 141.13 42.1647 127.443C44.5314 126.703 46.7747 125.47 48.8947 123.743C49.9547 122.883 50.8614 122.223 51.6147 121.763C52.5947 121.17 53.5514 120.583 54.4847 120.003C62.5747 117.873 67.9247 114.183 74.5947 110.293C78.028 108.287 81.698 107.35 85.6047 107.483Z" fill="#BC6D32"/>
<path d="M116.954 130.973C115.008 128.947 113.501 127.847 112.434 127.673C109.484 127.183 106.054 126.833 103.574 125.603C100.161 123.897 97.9212 121.12 96.8545 117.273L97.4445 115.264C100.374 114.804 101.384 118.653 102.214 119.663C104.974 123.053 107.764 123.093 111.764 123.593C112.322 123.659 112.855 123.865 113.314 124.193C114.948 125.34 116.394 127.06 117.654 129.353C117.72 129.471 117.818 129.567 117.936 129.632C118.053 129.697 118.187 129.727 118.321 129.72C118.456 129.713 118.585 129.668 118.695 129.591C118.805 129.514 118.892 129.407 118.944 129.283C119.038 129.07 119.044 128.777 118.964 128.403C118.138 124.777 117.161 120.947 116.035 116.913C115.903 116.446 115.674 116.013 115.364 115.644C112.111 111.797 108.414 110.56 104.274 111.933C101.834 112.747 100.284 113.217 99.6245 113.343C104.434 108.423 112.474 109.743 116.944 114.163C118.011 115.223 119.668 117.513 121.914 121.033C122.109 121.332 122.204 121.686 122.184 122.043C122.044 124.543 121.614 127.773 119.494 129.423C118.654 130.077 117.808 130.593 116.954 130.973Z" fill="#F1CD99"/>
<path d="M176.395 113.203C176.975 113.51 177.418 113.827 177.725 114.153C177.938 114.373 178.008 114.587 177.935 114.793C177.875 114.993 177.725 115.183 177.485 115.363C176.185 115.103 175.345 115.293 174.595 116.493C172.928 119.187 171.005 121.117 168.825 122.283C168.117 122.661 167.349 122.911 166.555 123.023L162.315 123.653C161.723 123.738 161.168 124.003 160.725 124.413C159.265 125.747 158.215 127.46 157.575 129.553C156.481 130.367 156.128 129.71 156.515 127.583C157.101 124.323 157.708 120.947 158.335 117.453C158.568 116.147 159.148 115.017 160.075 114.063C162.921 111.13 166.401 110.35 170.515 111.723C172.455 112.37 174.415 112.863 176.395 113.203ZM165.135 113.553C163.095 113.983 159.665 116.813 161.815 119.043C167.045 124.483 172.975 114.263 167.755 113.663C167.662 113.654 167.568 113.669 167.483 113.708C167.398 113.747 167.326 113.808 167.272 113.884C167.219 113.961 167.188 114.051 167.181 114.144C167.174 114.237 167.193 114.33 167.235 114.413C168.155 116.187 167.651 117.45 165.725 118.203C165.421 118.326 165.083 118.338 164.771 118.237C164.459 118.136 164.192 117.929 164.017 117.652C163.842 117.375 163.77 117.045 163.814 116.72C163.857 116.395 164.013 116.095 164.255 115.873C164.901 115.28 165.348 114.693 165.595 114.113C165.624 114.045 165.633 113.969 165.622 113.896C165.611 113.822 165.581 113.753 165.533 113.695C165.486 113.637 165.424 113.594 165.354 113.569C165.284 113.544 165.208 113.539 165.135 113.553Z" fill="#4D2210"/>
<path d="M97.4452 115.263C96.9052 115.07 96.7385 114.867 96.9452 114.653C97.5985 113.953 98.4919 113.517 99.6252 113.343C100.285 113.217 101.835 112.747 104.275 111.933C108.415 110.56 112.112 111.797 115.365 115.643C115.675 116.013 115.903 116.446 116.035 116.913C117.162 120.947 118.139 124.777 118.965 128.403C119.045 128.777 119.039 129.07 118.945 129.283C118.892 129.407 118.806 129.514 118.696 129.591C118.586 129.668 118.456 129.713 118.322 129.72C118.188 129.727 118.054 129.697 117.936 129.632C117.818 129.567 117.721 129.471 117.655 129.353C116.395 127.06 114.949 125.34 113.315 124.193C112.856 123.865 112.323 123.659 111.765 123.593C107.765 123.093 104.975 123.053 102.215 119.663C101.385 118.653 100.375 114.803 97.4452 115.263ZM110.485 114.383C109.971 114.119 109.413 113.936 108.845 113.843C107.992 113.704 107.142 113.773 106.404 114.04C105.665 114.308 105.074 114.762 104.705 115.343C104.459 115.727 104.317 116.157 104.287 116.608C104.258 117.06 104.342 117.524 104.535 117.973C104.769 118.518 105.154 119.027 105.658 119.457C106.162 119.887 106.77 120.226 107.432 120.444C108.094 120.663 108.789 120.755 109.459 120.713C110.13 120.671 110.756 120.496 111.285 120.203C111.838 119.902 112.269 119.481 112.539 118.98C112.808 118.479 112.908 117.913 112.828 117.334C112.749 116.756 112.493 116.182 112.083 115.667C111.674 115.152 111.125 114.71 110.485 114.383Z" fill="#4D2210"/>
<path d="M83.0944 112.353C82.9944 113.307 82.9144 114.27 82.8544 115.243C82.2677 124.997 82.2844 134.79 82.9044 144.623C81.251 147.617 79.281 150.5 76.9944 153.273C71.9344 159.413 68.9244 163.303 65.0044 168.503C60.0444 175.103 59.0044 183.673 58.3244 192.173C58.3176 192.276 58.271 192.373 58.1944 192.443C57.9544 192.65 57.6444 192.677 57.2644 192.523L45.4844 164.923C46.3244 162.657 46.971 161.157 47.4244 160.423C51.7844 153.363 55.3077 148.04 57.9944 144.453C66.0544 133.687 74.1544 122.95 82.2944 112.243C82.3291 112.199 82.3717 112.162 82.4198 112.135C82.4678 112.107 82.5204 112.09 82.5744 112.083C82.821 112.057 82.9944 112.147 83.0944 112.353Z" fill="#894020"/>
<path d="M229.225 164.354C229.185 164.307 229.148 164.27 229.115 164.243C229.103 164.232 229.088 164.226 229.071 164.226C229.054 164.227 229.035 164.233 229.016 164.245C228.998 164.256 228.98 164.273 228.964 164.294C228.948 164.315 228.935 164.338 228.925 164.364L224.395 176.433L217.285 193.464C216.611 193.41 216.248 193.1 216.195 192.533C215.541 185.693 214.028 178.61 211.655 171.283C207.325 162.583 200.045 155.903 193.055 149.303C192.819 149.081 192.647 148.802 192.555 148.493L191.385 144.533L191.495 112.483C192.388 113.083 193.185 113.87 193.885 114.843C194.925 116.29 195.468 117.043 195.515 117.103C203.995 127.557 212.051 138.323 219.685 149.403C222.545 153.557 225.781 158.287 229.395 163.594C229.515 163.767 229.458 164.02 229.225 164.354Z" fill="#693623"/>
<path d="M165.595 114.113C165.348 114.693 164.902 115.28 164.255 115.873C164.013 116.095 163.857 116.395 163.814 116.72C163.77 117.045 163.843 117.375 164.018 117.652C164.192 117.929 164.459 118.136 164.771 118.237C165.083 118.338 165.421 118.326 165.725 118.203C167.652 117.45 168.155 116.187 167.235 114.413C167.193 114.33 167.175 114.237 167.181 114.144C167.188 114.051 167.219 113.961 167.273 113.884C167.326 113.808 167.399 113.747 167.484 113.708C167.568 113.669 167.662 113.654 167.755 113.663C172.975 114.263 167.045 124.483 161.815 119.043C159.665 116.813 163.095 113.983 165.135 113.553C165.208 113.539 165.284 113.544 165.354 113.569C165.424 113.594 165.486 113.637 165.534 113.695C165.581 113.753 165.612 113.822 165.622 113.896C165.633 113.969 165.624 114.045 165.595 114.113Z" fill="#CEA78B"/>
<path d="M108.845 113.843C108.945 114.53 108.458 114.923 107.385 115.023C107.206 115.04 107.033 115.098 106.881 115.193C106.728 115.288 106.6 115.418 106.507 115.572C106.413 115.725 106.357 115.899 106.343 116.078C106.329 116.257 106.357 116.437 106.425 116.603L106.485 116.743C106.656 117.166 106.95 117.528 107.33 117.783C107.709 118.038 108.157 118.174 108.615 118.173C109.461 118.173 110.065 117.98 110.425 117.593C110.658 117.353 110.598 116.804 110.245 115.944C109.818 114.897 109.898 114.377 110.485 114.384C111.124 114.71 111.674 115.152 112.083 115.667C112.492 116.182 112.748 116.756 112.828 117.334C112.907 117.913 112.808 118.479 112.538 118.98C112.269 119.481 111.838 119.902 111.285 120.204C110.756 120.496 110.13 120.671 109.459 120.713C108.788 120.755 108.093 120.663 107.431 120.444C106.77 120.226 106.161 119.887 105.657 119.457C105.153 119.027 104.768 118.518 104.535 117.973C104.342 117.524 104.258 117.06 104.287 116.608C104.316 116.157 104.458 115.727 104.705 115.343C105.073 114.762 105.665 114.308 106.403 114.04C107.141 113.773 107.992 113.704 108.845 113.843Z" fill="#F1CD99"/>
<path d="M110.485 114.383C109.899 114.377 109.819 114.897 110.245 115.943C110.599 116.803 110.659 117.353 110.425 117.593C110.065 117.98 109.462 118.173 108.615 118.173C108.157 118.174 107.71 118.038 107.33 117.783C106.951 117.528 106.657 117.166 106.485 116.743L106.425 116.603C106.357 116.437 106.329 116.257 106.343 116.078C106.358 115.899 106.414 115.725 106.507 115.572C106.6 115.418 106.728 115.288 106.881 115.193C107.033 115.098 107.206 115.04 107.385 115.023C108.459 114.923 108.945 114.53 108.845 113.843C109.413 113.936 109.971 114.119 110.485 114.383Z" fill="#693623"/>
<path d="M270.425 155.563C269.885 155.897 269.741 156.54 269.995 157.493C270.008 157.546 270.008 157.601 269.995 157.653C269.948 157.84 269.911 157.847 269.885 157.673C269.265 153.673 269.575 150.493 269.925 143.193C269.918 143.193 269.915 143.19 269.915 143.183C269.468 151.837 268.055 160.3 265.675 168.573L266.595 162.523C268.455 153.69 269.418 144.787 269.485 135.813C269.505 133.327 269.341 128.76 268.995 122.113C268.992 122.054 269.012 121.996 269.051 121.951C269.091 121.906 269.146 121.879 269.205 121.873H269.215C269.274 121.871 269.332 121.891 269.377 121.93C269.422 121.969 269.45 122.024 269.455 122.083C269.935 128.753 270.195 135.463 270.195 142.163C270.305 132.773 270.025 123.593 269.005 114.273C270.238 118.153 271.008 122.127 271.315 126.193C272.068 136.067 271.771 145.857 270.425 155.563Z" fill="#BDB09B"/>
<path d="M177.484 115.363C177.751 118.45 176.901 120.8 174.934 122.413C173.688 123.433 172.514 124.527 171.414 125.693C171.192 125.936 170.908 126.112 170.594 126.203C166.374 127.463 161.764 127.563 158.324 130.523L157.574 129.553C158.214 127.46 159.264 125.747 160.724 124.413C161.167 124.003 161.722 123.738 162.314 123.653L166.554 123.023C167.348 122.911 168.116 122.661 168.824 122.283C171.004 121.117 172.928 119.187 174.594 116.493C175.344 115.293 176.184 115.103 177.484 115.363Z" fill="#F1CD99"/>
<path d="M3.14461 123.003C2.71461 137.143 1.5846 151.883 5.9946 165.513C8.9346 177.153 12.2379 186.563 15.9046 193.743C18.8179 199.457 21.6946 205.18 24.5346 210.913C27.0413 215.987 31.0646 221.21 36.6046 226.583L38.8246 228.984C43.6313 235.177 49.2079 240.527 55.5546 245.033C59.1746 247.6 61.5946 249.387 62.8146 250.393C72.1046 258.073 82.2646 264.013 93.5346 267.783C101.921 270.59 107.798 272.387 111.165 273.173C115.605 274.207 121.215 274.817 127.995 275.003C138.295 275.297 145.041 275.35 148.235 275.163C158.025 274.583 168.775 272.233 179.065 268.203C185.745 265.59 189.731 264.007 191.025 263.453C204.965 257.513 218.385 248.803 229.135 237.513C237.585 228.633 240.365 225.653 247.295 215.953C250.421 211.58 252.918 207.25 254.785 202.964C258.905 193.497 261.995 185.633 264.055 179.373C264.064 179.34 264.063 179.305 264.053 179.271C264.042 179.238 264.022 179.207 263.995 179.183L263.545 178.813C263.508 178.783 263.465 178.763 263.419 178.753C263.373 178.743 263.326 178.745 263.28 178.757C263.235 178.77 263.194 178.794 263.16 178.826C263.125 178.859 263.1 178.899 263.085 178.943C260.818 185.877 257.921 193.19 254.395 200.883C247.875 215.093 238.255 226.004 226.725 237.464C218.418 245.724 209.111 252.474 198.805 257.714C188.191 263.114 177.391 267.133 166.405 269.773C152.665 273.08 138.565 273.947 124.105 272.373C132.698 272.793 139.848 272.8 145.555 272.393C156.888 271.573 168.355 268.77 179.955 263.984L194.705 257.793C199.545 255.52 204.258 253.01 208.845 250.263C215.785 246.103 221.775 240.373 227.865 234.833C230.805 232.153 233.385 229.084 236.045 226.094C242.045 220.487 246.671 213.897 249.925 206.323C257.645 194.313 260.975 183.373 265.675 168.573C268.055 160.3 269.468 151.837 269.915 143.183C269.915 143.19 269.918 143.193 269.925 143.193C269.575 150.493 269.265 153.673 269.885 157.673C269.911 157.847 269.948 157.84 269.995 157.653C270.008 157.601 270.008 157.546 269.995 157.493C269.741 156.54 269.885 155.897 270.425 155.563L270.155 158.763C268.308 167.85 267.031 173.597 266.325 176.003C265.265 179.59 261.898 188.337 256.225 202.243C254.625 206.157 252.661 209.753 250.335 213.033C242.935 223.443 239.955 228.333 233.045 235.013C229.965 237.983 225.685 242.973 221.575 246.193C213.921 252.2 209.341 255.66 207.835 256.573C198.308 262.367 187.551 267.374 175.565 271.594C170.938 273.227 167.738 274.153 165.965 274.373C158.605 275.263 150.415 277.154 142.265 277.354C127.555 277.714 110.215 276.533 97.2046 271.433C91.7579 269.3 85.3513 266.64 77.9846 263.453C71.8046 260.783 64.6946 255.033 60.2746 252.193C57.0813 250.147 54.3779 248.1 52.1646 246.053C43.1746 237.713 33.2146 227.623 26.1946 216.253C20.1146 206.403 14.8146 198.903 11.6446 189.063C8.15127 178.217 6.10126 171.64 5.4946 169.333C1.50793 154.113 0.724606 138.67 3.14461 123.003Z" fill="#ABA8A5"/>
<path d="M5.32477 144.743C5.74477 151.79 6.84143 157.9 8.61476 163.073C10.9081 169.74 12.6581 174.93 13.8648 178.643C16.0848 185.483 18.7348 191.853 21.0648 198.523L16.8148 191.063C15.8548 186.87 14.2681 183.107 12.0548 179.773L10.8648 177.224C7.86476 167.664 5.7881 157.83 4.63477 147.724L4.76477 125.843C4.76474 125.815 4.77047 125.787 4.78165 125.761C4.79282 125.735 4.8092 125.711 4.82977 125.691C4.85034 125.672 4.87469 125.656 4.90134 125.646C4.92798 125.637 4.95636 125.632 4.98477 125.633H4.99477C5.05046 125.633 5.10388 125.657 5.14326 125.698C5.18265 125.739 5.20477 125.795 5.20477 125.853L5.32477 144.743Z" fill="#D4AD89"/>
<path d="M101.985 169.913C102.078 171.12 102.058 171.77 101.925 171.864C101.371 172.637 100.955 173.56 100.675 174.633C100.355 175.86 99.9913 176.787 99.5846 177.413C96.7346 181.783 93.4346 186.903 90.6646 190.413C86.278 195.973 82.008 201.617 77.8546 207.344C76.9146 208.654 75.1947 211.884 76.1747 213.364C76.2093 213.418 76.2595 213.462 76.3187 213.488C76.378 213.515 76.4438 213.523 76.5078 213.513C76.5719 213.502 76.6314 213.473 76.6788 213.428C76.7263 213.384 76.7596 213.327 76.7746 213.263L76.9746 212.493L76.6146 218.303C76.668 219.383 76.568 220.064 76.3147 220.344C76.2128 220.458 76.0846 220.545 75.9413 220.599C75.7979 220.652 75.6436 220.67 75.4918 220.65C75.3401 220.631 75.1954 220.574 75.0704 220.486C74.9454 220.397 74.8439 220.28 74.7746 220.143C72.008 214.83 70.1813 211.373 69.2946 209.773C67.4546 206.453 66.8346 203.273 64.0146 200.993C61.9946 199.353 60.0146 196.003 57.8646 193.743L57.2646 192.523C57.6446 192.677 57.9546 192.65 58.1946 192.443C58.2713 192.373 58.3178 192.276 58.3246 192.173C59.0046 183.673 60.0446 175.103 65.0046 168.503C68.9246 163.303 71.9346 159.413 76.9946 153.273C79.2813 150.5 81.2513 147.617 82.9046 144.623C84.958 147.29 87.048 149.913 89.1747 152.493C93.8347 158.153 98.1046 163.96 101.985 169.913Z" fill="#A55728"/>
<path d="M191.385 144.533L192.555 148.493C192.647 148.802 192.819 149.081 193.055 149.303C200.045 155.903 207.325 162.583 211.655 171.283C210.508 173.71 209.541 176.937 208.755 180.964C206.868 190.63 204.978 200.293 203.085 209.953C202.771 211.56 202.725 213.713 202.945 216.413L198.105 223.323C198.063 223.381 198.004 223.424 197.936 223.447C197.868 223.47 197.796 223.472 197.728 223.452C197.661 223.432 197.602 223.392 197.56 223.336C197.518 223.281 197.495 223.213 197.495 223.143L197.155 212.543C197.821 212.71 198.255 212.54 198.455 212.033C198.48 211.964 198.49 211.889 198.485 211.814C198.48 211.738 198.459 211.663 198.425 211.594C196.905 208.674 195.821 206.8 195.175 205.974C189.421 198.647 183.981 191.073 178.855 183.253L172.925 172.433L173.175 170.013C173.415 169.3 173.765 168.607 174.225 167.933C179.125 160.74 184.401 153.834 190.055 147.214C190.148 147.101 190.228 146.976 190.295 146.844L191.385 144.533Z" fill="#894020"/>
<path d="M4.63488 147.724C5.78821 157.83 7.86487 167.664 10.8649 177.224C12.4649 182.937 14.7015 188.314 17.5749 193.354C19.5482 198.087 21.9449 202.587 24.7649 206.854L31.7249 217.484C31.6782 217.717 31.5549 217.86 31.3549 217.913C30.9882 218.02 30.8049 217.957 30.8049 217.724C30.8115 217.27 30.6915 217.157 30.4449 217.383C30.3948 217.432 30.3632 217.496 30.3559 217.563C30.3485 217.631 30.3659 217.699 30.4049 217.753L36.6049 226.583C31.0649 221.21 27.0416 215.987 24.5349 210.913C21.6949 205.18 18.8182 199.457 15.9049 193.743C12.2382 186.563 8.93488 177.153 5.99488 165.513C4.91488 159.563 3.49488 153.804 4.63488 147.724Z" fill="#A29C9C"/>
<path d="M157.284 157.883C153.934 162.583 147.364 163.933 143.184 168.003C141.034 170.113 138.284 173.373 138.024 176.803C137.798 179.737 138.874 181.937 141.254 183.403C143.174 184.59 145.104 185.71 147.044 186.763C146.984 187.93 146.724 188.75 146.264 189.224C138.778 186.524 131.251 187.013 123.684 190.693C122.314 191.363 120.944 191.724 119.544 192.094C119.171 191.367 119.078 190.647 119.264 189.933C124.704 188.107 129.764 185.46 134.444 181.993C134.815 181.718 135.113 181.357 135.313 180.941C135.513 180.525 135.61 180.066 135.594 179.604L135.454 175.594C135.448 175.428 135.417 175.263 135.364 175.104C133.351 169.63 129.944 165.91 125.144 163.943C121.014 162.263 118.364 159.793 116.354 156.053C116.294 155.4 116.324 154.843 116.444 154.383C116.471 154.281 116.527 154.19 116.605 154.119C116.683 154.048 116.781 154.002 116.885 153.986C116.989 153.971 117.096 153.985 117.192 154.029C117.287 154.073 117.368 154.144 117.424 154.234C118.091 155.34 118.974 156.317 120.074 157.163C120.246 157.295 120.458 157.362 120.673 157.353C120.889 157.344 121.095 157.259 121.254 157.114C123.604 154.994 126.074 154.504 129.094 155.204C133.784 156.294 138.024 156.803 142.344 155.883C146.534 154.993 150.324 154.103 153.244 156.943C153.394 157.088 153.586 157.18 153.791 157.207C153.997 157.234 154.205 157.194 154.384 157.094C155.538 156.447 156.411 155.494 157.004 154.234L157.414 153.913C157.462 153.874 157.519 153.849 157.58 153.841C157.64 153.832 157.702 153.841 157.759 153.866C157.815 153.891 157.863 153.931 157.897 153.982C157.932 154.033 157.952 154.092 157.954 154.153C157.988 155.273 157.764 156.517 157.284 157.883ZM123.544 156.993V157.023C123.549 157.205 123.622 157.377 123.749 157.506C123.875 157.634 124.045 157.708 124.224 157.714C128.704 157.847 131.391 160.447 132.284 165.513C132.371 166 132.901 166.944 133.874 168.344C134.073 168.632 134.378 168.829 134.724 168.893L137.614 169.413C138.058 169.495 138.516 169.432 138.923 169.234C139.329 169.036 139.662 168.714 139.874 168.313C141.701 164.867 142.811 162.743 143.204 161.943C145.164 157.943 147.914 159.283 150.864 158.073C150.968 158.031 151.057 157.957 151.117 157.861C151.177 157.766 151.205 157.654 151.199 157.542C151.192 157.43 151.15 157.322 151.08 157.235C151.009 157.147 150.913 157.084 150.804 157.053C149.451 156.653 148.284 156.563 147.304 156.783C143.144 157.717 139.911 158.17 137.604 158.143C135.264 158.123 131.748 157.567 127.054 156.474C126.548 156.36 125.558 156.34 124.084 156.413C123.935 156.421 123.795 156.487 123.694 156.595C123.593 156.704 123.539 156.847 123.544 156.993Z" fill="#3D261D"/>
<path d="M266.594 162.523L265.674 168.573C260.974 183.373 257.644 194.313 249.924 206.323L234.454 226.553C234.241 226.913 233.948 227.243 233.574 227.543L228.444 232.214C228.418 232.236 228.384 232.248 228.348 232.247C228.313 232.247 228.279 232.234 228.253 232.211C228.228 232.188 228.213 232.157 228.211 232.124C228.209 232.091 228.221 232.059 228.244 232.033C231.564 227.887 234.854 223.747 238.114 219.614C243.488 212.794 247.834 205.363 251.154 197.323C257.194 186.673 259.734 178.083 263.484 165.123C263.849 163.87 264.395 162.674 265.104 161.573C265.598 160.827 265.988 159.983 266.274 159.043C266.294 158.992 266.33 158.949 266.377 158.92C266.424 158.892 266.479 158.879 266.534 158.885C266.588 158.891 266.639 158.914 266.679 158.952C266.719 158.989 266.746 159.039 266.754 159.094C266.888 160.2 266.834 161.343 266.594 162.523Z" fill="#D4AD89"/>
<path d="M116.354 156.053C118.364 159.793 121.015 162.263 125.145 163.943C129.945 165.91 133.351 169.63 135.365 175.104C135.418 175.263 135.448 175.428 135.454 175.594L135.594 179.604C135.61 180.066 135.514 180.525 135.313 180.941C135.113 181.357 134.815 181.718 134.444 181.993C129.764 185.46 124.704 188.107 119.264 189.933C111.574 191.763 104.124 186.694 103.354 178.614C107.424 182.564 108.924 185.963 115.484 187.393C115.645 187.428 115.812 187.41 115.961 187.341C116.109 187.272 116.23 187.157 116.304 187.013C117.791 184.167 118.634 182.133 118.834 180.913C119.534 176.727 119.631 172.047 119.124 166.873C119.019 165.775 118.724 164.703 118.254 163.703C117.044 161.093 115.304 158.833 116.354 156.053Z" fill="#F4E0B4"/>
<path d="M124.084 156.413C125.558 156.34 126.548 156.36 127.054 156.473C131.748 157.567 135.264 158.123 137.604 158.143C139.911 158.17 143.144 157.717 147.304 156.783C148.284 156.563 149.451 156.653 150.804 157.053C150.913 157.084 151.009 157.147 151.08 157.234C151.151 157.322 151.192 157.43 151.199 157.542C151.205 157.654 151.177 157.766 151.117 157.861C151.057 157.957 150.969 158.031 150.864 158.073C147.914 159.283 145.164 157.943 143.204 161.943C142.811 162.743 141.701 164.867 139.874 168.313C139.662 168.714 139.329 169.036 138.923 169.234C138.516 169.432 138.058 169.495 137.614 169.413L134.724 168.893C134.378 168.829 134.073 168.632 133.874 168.343C132.901 166.943 132.371 166 132.284 165.513C131.391 160.447 128.704 157.847 124.224 157.713C124.045 157.708 123.875 157.634 123.749 157.506C123.622 157.377 123.549 157.205 123.544 157.023V156.993C123.539 156.847 123.593 156.704 123.694 156.595C123.795 156.487 123.935 156.421 124.084 156.413Z" fill="#824D37"/>
<path d="M157.285 157.883C157.498 157.643 157.731 157.643 157.985 157.883C158.338 158.23 158.395 158.617 158.155 159.043C156.528 161.93 155.525 165.02 155.145 168.313C154.558 173.36 154.311 179.42 154.405 186.493C154.409 186.728 154.459 186.96 154.554 187.176C154.648 187.391 154.784 187.585 154.955 187.747C155.125 187.909 155.326 188.036 155.546 188.119C155.766 188.203 156 188.241 156.235 188.233C158.655 188.153 159.638 188.757 159.185 190.043C154.835 190.303 151.115 188.673 147.045 186.763C145.105 185.71 143.175 184.59 141.255 183.403C138.875 181.937 137.798 179.737 138.025 176.803C138.285 173.373 141.035 170.113 143.185 168.003C147.365 163.933 153.935 162.583 157.285 157.883Z" fill="#F2D6A8"/>
<path d="M211.655 171.283C214.028 178.61 215.541 185.693 216.195 192.533C216.248 193.1 216.611 193.41 217.285 193.464C217.145 193.464 216.941 193.787 216.675 194.433C215.555 195.747 214.671 196.94 214.025 198.013C210.378 204.14 206.685 210.273 202.945 216.413C202.725 213.713 202.771 211.56 203.085 209.953C204.978 200.293 206.868 190.63 208.755 180.964C209.541 176.937 210.508 173.71 211.655 171.283Z" fill="#A55728"/>
<path d="M101.925 171.864L103.025 178.013C102.099 177.753 101.592 178 101.505 178.753C101.032 183.013 100.622 187.28 100.275 191.553C100.162 192.94 100.295 194.41 100.675 195.964C102.875 205.104 106.479 213.017 111.485 219.703C114.279 223.437 118.082 228.133 122.895 233.793C125.749 237.153 129.062 242.067 132.835 248.533C134.689 251.7 135.789 254.903 136.135 258.143C134.362 257.063 133.162 256.217 132.535 255.604C126.535 249.744 120.432 244.1 114.225 238.673C114.154 238.613 114.069 238.571 113.977 238.552C113.886 238.533 113.791 238.537 113.702 238.564C113.612 238.591 113.531 238.64 113.465 238.706C113.4 238.772 113.351 238.854 113.325 238.943C112.799 240.73 112.612 242.513 112.765 244.293C112.776 244.399 112.756 244.506 112.708 244.601C112.66 244.696 112.587 244.775 112.495 244.83C112.404 244.884 112.299 244.912 112.193 244.909C112.087 244.906 111.983 244.873 111.895 244.813C110.429 243.867 108.992 242.777 107.585 241.543C97.2719 232.45 87.4286 222.77 78.0552 212.503C77.8086 212.23 77.5052 212.1 77.1452 212.114C77.0319 212.12 76.9752 212.247 76.9752 212.493L76.7752 213.263C76.7602 213.327 76.7269 213.384 76.6794 213.428C76.632 213.473 76.5725 213.502 76.5084 213.513C76.4444 213.523 76.3786 213.515 76.3193 213.488C76.2601 213.462 76.2099 213.418 76.1752 213.364C75.1952 211.884 76.9152 208.654 77.8552 207.344C82.0086 201.617 86.2786 195.973 90.6652 190.413C93.4352 186.903 96.7352 181.783 99.5852 177.413C99.9919 176.787 100.355 175.86 100.675 174.633C100.955 173.56 101.372 172.637 101.925 171.864Z" fill="#824D37"/>
<path d="M178.854 183.253C178.588 190.133 177.961 195.037 176.974 197.964C176.194 200.27 174.221 204.187 171.054 209.714C169.388 212.614 166.931 216.25 163.684 220.623C153.531 234.283 147.328 242.51 145.074 245.303C141.774 249.403 140.358 252.983 140.824 256.043L137.944 259.333C137.846 259.448 137.71 259.524 137.56 259.548C137.41 259.571 137.256 259.542 137.124 259.464C136.698 259.204 136.368 258.763 136.134 258.143C135.788 254.903 134.688 251.7 132.834 248.533C129.061 242.067 125.748 237.153 122.894 233.793C118.081 228.133 114.278 223.437 111.484 219.703C106.478 213.017 102.874 205.104 100.674 195.964C100.294 194.41 100.161 192.94 100.274 191.553C100.621 187.28 101.031 183.013 101.504 178.753C101.591 178 102.098 177.753 103.024 178.013C103.104 178.28 103.214 178.48 103.354 178.614C104.124 186.694 111.574 191.763 119.264 189.933C119.078 190.647 119.171 191.367 119.544 192.094C116.754 192.804 110.934 194.124 112.644 198.474C113.264 200.064 112.914 202.503 114.004 204.803C114.038 204.875 114.088 204.937 114.152 204.985C114.215 205.032 114.289 205.063 114.367 205.075C114.445 205.087 114.525 205.079 114.6 205.053C114.674 205.026 114.741 204.982 114.794 204.923C115.541 204.097 116.111 203.89 116.504 204.303C116.557 204.363 116.595 204.431 116.614 204.503L117.944 209.364C117.975 209.469 118.035 209.562 118.118 209.634C118.201 209.705 118.303 209.75 118.412 209.764C118.52 209.778 118.63 209.759 118.728 209.711C118.827 209.663 118.909 209.588 118.964 209.493L119.974 207.753C120.022 207.673 120.09 207.607 120.17 207.561C120.251 207.515 120.342 207.49 120.434 207.49C120.527 207.49 120.617 207.515 120.696 207.561C120.775 207.607 120.84 207.673 120.884 207.753L124.574 214.143C124.626 214.228 124.704 214.295 124.796 214.333C124.888 214.371 124.989 214.379 125.086 214.356C125.183 214.332 125.27 214.279 125.334 214.203C125.398 214.127 125.437 214.033 125.444 213.933C125.491 213.08 125.744 212.197 126.204 211.283C126.282 211.131 126.396 210.999 126.537 210.9C126.677 210.801 126.839 210.737 127.009 210.714C127.179 210.692 127.352 210.711 127.514 210.77C127.675 210.829 127.819 210.926 127.934 211.053C128.714 211.933 129.381 212.75 129.934 213.503C130.181 213.83 130.458 214.037 130.764 214.123C130.951 214.177 131.311 214.147 131.844 214.033C134.014 213.573 135.894 216.524 136.654 218.354C136.691 218.438 136.749 218.512 136.823 218.567C136.896 218.622 136.984 218.656 137.075 218.666C137.167 218.676 137.259 218.662 137.344 218.625C137.428 218.587 137.501 218.528 137.554 218.453C138.904 216.553 140.894 213.193 143.374 213.583C143.584 213.616 143.799 213.588 143.994 213.503C144.189 213.418 144.355 213.28 144.474 213.104L145.474 211.614C145.559 211.483 145.681 211.382 145.824 211.323C146.691 210.963 147.351 211.463 147.804 212.823C147.834 212.913 147.889 212.992 147.963 213.052C148.037 213.111 148.126 213.147 148.22 213.157C148.314 213.166 148.409 213.148 148.493 213.105C148.577 213.062 148.647 212.995 148.694 212.913L150.924 209.053C150.993 208.934 151.09 208.833 151.206 208.76C151.323 208.687 151.456 208.643 151.593 208.634C151.73 208.624 151.868 208.648 151.994 208.703C152.119 208.759 152.23 208.845 152.314 208.953C152.761 209.513 153.041 210.257 153.154 211.183C153.164 211.256 153.196 211.324 153.246 211.377C153.296 211.431 153.361 211.467 153.433 211.481C153.505 211.496 153.579 211.487 153.646 211.457C153.712 211.427 153.768 211.377 153.804 211.313L157.184 205.464C157.259 205.339 157.368 205.238 157.497 205.174C157.627 205.11 157.772 205.086 157.914 205.104L158.754 205.214C158.904 205.233 159.055 205.205 159.185 205.133C159.315 205.061 159.417 204.948 159.474 204.813C161.264 200.723 163.044 197.024 160.054 193.724C159.822 193.459 159.504 193.282 159.154 193.224C154.728 192.444 150.431 191.11 146.264 189.224C146.724 188.75 146.984 187.93 147.044 186.763C151.114 188.673 154.834 190.303 159.184 190.043C169.544 189.433 171.824 181.343 172.924 172.433L178.854 183.253Z" fill="#5A2C1F"/>
<path d="M251.155 197.324C247.835 205.364 243.488 212.794 238.115 219.614C234.855 223.747 231.565 227.887 228.245 232.034C228.222 232.059 228.21 232.091 228.211 232.124C228.213 232.157 228.228 232.188 228.254 232.211C228.279 232.234 228.313 232.247 228.348 232.247C228.384 232.248 228.418 232.236 228.445 232.214L233.575 227.544C231.335 231.017 228.641 233.583 225.495 235.243C224.768 230.077 224.075 224.84 223.415 219.534C222.608 213.054 220.361 204.687 216.675 194.434C216.941 193.787 217.145 193.464 217.285 193.464L224.395 176.434C229.015 176.427 233.438 177.014 237.665 178.194C247.615 180.974 250.585 187.664 251.155 197.324Z" fill="#E2A35E"/>
<path d="M12.0543 179.773L16.8143 191.063L17.5743 193.354C14.7009 188.314 12.4643 182.937 10.8643 177.224L12.0543 179.773Z" fill="#BA9A85"/>
<path d="M16.8147 191.063L12.0547 179.773C14.268 183.107 15.8547 186.87 16.8147 191.063Z" fill="#CEA78B"/>
<path d="M38.8242 228.983C42.6709 233.23 46.9142 236.903 51.5542 240.003C62.2875 248.483 72.3742 255.243 81.8142 260.283C86.8076 262.943 93.3642 265.083 101.484 266.703C102.924 266.993 104.664 268.323 106.374 268.823C112.181 270.543 118.091 271.727 124.104 272.373C138.564 273.947 152.664 273.08 166.404 269.773C177.391 267.133 188.191 263.113 198.804 257.713C209.111 252.473 218.418 245.723 226.724 237.463C238.254 226.003 247.874 215.093 254.394 200.883C257.921 193.19 260.818 185.877 263.084 178.943C263.099 178.899 263.125 178.859 263.159 178.826C263.193 178.794 263.235 178.77 263.28 178.757C263.325 178.745 263.373 178.743 263.419 178.753C263.465 178.763 263.508 178.783 263.544 178.813L263.994 179.183C264.022 179.207 264.042 179.238 264.052 179.271C264.063 179.305 264.064 179.34 264.054 179.373C261.994 185.633 258.904 193.497 254.784 202.963C252.918 207.25 250.421 211.58 247.294 215.953C240.364 225.653 237.584 228.633 229.134 237.513C218.384 248.803 204.964 257.513 191.024 263.453C189.731 264.007 185.744 265.59 179.064 268.203C168.774 272.233 158.024 274.583 148.234 275.163C145.041 275.35 138.294 275.297 127.994 275.003C121.214 274.817 115.604 274.207 111.164 273.173C107.798 272.387 101.921 270.59 93.5342 267.783C82.2642 264.013 72.1042 258.073 62.8142 250.393C61.5942 249.387 59.1742 247.6 55.5542 245.033C49.2075 240.527 43.6309 235.177 38.8242 228.983Z" fill="#A29C9C"/>
<path d="M197.155 212.543C185.942 224.517 174.185 235.797 161.885 246.383C161.705 246.536 161.484 246.632 161.25 246.657C161.016 246.682 160.781 246.635 160.575 246.523C160.515 246.497 160.418 246.343 160.285 246.063L160.765 239.323C160.772 239.236 160.753 239.149 160.709 239.074C160.666 238.998 160.6 238.937 160.521 238.898C160.442 238.86 160.352 238.845 160.264 238.857C160.176 238.869 160.093 238.906 160.025 238.964L140.825 256.043C140.358 252.983 141.775 249.403 145.075 245.303C147.328 242.51 153.532 234.283 163.685 220.623C166.932 216.25 169.388 212.614 171.055 209.714C174.222 204.187 176.195 200.27 176.975 197.964C177.962 195.037 178.588 190.133 178.855 183.253C183.982 191.073 189.422 198.647 195.175 205.974C195.822 206.8 196.905 208.674 198.425 211.594C198.46 211.663 198.48 211.738 198.485 211.814C198.49 211.889 198.48 211.964 198.455 212.033C198.255 212.54 197.822 212.71 197.155 212.543Z" fill="#693623"/>
<path d="M146.265 189.223C150.432 191.11 154.728 192.443 159.155 193.223C159.504 193.282 159.822 193.459 160.055 193.723C163.045 197.023 161.265 200.723 159.475 204.813C159.417 204.948 159.316 205.061 159.186 205.133C159.056 205.205 158.904 205.233 158.755 205.213L157.915 205.103C157.772 205.086 157.627 205.11 157.498 205.174C157.368 205.238 157.259 205.339 157.185 205.463L153.805 211.313C153.768 211.377 153.713 211.427 153.646 211.457C153.579 211.487 153.505 211.496 153.433 211.481C153.362 211.467 153.296 211.431 153.246 211.377C153.196 211.324 153.164 211.256 153.155 211.183C153.041 210.257 152.762 209.513 152.315 208.953C152.23 208.845 152.12 208.759 151.994 208.703C151.868 208.648 151.731 208.624 151.593 208.634C151.456 208.643 151.323 208.687 151.207 208.76C151.09 208.833 150.993 208.934 150.925 209.053L148.695 212.913C148.648 212.995 148.578 213.062 148.494 213.105C148.41 213.148 148.315 213.166 148.221 213.157C148.127 213.147 148.037 213.111 147.963 213.052C147.89 212.992 147.835 212.913 147.805 212.823C147.352 211.463 146.692 210.963 145.825 211.323C145.681 211.382 145.559 211.483 145.475 211.613L144.475 213.103C144.356 213.28 144.189 213.418 143.995 213.503C143.8 213.588 143.585 213.616 143.375 213.583C140.895 213.193 138.905 216.553 137.555 218.453C137.501 218.528 137.428 218.587 137.344 218.625C137.26 218.662 137.167 218.676 137.076 218.666C136.984 218.656 136.897 218.622 136.823 218.567C136.749 218.512 136.691 218.438 136.655 218.353C135.895 216.523 134.015 213.573 131.845 214.033C131.312 214.147 130.952 214.177 130.765 214.123C130.458 214.037 130.181 213.83 129.935 213.503C129.381 212.75 128.715 211.933 127.935 211.053C127.82 210.926 127.675 210.829 127.514 210.77C127.353 210.711 127.18 210.692 127.009 210.714C126.839 210.737 126.677 210.8 126.537 210.9C126.397 210.999 126.283 211.13 126.205 211.283C125.745 212.197 125.492 213.08 125.445 213.933C125.437 214.033 125.399 214.127 125.334 214.203C125.27 214.279 125.183 214.332 125.086 214.356C124.99 214.379 124.888 214.371 124.796 214.333C124.704 214.295 124.627 214.228 124.575 214.143L120.885 207.753C120.84 207.673 120.775 207.607 120.696 207.561C120.617 207.515 120.527 207.49 120.435 207.49C120.343 207.49 120.251 207.515 120.171 207.561C120.09 207.607 120.022 207.673 119.975 207.753L118.965 209.493C118.909 209.587 118.827 209.663 118.729 209.711C118.631 209.759 118.521 209.778 118.412 209.764C118.304 209.75 118.202 209.705 118.119 209.634C118.036 209.562 117.975 209.469 117.945 209.363L116.615 204.503C116.595 204.431 116.557 204.363 116.505 204.303C116.112 203.89 115.542 204.097 114.795 204.923C114.742 204.982 114.675 205.026 114.6 205.053C114.526 205.079 114.446 205.087 114.368 205.075C114.29 205.063 114.216 205.032 114.152 204.985C114.089 204.937 114.038 204.875 114.005 204.803C112.915 202.503 113.265 200.063 112.645 198.473C110.935 194.123 116.755 192.803 119.545 192.093C120.945 191.723 122.315 191.363 123.685 190.693C131.252 187.013 138.778 186.523 146.265 189.223Z" fill="#F2D6A8"/>
<path d="M21.0645 198.523L24.7645 206.854C21.9445 202.587 19.5478 198.087 17.5744 193.354L16.8145 191.063L21.0645 198.523Z" fill="#CEA78B"/>
<path d="M76.6146 218.303C80.028 220.123 82.6813 222.127 84.5746 224.313C90.1346 230.74 95.738 237.13 101.385 243.484C107.595 250.464 112.985 257.773 118.605 265.123L123.775 268.173C124.081 268.347 124.331 268.43 124.525 268.423L122.325 268.234L118.845 266.913C112.238 265.16 105.588 263.64 98.8947 262.354C98.6613 262.314 98.3713 262.377 98.0246 262.543C85.9313 259.403 74.5313 254.577 63.8246 248.063C60.6246 246.11 55.6046 241.917 48.7646 235.484L48.9746 230.163C48.9946 229.778 49.0652 229.399 49.1846 229.033C49.8546 227.043 49.7446 224.914 50.1046 222.734C51.8746 212.124 53.7246 203.053 57.8646 193.743C60.0146 196.003 61.9946 199.353 64.0146 200.993C66.8346 203.273 67.4546 206.453 69.2946 209.773C70.1813 211.373 72.008 214.83 74.7746 220.143C74.8439 220.28 74.9454 220.397 75.0704 220.486C75.1954 220.574 75.3401 220.631 75.4918 220.65C75.6436 220.67 75.7979 220.652 75.9413 220.599C76.0846 220.545 76.2128 220.458 76.3147 220.344C76.568 220.064 76.668 219.383 76.6146 218.303Z" fill="#CF8D45"/>
<path d="M216.674 194.433C220.361 204.687 222.608 213.053 223.414 219.533C224.074 224.84 224.768 230.077 225.494 235.243C224.588 236.703 223.608 237.713 222.554 238.273C222.513 238.294 222.467 238.304 222.42 238.301C222.374 238.298 222.33 238.283 222.292 238.257C222.255 238.231 222.226 238.195 222.209 238.154C222.191 238.113 222.186 238.068 222.194 238.023C222.241 237.723 222.218 237.463 222.124 237.243C221.971 236.883 221.628 236.76 221.094 236.873C220.628 236.973 220.188 237.12 219.774 237.313C212.294 241.607 204.778 245.82 197.224 249.953C187.011 255.547 176.204 259.527 164.804 261.893C160.694 262.743 153.304 263.934 149.394 261.864C142.374 258.154 158.024 247.633 160.284 246.063C160.418 246.343 160.514 246.497 160.574 246.523C160.78 246.635 161.015 246.682 161.249 246.657C161.483 246.632 161.704 246.536 161.884 246.383C174.184 235.797 185.941 224.517 197.154 212.543L197.494 223.143C197.495 223.213 197.517 223.281 197.559 223.336C197.601 223.392 197.66 223.432 197.728 223.452C197.795 223.472 197.868 223.47 197.936 223.447C198.003 223.424 198.062 223.381 198.104 223.323L202.944 216.413C206.684 210.273 210.378 204.14 214.024 198.013C214.671 196.94 215.554 195.747 216.674 194.433Z" fill="#BC6D32"/>
<path d="M31.7244 217.484L24.7645 206.854L21.0645 198.523L35.8445 222.094C35.8615 222.115 35.8742 222.14 35.8816 222.167C35.8891 222.193 35.8913 222.221 35.888 222.248C35.8848 222.276 35.8762 222.302 35.8627 222.326C35.8492 222.35 35.8311 222.371 35.8094 222.388C35.7878 222.405 35.763 222.418 35.7364 222.426C35.7099 222.433 35.6821 222.435 35.6547 222.432C35.6273 222.429 35.6008 222.42 35.5768 222.407C35.5527 222.393 35.5315 222.375 35.5145 222.354C34.0811 220.907 32.8178 219.284 31.7244 217.484Z" fill="#D4AD89"/>
<path d="M249.925 206.323C246.672 213.897 242.045 220.487 236.045 226.094L238.395 222.984C238.398 222.978 238.401 222.973 238.401 222.967C238.402 222.961 238.402 222.954 238.4 222.949C238.398 222.943 238.395 222.937 238.39 222.933C238.386 222.929 238.381 222.925 238.375 222.923C238.355 222.923 238.335 222.923 238.315 222.923C238.283 222.923 238.249 222.931 238.215 222.947C238.181 222.962 238.147 222.985 238.115 223.013L234.455 226.553L249.925 206.323Z" fill="#BA9A85"/>
<path d="M136.134 258.143C136.368 258.763 136.698 259.203 137.124 259.463C137.256 259.542 137.41 259.571 137.56 259.548C137.71 259.524 137.846 259.448 137.944 259.333L140.824 256.043L160.024 238.963C160.092 238.906 160.175 238.868 160.263 238.857C160.352 238.845 160.441 238.86 160.52 238.898C160.6 238.937 160.665 238.998 160.709 239.074C160.752 239.149 160.771 239.236 160.764 239.323L160.284 246.063C158.024 247.633 142.374 258.153 149.394 261.863C153.304 263.933 160.694 262.743 164.804 261.893C176.204 259.527 187.011 255.547 197.224 249.953C204.778 245.82 212.294 241.607 219.774 237.313C214.734 241.927 208.498 246.153 201.064 249.993C187.051 257.24 173.041 262.307 159.034 265.193C150.284 267.003 141.014 267.013 132.084 267.393C127.384 267.533 122.891 266.777 118.604 265.123C112.984 257.773 107.594 250.463 101.384 243.483C95.7376 237.13 90.1343 230.74 84.5743 224.313C82.6809 222.127 80.0276 220.123 76.6143 218.303L76.9743 212.493C76.9743 212.247 77.0309 212.12 77.1443 212.113C77.5043 212.1 77.8076 212.23 78.0543 212.503C87.4276 222.77 97.2709 232.45 107.584 241.543C108.991 242.777 110.428 243.867 111.894 244.813C111.982 244.873 112.086 244.906 112.192 244.909C112.298 244.912 112.403 244.884 112.494 244.83C112.586 244.775 112.659 244.696 112.707 244.601C112.755 244.506 112.775 244.399 112.764 244.293C112.611 242.513 112.798 240.73 113.324 238.943C113.35 238.854 113.399 238.772 113.464 238.706C113.53 238.639 113.611 238.591 113.701 238.564C113.79 238.537 113.885 238.533 113.977 238.552C114.068 238.571 114.153 238.613 114.224 238.673C120.431 244.1 126.534 249.743 132.534 255.603C133.161 256.217 134.361 257.063 136.134 258.143Z" fill="#CD7839"/>
<path d="M236.045 226.094C233.385 229.084 230.805 232.153 227.865 234.833C221.775 240.373 215.785 246.103 208.845 250.263C204.258 253.01 199.545 255.52 194.705 257.793L203.355 252.344C203.358 252.341 203.361 252.337 203.362 252.334C203.364 252.33 203.365 252.327 203.365 252.323L203.205 252.073C203.175 252.03 203.131 251.998 203.081 251.985C203.031 251.972 202.979 251.979 202.935 252.003C195.635 255.91 188.082 259.274 180.275 262.094C178.082 262.534 175.855 263.07 173.595 263.703C165.702 265.903 157.695 267.59 149.575 268.763L136.435 269.183L133.835 268.623C133.855 268.15 133.272 267.74 132.085 267.393C141.015 267.013 150.285 267.003 159.035 265.193C173.042 262.307 187.052 257.24 201.065 249.993C208.498 246.153 214.735 241.927 219.775 237.313C220.188 237.12 220.628 236.973 221.095 236.873C221.628 236.76 221.972 236.883 222.125 237.243C222.218 237.463 222.242 237.723 222.195 238.023C222.187 238.068 222.192 238.113 222.209 238.154C222.227 238.195 222.256 238.231 222.293 238.257C222.33 238.283 222.375 238.298 222.421 238.301C222.467 238.304 222.514 238.294 222.555 238.273C223.608 237.713 224.588 236.703 225.495 235.243C228.642 233.583 231.335 231.017 233.575 227.543C233.948 227.243 234.242 226.913 234.455 226.553L238.115 223.013C238.147 222.985 238.181 222.962 238.215 222.947C238.249 222.931 238.283 222.923 238.315 222.923C238.335 222.923 238.355 222.923 238.375 222.923C238.381 222.925 238.386 222.929 238.39 222.933C238.395 222.937 238.398 222.943 238.4 222.949C238.402 222.954 238.402 222.961 238.401 222.967C238.401 222.973 238.398 222.978 238.395 222.984L236.045 226.094ZM220.512 240.093C220.483 240.056 220.426 240.041 220.343 240.05C220.26 240.058 220.154 240.09 220.03 240.143C219.905 240.197 219.766 240.271 219.619 240.361C219.473 240.451 219.322 240.555 219.175 240.668C219.029 240.781 218.889 240.9 218.764 241.019C218.64 241.138 218.533 241.254 218.45 241.36C218.366 241.466 218.308 241.561 218.279 241.639C218.249 241.717 218.249 241.776 218.278 241.814C218.307 241.851 218.364 241.866 218.447 241.857C218.53 241.849 218.636 241.817 218.76 241.763C218.885 241.71 219.024 241.636 219.17 241.546C219.317 241.456 219.468 241.352 219.615 241.239C219.761 241.126 219.901 241.006 220.025 240.888C220.15 240.769 220.257 240.653 220.34 240.547C220.424 240.44 220.482 240.346 220.511 240.268C220.541 240.19 220.541 240.131 220.512 240.093Z" fill="#B16B40"/>
<path d="M47.545 235.133L51.5549 240.003C46.9149 236.903 42.6716 233.23 38.825 228.983C38.1116 227.797 37.6249 226.61 37.3649 225.423C37.3534 225.37 37.3599 225.313 37.3835 225.264C37.4071 225.214 37.4465 225.173 37.4955 225.148C37.5445 225.123 37.6004 225.115 37.6546 225.125C37.7087 225.135 37.7581 225.163 37.795 225.203L47.545 235.133Z" fill="#949491"/>
<path d="M48.7649 235.484C55.6049 241.917 60.6249 246.11 63.8249 248.063C74.5316 254.577 85.9316 259.403 98.0249 262.543L108.295 266.063L95.1449 262.543L92.0149 261.553C91.4416 261.367 90.8683 261.187 90.2949 261.013H90.2849C90.8583 261.207 91.4349 261.387 92.0149 261.553L95.1449 262.543C98.4249 264.323 102.118 265.777 106.225 266.903C121.875 271.203 137.645 271.814 153.465 269.984C159.358 269.644 164.495 268.47 168.875 266.464C172.442 264.85 176.248 263.673 180.295 262.933C180.042 263.007 179.848 263.163 179.715 263.403C179.648 263.53 179.632 263.65 179.665 263.763C179.712 263.897 179.808 263.97 179.955 263.984C168.355 268.77 156.888 271.573 145.555 272.393C139.848 272.8 132.698 272.793 124.105 272.373C118.092 271.727 112.182 270.543 106.375 268.823C104.665 268.323 102.925 266.993 101.485 266.703C93.3649 265.083 86.8083 262.943 81.8149 260.283C72.3749 255.243 62.2882 248.483 51.5549 240.003L47.5449 235.133C48.1249 235.16 48.5316 235.277 48.7649 235.484Z" fill="#BA9A85"/>
<path d="M219.614 241.239C220.231 240.764 220.633 240.251 220.512 240.093C220.39 239.936 219.792 240.193 219.175 240.668C218.558 241.143 218.156 241.656 218.277 241.814C218.399 241.971 218.997 241.714 219.614 241.239Z" fill="#B97E51"/>
<path d="M194.705 257.793L179.955 263.984C179.808 263.97 179.712 263.897 179.665 263.763C179.632 263.65 179.648 263.53 179.715 263.403C179.848 263.163 180.042 263.007 180.295 262.933L180.605 262.594C180.63 262.564 180.648 262.529 180.657 262.491C180.666 262.453 180.666 262.414 180.658 262.376C180.649 262.338 180.632 262.303 180.607 262.273C180.582 262.243 180.551 262.219 180.515 262.204L180.275 262.094C188.082 259.274 195.635 255.91 202.935 252.003C202.979 251.979 203.031 251.972 203.081 251.985C203.131 251.998 203.176 252.03 203.205 252.074L203.365 252.324C203.365 252.327 203.364 252.33 203.363 252.334C203.361 252.337 203.358 252.341 203.355 252.344L194.705 257.793Z" fill="#A27F6B"/>
<path d="M92.0152 261.553C91.4352 261.387 90.8585 261.207 90.2852 261.013H90.2952C90.8685 261.187 91.4418 261.367 92.0152 261.553Z" fill="#B58D6B"/>
<path d="M118.844 266.913C111.838 265.973 104.898 264.517 98.0244 262.543C98.3711 262.377 98.6611 262.314 98.8944 262.354C105.588 263.64 112.238 265.16 118.844 266.913Z" fill="#D59659"/>
<path d="M180.294 262.933C176.248 263.673 172.441 264.85 168.874 266.464C167.641 266.33 166.301 266.457 164.854 266.844L149.574 268.763C157.694 267.59 165.701 265.903 173.594 263.703C175.854 263.07 178.081 262.534 180.274 262.094L180.514 262.203C180.55 262.219 180.581 262.243 180.606 262.273C180.631 262.303 180.648 262.338 180.657 262.376C180.666 262.414 180.665 262.453 180.656 262.491C180.647 262.529 180.629 262.564 180.604 262.594L180.294 262.933Z" fill="#AD724D"/>
<path d="M108.295 266.063L122.325 268.234L123.995 269.123C124.002 269.125 124.01 269.129 124.014 269.136C124.019 269.142 124.021 269.15 124.02 269.158C124.018 269.166 124.014 269.174 124.007 269.178C124.001 269.183 123.992 269.185 123.985 269.183L123.735 269.203C123.697 269.2 123.66 269.212 123.633 269.236C123.605 269.261 123.589 269.296 123.588 269.334C123.587 269.372 123.6 269.41 123.626 269.44C123.651 269.469 123.687 269.489 123.725 269.493C125.665 270.04 127.665 270.353 129.725 270.433C137.698 270.727 145.611 270.577 153.465 269.984C137.645 271.814 121.875 271.203 106.225 266.903C102.118 265.777 98.4245 264.323 95.1445 262.543L108.295 266.063Z" fill="#B58D6B"/>
<path d="M118.844 266.913L122.324 268.234L108.294 266.063L98.0244 262.543C104.898 264.517 111.838 265.973 118.844 266.913Z" fill="#B97E51"/>
<path d="M132.085 267.393C133.271 267.74 133.855 268.15 133.835 268.623L123.774 268.173L118.604 265.123C122.891 266.777 127.385 267.533 132.085 267.393Z" fill="#B97E51"/>
<path d="M153.464 269.984C145.611 270.577 137.698 270.727 129.724 270.433C127.664 270.353 125.664 270.04 123.724 269.493C123.686 269.489 123.651 269.469 123.625 269.44C123.6 269.41 123.586 269.372 123.588 269.334C123.589 269.296 123.605 269.261 123.632 269.236C123.66 269.212 123.696 269.2 123.734 269.204L123.984 269.183C123.992 269.185 124 269.183 124.007 269.178C124.013 269.174 124.018 269.166 124.019 269.158C124.021 269.151 124.019 269.142 124.014 269.136C124.009 269.129 124.002 269.125 123.994 269.123L122.324 268.234L124.524 268.423C138.184 270.977 151.628 270.45 164.854 266.844C166.301 266.457 167.641 266.33 168.874 266.464C164.494 268.47 159.358 269.644 153.464 269.984ZM167.024 267.224C167.024 267.205 167.017 267.187 167.004 267.174C166.991 267.161 166.973 267.153 166.954 267.153C166.936 267.153 166.918 267.161 166.905 267.174C166.892 267.187 166.884 267.205 166.884 267.224C166.884 267.242 166.892 267.26 166.905 267.273C166.918 267.286 166.936 267.293 166.954 267.293C166.973 267.293 166.991 267.286 167.004 267.273C167.017 267.26 167.024 267.242 167.024 267.224Z" fill="#A27F6B"/>
<path d="M164.854 266.844C151.628 270.45 138.184 270.977 124.524 268.423C124.331 268.43 124.081 268.347 123.774 268.173L133.834 268.623L136.434 269.183C140.928 269.73 145.308 269.59 149.574 268.763L164.854 266.844Z" fill="#9E734F"/>
<path d="M166.955 267.293C166.993 267.293 167.025 267.262 167.025 267.224C167.025 267.185 166.993 267.153 166.955 267.153C166.916 267.153 166.885 267.185 166.885 267.224C166.885 267.262 166.916 267.293 166.955 267.293Z" fill="#B58D6B"/>
<path d="M149.575 268.763C145.308 269.59 140.928 269.73 136.435 269.183L149.575 268.763Z" fill="#AD724D"/>
</svg>
