<svg width="265" height="264" viewBox="0 0 265 264" fill="none" xmlns="http://www.w3.org/2000/svg">
<path d="M263.542 118.132C264.909 130.166 264.312 142.259 261.752 154.412C260.006 162.779 257.609 171.029 254.562 179.162C246.975 196.636 236.366 211.886 222.732 224.912C219.706 227.806 214.952 231.689 208.472 236.562L207.302 224.572L207.032 221.092C205.539 208.466 202.455 196.179 197.782 184.232C195.569 178.572 192.819 173.199 189.532 168.113C189.512 167.193 189.979 166.599 190.932 166.333C190.979 166.319 191.033 166.312 191.092 166.312L203.762 166.893C204.013 166.904 204.263 166.852 204.487 166.739C204.712 166.627 204.904 166.459 205.046 166.252C205.187 166.044 205.273 165.804 205.295 165.554C205.317 165.303 205.275 165.052 205.172 164.822L202.842 159.632C202.78 159.488 202.767 159.326 202.807 159.173C202.846 159.02 202.936 158.885 203.061 158.789C203.186 158.692 203.339 158.641 203.497 158.641C203.655 158.642 203.808 158.695 203.932 158.792C204.892 159.552 205.816 160.066 206.702 160.333C206.861 160.38 207.032 160.377 207.189 160.322C207.346 160.268 207.482 160.165 207.577 160.029C207.673 159.892 207.722 159.729 207.72 159.563C207.717 159.397 207.662 159.236 207.562 159.102L204.342 154.782C204.275 154.695 204.235 154.59 204.228 154.48C204.221 154.37 204.248 154.261 204.304 154.166C204.36 154.071 204.443 153.995 204.542 153.948C204.642 153.901 204.753 153.885 204.862 153.902C207.929 154.329 210.926 155.239 213.852 156.632C213.923 156.665 214.001 156.677 214.078 156.667C214.154 156.656 214.225 156.623 214.282 156.572C214.662 156.226 214.609 155.669 214.122 154.902C212.529 138.509 206.906 123.679 197.252 110.412C197.161 110.285 197.106 110.135 197.092 109.981C197.078 109.826 197.106 109.671 197.172 109.532C202.986 97.2858 205.865 83.8925 205.812 69.3525C205.779 59.5658 205.676 53.4092 205.502 50.8825C205.202 46.1125 203.752 26.9225 194.782 29.8925C192.109 30.7725 189.272 32.2025 186.272 34.1825C179.112 38.9025 172.679 44.6525 166.972 51.4325C161.099 57.8391 155.752 64.8091 150.932 72.3425C150.857 72.4612 150.742 72.5499 150.607 72.5937C150.472 72.6374 150.326 72.6335 150.192 72.5825C144.679 70.3892 138.639 69.5458 132.072 70.0525C126.319 69.6925 120.432 70.3858 114.412 72.1325C113.912 72.2792 113.415 72.0125 112.922 71.3325C108.215 63.8592 102.932 57.0558 97.0722 50.9225C94.4455 47.5758 91.8488 44.8458 89.2822 42.7325C84.2222 38.5725 80.2388 35.5825 77.3322 33.7625C73.5255 31.3892 70.6022 29.9558 68.5622 29.4625C65.2688 28.6758 63.1522 29.8458 62.2122 32.9725C59.5122 41.9725 58.2255 51.6658 58.3522 62.0525C57.6122 74.1125 58.9722 85.8692 62.4322 97.3225C63.6188 101.249 64.8888 105.219 66.2422 109.232C66.3651 109.595 66.4116 109.979 66.3789 110.361C66.3462 110.743 66.235 111.115 66.0522 111.452C65.6988 112.119 64.2388 114.596 61.6722 118.882C55.4622 129.252 52.5722 140.833 50.7222 152.673C50.3022 153.153 50.0822 153.706 50.0622 154.333C50.062 154.376 50.0718 154.42 50.0907 154.462C50.1097 154.503 50.1374 154.541 50.1722 154.572C50.5588 154.906 51.1822 154.729 52.0422 154.042C52.0422 157.812 54.2022 159.023 56.5822 161.023C57.0513 161.412 57.4414 161.884 57.7322 162.412C58.5222 163.842 58.9522 165.813 60.2522 166.613C61.4388 167.346 62.7622 167.739 64.2222 167.792C66.9822 167.899 70.4788 168.326 74.7122 169.072C72.3455 172.419 70.3688 175.969 68.7822 179.722C64.1488 190.689 60.7222 202.022 58.5022 213.722C57.3422 219.842 55.8722 226.642 55.7422 232.872C55.7222 233.926 55.6588 235.099 55.5522 236.393C41.5655 226.353 29.9055 214.199 20.5722 199.932C12.7922 188.042 7.64217 174.682 3.76217 161.072C1.02217 148.852 -0.221173 136.226 0.0321601 123.192C1.67216 101.652 8.14883 81.6125 19.4622 63.0725C33.2288 41.1525 51.2255 24.7592 73.4522 13.8925C98.5322 1.62583 124.749 -2.51751 152.102 1.46249C177.356 5.13582 199.945 15.6791 219.872 33.0925C222.832 35.6791 226.586 39.4591 231.132 44.4325C249.702 64.7525 260.492 90.6625 263.542 118.132Z" fill="#E7D7BF"/>
<path d="M263.542 118.132C264.909 130.166 264.312 142.259 261.752 154.412C260.006 162.779 257.609 171.029 254.562 179.162C246.975 196.636 236.366 211.886 222.732 224.912C219.706 227.806 214.952 231.689 208.472 236.562L207.302 224.572L207.032 221.092C205.539 208.466 202.455 196.179 197.782 184.232C195.569 178.572 192.819 173.199 189.532 168.113C189.512 167.193 189.979 166.599 190.932 166.333C190.979 166.319 191.033 166.312 191.092 166.312L203.762 166.893C204.013 166.904 204.263 166.852 204.487 166.739C204.712 166.627 204.904 166.459 205.046 166.252C205.187 166.044 205.273 165.804 205.295 165.554C205.317 165.303 205.275 165.052 205.172 164.822L202.842 159.632C202.78 159.488 202.767 159.326 202.807 159.173C202.846 159.02 202.936 158.885 203.061 158.789C203.186 158.692 203.339 158.641 203.497 158.641C203.655 158.642 203.808 158.695 203.932 158.792C204.892 159.552 205.816 160.066 206.702 160.333C206.861 160.38 207.032 160.377 207.189 160.322C207.346 160.268 207.482 160.165 207.577 160.029C207.673 159.892 207.722 159.729 207.72 159.563C207.717 159.397 207.662 159.236 207.562 159.102L204.342 154.782C204.275 154.695 204.235 154.59 204.228 154.48C204.221 154.37 204.248 154.261 204.304 154.166C204.36 154.071 204.443 153.995 204.542 153.948C204.642 153.901 204.753 153.885 204.862 153.902C207.929 154.329 210.926 155.239 213.852 156.632C213.923 156.665 214.001 156.677 214.078 156.667C214.154 156.656 214.225 156.623 214.282 156.572C214.662 156.226 214.609 155.669 214.122 154.902C212.529 138.509 206.906 123.679 197.252 110.412C197.161 110.285 197.106 110.135 197.092 109.981C197.078 109.826 197.106 109.671 197.172 109.532C202.986 97.2858 205.865 83.8925 205.812 69.3525C205.779 59.5658 205.676 53.4092 205.502 50.8825C205.202 46.1125 203.752 26.9225 194.782 29.8925C192.109 30.7725 189.272 32.2025 186.272 34.1825C179.112 38.9025 172.679 44.6525 166.972 51.4325C161.099 57.8391 155.752 64.8091 150.932 72.3425C150.857 72.4612 150.742 72.5499 150.607 72.5937C150.472 72.6374 150.326 72.6335 150.192 72.5825C144.679 70.3892 138.639 69.5458 132.072 70.0525C126.319 69.6925 120.432 70.3858 114.412 72.1325C113.912 72.2792 113.415 72.0125 112.922 71.3325C108.215 63.8592 102.932 57.0558 97.0722 50.9225C94.4455 47.5758 91.8488 44.8458 89.2822 42.7325C84.2222 38.5725 80.2388 35.5825 77.3322 33.7625C73.5255 31.3892 70.6022 29.9558 68.5622 29.4625C65.2688 28.6758 63.1522 29.8458 62.2122 32.9725C59.5122 41.9725 58.2255 51.6658 58.3522 62.0525C57.6122 74.1125 58.9722 85.8692 62.4322 97.3225C63.6188 101.249 64.8888 105.219 66.2422 109.232C66.3651 109.595 66.4116 109.979 66.3789 110.361C66.3462 110.743 66.235 111.115 66.0522 111.452C65.6988 112.119 64.2388 114.596 61.6722 118.882C55.4622 129.252 52.5722 140.833 50.7222 152.673C50.3022 153.153 50.0822 153.706 50.0622 154.333C50.062 154.376 50.0718 154.42 50.0907 154.462C50.1097 154.503 50.1374 154.541 50.1722 154.572C50.5588 154.906 51.1822 154.729 52.0422 154.042C52.0422 157.812 54.2022 159.023 56.5822 161.023C57.0513 161.412 57.4414 161.884 57.7322 162.412C58.5222 163.842 58.9522 165.813 60.2522 166.613C61.4388 167.346 62.7622 167.739 64.2222 167.792C66.9822 167.899 70.4788 168.326 74.7122 169.072C72.3455 172.419 70.3688 175.969 68.7822 179.722C64.1488 190.689 60.7222 202.022 58.5022 213.722C57.3422 219.842 55.8722 226.642 55.7422 232.872C55.7222 233.926 55.6588 235.099 55.5522 236.393C41.5655 226.353 29.9055 214.199 20.5722 199.932C12.7922 188.042 7.64217 174.682 3.76217 161.072C1.02217 148.852 -0.221173 136.226 0.0321601 123.192C1.67216 101.652 8.14883 81.6125 19.4622 63.0725C33.2288 41.1525 51.2255 24.7592 73.4522 13.8925C98.5322 1.62583 124.749 -2.51751 152.102 1.46249C177.356 5.13582 199.945 15.6791 219.872 33.0925C222.832 35.6791 226.586 39.4591 231.132 44.4325C249.702 64.7525 260.492 90.6625 263.542 118.132Z" fill="#E7D7BF"/>
<path d="M97.0723 50.9226L88.8223 51.1326C88.4892 51.1457 88.1666 51.2532 87.8923 51.4426C87.4056 51.7692 86.9056 51.9892 86.3923 52.1026C82.8189 47.8426 78.9756 43.8559 74.8623 40.1426C71.2923 36.9126 65.5723 33.8126 63.6723 40.7226C61.9523 46.9692 60.5023 54.4826 59.3223 63.2626C59.3145 63.3358 59.2838 63.4048 59.2345 63.4596C59.1853 63.5144 59.1199 63.5522 59.0479 63.5677C58.9759 63.5833 58.9008 63.5756 58.8333 63.546C58.7659 63.5163 58.7095 63.4661 58.6723 63.4025C58.4989 63.1225 58.3923 62.6726 58.3523 62.0526C58.2256 51.6659 59.5123 41.9726 62.2123 32.9726C63.1523 29.8459 65.2689 28.6759 68.5623 29.4625C70.6023 29.9559 73.5256 31.3892 77.3323 33.7626C80.2389 35.5826 84.2223 38.5726 89.2823 42.7326C91.8489 44.8459 94.4456 47.5759 97.0723 50.9226Z" fill="#693623"/>
<path d="M205.503 50.8826C205.736 53.4026 205.586 55.7426 205.053 57.9026C205.031 57.9872 204.983 58.0625 204.915 58.117C204.847 58.1715 204.762 58.2022 204.675 58.2044C204.588 58.2067 204.502 58.1804 204.432 58.1295C204.361 58.0786 204.308 58.006 204.283 57.9226C202.353 50.9026 201.203 44.5426 196.983 37.9826C196.681 37.5109 196.225 37.1584 195.693 36.9852C195.16 36.8119 194.584 36.8287 194.063 37.0326C187.183 39.7026 181.403 46.1426 176.923 52.4126C176.793 52.5928 176.616 52.7332 176.411 52.818C176.206 52.9028 175.982 52.9287 175.763 52.8926L166.973 51.4326C172.679 44.6526 179.113 38.9026 186.273 34.1826C189.273 32.2026 192.109 30.7726 194.783 29.8926C203.753 26.9226 205.203 46.1126 205.503 50.8826Z" fill="#5A2C1F"/>
<path d="M86.3927 52.1025L88.1727 55.0525L75.1127 52.8925L70.3927 49.0525C70.3403 49.0097 70.2776 48.9813 70.2109 48.97C70.1442 48.9587 70.0757 48.965 70.0122 48.9882C69.9486 49.0114 69.8922 49.0507 69.8485 49.1023C69.8047 49.1539 69.7752 49.216 69.7627 49.2825C67.996 58.3025 67.3927 67.4192 67.9527 76.6325C68.426 84.2992 71.3393 91.3392 76.6927 97.7525C76.7298 97.7985 76.7767 97.8357 76.83 97.8616C76.8834 97.8874 76.942 97.9013 77.0019 97.9023C77.0617 97.9032 77.1214 97.8912 77.1767 97.8671C77.2321 97.843 77.2819 97.8073 77.3227 97.7625C80.0827 94.7325 83.0527 91.2425 86.4027 88.8025C87.4293 88.0559 88.5127 87.2859 89.6527 86.4925C90.3327 86.2992 90.996 85.8459 91.6427 85.1325C91.8152 84.9468 92.0137 84.7852 92.2327 84.6525L97.4627 81.5925C97.8472 81.3648 98.1697 81.0459 98.4017 80.6639C98.6336 80.282 98.7679 79.8487 98.7927 79.4025L98.9827 75.8725L99.2527 78.7025C99.2641 78.8224 99.3047 78.9376 99.3708 79.0382C99.4369 79.1388 99.5265 79.2218 99.632 79.2799C99.7374 79.338 99.8554 79.3695 99.9757 79.3717C100.096 79.3739 100.215 79.3468 100.323 79.2925L112.413 73.2525C112.552 73.1839 112.674 73.083 112.768 72.9579C112.862 72.8328 112.925 72.6871 112.953 72.5325C113.013 72.1725 113.003 71.7725 112.923 71.3325C113.416 72.0125 113.913 72.2792 114.413 72.1325C120.433 70.3859 126.319 69.6925 132.073 70.0525L132.543 164.103C132.543 164.259 132.578 164.414 132.645 164.556C132.711 164.698 132.808 164.823 132.927 164.924C133.047 165.025 133.188 165.098 133.339 165.14C133.49 165.181 133.648 165.189 133.803 165.163C136.463 164.723 138.226 165.829 139.093 168.483C136.026 167.049 132.966 166.463 129.913 166.723C126.413 167.029 123.719 168.519 121.833 171.193C119.926 168.839 116.936 167.043 112.863 165.803C112.599 165.721 112.322 165.694 112.048 165.724C111.774 165.753 111.509 165.839 111.269 165.974C111.03 166.11 110.82 166.294 110.654 166.514C110.488 166.733 110.368 166.985 110.303 167.253L109.323 171.163C109.299 171.248 109.246 171.322 109.175 171.374C109.103 171.426 109.015 171.451 108.927 171.447C108.838 171.442 108.754 171.407 108.688 171.348C108.622 171.29 108.577 171.21 108.563 171.123L107.853 165.413L108.963 166.863C109.018 166.933 109.093 166.986 109.178 167.016C109.263 167.045 109.354 167.049 109.442 167.028C109.529 167.007 109.608 166.962 109.671 166.897C109.733 166.832 109.775 166.751 109.793 166.663C109.866 166.249 110.023 165.929 110.263 165.703C110.472 165.508 110.631 165.266 110.725 164.996C110.819 164.726 110.846 164.436 110.803 164.153C110.489 162.019 110.553 160.433 110.993 159.393C111.546 158.073 112.203 155.746 112.963 152.413C113.416 150.419 114.886 146.179 117.373 139.693C117.532 139.281 117.64 138.851 117.693 138.413C118.773 129.373 116.403 120.693 107.163 117.433C99.5427 114.743 88.4727 115.553 83.1227 121.643C77.3227 128.256 73.3793 132.696 71.2927 134.963C70.3683 135.967 69.3465 136.875 68.2427 137.673C65.5293 139.646 63.606 141.143 62.4727 142.163C58.5593 145.663 54.6427 149.166 50.7227 152.673C52.5727 140.833 55.4627 129.253 61.6727 118.883C64.2393 114.596 65.6993 112.119 66.0527 111.453C66.2355 111.115 66.3467 110.744 66.3794 110.362C66.4121 109.98 66.3656 109.595 66.2427 109.233C64.8893 105.219 63.6193 101.249 62.4327 97.3225C58.9727 85.8692 57.6127 74.1125 58.3527 62.0525C58.3927 62.6725 58.4993 63.1225 58.6727 63.4025C58.7099 63.4661 58.7663 63.5163 58.8337 63.5459C58.9012 63.5756 58.9763 63.5832 59.0483 63.5677C59.1203 63.5522 59.1856 63.5143 59.2349 63.4595C59.2842 63.4048 59.3149 63.3358 59.3227 63.2625C60.5027 54.4825 61.9527 46.9692 63.6727 40.7225C65.5727 33.8125 71.2927 36.9125 74.8627 40.1425C78.976 43.8559 82.8193 47.8425 86.3927 52.1025Z" fill="#D59659"/>
<path d="M205.502 50.8825C205.676 53.4092 205.779 59.5658 205.812 69.3525C205.866 83.8925 202.986 97.2858 197.172 109.532C197.106 109.671 197.078 109.826 197.092 109.981C197.106 110.135 197.161 110.285 197.252 110.412C206.906 123.679 212.529 138.509 214.122 154.902L214.062 155.712C214.056 155.811 214.019 155.905 213.957 155.982C213.894 156.058 213.809 156.113 213.713 156.14C213.617 156.166 213.514 156.162 213.419 156.128C213.324 156.095 213.241 156.034 213.182 155.953C211.969 154.246 210.569 152.883 208.982 151.863C209.356 151.909 209.666 151.879 209.912 151.773C210.016 151.729 210.106 151.659 210.175 151.57C210.245 151.481 210.29 151.376 210.307 151.265C210.324 151.154 210.312 151.04 210.273 150.935C210.234 150.829 210.168 150.735 210.082 150.662C205.532 146.852 202.622 142.513 197.722 138.733C197.656 138.679 195.259 136.766 190.532 132.993C189.612 132.259 187.359 129.539 183.772 124.833C181.142 121.373 179.312 119.943 175.282 118.233C168.416 115.326 161.669 115.316 155.042 118.203C146.132 122.093 144.542 131.793 147.092 140.273C149.726 149.006 152.046 157.859 154.052 166.833C153.132 166.066 152.066 165.882 150.852 166.282C147.166 167.489 144.242 168.899 142.082 170.512L139.092 168.482C138.226 165.829 136.462 164.722 133.802 165.162C133.648 165.189 133.49 165.181 133.338 165.14C133.187 165.098 133.047 165.025 132.927 164.924C132.807 164.823 132.711 164.697 132.644 164.556C132.578 164.414 132.543 164.259 132.542 164.103L132.072 70.0525C138.639 69.5458 144.679 70.3892 150.192 72.5825C150.326 72.6335 150.472 72.6374 150.607 72.5937C150.742 72.5499 150.857 72.4612 150.932 72.3425C155.752 64.8092 161.099 57.8392 166.972 51.4325L175.762 52.8925C175.981 52.9286 176.206 52.9027 176.411 52.8179C176.616 52.7331 176.793 52.5927 176.922 52.4125C181.402 46.1425 187.182 39.7025 194.062 37.0325C194.584 36.8286 195.16 36.8118 195.692 36.9851C196.225 37.1583 196.681 37.5108 196.982 37.9825C201.202 44.5425 202.352 50.9025 204.282 57.9225C204.308 58.0059 204.36 58.0785 204.431 58.1294C204.502 58.1803 204.588 58.2066 204.675 58.2043C204.762 58.2021 204.846 58.1714 204.914 58.1169C204.982 58.0624 205.031 57.9871 205.052 57.9025C205.586 55.7425 205.736 53.4025 205.502 50.8825ZM188.752 53.2125L175.142 54.9825C174.984 55.0015 174.832 55.052 174.695 55.1311C174.557 55.2102 174.437 55.3161 174.342 55.4425C170.982 59.9292 168.016 65.6625 165.442 72.6425C164.522 75.1292 164.029 76.9325 163.962 78.0525C163.95 78.2329 163.984 78.4136 164.061 78.578C164.138 78.7424 164.255 78.885 164.402 78.9925L173.022 85.3025C173.127 85.3811 173.251 85.4327 173.382 85.4525C173.802 85.4992 174.206 85.4658 174.592 85.3525C174.526 86.0925 174.652 86.5792 174.972 86.8125C178.992 89.7592 182.659 93.0725 185.972 96.7525C186.05 96.8389 186.146 96.9069 186.253 96.9516C186.36 96.9963 186.476 97.0165 186.592 97.0107C186.707 97.005 186.821 96.9734 186.923 96.9184C187.025 96.8633 187.114 96.7862 187.182 96.6925C190.042 92.8792 192.219 89.1192 193.712 85.4125C195.982 79.7825 196.072 73.3925 196.252 66.3525C196.399 60.4392 195.776 54.7925 194.382 49.4125C194.316 49.1725 194.199 48.9725 194.032 48.8125C193.967 48.7481 193.889 48.6973 193.804 48.663C193.718 48.6287 193.627 48.6115 193.535 48.6124C193.443 48.6134 193.352 48.6324 193.268 48.6684C193.183 48.7045 193.107 48.7568 193.042 48.8225L188.752 53.2125ZM141.702 110.303L142.512 105.812C142.599 105.327 142.567 104.828 142.419 104.356C142.271 103.884 142.011 103.454 141.662 103.103L140.112 101.562C139.958 101.41 139.761 101.308 139.547 101.27C139.334 101.232 139.113 101.26 138.916 101.35C138.719 101.44 138.553 101.588 138.442 101.774C138.33 101.96 138.278 102.176 138.292 102.393C138.486 105.159 139.252 107.849 140.592 110.462C140.647 110.574 140.736 110.665 140.846 110.723C140.957 110.781 141.082 110.803 141.205 110.785C141.328 110.767 141.443 110.711 141.532 110.624C141.621 110.538 141.681 110.425 141.702 110.303ZM146.092 119.573L153.062 107.513C153.158 107.346 153.205 107.156 153.199 106.964C153.193 106.771 153.134 106.585 153.028 106.424C152.923 106.264 152.775 106.135 152.601 106.054C152.427 105.972 152.233 105.941 152.042 105.962C151.416 106.029 150.726 106.302 149.972 106.782C145.462 109.622 143.552 114.042 145.002 119.432C145.035 119.546 145.1 119.648 145.19 119.726C145.28 119.803 145.39 119.852 145.507 119.867C145.623 119.882 145.741 119.862 145.845 119.81C145.95 119.757 146.036 119.675 146.092 119.573Z" fill="#B16B40"/>
<path d="M174.592 85.3525C178.519 84.6192 181.572 82.7725 183.752 79.8125C183.814 79.7265 183.85 79.6241 183.856 79.518C183.861 79.4119 183.835 79.3069 183.782 79.2162C183.728 79.1254 183.65 79.0529 183.555 79.0078C183.461 78.9627 183.356 78.9469 183.252 78.9625L175.952 79.9925C175.834 80.008 175.714 79.9866 175.608 79.9312C175.502 79.8759 175.416 79.7892 175.362 79.6831C175.307 79.5771 175.286 79.4567 175.303 79.3385C175.319 79.2202 175.371 79.1099 175.452 79.0225C177.152 77.2759 179.466 75.1325 182.392 72.5925C182.672 72.3458 183.706 71.1158 185.492 68.9025C185.548 68.8354 185.582 68.7526 185.589 68.6654C185.596 68.5783 185.575 68.4912 185.53 68.4164C185.485 68.3415 185.417 68.2827 185.337 68.2479C185.257 68.2131 185.168 68.2043 185.082 68.2225C182.236 68.8158 179.602 68.9125 177.182 68.5125C177.104 68.5005 177.03 68.4679 176.968 68.4181C176.906 68.3683 176.859 68.303 176.83 68.2289C176.802 68.1547 176.794 68.0744 176.806 67.996C176.819 67.9176 176.852 67.8439 176.902 67.7825L188.752 53.2125L193.042 48.8225C193.107 48.7568 193.183 48.7045 193.268 48.6685C193.353 48.6324 193.443 48.6134 193.535 48.6125C193.627 48.6115 193.719 48.6287 193.804 48.663C193.889 48.6974 193.967 48.7481 194.032 48.8125C194.199 48.9725 194.316 49.1725 194.382 49.4125C195.776 54.7925 196.399 60.4392 196.252 66.3525C196.072 73.3925 195.982 79.7825 193.712 85.4125C192.219 89.1192 190.042 92.8792 187.182 96.6925C187.114 96.7862 187.025 96.8633 186.923 96.9184C186.821 96.9735 186.708 97.005 186.592 97.0107C186.476 97.0165 186.36 96.9963 186.253 96.9516C186.146 96.907 186.05 96.8389 185.972 96.7525C182.659 93.0725 178.992 89.7592 174.972 86.8125C174.652 86.5792 174.526 86.0925 174.592 85.3525Z" fill="#693623"/>
<path d="M75.1122 52.8926L86.0222 68.6026C86.0572 68.6532 86.0769 68.7128 86.0789 68.7743C86.0809 68.8358 86.0651 68.8966 86.0335 68.9493C86.0018 69.0021 85.9556 69.0446 85.9004 69.0718C85.8452 69.099 85.7833 69.1096 85.7222 69.1026L77.4522 68.0126C77.4133 68.0079 77.3739 68.0153 77.3394 68.0339C77.3049 68.0524 77.277 68.0812 77.2595 68.1162C77.242 68.1513 77.2357 68.1908 77.2416 68.2296C77.2474 68.2683 77.2651 68.3043 77.2922 68.3326L88.2722 79.3125C88.3083 79.3447 88.3329 79.3879 88.342 79.4354C88.3512 79.4829 88.3444 79.5321 88.3228 79.5754C88.3011 79.6186 88.2658 79.6535 88.2223 79.6747C88.1789 79.6959 88.1296 79.7022 88.0822 79.6926L81.0622 78.7726C80.9321 78.7546 80.7998 78.7805 80.6862 78.8462C80.5725 78.9119 80.484 79.0136 80.4347 79.1352C80.3853 79.2569 80.3779 79.3915 80.4137 79.5178C80.4495 79.6441 80.5264 79.7549 80.6322 79.8326L89.6522 86.4926C88.5122 87.2859 87.4289 88.0559 86.4022 88.8026C83.0522 91.2426 80.0822 94.7326 77.3222 97.7626C77.2814 97.8073 77.2316 97.843 77.1763 97.8671C77.1209 97.8912 77.0612 97.9032 77.0014 97.9023C76.9416 97.9013 76.8829 97.8875 76.8296 97.8616C76.7762 97.8358 76.7293 97.7986 76.6922 97.7525C71.3388 91.3392 68.4255 84.2992 67.9522 76.6326C67.3922 67.4192 67.9955 58.3025 69.7622 49.2825C69.7747 49.2161 69.8043 49.154 69.848 49.1024C69.8918 49.0508 69.9482 49.0115 70.0117 48.9883C70.0753 48.9651 70.1438 48.9588 70.2105 48.97C70.2772 48.9813 70.3398 49.0098 70.3922 49.0526L75.1122 52.8926Z" fill="#925738"/>
<path d="M112.923 71.3326C113.003 71.7726 113.013 72.1726 112.953 72.5326C112.925 72.6872 112.862 72.8329 112.768 72.958C112.674 73.0831 112.552 73.184 112.413 73.2526L100.323 79.2926C100.215 79.3468 100.096 79.374 99.9757 79.3718C99.8553 79.3696 99.7373 79.3381 99.6319 79.28C99.5265 79.2218 99.4368 79.1389 99.3707 79.0383C99.3046 78.9377 99.2641 78.8224 99.2526 78.7026L98.9826 75.8726C98.6559 73.4659 98.0492 71.2893 97.1626 69.3426C94.7692 64.1026 91.7726 59.3393 88.1726 55.0526L86.3926 52.1026C86.9059 51.9893 87.4059 51.7693 87.8926 51.4426C88.167 51.2533 88.4895 51.1458 88.8226 51.1326L97.0726 50.9226C102.933 57.0559 108.216 63.8593 112.923 71.3326Z" fill="#BC6D32"/>
<path d="M88.1723 55.0526C91.7723 59.3392 94.769 64.1026 97.1623 69.3426C98.049 71.2892 98.6556 73.4659 98.9823 75.8726L98.7923 79.4026C98.7676 79.8488 98.6333 80.282 98.4013 80.664C98.1693 81.0459 97.8468 81.3649 97.4623 81.5926L92.2323 84.6526C92.0134 84.7853 91.8148 84.9468 91.6423 85.1326C90.9956 85.8459 90.3323 86.2993 89.6523 86.4926L80.6323 79.8326C80.5265 79.7549 80.4496 79.6441 80.4138 79.5178C80.3781 79.3915 80.3854 79.2569 80.4348 79.1352C80.4841 79.0136 80.5726 78.9119 80.6863 78.8462C80.8 78.7805 80.9323 78.7546 81.0623 78.7726L88.0823 79.6926C88.1297 79.7022 88.179 79.6959 88.2225 79.6747C88.266 79.6536 88.3013 79.6186 88.3229 79.5754C88.3445 79.5321 88.3513 79.4829 88.3422 79.4354C88.333 79.3879 88.3085 79.3447 88.2723 79.3126L77.2923 68.3326C77.2652 68.3043 77.2476 68.2683 77.2417 68.2296C77.2359 68.1909 77.2421 68.1513 77.2596 68.1162C77.2772 68.0812 77.3051 68.0524 77.3396 68.0339C77.374 68.0153 77.4134 68.0079 77.4523 68.0126L85.7223 69.1026C85.7834 69.1097 85.8453 69.099 85.9005 69.0718C85.9557 69.0446 86.0019 69.0021 86.0336 68.9493C86.0653 68.8966 86.081 68.8358 86.079 68.7743C86.077 68.7128 86.0573 68.6532 86.0223 68.6026L75.1123 52.8926L88.1723 55.0526Z" fill="#F2D6A8"/>
<path d="M188.752 53.2125L176.902 67.7825C176.852 67.844 176.819 67.9176 176.806 67.996C176.794 68.0744 176.802 68.1547 176.83 68.2289C176.859 68.303 176.906 68.3683 176.968 68.4181C177.03 68.4679 177.104 68.5005 177.182 68.5125C179.602 68.9125 182.236 68.8159 185.082 68.2225C185.168 68.2043 185.257 68.2132 185.337 68.2479C185.417 68.2827 185.485 68.3416 185.53 68.4164C185.575 68.4913 185.596 68.5783 185.589 68.6655C185.582 68.7526 185.548 68.8355 185.492 68.9025C183.706 71.1159 182.672 72.3459 182.392 72.5925C179.466 75.1325 177.152 77.2759 175.452 79.0226C175.371 79.11 175.319 79.2203 175.303 79.3385C175.286 79.4567 175.307 79.5771 175.362 79.6832C175.416 79.7892 175.502 79.8759 175.608 79.9312C175.714 79.9866 175.834 80.008 175.952 79.9926L183.252 78.9625C183.356 78.9469 183.461 78.9627 183.555 79.0078C183.65 79.053 183.728 79.1254 183.782 79.2162C183.835 79.3069 183.861 79.412 183.856 79.518C183.85 79.6241 183.814 79.7266 183.752 79.8125C181.572 82.7725 178.519 84.6192 174.592 85.3525C174.206 85.4659 173.802 85.4992 173.382 85.4525C173.251 85.4327 173.127 85.3812 173.022 85.3026L164.402 78.9926C164.255 78.885 164.138 78.7424 164.061 78.578C163.984 78.4137 163.95 78.2329 163.962 78.0526C164.029 76.9326 164.522 75.1292 165.442 72.6425C168.016 65.6625 170.982 59.9292 174.342 55.4425C174.437 55.3161 174.557 55.2102 174.695 55.1311C174.832 55.0521 174.985 55.0015 175.142 54.9825L188.752 53.2125Z" fill="#D29D77"/>
<path d="M141.702 110.302C141.681 110.425 141.621 110.538 141.532 110.624C141.443 110.711 141.328 110.767 141.205 110.785C141.082 110.803 140.957 110.781 140.846 110.723C140.736 110.665 140.647 110.574 140.592 110.462C139.252 107.849 138.486 105.159 138.292 102.392C138.278 102.176 138.33 101.96 138.442 101.774C138.553 101.588 138.719 101.44 138.916 101.35C139.113 101.26 139.334 101.232 139.547 101.27C139.761 101.308 139.958 101.41 140.112 101.562L141.662 103.102C142.011 103.454 142.271 103.884 142.419 104.356C142.567 104.827 142.599 105.327 142.512 105.812L141.702 110.302Z" fill="#E2A35E"/>
<path d="M146.093 119.572C146.036 119.675 145.95 119.757 145.846 119.81C145.742 119.862 145.624 119.882 145.507 119.867C145.39 119.852 145.28 119.803 145.19 119.725C145.101 119.648 145.035 119.546 145.003 119.432C143.553 114.042 145.463 109.622 149.973 106.782C150.726 106.302 151.416 106.029 152.043 105.962C152.234 105.941 152.427 105.972 152.601 106.054C152.775 106.135 152.923 106.264 153.029 106.424C153.134 106.585 153.194 106.771 153.2 106.964C153.205 107.156 153.158 107.346 153.063 107.512L146.093 119.572Z" fill="#E2A35E"/>
<path d="M107.853 165.412C104.126 155.259 97.0792 148.642 86.7125 145.562C74.1425 141.822 62.4125 146.512 52.0425 154.042C51.1825 154.729 50.5592 154.906 50.1725 154.572C50.1377 154.541 50.11 154.503 50.0911 154.462C50.0721 154.42 50.0624 154.376 50.0625 154.332C50.0825 153.706 50.3025 153.152 50.7225 152.672C54.6425 149.166 58.5592 145.662 62.4725 142.162C63.6058 141.142 65.5292 139.646 68.2425 137.672C69.3464 136.874 70.3682 135.967 71.2925 134.962C73.3792 132.696 77.3225 128.256 83.1225 121.642C88.4725 115.552 99.5425 114.742 107.163 117.432C116.403 120.692 118.773 129.372 117.693 138.412C117.639 138.851 117.532 139.281 117.373 139.692C114.886 146.179 113.416 150.419 112.963 152.412C112.203 155.746 111.546 158.072 110.993 159.392C110.553 160.432 110.489 162.019 110.803 164.152C110.845 164.436 110.819 164.725 110.724 164.996C110.63 165.266 110.472 165.508 110.263 165.702C110.023 165.929 109.866 166.249 109.793 166.662C109.775 166.751 109.733 166.832 109.671 166.897C109.608 166.962 109.529 167.007 109.442 167.028C109.354 167.049 109.263 167.045 109.178 167.015C109.093 166.986 109.018 166.933 108.963 166.862L107.853 165.412ZM115.713 139.122C112.693 130.102 109.843 122.202 98.7125 123.822C98.5599 123.842 98.4082 123.886 98.2625 123.952L92.9925 126.332C92.9429 126.355 92.8983 126.387 92.8613 126.427C92.8243 126.467 92.7957 126.514 92.7771 126.566C92.7585 126.617 92.7502 126.671 92.7529 126.726C92.7555 126.78 92.769 126.833 92.7925 126.882C95.7025 133.142 98.9025 135.482 105.863 137.172C111.049 138.439 114.156 139.259 115.183 139.632C115.254 139.658 115.332 139.664 115.407 139.648C115.482 139.632 115.551 139.595 115.606 139.542C115.661 139.489 115.7 139.422 115.719 139.348C115.738 139.273 115.736 139.195 115.713 139.122Z" fill="#BC6D32"/>
<path d="M208.983 151.863C203.316 147.849 197.046 145.373 190.173 144.433C183.859 143.579 177.623 144.746 171.463 147.933C162.556 152.533 157.173 160.269 155.313 171.143L154.053 166.833C152.046 157.859 149.726 149.006 147.093 140.273C144.543 131.793 146.133 122.093 155.043 118.203C161.669 115.316 168.416 115.326 175.283 118.233C179.313 119.943 181.143 121.373 183.773 124.833C187.359 129.539 189.613 132.259 190.533 132.993C195.259 136.766 197.656 138.679 197.723 138.733C202.623 142.513 205.533 146.853 210.083 150.663C210.168 150.736 210.234 150.829 210.273 150.935C210.312 151.04 210.324 151.154 210.307 151.265C210.29 151.376 210.245 151.481 210.176 151.57C210.107 151.659 210.016 151.729 209.913 151.773C209.666 151.879 209.356 151.909 208.983 151.863ZM149.803 139.563C152.243 138.076 153.829 137.293 154.563 137.213C158.513 136.793 164.373 135.843 166.703 132.813C168.136 130.933 169.453 128.803 170.653 126.423C170.696 126.338 170.706 126.24 170.682 126.15C170.658 126.059 170.601 125.982 170.523 125.933C163.873 121.743 154.663 122.113 151.423 130.413C150.329 133.213 149.606 136.149 149.253 139.223C149.246 139.29 149.258 139.357 149.288 139.418C149.318 139.478 149.364 139.529 149.422 139.564C149.479 139.599 149.545 139.618 149.612 139.618C149.68 139.618 149.746 139.598 149.803 139.563Z" fill="#925738"/>
<path d="M149.252 139.223C149.605 136.149 150.328 133.213 151.422 130.413C154.662 122.113 163.872 121.743 170.522 125.933C170.6 125.982 170.657 126.059 170.681 126.15C170.705 126.241 170.695 126.338 170.652 126.423C169.452 128.803 168.135 130.933 166.702 132.813C164.372 135.843 158.512 136.793 154.562 137.213C153.828 137.293 152.242 138.076 149.802 139.563C149.745 139.598 149.679 139.618 149.611 139.618C149.544 139.618 149.478 139.6 149.421 139.564C149.363 139.529 149.317 139.478 149.287 139.418C149.257 139.357 149.245 139.29 149.252 139.223ZM161.519 125.24C161.376 125.344 161.258 125.481 161.173 125.643C161.088 125.804 161.038 125.987 161.024 126.181C161.01 126.375 161.034 126.576 161.093 126.773C161.153 126.97 161.247 127.158 161.371 127.328C161.495 127.498 161.646 127.645 161.815 127.762C161.984 127.879 162.168 127.963 162.357 128.009C162.546 128.055 162.736 128.063 162.915 128.031C163.095 128 163.261 127.93 163.404 127.825C163.548 127.721 163.665 127.584 163.75 127.423C163.835 127.261 163.886 127.078 163.9 126.884C163.913 126.69 163.89 126.489 163.83 126.292C163.771 126.096 163.676 125.907 163.553 125.737C163.429 125.567 163.278 125.42 163.109 125.303C162.94 125.186 162.755 125.102 162.566 125.056C162.378 125.01 162.188 125.002 162.008 125.034C161.829 125.065 161.662 125.135 161.519 125.24ZM161.492 132.733C158.552 131.646 156.932 129.876 156.632 127.423C156.621 127.318 156.579 127.22 156.512 127.14C156.444 127.06 156.354 127.002 156.253 126.973C156.151 126.944 156.043 126.945 155.941 126.977C155.839 127.009 155.749 127.07 155.682 127.153C155.022 127.966 154.585 128.723 154.372 129.423C154.181 130.067 154.143 130.748 154.262 131.413C154.672 133.743 159.492 133.823 161.352 133.703C161.467 133.696 161.576 133.65 161.661 133.572C161.746 133.494 161.802 133.389 161.818 133.275C161.835 133.161 161.811 133.044 161.752 132.945C161.692 132.847 161.6 132.771 161.492 132.733Z" fill="#301A15"/>
<path d="M115.182 139.633C114.155 139.259 111.049 138.439 105.862 137.173C98.9021 135.483 95.7021 133.143 92.7921 126.883C92.7686 126.833 92.7551 126.78 92.7524 126.726C92.7498 126.671 92.758 126.617 92.7766 126.566C92.7953 126.514 92.8239 126.467 92.8609 126.427C92.8979 126.387 92.9425 126.355 92.9921 126.333L98.2621 123.953C98.4078 123.886 98.5595 123.843 98.7121 123.823C109.842 122.203 112.692 130.103 115.712 139.123C115.735 139.196 115.738 139.274 115.719 139.348C115.7 139.422 115.661 139.489 115.606 139.542C115.551 139.595 115.482 139.632 115.407 139.648C115.332 139.664 115.254 139.659 115.182 139.633ZM101.6 125.5C101.286 125.252 100.869 125.16 100.443 125.244C100.016 125.329 99.6141 125.582 99.3255 125.949C99.0368 126.316 98.885 126.766 98.9034 127.2C98.9218 127.635 99.1089 128.018 99.4237 128.266C99.7384 128.513 100.155 128.605 100.582 128.521C101.008 128.437 101.41 128.183 101.699 127.816C101.987 127.45 102.139 126.999 102.121 126.565C102.102 126.13 101.915 125.747 101.6 125.5ZM100.932 132.423C100.853 132.407 100.772 132.42 100.702 132.46C100.633 132.5 100.58 132.564 100.554 132.64C100.529 132.716 100.531 132.799 100.562 132.873C100.593 132.947 100.65 133.007 100.722 133.043C103.102 134.303 105.662 134.463 108.402 133.523C108.955 133.333 109.427 132.979 109.731 132.524C110.036 132.068 110.153 131.543 110.062 131.043C109.729 129.176 108.739 127.676 107.092 126.543C106.988 126.471 106.865 126.432 106.739 126.429C106.613 126.427 106.488 126.461 106.381 126.528C106.274 126.595 106.189 126.691 106.136 126.806C106.083 126.92 106.064 127.048 106.082 127.173L106.442 129.753C106.507 130.214 106.407 130.683 106.16 131.077C105.912 131.47 105.534 131.763 105.092 131.903C103.379 132.443 101.992 132.616 100.932 132.423Z" fill="#301A15"/>
<path d="M163.553 125.737C163.033 125.023 162.122 124.8 161.52 125.24C160.917 125.679 160.851 126.614 161.372 127.328C161.892 128.042 162.803 128.265 163.405 127.825C164.008 127.386 164.074 126.451 163.553 125.737Z" fill="#DCD5C9"/>
<path d="M101.699 127.816C102.3 127.052 102.256 126.015 101.601 125.499C100.945 124.984 99.9268 125.185 99.3257 125.949C98.7246 126.713 98.7686 127.75 99.4239 128.266C100.079 128.781 101.098 128.58 101.699 127.816Z" fill="#FEFBEF"/>
<path d="M100.932 132.423C101.992 132.616 103.379 132.443 105.092 131.903C105.534 131.763 105.913 131.47 106.16 131.077C106.407 130.683 106.507 130.214 106.442 129.753L106.082 127.173C106.064 127.048 106.083 126.92 106.136 126.806C106.189 126.691 106.274 126.594 106.381 126.528C106.489 126.461 106.613 126.427 106.739 126.429C106.865 126.432 106.988 126.471 107.092 126.543C108.739 127.676 109.729 129.176 110.062 131.043C110.153 131.543 110.036 132.068 109.731 132.524C109.427 132.979 108.955 133.333 108.402 133.523C105.662 134.463 103.102 134.303 100.722 133.043C100.65 133.007 100.593 132.947 100.562 132.873C100.532 132.799 100.529 132.716 100.555 132.64C100.58 132.564 100.633 132.5 100.702 132.46C100.772 132.42 100.854 132.407 100.932 132.423Z" fill="#573D20"/>
<path d="M161.492 132.733C161.601 132.771 161.692 132.847 161.752 132.945C161.811 133.044 161.835 133.161 161.818 133.275C161.802 133.389 161.747 133.494 161.662 133.572C161.576 133.65 161.467 133.696 161.352 133.703C159.492 133.823 154.672 133.743 154.262 131.413C154.143 130.748 154.181 130.067 154.372 129.423C154.585 128.723 155.022 127.966 155.682 127.153C155.749 127.07 155.84 127.009 155.941 126.977C156.043 126.945 156.151 126.944 156.253 126.973C156.354 127.002 156.445 127.06 156.512 127.14C156.58 127.22 156.621 127.318 156.632 127.423C156.932 129.876 158.552 131.646 161.492 132.733Z" fill="#5A2C1F"/>
<path d="M107.852 165.413L108.562 171.123C108.577 171.21 108.621 171.29 108.687 171.348C108.753 171.407 108.838 171.442 108.926 171.447C109.014 171.451 109.102 171.426 109.174 171.374C109.246 171.322 109.298 171.248 109.322 171.163L110.302 167.253C110.367 166.985 110.487 166.733 110.653 166.514C110.819 166.294 111.029 166.11 111.269 165.974C111.509 165.839 111.774 165.753 112.048 165.724C112.322 165.694 112.599 165.721 112.862 165.803C116.935 167.043 119.925 168.839 121.832 171.193C119.542 177.823 126.252 181.793 131.732 182.593L131.302 186.603C131.288 186.729 131.232 186.846 131.143 186.937C131.054 187.027 130.938 187.086 130.812 187.103C127.385 187.569 124.159 187.519 121.132 186.953C121.054 186.935 120.972 186.944 120.9 186.979C120.828 187.014 120.77 187.073 120.736 187.145C120.702 187.218 120.694 187.3 120.714 187.378C120.733 187.455 120.778 187.524 120.842 187.573C122.082 188.593 123.775 189.326 125.922 189.773C131.362 190.893 136.792 190.703 142.212 189.203C143.325 188.896 144.142 188.426 144.662 187.793C144.711 187.732 144.743 187.659 144.752 187.582C144.761 187.505 144.749 187.426 144.715 187.356C144.681 187.286 144.628 187.226 144.562 187.185C144.496 187.144 144.42 187.122 144.342 187.123H134.462C134.226 187.123 134 187.032 133.829 186.868C133.657 186.704 133.555 186.48 133.542 186.243L133.362 182.743C138.762 180.143 144.152 178.043 142.082 170.513C144.242 168.899 147.165 167.489 150.852 166.283C152.065 165.883 153.132 166.066 154.052 166.833L155.312 171.143L155.742 181.463C150.642 186.503 147.052 189.659 144.972 190.933C141.662 192.953 137.362 192.873 133.602 193.003C126.422 194.276 120.215 192.463 114.982 187.563C112.302 185.063 109.752 182.373 106.872 180.333C98.232 174.226 88.6487 170.253 78.122 168.413C76.4487 167.693 75.312 167.913 74.712 169.073C70.4787 168.326 66.982 167.899 64.222 167.793C62.762 167.739 61.4387 167.346 60.252 166.613C58.952 165.813 58.522 163.843 57.732 162.413C57.4412 161.884 57.0511 161.412 56.582 161.023C54.202 159.023 52.042 157.813 52.042 154.043C62.412 146.513 74.142 141.823 86.712 145.563C97.0787 148.643 104.125 155.259 107.852 165.413Z" fill="#F3E2C1"/>
<path d="M208.983 151.862C210.569 152.882 211.969 154.246 213.182 155.952C213.242 156.034 213.324 156.095 213.419 156.128C213.514 156.162 213.617 156.166 213.713 156.14C213.809 156.113 213.894 156.058 213.957 155.982C214.019 155.905 214.056 155.811 214.062 155.712L214.122 154.902C214.609 155.669 214.663 156.226 214.283 156.572C214.226 156.623 214.155 156.656 214.078 156.667C214.002 156.677 213.923 156.665 213.853 156.632C210.926 155.239 207.929 154.329 204.863 153.902C204.754 153.885 204.642 153.901 204.543 153.948C204.443 153.995 204.36 154.071 204.304 154.166C204.248 154.261 204.222 154.37 204.229 154.48C204.235 154.59 204.275 154.695 204.342 154.782L207.562 159.102C207.662 159.236 207.717 159.397 207.72 159.563C207.723 159.729 207.673 159.892 207.578 160.029C207.482 160.165 207.346 160.268 207.189 160.322C207.032 160.377 206.862 160.38 206.703 160.332C205.816 160.066 204.892 159.552 203.932 158.792C203.808 158.695 203.655 158.642 203.497 158.641C203.34 158.641 203.186 158.692 203.061 158.789C202.936 158.885 202.847 159.02 202.807 159.173C202.768 159.326 202.78 159.488 202.842 159.632L205.173 164.822C205.275 165.052 205.318 165.303 205.296 165.554C205.273 165.804 205.188 166.044 205.046 166.252C204.905 166.459 204.713 166.627 204.488 166.739C204.263 166.852 204.013 166.904 203.763 166.892L191.092 166.312C191.033 166.312 190.979 166.319 190.932 166.332C189.979 166.599 189.513 167.192 189.533 168.112C188.639 167.339 187.316 167.499 185.562 168.592C177.136 169.559 170.052 172.022 164.312 175.982C160.246 178.789 157.389 180.616 155.742 181.462L155.312 171.142C157.173 160.269 162.556 152.532 171.462 147.932C177.622 144.746 183.859 143.579 190.173 144.432C197.046 145.372 203.316 147.849 208.983 151.862Z" fill="#D4AD89"/>
<path d="M139.092 168.482L142.082 170.512C144.152 178.042 138.762 180.142 133.362 182.742C132.909 183.109 132.365 183.059 131.732 182.592C126.252 181.792 119.542 177.822 121.832 171.192C123.719 168.519 126.412 167.029 129.912 166.722C132.965 166.462 136.025 167.049 139.092 168.482Z" fill="#3D261D"/>
<path d="M189.532 168.113C192.818 173.199 195.568 178.573 197.782 184.233C202.455 196.179 205.538 208.466 207.032 221.093C207.222 226.833 206.052 234.243 200.792 237.463C192.442 242.583 182.062 248.453 171.122 252.083L145.302 254.293L151.552 246.773C156.005 240.686 159.752 234.206 162.792 227.333C162.832 227.241 162.9 227.163 162.985 227.11C163.071 227.057 163.17 227.031 163.27 227.036C163.371 227.04 163.468 227.074 163.548 227.134C163.629 227.195 163.689 227.277 163.722 227.373L165.402 232.233C165.429 232.315 165.478 232.389 165.544 232.446C165.61 232.504 165.689 232.542 165.775 232.559C165.86 232.575 165.949 232.568 166.031 232.539C166.113 232.51 166.186 232.459 166.242 232.393C173.588 223.793 177.005 213.909 176.492 202.743C176.489 202.63 176.524 202.519 176.591 202.428C176.658 202.337 176.753 202.27 176.862 202.24C176.971 202.209 177.087 202.215 177.192 202.257C177.297 202.299 177.385 202.375 177.442 202.473L180.442 207.663C180.523 207.802 180.639 207.917 180.778 207.997C180.918 208.077 181.076 208.12 181.237 208.12C181.398 208.12 181.556 208.077 181.695 207.997C181.835 207.917 181.951 207.802 182.032 207.663C183.982 204.303 185.552 199.093 186.182 194.683C186.928 189.463 187.002 183.776 186.402 177.623C186.128 174.843 185.848 171.833 185.562 168.593C187.315 167.499 188.638 167.339 189.532 168.113Z" fill="#A55728"/>
<path d="M78.1218 168.413C79.2018 170.753 79.4951 172.456 79.0018 173.523C77.3484 181.589 77.2451 188.526 78.6918 194.333C79.8784 199.066 81.3318 203.979 83.0518 209.073C83.0707 209.124 83.106 209.167 83.152 209.197C83.1981 209.226 83.2525 209.239 83.3069 209.235C83.3614 209.23 83.4128 209.208 83.4534 209.172C83.494 209.135 83.5215 209.086 83.5318 209.033C83.8118 206.833 84.6351 204.696 86.0018 202.623C86.067 202.527 86.1592 202.454 86.2666 202.411C86.3739 202.369 86.4914 202.359 86.6042 202.384C86.717 202.409 86.8198 202.466 86.8995 202.55C86.9793 202.633 87.0323 202.739 87.0518 202.853C88.6618 213.523 91.6918 225.063 99.1318 232.643C99.2366 232.753 99.3749 232.825 99.5252 232.849C99.6755 232.872 99.8293 232.845 99.9628 232.772C100.096 232.699 100.202 232.584 100.263 232.445C100.324 232.306 100.338 232.15 100.302 232.003L99.2218 227.393C99.1869 227.25 99.1817 227.102 99.2065 226.957C99.2314 226.812 99.2857 226.674 99.3661 226.55C99.4466 226.427 99.5516 226.321 99.6746 226.238C99.7977 226.156 99.9362 226.1 100.082 226.073C100.235 226.046 100.442 226.166 100.702 226.433C101.968 227.739 103.278 229.903 104.632 232.923C105.852 235.649 108.105 239.053 111.392 243.133C114.805 247.379 118.245 251.603 121.712 255.803C119.205 257.489 116.562 258.056 113.782 257.503C105.942 255.936 98.8818 254.736 92.6018 253.903L74.8418 248.083C69.1351 245.809 63.6651 243.009 58.4318 239.683C57.7251 239.236 56.7651 238.139 55.5518 236.393C55.6584 235.099 55.7218 233.926 55.7418 232.873C55.8718 226.643 57.3418 219.843 58.5018 213.723C60.7218 202.023 64.1484 190.689 68.7818 179.723C70.3684 175.969 72.3451 172.419 74.7118 169.073C75.3118 167.913 76.4484 167.693 78.1218 168.413Z" fill="#CF8D45"/>
<path d="M133.602 193.003L132.152 193.983C132.02 194.071 131.913 194.191 131.842 194.331C131.77 194.471 131.736 194.627 131.742 194.783L133.132 228.603C133.332 229.509 133.355 230.529 133.202 231.663C133.135 230.229 132.839 228.889 132.312 227.643C132.187 227.352 131.999 227.09 131.762 226.873C126.772 222.313 122.242 218.483 117.202 212.973C111.722 206.979 106.239 200.993 100.752 195.013C97.6454 191.633 90.3954 184.469 79.0021 173.523C79.4954 172.456 79.2021 170.753 78.1221 168.413C88.6487 170.253 98.2321 174.226 106.872 180.333C109.752 182.373 112.302 185.063 114.982 187.563C120.215 192.463 126.422 194.276 133.602 193.003Z" fill="#D4AD89"/>
<path d="M185.562 168.593C185.849 171.833 186.129 174.843 186.402 177.623C187.002 183.776 186.929 189.463 186.182 194.683C185.552 199.093 183.982 204.303 182.032 207.663C181.951 207.802 181.835 207.917 181.696 207.997C181.556 208.077 181.398 208.12 181.237 208.12C181.076 208.12 180.918 208.077 180.779 207.997C180.639 207.917 180.523 207.802 180.442 207.663L177.442 202.473C177.385 202.375 177.297 202.299 177.192 202.257C177.087 202.215 176.971 202.209 176.862 202.24C176.754 202.271 176.658 202.337 176.591 202.428C176.524 202.519 176.489 202.63 176.492 202.743C177.005 213.909 173.589 223.793 166.242 232.393C166.186 232.459 166.113 232.51 166.031 232.539C165.949 232.568 165.861 232.575 165.775 232.559C165.69 232.542 165.61 232.504 165.544 232.446C165.479 232.389 165.43 232.315 165.402 232.233L163.722 227.373C163.689 227.278 163.629 227.195 163.548 227.134C163.468 227.074 163.371 227.04 163.271 227.036C163.17 227.031 163.071 227.057 162.986 227.11C162.9 227.163 162.833 227.241 162.792 227.333C159.752 234.206 156.005 240.686 151.552 246.773C143.612 239.673 138.092 235.513 133.132 228.603L131.742 194.783C131.735 194.627 131.77 194.471 131.842 194.331C131.913 194.191 132.02 194.071 132.152 193.983L133.602 193.003C137.362 192.873 141.662 192.953 144.972 190.933C147.052 189.659 150.642 186.503 155.742 181.463C157.389 180.616 160.245 178.789 164.312 175.983C170.052 172.023 177.135 169.559 185.562 168.593Z" fill="#B58D6B"/>
<path d="M133.202 231.663L132.692 260.323L125.862 260.223C125.122 260.016 124.476 259.573 123.922 258.893L121.712 255.803C118.246 251.603 114.806 247.379 111.392 243.133C108.106 239.053 105.852 235.649 104.632 232.923C103.279 229.903 101.969 227.739 100.702 226.433C100.442 226.166 100.236 226.046 100.082 226.073C99.9368 226.1 99.7983 226.156 99.6752 226.238C99.5522 226.321 99.4472 226.427 99.3667 226.55C99.2863 226.674 99.232 226.812 99.2071 226.957C99.1823 227.102 99.1875 227.25 99.2224 227.393L100.302 232.003C100.339 232.15 100.325 232.306 100.264 232.445C100.202 232.584 100.097 232.699 99.9634 232.772C99.8299 232.845 99.6761 232.872 99.5258 232.849C99.3755 232.825 99.2372 232.753 99.1324 232.643C91.6924 225.063 88.6624 213.523 87.0524 202.853C87.0329 202.739 86.9798 202.633 86.9001 202.55C86.8204 202.466 86.7176 202.409 86.6048 202.384C86.492 202.359 86.3745 202.369 86.2672 202.411C86.1598 202.454 86.0676 202.527 86.0024 202.623C84.6357 204.696 83.8124 206.833 83.5324 209.033C83.5221 209.086 83.4946 209.135 83.454 209.172C83.4134 209.208 83.362 209.23 83.3075 209.235C83.2531 209.239 83.1987 209.226 83.1526 209.197C83.1066 209.167 83.0713 209.124 83.0524 209.073C81.3324 203.979 79.879 199.066 78.6924 194.333C77.2457 188.526 77.349 181.589 79.0024 173.523C90.3957 184.469 97.6457 191.633 100.752 195.013C106.239 200.993 111.722 206.979 117.202 212.973C122.242 218.483 126.772 222.313 131.762 226.873C132 227.09 132.187 227.352 132.312 227.643C132.839 228.889 133.136 230.229 133.202 231.663Z" fill="#F3E2C1"/>
<path d="M133.362 182.743L133.542 186.243C133.555 186.48 133.657 186.704 133.828 186.868C133.999 187.032 134.226 187.123 134.462 187.123H144.342C144.42 187.122 144.496 187.144 144.562 187.185C144.628 187.226 144.681 187.286 144.715 187.356C144.748 187.426 144.761 187.505 144.752 187.582C144.742 187.659 144.711 187.732 144.662 187.793C144.142 188.426 143.325 188.896 142.212 189.203C136.792 190.703 131.362 190.893 125.922 189.773C123.775 189.326 122.082 188.593 120.842 187.573C120.778 187.524 120.733 187.455 120.713 187.378C120.694 187.3 120.702 187.218 120.736 187.145C120.77 187.073 120.828 187.014 120.9 186.979C120.972 186.944 121.054 186.935 121.132 186.953C124.158 187.519 127.385 187.569 130.812 187.103C130.937 187.086 131.054 187.027 131.143 186.937C131.231 186.846 131.287 186.729 131.302 186.603L131.732 182.593C132.365 183.059 132.908 183.109 133.362 182.743Z" fill="#A27F6B"/>
<path d="M207.302 224.573C208.009 231.453 205.639 236.403 200.192 239.423C195.246 242.169 190.199 244.886 185.052 247.573C182.892 248.706 181.652 249.403 181.332 249.663C181.322 249.67 181.315 249.679 181.309 249.69C181.304 249.701 181.302 249.713 181.303 249.725C181.304 249.737 181.308 249.749 181.315 249.759C181.322 249.769 181.331 249.777 181.342 249.783C181.422 249.816 181.509 249.789 181.602 249.703C181.749 249.576 181.836 249.506 181.862 249.493C189.736 246.086 197.392 242.409 204.832 238.463C204.888 238.431 204.954 238.422 205.018 238.439C205.081 238.456 205.136 238.496 205.172 238.553L205.182 238.563C205.218 238.623 205.229 238.695 205.214 238.763C205.199 238.832 205.16 238.892 205.102 238.933C202.442 240.779 199.662 242.459 196.762 243.973C196.709 243.999 196.649 244.009 196.582 244.003C196.496 243.989 196.406 243.959 196.312 243.913C196.241 243.879 196.163 243.862 196.085 243.863C196.007 243.865 195.93 243.885 195.862 243.923C193.529 245.249 191.962 246.306 191.162 247.093C190.912 247.343 190.612 247.537 190.282 247.663C187.976 248.543 186.356 249.243 185.422 249.763C181.662 251.873 178.392 252.923 174.532 254.213C173.172 254.673 171.059 255.179 168.192 255.733C166.806 256.006 163.359 256.833 157.852 258.213C153.732 259.246 147.652 260.026 139.612 260.553L143.412 256.323C152.866 256.409 162.102 254.996 171.122 252.083C182.062 248.453 192.442 242.583 200.792 237.463C206.052 234.243 207.222 226.833 207.032 221.093L207.302 224.573Z" fill="#966841"/>
<path d="M208.472 236.562C201.218 242.709 193.025 248.119 183.892 252.793C176.918 256.353 169.812 258.633 162.572 259.633C154.938 260.686 147.305 261.732 139.672 262.772C135.372 263.352 130.282 263.433 125.182 262.733C118.162 261.763 108.982 261.433 102.032 259.703C92.4251 257.316 83.3618 253.443 74.8418 248.083L92.6018 253.902L112.702 259.122C116.588 260.109 120.528 260.479 124.522 260.233C124.544 260.231 124.567 260.234 124.588 260.242C124.609 260.249 124.628 260.26 124.645 260.275C124.662 260.29 124.675 260.308 124.685 260.328C124.695 260.348 124.701 260.37 124.702 260.393V260.402C124.702 260.446 124.685 260.488 124.656 260.519C124.626 260.551 124.585 260.57 124.542 260.573C112.472 260.873 102.072 258.133 90.1218 254.103C90.1194 254.101 90.1167 254.101 90.1138 254.101C90.111 254.102 90.1081 254.103 90.1053 254.105C90.1025 254.107 90.0999 254.109 90.0976 254.112C90.0952 254.115 90.0933 254.119 90.0918 254.122L89.9918 254.413C89.9726 254.46 89.9733 254.514 89.9938 254.562C90.0143 254.61 90.0529 254.65 90.1018 254.673C98.4218 258.119 107.268 260.236 116.642 261.023C119.922 261.303 122.995 261.036 125.862 260.223L132.692 260.323L139.612 260.553C147.652 260.026 153.732 259.246 157.852 258.212C163.358 256.832 166.805 256.006 168.192 255.733C171.058 255.179 173.172 254.672 174.532 254.212C178.392 252.922 181.662 251.873 185.422 249.763C186.355 249.243 187.975 248.543 190.282 247.663C190.611 247.537 190.911 247.343 191.162 247.092C191.962 246.306 193.528 245.249 195.862 243.923C195.93 243.885 196.006 243.865 196.085 243.863C196.163 243.862 196.241 243.879 196.312 243.913C196.405 243.959 196.495 243.989 196.582 244.003C196.648 244.009 196.708 243.999 196.762 243.973C199.662 242.459 202.442 240.779 205.102 238.932C205.159 238.892 205.199 238.832 205.214 238.763C205.229 238.695 205.217 238.623 205.182 238.562L205.172 238.553C205.136 238.496 205.08 238.456 205.017 238.439C204.954 238.422 204.887 238.431 204.832 238.462C197.392 242.409 189.735 246.086 181.862 249.493C181.835 249.506 181.748 249.576 181.602 249.703C181.508 249.789 181.422 249.816 181.342 249.783C181.331 249.777 181.322 249.769 181.315 249.759C181.308 249.749 181.304 249.737 181.303 249.725C181.302 249.713 181.304 249.701 181.309 249.69C181.314 249.679 181.322 249.67 181.332 249.663C181.652 249.403 182.892 248.706 185.052 247.573C190.198 244.886 195.245 242.169 200.192 239.423C205.638 236.403 208.008 231.453 207.302 224.573L208.472 236.562Z" fill="#A0978D"/>
<path d="M151.552 246.773L145.302 254.293L143.412 256.323L139.612 260.553L132.692 260.323L133.202 231.663C133.356 230.529 133.332 229.509 133.132 228.603C138.092 235.513 143.612 239.673 151.552 246.773Z" fill="#CEA78B"/>
<path d="M171.122 252.083C162.102 254.996 152.865 256.409 143.412 256.323L145.302 254.293L171.122 252.083Z" fill="#925738"/>
<path d="M121.713 255.803L123.923 258.893C120.243 259.806 116.503 259.883 112.703 259.123L92.6025 253.903C98.8825 254.736 105.943 255.936 113.783 257.503C116.563 258.056 119.206 257.489 121.713 255.803Z" fill="#B58D6B"/>
<path d="M112.702 259.123C116.502 259.883 120.242 259.806 123.922 258.893C124.476 259.573 125.122 260.016 125.862 260.223C122.996 261.036 119.922 261.303 116.642 261.023C107.269 260.236 98.4224 258.119 90.1024 254.673C90.0535 254.65 90.0149 254.61 89.9944 254.562C89.9739 254.514 89.9732 254.46 89.9924 254.413L90.0924 254.123C90.0939 254.119 90.0958 254.115 90.0982 254.112C90.1005 254.109 90.1031 254.107 90.1059 254.105C90.1087 254.103 90.1116 254.102 90.1144 254.101C90.1173 254.101 90.12 254.101 90.1224 254.103C102.072 258.133 112.472 260.873 124.542 260.573C124.586 260.57 124.626 260.551 124.656 260.519C124.686 260.488 124.702 260.446 124.702 260.403V260.393C124.701 260.37 124.695 260.348 124.686 260.328C124.676 260.308 124.662 260.29 124.646 260.275C124.629 260.26 124.609 260.249 124.588 260.242C124.567 260.234 124.545 260.231 124.522 260.233C120.529 260.479 116.589 260.109 112.702 259.123Z" fill="#BA9A85"/>
</svg>
