<svg width="266" height="268" viewBox="0 0 266 268" fill="none" xmlns="http://www.w3.org/2000/svg">
<path d="M251.392 72.4418C244.092 73.4551 237.375 73.9884 231.242 74.0417C225.335 74.0951 212.852 73.995 193.792 73.7417C190.462 68.6917 183.252 63.6018 176.872 65.8118C176.76 65.8499 176.641 65.8645 176.523 65.8546C176.405 65.8447 176.29 65.8105 176.186 65.7541C176.081 65.6978 175.99 65.6206 175.917 65.5272C175.844 65.4339 175.791 65.3264 175.762 65.2117C175.242 63.1617 174.842 61.0518 173.932 59.3118C171.012 53.6918 166.648 50.5783 160.842 49.9717C156.512 49.5117 153.082 50.7417 149.922 53.6217C149.831 53.7042 149.722 53.7654 149.605 53.801C149.487 53.8366 149.363 53.8456 149.242 53.8274C149.12 53.8092 149.004 53.7643 148.902 53.6959C148.8 53.6275 148.715 53.5373 148.652 53.4318C146.018 49.0184 142.485 46.0618 138.052 44.5618C130.312 41.9418 121.272 45.5617 117.902 53.0417C117.854 53.1486 117.784 53.2437 117.696 53.3208C117.608 53.3979 117.504 53.4551 117.392 53.4884C117.28 53.5217 117.162 53.5302 117.047 53.5135C116.931 53.4969 116.82 53.4553 116.722 53.3917C109.862 48.9817 101.142 48.8717 95.0918 54.7517C73.0218 55.1017 51.0117 54.7517 29.5117 49.2117C52.6017 21.0317 84.9918 4.15167 121.172 0.591668C143.132 -1.56833 164.212 2.28177 184.892 10.5718C197.482 15.6318 209.302 23.7918 219.462 32.0618C229.468 40.2084 238.425 50.6383 246.332 63.3517C248.925 67.5117 250.612 70.5418 251.392 72.4418Z" fill="#D2C6B7"/>
<path d="M193.791 73.7418C196.838 79.0218 197.508 83.9085 195.801 88.4019C188.321 95.6152 181.338 96.5151 174.851 91.1018C173.251 89.7618 172.121 87.8019 170.871 86.0519C170.74 85.8643 170.564 85.7122 170.36 85.6093C170.155 85.5063 169.929 85.4556 169.701 85.4618C160.201 85.7018 156.001 83.4118 150.541 75.6418C150.487 75.5661 150.419 75.5017 150.34 75.4525C150.261 75.4033 150.173 75.3702 150.082 75.3553C149.991 75.3404 149.898 75.344 149.808 75.3657C149.719 75.3874 149.635 75.4269 149.561 75.4818C147.011 77.3518 144.211 79.6919 141.711 80.8019C132.141 85.0619 124.081 82.2218 116.601 75.2418C116.523 75.1693 116.43 75.1148 116.329 75.0822C116.227 75.0495 116.12 75.0395 116.014 75.0529C115.908 75.0662 115.806 75.1026 115.716 75.1594C115.626 75.2163 115.549 75.2922 115.491 75.3818C110.971 82.5885 104.548 85.6651 96.2215 84.6118C95.9418 84.5767 95.6579 84.6313 95.4102 84.7677C95.1625 84.9041 94.9635 85.1156 94.8415 85.3718C93.7315 87.6718 92.2214 89.9218 90.1314 91.4518C85.5381 94.8184 80.5514 95.0751 75.1714 92.2218C73.7914 91.4885 72.3115 90.7318 70.7315 89.9518C68.8915 85.6918 68.6715 81.5385 70.0715 77.4918C72.2615 71.2118 77.4914 67.1518 83.9214 65.7418C85.8214 65.3218 87.6081 65.4085 89.2814 66.0018C89.3336 66.0205 89.3891 66.0276 89.4441 66.0225C89.4991 66.0174 89.5521 66.0002 89.5992 65.9724C89.6462 65.9446 89.6861 65.9067 89.7159 65.8616C89.7457 65.8165 89.7647 65.7653 89.7714 65.7118C90.3847 61.5318 92.1581 57.8785 95.0915 54.7518C101.141 48.8718 109.861 48.9818 116.721 53.3918C116.82 53.4554 116.93 53.497 117.046 53.5137C117.162 53.5304 117.28 53.5218 117.392 53.4885C117.504 53.4553 117.608 53.398 117.696 53.3209C117.784 53.2438 117.854 53.1487 117.901 53.0419C121.271 45.5619 130.311 41.9419 138.051 44.5619C142.485 46.0619 146.018 49.0186 148.651 53.4319C148.714 53.5374 148.8 53.6276 148.902 53.696C149.004 53.7645 149.12 53.8093 149.242 53.8275C149.363 53.8457 149.487 53.8367 149.605 53.8011C149.722 53.7656 149.83 53.7043 149.921 53.6218C153.081 50.7418 156.511 49.5118 160.841 49.9718C166.648 50.5785 171.011 53.6919 173.931 59.3119C174.841 61.0519 175.241 63.1618 175.761 65.2118C175.791 65.3265 175.844 65.434 175.917 65.5273C175.99 65.6207 176.081 65.6979 176.185 65.7543C176.29 65.8106 176.404 65.8448 176.522 65.8547C176.64 65.8646 176.759 65.8501 176.871 65.8119C183.251 63.6019 190.461 68.6918 193.791 73.7418Z" fill="#F5EDE2"/>
<path d="M29.5118 49.2117C51.0118 54.7517 73.0219 55.1017 95.0919 54.7517C92.1585 57.8784 90.3851 61.5317 89.7718 65.7117C89.7651 65.7652 89.7461 65.8164 89.7162 65.8615C89.6864 65.9065 89.6466 65.9445 89.5995 65.9723C89.5525 66.0001 89.4995 66.0172 89.4445 66.0223C89.3895 66.0274 89.3339 66.0204 89.2818 66.0017C87.6085 65.4084 85.8218 65.3217 83.9218 65.7417C77.4918 67.1517 72.2618 71.2117 70.0718 77.4917C68.6718 81.5384 68.8919 85.6917 70.7319 89.9517C71.2119 90.705 71.3585 91.3417 71.1718 91.8617C71.133 91.9696 71.0645 92.0643 70.9743 92.135C70.8841 92.2058 70.7758 92.2497 70.6618 92.2617C67.0518 92.6817 63.4619 92.7317 60.2219 93.6517C53.8085 95.4917 47.8218 97.8917 42.2618 100.852C37.8818 103.185 34.3518 106.322 31.6718 110.262L2.13184 109.532C4.85184 93.6717 10.4284 78.5851 18.8618 64.2717L29.5118 49.2117Z" fill="#CBBFAA"/>
<path d="M251.392 72.4419C255.859 81.2086 259.219 90.2585 261.472 99.5918C253.152 106.452 244.192 108.822 233.662 109.802C232.322 107.622 230.892 105.959 229.372 104.812C219.765 97.5586 208.715 92.9818 196.222 91.0818C195.489 91.3018 195.349 90.4085 195.802 88.4019C197.509 83.9085 196.839 79.0218 193.792 73.7418C212.852 73.9952 225.335 74.0952 231.242 74.0419C237.375 73.9885 244.092 73.4552 251.392 72.4419Z" fill="#CBBFAA"/>
<path d="M195.802 88.4016C195.348 90.4083 195.488 91.3015 196.222 91.0815C191.868 94.2082 188.952 96.3717 187.472 97.5717C184.838 99.705 183.568 102.462 183.662 105.842L179.682 107.912C176.135 103.145 171.735 99.355 166.482 96.5416L162.112 99.9615C161.552 100.402 160.902 100.707 160.212 100.852C155.822 101.772 151.882 101.872 148.412 98.4116C148.304 98.3063 148.176 98.2243 148.035 98.1709C147.895 98.1175 147.744 98.0938 147.594 98.1013C147.444 98.1088 147.297 98.1474 147.162 98.2146C147.027 98.2818 146.908 98.376 146.812 98.4916C142.298 103.918 136.392 105.935 129.092 104.542C125.298 103.822 122.138 101.908 119.612 98.8016C119.562 98.7423 119.501 98.6933 119.433 98.6576C119.364 98.6219 119.29 98.6002 119.213 98.5936C119.137 98.5871 119.06 98.5959 118.988 98.6196C118.915 98.6433 118.849 98.6814 118.792 98.7316C114.552 102.512 107.842 101.942 103.372 99.2115C102.425 98.6315 101.172 97.6749 99.6115 96.3416C99.3311 96.1048 98.9697 95.9869 98.605 96.0131C98.2403 96.0392 97.9016 96.2075 97.6616 96.4816L92.3016 102.622C92.142 102.801 91.9609 102.965 91.7615 103.112L88.4015 105.442L85.9616 108.072C86.1083 107.172 85.8949 106.685 85.3216 106.612C83.8816 106.425 82.7882 106.168 82.0416 105.842C67.1749 99.3149 52.8549 100.278 39.0816 108.732C37.5216 109.692 36.1615 110.962 35.0015 112.542C34.8802 112.706 34.819 112.907 34.8281 113.11C34.8372 113.314 34.9161 113.509 35.0516 113.662C36.7649 115.602 38.8149 117.222 41.2016 118.522C49.6349 123.122 58.6482 124.518 68.2415 122.712C67.3748 125.238 65.0283 126.415 61.2016 126.242C56.5549 126.028 51.9783 125.872 47.4716 125.772C41.2616 123.692 33.6415 121.222 31.0015 114.292C30.883 113.969 30.8352 113.618 30.8615 113.262C30.9615 112.235 31.2316 111.235 31.6716 110.262C34.3516 106.322 37.8815 103.185 42.2615 100.852C47.8215 97.8916 53.8083 95.4916 60.2216 93.6516C63.4616 92.7316 67.0516 92.6816 70.6616 92.2616C70.7756 92.2496 70.8839 92.2056 70.9741 92.1349C71.0643 92.0641 71.1327 91.9694 71.1716 91.8616C71.3582 91.3416 71.2116 90.7049 70.7316 89.9515C72.3116 90.7315 73.7916 91.4882 75.1716 92.2216C80.5516 95.0749 85.5382 94.8182 90.1315 91.4515C92.2215 89.9215 93.7316 87.6716 94.8416 85.3716C94.9636 85.1153 95.1626 84.9039 95.4103 84.7675C95.6581 84.631 95.942 84.5765 96.2216 84.6116C104.548 85.6649 110.972 82.5883 115.492 75.3816C115.549 75.2919 115.626 75.216 115.716 75.1592C115.806 75.1024 115.908 75.066 116.014 75.0526C116.12 75.0393 116.227 75.0493 116.329 75.0819C116.43 75.1146 116.523 75.1691 116.602 75.2416C124.082 82.2216 132.142 85.0616 141.712 80.8016C144.212 79.6916 147.012 77.3516 149.562 75.4816C149.635 75.4266 149.719 75.3872 149.809 75.3655C149.898 75.3438 149.991 75.3402 150.082 75.3551C150.173 75.37 150.261 75.4031 150.34 75.4523C150.419 75.5015 150.487 75.5658 150.542 75.6416C156.002 83.4116 160.202 85.7015 169.702 85.4615C169.929 85.4553 170.156 85.5061 170.36 85.609C170.564 85.712 170.74 85.864 170.872 86.0516C172.122 87.8016 173.252 89.7616 174.852 91.1016C181.338 96.5149 188.322 95.6149 195.802 88.4016Z" fill="#F3E2C1"/>
<path d="M196.222 91.0815C208.715 92.9815 219.765 97.5583 229.372 104.812C230.892 105.958 232.322 107.622 233.662 109.802C234.249 111.342 234.225 113.268 233.592 115.582C232.285 114.228 231.382 113.492 230.882 113.372C229.955 111.172 228.245 109.372 225.752 107.972C211.785 100.138 197.755 99.4282 183.662 105.842C183.569 102.462 184.839 99.705 187.472 97.5717C188.952 96.3717 191.869 94.2082 196.222 91.0815Z" fill="#F5E8D6"/>
<path d="M166.482 96.5419C166.149 99.0086 165.589 100.812 164.802 101.952C159.142 110.102 153.222 116.752 153.492 127.342C153.666 133.875 154.459 143.022 155.872 154.782C156.562 160.532 157.622 169.692 153.032 174.092C152.928 174.192 152.801 174.265 152.662 174.302C152.524 174.338 152.379 174.338 152.242 174.302L141.612 171.662C141.442 171.62 141.284 171.537 141.153 171.42C141.022 171.302 140.922 171.155 140.862 170.99C140.801 170.825 140.783 170.647 140.807 170.473C140.832 170.299 140.899 170.134 141.002 169.992L145.822 163.292C147.876 161.445 148.462 159.208 147.582 156.582C143.242 149.022 126.442 149.632 120.122 153.962C118.102 155.342 117.459 156.875 118.192 158.562C118.166 159.975 118.649 161.305 119.642 162.552C122.372 166.232 125.412 169.712 128.302 171.232C128.356 171.259 128.401 171.3 128.434 171.35C128.467 171.4 128.486 171.458 128.489 171.518C128.492 171.578 128.479 171.638 128.452 171.691C128.424 171.744 128.383 171.79 128.332 171.822C124.052 174.572 119.202 174.632 112.342 175.542C111.994 175.589 111.64 175.566 111.301 175.474C110.962 175.382 110.645 175.222 110.368 175.005C110.091 174.788 109.861 174.518 109.69 174.21C109.519 173.902 109.411 173.562 109.372 173.212L108.272 162.882C108.266 162.829 108.269 162.775 108.282 162.722C109.529 154.815 110.829 146.082 112.182 136.522C113.572 126.642 111.592 113.122 104.022 105.872C103.789 105.652 103.49 105.514 103.172 105.482C99.1724 105.052 93.5023 107.312 88.4023 105.442L91.7623 103.112C91.9617 102.966 92.1428 102.801 92.3024 102.622L97.6624 96.4819C97.9024 96.2078 98.2411 96.0395 98.6058 96.0134C98.9705 95.9872 99.3319 96.1051 99.6123 96.3418C101.172 97.6752 102.426 98.6318 103.372 99.2118C107.842 101.942 114.552 102.512 118.792 98.7319C118.849 98.6817 118.916 98.6436 118.989 98.6199C119.061 98.5962 119.138 98.5874 119.214 98.5939C119.291 98.6004 119.365 98.6222 119.433 98.6579C119.502 98.6936 119.563 98.7426 119.612 98.8019C122.139 101.909 125.299 103.822 129.092 104.542C136.392 105.935 142.299 103.919 146.812 98.4919C146.909 98.3763 147.028 98.2821 147.163 98.2149C147.297 98.1477 147.445 98.1091 147.595 98.1016C147.745 98.0941 147.895 98.1178 148.036 98.1712C148.177 98.2246 148.305 98.3066 148.412 98.4119C151.882 101.872 155.822 101.772 160.212 100.852C160.903 100.707 161.553 100.402 162.112 99.9618L166.482 96.5419Z" fill="#FEFBEF"/>
<path d="M179.681 107.912C179.521 109.985 179.728 111.915 180.301 113.702C179.968 125.115 179.361 133.218 178.481 138.012C176.281 150.092 173.181 163.252 164.881 172.432C164.081 173.312 161.301 175.882 156.541 180.142C156.282 180.374 156.048 180.632 155.841 180.912C150.541 188.262 141.431 193.502 132.251 193.222C123.161 192.932 114.881 187.022 109.841 179.562C109.431 178.959 108.928 178.422 108.351 177.972C105.421 175.692 102.351 173.512 100.041 170.612C97.0147 166.818 94.9214 163.352 93.7614 160.212C90.7147 152.005 88.5847 143.312 87.3713 134.132C86.5913 128.282 86.3814 120.262 85.6914 113.372L85.9614 108.072L88.4014 105.442C93.5014 107.312 99.1714 105.052 103.171 105.482C103.489 105.514 103.788 105.651 104.021 105.872C111.591 113.122 113.571 126.642 112.181 136.522C110.828 146.082 109.528 154.815 108.281 162.722C108.268 162.775 108.265 162.829 108.271 162.882L109.371 173.212C109.41 173.562 109.518 173.901 109.689 174.209C109.86 174.517 110.09 174.788 110.367 175.005C110.644 175.222 110.961 175.382 111.3 175.474C111.639 175.566 111.993 175.589 112.341 175.542C119.201 174.632 124.051 174.572 128.331 171.822C128.382 171.789 128.423 171.744 128.451 171.691C128.478 171.638 128.491 171.578 128.488 171.518C128.485 171.458 128.466 171.4 128.433 171.35C128.4 171.299 128.355 171.259 128.301 171.232C125.411 169.712 122.371 166.232 119.641 162.552C122.408 165.285 125.411 167.172 128.651 168.212C129.335 168.432 129.94 168.846 130.391 169.404C130.842 169.962 131.12 170.639 131.191 171.352C131.391 173.432 131.395 175.682 131.201 178.102C131.115 179.128 130.838 179.852 130.371 180.272C127.681 182.672 123.271 181.282 120.601 179.262C118.375 177.575 117.125 176.645 116.851 176.472C116.766 176.417 116.664 176.393 116.563 176.403C116.463 176.413 116.368 176.457 116.294 176.527C116.22 176.598 116.171 176.692 116.154 176.794C116.137 176.896 116.154 177 116.201 177.092C119.641 183.392 123.871 184.932 131.091 184.632C138.641 184.332 145.581 185.692 149.741 177.282C149.821 177.115 149.795 176.868 149.661 176.542C149.632 176.471 149.585 176.408 149.525 176.36C149.464 176.313 149.393 176.281 149.316 176.268C149.24 176.255 149.161 176.261 149.087 176.286C149.012 176.312 148.945 176.355 148.891 176.412C146.025 179.478 142.711 181.195 138.951 181.562C136.125 181.835 134.671 180.578 134.591 177.792C134.511 175.082 134.151 169.522 136.881 168.202C140.901 166.262 143.881 164.625 145.821 163.292L141.001 169.992C140.898 170.134 140.831 170.299 140.806 170.473C140.782 170.647 140.8 170.824 140.861 170.99C140.921 171.155 141.021 171.302 141.152 171.42C141.283 171.537 141.441 171.62 141.611 171.662L152.241 174.302C152.378 174.338 152.523 174.338 152.661 174.301C152.8 174.265 152.927 174.192 153.031 174.092C157.621 169.692 156.561 160.532 155.871 154.782C154.458 143.022 153.665 133.875 153.491 127.342C153.221 116.752 159.141 110.102 164.801 101.952C165.588 100.812 166.148 99.0084 166.481 96.5417C171.735 99.3551 176.135 103.145 179.681 107.912ZM159.551 125.212C161.011 124.472 162.411 124.338 163.751 124.812C168.458 126.452 171.735 125.202 173.581 121.062C174.381 119.262 173.921 117.142 176.101 116.762C176.225 116.742 176.339 116.684 176.428 116.595C176.517 116.507 176.576 116.393 176.597 116.27C176.618 116.146 176.6 116.019 176.545 115.907C176.49 115.794 176.402 115.701 176.291 115.642C174.231 114.488 172.408 113.535 170.821 112.782C166.271 110.612 161.651 115.682 160.521 119.612C159.668 122.578 159.195 124.335 159.101 124.882C159.092 124.938 159.097 124.995 159.119 125.047C159.14 125.1 159.176 125.146 159.222 125.18C159.269 125.214 159.324 125.235 159.382 125.24C159.44 125.246 159.498 125.236 159.551 125.212ZM106.851 125.092C106.041 120.152 104.661 115.632 100.191 113.032C96.5014 110.892 91.8414 114.642 89.0714 115.932C88.9591 115.987 88.868 116.078 88.8124 116.19C88.7567 116.302 88.7395 116.429 88.7634 116.552C88.7873 116.675 88.851 116.787 88.9446 116.87C89.0382 116.953 89.1565 117.003 89.2814 117.012L90.6514 117.082C90.8151 117.091 90.9712 117.154 91.0958 117.26C91.2204 117.367 91.3067 117.512 91.3414 117.672C92.2314 121.872 94.7414 126.122 99.7314 125.172C101.601 124.822 104.231 124.102 106.221 125.492C106.286 125.54 106.364 125.567 106.445 125.57C106.526 125.573 106.605 125.551 106.674 125.508C106.742 125.464 106.795 125.402 106.827 125.327C106.859 125.253 106.867 125.171 106.851 125.092Z" fill="#F5E8D6"/>
<path d="M264.322 154.062L260.302 172.082C258.272 165.022 254.512 160.142 246.772 159.052C241.319 158.292 235.059 158.579 227.992 159.912C229.005 152.945 226.675 147.622 221.002 143.942C219.782 143.155 218.635 142.405 217.562 141.692C217.47 141.63 217.392 141.55 217.333 141.457C217.274 141.364 217.235 141.259 217.219 141.15C217.203 141.04 217.21 140.929 217.24 140.822C217.27 140.716 217.322 140.617 217.392 140.532C220.752 136.465 220.995 131.772 218.122 126.452C218.054 126.326 218.015 126.186 218.008 126.042C218.002 125.899 218.028 125.756 218.085 125.624C218.142 125.492 218.228 125.375 218.336 125.281C218.445 125.187 218.573 125.119 218.712 125.082C224.972 123.402 229.932 120.235 233.592 115.582C234.225 113.268 234.249 111.342 233.662 109.802C244.192 108.822 253.152 106.452 261.472 99.5918C261.879 101.185 262.235 102.685 262.542 104.092C264.649 113.958 265.755 123.918 265.862 133.972C265.882 136.325 265.619 139.665 265.072 143.992C264.645 147.398 264.395 150.755 264.322 154.062Z" fill="#BBB0A4"/>
<path d="M85.9616 108.072L85.6916 113.372C80.3449 117.345 74.5282 120.458 68.2415 122.712C58.6482 124.518 49.6349 123.122 41.2016 118.522C38.8149 117.222 36.7649 115.602 35.0515 113.662C34.916 113.509 34.8371 113.314 34.828 113.111C34.8189 112.907 34.8801 112.706 35.0015 112.542C36.1615 110.962 37.5216 109.692 39.0816 108.732C52.8549 100.278 67.1749 99.3149 82.0415 105.842C82.7882 106.168 83.8816 106.425 85.3216 106.612C85.8949 106.685 86.1082 107.172 85.9616 108.072Z" fill="#BB756F"/>
<path d="M230.882 113.372C224.776 119.199 217.186 122.565 208.112 123.472C197.682 124.502 188.242 119.912 180.302 113.702C179.729 111.915 179.522 109.985 179.682 107.912L183.662 105.842C197.756 99.4285 211.786 100.138 225.752 107.972C228.246 109.372 229.956 111.172 230.882 113.372Z" fill="#BB756F"/>
<path d="M31.6718 110.262C31.2318 111.235 30.9618 112.235 30.8618 113.262C30.8355 113.618 30.8833 113.969 31.0018 114.292C33.6418 121.222 41.2619 123.692 47.4719 125.772C46.9119 128.232 45.6018 131.362 45.6818 133.492C45.7752 136.052 46.6018 138.595 48.1618 141.122C48.2167 141.211 48.2521 141.311 48.2656 141.414C48.2791 141.518 48.2704 141.623 48.2402 141.724C48.21 141.824 48.1588 141.917 48.0902 141.995C48.0215 142.074 47.9369 142.138 47.8419 142.182C39.0352 146.268 36.0185 153.105 38.7918 162.692C27.0018 165.732 15.0818 168.002 3.27181 163.392L1.60183 159.212C0.341827 147.692 -0.174827 137.625 0.0518393 129.012C0.185173 124.112 0.878523 117.618 2.13186 109.532L31.6718 110.262Z" fill="#BBB0A4"/>
<path d="M159.552 125.212C159.499 125.236 159.441 125.246 159.383 125.24C159.325 125.235 159.269 125.214 159.223 125.18C159.177 125.146 159.141 125.1 159.12 125.047C159.098 124.995 159.092 124.938 159.102 124.882C159.196 124.335 159.669 122.578 160.522 119.612C161.652 115.682 166.272 110.612 170.822 112.782C172.409 113.535 174.232 114.488 176.292 115.642C176.402 115.701 176.491 115.794 176.546 115.907C176.601 116.019 176.619 116.146 176.598 116.27C176.577 116.393 176.518 116.507 176.429 116.595C176.34 116.684 176.226 116.742 176.102 116.762C173.922 117.142 174.382 119.262 173.582 121.062C171.736 125.202 168.459 126.452 163.752 124.812C162.412 124.338 161.012 124.472 159.552 125.212ZM170.522 117.142C170.522 116.701 170.347 116.279 170.036 115.968C169.725 115.657 169.302 115.482 168.862 115.482C168.422 115.482 168 115.657 167.689 115.968C167.377 116.279 167.202 116.701 167.202 117.142C167.202 117.582 167.377 118.004 167.689 118.316C168 118.627 168.422 118.802 168.862 118.802C169.302 118.802 169.725 118.627 170.036 118.316C170.347 118.004 170.522 117.582 170.522 117.142Z" fill="#301A15"/>
<path d="M106.852 125.092C106.868 125.171 106.86 125.253 106.828 125.327C106.796 125.402 106.743 125.464 106.675 125.508C106.606 125.551 106.527 125.573 106.446 125.57C106.365 125.567 106.287 125.54 106.222 125.492C104.232 124.102 101.602 124.822 99.7324 125.172C94.7424 126.122 92.2324 121.872 91.3424 117.672C91.3077 117.512 91.2214 117.367 91.0968 117.261C90.9722 117.154 90.816 117.091 90.6523 117.082L89.2823 117.012C89.1575 117.003 89.0392 116.953 88.9455 116.87C88.8519 116.787 88.7883 116.675 88.7644 116.552C88.7405 116.429 88.7577 116.302 88.8133 116.19C88.869 116.078 88.9601 115.987 89.0724 115.932C91.8424 114.642 96.5024 110.892 100.192 113.032C104.662 115.632 106.042 120.152 106.852 125.092ZM98.6453 115.792C98.4435 115.437 98.0906 115.187 97.6642 115.097C97.2378 115.007 96.7729 115.085 96.3717 115.313C96.173 115.426 95.9959 115.572 95.8506 115.744C95.7053 115.915 95.5945 116.108 95.5246 116.313C95.4548 116.517 95.4272 116.728 95.4435 116.933C95.4597 117.139 95.5196 117.335 95.6195 117.511C95.8213 117.866 96.1741 118.116 96.6005 118.206C97.0268 118.296 97.4918 118.219 97.8931 117.991C98.0917 117.878 98.2689 117.732 98.4142 117.56C98.5595 117.388 98.6701 117.195 98.74 116.991C98.8098 116.787 98.8374 116.576 98.8212 116.37C98.8049 116.164 98.7452 115.968 98.6453 115.792Z" fill="#301A15"/>
<path d="M233.592 115.582C229.932 120.235 224.972 123.402 218.712 125.082C218.574 125.119 218.445 125.187 218.336 125.281C218.228 125.375 218.142 125.492 218.085 125.624C218.028 125.755 218.002 125.898 218.009 126.042C218.015 126.185 218.054 126.325 218.122 126.452C220.995 131.772 220.752 136.465 217.392 140.532C217.322 140.617 217.27 140.716 217.24 140.822C217.211 140.929 217.204 141.04 217.22 141.149C217.236 141.259 217.274 141.363 217.333 141.457C217.392 141.55 217.47 141.63 217.562 141.692C218.636 142.405 219.782 143.155 221.002 143.942C226.675 147.622 229.005 152.945 227.992 159.912C227.665 161.658 226.536 163.508 224.602 165.462C223.876 166.068 223.322 166.838 222.942 167.772C222.87 167.944 222.835 168.132 222.84 168.321C222.845 168.511 222.89 168.698 222.972 168.872C223.762 170.532 225.042 172.522 225.392 174.162C226.892 181.152 223.322 185.572 218.242 189.592C218.021 189.766 217.86 190.006 217.783 190.277C217.706 190.548 217.716 190.837 217.812 191.102C218.582 193.212 219.392 195.352 219.482 197.522C219.862 206.482 215.639 212.118 206.812 214.432C206.685 214.466 206.574 214.543 206.497 214.648C206.421 214.754 206.384 214.882 206.392 215.012C206.732 219.038 205.502 222.875 202.702 226.522C197.416 233.415 190.926 234.748 183.232 230.522C183.17 230.489 183.101 230.47 183.031 230.466C182.961 230.462 182.891 230.473 182.826 230.499C182.76 230.525 182.701 230.564 182.652 230.614C182.603 230.665 182.566 230.725 182.542 230.792C179.736 238.872 174.152 242.742 165.792 242.402C161.932 242.242 158.872 240.645 156.612 237.612C156.55 237.528 156.468 237.461 156.373 237.417C156.279 237.373 156.175 237.353 156.071 237.359C155.967 237.365 155.866 237.397 155.777 237.451C155.688 237.506 155.615 237.582 155.562 237.672C152.989 242.205 149.225 245.592 144.272 247.832C131.392 253.662 118.322 249.762 111.512 237.182C111.464 237.092 111.396 237.014 111.315 236.952C111.233 236.891 111.14 236.848 111.04 236.826C110.94 236.804 110.837 236.804 110.737 236.826C110.638 236.848 110.544 236.89 110.462 236.952C108.209 238.652 107.055 239.525 107.002 239.572C99.8821 244.612 90.9422 241.902 86.3022 234.852C85.0222 232.905 84.1189 231.348 83.5922 230.182C83.5556 230.101 83.5003 230.03 83.431 229.975C83.3616 229.92 83.2801 229.882 83.1932 229.864C83.1063 229.846 83.0165 229.85 82.9311 229.874C82.8457 229.898 82.7673 229.941 82.7022 230.002C78.3222 234.042 71.5822 234.052 67.0222 230.252C63.0022 226.892 59.0022 220.182 59.8922 215.092C59.9206 214.926 59.8866 214.755 59.7963 214.611C59.7061 214.467 59.5658 214.361 59.4022 214.312C58.4322 214.032 57.0921 213.942 56.4921 213.722C47.6521 210.522 44.8622 201.832 47.0922 193.162C47.4922 191.602 47.7322 190.648 47.8122 190.302C47.8544 190.117 47.8419 189.923 47.7764 189.742C47.7109 189.562 47.5951 189.402 47.4422 189.282C45.2722 187.582 43.3322 186.162 42.3022 183.572C40.5022 179.058 40.5455 174.725 42.4322 170.572C43.0989 169.112 42.7955 167.885 41.5222 166.892L38.7922 162.692C36.0189 153.105 39.0356 146.268 47.8422 142.182C47.9372 142.138 48.0219 142.074 48.0905 141.995C48.1592 141.916 48.2103 141.824 48.2405 141.724C48.2708 141.623 48.2794 141.518 48.2659 141.414C48.2524 141.31 48.2171 141.211 48.1622 141.122C46.6022 138.595 45.7755 136.052 45.6822 133.492C45.6022 131.362 46.9122 128.232 47.4722 125.772C51.9789 125.872 56.5556 126.028 61.2022 126.242C65.0289 126.415 67.3755 125.238 68.2421 122.712C74.5288 120.458 80.3455 117.345 85.6922 113.372C86.3822 120.262 86.5921 128.282 87.3721 134.132C88.5855 143.312 90.7155 152.005 93.7622 160.212C94.9222 163.352 97.0155 166.818 100.042 170.612C102.352 173.512 105.422 175.692 108.352 177.972C108.929 178.422 109.431 178.959 109.842 179.562C114.882 187.022 123.162 192.932 132.252 193.222C141.432 193.502 150.542 188.262 155.842 180.912C156.048 180.632 156.283 180.374 156.542 180.142C161.302 175.882 164.082 173.312 164.882 172.432C173.182 163.252 176.282 150.092 178.482 138.012C179.362 133.218 179.969 125.115 180.302 113.702C188.242 119.912 197.682 124.502 208.112 123.472C217.185 122.565 224.775 119.198 230.882 113.372C231.382 113.492 232.286 114.228 233.592 115.582ZM62.6722 153.792C62.2255 155.652 62.2722 157.195 62.8122 158.422C65.2222 163.902 66.6322 166.082 67.0822 169.852C67.6522 174.582 66.7122 184.012 70.8022 190.032C73.5822 194.122 77.3922 195.902 82.1822 197.452C82.8561 197.669 83.4706 198.04 83.9774 198.536C84.4841 199.033 84.8692 199.64 85.1022 200.312C88.8222 211.122 97.5822 217.192 109.182 213.652C109.551 213.538 109.946 213.54 110.313 213.658C110.68 213.777 111.001 214.005 111.232 214.312C120.312 226.342 139.352 226.442 151.192 219.112C151.869 218.694 152.485 218.185 153.022 217.602L156.232 214.122C156.436 213.9 156.695 213.737 156.983 213.649C157.271 213.562 157.578 213.552 157.872 213.622C167.279 215.868 174.532 212.955 179.632 204.882C180.742 203.132 181.432 200.392 182.612 198.892C183.022 198.371 183.58 197.987 184.212 197.792C190.952 195.682 195.272 192.702 197.722 185.542C198.876 182.182 199.412 178.782 199.332 175.342C199.299 173.595 199.199 171.545 199.032 169.192C199.006 168.841 199.098 168.493 199.292 168.202C202.432 163.322 204.962 158.042 203.722 152.122C203.902 142.042 202.082 132.712 190.862 130.362C190.714 130.33 190.559 130.348 190.423 130.413C190.287 130.478 190.178 130.587 190.112 130.722C186.239 138.582 183.546 144.878 182.032 149.612C176.312 167.472 166.022 190.812 148.372 197.642C130.892 204.402 114.162 196.602 103.932 181.642C99.5122 175.188 95.5488 168.462 92.0422 161.462C83.0288 143.495 78.2322 133.932 77.6522 132.772C77.585 132.634 77.4832 132.517 77.357 132.431C77.2308 132.345 77.0844 132.294 76.9322 132.282C74.1655 132.055 71.4755 132.325 68.8621 133.092C68.4442 133.214 68.0873 133.489 67.8621 133.862C64.1821 139.982 61.5322 146.302 62.6722 153.792Z" fill="#E5CBAC"/>
<path d="M97.8927 117.991C98.7282 117.516 99.065 116.532 98.6449 115.792C98.2248 115.053 97.2069 114.838 96.3713 115.313C95.5358 115.787 95.199 116.772 95.6191 117.511C96.0392 118.251 97.0571 118.465 97.8927 117.991Z" fill="#F5EDE2"/>
<path d="M168.862 118.802C169.779 118.802 170.522 118.059 170.522 117.142C170.522 116.225 169.779 115.482 168.862 115.482C167.945 115.482 167.202 116.225 167.202 117.142C167.202 118.059 167.945 118.802 168.862 118.802Z" fill="#F5E8D6"/>
<path d="M203.722 152.122C202.308 156.388 199.518 159.435 195.352 161.262C195.233 161.314 195.126 161.389 195.037 161.483C194.948 161.576 194.878 161.687 194.833 161.808C194.787 161.93 194.766 162.059 194.771 162.188C194.776 162.317 194.807 162.444 194.862 162.562C197.992 169.162 198.682 175.092 193.562 180.902C190.615 184.248 186.825 185.785 182.192 185.512C182.037 185.504 181.882 185.527 181.736 185.579C181.591 185.632 181.457 185.714 181.343 185.819C181.229 185.924 181.138 186.052 181.074 186.193C181.01 186.334 180.976 186.487 180.972 186.642C180.812 193.875 177.482 198.762 170.982 201.302C166.142 203.195 161.468 203.108 156.962 201.042C156.784 200.96 156.582 200.948 156.395 201.007C156.209 201.066 156.051 201.193 155.952 201.362C153.658 205.315 150.322 208.422 145.942 210.682C133.552 217.062 118.212 213.942 110.902 201.712C110.741 201.443 110.486 201.245 110.186 201.154C109.887 201.064 109.564 201.088 109.282 201.222C98.3317 206.442 85.1918 199.422 85.8418 186.512C85.8484 186.372 85.8236 186.233 85.7691 186.105C85.7147 185.977 85.6321 185.862 85.5274 185.77C85.4228 185.678 85.2987 185.61 85.1644 185.572C85.0301 185.535 84.8891 185.528 84.7517 185.552C80.2384 186.358 76.4251 185.158 73.3117 181.952C68.4617 176.952 66.5617 169.162 71.1617 163.502C71.2342 163.414 71.2869 163.312 71.3163 163.202C71.3457 163.093 71.3511 162.978 71.3321 162.866C71.3132 162.754 71.2702 162.647 71.2063 162.553C71.1424 162.459 71.059 162.381 70.9618 162.322C67.2118 160.092 64.3317 158.562 62.6717 153.792C61.5317 146.302 64.1817 139.982 67.8617 133.862C68.0869 133.489 68.4437 133.214 68.8617 133.092C71.475 132.325 74.1651 132.055 76.9317 132.282C77.084 132.294 77.2303 132.345 77.3565 132.431C77.4828 132.517 77.5845 132.635 77.6517 132.772C78.2317 133.932 83.0284 143.495 92.0417 161.462C95.5484 168.462 99.5117 175.188 103.932 181.642C114.162 196.602 130.892 204.402 148.372 197.642C166.022 190.812 176.312 167.472 182.032 149.612C183.545 144.878 186.238 138.582 190.112 130.722C190.177 130.587 190.287 130.479 190.423 130.413C190.559 130.348 190.713 130.33 190.862 130.362C202.082 132.712 203.902 142.042 203.722 152.122Z" fill="#E7D7BF"/>
<path d="M147.581 156.582C142.621 159.622 138.041 162.965 133.841 166.612C133.542 166.869 133.156 167.004 132.763 166.989C132.369 166.974 131.997 166.811 131.721 166.532C128.035 162.805 123.978 159.822 119.551 157.582C119.447 157.528 119.332 157.496 119.215 157.49C119.097 157.484 118.98 157.503 118.87 157.545C118.76 157.588 118.661 157.653 118.578 157.737C118.496 157.821 118.432 157.921 118.391 158.032L118.191 158.562C117.458 156.875 118.101 155.342 120.121 153.962C126.441 149.632 143.241 149.022 147.581 156.582Z" fill="#E4B3AE"/>
<path d="M62.6715 153.792C64.3315 158.562 67.2115 160.092 70.9615 162.322C71.0587 162.38 71.1421 162.459 71.206 162.553C71.2699 162.647 71.3129 162.754 71.3319 162.866C71.3509 162.978 71.3454 163.093 71.316 163.202C71.2866 163.312 71.2339 163.414 71.1615 163.502C66.5615 169.162 68.4615 176.952 73.3115 181.952C76.4248 185.158 80.2381 186.358 84.7514 185.552C84.8888 185.527 85.0299 185.535 85.1641 185.572C85.2984 185.61 85.4225 185.677 85.5272 185.77C85.6319 185.862 85.7145 185.976 85.7689 186.105C85.8233 186.233 85.8481 186.372 85.8415 186.512C85.1915 199.422 98.3315 206.442 109.281 201.222C109.564 201.088 109.887 201.063 110.186 201.154C110.485 201.245 110.74 201.443 110.901 201.712C118.211 213.942 133.551 217.062 145.941 210.682C150.321 208.422 153.658 205.315 155.951 201.362C156.05 201.193 156.208 201.066 156.395 201.007C156.581 200.948 156.783 200.96 156.962 201.042C161.468 203.108 166.142 203.195 170.982 201.302C177.482 198.762 180.812 193.875 180.972 186.642C180.975 186.487 181.01 186.334 181.074 186.193C181.138 186.051 181.229 185.924 181.343 185.819C181.457 185.714 181.59 185.632 181.736 185.579C181.882 185.527 182.037 185.504 182.191 185.512C186.825 185.785 190.615 184.248 193.561 180.902C198.681 175.092 197.991 169.162 194.861 162.562C194.807 162.444 194.776 162.317 194.771 162.188C194.766 162.058 194.787 161.929 194.832 161.808C194.878 161.687 194.947 161.576 195.037 161.482C195.126 161.389 195.233 161.313 195.352 161.262C199.518 159.435 202.308 156.388 203.722 152.122C204.962 158.042 202.431 163.322 199.291 168.202C199.097 168.493 199.006 168.841 199.031 169.192C199.198 171.545 199.298 173.595 199.331 175.342C199.411 178.782 198.875 182.182 197.722 185.542C195.272 192.702 190.952 195.682 184.212 197.792C183.579 197.987 183.021 198.371 182.611 198.892C181.431 200.392 180.741 203.132 179.631 204.882C174.531 212.955 167.278 215.868 157.871 213.622C157.577 213.552 157.271 213.562 156.982 213.649C156.694 213.737 156.435 213.9 156.232 214.122L153.021 217.602C152.484 218.185 151.868 218.694 151.191 219.112C139.351 226.442 120.312 226.342 111.232 214.312C111 214.005 110.679 213.777 110.312 213.658C109.946 213.54 109.551 213.538 109.181 213.652C97.5815 217.192 88.8215 211.122 85.1015 200.312C84.8685 199.64 84.4834 199.033 83.9766 198.536C83.4699 198.04 82.8554 197.669 82.1815 197.452C77.3915 195.902 73.5815 194.122 70.8015 190.032C66.7115 184.012 67.6515 174.582 67.0815 169.852C66.6315 166.082 65.2215 163.902 62.8115 158.422C62.2715 157.195 62.2248 155.652 62.6715 153.792Z" fill="#C3AE99"/>
<path d="M260.302 172.081C258.496 178.375 257.132 182.622 256.212 184.822C254.579 188.742 251.526 194.782 247.052 202.942C238.792 217.982 226.872 229.822 213.392 240.482C210.112 243.075 207.166 245.118 204.552 246.612C191.782 253.902 181.232 259.222 168.872 262.392C161.272 264.342 148.562 266.972 139.222 267.432C123.622 268.202 109.742 265.012 94.0222 261.102C80.2122 257.662 66.7522 251.122 55.3822 242.432C54.6622 241.878 50.5722 238.912 43.1122 233.532C41.0655 232.052 38.5623 229.492 35.6023 225.852C34.109 224.018 29.8956 218.368 22.9623 208.902C21.6823 207.162 19.8322 205.481 18.1722 203.961C12.3122 192.481 7.59889 180.568 4.03223 168.222C6.18556 173.115 8.69559 179.478 11.5623 187.312C14.4356 195.158 18.8389 202.458 24.7722 209.211C26.2122 210.845 27.8689 212.265 29.7422 213.472C36.6422 221.972 43.9922 229.275 51.7922 235.382C70.3722 249.942 91.8423 258.742 116.202 261.782C132.909 263.862 148.516 263.195 163.022 259.782C169.862 258.175 175.576 256.412 180.162 254.492C187.362 251.485 192.786 248.905 196.432 246.752C201.722 243.632 205.012 241.942 209.002 238.872C212.542 236.145 215.156 234.242 216.842 233.162C218.969 231.802 223.572 227.328 230.652 219.742C233.666 216.522 235.189 214.892 235.222 214.852C240.942 208.482 237.142 200.371 233.812 194.081C233.561 193.608 233.416 193.086 233.387 192.552C233.358 192.019 233.445 191.486 233.642 190.992C235.102 187.262 235.822 184.022 234.742 180.012C233.149 174.118 229.769 169.268 224.602 165.461C226.536 163.508 227.666 161.658 227.992 159.912C235.059 158.578 241.319 158.292 246.772 159.052C254.512 160.142 258.272 165.021 260.302 172.081Z" fill="#A29C9C"/>
<path d="M147.582 156.582C148.462 159.208 147.876 161.445 145.822 163.292C143.882 164.625 140.902 166.262 136.882 168.202C134.152 169.522 134.512 175.082 134.592 177.792C134.672 180.578 136.126 181.835 138.952 181.562C142.712 181.195 146.026 179.478 148.892 176.412C148.946 176.355 149.013 176.311 149.087 176.286C149.162 176.261 149.241 176.255 149.317 176.268C149.394 176.281 149.465 176.313 149.526 176.36C149.586 176.408 149.633 176.471 149.662 176.542C149.796 176.868 149.822 177.115 149.742 177.282C145.582 185.692 138.642 184.332 131.092 184.632C123.872 184.932 119.642 183.392 116.202 177.092C116.155 177 116.138 176.896 116.155 176.793C116.171 176.691 116.221 176.598 116.295 176.527C116.369 176.456 116.464 176.413 116.564 176.403C116.665 176.393 116.766 176.417 116.852 176.472C117.126 176.645 118.376 177.575 120.602 179.262C123.272 181.282 127.682 182.672 130.372 180.272C130.839 179.852 131.116 179.128 131.202 178.102C131.396 175.682 131.392 173.432 131.192 171.352C131.121 170.639 130.843 169.962 130.392 169.404C129.941 168.846 129.336 168.432 128.652 168.212C125.412 167.172 122.409 165.285 119.642 162.552C118.649 161.305 118.166 159.975 118.192 158.562L118.392 158.032C118.433 157.921 118.497 157.821 118.579 157.737C118.662 157.653 118.761 157.588 118.871 157.545C118.98 157.502 119.098 157.484 119.216 157.49C119.333 157.496 119.448 157.527 119.552 157.582C123.979 159.822 128.036 162.805 131.722 166.532C131.998 166.811 132.37 166.974 132.764 166.989C133.157 167.004 133.543 166.869 133.842 166.612C138.042 162.965 142.622 159.622 147.582 156.582Z" fill="#614739"/>
<path d="M38.7915 162.692L41.5215 166.892C38.0282 169.205 35.2115 171.885 33.0715 174.932C29.5615 179.912 30.3115 185.862 33.2515 191.032C33.4436 191.368 33.537 191.751 33.5211 192.138C33.5052 192.525 33.3806 192.901 33.1615 193.222C29.0015 199.262 26.3315 206.012 29.7415 213.472C27.8681 212.265 26.2115 210.845 24.7715 209.212C18.8382 202.458 14.4349 195.159 11.5615 187.312C8.69486 179.479 6.18483 173.115 4.03149 168.222L3.27148 163.392C15.0815 168.002 27.0015 165.732 38.7915 162.692Z" fill="#A0978D"/>
<path d="M224.602 165.462C229.769 169.268 233.148 174.118 234.742 180.012C235.822 184.022 235.102 187.262 233.642 190.992C233.444 191.486 233.357 192.019 233.387 192.553C233.416 193.086 233.561 193.608 233.812 194.082C237.142 200.372 240.942 208.482 235.222 214.852C235.189 214.892 233.665 216.522 230.652 219.742C223.572 227.328 218.969 231.802 216.842 233.162C215.155 234.242 212.542 236.145 209.002 238.872C205.012 241.942 201.722 243.632 196.432 246.752C192.785 248.905 187.362 251.485 180.162 254.492C175.575 256.412 169.862 258.175 163.022 259.782C148.515 263.195 132.909 263.862 116.202 261.782C91.8419 258.742 70.3718 249.942 51.7918 235.382C43.9918 229.275 36.6418 221.972 29.7418 213.472C26.3318 206.012 29.0018 199.262 33.1618 193.222C33.3809 192.901 33.5055 192.525 33.5214 192.138C33.5374 191.751 33.4439 191.367 33.2518 191.032C30.3118 185.862 29.5619 179.912 33.0719 174.932C35.2119 171.885 38.0285 169.205 41.5218 166.892C42.7951 167.885 43.0985 169.112 42.4318 170.572C40.5452 174.725 40.5018 179.058 42.3018 183.572C43.3318 186.162 45.2719 187.582 47.4419 189.282C47.5947 189.402 47.7106 189.562 47.7761 189.743C47.8416 189.923 47.854 190.117 47.8119 190.302C47.7319 190.648 47.4919 191.602 47.0919 193.162C44.8619 201.832 47.6518 210.522 56.4918 213.722C57.0918 213.942 58.4318 214.032 59.4018 214.312C59.5655 214.361 59.7057 214.467 59.796 214.611C59.8862 214.755 59.9203 214.926 59.8918 215.092C59.0018 220.182 63.0018 226.892 67.0218 230.252C71.5818 234.052 78.3219 234.042 82.7019 230.002C82.767 229.942 82.8454 229.898 82.9308 229.874C83.0161 229.85 83.1059 229.847 83.1928 229.864C83.2797 229.882 83.3613 229.92 83.4306 229.975C83.5 230.03 83.5553 230.101 83.5919 230.182C84.1186 231.348 85.0218 232.905 86.3018 234.852C90.9418 241.902 99.8818 244.612 107.002 239.572C107.055 239.525 108.209 238.652 110.462 236.952C110.544 236.89 110.637 236.848 110.737 236.826C110.837 236.804 110.94 236.805 111.04 236.826C111.139 236.848 111.233 236.891 111.314 236.953C111.396 237.014 111.463 237.092 111.512 237.182C118.322 249.762 131.392 253.662 144.272 247.832C149.225 245.592 152.989 242.205 155.562 237.672C155.614 237.582 155.688 237.506 155.777 237.451C155.866 237.397 155.967 237.365 156.071 237.359C156.175 237.353 156.279 237.373 156.373 237.417C156.468 237.461 156.55 237.528 156.612 237.612C158.872 240.645 161.932 242.242 165.792 242.402C174.152 242.742 179.735 238.872 182.542 230.792C182.565 230.726 182.603 230.665 182.652 230.615C182.701 230.564 182.76 230.525 182.825 230.499C182.891 230.473 182.961 230.462 183.031 230.466C183.101 230.47 183.17 230.489 183.232 230.522C190.925 234.748 197.415 233.415 202.702 226.522C205.502 222.875 206.732 219.038 206.392 215.012C206.383 214.883 206.42 214.754 206.497 214.649C206.573 214.543 206.685 214.466 206.812 214.432C215.639 212.118 219.862 206.482 219.482 197.522C219.392 195.352 218.582 193.212 217.812 191.102C217.716 190.837 217.705 190.548 217.783 190.277C217.86 190.006 218.02 189.766 218.242 189.592C223.322 185.572 226.892 181.152 225.392 174.162C225.042 172.522 223.762 170.532 222.972 168.872C222.89 168.698 222.845 168.511 222.84 168.321C222.835 168.132 222.869 167.945 222.942 167.772C223.322 166.838 223.875 166.068 224.602 165.462Z" fill="#DAB79A"/>
</svg>
