<svg width="266" height="267" viewBox="0 0 266 267" fill="none" xmlns="http://www.w3.org/2000/svg">
<path d="M238.45 53.4572C227.95 53.3972 217.48 52.4072 207.04 50.4872C200.374 45.9739 192.904 44.0706 184.63 44.7773C181.98 45.0073 181.51 44.4873 180.39 46.8973C177.564 53.0173 174.754 59.0972 171.96 65.1372L169.3 65.8872C166.72 64.0072 163.764 62.5506 160.43 61.5172C153.37 59.3239 146.517 57.5272 139.87 56.1272C135.49 55.2072 132.417 54.9106 130.65 55.2372C122.177 56.8039 113.824 58.9205 105.59 61.5872C103.497 62.2605 101.52 63.0272 99.6604 63.8872C97.5137 64.8872 95.5871 65.7738 93.8804 66.5472L83.9204 45.9173C83.7575 45.5814 83.5072 45.2954 83.1958 45.0895C82.8844 44.8837 82.5233 44.7655 82.1504 44.7472C73.5304 44.3272 65.4104 45.4772 58.7104 50.4972C51.8704 55.6172 47.1104 61.6173 46.3704 70.1473C36.0438 72.2006 25.6371 72.8239 15.1504 72.0173C18.2704 65.4639 21.7504 59.6472 25.5904 54.5672C34.8904 42.2672 45.2004 31.5672 58.8004 22.5672C84.1937 5.76717 112.217 -1.65284 142.87 0.307164C149.917 0.760497 157.49 2.04393 165.59 4.15726C189.93 10.5106 211.034 23.1438 228.9 42.0572C232.987 46.3838 236.17 50.1839 238.45 53.4572Z" fill="#DCDDE3"/>
<path d="M93.8801 66.5471C89.3401 69.2538 86.0534 71.7439 84.0201 74.0172C81.8601 76.4372 79.6401 78.8038 77.3601 81.1172C73.8201 84.7105 70.6168 89.2738 67.7501 94.8071C62.7168 93.4071 57.3368 91.0072 51.6101 87.6072C49.8901 86.5872 48.5635 85.5005 47.6301 84.3471C47.3764 84.0353 47.2261 83.6508 47.2001 83.2472L46.3701 70.1472C47.1101 61.6172 51.8701 55.6172 58.7101 50.4972C65.4101 45.4772 73.5301 44.3272 82.1501 44.7472C82.523 44.7654 82.8841 44.8836 83.1955 45.0895C83.5069 45.2953 83.7572 45.5813 83.9201 45.9172L93.8801 66.5471Z" fill="#363439"/>
<path d="M207.04 50.4871C210.633 53.4005 213.206 55.9771 214.76 58.2171C219.46 64.9871 219.19 74.2371 218.44 82.2271C218.24 84.3871 217.71 85.1772 215.8 86.2872C209.46 89.9938 203.626 92.9038 198.3 95.0172C196.513 92.4038 194.776 89.7805 193.09 87.1472C191.483 84.6272 186.796 79.4704 179.03 71.6771C177.343 69.9837 175.12 68.3571 172.36 66.7971C172.006 66.6037 171.806 66.3671 171.76 66.0871C171.7 65.7604 171.766 65.4438 171.96 65.1372C174.753 59.0972 177.563 53.0172 180.39 46.8972C181.51 44.4872 181.98 45.0072 184.63 44.7772C192.903 44.0705 200.373 45.9738 207.04 50.4871Z" fill="#1E1D26"/>
<path d="M238.45 53.4572C239.443 54.6905 240.43 56.0506 241.41 57.5372C254.25 76.9172 261.913 97.8339 264.4 120.287C265.24 127.894 265.216 136.304 264.33 145.517C264.316 145.669 264.255 145.812 264.156 145.927C264.058 146.042 263.926 146.122 263.78 146.157C247.113 150.384 230.26 153.147 213.22 154.447C215.49 148.277 216.14 145.057 214.33 139.337C209.636 124.564 204.89 111.76 200.09 100.927C199.35 99.2671 198.89 96.9172 198.3 95.0172C203.626 92.9039 209.46 89.9939 215.8 86.2872C217.71 85.1772 218.24 84.3872 218.44 82.2272C219.19 74.2372 219.46 64.9872 214.76 58.2172C213.206 55.9772 210.633 53.4005 207.04 50.4872C217.48 52.4072 227.95 53.3972 238.45 53.4572Z" fill="#D2D1D6"/>
<path d="M169.3 65.8872C166.2 73.6338 162.933 81.1405 159.5 88.4072C156 95.8172 153.17 103.547 149.21 110.437C149.044 110.729 148.916 111.038 148.83 111.357C147.903 114.824 147.067 117.39 146.32 119.057C144.14 123.95 141.173 128.95 137.42 134.057L132.01 136.547C131.87 136.613 131.713 136.638 131.559 136.618C131.405 136.599 131.26 136.536 131.14 136.437L116.84 124.337C116.987 120.75 116.617 117.641 115.73 115.007C114.14 110.257 108.96 105.677 103.42 106.777C95.46 108.377 93.31 116.287 90.28 121.147C88.8334 123.454 87.1967 125.447 85.3701 127.127C83.0301 129.277 79.32 131.377 77.22 132.767C76.7158 133.097 76.2934 133.539 75.9849 134.059C75.6765 134.579 75.4902 135.163 75.4401 135.767C74.3901 148.757 80.52 157.137 93.61 159.007C84.5634 168.374 77.3767 175.967 72.05 181.787C70.75 183.214 69.4434 184.147 68.1301 184.587L62.67 177.507L60.27 173.627C56.53 165.494 53.0267 156.871 49.7601 147.757C48.5901 144.497 50.92 140.017 51.98 136.847C53.7867 131.747 55.4767 126.564 57.05 121.297C58.4967 116.457 61.4467 109.037 65.9 99.0372C66.0263 98.7582 66.1875 98.4929 66.3801 98.2472C67.6401 96.6538 68.0967 95.5071 67.7501 94.8071C70.6167 89.2738 73.82 84.7105 77.36 81.1172C79.64 78.8038 81.86 76.4372 84.02 74.0172C86.0533 71.7439 89.3401 69.2538 93.8801 66.5471C95.5867 65.7738 97.5134 64.8872 99.66 63.8872C101.52 63.0272 103.497 62.2605 105.59 61.5871C113.823 58.9205 122.177 56.8038 130.65 55.2372C132.417 54.9105 135.49 55.2072 139.87 56.1272C146.517 57.5272 153.37 59.3239 160.43 61.5172C163.763 62.5505 166.72 64.0072 169.3 65.8872Z" fill="#FEFBEF"/>
<path d="M171.96 65.1372C171.767 65.4439 171.7 65.7605 171.76 66.0872C171.807 66.3672 172.007 66.6038 172.36 66.7971C175.12 68.3571 177.343 69.9838 179.03 71.6771C186.797 79.4705 191.483 84.6272 193.09 87.1472C194.777 89.7806 196.513 92.4039 198.3 95.0172C198.89 96.9172 199.35 99.2671 200.09 100.927C204.89 111.76 209.637 124.564 214.33 139.337C216.14 145.057 215.49 148.277 213.22 154.447L204.89 172.987L196.9 185.587C189.313 176.2 180.753 167.351 171.22 159.037C176.707 158.304 181.18 156.504 184.64 153.637C190.1 149.107 190.66 142.147 190.18 135.397C190.146 134.914 189.993 134.446 189.735 134.036C189.477 133.626 189.121 133.287 188.7 133.047C185.507 131.234 182.747 129.324 180.42 127.317C175.83 123.377 173.05 116.197 171.09 112.897C165.75 103.897 154.64 104.737 150.1 113.967C149.961 114.259 149.866 114.569 149.82 114.887C149.167 119.254 148.983 124.157 149.27 129.597C149.316 130.528 149.647 131.422 150.22 132.157C156.667 140.537 162.31 148.897 167.15 157.237C169.11 169.951 166.637 180.94 159.73 190.207C156.917 193.98 153.38 196.777 149.12 198.597C144.293 200.651 139.41 202.084 134.47 202.897C134.268 202.93 134.08 203.024 133.932 203.167C133.783 203.31 133.682 203.495 133.64 203.697C133.2 205.864 133.47 207.684 134.45 209.157C131.35 209.231 128.767 208.95 126.7 208.317C114.7 204.61 99.6932 199.2 81.6799 192.087C80.3799 191.574 78.1566 190.53 75.0099 188.957C72.6099 187.747 69.9299 187.467 68.1299 184.587C69.4432 184.147 70.7499 183.214 72.0499 181.787C77.3765 175.967 84.5632 168.374 93.6099 159.007C94.9499 159.114 96.4732 158.661 98.1799 157.647C98.1599 161.607 98.0465 165.584 97.8398 169.577C97.6132 174.004 99.1165 178.857 102.35 184.137C108.61 194.384 117.863 200.52 130.11 202.547C130.93 202.687 131.797 202.634 132.71 202.387C132.882 202.341 133.034 202.238 133.143 202.096C133.251 201.953 133.31 201.778 133.31 201.597V190.047C133.31 189.909 133.339 189.772 133.396 189.646C133.453 189.521 133.536 189.408 133.64 189.317C134.36 188.677 134.733 188.121 134.76 187.647C136.78 187.727 140.147 187.994 144.86 188.447C149.38 188.887 155.89 186.367 157.27 181.387C157.296 181.287 157.291 181.181 157.255 181.084C157.218 180.988 157.153 180.904 157.067 180.846C156.982 180.788 156.88 180.758 156.777 180.76C156.673 180.762 156.573 180.796 156.49 180.857C153.97 182.767 151.26 184.467 148.05 184.827C143.21 185.374 138.68 184.347 134.46 181.747C134.288 181.641 134.143 181.499 134.034 181.331C133.925 181.163 133.855 180.974 133.83 180.777C133.61 179.084 134.187 177.727 135.56 176.707C139.37 173.887 148.16 172.417 151.19 166.197C153.21 162.057 148.12 160.057 145.09 159.677C146.097 159.664 146.583 159.527 146.55 159.267C146.509 158.949 146.334 158.655 146.056 158.437C145.777 158.219 145.414 158.091 145.03 158.077C141.363 157.944 137.927 158.32 134.72 159.207C134.575 159.247 134.422 159.253 134.275 159.225C134.127 159.196 133.988 159.134 133.868 159.043C133.748 158.952 133.651 158.835 133.583 158.7C133.516 158.566 133.481 158.418 133.48 158.267V138.857C133.48 138.555 133.59 138.266 133.79 138.047L137.42 134.057C141.173 128.95 144.14 123.95 146.32 119.057C147.067 117.39 147.903 114.824 148.83 111.357C148.916 111.038 149.044 110.729 149.21 110.437C153.17 103.547 156 95.8172 159.5 88.4072C162.933 81.1406 166.2 73.6339 169.3 65.8872L171.96 65.1372Z" fill="#DCD5C9"/>
<path d="M46.37 70.1472L47.2 83.2472C47.226 83.6508 47.3763 84.0353 47.63 84.3472C48.5633 85.5005 49.89 86.5872 51.61 87.6072C57.3367 91.0072 62.7167 93.4071 67.75 94.8071C68.0967 95.5071 67.64 96.6539 66.38 98.2472C66.1874 98.4929 66.0262 98.7582 65.9 99.0372C61.4466 109.037 58.4967 116.457 57.05 121.297C55.4767 126.564 53.7866 131.747 51.98 136.847C46.24 137.827 40.5266 138.61 34.84 139.197C23.04 140.41 11.4333 139.011 0.0199585 134.997C0.0932918 134.744 0.0866667 134.35 0 133.817C0.46 122.287 0.82998 115.567 2.97998 105.657C5.47998 93.9706 9.53663 82.7572 15.15 72.0172C25.6366 72.8239 36.0433 72.2006 46.37 70.1472Z" fill="#D2D1D6"/>
<path d="M116.84 124.337C117.2 127.157 116.897 129.721 115.93 132.027C115.778 132.398 115.565 132.739 115.3 133.037C108.39 140.927 103.76 148.187 98.1804 157.647C96.4738 158.661 94.9504 159.114 93.6104 159.007C80.5204 157.137 74.3904 148.757 75.4404 135.767C75.4905 135.163 75.6769 134.579 75.9853 134.059C76.2938 133.539 76.7162 133.097 77.2204 132.767C79.3204 131.377 83.0304 129.277 85.3704 127.127C87.1971 125.447 88.8337 123.454 90.2804 121.147C93.3104 116.287 95.4604 108.377 103.42 106.777C108.96 105.677 114.14 110.257 115.73 115.007C116.617 117.641 116.987 120.75 116.84 124.337ZM100.502 121.953C99.8602 122.348 99.3082 122.876 98.8778 123.505C98.4474 124.135 98.1469 124.854 97.9937 125.622C97.8404 126.39 97.8373 127.192 97.9845 127.982C98.1316 128.771 98.4263 129.534 98.8515 130.225C99.7103 131.621 101.049 132.643 102.573 133.066C104.097 133.489 105.682 133.279 106.979 132.481C107.621 132.086 108.173 131.559 108.603 130.929C109.033 130.3 109.334 129.58 109.487 128.812C109.64 128.044 109.644 127.243 109.496 126.453C109.349 125.663 109.055 124.901 108.629 124.209C107.771 122.813 106.432 121.791 104.908 121.368C103.384 120.945 101.799 121.156 100.502 121.953Z" fill="#363439"/>
<path d="M171.22 159.037C170.24 159.071 168.883 158.47 167.15 157.237C162.31 148.897 156.666 140.537 150.22 132.157C149.647 131.422 149.316 130.528 149.27 129.597C148.983 124.157 149.167 119.254 149.82 114.887C149.866 114.569 149.961 114.259 150.1 113.967C154.64 104.737 165.75 103.897 171.09 112.897C173.05 116.197 175.83 123.377 180.42 127.317C182.746 129.324 185.507 131.234 188.7 133.047C189.121 133.286 189.477 133.626 189.735 134.036C189.993 134.446 190.146 134.914 190.18 135.397C190.66 142.147 190.1 149.107 184.64 153.637C181.18 156.504 176.706 158.304 171.22 159.037ZM163.23 125.987C163.23 125.778 163.189 125.572 163.109 125.379C163.029 125.186 162.912 125.011 162.764 124.863C162.616 124.715 162.441 124.598 162.248 124.518C162.055 124.438 161.849 124.397 161.64 124.397C161.431 124.397 161.224 124.438 161.031 124.518C160.838 124.598 160.663 124.715 160.516 124.863C160.368 125.011 160.251 125.186 160.171 125.379C160.091 125.572 160.05 125.778 160.05 125.987C160.05 126.409 160.217 126.813 160.516 127.111C160.814 127.41 161.218 127.577 161.64 127.577C162.062 127.577 162.466 127.41 162.764 127.111C163.062 126.813 163.23 126.409 163.23 125.987Z" fill="#1E1D26"/>
<path d="M100.502 121.954C101.798 121.156 103.383 120.945 104.907 121.368C106.431 121.792 107.77 122.813 108.629 124.209C109.054 124.901 109.349 125.663 109.496 126.453C109.643 127.243 109.64 128.044 109.487 128.812C109.334 129.58 109.033 130.3 108.603 130.929C108.172 131.559 107.62 132.086 106.978 132.481C105.682 133.279 104.097 133.489 102.573 133.066C101.049 132.643 99.71 131.621 98.8512 130.225C98.4259 129.534 98.1313 128.771 97.9841 127.982C97.8369 127.192 97.84 126.39 97.9933 125.622C98.1466 124.854 98.447 124.135 98.8775 123.505C99.3079 122.876 99.8598 122.348 100.502 121.954ZM103.87 125.747C103.87 125.532 103.828 125.319 103.745 125.12C103.663 124.921 103.542 124.74 103.39 124.588C103.237 124.435 103.057 124.315 102.858 124.232C102.659 124.15 102.445 124.107 102.23 124.107C102.015 124.107 101.801 124.15 101.602 124.232C101.403 124.315 101.223 124.435 101.07 124.588C100.918 124.74 100.797 124.921 100.715 125.12C100.633 125.319 100.59 125.532 100.59 125.747C100.59 126.182 100.763 126.599 101.07 126.907C101.378 127.214 101.795 127.387 102.23 127.387C102.665 127.387 103.082 127.214 103.39 126.907C103.697 126.599 103.87 126.182 103.87 125.747Z" fill="#1E1D26"/>
<path d="M102.23 127.387C103.136 127.387 103.87 126.653 103.87 125.747C103.87 124.841 103.136 124.107 102.23 124.107C101.324 124.107 100.59 124.841 100.59 125.747C100.59 126.653 101.324 127.387 102.23 127.387Z" fill="#FEFBEF"/>
<path d="M137.42 134.057L133.79 138.047C133.59 138.266 133.48 138.555 133.48 138.857V158.267C133.48 158.418 133.516 158.566 133.583 158.7C133.65 158.835 133.748 158.952 133.868 159.043C133.988 159.134 134.127 159.196 134.275 159.225C134.422 159.253 134.575 159.247 134.72 159.207C137.926 158.32 141.363 157.944 145.03 158.077C145.413 158.091 145.777 158.219 146.055 158.437C146.334 158.655 146.509 158.949 146.55 159.267C146.583 159.527 146.096 159.664 145.09 159.677C141.23 159.464 137.43 160.034 133.69 161.387C133.258 161.544 132.791 161.582 132.34 161.497C127.24 160.537 119.54 157.577 115 161.987C111.72 165.157 116.18 169.397 118.97 171.027C121.32 172.397 126.48 174.217 130.96 177.177C131.329 177.423 131.637 177.75 131.859 178.135C132.08 178.519 132.209 178.95 132.237 179.393C132.264 179.835 132.188 180.278 132.015 180.687C131.842 181.096 131.577 181.458 131.24 181.747C129.68 183.077 127.71 184.127 125.73 184.407C118.856 185.361 113.136 184.061 108.57 180.507C108.487 180.445 108.386 180.412 108.282 180.414C108.179 180.417 108.079 180.454 108 180.52C107.92 180.586 107.865 180.676 107.843 180.778C107.821 180.879 107.834 180.984 107.88 181.077C112.41 189.697 120.33 188.887 128.61 187.547C129.43 187.414 131.48 187.447 134.76 187.647C134.733 188.121 134.36 188.677 133.64 189.317C133.536 189.408 133.453 189.521 133.396 189.646C133.339 189.772 133.31 189.909 133.31 190.047V201.597C133.31 201.778 133.251 201.953 133.142 202.096C133.034 202.238 132.882 202.341 132.71 202.387C131.796 202.634 130.93 202.687 130.11 202.547C117.863 200.52 108.61 194.384 102.35 184.137C99.1163 178.857 97.613 174.004 97.8397 169.577C98.0463 165.584 98.1597 161.607 98.1797 157.647C103.76 148.187 108.39 140.927 115.3 133.037C115.564 132.739 115.777 132.398 115.93 132.027C116.896 129.721 117.2 127.157 116.84 124.337L131.14 136.437C131.259 136.536 131.405 136.599 131.559 136.618C131.713 136.638 131.869 136.613 132.01 136.547L137.42 134.057Z" fill="#F5EDE2"/>
<path d="M161.64 127.577C162.518 127.577 163.23 126.865 163.23 125.987C163.23 125.109 162.518 124.397 161.64 124.397C160.762 124.397 160.05 125.109 160.05 125.987C160.05 126.865 160.762 127.577 161.64 127.577Z" fill="#FEFBEF"/>
<path d="M51.9796 136.847C50.9196 140.017 48.5896 144.497 49.7596 147.757C53.0262 156.871 56.5295 165.494 60.2695 173.627C57.6162 176.514 55.1662 179.777 52.9196 183.417C45.5529 195.351 39.2829 208.24 34.1096 222.087C29.6162 217.36 25.1729 211.4 20.7795 204.207C13.6595 192.54 8.48625 180.917 5.25958 169.337C1.91958 158.25 0.172865 146.804 0.0195312 134.997C11.4329 139.011 23.0395 140.41 34.8395 139.197C40.5262 138.61 46.2396 137.827 51.9796 136.847Z" fill="#B6BDC6"/>
<path d="M171.22 159.037C180.753 167.351 189.313 176.2 196.9 185.587C180.393 194.394 163.09 201.451 144.99 206.757C141.49 207.791 137.977 208.591 134.45 209.157C133.47 207.684 133.2 205.864 133.64 203.697C133.682 203.495 133.783 203.31 133.932 203.167C134.08 203.024 134.268 202.93 134.47 202.897C139.41 202.084 144.293 200.651 149.12 198.597C153.38 196.777 156.917 193.98 159.73 190.207C166.637 180.94 169.11 169.951 167.15 157.237C168.883 158.471 170.24 159.071 171.22 159.037Z" fill="#BBB0A4"/>
<path d="M145.09 159.677C148.12 160.057 153.21 162.057 151.19 166.197C148.16 172.417 139.37 173.887 135.56 176.707C134.187 177.727 133.61 179.084 133.83 180.777C133.855 180.974 133.925 181.163 134.034 181.331C134.143 181.499 134.289 181.641 134.46 181.747C138.68 184.347 143.21 185.374 148.05 184.827C151.26 184.467 153.97 182.767 156.49 180.857C156.573 180.796 156.674 180.762 156.777 180.76C156.881 180.758 156.982 180.788 157.068 180.846C157.153 180.904 157.219 180.988 157.255 181.084C157.291 181.181 157.296 181.287 157.27 181.387C155.89 186.367 149.38 188.887 144.86 188.447C140.147 187.994 136.78 187.727 134.76 187.647C131.48 187.447 129.43 187.414 128.61 187.547C120.33 188.887 112.41 189.697 107.88 181.077C107.835 180.984 107.822 180.879 107.843 180.778C107.865 180.676 107.92 180.586 108 180.52C108.08 180.454 108.179 180.417 108.283 180.414C108.386 180.412 108.488 180.445 108.57 180.507C113.137 184.061 118.857 185.361 125.73 184.407C127.71 184.127 129.68 183.077 131.24 181.747C131.577 181.458 131.842 181.096 132.015 180.687C132.188 180.278 132.264 179.835 132.237 179.393C132.21 178.95 132.081 178.519 131.859 178.135C131.637 177.75 131.33 177.423 130.96 177.177C126.48 174.217 121.32 172.397 118.97 171.027C116.18 169.397 111.72 165.157 115 161.987C119.54 157.577 127.24 160.537 132.34 161.497C132.792 161.582 133.258 161.544 133.69 161.387C137.43 160.034 141.23 159.464 145.09 159.677Z" fill="#1E1D26"/>
<path d="M231.1 222.557C217.367 237.21 201.083 248.827 182.25 257.407C182.18 257.439 182.105 257.456 182.028 257.458C181.95 257.459 181.873 257.446 181.8 257.417C181.407 257.271 181.177 256.977 181.11 256.537C176.47 247.164 169.377 240.527 159.83 236.627C151.897 233.381 143.137 231.32 133.55 230.447C130.417 230.067 126.643 230.36 122.23 231.327C121.87 230.447 122.687 229.69 124.68 229.057C124.759 229.035 124.829 228.988 124.879 228.923C124.93 228.859 124.959 228.78 124.962 228.698C124.966 228.616 124.943 228.535 124.898 228.467C124.852 228.398 124.787 228.346 124.71 228.317C123.223 227.71 122.04 227.124 121.16 226.557C106.81 217.277 99.8299 213.447 89.7699 204.917C83.8899 199.924 77.4932 194.651 70.5799 189.097C67.2099 186.397 63.2199 182.197 62.6699 177.507L68.1299 184.587C69.9299 187.467 72.6099 187.747 75.0099 188.957C78.1566 190.53 80.3799 191.574 81.6799 192.087C99.6933 199.2 114.7 204.61 126.7 208.317C128.767 208.95 131.35 209.231 134.45 209.157C137.977 208.591 141.49 207.791 144.99 206.757C163.09 201.451 180.393 194.394 196.9 185.587L204.89 172.987C216.33 188.121 225.067 204.644 231.1 222.557Z" fill="#1E1D26"/>
<path d="M60.2703 173.627L62.6703 177.507C63.2203 182.197 67.2103 186.397 70.5803 189.097C77.4937 194.651 83.8903 199.924 89.7703 204.917C99.8303 213.447 106.81 217.277 121.16 226.557C122.04 227.124 123.224 227.71 124.71 228.317C124.787 228.346 124.853 228.398 124.898 228.467C124.944 228.535 124.966 228.616 124.963 228.698C124.959 228.78 124.93 228.859 124.88 228.923C124.829 228.988 124.759 229.035 124.68 229.057C122.687 229.69 121.87 230.447 122.23 231.327C113.997 232.774 106.43 235.591 99.5303 239.777C92.8037 243.864 87.737 249.517 84.3303 256.737C84.377 257.264 84.1737 257.444 83.7203 257.277C66.0403 250.747 48.7004 237.937 35.6204 224.357C35.0337 223.751 34.5304 222.994 34.1104 222.087C39.2837 208.24 45.5537 195.351 52.9203 183.417C55.167 179.777 57.617 176.514 60.2703 173.627Z" fill="#363439"/>
<path d="M133.55 230.447L133.15 265.687C133.143 265.905 133.184 266.12 133.27 266.317C133.317 266.43 133.363 266.55 133.41 266.677C133.077 266.884 132.727 266.984 132.36 266.977C117.273 266.47 102.397 263.72 87.7301 258.727C86.3834 258.267 85.2501 257.604 84.3301 256.737C87.7367 249.517 92.8034 243.864 99.5301 239.777C106.43 235.591 113.997 232.774 122.23 231.327C126.643 230.36 130.417 230.067 133.55 230.447Z" fill="#DCD5C9"/>
<path d="M181.11 256.537C176.163 259.331 170.47 261.47 164.03 262.957C153.257 265.43 143.05 266.67 133.41 266.677C133.363 266.55 133.317 266.43 133.27 266.317C133.184 266.12 133.143 265.905 133.15 265.687L133.55 230.447C143.137 231.32 151.897 233.381 159.83 236.627C169.377 240.527 176.47 247.164 181.11 256.537Z" fill="#CBBFAA"/>
</svg>
