<svg width="265" height="264" viewBox="0 0 265 264" fill="none" xmlns="http://www.w3.org/2000/svg">
<path d="M258.006 90.1778C255.32 86.8578 252.943 84.1878 250.876 82.1678C247.47 78.8478 243.353 76.3078 238.526 74.5478C232.746 72.4412 226.936 70.4279 221.096 68.5079C217.69 67.3879 214.406 66.2146 211.246 64.9879C209.566 63.0946 207.853 61.3079 206.106 59.6279C204.026 57.6279 202.946 55.9279 201.386 53.9379C201.028 53.4802 200.607 53.0762 200.136 52.7379C197.996 51.1979 195.81 50.1912 193.576 49.7179C186.656 48.2712 180.316 46.4846 174.556 44.3579C170.17 42.2379 166.85 40.7812 164.596 39.9879C159.87 38.3212 154.396 37.3345 148.176 37.0278C136.85 36.4612 125.523 36.5078 114.196 37.1678C111.87 37.3078 107.963 38.1845 102.476 39.7978C87.1963 42.0312 72.673 46.5979 58.9063 53.4979C51.0397 57.4379 43.233 61.4812 35.4863 65.6279C24.493 71.5146 14.993 79.3945 6.98633 89.2678C9.16633 82.9545 11.7597 76.9245 14.7663 71.1778C18.6997 64.2045 21.633 59.3379 23.5663 56.5779C47.4263 22.4679 86.3463 1.36785 127.906 0.0678547C163.956 -1.06215 198.826 11.9479 224.716 37.1179C236.15 48.2312 245.473 61.4112 252.686 76.6578C255 81.5512 256.773 86.0578 258.006 90.1778Z" fill="#F3E2C1"/>
<path d="M174.556 44.3579C178.036 47.2645 180.573 50.3845 182.166 53.7179C183.946 57.4579 185.236 61.7379 187.426 65.2179C190.273 72.5245 191.816 77.9278 192.056 81.4278C192.183 83.2745 192.219 85.1112 192.166 86.9378C191.946 94.9178 191.619 102.918 191.186 110.938C189.766 108.158 189.206 105.165 189.506 101.958C189.616 100.808 189.319 99.6573 188.666 98.7078L185.076 93.4979C184.947 93.3107 184.756 93.1759 184.536 93.1179C183.689 92.9045 182.719 92.1012 181.626 90.7078C181.487 90.5229 181.386 90.316 181.326 90.0979C179.773 84.5845 177.166 79.5512 173.506 74.9979C167.956 68.0879 159.826 65.1578 151.806 69.9178C144.756 74.0978 145.246 86.5678 146.426 93.0178C146.826 95.1978 148.236 98.5512 150.656 103.078C152.363 106.258 154.086 109.488 155.826 112.768C143.036 107.428 131.636 103.798 118.416 110.568C113.983 112.834 109.679 115.404 105.506 118.278C105.986 116.244 106.506 114.681 107.066 113.588C109.306 109.215 111.496 104.835 113.636 100.448C118.556 91.5778 120.366 82.9879 115.886 73.4679C113.926 69.3179 107.566 67.3579 103.526 67.7379C103.21 67.7642 102.9 67.8561 102.616 68.0079C101.269 68.7212 99.5961 69.2579 97.5961 69.6179C92.3561 70.5679 87.2061 78.1178 84.9761 83.1778L74.5661 103.258C74.5027 103.383 74.4044 103.488 74.2829 103.559C74.1615 103.63 74.0222 103.664 73.8817 103.658C73.7412 103.651 73.6056 103.605 73.4911 103.523C73.3765 103.441 73.288 103.329 73.2361 103.198L71.7261 99.4779C71.5361 89.8879 71.4661 83.6179 73.3661 75.8779C74.0728 72.9979 75.0528 69.8445 76.3061 66.4178C78.4128 60.3978 81.3828 54.5445 85.2161 48.8579C85.256 48.798 85.3029 48.741 85.3561 48.6878L88.0061 46.1778C88.0547 46.1339 88.0895 46.077 88.1064 46.0138C88.1234 45.9505 88.1217 45.8838 88.1017 45.8215C88.0816 45.7592 88.044 45.704 87.9934 45.6626C87.9427 45.6211 87.8812 45.5952 87.8161 45.5878L86.9661 45.4679L102.476 39.7978C107.963 38.1845 111.869 37.3078 114.196 37.1678C125.523 36.5078 136.849 36.4611 148.176 37.0278C154.396 37.3345 159.869 38.3212 164.596 39.9879C166.849 40.7812 170.169 42.2379 174.556 44.3579Z" fill="#E9C285"/>
<path d="M102.476 39.7979L86.966 45.4679C82.146 46.8212 77.296 48.0445 72.416 49.1378C69.516 49.7778 66.596 50.8578 64.696 52.7678C58.896 58.6145 55.376 62.3379 54.136 63.9379C54.069 64.0335 54.0369 64.1493 54.045 64.2659C54.0531 64.3824 54.1009 64.4926 54.1805 64.5781C54.2602 64.6636 54.3667 64.7191 54.4824 64.7355C54.5981 64.7518 54.7159 64.7279 54.816 64.6678C55.9694 63.8878 57.336 63.2079 58.916 62.6279C59.0293 62.5844 59.1547 62.5845 59.2679 62.6282C59.3811 62.6718 59.4741 62.7559 59.5289 62.8641C59.5837 62.9724 59.5963 63.0972 59.5644 63.2142C59.5324 63.3313 59.4582 63.4325 59.356 63.4979C56.3427 65.4713 53.536 68.0579 50.936 71.2579C44.126 79.6479 35.166 87.5478 28.096 93.2678C25.0227 95.7612 23.356 99.2345 23.096 103.688C23.0884 103.803 23.1197 103.917 23.1851 104.011C23.2504 104.106 23.3459 104.176 23.456 104.21C23.5661 104.243 23.6843 104.239 23.7914 104.197C23.8985 104.155 23.9883 104.077 24.046 103.978L25.936 100.698C25.9825 100.602 26.0649 100.529 26.1652 100.495C26.2656 100.46 26.3756 100.466 26.471 100.513C26.5665 100.559 26.6396 100.642 26.6743 100.742C26.709 100.842 26.7025 100.952 26.656 101.048L25.076 105.158C25.0165 105.303 24.9827 105.459 24.976 105.618C24.7627 111.091 26.0227 116.275 28.756 121.168C33.036 129.358 35.626 136.898 30.456 145.268C26.396 151.848 20.436 157.468 15.536 163.038C11.496 167.625 10.2827 172.881 11.896 178.808C13.2294 183.715 14.0627 187.645 14.396 190.598C13.3427 189.198 12.526 187.608 11.946 185.828C6.58602 174.355 3.02603 162.361 1.26603 149.848C-1.56064 128.961 0.346029 108.768 6.98603 89.2678C14.9927 79.3945 24.4927 71.5146 35.486 65.6279C43.2327 61.4813 51.0394 57.4379 58.906 53.4979C72.6727 46.5979 87.196 42.0312 102.476 39.7979Z" fill="#EDD7B6"/>
<path d="M174.556 44.3579C180.316 46.4846 186.656 48.2712 193.576 49.7179C195.809 50.1912 197.996 51.1979 200.136 52.7379C200.607 53.0762 201.028 53.4802 201.386 53.9379C202.946 55.9279 204.026 57.6279 206.106 59.6279C207.852 61.3079 209.566 63.0946 211.246 64.9879C211.386 66.5279 210.372 66.4145 208.206 64.6478C207.972 64.4545 207.746 64.4545 207.526 64.6478C207.445 64.7201 207.395 64.8207 207.388 64.9275C207.38 65.0343 207.415 65.1388 207.486 65.2179L211.036 69.4078C207.162 70.3145 204.289 72.3346 202.416 75.4679C202.339 75.5915 202.301 75.7359 202.308 75.8823C202.315 76.0287 202.367 76.1701 202.456 76.2878C205.236 79.8945 206.979 83.3813 207.686 86.7479C208.372 90.0413 208.766 92.5612 208.866 94.3079C208.871 94.3926 208.847 94.4766 208.798 94.5458C208.749 94.615 208.677 94.6651 208.596 94.6879L208.286 94.7678C208.12 94.8138 207.943 94.7925 207.792 94.7085C207.641 94.6245 207.527 94.4844 207.476 94.3179C206.049 89.6445 203.599 85.7712 200.126 82.6979C199.727 82.3513 199.433 81.9012 199.276 81.3978C197.389 75.4312 194.202 70.4879 189.716 66.5679L187.746 64.6578C187.721 64.6321 187.689 64.6143 187.655 64.6066C187.62 64.5988 187.584 64.6017 187.551 64.6145C187.517 64.6273 187.489 64.6496 187.468 64.6787C187.448 64.7078 187.437 64.7423 187.436 64.7778L187.426 65.2179C185.236 61.7379 183.946 57.4579 182.166 53.7179C180.572 50.3846 178.036 47.2646 174.556 44.3579Z" fill="#E2A35E"/>
<path d="M86.9659 45.4679L87.8159 45.5879C87.8809 45.5952 87.9424 45.6212 87.9931 45.6626C88.0437 45.704 88.0813 45.7592 88.1014 45.8215C88.1215 45.8838 88.1231 45.9506 88.1062 46.0138C88.0892 46.077 88.0544 46.134 88.0058 46.1779L85.3558 48.6879C85.3026 48.7411 85.2558 48.7981 85.2159 48.8579C81.3825 54.5446 78.4125 60.3978 76.3059 66.4178C74.8125 67.3378 73.5625 69.1112 72.5559 71.7379L69.9458 74.3679C69.7466 74.5672 69.572 74.7922 69.4259 75.0378C65.9259 80.9312 64.1659 87.0679 64.1459 93.4479C64.1325 100.195 64.7092 108.685 65.8759 118.918C66.1959 128.725 65.7092 137.565 64.4158 145.438C63.6092 150.345 61.1559 154.885 57.0559 159.058C56.8975 159.216 56.7137 159.339 56.5159 159.418L51.2759 161.608C51.2047 161.639 51.1419 161.686 51.0931 161.746C51.0443 161.806 51.011 161.877 50.9961 161.952C50.9813 162.027 50.9854 162.105 51.008 162.177C51.0306 162.25 51.0711 162.315 51.1259 162.368C51.6392 162.875 52.4925 162.981 53.6859 162.688C52.7459 162.975 51.8125 163.021 50.8858 162.828C50.7411 162.798 50.6101 162.724 50.5126 162.615C50.4152 162.507 50.3567 162.371 50.3459 162.228C50.1125 159.221 49.9492 156.191 49.8558 153.138C49.6625 146.811 47.2325 141.451 42.5659 137.058C37.3992 132.185 32.7958 126.888 28.7558 121.168C26.0225 116.275 24.7625 111.091 24.9758 105.618C24.9825 105.459 25.0164 105.303 25.0758 105.158L26.6559 101.048C26.7023 100.952 26.7088 100.842 26.6741 100.742C26.6395 100.642 26.5663 100.559 26.4709 100.513C26.3754 100.466 26.2654 100.46 26.1651 100.495C26.0647 100.529 25.9823 100.602 25.9359 100.698L24.0458 103.978C23.9881 104.077 23.8984 104.155 23.7912 104.197C23.6841 104.239 23.5659 104.243 23.4558 104.21C23.3457 104.176 23.2502 104.106 23.1849 104.011C23.1195 103.917 23.0882 103.803 23.0959 103.688C23.3559 99.2345 25.0225 95.7612 28.0959 93.2678C35.1659 87.5478 44.1259 79.6479 50.9359 71.2579C53.5359 68.0579 56.3425 65.4713 59.3558 63.4979C59.458 63.4325 59.5323 63.3313 59.5642 63.2142C59.5961 63.0972 59.5835 62.9724 59.5287 62.8641C59.474 62.7559 59.381 62.6718 59.2677 62.6282C59.1545 62.5845 59.0291 62.5844 58.9158 62.6279C57.3358 63.2079 55.9692 63.8878 54.8159 64.6678C54.7157 64.7279 54.5979 64.7518 54.4822 64.7355C54.3665 64.7191 54.26 64.6636 54.1804 64.5781C54.1007 64.4926 54.0529 64.3824 54.0448 64.2659C54.0367 64.1493 54.0688 64.0335 54.1358 63.9379C55.3758 62.3379 58.8958 58.6145 64.6958 52.7678C66.5958 50.8578 69.5158 49.7778 72.4158 49.1378C77.2958 48.0445 82.1459 46.8212 86.9659 45.4679ZM65.2258 72.2279C58.5258 78.5946 56.4259 86.6245 58.9259 96.3179C58.9513 96.4221 59.011 96.5143 59.0955 96.5796C59.18 96.6449 59.2844 96.6797 59.3922 96.6786C59.5 96.6774 59.6051 96.6404 59.6909 96.5732C59.7767 96.5061 59.8383 96.4127 59.8659 96.3079L65.7759 72.5479C65.7943 72.478 65.7893 72.404 65.7617 72.3373C65.734 72.2705 65.6852 72.2147 65.6228 72.1783C65.5603 72.142 65.4876 72.1272 65.4159 72.1361C65.3442 72.1451 65.2775 72.1773 65.2258 72.2279Z" fill="#E2A35E"/>
<path d="M189.716 66.5679C192.636 73.5079 194.689 80.4413 195.876 87.3679C196.442 90.6813 196.682 94.0845 196.596 97.5779C196.366 106.948 196.086 113.198 196.346 121.068C196.539 126.675 196.722 131.091 196.896 134.318C197.356 142.748 198.596 150.138 204.466 156.448C200.976 156.928 198.066 154.498 195.816 152.048C195.583 151.796 195.385 151.517 195.226 151.218C193.852 148.545 192.892 145.728 192.346 142.768C191.426 137.768 190.849 132.728 190.616 127.648L191.186 110.938C191.619 102.918 191.946 94.9179 192.166 86.9379C192.219 85.1112 192.182 83.2745 192.056 81.4279C191.816 77.9279 190.272 72.5246 187.426 65.2179L187.436 64.7778C187.437 64.7423 187.448 64.7078 187.469 64.6787C187.489 64.6496 187.518 64.6273 187.551 64.6145C187.584 64.6017 187.62 64.5988 187.655 64.6066C187.69 64.6143 187.721 64.6321 187.746 64.6578L189.716 66.5679Z" fill="#A55728"/>
<path d="M211.246 64.9879C214.406 66.2146 217.69 67.3879 221.096 68.5079C226.936 70.4279 232.746 72.4412 238.526 74.5478C243.353 76.3078 247.47 78.8478 250.876 82.1678C252.943 84.1878 255.32 86.8578 258.006 90.1778L260.586 98.3279C264.86 114.795 266 131.398 264.006 148.138C263.22 151.424 262.416 154.708 261.596 157.988C259.906 164.758 257.386 171.008 254.836 177.428C253.956 179.635 252.76 183.811 251.246 189.958L250.116 192.218C244.276 199.178 239.293 206.675 235.166 214.708L230.826 220.268C230.788 220.32 230.734 220.356 230.672 220.369C230.611 220.382 230.546 220.372 230.489 220.34C230.432 220.308 230.386 220.256 230.36 220.194C230.334 220.131 230.329 220.062 230.346 219.998C230.366 219.925 230.54 219.908 230.866 219.948C230.889 219.948 230.906 219.938 230.916 219.92C230.927 219.902 230.929 219.876 230.924 219.845C230.919 219.814 230.906 219.78 230.887 219.747C230.867 219.714 230.843 219.683 230.816 219.658C230.803 219.644 230.783 219.631 230.756 219.618C230.7 219.592 230.641 219.58 230.59 219.583C230.538 219.587 230.498 219.606 230.476 219.638C229.796 220.558 229.016 221.274 228.136 221.788C228.104 221.807 228.079 221.839 228.066 221.878C228.026 221.985 228.023 222.118 228.056 222.278C228.058 222.293 228.065 222.307 228.076 222.318C228.086 222.329 228.1 222.336 228.116 222.339C228.132 222.342 228.149 222.341 228.165 222.336C228.181 222.33 228.195 222.32 228.206 222.308C228.406 222.075 228.61 221.918 228.816 221.838C228.878 221.813 228.946 221.81 229.009 221.831C229.072 221.852 229.125 221.894 229.16 221.95C229.195 222.007 229.209 222.073 229.199 222.139C229.189 222.204 229.156 222.264 229.106 222.308L214.916 235.488C214.763 235.629 214.581 235.736 214.384 235.799C214.188 235.863 213.98 235.883 213.776 235.858C213.523 235.831 213.343 235.711 213.236 235.498C214.003 228.825 213.676 222.248 212.256 215.768C212.203 215.522 212.116 215.287 211.996 215.068L209.156 209.928C209.118 209.863 209.104 209.788 209.114 209.714C209.125 209.639 209.161 209.571 209.215 209.52C209.27 209.469 209.341 209.438 209.415 209.432C209.49 209.426 209.564 209.446 209.626 209.488C210.553 210.095 211.313 211.075 211.906 212.428C211.973 212.581 212.09 212.707 212.239 212.782C212.387 212.857 212.556 212.877 212.716 212.838L212.746 212.828C212.822 212.809 212.892 212.774 212.954 212.726C213.015 212.678 213.066 212.618 213.102 212.549C213.139 212.48 213.161 212.405 213.167 212.327C213.173 212.249 213.162 212.171 213.136 212.098C211.796 208.418 210.223 205.205 208.416 202.458C204.63 196.705 201.756 190.785 199.796 184.698C199.436 179.078 200.516 173.268 201.566 164.458L202.056 160.298C202.071 160.177 202.117 160.063 202.19 159.967C202.264 159.87 202.362 159.795 202.474 159.749C202.586 159.704 202.709 159.688 202.828 159.706C202.948 159.723 203.062 159.772 203.156 159.848C204.35 160.801 205.49 161.455 206.576 161.808C208.27 162.441 210.356 162.661 212.836 162.468C213.174 162.443 213.491 162.292 213.724 162.044C213.957 161.796 214.09 161.469 214.096 161.128C214.236 151.878 214.576 144.648 221.926 137.928C226.493 133.748 230.036 129.694 232.556 125.768C237.476 118.118 241.076 110.688 238.206 102.128C238.174 102.028 238.18 101.92 238.225 101.825C238.269 101.73 238.349 101.656 238.446 101.618L238.466 101.608C238.518 101.597 238.572 101.602 238.621 101.624C238.669 101.645 238.71 101.682 238.736 101.728L240.436 104.538C240.484 104.619 240.558 104.681 240.646 104.715C240.734 104.748 240.831 104.752 240.921 104.724C241.01 104.697 241.088 104.639 241.142 104.562C241.196 104.485 241.222 104.392 241.216 104.298C240.996 99.1778 238.76 95.0478 234.506 91.9078C225.646 85.3612 217.823 77.8612 211.036 69.4078L207.486 65.2179C207.416 65.1387 207.381 65.0343 207.388 64.9275C207.396 64.8207 207.445 64.7201 207.526 64.6478C207.746 64.4545 207.973 64.4545 208.206 64.6478C210.373 66.4145 211.386 66.5279 211.246 64.9879Z" fill="#F2D6A8"/>
<path d="M76.3058 66.4178C75.0525 69.8445 74.0724 72.9979 73.3658 75.8779C71.4658 83.6179 71.5358 89.8879 71.7258 99.4779C72.0458 114.638 72.0058 125.168 74.1758 138.088C73.6224 139.455 73.2858 140.858 73.1658 142.298C73.1392 142.57 73.0856 142.839 73.0058 143.098C72.4391 144.838 71.8525 146.575 71.2458 148.308C70.5325 150.341 69.7691 151.975 68.9558 153.208C67.2891 155.741 65.3424 157.685 63.1158 159.038C62.6158 158.945 62.1158 159.321 61.6158 160.168C59.1624 161.721 56.5191 162.561 53.6858 162.688C52.4925 162.981 51.6391 162.875 51.1258 162.368C51.0711 162.315 51.0306 162.25 51.0079 162.177C50.9853 162.105 50.9812 162.027 50.9961 161.952C51.0109 161.877 51.0442 161.806 51.093 161.746C51.1418 161.686 51.2046 161.639 51.2758 161.608L56.5158 159.418C56.7137 159.339 56.8974 159.216 57.0558 159.058C61.1558 154.885 63.6091 150.345 64.4158 145.438C65.7091 137.565 66.1958 128.725 65.8758 118.918C67.0158 116.238 67.6524 113.725 67.7858 111.378C68.2524 103.278 68.7291 95.1745 69.2158 87.0679C69.4425 83.2745 70.5558 78.1646 72.5558 71.7379C73.5625 69.1112 74.8125 67.3378 76.3058 66.4178Z" fill="#A55728"/>
<path d="M211.036 69.4078C217.822 77.8612 225.646 85.3612 234.506 91.9078C238.759 95.0478 240.996 99.1779 241.216 104.298C241.221 104.392 241.195 104.485 241.142 104.562C241.088 104.639 241.01 104.697 240.92 104.724C240.83 104.752 240.734 104.749 240.646 104.715C240.558 104.681 240.484 104.619 240.436 104.538L238.736 101.728C238.709 101.682 238.669 101.645 238.62 101.624C238.572 101.602 238.518 101.597 238.466 101.608L238.446 101.618C238.348 101.656 238.269 101.73 238.224 101.825C238.18 101.92 238.173 102.028 238.206 102.128C241.076 110.688 237.476 118.118 232.556 125.768C230.036 129.694 226.493 133.748 221.926 137.928C214.576 144.648 214.236 151.878 214.096 161.128C214.089 161.469 213.957 161.796 213.724 162.044C213.491 162.292 213.174 162.443 212.836 162.468C210.356 162.661 208.269 162.441 206.576 161.808L210.556 162.038C210.725 162.05 210.892 162.005 211.033 161.911C211.173 161.816 211.278 161.678 211.331 161.517C211.384 161.356 211.381 161.183 211.324 161.023C211.267 160.864 211.159 160.728 211.016 160.638L204.466 156.448C198.596 150.138 197.356 142.748 196.896 134.318C196.722 131.091 196.539 126.675 196.346 121.068C196.086 113.198 196.366 106.948 196.596 97.5779C196.682 94.0845 196.443 90.6813 195.876 87.3679C194.689 80.4413 192.636 73.5079 189.716 66.5679C194.202 70.4879 197.389 75.4312 199.276 81.3978C199.433 81.9012 199.727 82.3513 200.126 82.6979C203.599 85.7712 206.049 89.6445 207.476 94.3179C207.527 94.4844 207.641 94.6245 207.792 94.7085C207.943 94.7925 208.12 94.8138 208.286 94.7678L208.596 94.6879C208.678 94.6651 208.749 94.615 208.798 94.5458C208.847 94.4766 208.871 94.3926 208.866 94.3079C208.766 92.5612 208.373 90.0413 207.686 86.7479C206.979 83.3813 205.236 79.8945 202.456 76.2878C202.367 76.1701 202.316 76.0287 202.309 75.8823C202.301 75.7359 202.339 75.5915 202.416 75.4679C204.289 72.3346 207.162 70.3145 211.036 69.4078ZM200.096 85.4679C200.242 87.9812 200.739 91.8546 201.586 97.0879C202.406 102.138 201.826 108.828 201.076 116.368C200.669 120.501 200.519 124.898 200.626 129.558C200.623 129.697 200.672 129.832 200.762 129.938C200.852 130.044 200.977 130.113 201.115 130.133C201.253 130.152 201.393 130.121 201.509 130.045C201.625 129.968 201.709 129.852 201.746 129.718C202.266 128.038 203.286 124.361 204.806 118.688C205.133 117.455 205.329 116.288 205.396 115.188C205.566 112.328 206.186 108.888 206.056 106.258C205.703 98.9979 203.913 92.0179 200.686 85.3179C200.655 85.2527 200.603 85.2002 200.538 85.1694C200.473 85.1387 200.399 85.1317 200.329 85.1494C200.259 85.1672 200.198 85.2086 200.155 85.2667C200.113 85.3248 200.092 85.396 200.096 85.4679Z" fill="#D59659"/>
<path d="M113.636 100.448L108.436 93.4078C109.309 91.9678 109.249 90.6479 108.256 89.4479C106.476 87.0879 105.226 85.6245 104.506 85.0578C97.2059 79.2778 91.5659 87.0179 86.8459 92.8579C86.8093 92.902 86.7849 92.9547 86.7749 93.0111C86.7648 93.0675 86.7695 93.1258 86.7885 93.1806C86.8074 93.2355 86.84 93.285 86.8832 93.3247C86.9265 93.3644 86.9789 93.393 87.0358 93.4078L87.7159 93.5678C87.7359 93.5545 87.7559 93.5411 87.7759 93.5278L83.7958 95.1179C83.6053 95.1902 83.4 95.2176 83.1958 95.1979C82.1158 95.0779 81.3258 94.7378 80.8258 94.1778C80.6947 94.0313 80.6081 93.8507 80.5762 93.6576C80.5443 93.4644 80.5685 93.2668 80.6458 93.0879L84.9758 83.1778C87.2058 78.1178 92.3558 70.5679 97.5958 69.6179C99.5958 69.2579 101.269 68.7212 102.616 68.0079C102.9 67.8561 103.209 67.7642 103.526 67.7379C107.566 67.3579 113.926 69.3179 115.886 73.4679C120.366 82.9879 118.556 91.5779 113.636 100.448Z" fill="#E2A35E"/>
<path d="M191.186 110.938L190.616 127.648C190.063 130.734 189.566 133.828 189.126 136.928C188.506 141.228 187.85 144.198 187.156 145.838C185.843 148.938 184.223 151.531 182.296 153.618C176.163 160.265 171.36 166.635 167.886 172.728C167.06 174.175 166.063 175.604 164.896 177.018C166.343 170.891 168.51 164.595 171.396 158.128C172.49 155.681 173.056 152.911 173.096 149.818C173.79 148.544 174.113 147.324 174.066 146.158C174.04 145.569 173.824 145.005 173.45 144.551C173.077 144.096 172.567 143.776 171.996 143.638C170.883 143.371 170.183 143.525 169.896 144.098L167.586 143.038C167.442 142.972 167.316 142.876 167.215 142.757C167.115 142.637 167.043 142.498 167.006 142.348C165.953 137.981 164.803 134.308 163.556 131.328C160.936 125.041 158.36 118.854 155.826 112.768C154.086 109.488 152.363 106.258 150.656 103.078C148.236 98.5512 146.826 95.1978 146.426 93.0178C145.246 86.5678 144.756 74.0978 151.806 69.9178C159.826 65.1578 167.956 68.0879 173.506 74.9979C177.166 79.5512 179.773 84.5845 181.326 90.0978C181.386 90.3159 181.487 90.5229 181.626 90.7078C182.72 92.1012 183.69 92.9045 184.536 93.1179C184.756 93.1759 184.947 93.3107 185.076 93.4979L188.666 98.7078C189.319 99.6573 189.616 100.808 189.506 101.958C189.206 105.164 189.766 108.158 191.186 110.938ZM156.606 88.0678C154.453 90.8478 154.823 93.2878 157.716 95.3878C163.086 99.2878 169.506 98.4978 174.246 93.9078L176.526 93.2778C176.595 93.2594 176.658 93.2234 176.709 93.1733C176.759 93.1232 176.796 93.0607 176.815 92.992C176.834 92.9234 176.835 92.8509 176.818 92.7818C176.801 92.7127 176.766 92.6493 176.716 92.5978C173.836 89.5445 172.313 87.9178 172.146 87.7178C168.806 83.6778 164.826 81.5878 160.006 84.5278C158.626 85.3678 157.493 86.5478 156.606 88.0678Z" fill="#E2A35E"/>
<path d="M72.5557 71.7379C70.5557 78.1646 69.4424 83.2745 69.2157 87.0679C68.7291 95.1745 68.2524 103.278 67.7857 111.378C67.6524 113.725 67.0157 116.238 65.8757 118.918C64.7091 108.685 64.1324 100.195 64.1457 93.4479C64.1657 87.0679 65.9257 80.9312 69.4257 75.0378C69.5718 74.7922 69.7465 74.5672 69.9457 74.3679L72.5557 71.7379Z" fill="#BC6D32"/>
<path d="M65.7763 72.5478L59.8663 96.3078C59.8387 96.4127 59.7771 96.5061 59.6913 96.5732C59.6055 96.6404 59.5004 96.6774 59.3926 96.6786C59.2848 96.6797 59.1804 96.6449 59.0959 96.5796C59.0114 96.5142 58.9517 96.4221 58.9263 96.3178C56.4263 86.6245 58.5262 78.5945 65.2262 72.2279C65.2779 72.1773 65.3446 72.145 65.4163 72.1361C65.488 72.1271 65.5607 72.142 65.6231 72.1783C65.6856 72.2147 65.7344 72.2705 65.7621 72.3373C65.7897 72.404 65.7947 72.478 65.7763 72.5478Z" fill="#E9C285"/>
<path d="M84.9766 83.1779L80.6466 93.0879C80.5692 93.2668 80.545 93.4644 80.5769 93.6576C80.6088 93.8508 80.6954 94.0313 80.8266 94.1779C81.3266 94.7379 82.1166 95.0779 83.1966 95.1979C83.4007 95.2176 83.6061 95.1903 83.7966 95.1179L87.7766 93.5278C90.1666 94.9078 92.7066 96.6979 95.1066 97.4579C100.073 99.0179 104.517 97.6678 108.437 93.4078L113.637 100.448C111.497 104.835 109.307 109.215 107.067 113.588C106.507 114.681 105.987 116.244 105.507 118.278C103.16 123.991 100.883 129.778 98.6766 135.638C97.9832 137.478 97.4299 139.354 97.0166 141.268C96.5166 143.588 95.4533 144.915 93.8266 145.248C93.5166 143.388 90.9266 143.778 90.0266 144.598C89.3932 144.318 88.7866 144.421 88.2066 144.908C88.0868 145.006 87.993 145.132 87.9337 145.275C87.8744 145.418 87.8513 145.574 87.8666 145.728C88.7966 155.018 95.5966 162.448 96.8866 172.968C93.2866 166.721 89.0333 160.985 84.1266 155.758C80.6466 152.051 78.4032 148.948 77.3966 146.448C76.2899 143.715 75.2166 140.928 74.1766 138.088C72.0066 125.168 72.0466 114.638 71.7266 99.4779L73.2366 103.198C73.2885 103.329 73.377 103.441 73.4915 103.523C73.606 103.605 73.7417 103.651 73.8822 103.658C74.0227 103.664 74.162 103.63 74.2834 103.559C74.4048 103.488 74.5032 103.383 74.5666 103.258L84.9766 83.1779Z" fill="#E4B278"/>
<path d="M108.256 89.4479L105.626 92.978C105.493 93.1568 105.331 93.3154 105.146 93.4479C100.119 96.9879 95.4923 96.3979 91.2657 91.6779C91.1802 91.5834 91.0637 91.523 90.9383 91.5082C90.813 91.4935 90.6875 91.5255 90.5856 91.598L87.7157 93.5679L87.0356 93.4079C86.9788 93.3931 86.9263 93.3645 86.883 93.3248C86.8398 93.285 86.8072 93.2355 86.7883 93.1807C86.7693 93.1259 86.7646 93.0676 86.7747 93.0112C86.7847 92.9548 86.8091 92.9021 86.8457 92.858C91.5657 87.018 97.2057 79.2779 104.506 85.0579C105.226 85.6246 106.476 87.0879 108.256 89.4479ZM101.156 88.1479C101.156 87.6228 100.947 87.1192 100.576 86.7479C100.204 86.3765 99.7008 86.1679 99.1757 86.1679C98.6505 86.1679 98.1469 86.3765 97.7756 86.7479C97.4042 87.1192 97.1957 87.6228 97.1957 88.1479C97.1957 88.673 97.4042 89.1767 97.7756 89.548C98.1469 89.9194 98.6505 90.128 99.1757 90.128C99.7008 90.128 100.204 89.9194 100.576 89.548C100.947 89.1767 101.156 88.673 101.156 88.1479Z" fill="#301A15"/>
<path d="M174.245 93.9079C173.572 93.7812 172.939 93.5613 172.345 93.248C172.025 93.0813 171.745 93.0445 171.505 93.1379C170.825 93.4079 170.225 94.2079 169.685 94.4679C163.599 97.4079 159.239 95.2746 156.605 88.0679C157.492 86.5479 158.625 85.3679 160.005 84.5279C164.825 81.5879 168.805 83.6779 172.145 87.7179C172.312 87.9179 173.835 89.5446 176.715 92.5979C176.765 92.6494 176.8 92.7128 176.817 92.7819C176.835 92.851 176.834 92.9235 176.815 92.9921C176.795 93.0608 176.759 93.1233 176.708 93.1734C176.657 93.2235 176.594 93.2595 176.525 93.2779L174.245 93.9079ZM164.762 86.6729C164.546 86.657 164.328 86.6893 164.122 86.7679C163.915 86.8464 163.724 86.9697 163.558 87.1308C163.393 87.2918 163.257 87.4875 163.157 87.7065C163.058 87.9255 162.998 88.1635 162.98 88.4071C162.962 88.6507 162.987 88.895 163.053 89.1261C163.119 89.3573 163.225 89.5707 163.366 89.7542C163.506 89.9377 163.677 90.0876 163.87 90.1955C164.063 90.3034 164.273 90.3671 164.489 90.383C164.705 90.3988 164.923 90.3666 165.129 90.288C165.336 90.2094 165.527 90.0861 165.693 89.9251C165.858 89.7641 165.994 89.5684 166.094 89.3494C166.193 89.1304 166.253 88.8923 166.271 88.6487C166.289 88.4051 166.264 88.1607 166.198 87.9296C166.132 87.6985 166.026 87.4851 165.885 87.3017C165.745 87.1182 165.574 86.9683 165.381 86.8604C165.188 86.7525 164.978 86.6888 164.762 86.6729Z" fill="#301A15"/>
<path d="M200.096 85.4678C200.092 85.3959 200.113 85.3248 200.156 85.2667C200.198 85.2085 200.26 85.1671 200.329 85.1494C200.399 85.1316 200.473 85.1386 200.538 85.1694C200.603 85.2001 200.656 85.2526 200.686 85.3178C203.913 92.0178 205.703 98.9979 206.056 106.258C206.186 108.888 205.566 112.328 205.396 115.188C205.33 116.288 205.133 117.454 204.806 118.688C203.286 124.361 202.266 128.038 201.746 129.718C201.71 129.852 201.626 129.968 201.509 130.045C201.393 130.121 201.253 130.152 201.116 130.133C200.978 130.113 200.852 130.044 200.762 129.938C200.672 129.832 200.624 129.697 200.626 129.558C200.52 124.898 200.67 120.501 201.076 116.368C201.826 108.828 202.406 102.138 201.586 97.0878C200.74 91.8545 200.243 87.9812 200.096 85.4678Z" fill="#E2A35E"/>
<path d="M99.1763 90.1279C100.27 90.1279 101.156 89.2414 101.156 88.1478C101.156 87.0543 100.27 86.1678 99.1763 86.1678C98.0827 86.1678 97.1963 87.0543 97.1963 88.1478C97.1963 89.2414 98.0827 90.1279 99.1763 90.1279Z" fill="#F5EDE2"/>
<path d="M166.271 88.6488C166.346 87.6243 165.671 86.7397 164.762 86.6729C163.853 86.6062 163.055 87.3826 162.98 88.4071C162.905 89.4316 163.58 90.3162 164.489 90.3829C165.398 90.4497 166.196 89.6733 166.271 88.6488Z" fill="#F5E8D6"/>
<path d="M156.606 88.0679C159.239 95.2745 163.599 97.4079 169.686 94.4679C170.226 94.2079 170.826 93.4078 171.506 93.1378C171.746 93.0445 172.026 93.0813 172.346 93.2479C172.939 93.5613 173.572 93.7812 174.246 93.9078C169.506 98.4978 163.086 99.2878 157.716 95.3878C154.822 93.2878 154.452 90.8479 156.606 88.0679Z" fill="#5A2C1F"/>
<path d="M108.436 93.4078C104.516 97.6678 100.072 99.0179 95.1058 97.4579C92.7058 96.6979 90.1658 94.9078 87.7758 93.5278C87.7558 93.5412 87.7358 93.5545 87.7158 93.5679L90.5858 91.5979C90.6876 91.5254 90.8132 91.4934 90.9385 91.5082C91.0639 91.5229 91.1804 91.5833 91.2658 91.6779C95.4925 96.3979 100.119 96.9879 105.146 93.4479C105.331 93.3153 105.493 93.1568 105.626 92.9779L108.256 89.4479C109.249 90.6479 109.309 91.9678 108.436 93.4078Z" fill="#824D37"/>
<path d="M155.826 112.768C158.359 118.854 160.936 125.041 163.556 131.328C164.803 134.308 165.953 137.981 167.006 142.348C167.043 142.498 167.115 142.637 167.215 142.757C167.315 142.876 167.442 142.972 167.586 143.038L169.896 144.098C170.103 145.098 170.156 145.745 170.056 146.038C167.406 153.648 165.376 160.288 158.696 164.188C154.476 166.641 150.356 166.718 146.336 164.418C145.603 157.598 146.143 150.748 147.956 143.868C148.509 141.781 148.489 139.478 147.896 136.958C152.276 130.708 153.766 123.848 147.106 118.668C145.019 116.901 142.289 115.985 138.916 115.918C131.096 115.765 124.923 115.861 120.396 116.208C117.116 118.415 115.126 119.918 114.426 120.718C109.896 125.928 113.356 134.658 117.196 139.498C116.796 141.411 116.629 142.861 116.696 143.848C117.136 150.675 116.986 157.575 116.246 164.548C103.736 170.138 97.3259 155.208 93.9159 146.658C93.7359 146.211 93.7059 145.741 93.8259 145.248C95.4526 144.915 96.5159 143.588 97.0159 141.268C97.4293 139.354 97.9826 137.478 98.6759 135.638C100.883 129.778 103.159 123.991 105.506 118.278C109.679 115.405 113.983 112.835 118.416 110.568C131.636 103.798 143.036 107.428 155.826 112.768Z" fill="#F1CD99"/>
<path d="M147.106 118.668L149.446 126.088C149.462 126.143 149.464 126.202 149.452 126.258C149.439 126.314 149.414 126.366 149.377 126.409C149.34 126.452 149.293 126.484 149.24 126.503C149.188 126.522 149.131 126.527 149.076 126.518L142.656 125.448C142.224 125.375 141.784 125.358 141.346 125.398C134.666 125.944 128.206 125.855 121.966 125.128L120.746 125.498L116.116 126.308C115.984 126.33 115.849 126.322 115.72 126.287C115.591 126.251 115.472 126.188 115.37 126.101C115.268 126.014 115.186 125.907 115.13 125.785C115.074 125.664 115.046 125.531 115.046 125.398V123.708C115.046 123.377 115.151 123.057 115.346 122.798L120.396 116.208C124.923 115.861 131.096 115.764 138.916 115.918C142.289 115.984 145.019 116.901 147.106 118.668Z" fill="#614739"/>
<path d="M120.396 116.208L115.346 122.798C115.151 123.058 115.046 123.377 115.046 123.708V125.398C115.046 125.532 115.075 125.664 115.131 125.785C115.187 125.907 115.268 126.014 115.37 126.101C115.472 126.188 115.592 126.251 115.72 126.287C115.849 126.322 115.984 126.33 116.116 126.308L120.746 125.498C118.6 126.645 118.266 128.901 119.746 132.268C119.773 132.329 119.786 132.396 119.783 132.462C119.781 132.529 119.764 132.595 119.733 132.654C119.703 132.713 119.659 132.765 119.606 132.806C119.553 132.846 119.492 132.874 119.426 132.888L117.156 133.338C117.002 133.368 116.86 133.444 116.75 133.555C116.64 133.667 116.566 133.809 116.538 133.964C116.509 134.119 116.529 134.278 116.593 134.421C116.657 134.565 116.762 134.686 116.896 134.768C120.283 136.901 123.5 136.821 126.546 134.528C126.788 134.345 126.982 134.108 127.115 133.837C127.247 133.566 127.312 133.268 127.306 132.968C127.233 128.061 125.453 125.448 121.966 125.128C128.206 125.855 134.666 125.944 141.346 125.398C141.784 125.358 142.225 125.375 142.656 125.448L149.076 126.518C149.131 126.527 149.188 126.522 149.24 126.503C149.293 126.484 149.34 126.452 149.377 126.409C149.414 126.366 149.44 126.314 149.452 126.258C149.464 126.202 149.462 126.143 149.446 126.088L147.106 118.668C153.766 123.848 152.276 130.708 147.896 136.958C144.183 142.078 139.27 145.715 133.156 147.868C132.842 147.979 132.5 148.003 132.166 147.938C126.146 146.658 121.156 143.845 117.196 139.498C113.356 134.658 109.896 125.928 114.426 120.718C115.126 119.918 117.116 118.415 120.396 116.208ZM145.926 135.368C146.155 135.283 146.348 135.123 146.473 134.913C146.598 134.704 146.647 134.458 146.614 134.216C146.58 133.975 146.464 133.752 146.287 133.585C146.109 133.418 145.879 133.317 145.636 133.298C144.59 133.205 143.826 132.861 143.346 132.268C143.226 132.126 143.141 131.958 143.099 131.777C143.058 131.596 143.06 131.408 143.106 131.228L144.006 127.608C144.044 127.449 144.03 127.284 143.967 127.136C143.904 126.988 143.795 126.866 143.656 126.788C142.143 125.928 140.95 125.501 140.076 125.508C139.913 125.511 139.752 125.549 139.604 125.62C139.455 125.69 139.323 125.792 139.216 125.918C137.746 127.678 135.056 132.508 137.166 134.128C139.84 136.175 142.76 136.588 145.926 135.368Z" fill="#3D261D"/>
<path d="M53.6857 162.688C56.519 162.561 59.1624 161.721 61.6157 160.168C62.129 160.348 62.4024 160.621 62.4357 160.988C62.6757 163.695 63.009 168.595 63.4357 175.688L63.5557 177.028C63.5816 177.358 63.7192 177.668 63.9457 177.908C65.139 179.221 65.4624 180.991 64.9157 183.218C64.3357 185.568 62.7257 187.178 61.7757 189.108C58.9757 194.761 55.9457 200.448 52.6857 206.168C51.7257 207.855 51.2524 209.625 51.2657 211.478C51.2617 211.593 51.301 211.705 51.3759 211.793C51.4509 211.88 51.5558 211.937 51.6702 211.95C51.7846 211.964 51.8999 211.935 51.9935 211.868C52.0871 211.8 52.1521 211.701 52.1757 211.588C52.529 210.135 53.3724 208.895 54.7057 207.868C54.7781 207.811 54.8661 207.776 54.9582 207.77C55.0503 207.763 55.1422 207.785 55.222 207.831C55.3018 207.877 55.3659 207.947 55.4058 208.03C55.4457 208.113 55.4596 208.207 55.4457 208.298C55.279 209.485 54.949 210.678 54.4557 211.878C51.9424 217.998 51.1424 224.475 52.0557 231.308L52.1857 233.708C52.4924 234.881 52.319 235.575 51.6657 235.788C51.5891 235.812 51.508 235.818 51.4295 235.804C51.351 235.79 51.2776 235.757 51.2157 235.708C37.6957 225.121 26.469 212.251 17.5357 197.098C16.0357 194.551 14.989 192.385 14.3957 190.598C14.0624 187.645 13.229 183.715 11.8957 178.808C10.2824 172.881 11.4957 167.625 15.5357 163.038C20.4357 157.468 26.3957 151.848 30.4557 145.268C35.6257 136.898 33.0357 129.358 28.7557 121.168C32.7957 126.888 37.399 132.185 42.5657 137.058C47.2324 141.451 49.6624 146.811 49.8557 153.138C49.949 156.191 50.1124 159.221 50.3457 162.228C50.3565 162.371 50.415 162.507 50.5125 162.615C50.6099 162.724 50.7409 162.798 50.8857 162.828C51.8124 163.021 52.7457 162.975 53.6857 162.688Z" fill="#F2D6A8"/>
<path d="M121.966 125.128C125.452 125.448 127.232 128.061 127.306 132.968C127.312 133.268 127.246 133.566 127.114 133.837C126.982 134.108 126.787 134.345 126.546 134.528C123.499 136.821 120.282 136.901 116.896 134.768C116.762 134.686 116.656 134.565 116.592 134.421C116.528 134.278 116.509 134.119 116.537 133.964C116.565 133.809 116.639 133.667 116.75 133.555C116.86 133.444 117.001 133.368 117.156 133.338L119.426 132.888C119.491 132.874 119.553 132.846 119.606 132.806C119.659 132.765 119.702 132.713 119.733 132.654C119.764 132.595 119.781 132.529 119.783 132.462C119.785 132.396 119.772 132.329 119.746 132.268C118.266 128.901 118.599 126.645 120.746 125.498L121.966 125.128Z" fill="#110F0D"/>
<path d="M145.926 135.368C142.759 136.588 139.839 136.175 137.166 134.128C135.056 132.508 137.746 127.678 139.216 125.918C139.323 125.792 139.455 125.69 139.604 125.62C139.752 125.549 139.913 125.511 140.076 125.508C140.949 125.501 142.143 125.928 143.656 126.788C143.794 126.865 143.904 126.988 143.967 127.136C144.03 127.284 144.044 127.449 144.006 127.608L143.106 131.228C143.06 131.408 143.057 131.596 143.099 131.777C143.141 131.958 143.226 132.126 143.346 132.268C143.826 132.861 144.589 133.204 145.636 133.298C145.879 133.317 146.109 133.418 146.286 133.585C146.464 133.752 146.58 133.975 146.613 134.216C146.647 134.458 146.598 134.704 146.472 134.913C146.347 135.122 146.155 135.283 145.926 135.368Z" fill="#301A15"/>
<path d="M190.616 127.648C190.85 132.728 191.426 137.768 192.346 142.768C192.893 145.728 193.853 148.545 195.226 151.218C195.386 151.517 195.584 151.796 195.816 152.048C198.066 154.498 200.976 156.928 204.466 156.448L211.016 160.638C211.159 160.728 211.268 160.864 211.325 161.023C211.382 161.183 211.384 161.356 211.331 161.517C211.278 161.678 211.174 161.816 211.033 161.911C210.893 162.005 210.725 162.05 210.556 162.038L206.576 161.808C205.49 161.455 204.35 160.801 203.156 159.848C203.062 159.772 202.948 159.723 202.828 159.706C202.708 159.689 202.586 159.704 202.474 159.75C202.362 159.795 202.264 159.87 202.19 159.967C202.117 160.063 202.071 160.178 202.056 160.298L201.566 164.458C194.516 163.458 190.346 168.148 186.466 173.198C177.596 184.768 170.066 195.068 160.856 208.538C154.903 217.245 148.766 225.858 142.446 234.378C139.893 230.198 136.9 226.278 133.466 222.618C133.416 222.567 133.352 222.533 133.282 222.521C133.212 222.509 133.14 222.519 133.076 222.55C133.012 222.581 132.959 222.631 132.925 222.693C132.891 222.756 132.878 222.827 132.886 222.898L133.496 227.218C133.516 227.339 133.494 227.464 133.433 227.571C133.373 227.678 133.277 227.761 133.163 227.807C133.049 227.852 132.922 227.857 132.805 227.821C132.687 227.785 132.585 227.71 132.516 227.608C127.703 220.821 122.58 214.278 117.146 207.978C112.936 203.088 107.756 198.398 103.976 194.048C95.3229 184.088 88.9862 176.954 84.9662 172.648C80.4062 167.768 76.8262 164.235 74.2262 162.048C74.0112 161.869 73.7495 161.756 73.4727 161.722C73.1959 161.688 72.9158 161.736 72.6662 161.858C69.8862 163.198 68.9262 165.308 66.8162 167.258C66.7753 167.296 66.7256 167.323 66.6716 167.338C66.6176 167.352 66.5609 167.353 66.5065 167.34C66.4521 167.327 66.4017 167.301 66.3598 167.264C66.3179 167.227 66.2858 167.18 66.2662 167.128L63.1162 159.038C65.3429 157.685 67.2895 155.741 68.9562 153.208C69.7695 151.975 70.5329 150.341 71.2462 148.308C71.8529 146.575 72.4395 144.838 73.0062 143.098C73.086 142.839 73.1396 142.57 73.1662 142.298C73.2862 140.858 73.6229 139.455 74.1762 138.088C75.2162 140.928 76.2895 143.715 77.3962 146.448C78.4029 148.948 80.6462 152.051 84.1262 155.758C89.0329 160.985 93.2862 166.721 96.8862 172.968C102.486 181.108 108.35 189.088 114.476 196.908C119.776 203.678 134.386 202.428 141.366 201.368C145.673 200.708 149 198.621 151.346 195.108C155.58 188.775 160.096 182.744 164.896 177.018C166.063 175.604 167.06 174.175 167.886 172.728C171.36 166.635 176.163 160.265 182.296 153.618C184.223 151.531 185.843 148.938 187.156 145.838C187.85 144.198 188.506 141.228 189.126 136.928C189.566 133.828 190.063 130.734 190.616 127.648Z" fill="#CF8D45"/>
<path d="M147.896 136.958C148.489 139.478 148.509 141.781 147.956 143.868C146.143 150.748 145.603 157.598 146.336 164.418L133.366 154.868C132.934 154.546 132.405 154.379 131.865 154.395C131.326 154.412 130.808 154.61 130.396 154.958C126.069 158.571 121.353 161.768 116.246 164.548C116.986 157.575 117.136 150.675 116.696 143.848C116.629 142.861 116.796 141.411 117.196 139.498C121.156 143.845 126.146 146.658 132.166 147.938C132.5 148.003 132.842 147.979 133.156 147.868C139.269 145.715 144.183 142.078 147.896 136.958Z" fill="#BA9A85"/>
<path d="M173.096 149.818C168.976 160.058 164.593 169.605 159.946 178.458C159.373 179.551 158.559 180.745 157.506 182.038C157.291 182.305 157.001 182.497 156.676 182.588C155.816 182.835 155.002 182.931 154.236 182.878C153.991 182.863 153.746 182.914 153.528 183.027C153.309 183.139 153.125 183.309 152.996 183.518C151.446 186.058 149.836 189.588 148.106 191.398C142.836 196.928 134.716 197.108 127.426 196.438C118.816 195.658 115.236 191.498 111.506 183.768C111.423 183.595 111.3 183.445 111.149 183.33C110.997 183.215 110.821 183.139 110.636 183.108L108.166 182.658C107.852 182.599 107.561 182.457 107.326 182.248C105.999 181.055 104.796 179.445 103.716 177.418C98.1491 167.025 93.5359 157.118 89.8759 147.698C89.5025 146.738 89.5525 145.705 90.0258 144.598C90.9258 143.778 93.5159 143.388 93.8259 145.248C93.7059 145.741 93.7358 146.211 93.9158 146.658C97.3258 155.208 103.736 170.138 116.246 164.548C121.353 161.768 126.069 158.571 130.396 154.958C130.808 154.61 131.326 154.412 131.865 154.395C132.404 154.379 132.933 154.546 133.366 154.868L146.336 164.418C150.356 166.718 154.476 166.641 158.696 164.188C165.376 160.288 167.406 153.648 170.056 146.038C170.156 145.745 170.102 145.098 169.896 144.098C170.182 143.525 170.883 143.371 171.996 143.638C172.566 143.776 173.077 144.096 173.45 144.551C173.823 145.005 174.039 145.569 174.066 146.158C174.113 147.325 173.789 148.545 173.096 149.818ZM113.706 167.338C113.613 171.678 113.696 175.131 113.956 177.698C114.706 184.948 119.826 191.348 127.456 191.968C135.076 192.588 142.496 192.858 146.786 185.818C150.186 180.248 150.636 174.648 149.686 168.078C149.664 167.915 149.602 167.761 149.506 167.63C149.41 167.499 149.283 167.395 149.136 167.328C148.789 167.168 148.366 167.101 147.866 167.128C145.839 166.021 143.193 165.318 139.926 165.018C130.439 164.138 121.699 164.911 113.706 167.338Z" fill="#301A15"/>
<path d="M90.0259 144.598C89.5525 145.705 89.5026 146.738 89.8759 147.698C93.5359 157.118 98.1492 167.024 103.716 177.418C104.796 179.444 105.999 181.055 107.326 182.248C107.561 182.457 107.852 182.599 108.166 182.658L110.636 183.108C110.821 183.139 110.997 183.215 111.149 183.33C111.3 183.445 111.423 183.595 111.506 183.768C115.236 191.498 118.816 195.658 127.426 196.438C134.716 197.108 142.836 196.928 148.106 191.398C149.836 189.588 151.446 186.058 152.996 183.518C153.126 183.309 153.309 183.139 153.528 183.027C153.746 182.914 153.991 182.863 154.236 182.878C155.003 182.931 155.816 182.835 156.676 182.588C157.001 182.497 157.291 182.305 157.506 182.038C158.559 180.744 159.373 179.551 159.946 178.458C164.593 169.605 168.976 160.058 173.096 149.818C173.056 152.911 172.489 155.681 171.396 158.128C168.509 164.595 166.343 170.891 164.896 177.018C160.096 182.744 155.579 188.775 151.346 195.108C148.999 198.621 145.673 200.708 141.366 201.368C134.386 202.428 119.776 203.678 114.476 196.908C108.349 189.088 102.486 181.108 96.8859 172.968C95.5959 162.448 88.7959 155.018 87.8659 145.728C87.8506 145.574 87.8737 145.418 87.933 145.275C87.9923 145.132 88.0861 145.006 88.2059 144.908C88.7859 144.421 89.3925 144.318 90.0259 144.598Z" fill="#EDBC94"/>
<path d="M264.006 148.138C262.733 158.284 260.799 166.731 258.206 173.478C256.353 178.298 255.176 181.661 254.676 183.568L251.246 189.958C252.759 183.811 253.956 179.635 254.836 177.428C257.386 171.008 259.906 164.758 261.596 157.988C262.416 154.708 263.219 151.424 264.006 148.138Z" fill="#E5CBAC"/>
<path d="M201.566 164.458C200.516 173.268 199.436 179.078 199.796 184.698L199.006 183.308C198.951 183.217 198.869 183.146 198.77 183.106C198.672 183.066 198.563 183.059 198.461 183.086C198.358 183.113 198.267 183.173 198.201 183.256C198.136 183.34 198.099 183.442 198.096 183.548C198.086 190.978 195.226 198.708 192.556 206.058C192.527 206.142 192.47 206.212 192.393 206.257C192.317 206.302 192.227 206.318 192.14 206.302C192.053 206.287 191.974 206.24 191.919 206.172C191.863 206.103 191.833 206.016 191.836 205.928L191.886 194.618C191.889 194.444 191.829 194.275 191.717 194.143C191.605 194.011 191.448 193.924 191.276 193.898C191.103 193.873 190.926 193.91 190.777 194.004C190.628 194.097 190.518 194.241 190.466 194.408L185.796 209.858C185.763 209.965 185.723 210.068 185.676 210.168C182.016 217.555 177.713 224.688 172.766 231.568C172.67 231.698 172.536 231.795 172.382 231.844C172.228 231.894 172.063 231.894 171.909 231.844C171.755 231.794 171.621 231.697 171.525 231.567C171.43 231.437 171.377 231.28 171.376 231.118L171.446 215.968C171.444 215.863 171.407 215.762 171.34 215.682C171.273 215.601 171.181 215.546 171.078 215.525C170.976 215.504 170.869 215.518 170.776 215.566C170.683 215.614 170.609 215.692 170.566 215.788C167.726 222.708 164.806 231.478 161.876 237.298C157.476 246.031 152.256 254.261 146.216 261.988C146.009 262.253 145.716 262.44 145.386 262.518C141.813 263.331 138.169 263.535 134.456 263.128C120.076 263.321 107.003 261.638 95.2359 258.078C86.3959 255.405 76.566 251.121 65.746 245.228C66.426 245.488 67.0959 245.618 67.7559 245.618C67.7946 245.618 67.8324 245.606 67.8635 245.583C67.8946 245.56 67.9175 245.527 67.9287 245.49C67.9399 245.453 67.9389 245.413 67.9258 245.377C67.9127 245.341 67.8882 245.309 67.8559 245.288L55.376 236.668C55.3653 236.665 55.3562 236.658 55.3506 236.649C55.345 236.64 55.3433 236.629 55.346 236.618C55.3486 236.607 55.3554 236.598 55.3647 236.593C55.3741 236.587 55.3853 236.585 55.3959 236.588C55.5093 236.588 55.6126 236.585 55.7059 236.578C55.8929 236.558 56.0814 236.608 56.2359 236.718C67.9693 244.651 80.4426 250.458 93.6559 254.138L119.346 257.858L121.056 262.178C121.098 262.284 121.16 262.382 121.24 262.464C121.319 262.546 121.414 262.612 121.519 262.657C121.624 262.703 121.737 262.727 121.852 262.729C121.966 262.731 122.08 262.71 122.186 262.668L122.556 262.528C122.688 262.475 122.808 262.394 122.906 262.292C123.005 262.189 123.081 262.066 123.13 261.932C123.178 261.798 123.197 261.655 123.186 261.513C123.175 261.371 123.134 261.233 123.066 261.108C122.719 260.475 122.636 259.598 122.816 258.478C128.726 260.658 136.846 259.988 140.746 260.438C140.95 260.461 141.157 260.421 141.338 260.323C141.519 260.224 141.665 260.072 141.756 259.888L147.316 248.708C147.495 248.347 147.595 247.951 147.609 247.547C147.623 247.144 147.55 246.742 147.396 246.368L142.446 234.378C148.766 225.858 154.903 217.245 160.856 208.538C170.066 195.068 177.596 184.768 186.466 173.198C190.346 168.148 194.516 163.458 201.566 164.458Z" fill="#D59659"/>
<path d="M63.1162 159.038L66.2662 167.128C66.2858 167.18 66.3179 167.227 66.3598 167.264C66.4017 167.301 66.4521 167.327 66.5065 167.34C66.5609 167.353 66.6176 167.352 66.6716 167.338C66.7256 167.323 66.7753 167.296 66.8162 167.258C68.9262 165.308 69.8862 163.198 72.6662 161.858C72.9158 161.736 73.1959 161.688 73.4727 161.722C73.7495 161.756 74.0112 161.869 74.2262 162.048C76.8262 164.235 80.4062 167.768 84.9662 172.648C88.9862 176.954 95.3229 184.088 103.976 194.048C107.756 198.398 112.936 203.088 117.146 207.978C122.58 214.278 127.703 220.821 132.516 227.608C132.585 227.71 132.687 227.785 132.805 227.821C132.922 227.857 133.049 227.852 133.163 227.807C133.277 227.761 133.373 227.678 133.433 227.571C133.494 227.464 133.516 227.339 133.496 227.218L132.886 222.898C132.878 222.827 132.891 222.756 132.925 222.693C132.959 222.631 133.012 222.581 133.076 222.55C133.14 222.519 133.212 222.509 133.282 222.521C133.352 222.533 133.416 222.567 133.466 222.618C136.9 226.278 139.893 230.198 142.446 234.378L147.396 246.368C147.55 246.742 147.623 247.144 147.609 247.547C147.595 247.951 147.495 248.347 147.316 248.708L141.756 259.888C141.665 260.072 141.519 260.224 141.338 260.323C141.157 260.421 140.951 260.461 140.746 260.438C136.846 259.988 128.726 260.658 122.816 258.478C121.183 251.485 118.42 245.031 114.526 239.118C114.473 239.038 114.393 238.978 114.301 238.948C114.209 238.918 114.11 238.921 114.02 238.955C113.931 238.989 113.856 239.053 113.81 239.135C113.764 239.218 113.748 239.314 113.766 239.408C114.746 245.608 116.606 251.758 119.346 257.858L93.6562 254.138C91.2429 252.184 88.8162 250.308 86.3762 248.508C82.5629 245.701 80.1562 243.768 79.1562 242.708C68.3262 231.258 70.3662 218.208 72.8362 203.748C72.8893 203.443 72.8994 203.136 72.8662 202.838C72.3929 198.651 71.9329 192.714 71.4862 185.028C71.2062 180.168 69.4529 176.365 66.2262 173.618C66.1732 173.573 66.1104 173.542 66.0429 173.526C65.9755 173.511 65.9053 173.511 65.838 173.528C65.7708 173.544 65.7084 173.576 65.656 173.622C65.6035 173.667 65.5625 173.724 65.5362 173.788L64.6062 176.068C64.5694 176.163 64.5013 176.243 64.4126 176.296C64.3239 176.348 64.2196 176.37 64.1162 176.358C63.7695 176.311 63.5429 176.088 63.4362 175.688C63.0096 168.595 62.6762 163.695 62.4362 160.988C62.4029 160.621 62.1295 160.348 61.6162 160.168C62.1162 159.321 62.6162 158.944 63.1162 159.038ZM91.5062 231.788C89.3262 221.348 89.0162 206.728 80.3462 199.078C80.2833 199.023 80.2066 198.986 80.1242 198.971C80.0418 198.956 79.957 198.964 79.8788 198.994C79.8006 199.024 79.7321 199.074 79.6805 199.14C79.629 199.206 79.5964 199.285 79.5862 199.368C78.2262 210.908 82.8562 223.878 90.4562 232.318C90.5459 232.417 90.6656 232.484 90.7969 232.508C90.9282 232.532 91.0638 232.513 91.183 232.453C91.3023 232.393 91.3985 232.295 91.4568 232.175C91.5152 232.055 91.5326 231.919 91.5062 231.788ZM96.7762 221.158C98.1462 230.238 101.716 240.078 108.376 247.118C108.488 247.235 108.633 247.314 108.792 247.344C108.951 247.375 109.115 247.355 109.263 247.288C109.41 247.221 109.532 247.11 109.614 246.97C109.695 246.831 109.731 246.669 109.716 246.508C108.736 236.558 102.196 229.218 97.3362 220.958C97.3028 220.893 97.2473 220.843 97.1797 220.816C97.1121 220.79 97.0372 220.789 96.9688 220.813C96.9003 220.837 96.8432 220.886 96.8077 220.949C96.7723 221.013 96.7611 221.087 96.7762 221.158Z" fill="#E2A35E"/>
<path d="M147.866 167.128C146.586 167.648 144.883 168.111 142.756 168.518C139.303 169.184 135.919 170.611 132.606 172.798C132.475 172.885 132.326 172.94 132.17 172.959C132.014 172.978 131.855 172.96 131.706 172.908L122.556 169.568C122.045 169.382 121.517 169.264 120.986 169.218C118.586 168.998 116.159 168.371 113.706 167.338C121.699 164.911 130.439 164.138 139.926 165.018C143.193 165.318 145.839 166.021 147.866 167.128Z" fill="#B3453B"/>
<path d="M147.866 167.128C148.366 167.101 148.789 167.168 149.136 167.328C149.283 167.395 149.41 167.499 149.506 167.63C149.602 167.761 149.664 167.915 149.686 168.078C150.636 174.648 150.186 180.248 146.786 185.818C142.496 192.858 135.076 192.588 127.456 191.968C119.826 191.348 114.706 184.948 113.956 177.698C113.696 175.131 113.613 171.678 113.706 167.338C116.159 168.371 118.586 168.998 120.986 169.218C121.517 169.264 122.045 169.382 122.556 169.568L131.706 172.908C131.855 172.96 132.014 172.978 132.17 172.959C132.326 172.94 132.475 172.885 132.606 172.798C135.919 170.611 139.303 169.184 142.756 168.518C144.883 168.111 146.586 167.648 147.866 167.128Z" fill="#C68370"/>
<path d="M93.6559 254.138C80.4426 250.458 67.9692 244.651 56.2359 236.718C56.0814 236.608 55.8929 236.558 55.7059 236.578C55.6126 236.585 55.5092 236.588 55.3959 236.588C55.3853 236.585 55.3741 236.587 55.3647 236.592C55.3553 236.598 55.3486 236.607 55.3459 236.618C55.3433 236.628 55.3449 236.64 55.3506 236.649C55.3562 236.658 55.3653 236.665 55.3759 236.668L67.8559 245.288C67.8882 245.309 67.9127 245.34 67.9258 245.377C67.9389 245.413 67.9399 245.453 67.9287 245.49C67.9175 245.527 67.8946 245.56 67.8635 245.583C67.8323 245.606 67.7946 245.618 67.7559 245.618C67.0959 245.618 66.4259 245.488 65.7459 245.228L58.5059 240.778C55.7926 237.764 53.6426 234.608 52.0559 231.308C51.1426 224.474 51.9426 217.998 54.4559 211.878C54.9492 210.678 55.2792 209.484 55.4459 208.298C55.4598 208.207 55.4459 208.113 55.406 208.03C55.3661 207.947 55.3021 207.877 55.2222 207.831C55.1424 207.785 55.0505 207.763 54.9584 207.77C54.8663 207.776 54.7783 207.811 54.7059 207.868C53.3726 208.895 52.5292 210.135 52.1759 211.588C52.1523 211.701 52.0873 211.8 51.9937 211.868C51.9002 211.935 51.7848 211.964 51.6704 211.95C51.5561 211.937 51.4511 211.88 51.3762 211.793C51.3013 211.705 51.2619 211.593 51.2659 211.478C51.2526 209.625 51.7259 207.854 52.6859 206.168C55.9459 200.448 58.9759 194.761 61.7759 189.108C62.7259 187.178 64.3359 185.568 64.9159 183.218C65.4626 180.991 65.1392 179.221 63.9459 177.908C63.7195 177.668 63.5818 177.358 63.5559 177.028L63.4359 175.688C63.5426 176.088 63.7692 176.311 64.1159 176.358C64.2193 176.37 64.3236 176.348 64.4123 176.295C64.501 176.243 64.5691 176.163 64.6059 176.068L65.5359 173.788C65.5622 173.724 65.6032 173.667 65.6557 173.622C65.7081 173.576 65.7705 173.544 65.8377 173.528C65.905 173.511 65.9752 173.511 66.0426 173.526C66.1101 173.542 66.1729 173.573 66.2259 173.618C69.4526 176.365 71.2059 180.168 71.4859 185.028C71.9326 192.714 72.3926 198.651 72.8659 202.838C72.8991 203.136 72.889 203.443 72.8359 203.748C70.3659 218.208 68.3259 231.258 79.1559 242.708C80.1559 243.768 82.5626 245.701 86.3759 248.508C88.8159 250.308 91.2426 252.184 93.6559 254.138Z" fill="#E4B278"/>
<path d="M199.796 184.698C201.756 190.785 204.629 196.705 208.416 202.458C210.223 205.205 211.796 208.418 213.136 212.098C213.162 212.171 213.173 212.249 213.167 212.327C213.161 212.405 213.139 212.48 213.102 212.549C213.065 212.618 213.015 212.678 212.953 212.726C212.892 212.774 212.822 212.809 212.746 212.828L212.716 212.838C212.556 212.877 212.387 212.857 212.238 212.782C212.09 212.707 211.972 212.581 211.906 212.428C211.313 211.074 210.553 210.095 209.626 209.488C209.564 209.446 209.49 209.426 209.415 209.432C209.34 209.438 209.27 209.469 209.215 209.52C209.16 209.571 209.125 209.639 209.114 209.714C209.103 209.788 209.118 209.863 209.156 209.928L211.996 215.068C212.115 215.287 212.203 215.522 212.256 215.768C213.676 222.248 214.003 228.825 213.236 235.498L212.386 236.908L203.876 242.958C197.156 246.188 189.706 250.688 183.626 252.858C175.826 255.638 167.729 257.838 159.336 259.458C154.196 260.451 150.259 260.921 147.526 260.868C147.495 260.868 147.464 260.878 147.44 260.899C147.417 260.919 147.401 260.947 147.396 260.978L147.336 261.308C147.327 261.357 147.33 261.408 147.345 261.455C147.36 261.503 147.387 261.547 147.422 261.582C147.457 261.617 147.501 261.644 147.548 261.659C147.596 261.673 147.647 261.677 147.696 261.668C152.889 260.708 157.136 260.391 160.436 260.718C161.496 260.818 162.226 260.498 163.386 260.348C163.619 260.321 163.609 260.341 163.356 260.408C153.896 262.861 144.263 263.768 134.456 263.128C138.169 263.535 141.813 263.331 145.386 262.518C145.716 262.44 146.009 262.253 146.216 261.988C152.256 254.261 157.476 246.031 161.876 237.298C164.806 231.478 167.726 222.708 170.566 215.788C170.609 215.692 170.683 215.614 170.776 215.566C170.869 215.518 170.976 215.504 171.078 215.525C171.181 215.546 171.273 215.601 171.34 215.682C171.407 215.762 171.444 215.863 171.446 215.968L171.376 231.118C171.377 231.28 171.43 231.437 171.525 231.567C171.621 231.697 171.755 231.794 171.909 231.844C172.063 231.894 172.228 231.894 172.382 231.844C172.536 231.795 172.67 231.698 172.766 231.568C177.713 224.688 182.016 217.554 185.676 210.168C185.723 210.068 185.763 209.964 185.796 209.858L190.466 194.408C190.518 194.241 190.629 194.097 190.777 194.004C190.926 193.91 191.103 193.872 191.276 193.898C191.448 193.924 191.605 194.01 191.717 194.143C191.829 194.275 191.889 194.444 191.886 194.618L191.836 205.928C191.834 206.016 191.863 206.103 191.919 206.171C191.974 206.24 192.053 206.287 192.14 206.302C192.227 206.318 192.317 206.302 192.393 206.257C192.47 206.212 192.527 206.142 192.556 206.058C195.226 198.708 198.086 190.978 198.096 183.548C198.099 183.442 198.136 183.339 198.201 183.256C198.267 183.173 198.358 183.113 198.461 183.086C198.564 183.059 198.672 183.066 198.77 183.106C198.869 183.146 198.951 183.217 199.006 183.308L199.796 184.698ZM208.026 239.548C208.026 239.516 208.013 239.485 207.991 239.463C207.968 239.44 207.938 239.428 207.906 239.428C207.874 239.428 207.844 239.44 207.821 239.463C207.799 239.485 207.786 239.516 207.786 239.548C207.786 239.58 207.799 239.61 207.821 239.633C207.844 239.655 207.874 239.668 207.906 239.668C207.938 239.668 207.968 239.655 207.991 239.633C208.013 239.61 208.026 239.58 208.026 239.548Z" fill="#CD7839"/>
<path d="M250.116 192.218C246.123 200.345 241.139 207.841 235.166 214.708C239.293 206.675 244.276 199.178 250.116 192.218Z" fill="#E5CBAC"/>
<path d="M91.5058 231.788C91.5322 231.919 91.5148 232.055 91.4564 232.175C91.3981 232.295 91.3019 232.393 91.1826 232.453C91.0634 232.513 90.9278 232.532 90.7965 232.508C90.6652 232.484 90.5455 232.417 90.4558 232.318C82.8558 223.878 78.2258 210.908 79.5858 199.368C79.596 199.285 79.6286 199.206 79.6801 199.14C79.7317 199.074 79.8002 199.024 79.8784 198.994C79.9566 198.964 80.0415 198.956 80.1238 198.971C80.2062 198.986 80.2829 199.023 80.3458 199.078C89.0158 206.728 89.3258 221.348 91.5058 231.788Z" fill="#E9C285"/>
<path d="M96.7761 221.158C96.761 221.087 96.7722 221.013 96.8076 220.949C96.843 220.886 96.9002 220.837 96.9686 220.813C97.037 220.789 97.112 220.79 97.1796 220.816C97.2471 220.843 97.3027 220.893 97.3361 220.958C102.196 229.218 108.736 236.558 109.716 246.508C109.731 246.669 109.695 246.831 109.614 246.97C109.532 247.11 109.41 247.221 109.262 247.288C109.115 247.355 108.951 247.375 108.792 247.344C108.633 247.314 108.488 247.235 108.376 247.118C101.716 240.078 98.1461 230.238 96.7761 221.158Z" fill="#E9C285"/>
<path d="M58.5056 240.778L52.1856 236.448C52.1407 236.418 52.1037 236.378 52.0779 236.33C52.0521 236.283 52.0381 236.229 52.0372 236.175C52.0362 236.12 52.0482 236.065 52.0723 236.016C52.0964 235.966 52.1318 235.922 52.1756 235.888C52.709 235.488 52.7123 234.761 52.1856 233.708L52.0556 231.308C53.6423 234.608 55.7923 237.764 58.5056 240.778Z" fill="#DBB788"/>
<path d="M212.386 236.908C210.386 240.235 207.549 242.251 203.876 242.958L212.386 236.908Z" fill="#B58D6B"/>
<path d="M122.816 258.478C122.636 259.598 122.719 260.475 123.066 261.108C123.134 261.233 123.175 261.371 123.186 261.513C123.197 261.655 123.178 261.798 123.13 261.932C123.081 262.066 123.005 262.189 122.907 262.292C122.808 262.394 122.688 262.475 122.556 262.528L122.186 262.668C122.08 262.71 121.966 262.731 121.852 262.729C121.737 262.727 121.624 262.703 121.519 262.657C121.414 262.612 121.319 262.546 121.24 262.464C121.16 262.382 121.098 262.284 121.056 262.178L119.346 257.858C116.606 251.758 114.746 245.608 113.766 239.408C113.748 239.314 113.764 239.218 113.81 239.135C113.856 239.053 113.93 238.989 114.02 238.955C114.109 238.921 114.209 238.918 114.301 238.948C114.393 238.978 114.473 239.038 114.526 239.118C118.419 245.031 121.183 251.485 122.816 258.478Z" fill="#F5C470"/>
<path d="M207.906 239.668C207.972 239.668 208.026 239.614 208.026 239.548C208.026 239.482 207.972 239.428 207.906 239.428C207.84 239.428 207.786 239.482 207.786 239.548C207.786 239.614 207.84 239.668 207.906 239.668Z" fill="#CF8D45"/>
</svg>
