<svg width="266" height="264" viewBox="0 0 266 264" fill="none" xmlns="http://www.w3.org/2000/svg">
<path d="M245.338 63.4118C245.271 63.5851 245.258 63.7285 245.298 63.8419C229.448 57.9919 219.598 44.8618 209.398 32.1718C209.3 32.0524 209.173 31.9596 209.03 31.9019C208.887 31.8442 208.731 31.8236 208.578 31.8419C206.091 32.1485 203.968 32.8452 202.208 33.9318C196.295 37.5918 190.878 42.3618 185.958 48.2418C176.788 54.3018 169.618 60.4518 161.438 66.6818C156.765 66.0952 152.098 65.4218 147.438 64.6618C145.858 64.4085 144.375 64.2385 142.988 64.1518C141.355 64.0518 139.868 63.9718 138.528 63.9118C134.188 63.3985 129.871 63.3884 125.578 63.8818L111.988 65.1017C108.568 65.7884 105.128 66.0051 101.668 65.7518C91.2079 58.2618 80.5379 49.2918 70.2279 43.3718C66.2546 41.0918 62.3346 38.7151 58.4679 36.2418C58.243 36.0973 57.9819 36.0193 57.7146 36.0167C57.4473 36.014 57.1846 36.0869 56.9569 36.2269C56.7292 36.3669 56.5455 36.5682 56.4272 36.8079C56.3089 37.0476 56.2606 37.3159 56.2879 37.5818L56.3679 38.3218C43.6879 51.1552 35.4046 59.1918 31.5179 62.4318C28.8979 64.6218 20.5279 72.5918 17.3779 67.1618C30.9246 43.7351 49.1746 26.2984 72.1279 14.8517C92.5546 4.67174 113.431 -0.27489 134.758 0.0117771C155.725 0.298444 176.081 5.73517 195.828 16.3218C216.675 27.5018 233.178 43.1985 245.338 63.4118Z" fill="#EDD7B6"/>
<path d="M245.298 63.8418C253.828 76.8018 259.408 92.4318 262.238 107.572C262.218 112.842 261.828 121.342 256.078 122.212C246.298 123.712 235.658 125.962 226.488 126.372C220.915 126.625 215.301 126.532 209.648 126.092C207.835 119.258 205.378 113.155 202.278 107.782C201.858 106.522 201.718 105.638 201.858 105.132C204.871 94.185 206.828 82.9984 207.728 71.5718C209.361 61.7051 209.281 51.8385 207.488 41.9718C207.435 41.7063 207.418 41.4371 207.438 41.1717L207.618 38.3617C207.626 38.2446 207.604 38.1275 207.556 38.0206C207.508 37.9137 207.435 37.8203 207.343 37.749C207.251 37.6777 207.143 37.6305 207.029 37.6118C206.914 37.5931 206.797 37.6034 206.688 37.6417C198.935 40.355 192.025 43.8883 185.958 48.2417C190.878 42.3617 196.295 37.5917 202.208 33.9317C203.968 32.8451 206.091 32.1484 208.578 31.8418C208.731 31.8235 208.887 31.8442 209.03 31.9018C209.174 31.9595 209.3 32.0523 209.398 32.1717C219.598 44.8617 229.448 57.9918 245.298 63.8418Z" fill="#E5CBAC"/>
<path d="M101.668 65.7517L103.978 68.8616C104.121 69.0543 104.222 69.2734 104.277 69.5054C104.332 69.7375 104.339 69.9778 104.298 70.2117L103.848 72.6817C103.808 72.9002 103.708 73.1033 103.559 73.2687C103.411 73.4342 103.22 73.5557 103.007 73.6197C102.794 73.6837 102.568 73.688 102.353 73.6319C102.138 73.5758 101.943 73.4615 101.788 73.3017C95.7216 66.9484 89.6683 61.265 83.6283 56.2517C78.7949 52.2383 73.7749 48.7251 68.5683 45.7117C68.2825 45.5456 67.9773 45.4114 67.6583 45.3117C57.9283 42.3017 55.8583 49.5717 55.8283 57.8817C55.7883 67.3817 57.2783 75.1917 61.0083 84.9417C63.5749 91.6817 65.7449 97.165 67.5183 101.392C67.585 101.549 67.5977 101.725 67.5544 101.893C67.5111 102.061 67.4142 102.211 67.2783 102.322L62.9283 105.802C60.4683 98.5817 58.8716 93.3051 58.1383 89.9717C57.3049 86.2117 56.2483 79.4383 54.9683 69.6517C53.5816 59.045 54.1016 49.2717 56.5283 40.3317C56.653 39.8797 56.6564 39.4037 56.5383 38.9517L56.3683 38.3217L56.2883 37.5817C56.2609 37.3158 56.3092 37.0475 56.4275 36.8078C56.5459 36.5681 56.7295 36.3667 56.9572 36.2268C57.185 36.0868 57.4476 36.0139 57.7149 36.0165C57.9822 36.0192 58.2434 36.0972 58.4683 36.2416C62.3349 38.715 66.2549 41.0917 70.2283 43.3717C80.5383 49.2917 91.2083 58.2617 101.668 65.7517Z" fill="#73572D"/>
<path d="M207.728 71.5717C206.948 73.885 206.091 74.9517 205.158 74.7717C207.298 66.4117 207.668 58.0216 206.268 49.6016C206.055 48.3416 205.071 46.7951 203.318 44.9617C203.064 44.7009 202.741 44.5201 202.388 44.4417C197.778 43.4117 191.288 47.9917 187.448 50.9317C180.021 56.6317 171.981 63.9016 163.328 72.7416C163.059 73.0142 162.701 73.1813 162.32 73.2125C161.938 73.2437 161.558 73.1369 161.248 72.9117L159.218 71.4217C159.066 71.3118 158.939 71.1711 158.844 71.0087C158.75 70.8463 158.69 70.6657 158.669 70.4785C158.649 70.2912 158.667 70.1014 158.724 69.9212C158.78 69.741 158.874 69.5742 158.998 69.4317L161.438 66.6817C169.618 60.4517 176.788 54.3016 185.958 48.2416C192.025 43.8883 198.935 40.355 206.688 37.6417C206.797 37.6033 206.914 37.593 207.029 37.6118C207.143 37.6305 207.251 37.6776 207.343 37.749C207.435 37.8203 207.509 37.9136 207.557 38.0206C207.605 38.1275 207.626 38.2446 207.618 38.3616L207.438 41.1717C207.418 41.437 207.435 41.7062 207.488 41.9717C209.281 51.8384 209.361 61.705 207.728 71.5717Z" fill="#693623"/>
<path d="M56.3681 38.3218L56.5381 38.9518C56.6562 39.4037 56.6528 39.8798 56.5281 40.3318C54.1014 49.2718 53.5814 59.0451 54.9681 69.6517C56.2481 79.4384 57.3047 86.2118 58.1381 89.9718C58.8714 93.3051 60.4681 98.5818 62.9281 105.802L62.5981 107.162C62.5582 107.314 62.5011 107.459 62.4281 107.592C55.4181 120.032 49.8981 135.612 51.3081 149.942L51.6581 151.762L53.5181 160.362C47.4448 164.582 41.2048 168.475 34.7981 172.042C27.2081 176.262 21.0881 181.302 20.4381 190.482C20.1581 194.428 20.6047 199.088 21.7781 204.462C21.7314 204.382 21.6847 204.305 21.6381 204.232C17.9314 195.398 13.6081 186.882 8.66808 178.682L8.31807 177.422C0.144738 155.488 -2.00526 132.975 1.86807 109.882C4.26807 97.1084 8.34141 84.8784 14.0881 73.1918L17.3781 67.1617C20.5281 72.5917 28.8981 64.6218 31.5181 62.4318C35.4048 59.1918 43.6881 51.1551 56.3681 38.3218Z" fill="#E5CBAC"/>
<path d="M205.158 74.7718C202.398 83.2318 200.038 91.5518 196.048 99.7418C195.983 99.879 195.958 100.032 195.978 100.183C195.997 100.334 196.06 100.476 196.158 100.592L202.278 107.782C205.378 113.155 207.835 119.259 209.648 126.092C211.421 132.385 212.698 139.018 213.478 145.992L212.178 150.122C212.365 148.522 211.931 147.145 210.878 145.992C206.865 141.612 203.965 138.025 202.178 135.232C199.945 131.725 197.655 128.259 195.308 124.832C191.858 119.822 185.148 117.322 179.198 116.412L175.888 114.582C177.801 114.269 179.451 113.605 180.838 112.592C180.945 112.514 181.035 112.415 181.102 112.302C181.17 112.188 181.213 112.062 181.23 111.931C181.247 111.799 181.237 111.666 181.2 111.539C181.164 111.412 181.102 111.294 181.018 111.192C176.808 106.082 168.338 104.942 162.428 108.082C162.369 108.114 162.302 108.125 162.236 108.116C162.17 108.106 162.109 108.075 162.062 108.028C162.014 107.981 161.984 107.92 161.974 107.854C161.964 107.788 161.976 107.721 162.008 107.662C164.095 103.855 163.741 99.9918 160.948 96.0718C160.827 95.9049 160.658 95.7785 160.464 95.7094C160.27 95.6403 160.059 95.6318 159.86 95.6849C159.66 95.7379 159.482 95.8501 159.348 96.0067C159.214 96.1632 159.13 96.3568 159.108 96.5618L158.498 102.362L158.248 97.6318C158.199 96.7719 157.924 95.94 157.45 95.22C156.976 94.5001 156.32 93.9177 155.548 93.5318L154.708 93.1118C154.387 92.9532 154.031 92.8775 153.673 92.8913C153.316 92.9051 152.967 93.0081 152.659 93.1909C152.351 93.3736 152.093 93.6304 151.91 93.9379C151.726 94.2455 151.623 94.594 151.608 94.9518L151.318 101.982L149.728 91.2618C149.712 91.1564 149.675 91.0553 149.619 90.9651C149.563 90.875 149.49 90.7976 149.403 90.7382C149.316 90.6788 149.218 90.6386 149.116 90.6203C149.013 90.602 148.908 90.6059 148.808 90.6318C148.768 90.6451 148.698 90.8385 148.598 91.2119C148.408 87.1119 146.448 83.7518 146.968 79.1718C147.768 72.2185 148.391 67.8885 148.838 66.1818C148.89 65.988 148.87 65.782 148.782 65.6019C148.693 65.4217 148.543 65.2796 148.358 65.2018C146.998 64.6218 145.908 64.7419 145.048 66.3419C142.018 71.9219 142.048 77.9218 144.088 83.5618C144.978 86.0418 144.908 88.4518 143.938 90.3818C142.258 93.7284 141.148 97.0751 140.608 100.422C140.59 100.529 140.596 100.64 140.626 100.744C140.657 100.849 140.711 100.946 140.784 101.027C140.857 101.108 140.948 101.171 141.049 101.211C141.15 101.252 141.259 101.269 141.368 101.262C141.415 101.262 141.505 101.202 141.638 101.082C141.718 101.015 141.788 100.925 141.848 100.812C142.595 99.3918 143.558 98.2418 144.738 97.3618C145.338 98.2884 145.595 99.3985 145.508 100.692C145.381 102.585 145.338 103.748 145.378 104.182C145.831 109.515 145.345 114.958 143.918 120.512C142.925 124.385 143.275 128.529 144.968 132.942C145.068 133.195 145.275 133.409 145.588 133.582C145.961 133.795 146.255 133.812 146.468 133.632C146.535 135.258 147.031 136.662 147.958 137.842C148.02 137.923 148.105 137.983 148.203 138.013C148.3 138.043 148.405 138.042 148.501 138.011C148.598 137.979 148.683 137.917 148.743 137.835C148.803 137.753 148.837 137.654 148.838 137.552C148.865 136.878 149.031 136.358 149.338 135.992C154.558 135.938 158.005 135.805 159.678 135.592C164.185 135.005 168.235 133.432 171.828 130.872C174.708 128.822 176.788 126.022 179.178 122.912C179.838 122.045 180.471 121.892 181.078 122.452C181.28 122.634 181.528 122.749 181.788 122.782C183.961 123.055 185.908 123.752 187.628 124.872L189.268 127.082C186.195 129.915 184.245 131.678 183.418 132.372C177.971 136.918 172.041 139.815 165.628 141.062C163.555 141.468 161.225 141.298 158.638 140.552C154.625 139.405 152.381 138.702 151.908 138.442C151.798 138.381 151.67 138.358 151.545 138.377C151.42 138.396 151.306 138.456 151.219 138.548C151.132 138.639 151.078 138.757 151.065 138.883C151.052 139.008 151.081 139.135 151.148 139.242C151.355 139.588 151.788 140.002 152.448 140.482C157.068 143.822 163.618 147.082 169.998 147.332C165.125 147.465 160.341 148.105 155.648 149.252L148.358 145.752C148.082 145.622 147.77 145.593 147.476 145.672C147.183 145.751 146.928 145.932 146.758 146.182L144.658 149.252C143.205 147.025 141.041 145.872 138.168 145.792C133.475 145.665 128.771 145.815 124.058 146.242C120.848 146.532 119.748 147.862 119.938 150.992C118.051 148.612 115.918 146.832 113.538 145.652L102.668 144.922C104.075 144.315 105.448 143.702 106.788 143.082C107.188 142.895 107.428 142.615 107.508 142.242C107.519 142.186 107.517 142.128 107.502 142.074C107.487 142.019 107.459 141.968 107.422 141.925C107.384 141.883 107.337 141.849 107.284 141.828C107.232 141.807 107.175 141.798 107.118 141.802L101.938 142.272C101.521 142.305 101.102 142.271 100.698 142.172C98.078 141.538 95.4747 140.679 92.888 139.592C91.488 139.005 89.3647 137.648 86.518 135.522C82.898 132.822 79.128 130.445 75.208 128.392C76.6747 126.538 78.6247 124.752 81.058 123.032C82.8313 121.772 83.608 120.502 83.388 119.222C84.0147 119.209 84.788 119.022 85.708 118.662C85.1813 122.022 85.778 124.825 87.498 127.072C91.698 132.542 97.108 134.512 104.818 136.182C105.865 136.408 108.181 136.205 111.768 135.572C111.898 135.546 112.032 135.563 112.148 135.622L112.498 135.802C112.64 135.871 112.802 135.89 112.956 135.855C113.111 135.821 113.249 135.735 113.348 135.612L113.778 135.092C113.971 136.785 114.508 137.608 115.388 137.562C115.457 137.558 115.525 137.541 115.587 137.51C115.649 137.479 115.704 137.435 115.748 137.382L117.998 134.662C119.138 134.742 119.841 133.578 120.108 131.172C120.488 127.758 120.605 124.258 120.458 120.672C120.391 119.132 119.821 117.075 118.748 114.502C118.609 114.158 118.528 113.796 118.508 113.432C118.348 109.992 118.535 106.568 119.068 103.162C119.221 102.155 118.591 100.325 117.178 97.6718L116.248 93.6918L121.978 100.092C122.062 100.192 122.178 100.26 122.307 100.284C122.436 100.308 122.569 100.286 122.683 100.221C122.797 100.157 122.885 100.055 122.932 99.9328C122.978 99.8105 122.98 99.6757 122.938 99.5518C121.965 96.4118 121.081 93.9085 120.288 92.0418C117.658 85.8818 119.708 81.4118 120.438 76.4318C120.878 73.4052 120.351 70.1685 118.858 66.7219C118.108 64.9719 116.678 64.9919 115.008 65.2219L111.988 65.1017L125.578 63.8818C125.645 65.3284 125.881 66.8351 126.288 68.4018C126.828 70.4818 127.161 71.9684 127.288 72.8618C128.428 80.6951 129.101 88.1651 129.308 95.2718C129.375 97.5718 130.095 99.8885 131.468 102.222C131.531 102.328 131.624 102.413 131.736 102.467C131.847 102.52 131.972 102.54 132.093 102.523C132.215 102.506 132.328 102.452 132.418 102.37C132.508 102.288 132.57 102.181 132.598 102.062C133.708 97.5618 134.498 94.2918 134.808 89.6318C135.441 80.1451 135.875 74.5318 136.108 72.7918C136.295 71.3585 137.101 68.3985 138.528 63.9118C139.868 63.9718 141.355 64.0518 142.988 64.1518C144.375 64.2385 145.858 64.4085 147.438 64.6618C152.098 65.4218 156.765 66.0952 161.438 66.6818L158.998 69.4318C158.874 69.5743 158.78 69.7411 158.724 69.9213C158.667 70.1016 158.649 70.2913 158.669 70.4786C158.69 70.6658 158.749 70.8464 158.844 71.0088C158.938 71.1713 159.066 71.3119 159.218 71.4218L161.248 72.9118C161.558 73.1371 161.938 73.2438 162.32 73.2126C162.701 73.1814 163.059 73.0143 163.328 72.7418C171.981 63.9018 180.021 56.6318 187.448 50.9318C191.288 47.9918 197.778 43.4118 202.388 44.4418C202.741 44.5202 203.064 44.701 203.318 44.9619C205.071 46.7952 206.055 48.3417 206.268 49.6017C207.668 58.0217 207.298 66.4118 205.158 74.7718ZM194.548 90.1818L187.058 86.4619C187.04 86.4524 187.024 86.4385 187.012 86.4216C186.999 86.4047 186.992 86.3851 186.989 86.3646C186.986 86.344 186.988 86.323 186.995 86.3034C187.002 86.2838 187.013 86.2661 187.028 86.2518L196.708 77.2618C196.747 77.2238 196.774 77.1754 196.786 77.1224C196.798 77.0693 196.794 77.014 196.775 76.9631C196.756 76.9122 196.722 76.8679 196.678 76.8358C196.635 76.8036 196.582 76.7848 196.528 76.7818L188.908 76.3718C188.857 76.3677 188.807 76.3492 188.766 76.3181C188.725 76.2869 188.694 76.2446 188.676 76.1962C188.658 76.1478 188.654 76.0953 188.665 76.0449C188.676 75.9945 188.702 75.9483 188.738 75.9118L199.328 66.0818C199.373 66.0411 199.407 65.9893 199.426 65.9316C199.445 65.8739 199.448 65.8121 199.436 65.7526C199.424 65.6931 199.397 65.6377 199.357 65.592C199.317 65.5462 199.265 65.5117 199.208 65.4918C196.288 64.3818 195.318 65.3018 193.098 65.5218C193 65.5304 192.901 65.5113 192.813 65.4666C192.724 65.4219 192.651 65.3536 192.601 65.2696C192.55 65.1856 192.525 65.0895 192.528 64.9925C192.531 64.8955 192.562 64.8016 192.618 64.7219C193.118 63.9752 195.135 61.2885 198.668 56.6618C200.075 54.8218 201.181 52.2985 201.988 49.0919C202.027 48.9333 202.019 48.767 201.966 48.6127C201.913 48.4585 201.816 48.3228 201.688 48.2219C200.755 47.4752 199.758 47.3818 198.698 47.9418C187.718 53.7818 178.858 62.0884 172.118 72.8618C171.578 73.7218 171.055 74.9418 170.548 76.5218C170.477 76.7391 170.482 76.9737 170.562 77.1866C170.642 77.3995 170.793 77.5778 170.988 77.6918C178.768 82.2252 185.681 87.9718 191.728 94.9318C191.796 95.0114 191.882 95.0734 191.978 95.1127C192.075 95.152 192.18 95.1675 192.284 95.1577C192.388 95.1478 192.488 95.1131 192.576 95.0563C192.664 94.9996 192.736 94.9227 192.788 94.8318L194.868 91.2418C194.92 91.1519 194.953 91.0524 194.965 90.9494C194.976 90.8464 194.967 90.7419 194.937 90.6426C194.907 90.5433 194.857 90.4513 194.79 90.372C194.723 90.2928 194.641 90.228 194.548 90.1818Z" fill="#B97E51"/>
<path d="M101.668 65.7517C105.128 66.005 108.568 65.7883 111.988 65.1016L115.008 65.2217C114.715 65.3551 114.485 65.5117 114.318 65.6917C114.278 65.7383 114.249 65.7931 114.233 65.8521C114.217 65.9111 114.216 65.9726 114.228 66.0317L117.068 80.4017C117.12 80.6568 117.103 80.9195 117.018 81.1617C116.448 82.7517 116.648 84.1317 115.998 85.7717C114.758 88.9317 114.278 90.9017 116.248 93.6917L117.178 97.6717C116.625 96.1784 115.975 95.1484 115.228 94.5817C115.088 94.4763 114.922 94.4099 114.748 94.3895C114.574 94.3691 114.398 94.3953 114.237 94.4655C114.076 94.5357 113.937 94.6474 113.833 94.789C113.73 94.9307 113.666 95.0972 113.648 95.2717L112.988 101.962C112.755 100.442 112.748 98.9384 112.968 97.4517C113.258 95.4817 113.008 94.8117 112.038 93.5517C111.935 93.4139 111.801 93.3027 111.647 93.227C111.493 93.1513 111.322 93.1134 111.15 93.1163C110.977 93.1192 110.807 93.163 110.654 93.2438C110.501 93.3247 110.369 93.4405 110.268 93.5817L105.508 100.272L105.348 95.5817C105.345 95.4823 105.314 95.3856 105.26 95.3024C105.205 95.2193 105.129 95.1528 105.039 95.1104C104.949 95.068 104.849 95.0513 104.75 95.0621C104.651 95.0729 104.557 95.1108 104.478 95.1717C100.918 97.9717 99.8682 101.718 101.328 106.412C101.349 106.483 101.355 106.559 101.344 106.632C101.333 106.706 101.306 106.776 101.264 106.838C101.223 106.899 101.169 106.95 101.105 106.987C101.042 107.024 100.971 107.046 100.898 107.052C100.758 107.065 99.2815 106.955 96.4682 106.722C92.8682 106.412 87.2882 106.662 85.0882 109.832C84.939 110.046 84.855 110.299 84.8461 110.561C84.8372 110.824 84.9039 111.084 85.0382 111.312C85.9248 112.812 87.1982 113.718 88.8582 114.032C86.7315 115.158 83.1582 116.505 78.1382 118.072C72.8882 119.712 69.7782 123.662 66.2882 129.282C62.3415 135.642 57.5382 141.915 51.8782 148.102C51.5515 148.455 51.3615 149.068 51.3082 149.942C49.8982 135.612 55.4182 120.032 62.4282 107.592C62.5012 107.459 62.5583 107.314 62.5982 107.162L62.9282 105.802L67.2782 102.322C67.4141 102.211 67.511 102.061 67.5543 101.893C67.5976 101.725 67.5849 101.549 67.5182 101.392C65.7449 97.165 63.5748 91.6817 61.0082 84.9417C57.2782 75.1917 55.7882 67.3817 55.8282 57.8817C55.8582 49.5717 57.9282 42.3017 67.6582 45.3117C67.9772 45.4114 68.2824 45.5456 68.5682 45.7117C73.7748 48.7251 78.7948 52.2383 83.6282 56.2517C89.6682 61.265 95.7215 66.9484 101.788 73.3017C101.943 73.4615 102.138 73.5758 102.353 73.6319C102.568 73.688 102.794 73.6837 103.007 73.6197C103.22 73.5556 103.411 73.4342 103.559 73.2687C103.708 73.1033 103.808 72.9002 103.848 72.6817L104.298 70.2117C104.339 69.9778 104.332 69.7375 104.277 69.5054C104.222 69.2734 104.12 69.0543 103.978 68.8616L101.668 65.7517ZM65.4782 65.0717C68.3515 69.1251 71.7582 72.3517 75.6982 74.7517C75.7337 74.7725 75.7619 74.8038 75.779 74.8414C75.796 74.8789 75.8011 74.9209 75.7934 74.9614C75.7857 75.0019 75.7658 75.039 75.7362 75.0677C75.7066 75.0964 75.6689 75.1152 75.6282 75.1216L68.1582 76.6016C68.0833 76.6157 68.0133 76.6485 67.9545 76.697C67.8957 76.7455 67.8499 76.8081 67.8211 76.8795C67.7924 76.9508 67.7816 77.0286 67.7899 77.1058C67.7981 77.183 67.825 77.2572 67.8682 77.3217C69.9748 80.3551 72.6248 82.6583 75.8182 84.2316C75.9026 84.2725 75.9728 84.3378 76.0198 84.4189C76.0668 84.5 76.0885 84.5934 76.0821 84.687C76.0756 84.7805 76.0413 84.87 75.9836 84.9439C75.9259 85.0178 75.8474 85.0727 75.7582 85.1016L73.2982 85.9517C73.2016 85.9846 73.1154 86.0436 73.0486 86.1227C72.9818 86.2019 72.9367 86.2982 72.9182 86.4017L72.7382 87.4117C72.6731 87.7636 72.5057 88.0845 72.2582 88.3317L69.3082 91.2717C69.0803 91.4993 68.9211 91.7868 68.8486 92.1015C68.7761 92.4162 68.7933 92.7454 68.8982 93.0517L69.8882 95.9217C69.9278 96.0331 69.9935 96.1334 70.0798 96.2141C70.166 96.2947 70.2702 96.3534 70.3833 96.3848C70.4964 96.4163 70.6152 96.4198 70.7292 96.3948C70.8433 96.3699 70.9493 96.3173 71.0382 96.2416C72.8782 94.715 76.1582 91.7516 80.8782 87.3516C84.4115 84.0583 88.6082 80.8884 93.4682 77.8417C93.6828 77.7047 93.8369 77.491 93.8984 77.2452C93.9598 76.9993 93.9239 76.7402 93.7982 76.5217C87.0515 65.0683 78.1582 55.8317 67.1182 48.8117C65.8682 48.0217 63.7582 46.7217 62.4482 47.5817C61.1182 48.4617 60.5482 49.6717 61.4982 51.2017C64.7382 56.4151 68.3515 61.1483 72.3382 65.4017C72.3798 65.4495 72.4057 65.509 72.4125 65.5721C72.4193 65.6351 72.4065 65.6987 72.376 65.7543C72.3455 65.8099 72.2987 65.8549 72.2418 65.883C72.185 65.9111 72.1209 65.9211 72.0582 65.9117L65.6782 64.7617C65.6394 64.7548 65.5994 64.7595 65.5633 64.7752C65.5271 64.791 65.4964 64.817 65.4751 64.8502C65.4537 64.8833 65.4426 64.922 65.4432 64.9614C65.4437 65.0008 65.4559 65.0392 65.4782 65.0717Z" fill="#B58D6B"/>
<path d="M65.4781 65.0718C65.4558 65.0393 65.4436 65.0009 65.4431 64.9615C65.4425 64.9221 65.4536 64.8834 65.475 64.8503C65.4964 64.8171 65.5271 64.7911 65.5632 64.7753C65.5993 64.7596 65.6393 64.7549 65.6781 64.7618L72.0581 65.9118C72.1208 65.9212 72.1849 65.9112 72.2418 65.8831C72.2986 65.855 72.3454 65.81 72.376 65.7544C72.4065 65.6988 72.4192 65.6352 72.4124 65.5722C72.4057 65.5091 72.3797 65.4496 72.3381 65.4018C68.3514 61.1484 64.7381 56.4152 61.4981 51.2018C60.5481 49.6718 61.1181 48.4618 62.4481 47.5818C63.7581 46.7218 65.8681 48.0218 67.1181 48.8118C78.1581 55.8318 87.0515 65.0684 93.7981 76.5218C93.9239 76.7403 93.9598 76.9994 93.8983 77.2453C93.8368 77.4911 93.6828 77.7048 93.4681 77.8418C88.6081 80.8885 84.4114 84.0584 80.8781 87.3517C76.1581 91.7517 72.8781 94.7151 71.0381 96.2417C70.9493 96.3174 70.8432 96.37 70.7292 96.3949C70.6151 96.4199 70.4964 96.4164 70.3832 96.3849C70.2701 96.3535 70.166 96.2948 70.0797 96.2142C69.9935 96.1335 69.9277 96.0332 69.8881 95.9218L68.8981 93.0518C68.7932 92.7455 68.776 92.4163 68.8485 92.1016C68.921 91.7869 69.0802 91.4994 69.3081 91.2718L72.2581 88.3318C72.5057 88.0846 72.6731 87.7637 72.7381 87.4118L72.9181 86.4018C72.9367 86.2983 72.9817 86.202 73.0485 86.1228C73.1154 86.0437 73.2015 85.9847 73.2981 85.9518L75.7581 85.1017C75.8473 85.0728 75.9258 85.0179 75.9835 84.944C76.0412 84.8701 76.0755 84.7806 76.082 84.6871C76.0884 84.5935 76.0668 84.5001 76.0197 84.419C75.9727 84.3379 75.9025 84.2726 75.8181 84.2317C72.6248 82.6584 69.9748 80.3552 67.8681 77.3218C67.8249 77.2573 67.798 77.1831 67.7898 77.1059C67.7816 77.0287 67.7923 76.9509 67.8211 76.8796C67.8498 76.8082 67.8956 76.7455 67.9545 76.6971C68.0133 76.6486 68.0833 76.6158 68.1581 76.6017L75.6281 75.1217C75.6688 75.1153 75.7065 75.0965 75.7361 75.0678C75.7657 75.0391 75.7857 75.002 75.7933 74.9615C75.801 74.921 75.796 74.879 75.7789 74.8415C75.7619 74.8039 75.7337 74.7726 75.6981 74.7518C71.7581 72.3518 68.3514 69.1252 65.4781 65.0718Z" fill="#E5CBAC"/>
<path d="M194.548 90.1818C194.641 90.228 194.723 90.2927 194.79 90.372C194.857 90.4512 194.907 90.5433 194.937 90.6426C194.967 90.7419 194.976 90.8463 194.964 90.9493C194.952 91.0524 194.92 91.1518 194.868 91.2417L192.788 94.8318C192.736 94.9226 192.663 94.9996 192.576 95.0563C192.488 95.113 192.388 95.1478 192.284 95.1576C192.18 95.1674 192.075 95.152 191.978 95.1127C191.881 95.0734 191.796 95.0113 191.728 94.9318C185.681 87.9718 178.768 82.2251 170.988 77.6918C170.792 77.5778 170.642 77.3994 170.562 77.1865C170.482 76.9736 170.477 76.739 170.548 76.5217C171.054 74.9417 171.578 73.7217 172.118 72.8617C178.858 62.0884 187.718 53.7818 198.698 47.9418C199.758 47.3818 200.754 47.4751 201.688 48.2218C201.816 48.3227 201.913 48.4584 201.966 48.6127C202.019 48.7669 202.027 48.9333 201.988 49.0918C201.181 52.2985 200.074 54.8217 198.668 56.6617C195.134 61.2884 193.118 63.9751 192.618 64.7218C192.562 64.8015 192.531 64.8954 192.528 64.9924C192.525 65.0895 192.55 65.1856 192.6 65.2695C192.651 65.3535 192.724 65.4219 192.812 65.4666C192.9 65.5112 193 65.5303 193.098 65.5217C195.318 65.3017 196.288 64.3817 199.208 65.4917C199.265 65.5117 199.316 65.5462 199.356 65.5919C199.396 65.6377 199.424 65.693 199.436 65.7526C199.448 65.8121 199.444 65.8738 199.425 65.9315C199.406 65.9892 199.373 66.041 199.328 66.0818L188.738 75.9117C188.701 75.9483 188.676 75.9944 188.665 76.0448C188.654 76.0952 188.658 76.1478 188.676 76.1962C188.693 76.2446 188.725 76.2869 188.766 76.318C188.807 76.3491 188.856 76.3677 188.908 76.3717L196.528 76.7817C196.582 76.7848 196.634 76.8035 196.678 76.8357C196.722 76.8679 196.755 76.9121 196.774 76.963C196.794 77.0139 196.797 77.0693 196.786 77.1223C196.774 77.1754 196.747 77.2238 196.708 77.2617L187.028 86.2517C187.013 86.266 187.001 86.2837 186.994 86.3033C186.988 86.323 186.986 86.3439 186.989 86.3645C186.991 86.3851 186.999 86.4046 187.011 86.4215C187.023 86.4384 187.039 86.4523 187.058 86.4618L194.548 90.1818Z" fill="#E5CBAC"/>
<path d="M138.528 63.9117C137.101 68.3984 136.295 71.3584 136.108 72.7917C135.875 74.5317 135.441 80.145 134.808 89.6317C134.498 94.2917 133.708 97.5617 132.598 102.062C132.571 102.181 132.508 102.288 132.418 102.37C132.328 102.452 132.215 102.505 132.093 102.523C131.972 102.54 131.847 102.52 131.736 102.467C131.624 102.413 131.531 102.328 131.468 102.222C130.095 99.8884 129.375 97.5717 129.308 95.2717C129.101 88.165 128.428 80.695 127.288 72.8617C127.161 71.9683 126.828 70.4817 126.288 68.4017C125.881 66.835 125.645 65.3283 125.578 63.8817C129.871 63.3883 134.188 63.3984 138.528 63.9117Z" fill="#966841"/>
<path d="M148.598 91.2118C148.348 93.6818 146.338 95.6117 144.738 97.3617C143.558 98.2417 142.595 99.3917 141.848 100.812C141.788 100.925 141.718 101.015 141.638 101.082C141.505 101.202 141.415 101.262 141.368 101.262C141.259 101.269 141.15 101.252 141.049 101.211C140.948 101.171 140.857 101.107 140.784 101.027C140.711 100.946 140.657 100.849 140.626 100.744C140.596 100.64 140.59 100.529 140.608 100.422C141.148 97.0751 142.258 93.7283 143.938 90.3817C144.908 88.4517 144.978 86.0417 144.088 83.5617C142.048 77.9217 142.018 71.9218 145.048 66.3418C145.908 64.7418 146.998 64.6218 148.358 65.2018C148.543 65.2795 148.693 65.4216 148.782 65.6018C148.87 65.7819 148.89 65.988 148.838 66.1817C148.391 67.8884 147.768 72.2184 146.968 79.1717C146.448 83.7517 148.408 87.1118 148.598 91.2118Z" fill="#925738"/>
<path d="M116.248 93.6918C114.278 90.9018 114.758 88.9318 115.998 85.7718C116.648 84.1318 116.448 82.7518 117.018 81.1618C117.103 80.9196 117.12 80.6569 117.068 80.4018L114.228 66.0318C114.216 65.9727 114.217 65.9112 114.233 65.8522C114.248 65.7932 114.278 65.7384 114.318 65.6918C114.485 65.5118 114.715 65.3552 115.008 65.2219C116.678 64.9919 118.108 64.9719 118.858 66.7219C120.351 70.1685 120.878 73.4052 120.438 76.4318C119.708 81.4118 117.658 85.8818 120.288 92.0418C121.081 93.9085 121.965 96.4118 122.938 99.5518C122.98 99.6757 122.978 99.8105 122.931 99.9328C122.885 100.055 122.797 100.157 122.683 100.221C122.569 100.286 122.436 100.308 122.307 100.284C122.178 100.26 122.062 100.192 121.978 100.092L116.248 93.6918Z" fill="#824D37"/>
<path d="M207.728 71.5718C206.828 82.9984 204.872 94.185 201.858 105.132C201.718 105.638 201.858 106.522 202.278 107.782L196.158 100.592C196.06 100.476 195.998 100.334 195.978 100.183C195.959 100.032 195.983 99.8789 196.048 99.7417C200.038 91.5517 202.398 83.2317 205.158 74.7717C206.092 74.9517 206.948 73.8851 207.728 71.5718Z" fill="#925738"/>
<path d="M151.318 101.982L151.948 110.612C151.952 110.66 151.968 110.707 151.995 110.747C152.021 110.788 152.058 110.821 152.1 110.844C152.143 110.867 152.191 110.879 152.239 110.878C152.288 110.878 152.336 110.865 152.378 110.842C155.671 109.015 157.711 106.188 158.498 102.362L159.108 96.5618C159.13 96.3567 159.214 96.1631 159.348 96.0066C159.482 95.85 159.661 95.7379 159.86 95.6848C160.059 95.6318 160.27 95.6403 160.464 95.7094C160.658 95.7784 160.827 95.9048 160.948 96.0718C163.741 99.9918 164.095 103.855 162.008 107.662C161.976 107.72 161.965 107.788 161.974 107.854C161.984 107.92 162.015 107.981 162.062 108.028C162.109 108.075 162.17 108.106 162.236 108.116C162.302 108.125 162.369 108.113 162.428 108.082C168.338 104.942 176.808 106.082 181.018 111.192C181.102 111.294 181.164 111.412 181.2 111.539C181.237 111.666 181.247 111.799 181.23 111.931C181.213 112.062 181.17 112.188 181.102 112.302C181.035 112.415 180.945 112.514 180.838 112.592C179.451 113.605 177.801 114.268 175.888 114.582C168.178 110.552 155.468 108.712 151.068 118.572C148.998 123.212 146.708 128.512 146.468 133.632C146.255 133.812 145.961 133.795 145.588 133.582C145.275 133.408 145.068 133.195 144.968 132.942C143.275 128.528 142.925 124.385 143.918 120.512C145.345 114.958 145.831 109.515 145.378 104.182C145.338 103.748 145.381 102.585 145.508 100.692C145.595 99.3984 145.338 98.2884 144.738 97.3617C146.338 95.6117 148.348 93.6818 148.598 91.2118C148.698 90.8385 148.768 90.645 148.808 90.6317C148.909 90.6058 149.013 90.6019 149.116 90.6202C149.218 90.6386 149.316 90.6788 149.403 90.7382C149.49 90.7976 149.563 90.8749 149.619 90.9651C149.675 91.0553 149.712 91.1563 149.728 91.2617L151.318 101.982Z" fill="#E5CBAC"/>
<path d="M158.498 102.362C157.712 106.188 155.672 109.015 152.378 110.842C152.336 110.865 152.288 110.878 152.24 110.878C152.191 110.879 152.143 110.867 152.101 110.844C152.058 110.821 152.021 110.788 151.995 110.747C151.968 110.707 151.952 110.66 151.948 110.612L151.318 101.982L151.608 94.9518C151.623 94.594 151.727 94.2454 151.91 93.9379C152.094 93.6303 152.351 93.3736 152.659 93.1908C152.967 93.008 153.316 92.905 153.674 92.8912C154.032 92.8775 154.387 92.9532 154.708 93.1117L155.548 93.5317C156.32 93.9176 156.976 94.5 157.45 95.22C157.924 95.9399 158.2 96.7718 158.248 97.6317L158.498 102.362Z" fill="#925738"/>
<path d="M112.988 101.962L111.568 109.782C111.538 109.949 111.467 110.105 111.36 110.236C111.253 110.367 111.114 110.469 110.956 110.531C110.799 110.593 110.628 110.614 110.46 110.592C110.292 110.569 110.133 110.504 109.998 110.402C106.778 107.982 105.281 104.605 105.508 100.272L110.268 93.5818C110.368 93.4406 110.5 93.3248 110.654 93.2439C110.807 93.1631 110.977 93.1193 111.149 93.1164C111.322 93.1134 111.492 93.1514 111.647 93.2271C111.801 93.3027 111.935 93.414 112.038 93.5518C113.008 94.8118 113.258 95.4818 112.968 97.4518C112.748 98.9385 112.754 100.442 112.988 101.962Z" fill="#83604A"/>
<path d="M117.179 97.6718C118.592 100.325 119.222 102.155 119.069 103.162C118.535 106.568 118.349 109.992 118.509 113.432C118.528 113.796 118.61 114.158 118.749 114.502C119.822 117.075 120.392 119.132 120.459 120.672C120.605 124.258 120.489 127.758 120.109 131.172C119.842 133.578 119.139 134.742 117.999 134.662C117.109 127.562 113.409 115.082 106.519 112.342C101.292 110.255 95.9252 110.592 90.4186 113.352L88.8586 114.032C87.1986 113.718 85.9252 112.812 85.0386 111.312C84.9043 111.084 84.8376 110.824 84.8465 110.561C84.8553 110.299 84.9394 110.046 85.0886 109.832C87.2886 106.662 92.8686 106.412 96.4686 106.722C99.2819 106.955 100.759 107.065 100.899 107.052C100.972 107.046 101.042 107.024 101.106 106.987C101.169 106.95 101.223 106.899 101.265 106.838C101.306 106.776 101.333 106.706 101.344 106.632C101.355 106.559 101.35 106.483 101.329 106.412C99.8686 101.718 100.919 97.9718 104.479 95.1718C104.557 95.1109 104.651 95.0729 104.75 95.0621C104.849 95.0513 104.949 95.0681 105.039 95.1105C105.129 95.1529 105.206 95.2193 105.26 95.3025C105.315 95.3857 105.345 95.4824 105.349 95.5818L105.509 100.272C105.282 104.605 106.779 107.982 109.999 110.402C110.134 110.504 110.293 110.569 110.461 110.592C110.629 110.614 110.8 110.593 110.957 110.531C111.115 110.469 111.254 110.367 111.361 110.236C111.468 110.105 111.539 109.949 111.569 109.782L112.989 101.962L113.649 95.2717C113.666 95.0973 113.73 94.9307 113.834 94.7891C113.937 94.6474 114.076 94.5358 114.237 94.4656C114.398 94.3954 114.574 94.3691 114.749 94.3895C114.923 94.4099 115.088 94.4764 115.229 94.5818C115.975 95.1485 116.625 96.1784 117.179 97.6718Z" fill="#EDD7B6"/>
<path d="M265.048 144.912C264.008 148.078 262.964 152.818 261.918 159.132C260.771 166.032 258.111 174.385 253.938 184.192C249.791 194.065 244.534 203.048 238.168 211.142C232.121 218.815 225.044 226.258 216.938 233.472C216.692 233.684 216.47 233.929 216.278 234.202C211.948 240.222 206.378 243.362 199.508 246.662C199.168 246.122 199.074 245.508 199.228 244.822C205.678 243.342 210.458 239.572 215.388 234.592C215.496 234.483 215.577 234.35 215.624 234.204C215.671 234.058 215.682 233.903 215.658 233.752L214.568 226.742C213.401 220.415 211.718 214.105 209.518 207.812C206.291 198.572 202.974 189.628 199.568 180.982L187.288 173.992C186.654 173.925 186.378 173.805 186.458 173.632C186.951 173.445 187.278 173.118 187.438 172.652L188.318 172.832L199.088 178.992C199.482 179.217 199.949 179.277 200.388 179.159C200.826 179.041 201.2 178.754 201.428 178.362L204.498 173.032C204.737 172.617 204.821 172.129 204.733 171.658C204.645 171.187 204.391 170.763 204.018 170.462C203.104 169.735 202.168 169.212 201.208 168.892C201.201 168.845 201.194 168.798 201.188 168.752C201.508 168.438 201.754 168.102 201.928 167.742C202.981 167.948 203.941 168.358 204.808 168.972C204.942 169.066 205.094 169.13 205.256 169.159C205.417 169.188 205.582 169.181 205.741 169.139C205.899 169.097 206.046 169.021 206.172 168.916C206.297 168.811 206.398 168.68 206.468 168.532C210.074 160.872 212.411 153.358 213.478 145.992C212.698 139.018 211.421 132.385 209.648 126.092C215.301 126.532 220.914 126.625 226.488 126.372C235.658 125.962 246.298 123.712 256.078 122.212C261.828 121.342 262.218 112.842 262.238 107.572C263.618 113.812 264.341 118.408 264.408 121.362C264.568 129.255 264.781 137.105 265.048 144.912Z" fill="#DEBEA0"/>
<path d="M117.998 134.662L115.748 137.382C115.704 137.435 115.649 137.479 115.587 137.509C115.525 137.54 115.457 137.558 115.388 137.562C114.508 137.608 113.971 136.785 113.778 135.092C113.605 132.992 112.625 131.542 110.838 130.742C110.465 130.574 110.045 130.549 109.658 130.672C98.7879 134.102 92.8179 128.842 88.8379 119.422L90.4179 113.352C95.9246 110.592 101.291 110.255 106.518 112.342C113.408 115.082 117.108 127.562 117.998 134.662ZM100.988 118.402C101.341 118.768 101.698 118.912 102.058 118.832C102.438 118.738 102.658 118.452 102.718 117.972C102.791 117.378 102.751 116.475 102.598 115.262C98.2579 113.242 95.0546 114.632 92.9879 119.432C92.8642 119.719 92.8294 120.039 92.8879 120.352C93.5546 124.045 95.4912 126.692 98.6979 128.292C102.888 130.372 108.228 129.492 111.158 125.582C113.108 122.972 110.028 117.942 108.238 116.412C108.196 116.375 108.146 116.351 108.092 116.34C108.038 116.33 107.982 116.334 107.93 116.352C107.878 116.371 107.832 116.402 107.797 116.445C107.761 116.487 107.737 116.537 107.728 116.592L107.158 119.772C107.125 119.949 107.132 120.13 107.178 120.302C107.718 122.568 107.201 124.262 105.628 125.382C103.655 126.775 101.905 126.382 100.378 124.202C99.1379 122.428 98.6979 119.968 99.0579 116.822C99.0642 116.774 99.0798 116.729 99.1038 116.688C99.1278 116.647 99.1598 116.61 99.1979 116.582L99.9179 116.052C99.961 116.019 100.013 116 100.067 115.997C100.121 115.994 100.175 116.007 100.221 116.035C100.268 116.063 100.305 116.105 100.327 116.154C100.35 116.203 100.357 116.258 100.348 116.312C100.155 117.352 100.368 118.048 100.988 118.402Z" fill="#3D261D"/>
<path d="M175.888 114.582L179.198 116.412L178.578 119.282L175.128 118.092C174.969 118.036 174.794 118.045 174.641 118.116C174.488 118.187 174.368 118.315 174.308 118.472C173.988 119.312 173.778 120.552 173.478 121.252C170.344 128.685 164.938 132.082 157.258 131.442C152.868 131.072 150.398 131.542 149.338 135.992C149.031 136.358 148.864 136.878 148.838 137.552C148.836 137.654 148.803 137.753 148.743 137.835C148.683 137.917 148.598 137.979 148.501 138.011C148.404 138.042 148.3 138.043 148.202 138.013C148.105 137.983 148.02 137.923 147.958 137.842C147.031 136.662 146.534 135.258 146.468 133.632C146.708 128.512 148.998 123.212 151.068 118.572C155.468 108.712 168.178 110.552 175.888 114.582ZM161.938 114.032C161.124 113.872 160.374 113.868 159.688 114.022C159.532 114.056 159.386 114.125 159.261 114.224C159.136 114.323 159.036 114.449 158.968 114.592C158.674 115.205 158.514 115.822 158.488 116.442C158.414 116.308 158.304 116.188 158.158 116.082C158.351 115.628 158.401 115.259 158.308 114.972C158.201 114.652 157.891 114.522 157.378 114.582C156.398 114.688 155.744 115.015 155.418 115.562C154.224 116.495 153.248 117.952 152.488 119.932C151.061 123.638 151.884 126.305 154.958 127.932C158.804 129.972 162.394 129.895 165.728 127.702C168.688 125.752 172.828 120.862 170.078 117.452C167.718 114.525 165.004 113.385 161.938 114.032Z" fill="#4A2C1F"/>
<path d="M90.4176 113.352L88.8376 119.422C88.4243 117.602 87.3809 117.348 85.7076 118.662C84.7876 119.022 84.0143 119.208 83.3876 119.222C78.2876 121.468 74.8076 124.288 72.9476 127.682C70.1609 132.768 67.3176 137.818 64.4176 142.832C61.1843 148.412 56.931 151.388 51.6576 151.762L51.3076 149.942C51.361 149.068 51.5509 148.455 51.8776 148.102C57.5376 141.915 62.3409 135.642 66.2876 129.282C69.7776 123.662 72.8876 119.712 78.1376 118.072C83.1576 116.505 86.731 115.158 88.8576 114.032L90.4176 113.352Z" fill="#824D37"/>
<path d="M155.418 115.562C154.758 118.708 154.981 121.188 156.088 123.002C157.241 124.908 159.028 125.662 161.448 125.262C161.777 125.209 162.089 125.079 162.358 124.882C166.558 121.932 164.748 117.492 161.938 114.032C165.005 113.385 167.718 114.525 170.078 117.452C172.828 120.862 168.688 125.752 165.728 127.702C162.395 129.895 158.805 129.972 154.958 127.932C151.885 126.305 151.061 123.638 152.488 119.932C153.248 117.952 154.225 116.495 155.418 115.562Z" fill="#ACA978"/>
<path d="M161.938 114.032C164.748 117.492 166.558 121.932 162.358 124.882C162.088 125.079 161.776 125.209 161.448 125.262C159.028 125.662 157.241 124.908 156.088 123.002C154.981 121.188 154.758 118.708 155.418 115.562C155.744 115.015 156.398 114.688 157.378 114.582C157.891 114.522 158.201 114.652 158.308 114.972C158.401 115.258 158.351 115.628 158.158 116.082C157.384 115.648 156.781 116.168 156.348 117.642C156.308 117.779 156.297 117.923 156.317 118.064C156.337 118.205 156.387 118.34 156.464 118.461C156.541 118.581 156.643 118.684 156.762 118.761C156.882 118.839 157.017 118.89 157.158 118.912C158.204 119.065 158.648 118.242 158.488 116.442C158.514 115.822 158.674 115.205 158.968 114.592C159.036 114.449 159.136 114.323 159.261 114.224C159.386 114.125 159.532 114.056 159.688 114.022C160.374 113.868 161.124 113.872 161.938 114.032Z" fill="#3D261D"/>
<path d="M102.598 115.262C101.258 116.322 100.721 117.368 100.988 118.402C100.368 118.048 100.155 117.352 100.348 116.312C100.357 116.258 100.35 116.203 100.327 116.154C100.305 116.105 100.268 116.063 100.222 116.035C100.175 116.007 100.121 115.994 100.067 115.997C100.013 116 99.9611 116.019 99.918 116.052L99.198 116.582C99.16 116.611 99.128 116.647 99.1039 116.688C99.0799 116.729 99.0643 116.774 99.058 116.822C98.698 119.968 99.138 122.428 100.378 124.202C101.905 126.382 103.655 126.775 105.628 125.382C107.201 124.262 107.718 122.568 107.178 120.302C107.132 120.13 107.125 119.949 107.158 119.772L107.728 116.592C107.737 116.537 107.761 116.487 107.797 116.445C107.832 116.402 107.878 116.371 107.93 116.352C107.982 116.334 108.038 116.33 108.092 116.34C108.146 116.351 108.197 116.375 108.238 116.412C110.028 117.942 113.108 122.972 111.158 125.582C108.228 129.492 102.888 130.372 98.698 128.292C95.4914 126.692 93.5547 124.045 92.888 120.352C92.8295 120.039 92.8643 119.719 92.988 119.432C95.0547 114.632 98.258 113.242 102.598 115.262Z" fill="#ACA978"/>
<path d="M102.598 115.262C102.752 116.475 102.792 117.378 102.718 117.972C102.658 118.452 102.438 118.738 102.058 118.832C101.698 118.912 101.342 118.768 100.988 118.402C100.722 117.368 101.258 116.322 102.598 115.262Z" fill="#DCD5C9"/>
<path d="M158.158 116.082C158.305 116.188 158.415 116.308 158.488 116.442C158.648 118.242 158.205 119.065 157.158 118.912C157.017 118.89 156.882 118.839 156.762 118.761C156.643 118.684 156.541 118.581 156.464 118.461C156.388 118.34 156.338 118.205 156.318 118.064C156.297 117.923 156.308 117.779 156.348 117.642C156.781 116.168 157.385 115.648 158.158 116.082Z" fill="#BA9A85"/>
<path d="M212.178 150.122C212.025 150.935 211.721 151.615 211.268 152.162C211.191 152.256 211.079 152.317 210.957 152.332C210.834 152.347 210.709 152.315 210.608 152.242C205.301 148.308 201.495 144.445 199.188 140.652C194.748 133.332 192.078 128.382 188.178 123.982C185.438 121.982 182.238 120.415 178.578 119.282L179.198 116.412C185.148 117.322 191.858 119.822 195.308 124.832C197.655 128.258 199.945 131.725 202.178 135.232C203.965 138.025 206.865 141.612 210.878 145.992C211.931 147.145 212.365 148.522 212.178 150.122Z" fill="#824D37"/>
<path d="M88.8377 119.422C92.8177 128.842 98.7877 134.102 109.658 130.672C110.045 130.549 110.464 130.574 110.838 130.742C112.624 131.542 113.604 132.992 113.778 135.092L113.348 135.612C113.248 135.735 113.11 135.821 112.956 135.855C112.801 135.89 112.64 135.871 112.498 135.802L112.148 135.622C112.032 135.563 111.898 135.546 111.768 135.572C108.181 136.205 105.864 136.408 104.818 136.182C97.1077 134.512 91.6977 132.542 87.4977 127.072C85.7777 124.825 85.181 122.022 85.7077 118.662C87.381 117.348 88.4243 117.602 88.8377 119.422Z" fill="#E7D7BF"/>
<path d="M178.578 119.282C182.238 120.415 185.438 121.982 188.178 123.982C188.131 124.608 187.948 124.905 187.628 124.872C185.908 123.752 183.961 123.055 181.788 122.782C181.527 122.749 181.28 122.634 181.078 122.452C180.471 121.892 179.838 122.045 179.178 122.912C176.788 126.022 174.708 128.822 171.828 130.872C168.235 133.432 164.185 135.005 159.678 135.592C158.005 135.805 154.558 135.938 149.338 135.992C150.398 131.542 152.868 131.072 157.258 131.442C164.938 132.082 170.345 128.685 173.478 121.252C173.778 120.552 173.988 119.312 174.308 118.472C174.369 118.314 174.488 118.187 174.641 118.116C174.794 118.045 174.969 118.036 175.128 118.092L178.578 119.282Z" fill="#E5CBAC"/>
<path d="M83.3882 119.222C83.6082 120.502 82.8315 121.772 81.0582 123.032C78.6249 124.752 76.6749 126.538 75.2082 128.392C74.6482 129.265 74.5849 129.998 75.0182 130.592C78.8115 135.845 83.5149 140.002 89.1282 143.062C89.2056 143.102 89.2679 143.166 89.3063 143.245C89.3446 143.324 89.3568 143.412 89.3412 143.498C89.3256 143.584 89.2829 143.663 89.2194 143.723C89.1559 143.783 89.0749 143.821 88.9882 143.832C81.9782 144.782 76.1482 147.022 71.3582 152.242C68.2882 155.582 67.5282 160.552 64.8282 164.222C64.2149 165.055 63.5049 165.972 62.6982 166.972C62.0849 167.785 60.5882 168.272 58.2082 168.432C57.9682 168.458 57.7382 168.438 57.5182 168.372C57.4113 168.34 57.3121 168.286 57.2275 168.212C57.1429 168.137 57.0749 168.045 57.0282 167.942L53.5182 160.362L51.6582 151.762C56.9315 151.388 61.1849 148.412 64.4182 142.832C67.3182 137.818 70.1615 132.768 72.9482 127.682C74.8082 124.288 78.2882 121.468 83.3882 119.222Z" fill="#B58D6B"/>
<path d="M212.178 150.122L213.478 145.992C212.411 153.358 210.075 160.872 206.468 168.532C206.399 168.68 206.297 168.811 206.172 168.916C206.046 169.021 205.899 169.097 205.741 169.139C205.582 169.181 205.417 169.188 205.256 169.159C205.095 169.13 204.942 169.066 204.808 168.972C203.941 168.358 202.981 167.948 201.928 167.742L199.908 167.022C200.321 167.055 200.651 167.045 200.898 166.992C200.963 166.979 201.023 166.947 201.07 166.9C201.117 166.854 201.149 166.794 201.163 166.729C201.177 166.665 201.171 166.597 201.147 166.535C201.123 166.474 201.082 166.42 201.028 166.382L197.518 163.812C197.368 163.702 197.245 163.561 197.156 163.398C197.068 163.236 197.018 163.056 197.008 162.872C196.555 155.558 193.021 150.175 186.408 146.722C183.368 145.132 179.168 144.592 176.128 143.712C176.057 143.691 175.994 143.65 175.945 143.594C175.897 143.539 175.865 143.471 175.855 143.399C175.844 143.326 175.855 143.253 175.886 143.188C175.916 143.123 175.966 143.069 176.028 143.032C179.378 140.952 191.298 131.512 189.268 127.082L187.628 124.872C187.948 124.905 188.131 124.608 188.178 123.982C192.078 128.382 194.748 133.332 199.188 140.652C201.495 144.445 205.301 148.308 210.608 152.242C210.709 152.315 210.834 152.347 210.957 152.332C211.079 152.317 211.191 152.256 211.268 152.162C211.721 151.615 212.025 150.935 212.178 150.122Z" fill="#B58D6B"/>
<path d="M189.268 127.082C191.298 131.512 179.378 140.952 176.028 143.032C175.966 143.069 175.916 143.123 175.885 143.188C175.854 143.253 175.844 143.326 175.854 143.399C175.865 143.471 175.896 143.539 175.945 143.594C175.994 143.65 176.057 143.691 176.128 143.712C179.168 144.592 183.368 145.132 186.408 146.722C193.021 150.175 196.554 155.558 197.008 162.872C197.017 163.056 197.068 163.236 197.156 163.398C197.244 163.561 197.368 163.702 197.518 163.812L201.028 166.382C201.082 166.42 201.123 166.474 201.147 166.535C201.171 166.597 201.177 166.665 201.163 166.729C201.149 166.794 201.117 166.854 201.069 166.9C201.022 166.947 200.963 166.979 200.898 166.992C200.651 167.045 200.321 167.055 199.908 167.022L189.428 162.872C189.621 157.138 187.014 152.835 181.608 149.962C178.481 148.295 174.611 147.418 169.998 147.332C163.618 147.082 157.068 143.822 152.448 140.482C151.788 140.002 151.354 139.588 151.148 139.242C151.081 139.135 151.052 139.008 151.064 138.883C151.077 138.757 151.131 138.639 151.218 138.548C151.305 138.456 151.42 138.396 151.545 138.377C151.67 138.358 151.797 138.381 151.908 138.442C152.381 138.702 154.624 139.405 158.638 140.552C161.224 141.298 163.554 141.468 165.628 141.062C172.041 139.815 177.971 136.918 183.418 132.372C184.244 131.678 186.194 129.915 189.268 127.082Z" fill="#925738"/>
<path d="M102.668 144.922C100.218 146.082 98.0782 147.172 95.2582 147.282C85.2282 147.652 78.6582 150.342 74.0082 159.892C73.7616 160.405 73.9516 160.885 74.5782 161.332C74.7916 161.492 74.8749 161.672 74.8282 161.872C74.7882 162.065 74.6782 162.262 74.4982 162.462L62.6982 166.972C63.5049 165.972 64.2149 165.055 64.8282 164.222C67.5282 160.552 68.2882 155.582 71.3582 152.242C76.1482 147.022 81.9782 144.782 88.9882 143.832C89.0749 143.821 89.1559 143.783 89.2194 143.723C89.2829 143.663 89.3256 143.584 89.3412 143.498C89.3569 143.412 89.3446 143.324 89.3063 143.245C89.268 143.166 89.2056 143.102 89.1282 143.062C83.5149 140.002 78.8116 135.845 75.0182 130.592C74.5849 129.998 74.6482 129.265 75.2082 128.392C79.1282 130.445 82.8982 132.822 86.5182 135.522C89.3649 137.648 91.4882 139.005 92.8882 139.592C95.4749 140.678 98.0782 141.538 100.698 142.172C101.102 142.271 101.521 142.305 101.938 142.272L107.118 141.802C107.175 141.798 107.232 141.807 107.285 141.828C107.337 141.849 107.384 141.883 107.422 141.925C107.46 141.968 107.487 142.019 107.502 142.073C107.517 142.128 107.519 142.186 107.508 142.242C107.428 142.615 107.188 142.895 106.788 143.082C105.448 143.702 104.075 144.315 102.668 144.922Z" fill="#925738"/>
<path d="M113.538 145.652C111.731 145.952 110.201 146.788 108.948 148.162C106.694 150.628 104.654 152.472 102.828 153.692C102.696 153.782 102.592 153.908 102.528 154.053C102.464 154.198 102.444 154.357 102.468 154.512L102.628 155.692C102.634 155.737 102.63 155.783 102.617 155.827C102.604 155.871 102.582 155.911 102.553 155.945C102.523 155.979 102.487 156.006 102.447 156.025C102.406 156.043 102.362 156.052 102.318 156.052H101.698C101.56 156.053 101.425 156.003 101.321 155.911C101.216 155.819 101.147 155.691 101.128 155.552L101.008 154.692C100.993 154.595 100.956 154.502 100.9 154.422C100.844 154.342 100.77 154.276 100.685 154.229C100.599 154.182 100.504 154.156 100.408 154.153C100.311 154.15 100.215 154.171 100.128 154.212L96.9378 155.712C96.7848 155.778 96.6276 155.832 96.4678 155.872C88.7145 157.645 81.8345 159.688 75.8278 162.002C75.4012 162.168 74.9578 162.322 74.4978 162.462C74.6778 162.262 74.7878 162.065 74.8278 161.872C74.8745 161.672 74.7912 161.492 74.5778 161.332C73.9512 160.885 73.7612 160.405 74.0078 159.892C78.6578 150.342 85.2278 147.652 95.2578 147.282C98.0778 147.172 100.218 146.082 102.668 144.922L113.538 145.652Z" fill="#D29D77"/>
<path d="M113.538 145.652C115.918 146.832 118.052 148.612 119.939 150.992L122.398 153.252L125.318 155.932C125.431 156.038 125.529 156.156 125.609 156.282C127.189 159.002 127.499 162.252 130.889 164.212C131.016 164.285 131.127 164.385 131.214 164.504C131.301 164.622 131.362 164.758 131.393 164.901C131.424 165.045 131.425 165.193 131.395 165.336C131.365 165.479 131.305 165.614 131.218 165.732C126.348 172.472 117.139 173.442 109.609 172.732C109.544 172.728 109.481 172.747 109.429 172.785C109.377 172.823 109.34 172.878 109.323 172.94C109.307 173.002 109.312 173.068 109.339 173.127C109.365 173.185 109.411 173.233 109.469 173.262C112.089 174.475 114.952 175.108 118.059 175.162C122.492 175.242 125.312 175.092 126.519 174.712C128.745 173.998 130.782 173.782 132.628 174.062C139.868 175.142 145.625 175.428 149.899 174.922C151.172 174.768 152.232 174.535 153.079 174.222C153.172 174.187 153.25 174.122 153.301 174.037C153.353 173.952 153.374 173.852 153.361 173.753C153.348 173.654 153.302 173.563 153.231 173.494C153.16 173.425 153.067 173.382 152.968 173.372C151.035 173.145 149.382 173.035 148.008 173.042C142.718 173.062 135.629 170.712 132.359 165.522C132.291 165.414 132.246 165.293 132.226 165.168C132.205 165.042 132.21 164.914 132.24 164.79C132.27 164.666 132.324 164.549 132.399 164.447C132.474 164.344 132.569 164.257 132.679 164.192C134.185 163.298 135.442 162.172 136.449 160.812C136.554 160.666 136.636 160.504 136.688 160.332L137.549 157.492C137.693 157.025 137.947 156.603 138.288 156.262L141.549 152.972C142.389 152.318 142.972 151.718 143.299 151.172L144.658 149.252L146.758 146.182C146.929 145.932 147.183 145.751 147.477 145.672C147.77 145.593 148.083 145.621 148.359 145.752L155.649 149.252C157.489 150.698 159.509 151.778 161.709 152.492C161.786 152.517 161.853 152.57 161.899 152.642L162.128 153.042C162.147 153.08 162.183 153.112 162.229 153.132L189.429 162.872L199.908 167.022L201.929 167.742C201.755 168.102 201.508 168.438 201.188 168.752L187.459 163.712C181.465 161.178 174.932 159.128 167.859 157.562C167.777 157.543 167.692 157.546 167.612 157.571C167.533 157.597 167.461 157.644 167.405 157.707C167.349 157.77 167.311 157.847 167.294 157.931C167.277 158.014 167.282 158.101 167.308 158.182C167.868 159.808 167.782 161.305 167.049 162.672C167.002 162.758 166.975 162.854 166.969 162.952C166.964 163.05 166.98 163.148 167.018 163.24C167.055 163.331 167.112 163.414 167.185 163.482C167.257 163.549 167.344 163.601 167.438 163.632C170.668 164.692 172.419 165.192 174.989 166.562C179.069 168.742 183.218 170.772 187.438 172.652C187.278 173.118 186.952 173.445 186.459 173.632L181.699 171.492C177.699 168.758 172.919 166.608 167.359 165.042C167.054 164.956 166.731 164.973 166.438 165.089C166.146 165.204 165.9 165.413 165.739 165.682C164.419 167.902 162.849 170.592 160.639 173.012C158.112 175.785 155.625 178.782 153.179 182.002C153.145 182.048 153.108 182.089 153.068 182.122L148.778 186.522C137.552 193.075 126.339 193.165 115.139 186.792C108.339 181.482 104.048 174.712 99.0085 167.332C98.9685 167.285 98.7518 166.872 98.3585 166.092C97.9252 165.252 97.2418 164.992 96.3085 165.312C95.6485 165.538 95.2818 165.662 95.2085 165.682C91.5352 166.575 88.3185 167.695 85.5585 169.042L81.8885 170.712C81.7755 170.765 81.6581 170.805 81.5385 170.832C79.6985 171.278 78.0185 171.998 76.4985 172.992L66.2185 178.412L65.7985 178.442C65.7239 178.448 65.6493 178.426 65.5886 178.38C65.528 178.334 65.4853 178.267 65.4685 178.192C65.4552 178.105 65.4452 178.012 65.4385 177.912L75.2685 171.912C75.7752 171.972 76.1218 171.952 76.3085 171.852C82.8952 168.225 89.4318 165.578 95.9185 163.912C96.0077 163.89 96.0912 163.849 96.1634 163.792C96.2356 163.735 96.2949 163.663 96.3374 163.581C96.38 163.499 96.4047 163.408 96.4101 163.315C96.4154 163.222 96.4013 163.129 96.3685 163.042C95.7685 161.428 95.6718 159.715 96.0785 157.902C96.0943 157.834 96.0919 157.764 96.0716 157.698C96.0512 157.632 96.0137 157.573 95.9628 157.526C95.912 157.479 95.8496 157.446 95.782 157.432C95.7145 157.417 95.6443 157.42 95.5785 157.442L74.9485 163.682L68.9185 165.802L63.4185 168.232L60.7285 169.262L46.7485 176.912C46.7147 176.928 46.6764 176.932 46.6412 176.923C46.606 176.914 46.5764 176.892 46.5585 176.862H46.5485C46.5287 176.829 46.5219 176.791 46.5293 176.754C46.5367 176.717 46.5578 176.684 46.5885 176.662C50.0418 174.368 53.5785 172.205 57.1985 170.172C57.6452 169.925 57.9818 169.345 58.2085 168.432C60.5885 168.272 62.0852 167.785 62.6985 166.972L74.4985 162.462C74.9585 162.322 75.4018 162.168 75.8285 162.002C81.8352 159.688 88.7152 157.645 96.4685 155.872C96.6282 155.832 96.7854 155.778 96.9385 155.712L100.128 154.212C100.216 154.17 100.312 154.15 100.408 154.153C100.505 154.156 100.6 154.182 100.685 154.229C100.771 154.275 100.845 154.342 100.901 154.422C100.957 154.502 100.994 154.595 101.008 154.692L101.128 155.552C101.148 155.691 101.216 155.819 101.321 155.911C101.426 156.003 101.56 156.053 101.699 156.052H102.318C102.363 156.052 102.407 156.043 102.447 156.025C102.488 156.006 102.524 155.979 102.553 155.945C102.583 155.911 102.605 155.871 102.618 155.827C102.631 155.783 102.634 155.737 102.628 155.692L102.469 154.512C102.444 154.357 102.465 154.198 102.529 154.053C102.593 153.907 102.696 153.782 102.829 153.692C104.655 152.472 106.695 150.628 108.949 148.162C110.202 146.788 111.732 145.952 113.538 145.652ZM106.559 155.672C107.825 155.825 108.962 155.748 109.969 155.442C110.348 155.326 110.759 155.362 111.118 155.542C111.458 155.708 111.882 155.782 112.389 155.762C112.49 155.758 112.588 155.726 112.672 155.669C112.757 155.613 112.824 155.534 112.866 155.442C112.908 155.35 112.925 155.248 112.913 155.147C112.901 155.047 112.861 154.951 112.799 154.872C112.212 154.125 111.429 153.555 110.449 153.162C110.253 153.081 110.033 153.084 109.836 153.168C109.639 153.252 109.482 153.412 109.398 153.612L109.038 154.512C108.999 154.604 108.932 154.682 108.847 154.736C108.763 154.79 108.664 154.817 108.563 154.813C108.463 154.81 108.366 154.777 108.285 154.718C108.204 154.658 108.142 154.576 108.109 154.482L107.719 153.362C107.689 153.277 107.64 153.2 107.576 153.138C107.511 153.076 107.433 153.03 107.347 153.003C107.261 152.977 107.171 152.971 107.082 152.987C106.994 153.002 106.91 153.038 106.839 153.092C106.399 153.425 106.139 154.085 106.059 155.072C106.047 155.217 106.093 155.361 106.187 155.473C106.28 155.585 106.413 155.657 106.559 155.672ZM156.679 154.552L154.998 152.942C154.95 152.897 154.887 152.873 154.821 152.875C154.756 152.877 154.694 152.905 154.649 152.952L154.519 153.092C154.197 153.428 153.988 153.846 153.937 154.254C153.887 154.663 153.998 155.028 154.248 155.272L154.389 155.402C154.642 155.644 155.012 155.742 155.419 155.674C155.826 155.607 156.236 155.379 156.558 155.042L156.688 154.902C156.733 154.854 156.757 154.79 156.755 154.725C156.753 154.659 156.726 154.597 156.679 154.552ZM161.729 153.902C160.982 154.448 160.349 154.418 159.829 153.812C159.355 153.258 158.949 153.082 158.609 153.282C158.175 153.542 157.932 154.012 157.878 154.692C157.87 154.811 157.888 154.93 157.932 155.041C157.975 155.153 158.043 155.253 158.13 155.334C158.218 155.416 158.322 155.477 158.436 155.513C158.55 155.548 158.67 155.558 158.788 155.542L161.799 155.112C161.856 155.106 161.911 155.088 161.96 155.061C162.01 155.033 162.054 154.996 162.089 154.952C162.309 154.672 162.329 154.355 162.149 154.002C162.131 153.966 162.105 153.934 162.073 153.909C162.042 153.884 162.005 153.866 161.965 153.856C161.925 153.847 161.883 153.846 161.842 153.854C161.802 153.862 161.763 153.878 161.729 153.902ZM103.779 154.122C103.612 154.335 103.515 154.628 103.488 155.002C103.462 155.402 103.612 155.638 103.939 155.712C105.025 155.965 105.662 155.975 105.848 155.742C106.035 155.502 105.875 154.885 105.368 153.892C105.215 153.592 104.948 153.505 104.568 153.632C104.208 153.745 103.945 153.908 103.779 154.122ZM150.363 154.577C150.298 154.809 150.357 155.066 150.528 155.292C150.698 155.517 150.966 155.692 151.272 155.778C151.579 155.864 151.898 155.854 152.161 155.751C152.424 155.647 152.608 155.459 152.674 155.226C152.739 154.994 152.68 154.737 152.509 154.512C152.339 154.287 152.071 154.112 151.765 154.026C151.458 153.94 151.139 153.949 150.876 154.053C150.613 154.156 150.429 154.345 150.363 154.577ZM102.942 158.679C102.825 158.768 102.731 158.885 102.665 159.024C102.6 159.163 102.565 159.321 102.561 159.489C102.558 159.657 102.586 159.831 102.645 160.002C102.704 160.174 102.793 160.339 102.905 160.487C103.018 160.636 103.152 160.766 103.301 160.869C103.45 160.973 103.61 161.048 103.773 161.09C103.935 161.133 104.097 161.142 104.248 161.117C104.399 161.092 104.538 161.033 104.655 160.944C104.772 160.856 104.866 160.738 104.932 160.6C104.997 160.461 105.032 160.303 105.036 160.135C105.039 159.967 105.011 159.792 104.952 159.621C104.893 159.45 104.804 159.285 104.692 159.136C104.579 158.987 104.445 158.858 104.296 158.754C104.147 158.651 103.987 158.575 103.824 158.533C103.662 158.491 103.5 158.482 103.349 158.507C103.198 158.532 103.059 158.59 102.942 158.679ZM109.544 158.511C109.298 158.653 109.136 158.917 109.095 159.247C109.053 159.576 109.135 159.943 109.322 160.267C109.509 160.591 109.786 160.845 110.092 160.973C110.398 161.102 110.708 161.095 110.954 160.953C111.199 160.811 111.361 160.546 111.402 160.217C111.444 159.888 111.362 159.521 111.175 159.197C110.988 158.873 110.711 158.619 110.405 158.49C110.099 158.361 109.789 158.369 109.544 158.511ZM158.319 159.445C158.315 159.579 158.343 159.712 158.402 159.838C158.46 159.963 158.548 160.079 158.661 160.177C158.773 160.275 158.907 160.354 159.056 160.41C159.205 160.465 159.365 160.496 159.528 160.501C159.691 160.506 159.853 160.485 160.005 160.438C160.157 160.391 160.296 160.32 160.414 160.229C160.531 160.137 160.626 160.028 160.692 159.906C160.758 159.784 160.794 159.652 160.798 159.519C160.802 159.385 160.774 159.251 160.715 159.126C160.657 159 160.569 158.885 160.456 158.787C160.344 158.689 160.21 158.61 160.061 158.554C159.912 158.498 159.752 158.467 159.589 158.462C159.426 158.457 159.264 158.479 159.112 158.526C158.96 158.572 158.821 158.643 158.703 158.735C158.586 158.826 158.491 158.936 158.425 159.057C158.359 159.179 158.323 159.311 158.319 159.445ZM156.886 158.769C156.796 158.687 156.688 158.626 156.568 158.59C156.448 158.554 156.318 158.543 156.186 158.559C156.054 158.575 155.922 158.617 155.798 158.683C155.674 158.749 155.561 158.837 155.464 158.942C155.268 159.155 155.153 159.425 155.143 159.694C155.133 159.962 155.229 160.207 155.411 160.374C155.501 160.457 155.609 160.518 155.729 160.554C155.849 160.59 155.979 160.6 156.111 160.584C156.243 160.568 156.375 160.526 156.499 160.46C156.623 160.395 156.736 160.307 156.833 160.201C157.029 159.988 157.144 159.718 157.154 159.45C157.164 159.181 157.068 158.936 156.886 158.769ZM114.288 159.662C114.288 159.428 114.196 159.204 114.031 159.039C113.866 158.874 113.642 158.782 113.409 158.782C113.175 158.782 112.951 158.874 112.786 159.039C112.621 159.204 112.529 159.428 112.529 159.662C112.529 159.895 112.621 160.119 112.786 160.284C112.951 160.449 113.175 160.542 113.409 160.542C113.642 160.542 113.866 160.449 114.031 160.284C114.196 160.119 114.288 159.895 114.288 159.662ZM150.949 159.832C150.935 160.192 151.479 160.518 152.579 160.812C152.834 160.88 153.107 160.847 153.338 160.718C153.57 160.589 153.742 160.375 153.818 160.122C153.832 160.088 153.839 160.025 153.839 159.932C153.845 159.832 153.842 159.765 153.829 159.732C153.769 159.474 153.611 159.25 153.389 159.106C153.167 158.963 152.898 158.911 152.639 158.962C151.519 159.188 150.955 159.478 150.949 159.832ZM108.118 160.062C107.872 159.402 107.395 159.122 106.689 159.222C106.575 159.24 106.467 159.286 106.377 159.356C106.286 159.426 106.214 159.517 106.169 159.622C106.002 159.995 106.015 160.308 106.208 160.562C106.355 160.761 106.573 160.921 106.823 161.013C107.073 161.104 107.338 161.121 107.57 161.061C107.802 161 107.985 160.866 108.085 160.682C108.186 160.499 108.198 160.279 108.118 160.062ZM113.199 164.382C113.141 164.169 113.017 163.979 112.845 163.839C112.673 163.699 112.461 163.616 112.238 163.602C109.985 163.448 108.005 163.652 106.299 164.212C106.173 164.252 106.04 164.259 105.912 164.233C105.784 164.206 105.666 164.148 105.568 164.062C105.282 163.802 104.928 163.702 104.508 163.762C104.328 163.789 104.164 163.882 104.048 164.022C103.932 164.163 103.872 164.341 103.88 164.524C103.887 164.706 103.961 164.879 104.089 165.01C104.216 165.14 104.387 165.219 104.568 165.232L112.559 165.662C112.673 165.669 112.788 165.649 112.893 165.603C112.998 165.557 113.09 165.486 113.163 165.396C113.235 165.306 113.285 165.199 113.309 165.086C113.333 164.972 113.329 164.854 113.299 164.742L113.199 164.382ZM151.205 164.2C151.059 164.372 150.998 164.604 151.036 164.846C151.074 165.088 151.208 165.319 151.408 165.489C151.608 165.659 151.857 165.754 152.102 165.753C152.347 165.752 152.566 165.655 152.712 165.483C152.858 165.312 152.919 165.079 152.881 164.838C152.843 164.596 152.709 164.365 152.509 164.194C152.309 164.024 152.06 163.929 151.815 163.93C151.57 163.931 151.351 164.029 151.205 164.2ZM159.239 164.458C159.23 164.313 159.163 164.177 159.054 164.08C158.944 163.984 158.801 163.935 158.656 163.944L154.544 164.203C154.398 164.212 154.262 164.278 154.166 164.388C154.069 164.497 154.02 164.64 154.029 164.786L154.058 165.245C154.067 165.391 154.134 165.527 154.243 165.623C154.353 165.72 154.496 165.769 154.641 165.76L158.753 165.501C158.899 165.492 159.035 165.425 159.131 165.316C159.228 165.206 159.277 165.063 159.268 164.917L159.239 164.458Z" fill="#F5EDE2"/>
<path d="M144.658 149.252L143.298 151.172C142.098 149.785 140.818 149.035 139.458 148.922C131.164 148.262 126.994 147.932 126.948 147.932C124.208 147.932 121.548 148.472 121.588 151.562C121.598 151.992 122.028 152.332 122.418 152.432C122.464 152.692 122.458 152.965 122.398 153.252L119.938 150.992C119.748 147.862 120.848 146.532 124.058 146.242C128.771 145.815 133.474 145.665 138.168 145.792C141.041 145.872 143.204 147.025 144.658 149.252Z" fill="#824D37"/>
<path d="M169.998 147.332C174.612 147.418 178.482 148.295 181.608 149.962C187.015 152.835 189.622 157.138 189.428 162.872L162.228 153.132C162.183 153.112 162.147 153.08 162.128 153.042L161.898 152.642C161.853 152.57 161.786 152.517 161.708 152.492C159.508 151.778 157.488 150.698 155.648 149.252C160.342 148.105 165.125 147.465 169.998 147.332Z" fill="#D29D77"/>
<path d="M143.298 151.172C142.972 151.718 142.388 152.318 141.548 152.972C141.202 152.338 140.395 151.962 139.128 151.842C137.118 151.652 135.598 152.012 135.748 154.362C135.848 155.815 135.742 157.368 135.428 159.022C135.387 159.242 135.267 159.44 135.09 159.578C134.913 159.716 134.692 159.785 134.468 159.772H134.428C134.308 159.767 134.19 159.737 134.081 159.685C133.972 159.633 133.875 159.56 133.795 159.469C133.716 159.378 133.656 159.272 133.618 159.158C133.581 159.043 133.567 158.922 133.578 158.802L133.838 155.422C133.851 155.262 133.804 155.103 133.707 154.976C133.61 154.848 133.469 154.761 133.311 154.732C133.154 154.702 132.991 154.731 132.854 154.814C132.716 154.898 132.615 155.028 132.568 155.182L131.478 158.722C131.418 158.918 131.317 159.099 131.184 159.255C131.051 159.411 130.887 159.538 130.704 159.628C130.52 159.718 130.32 159.769 130.116 159.778C129.912 159.788 129.709 159.755 129.518 159.682L129.458 159.652C129.092 159.48 128.79 159.197 128.594 158.843C128.399 158.49 128.32 158.083 128.368 157.682L128.808 154.012C128.845 153.711 128.812 153.406 128.712 153.12C128.612 152.833 128.447 152.574 128.23 152.362C128.014 152.151 127.751 151.991 127.463 151.898C127.174 151.804 126.868 151.778 126.568 151.822L122.418 152.432C122.028 152.332 121.598 151.992 121.588 151.562C121.548 148.472 124.208 147.932 126.948 147.932C126.995 147.932 131.165 148.262 139.458 148.922C140.818 149.035 142.098 149.785 143.298 151.172Z" fill="#BB756F"/>
<path d="M141.548 152.972L138.288 156.262C137.947 156.603 137.693 157.025 137.548 157.492L136.688 160.332C136.635 160.504 136.554 160.666 136.448 160.812C135.441 162.172 134.185 163.298 132.678 164.192C132.569 164.257 132.474 164.344 132.399 164.447C132.324 164.549 132.269 164.666 132.24 164.79C132.21 164.914 132.205 165.042 132.225 165.168C132.246 165.293 132.291 165.414 132.358 165.522C135.628 170.712 142.718 173.062 148.008 173.042C149.381 173.035 151.035 173.145 152.968 173.372C153.067 173.382 153.16 173.425 153.231 173.494C153.302 173.563 153.348 173.655 153.361 173.753C153.373 173.852 153.352 173.952 153.301 174.037C153.25 174.122 153.171 174.187 153.078 174.222C152.231 174.535 151.171 174.768 149.898 174.922C145.625 175.428 139.868 175.142 132.628 174.062C130.781 173.782 128.745 173.998 126.518 174.712C125.311 175.092 122.491 175.242 118.058 175.162C114.951 175.108 112.088 174.475 109.468 173.262C109.411 173.233 109.365 173.185 109.338 173.127C109.312 173.068 109.306 173.002 109.323 172.94C109.339 172.878 109.377 172.823 109.429 172.785C109.48 172.747 109.544 172.728 109.608 172.732C117.138 173.442 126.348 172.472 131.218 165.732C131.304 165.614 131.364 165.479 131.394 165.336C131.425 165.193 131.424 165.045 131.393 164.901C131.362 164.758 131.301 164.622 131.214 164.504C131.127 164.385 131.016 164.285 130.888 164.212C127.498 162.252 127.188 159.002 125.608 156.282C125.528 156.156 125.431 156.038 125.318 155.932L122.398 153.252C122.458 152.965 122.465 152.692 122.418 152.432L126.568 151.822C126.868 151.778 127.174 151.804 127.462 151.898C127.751 151.991 128.013 152.151 128.23 152.362C128.447 152.574 128.612 152.833 128.712 153.12C128.812 153.406 128.845 153.711 128.808 154.012L128.368 157.682C128.319 158.083 128.398 158.49 128.594 158.843C128.79 159.197 129.092 159.48 129.458 159.652L129.518 159.682C129.709 159.755 129.912 159.788 130.116 159.778C130.32 159.769 130.52 159.718 130.703 159.628C130.887 159.538 131.051 159.411 131.184 159.255C131.317 159.099 131.417 158.918 131.478 158.722L132.568 155.182C132.615 155.028 132.716 154.898 132.853 154.814C132.99 154.731 133.153 154.702 133.311 154.732C133.468 154.761 133.609 154.848 133.707 154.976C133.804 155.103 133.851 155.262 133.838 155.422L133.578 158.802C133.567 158.922 133.581 159.043 133.618 159.158C133.655 159.272 133.716 159.378 133.795 159.469C133.875 159.56 133.972 159.633 134.081 159.685C134.189 159.737 134.308 159.767 134.428 159.772H134.468C134.692 159.785 134.913 159.716 135.09 159.578C135.267 159.44 135.387 159.242 135.428 159.022C135.741 157.368 135.848 155.815 135.748 154.362C135.598 152.012 137.118 151.652 139.128 151.842C140.395 151.962 141.201 152.338 141.548 152.972Z" fill="#573D20"/>
<path d="M106.058 155.072C106.138 154.085 106.398 153.425 106.838 153.092C106.91 153.038 106.994 153.002 107.082 152.987C107.17 152.971 107.261 152.977 107.347 153.003C107.433 153.03 107.511 153.076 107.575 153.138C107.64 153.2 107.689 153.277 107.718 153.362L108.108 154.482C108.142 154.576 108.203 154.659 108.285 154.718C108.366 154.777 108.463 154.81 108.563 154.813C108.663 154.817 108.762 154.79 108.847 154.736C108.932 154.682 108.999 154.604 109.038 154.512L109.398 153.612C109.482 153.412 109.639 153.252 109.836 153.168C110.033 153.084 110.253 153.081 110.448 153.162C111.428 153.555 112.212 154.125 112.798 154.872C112.861 154.951 112.901 155.047 112.913 155.147C112.924 155.248 112.908 155.35 112.866 155.442C112.823 155.534 112.756 155.613 112.672 155.669C112.588 155.726 112.49 155.758 112.388 155.762C111.882 155.782 111.458 155.708 111.118 155.542C110.759 155.362 110.347 155.326 109.968 155.442C108.962 155.748 107.825 155.825 106.558 155.672C106.413 155.657 106.28 155.585 106.186 155.473C106.093 155.361 106.047 155.217 106.058 155.072Z" fill="#7A7068"/>
<path d="M156.678 154.552C156.725 154.597 156.753 154.659 156.755 154.725C156.756 154.79 156.733 154.854 156.688 154.902L156.558 155.042C156.236 155.379 155.826 155.607 155.419 155.674C155.012 155.742 154.641 155.644 154.388 155.402L154.248 155.272C153.998 155.028 153.886 154.663 153.937 154.254C153.987 153.846 154.196 153.428 154.518 153.092L154.648 152.952C154.693 152.905 154.756 152.877 154.821 152.875C154.886 152.873 154.95 152.897 154.998 152.942L156.678 154.552Z" fill="#4F4747"/>
<path d="M162.148 154.002C162.328 154.355 162.308 154.672 162.088 154.952C162.053 154.996 162.01 155.033 161.96 155.061C161.91 155.088 161.855 155.106 161.798 155.112L158.788 155.542C158.67 155.559 158.549 155.549 158.435 155.513C158.322 155.477 158.217 155.416 158.13 155.334C158.043 155.253 157.975 155.153 157.931 155.042C157.888 154.93 157.869 154.811 157.878 154.692C157.931 154.012 158.175 153.542 158.608 153.282C158.948 153.082 159.355 153.258 159.828 153.812C160.348 154.418 160.981 154.448 161.728 153.902C161.762 153.878 161.801 153.862 161.842 153.854C161.883 153.846 161.925 153.847 161.964 153.856C162.004 153.866 162.041 153.884 162.073 153.909C162.105 153.934 162.13 153.966 162.148 154.002Z" fill="#83604A"/>
<path d="M105.848 155.742C105.662 155.975 105.025 155.965 103.938 155.712C103.612 155.638 103.462 155.402 103.488 155.002C103.515 154.628 103.612 154.335 103.778 154.122C103.945 153.908 104.208 153.745 104.568 153.632C104.948 153.505 105.215 153.592 105.368 153.892C105.875 154.885 106.035 155.502 105.848 155.742Z" fill="#83604A"/>
<path d="M151.764 154.026C151.126 153.846 150.499 154.093 150.363 154.577C150.227 155.061 150.634 155.598 151.272 155.778C151.91 155.957 152.537 155.71 152.673 155.226C152.809 154.743 152.402 154.205 151.764 154.026Z" fill="#4F4747"/>
<path d="M75.2679 171.912L75.7279 171.392C75.8283 171.273 75.8915 171.129 75.9093 170.975C75.9272 170.822 75.8988 170.668 75.8279 170.532L73.9879 166.832C73.8422 166.538 73.8138 166.2 73.9085 165.886C74.0033 165.572 74.214 165.306 74.4979 165.142C76.0712 164.228 76.2212 163.742 74.9479 163.682L95.5779 157.442C95.6436 157.42 95.7139 157.417 95.7814 157.432C95.8489 157.446 95.9113 157.479 95.9622 157.526C96.0131 157.573 96.0506 157.632 96.0709 157.698C96.0912 157.764 96.0936 157.834 96.0779 157.902C95.6712 159.715 95.7679 161.428 96.3679 163.042C96.4006 163.129 96.4148 163.222 96.4094 163.315C96.4041 163.408 96.3793 163.499 96.3368 163.581C96.2943 163.663 96.235 163.735 96.1628 163.792C96.0905 163.849 96.0071 163.89 95.9179 163.912C89.4312 165.578 82.8945 168.225 76.3079 171.852C76.1212 171.952 75.7745 171.972 75.2679 171.912Z" fill="#C3AE99"/>
<path d="M187.458 163.712C186.945 164.345 187.858 165.408 190.198 166.902C189.885 169.008 189.258 170.985 188.318 172.832L187.438 172.652C183.218 170.772 179.068 168.742 174.988 166.562C172.418 165.192 170.668 164.692 167.438 163.632C167.343 163.6 167.257 163.549 167.184 163.482C167.111 163.414 167.054 163.331 167.017 163.24C166.98 163.148 166.963 163.05 166.969 162.952C166.974 162.853 167.001 162.758 167.048 162.672C167.781 161.305 167.868 159.808 167.308 158.182C167.281 158.101 167.276 158.014 167.293 157.931C167.31 157.847 167.349 157.77 167.405 157.707C167.461 157.644 167.532 157.597 167.612 157.571C167.692 157.546 167.777 157.543 167.858 157.562C174.931 159.128 181.465 161.178 187.458 163.712Z" fill="#C3AE99"/>
<path d="M104.692 159.136C104.219 158.511 103.435 158.306 102.942 158.679C102.449 159.052 102.432 159.862 102.905 160.487C103.378 161.113 104.162 161.317 104.655 160.944C105.148 160.571 105.165 159.762 104.692 159.136Z" fill="#5E5553"/>
<path d="M111.175 159.197C110.785 158.522 110.055 158.215 109.543 158.511C109.031 158.806 108.932 159.592 109.321 160.267C109.711 160.941 110.441 161.248 110.953 160.953C111.465 160.657 111.564 159.871 111.175 159.197Z" fill="#83604A"/>
<path d="M159.589 158.462C158.904 158.442 158.336 158.882 158.319 159.445C158.302 160.008 158.844 160.481 159.528 160.501C160.213 160.522 160.781 160.082 160.798 159.519C160.815 158.955 160.273 158.483 159.589 158.462Z" fill="#5E5553"/>
<path d="M156.833 160.201C157.24 159.758 157.264 159.117 156.886 158.769C156.508 158.422 155.871 158.499 155.463 158.942C155.056 159.385 155.032 160.026 155.41 160.374C155.788 160.722 156.425 160.644 156.833 160.201Z" fill="#5E5553"/>
<path d="M113.408 160.542C113.894 160.542 114.288 160.148 114.288 159.662C114.288 159.176 113.894 158.782 113.408 158.782C112.922 158.782 112.528 159.176 112.528 159.662C112.528 160.148 112.922 160.542 113.408 160.542Z" fill="#877F81"/>
<path d="M153.838 159.932C153.838 160.025 153.832 160.088 153.818 160.122C153.742 160.375 153.57 160.589 153.338 160.718C153.107 160.846 152.834 160.88 152.578 160.812C151.478 160.518 150.935 160.192 150.948 159.832C150.955 159.478 151.518 159.188 152.638 158.962C152.898 158.911 153.167 158.963 153.389 159.106C153.611 159.25 153.769 159.474 153.828 159.732C153.842 159.765 153.845 159.832 153.838 159.932Z" fill="#5E5553"/>
<path d="M108.118 160.062C108.198 160.279 108.186 160.499 108.085 160.682C107.985 160.866 107.802 161 107.57 161.061C107.338 161.121 107.073 161.104 106.823 161.013C106.573 160.921 106.355 160.761 106.208 160.562C106.015 160.308 106.002 159.995 106.168 159.622C106.214 159.517 106.286 159.426 106.377 159.356C106.467 159.286 106.575 159.24 106.688 159.222C107.395 159.122 107.872 159.402 108.118 160.062Z" fill="#7A7068"/>
<path d="M58.2083 168.432C57.9817 169.345 57.645 169.925 57.1983 170.172C53.5783 172.205 50.0417 174.368 46.5883 176.662C46.5577 176.684 46.5365 176.717 46.5291 176.754C46.5217 176.791 46.5286 176.829 46.5483 176.862H46.5583C46.5763 176.892 46.6058 176.914 46.641 176.923C46.6762 176.932 46.7145 176.928 46.7483 176.912L60.7283 169.262L60.4283 170.142C60.3982 170.229 60.3961 170.323 60.4224 170.411C60.4488 170.5 60.5021 170.578 60.5751 170.634C60.648 170.69 60.7367 170.722 60.8288 170.725C60.9209 170.729 61.0117 170.703 61.0883 170.652L62.4583 169.792C62.5261 169.748 62.6069 169.729 62.6871 169.738C62.7673 169.747 62.842 169.783 62.8985 169.841C62.955 169.898 62.9898 169.974 62.997 170.054C63.0043 170.134 62.9836 170.215 62.9383 170.282C61.305 172.842 61.4183 175.478 63.2783 178.192C63.3587 178.31 63.4762 178.397 63.6121 178.441C63.7479 178.484 63.8945 178.481 64.0283 178.432L65.4383 177.912C65.445 178.012 65.455 178.105 65.4683 178.192C65.4851 178.267 65.5278 178.334 65.5885 178.38C65.6491 178.426 65.7237 178.448 65.7983 178.442L66.2183 178.412C64.6517 179.318 63.905 180.615 63.9783 182.302C63.998 182.651 63.9399 182.999 63.8083 183.322C60.7583 190.872 57.7983 198.732 55.5383 206.442C53.6917 212.735 51.8683 219.032 50.0683 225.332C49.3617 227.798 48.755 230.592 48.2483 233.712C38.0217 225.138 29.1983 215.388 21.7783 204.462C20.605 199.088 20.1583 194.428 20.4383 190.482C21.0883 181.302 27.2083 176.262 34.7983 172.042C41.205 168.475 47.445 164.582 53.5183 160.362L57.0283 167.942C57.0751 168.045 57.1431 168.137 57.2277 168.212C57.3122 168.286 57.4114 168.34 57.5183 168.372C57.7383 168.438 57.9683 168.458 58.2083 168.432Z" fill="#DEBEA0"/>
<path d="M112.559 165.662L104.569 165.232C104.387 165.219 104.216 165.14 104.089 165.01C103.961 164.879 103.887 164.706 103.88 164.524C103.872 164.341 103.932 164.163 104.048 164.022C104.164 163.882 104.328 163.789 104.509 163.762C104.929 163.702 105.282 163.802 105.569 164.062C105.666 164.148 105.784 164.206 105.912 164.233C106.04 164.259 106.173 164.252 106.299 164.212C108.005 163.652 109.985 163.448 112.239 163.602C112.461 163.616 112.673 163.699 112.845 163.839C113.017 163.979 113.141 164.169 113.199 164.382L113.299 164.742C113.329 164.854 113.333 164.972 113.309 165.086C113.285 165.199 113.235 165.306 113.163 165.396C113.09 165.486 112.998 165.557 112.893 165.603C112.788 165.649 112.673 165.669 112.559 165.662Z" fill="#918589"/>
<path d="M74.9485 163.682C76.2219 163.742 76.0719 164.228 74.4985 165.142C74.2147 165.306 74.0039 165.572 73.9092 165.886C73.8145 166.2 73.8428 166.538 73.9885 166.832L75.8285 170.532C75.8995 170.668 75.9278 170.822 75.91 170.975C75.8922 171.129 75.829 171.273 75.7285 171.392L75.2685 171.912L65.4385 177.912L64.0285 178.432C63.8947 178.481 63.7481 178.484 63.6123 178.441C63.4764 178.397 63.3589 178.31 63.2785 178.192C61.4185 175.478 61.3052 172.842 62.9385 170.282C62.9838 170.215 63.0045 170.134 62.9972 170.054C62.99 169.974 62.9552 169.898 62.8987 169.841C62.8422 169.783 62.7675 169.747 62.6873 169.738C62.6071 169.729 62.5263 169.748 62.4585 169.792L61.0885 170.652C61.0119 170.703 60.9211 170.729 60.829 170.725C60.7369 170.722 60.6482 170.69 60.5753 170.634C60.5023 170.578 60.449 170.5 60.4226 170.411C60.3963 170.323 60.3984 170.229 60.4285 170.142L60.7285 169.262L63.4185 168.232L63.1785 170.512C63.1693 170.612 63.1881 170.712 63.2327 170.802C63.2772 170.891 63.3459 170.967 63.431 171.02C63.5162 171.073 63.6143 171.101 63.7145 171.101C63.8148 171.102 63.9131 171.074 63.9985 171.022L70.2385 167.102C70.3312 167.043 70.4071 166.961 70.4584 166.864C70.5097 166.767 70.5346 166.659 70.5305 166.55C70.5264 166.441 70.4935 166.336 70.4352 166.245C70.3769 166.154 70.2952 166.08 70.1985 166.032C69.8652 165.858 69.4385 165.782 68.9185 165.802L74.9485 163.682Z" fill="#9E734F"/>
<path d="M152.509 164.194C152.093 163.84 151.508 163.843 151.204 164.2C150.9 164.558 150.991 165.135 151.407 165.489C151.824 165.843 152.408 165.841 152.712 165.483C153.016 165.126 152.925 164.549 152.509 164.194Z" fill="#757579"/>
<path d="M187.458 163.712L201.188 168.752C201.195 168.798 201.201 168.845 201.208 168.892C199.628 170.025 198.091 170.375 196.598 169.942C195.245 169.548 193.111 168.535 190.198 166.902C187.858 165.408 186.945 164.345 187.458 163.712Z" fill="#824D37"/>
<path d="M158.655 163.944L154.543 164.203C154.24 164.222 154.01 164.483 154.029 164.786L154.058 165.245C154.077 165.548 154.338 165.779 154.641 165.76L158.753 165.501C159.056 165.482 159.286 165.221 159.267 164.917L159.238 164.458C159.219 164.155 158.958 163.925 158.655 163.944Z" fill="#918589"/>
<path d="M115.138 186.792C109.025 189.252 103.848 193.048 99.6082 198.182C98.0682 200.042 96.5582 202.742 94.8082 204.872C92.2549 205.912 90.5149 204.528 89.5882 200.722C87.6282 196.235 85.0782 191.215 81.9382 185.662C81.1449 184.262 80.1915 183.188 79.0782 182.442C78.9501 182.351 78.844 182.233 78.7678 182.096C78.6917 181.959 78.6474 181.807 78.6382 181.652C78.5582 180.312 78.7949 178.985 79.3482 177.672C79.3415 177.312 79.4415 177.162 79.6482 177.222L85.5582 169.042C88.3182 167.695 91.5349 166.575 95.2082 165.682C95.2815 165.662 95.6482 165.538 96.3082 165.312C97.2415 164.992 97.9249 165.252 98.3582 166.092C98.7515 166.872 98.9682 167.285 99.0082 167.332C104.048 174.712 108.338 181.482 115.138 186.792Z" fill="#E5CBAC"/>
<path d="M181.698 171.492C182.698 173.685 184.118 175.688 185.958 177.502C185.412 178.548 185.168 179.502 185.228 180.362C185.235 180.487 185.198 180.611 185.122 180.711C185.047 180.811 184.938 180.881 184.816 180.909C184.693 180.936 184.565 180.92 184.454 180.862C184.343 180.804 184.256 180.708 184.208 180.592L183.268 178.202C183.226 178.107 183.151 178.029 183.057 177.984C182.963 177.939 182.856 177.929 182.755 177.955C182.654 177.982 182.566 178.043 182.506 178.129C182.446 178.214 182.419 178.318 182.428 178.422C182.708 180.375 183.105 181.512 183.618 181.832C183.698 181.88 183.755 181.956 183.78 182.046C183.804 182.135 183.793 182.23 183.748 182.312L174.008 200.932L172.398 202.922C172.106 203.28 171.688 203.513 171.232 203.573C170.776 203.633 170.316 203.514 169.948 203.242C167.868 201.702 166.258 200.222 164.368 198.042C159.902 192.882 154.705 189.042 148.778 186.522L153.068 182.122C153.108 182.089 153.145 182.048 153.178 182.002C155.625 178.782 158.112 175.785 160.638 173.012C162.848 170.592 164.418 167.902 165.738 165.682C165.9 165.413 166.146 165.204 166.438 165.089C166.731 164.973 167.054 164.957 167.358 165.042C172.918 166.608 177.698 168.758 181.698 171.492Z" fill="#E5CBAC"/>
<path d="M68.9181 165.802C69.4381 165.782 69.8647 165.858 70.1981 166.032C70.2948 166.08 70.3764 166.154 70.4348 166.245C70.4931 166.336 70.526 166.441 70.53 166.55C70.5341 166.659 70.5092 166.767 70.4579 166.864C70.4066 166.961 70.3307 167.043 70.2381 167.102L63.9981 171.022C63.9126 171.074 63.8143 171.102 63.7141 171.101C63.6139 171.101 63.5157 171.073 63.4306 171.02C63.3455 170.967 63.2768 170.891 63.2322 170.802C63.1876 170.712 63.1689 170.612 63.1781 170.512L63.4181 168.232L68.9181 165.802Z" fill="#73572D"/>
<path d="M201.208 168.892C202.168 169.212 203.105 169.735 204.018 170.462C204.392 170.763 204.645 171.187 204.733 171.658C204.821 172.129 204.738 172.617 204.498 173.032L201.428 178.362C201.2 178.754 200.826 179.041 200.388 179.159C199.95 179.277 199.483 179.217 199.088 178.992L188.318 172.832C189.258 170.985 189.885 169.008 190.198 166.902C193.112 168.535 195.245 169.548 196.598 169.942C198.092 170.375 199.628 170.025 201.208 168.892Z" fill="#9E734F"/>
<path d="M85.558 169.042L79.648 177.222C79.128 176.675 78.4414 176.365 77.588 176.292C77.4583 176.279 77.3383 176.218 77.2527 176.121C77.1672 176.025 77.1226 175.899 77.128 175.772C77.168 174.752 76.958 173.825 76.498 172.992C78.018 171.998 79.698 171.278 81.538 170.832C81.6577 170.805 81.7751 170.765 81.888 170.712L85.558 169.042Z" fill="#C3AE99"/>
<path d="M181.698 171.492L186.458 173.632C186.378 173.805 186.655 173.925 187.288 173.992C187.188 174.045 187.098 174.098 187.018 174.152C186.919 174.22 186.837 174.309 186.78 174.414C186.722 174.518 186.691 174.634 186.688 174.752C186.648 175.898 186.405 176.815 185.958 177.502C184.118 175.688 182.698 173.685 181.698 171.492Z" fill="#BA9A85"/>
<path d="M76.498 172.992C76.958 173.825 77.168 174.752 77.128 175.772C77.1226 175.899 77.1672 176.025 77.2527 176.121C77.3383 176.218 77.4583 176.279 77.588 176.292C78.4414 176.365 79.128 176.675 79.648 177.222C79.4414 177.162 79.3414 177.312 79.348 177.672L77.678 176.692C77.5354 176.61 77.3744 176.568 77.2124 176.57C77.0504 176.571 76.8933 176.617 76.758 176.702L73.648 178.652C73.4536 178.775 73.3054 178.966 73.228 179.192C72.2414 182.038 71.9514 184.138 72.358 185.492C72.918 187.338 74.2747 189.218 76.428 191.132L72.848 202.552C72.789 202.735 72.7787 202.935 72.818 203.132L74.798 211.802L69.688 211.532C69.5054 211.521 69.3224 211.547 69.1501 211.61C68.9778 211.672 68.8197 211.768 68.6852 211.893C68.5508 212.018 68.4427 212.17 68.3676 212.338C68.2925 212.506 68.2518 212.687 68.248 212.872L68.1581 217.692L68.098 207.962C68.093 207.881 68.0609 207.804 68.0069 207.744C67.9529 207.684 67.8802 207.643 67.8004 207.629C67.7207 207.616 67.6385 207.629 67.5674 207.667C67.4962 207.706 67.44 207.767 67.4081 207.842C63.3814 218.668 61.6847 229.908 62.318 241.562C62.325 241.699 62.2944 241.836 62.2296 241.958C62.1648 242.079 62.0681 242.181 61.95 242.252C61.8319 242.323 61.6968 242.36 61.559 242.36C61.4213 242.36 61.2862 242.323 61.168 242.252L54.748 238.362L52.6581 237.622L48.248 233.712C48.7547 230.592 49.3614 227.798 50.068 225.332C51.868 219.032 53.6914 212.735 55.538 206.442C57.798 198.732 60.758 190.872 63.808 183.322C63.9396 182.999 63.9977 182.651 63.978 182.302C63.9047 180.615 64.6514 179.318 66.218 178.412L76.498 172.992Z" fill="#AD724D"/>
<path d="M187.288 173.992L199.568 180.982L195.178 180.892C194.994 180.885 194.811 180.929 194.649 181.019C194.487 181.109 194.352 181.241 194.258 181.402C192.418 184.452 190.018 187.552 191.448 191.002C191.509 191.148 191.52 191.31 191.48 191.464C191.441 191.617 191.352 191.753 191.228 191.852C190.868 192.132 190.471 192.265 190.038 192.252C189.862 192.245 189.691 192.186 189.548 192.082L188.358 191.222L174.358 201.442C174.312 201.474 174.257 201.49 174.201 201.488C174.146 201.486 174.092 201.467 174.048 201.432C173.868 201.285 173.855 201.118 174.008 200.932L183.748 182.312C183.792 182.23 183.804 182.135 183.779 182.046C183.755 181.956 183.697 181.88 183.618 181.832C183.105 181.512 182.708 180.375 182.428 178.422C182.418 178.318 182.446 178.214 182.506 178.129C182.566 178.043 182.654 177.982 182.755 177.955C182.856 177.929 182.963 177.939 183.057 177.984C183.151 178.029 183.226 178.106 183.268 178.202L184.208 180.592C184.255 180.708 184.342 180.804 184.454 180.862C184.565 180.92 184.693 180.936 184.816 180.909C184.938 180.881 185.047 180.811 185.122 180.711C185.198 180.611 185.235 180.487 185.228 180.362C185.168 179.502 185.411 178.548 185.958 177.502C186.405 176.815 186.648 175.898 186.688 174.752C186.691 174.634 186.722 174.518 186.78 174.414C186.837 174.309 186.919 174.22 187.018 174.152C187.098 174.098 187.188 174.045 187.288 173.992Z" fill="#83604A"/>
<path d="M79.3477 177.672C78.7944 178.985 78.5577 180.312 78.6377 181.652C78.6469 181.807 78.6912 181.959 78.7674 182.096C78.8435 182.233 78.9496 182.351 79.0777 182.442C80.1911 183.188 81.1444 184.262 81.9377 185.662C85.0777 191.215 87.6277 196.235 89.5877 200.722C84.8677 198.362 80.4811 195.165 76.4277 191.132C74.2744 189.218 72.9177 187.338 72.3577 185.492C71.9511 184.138 72.2411 182.038 73.2277 179.192C73.3051 178.966 73.4532 178.775 73.6477 178.652L76.7577 176.702C76.893 176.617 77.0501 176.571 77.2121 176.57C77.3741 176.568 77.535 176.61 77.6777 176.692L79.3477 177.672Z" fill="#83604A"/>
<path d="M21.638 204.232C16.398 196.165 12.0746 187.648 8.66797 178.682C13.608 186.882 17.9313 195.398 21.638 204.232Z" fill="#CBBFAA"/>
<path d="M199.568 180.982C202.975 189.628 206.292 198.572 209.518 207.812C211.718 214.105 213.402 220.415 214.568 226.742C212.988 232.712 208.038 238.332 201.508 237.922C201.642 227.228 199.888 216.822 196.248 206.702C196.225 206.609 196.165 206.529 196.082 206.481C196 206.432 195.901 206.418 195.808 206.442C195.716 206.466 195.636 206.525 195.587 206.608C195.539 206.69 195.525 206.789 195.548 206.882L196.418 212.182L191.538 202.802C191.512 203.082 191.382 202.892 191.148 202.232L188.358 191.222L189.548 192.082C189.692 192.186 189.862 192.245 190.038 192.252C190.472 192.265 190.868 192.132 191.228 191.852C191.352 191.753 191.441 191.617 191.48 191.464C191.52 191.31 191.509 191.148 191.448 191.002C190.018 187.552 192.418 184.452 194.258 181.402C194.352 181.241 194.487 181.109 194.649 181.019C194.811 180.929 194.994 180.885 195.178 180.892L199.568 180.982Z" fill="#9E734F"/>
<path d="M148.778 186.522C154.704 189.042 159.901 192.882 164.368 198.042C166.258 200.222 167.868 201.702 169.948 203.242C170.315 203.514 170.775 203.633 171.231 203.573C171.687 203.513 172.105 203.28 172.398 202.922L174.008 200.932C173.854 201.118 173.868 201.285 174.048 201.432C174.091 201.467 174.145 201.486 174.201 201.488C174.257 201.49 174.312 201.474 174.358 201.442L188.358 191.222L191.148 202.232C173.334 208.005 155.064 210.475 136.338 209.642C122.324 209.022 108.481 207.432 94.8076 204.872C96.5576 202.742 98.0676 200.042 99.6076 198.182C103.848 193.048 109.024 189.252 115.138 186.792C126.338 193.165 137.551 193.075 148.778 186.522Z" fill="#C3AE99"/>
<path d="M76.4284 191.132C80.4817 195.165 84.8684 198.362 89.5884 200.722C90.515 204.528 92.255 205.912 94.8084 204.872C108.482 207.432 122.325 209.022 136.338 209.642C155.065 210.475 173.335 208.005 191.148 202.232C191.382 202.892 191.512 203.082 191.538 202.802C191.412 204.742 190.945 206.852 190.138 209.132C186.845 218.532 184.655 224.288 183.568 226.402C183.529 226.481 183.464 226.545 183.383 226.582C183.302 226.618 183.211 226.625 183.125 226.601C183.04 226.577 182.965 226.524 182.915 226.451C182.864 226.378 182.841 226.29 182.848 226.202L183.058 222.382C183.066 222.281 183.038 222.181 182.979 222.099C182.92 222.017 182.834 221.959 182.736 221.934C182.638 221.909 182.535 221.919 182.444 221.962C182.353 222.006 182.28 222.08 182.238 222.172C179.592 227.498 177.408 231.825 175.688 235.152C174.795 236.885 174.138 237.908 173.718 238.222C173.672 238.257 173.617 238.276 173.559 238.277C173.501 238.278 173.445 238.26 173.398 238.227C173.351 238.193 173.316 238.145 173.298 238.091C173.28 238.036 173.28 237.977 173.298 237.922C174.098 235.415 174.455 232.918 174.368 230.432C174.363 230.369 174.337 230.309 174.294 230.262C174.251 230.216 174.193 230.186 174.13 230.177C174.068 230.167 174.004 230.179 173.949 230.211C173.894 230.243 173.851 230.293 173.828 230.352C172.588 233.932 170.838 237.198 168.578 240.152C161.932 241.018 155.352 241.632 148.838 241.992C141.498 242.392 134.248 241.755 127.088 240.082C120.195 238.475 113.322 236.778 106.468 234.992C104.075 234.365 98.685 233.472 90.2984 232.312C90.225 234.572 90.6917 236.765 91.6984 238.892C91.7256 238.939 91.734 238.996 91.7219 239.049C91.7098 239.103 91.678 239.15 91.6328 239.182C91.5877 239.213 91.5324 239.226 91.4779 239.219C91.4234 239.212 91.3736 239.184 91.3384 239.142C90.0717 237.862 89.2284 236.745 88.8084 235.792C86.6417 230.818 84.435 226.285 82.1884 222.192C82.1032 222.035 81.9658 221.914 81.8002 221.848C81.6345 221.783 81.4511 221.778 81.282 221.834C81.1129 221.89 80.9689 222.003 80.875 222.155C80.7811 222.306 80.7434 222.485 80.7684 222.662L81.3784 227.012C81.3912 227.109 81.3678 227.209 81.3127 227.291C81.2576 227.373 81.1747 227.433 81.0801 227.458C80.9854 227.482 80.8858 227.471 80.8005 227.426C80.7152 227.38 80.6503 227.304 80.6184 227.212L74.7984 211.802L72.8184 203.132C72.779 202.935 72.7893 202.735 72.8484 202.552L76.4284 191.132Z" fill="#DEBEA0"/>
<path d="M196.419 212.182C196.659 220.675 193.869 227.945 188.049 233.992C182.042 240.232 177.119 244.488 173.279 246.762C168.352 249.688 163.372 252.582 158.339 255.442L152.479 259.452L168.579 240.152C170.839 237.198 172.589 233.932 173.829 230.352C173.852 230.293 173.894 230.243 173.949 230.211C174.004 230.179 174.068 230.167 174.13 230.177C174.193 230.186 174.251 230.216 174.294 230.262C174.337 230.309 174.364 230.369 174.369 230.432C174.455 232.918 174.099 235.415 173.299 237.922C173.28 237.977 173.28 238.036 173.298 238.091C173.316 238.145 173.351 238.193 173.398 238.227C173.445 238.26 173.501 238.278 173.559 238.277C173.617 238.276 173.673 238.257 173.719 238.222C174.139 237.908 174.795 236.885 175.689 235.152C177.409 231.825 179.592 227.498 182.239 222.172C182.28 222.08 182.353 222.006 182.444 221.962C182.535 221.919 182.639 221.909 182.736 221.934C182.834 221.959 182.92 222.017 182.979 222.099C183.038 222.181 183.066 222.281 183.059 222.382L182.849 226.202C182.841 226.29 182.864 226.378 182.915 226.451C182.965 226.524 183.04 226.577 183.125 226.601C183.211 226.625 183.302 226.618 183.383 226.582C183.464 226.545 183.53 226.481 183.569 226.402C184.655 224.288 186.845 218.532 190.139 209.132C190.945 206.852 191.412 204.742 191.539 202.802L196.419 212.182Z" fill="#966841"/>
<path d="M201.508 237.922L200.308 241.612C186.748 248.762 173.528 253.572 158.338 255.442C163.371 252.582 168.351 249.688 173.278 246.762C177.118 244.488 182.041 240.232 188.048 233.992C193.868 227.945 196.658 220.675 196.418 212.182L195.548 206.882C195.524 206.789 195.538 206.69 195.587 206.608C195.636 206.525 195.715 206.466 195.808 206.442C195.901 206.418 195.999 206.432 196.082 206.481C196.164 206.529 196.224 206.609 196.248 206.702C199.888 216.822 201.641 227.228 201.508 237.922Z" fill="#B58D6B"/>
<path d="M68.1581 217.692C68.5581 221.665 69.1047 224.375 69.798 225.822C72.6447 231.768 76.4681 236.525 81.2681 240.092C82.9614 241.352 86.478 243.452 91.818 246.392C97.168 249.332 102.428 252.952 107.568 256.532L102.408 256.952L80.978 250.802C75.138 248.882 69.4447 246.462 63.898 243.542C60.6314 242.248 57.5814 240.522 54.748 238.362L61.168 242.252C61.2862 242.323 61.4213 242.36 61.559 242.36C61.6968 242.36 61.8319 242.323 61.95 242.252C62.0681 242.181 62.1648 242.079 62.2296 241.958C62.2944 241.836 62.325 241.699 62.318 241.562C61.6847 229.908 63.3814 218.668 67.4081 207.842C67.44 207.767 67.4962 207.706 67.5674 207.667C67.6385 207.629 67.7207 207.615 67.8004 207.629C67.8802 207.643 67.9529 207.684 68.0069 207.744C68.0609 207.804 68.093 207.881 68.098 207.962L68.1581 217.692Z" fill="#B58D6B"/>
<path d="M74.7982 211.802L80.6182 227.212C80.6501 227.304 80.715 227.38 80.8003 227.426C80.8856 227.471 80.9853 227.482 81.0799 227.458C81.1745 227.433 81.2574 227.373 81.3125 227.291C81.3677 227.209 81.391 227.109 81.3782 227.012L80.7682 222.662C80.7432 222.485 80.7809 222.306 80.8748 222.155C80.9687 222.003 81.1128 221.89 81.2819 221.834C81.451 221.778 81.6343 221.783 81.8 221.848C81.9656 221.914 82.103 222.035 82.1882 222.192C84.4349 226.285 86.6415 230.818 88.8082 235.792C89.2282 236.745 90.0715 237.862 91.3382 239.142C91.3734 239.184 91.4232 239.212 91.4777 239.219C91.5322 239.226 91.5875 239.213 91.6326 239.182C91.6778 239.15 91.7096 239.103 91.7217 239.049C91.7339 238.996 91.7255 238.94 91.6982 238.892C90.6915 236.765 90.2249 234.572 90.2982 232.312L93.6782 238.272C93.7114 238.338 93.7551 238.402 93.8082 238.462L111.038 258.732C110.978 259.545 110.218 259.245 108.758 257.832L107.568 256.532C102.428 252.952 97.1682 249.332 91.8182 246.392C86.4782 243.452 82.9615 241.352 81.2682 240.092C76.4682 236.525 72.6449 231.768 69.7982 225.822C69.1049 224.375 68.5582 221.665 68.1582 217.692L68.2482 212.872C68.252 212.687 68.2927 212.506 68.3678 212.338C68.4429 212.17 68.5509 212.018 68.6854 211.893C68.8198 211.768 68.9779 211.672 69.1503 211.61C69.3226 211.548 69.5055 211.521 69.6882 211.532L74.7982 211.802Z" fill="#966841"/>
<path d="M199.228 244.822C187.358 251.522 175.938 257.542 162.178 259.072C175.598 255.512 187.368 251.642 198.508 243.742C198.735 243.579 199.009 243.495 199.288 243.502C205.068 243.602 209.488 239.572 214.788 235.022C214.838 234.977 214.87 234.915 214.875 234.848C214.881 234.781 214.86 234.714 214.818 234.662L214.808 234.652C214.769 234.609 214.716 234.582 214.659 234.576C214.601 234.571 214.544 234.587 214.498 234.622C210.028 238.112 205.868 241.222 200.308 241.612L201.508 237.922C208.038 238.332 212.988 232.712 214.568 226.742L215.658 233.752C215.682 233.903 215.671 234.058 215.624 234.204C215.577 234.35 215.496 234.483 215.388 234.592C210.458 239.572 205.678 243.342 199.228 244.822Z" fill="#A27F6B"/>
<path d="M168.578 240.152L152.478 259.452L149.438 262.072C138.965 263.618 128.385 263.742 117.698 262.442C116.618 262.308 115.581 262.028 114.588 261.602C114.389 261.516 114.204 261.401 114.038 261.262L111.038 258.732L93.8078 238.462C93.7548 238.402 93.711 238.338 93.6778 238.272L90.2979 232.312C98.6845 233.472 104.075 234.365 106.468 234.992C113.321 236.778 120.195 238.475 127.088 240.082C134.248 241.755 141.498 242.392 148.838 241.992C155.351 241.632 161.931 241.018 168.578 240.152Z" fill="#E5CBAC"/>
<path d="M162.178 259.072L152.408 262.162C151.275 261.922 150.285 261.892 149.438 262.072L152.478 259.452L158.339 255.442C173.529 253.572 186.748 248.762 200.308 241.612C205.868 241.222 210.028 238.112 214.498 234.622C214.544 234.587 214.602 234.571 214.659 234.576C214.717 234.582 214.77 234.609 214.808 234.652L214.818 234.662C214.861 234.714 214.882 234.781 214.876 234.848C214.871 234.915 214.839 234.977 214.788 235.022C209.488 239.572 205.068 243.602 199.288 243.502C199.009 243.495 198.736 243.579 198.508 243.742C187.368 251.642 175.598 255.512 162.178 259.072Z" fill="#BA9A85"/>
<path d="M54.7482 238.362C57.5815 240.522 60.6315 242.248 63.8982 243.542C71.4515 249.168 79.5215 253.242 88.1082 255.762C91.7482 256.828 97.0449 258.158 103.998 259.752C105.278 260.352 104.782 260.482 102.508 260.142C100.655 259.862 96.8949 258.998 91.2282 257.552C87.0215 256.478 83.3615 255.278 80.2482 253.952C70.4149 249.745 61.2182 244.302 52.6582 237.622L54.7482 238.362Z" fill="#A0978D"/>
<path d="M80.9784 250.802C84.1451 252.762 87.2584 254.155 90.3184 254.982C95.5184 256.382 100.078 257.972 103.998 259.752C97.0451 258.158 91.7484 256.828 88.1084 255.762C79.5218 253.242 71.4518 249.168 63.8984 243.542C69.4451 246.462 75.1384 248.882 80.9784 250.802Z" fill="#BA9A85"/>
<path d="M199.228 244.822C199.075 245.508 199.168 246.122 199.508 246.662C185.898 256.642 169.478 262.832 152.408 262.162L162.178 259.072C175.938 257.542 187.358 251.522 199.228 244.822Z" fill="#A0978D"/>
<path d="M107.568 256.532L108.758 257.832C106.552 258.158 104.435 257.865 102.408 256.952L107.568 256.532Z" fill="#BA9A85"/>
</svg>
