<svg width="266" height="263" viewBox="0 0 266 263" fill="none" xmlns="http://www.w3.org/2000/svg">
<path d="M253.381 77.9223L261.601 98.8722L262.221 104.392L260.761 99.5323C260.754 99.5115 260.74 99.4949 260.721 99.4853C260.702 99.4756 260.68 99.4736 260.658 99.4795C260.637 99.4855 260.617 99.4991 260.603 99.5179C260.589 99.5366 260.581 99.5595 260.581 99.5823L261.661 106.642C259.308 100.609 256.961 95.3857 254.621 90.9723C248.895 80.159 239.855 73.899 227.501 72.1923C218.175 70.9056 209.151 70.9023 200.431 72.1823C186.005 74.3023 172.675 75.7489 160.441 76.5223L152.951 71.7422C157.911 68.9822 161.165 65.8689 162.711 62.4023C164.711 57.9123 164.351 50.0323 158.161 49.4323C157.341 49.3523 155.518 50.0523 152.691 51.5323C150.898 52.4723 149.035 53.2455 147.101 53.8522C148.408 50.9589 149.565 48.2122 150.571 45.6122C152.121 41.5922 152.521 34.1623 147.161 32.8023C140.681 31.1623 135.111 42.0522 133.011 46.6423C132.99 46.6924 132.951 46.7335 132.903 46.7589C132.855 46.7844 132.799 46.7925 132.745 46.782C132.692 46.7715 132.643 46.743 132.608 46.7012C132.573 46.6594 132.553 46.6069 132.551 46.5523C132.421 42.4023 132.131 33.2023 128.631 31.0623C128.213 30.8078 127.715 30.6971 127.207 30.7454C126.698 30.7937 126.204 30.9988 125.791 31.3323C119.821 36.1823 117.221 46.7822 116.911 54.0022C108.558 59.0356 100.858 62.3722 93.8114 64.0122C86.9047 65.6122 77.4947 66.5557 65.5814 66.8423C52.1681 67.1557 38.7614 67.6189 25.3614 68.2322C23.2214 68.3322 20.8414 68.9123 19.3714 70.2923C17.4447 72.1056 14.8014 74.9923 11.4414 78.9523C15.1214 70.4856 19.6814 62.5789 25.1214 55.2322C27.7881 52.0122 30.4714 48.8089 33.1714 45.6222C48.4714 27.5722 68.9614 13.5723 91.4314 6.41227C98.1114 4.2856 106.468 2.51889 116.501 1.11222C123.941 0.0788879 130.931 -0.234387 137.471 0.17228C146.545 0.738947 153.528 1.47557 158.421 2.38224C169.691 4.47224 181.231 8.61222 192.251 13.9822C200.158 17.8356 208.451 23.3489 217.131 30.5223C225.478 37.4223 232.011 44.1356 236.731 50.6623C244.081 60.8223 248.921 67.6423 253.381 77.9223Z" fill="#F1CD99"/>
<path d="M147.101 53.8523C144.794 53.2323 142.724 54.3256 140.891 57.1323C137.384 62.4923 135.451 68.4456 135.091 74.9923C134.581 84.3723 134.651 89.1823 133.221 94.8223C133.192 94.9353 133.129 95.037 133.042 95.1146C132.955 95.1922 132.847 95.2422 132.731 95.2583C132.615 95.2743 132.498 95.2557 132.393 95.2048C132.288 95.1539 132.2 95.0731 132.141 94.9724C131.648 94.1124 131.324 93.219 131.171 92.2923C131.131 92.0271 131.054 91.771 130.941 91.5323C126.714 82.6323 124.181 77.3756 123.341 75.7623C122.254 73.6623 120.274 70.4023 117.401 65.9823C116.668 62.3356 116.504 58.3423 116.911 54.0023C117.221 46.7823 119.821 36.1824 125.791 31.3324C126.204 30.9988 126.698 30.7938 127.206 30.7454C127.715 30.6971 128.212 30.8078 128.631 31.0623C132.131 33.2023 132.421 42.4023 132.551 46.5523C132.552 46.607 132.572 46.6595 132.607 46.7013C132.643 46.743 132.691 46.7716 132.745 46.7821C132.798 46.7926 132.854 46.7844 132.902 46.759C132.951 46.7336 132.989 46.6924 133.011 46.6423C135.111 42.0523 140.681 31.1623 147.161 32.8023C152.521 34.1623 152.121 41.5923 150.571 45.6123C149.564 48.2123 148.408 50.9589 147.101 53.8523Z" fill="#D75041"/>
<path d="M152.95 71.7424C151.797 71.1624 150.544 70.9124 149.19 70.9924C144.54 71.2624 142.61 74.6024 140.13 78.9424C138.23 82.2624 136.964 85.3058 136.33 88.0724C135.37 92.2591 134.397 96.4191 133.41 100.552L131.59 100.202C128.9 89.3824 123.92 80.2724 118.7 70.6424L117.4 65.9823C120.274 70.4023 122.254 73.6624 123.34 75.7624C124.18 77.3757 126.714 82.6324 130.94 91.5324C131.053 91.7711 131.131 92.0272 131.17 92.2924C131.324 93.2191 131.647 94.1125 132.14 94.9725C132.199 95.0732 132.287 95.154 132.392 95.2049C132.497 95.2558 132.615 95.2744 132.731 95.2584C132.846 95.2423 132.954 95.1923 133.042 95.1147C133.129 95.0371 133.191 94.9354 133.22 94.8224C134.65 89.1824 134.58 84.3724 135.09 74.9924C135.45 68.4457 137.384 62.4924 140.89 57.1324C142.724 54.3257 144.794 53.2323 147.1 53.8523C149.034 53.2457 150.897 52.4724 152.69 51.5324C155.517 50.0524 157.34 49.3524 158.16 49.4324C164.35 50.0324 164.71 57.9124 162.71 62.4024C161.164 65.8691 157.91 68.9824 152.95 71.7424Z" fill="#A1342A"/>
<path d="M116.911 54.0022C116.504 58.3422 116.667 62.3355 117.401 65.9822L118.701 70.6422C97.7006 73.4722 90.1106 93.3822 86.6106 111.382C59.9806 114.502 39.2006 113.822 8.63058 113.202C4.24058 113.112 3.22059 110.272 2.60059 106.642L3.32056 102.952C5.16722 94.5656 7.87392 86.5656 11.4406 78.9523C14.8006 74.9923 17.4439 72.1056 19.3706 70.2922C20.8406 68.9122 23.2206 68.3322 25.3606 68.2322C38.7606 67.6188 52.1672 67.1556 65.5806 66.8423C77.4939 66.5556 86.9039 65.6122 93.8105 64.0122C100.857 62.3722 108.557 59.0355 116.911 54.0022Z" fill="#EDBC94"/>
<path d="M261.661 106.642L262.751 110.852C262.831 111.164 262.865 111.491 262.851 111.822C262.745 113.909 262.958 115.922 263.491 117.862C263.518 117.962 263.535 118.066 263.541 118.172L264.121 126.032C258.361 118.802 250.251 118.672 242.261 119.422C230.511 120.522 219.201 121.152 207.581 120.002C198.155 119.075 188.735 117.605 179.321 115.592C178.268 108.119 176.128 100.662 172.901 93.2222C170.015 86.5688 165.861 81.0021 160.441 76.5221C172.675 75.7487 186.005 74.3021 200.431 72.1821C209.151 70.9021 218.175 70.9055 227.501 72.1921C239.855 73.8988 248.895 80.1588 254.621 90.9722C256.961 95.3855 259.308 100.609 261.661 106.642Z" fill="#EDBC94"/>
<path d="M118.7 70.6421C123.92 80.2721 128.9 89.3821 131.59 100.202L127.38 108.462C127.34 108.542 127.278 108.608 127.201 108.655C127.125 108.701 127.037 108.725 126.947 108.724C126.858 108.723 126.771 108.697 126.695 108.649C126.62 108.601 126.559 108.533 126.52 108.452C123.23 101.472 116.85 92.1821 108.96 91.2521C99.3705 90.1221 96.0505 96.3522 95.3405 104.962C94.6905 112.812 94.0305 122.652 98.0805 129.712C101.267 135.252 105.807 139.256 111.7 141.722C111.745 141.74 111.785 141.768 111.817 141.804C111.85 141.839 111.874 141.882 111.888 141.929C111.903 141.976 111.907 142.025 111.9 142.074C111.894 142.123 111.877 142.17 111.851 142.212C108.277 147.865 106.591 153.942 106.791 160.442C107.011 167.762 110.11 173.982 117.52 175.682C121.56 176.602 124.74 175.152 126.71 171.662C128.65 168.209 129.681 164.812 129.801 161.472L131.82 156.252C131.842 156.188 131.884 156.132 131.939 156.093C131.995 156.053 132.061 156.033 132.129 156.034C132.197 156.035 132.263 156.058 132.317 156.099C132.371 156.14 132.411 156.197 132.43 156.262L134.34 162.092C133.374 166.132 132.864 169.155 132.81 171.162C132.577 179.529 132.504 193.695 132.59 213.662C132.637 223.342 132.624 233.009 132.551 242.662L132.541 244.532C123.454 237.905 117.044 229.405 113.31 219.032C113.273 218.934 113.208 218.848 113.124 218.786C113.039 218.723 112.938 218.686 112.834 218.68C112.73 218.674 112.627 218.698 112.537 218.75C112.448 218.802 112.376 218.879 112.33 218.972L107.32 229.042C107.256 229.17 107.163 229.281 107.048 229.367C106.933 229.452 106.8 229.509 106.66 229.534C106.52 229.558 106.376 229.549 106.24 229.507C106.105 229.465 105.982 229.391 105.88 229.292C99.3205 223.012 96.5305 215.492 94.1105 206.752C94.0591 206.572 93.9526 206.412 93.8059 206.295C93.6593 206.178 93.4799 206.11 93.2926 206.1C93.1054 206.09 92.9197 206.139 92.7616 206.24C92.6034 206.341 92.4807 206.488 92.4105 206.662C91.0505 210.082 89.0838 213.202 86.5105 216.022C86.3977 216.147 86.2552 216.242 86.096 216.297C85.9367 216.353 85.7659 216.367 85.5989 216.339C85.4319 216.312 85.2742 216.242 85.14 216.138C85.0058 216.034 84.8994 215.898 84.8305 215.742C82.0105 209.282 81.3305 203.222 80.8705 196.272C80.8608 196.133 80.8115 195.999 80.7283 195.887C80.645 195.775 80.5315 195.69 80.401 195.64C80.2705 195.591 80.1286 195.58 79.992 195.608C79.8555 195.637 79.73 195.704 79.6305 195.802L74.8305 200.592C74.7061 200.717 74.5501 200.806 74.3791 200.849C74.2081 200.892 74.0286 200.887 73.86 200.836C73.6913 200.784 73.5399 200.688 73.4219 200.557C73.304 200.426 73.224 200.265 73.1905 200.092L70.0405 183.782C73.1938 181.709 71.4572 180.905 64.8305 181.372C64.7095 181.382 64.5881 181.36 64.478 181.309C64.3679 181.258 64.2727 181.179 64.2015 181.079C64.1303 180.98 64.0854 180.864 64.0713 180.742C64.0571 180.62 64.074 180.496 64.1205 180.382C66.6805 174.362 68.8005 171.782 74.0705 163.782C77.1005 159.172 81.2705 150.992 82.1005 144.602C83.3005 135.402 84.4838 126.202 85.6505 117.002C85.8838 115.162 86.2038 113.289 86.6105 111.382C90.1105 93.3821 97.7005 73.4721 118.7 70.6421Z" fill="#F5E8D6"/>
<path d="M152.951 71.7421L160.441 76.5221C165.861 81.0021 170.014 86.5689 172.901 93.2222C176.127 100.662 178.267 108.119 179.321 115.592C179.534 118.266 179.821 120.892 180.181 123.472C181.151 130.352 181.161 136.012 182.401 143.012C183.074 146.819 183.991 150.019 185.151 152.612C187.437 157.712 188.877 160.732 189.471 161.672C193.297 167.725 196.831 173.775 200.071 179.822C200.102 179.882 200.122 179.948 200.127 180.015C200.132 180.083 200.122 180.151 200.1 180.215C200.077 180.279 200.042 180.337 199.995 180.387C199.949 180.436 199.893 180.475 199.831 180.502L193.001 183.382L192.171 199.042C192.159 199.255 192.1 199.463 191.998 199.652C191.896 199.84 191.753 200.006 191.579 200.136C191.405 200.267 191.204 200.36 190.988 200.409C190.773 200.458 190.549 200.463 190.331 200.422C188.891 200.152 186.391 197.012 184.851 195.232C184.784 195.155 184.696 195.101 184.597 195.077C184.498 195.053 184.395 195.06 184.3 195.097C184.206 195.135 184.125 195.2 184.07 195.285C184.014 195.37 183.987 195.471 183.991 195.572C184.231 202.499 182.754 209.119 179.561 215.432C179.435 215.682 179.245 215.895 179.01 216.047C178.775 216.2 178.504 216.287 178.224 216.301C177.944 216.314 177.666 216.252 177.417 216.123C177.169 215.993 176.96 215.799 176.811 215.562L171.091 206.452C171.051 206.386 170.992 206.334 170.921 206.304C170.85 206.274 170.771 206.268 170.695 206.285C170.62 206.303 170.55 206.344 170.498 206.402C170.445 206.461 170.411 206.534 170.401 206.612C169.534 214.285 166.331 221.365 160.791 227.852C160.051 228.719 159.411 229.165 158.871 229.192C158.237 229.225 157.617 228.755 157.011 227.782C156.591 227.095 155.124 224.249 152.611 219.242C152.543 219.103 152.436 218.987 152.303 218.909C152.17 218.83 152.017 218.792 151.863 218.8C151.708 218.807 151.56 218.859 151.435 218.951C151.31 219.042 151.215 219.167 151.161 219.312C147.621 228.472 141.784 236.295 133.651 242.782C133.504 242.895 133.334 242.942 133.141 242.922C132.934 242.902 132.737 242.815 132.551 242.662C132.624 233.009 132.637 223.342 132.591 213.662C132.504 193.695 132.577 179.529 132.811 171.162C132.864 169.155 133.374 166.132 134.341 162.092C135.331 166.592 136.231 171.722 140.111 174.682C143.891 177.572 149.561 176.042 152.551 172.482C156.051 168.312 156.801 163.672 157.071 158.262C157.191 155.855 157.137 154.259 156.911 153.472C155.724 149.372 154.591 145.279 153.511 141.192C160.401 138.192 167.561 131.852 168.731 124.162C169.284 120.542 169.574 114.879 169.601 107.172C169.621 100.662 168.221 94.4021 161.701 91.6821C159.374 90.7088 156.641 90.6255 153.501 91.4321C147.141 93.0721 141.561 101.902 138.851 107.652C138.804 107.752 138.729 107.835 138.635 107.892C138.541 107.949 138.432 107.977 138.323 107.973C138.213 107.969 138.107 107.932 138.017 107.868C137.928 107.804 137.86 107.715 137.821 107.612C137.167 105.905 136.151 104.319 134.771 102.852L133.411 100.552C134.397 96.4188 135.371 92.2588 136.331 88.0722C136.964 85.3055 138.231 82.2622 140.131 78.9422C142.611 74.6022 144.541 71.2621 149.191 70.9921C150.544 70.9121 151.797 71.1621 152.951 71.7421Z" fill="#C3AE99"/>
<path d="M153.511 141.192C151.557 137.825 150.034 134.182 148.941 130.262L155.251 129.532C155.362 129.518 155.469 129.476 155.56 129.41C155.651 129.344 155.723 129.255 155.77 129.153C155.817 129.051 155.837 128.938 155.829 128.826C155.82 128.714 155.783 128.606 155.721 128.512C155.341 127.939 154.797 127.466 154.091 127.092C147.891 123.786 142.181 119.682 136.961 114.782L135.971 113.452L134.621 111.582C134.472 111.375 134.398 111.124 134.411 110.872L134.771 102.852C136.151 104.319 137.167 105.905 137.821 107.612C137.86 107.715 137.928 107.804 138.017 107.868C138.106 107.932 138.213 107.969 138.322 107.973C138.432 107.977 138.541 107.949 138.635 107.892C138.729 107.835 138.804 107.751 138.851 107.652C141.561 101.902 147.141 93.0721 153.501 91.4321C156.641 90.6255 159.374 90.7088 161.701 91.6821C168.221 94.4021 169.621 100.662 169.601 107.172C169.574 114.879 169.284 120.542 168.731 124.162C167.561 131.852 160.401 138.192 153.511 141.192ZM152.341 112.222C154.607 113.856 157.001 114.235 159.521 113.362C163.031 112.142 163.481 107.432 162.981 104.172C162.747 102.672 162.071 101.715 160.951 101.302C154.671 98.9921 151.001 106.752 151.871 111.482C151.921 111.777 152.09 112.043 152.341 112.222Z" fill="#B3453B"/>
<path d="M131.591 100.202L133.411 100.552L134.771 102.852L134.411 110.872C134.398 111.124 134.472 111.375 134.621 111.582L135.971 113.452L133.781 111.242C133.634 111.092 133.457 110.974 133.262 110.895C133.067 110.816 132.858 110.779 132.648 110.784C132.438 110.79 132.231 110.839 132.041 110.928C131.85 111.017 131.68 111.144 131.541 111.302C126.674 116.795 121.228 121.239 115.201 124.632C113.641 125.512 111.794 126.582 109.661 127.842C109.514 127.931 109.405 128.069 109.353 128.231C109.301 128.394 109.311 128.568 109.381 128.722C109.608 129.229 110.194 129.595 111.141 129.822L116.771 132.472C117.644 134.999 119.284 137.992 121.691 141.452C123.671 144.285 125.564 148.222 127.371 153.262C127.664 154.089 128.058 155.462 128.551 157.382C128.891 158.709 129.308 160.072 129.801 161.472C129.681 164.812 128.651 168.209 126.711 171.662C124.741 175.152 121.561 176.602 117.521 175.682C110.111 173.982 107.011 167.762 106.791 160.442C106.591 153.942 108.278 147.866 111.851 142.212C111.877 142.17 111.894 142.123 111.901 142.074C111.907 142.025 111.903 141.976 111.889 141.929C111.875 141.882 111.85 141.839 111.818 141.804C111.786 141.768 111.746 141.74 111.701 141.722C105.808 139.256 101.268 135.252 98.0811 129.712C94.0311 122.652 94.6911 112.812 95.3411 104.962C96.0511 96.3522 99.3711 90.1221 108.961 91.2521C116.851 92.1821 123.231 101.472 126.521 108.452C126.56 108.533 126.62 108.601 126.696 108.649C126.771 108.697 126.859 108.723 126.948 108.724C127.037 108.725 127.125 108.701 127.202 108.655C127.278 108.608 127.34 108.542 127.381 108.462L131.591 100.202ZM105.02 101.037C104.336 101.285 103.718 101.695 103.202 102.245C102.686 102.795 102.282 103.473 102.013 104.241C101.744 105.009 101.615 105.852 101.634 106.721C101.653 107.59 101.818 108.469 102.122 109.308C102.425 110.146 102.861 110.928 103.403 111.608C103.945 112.287 104.584 112.852 105.282 113.27C105.98 113.688 106.725 113.95 107.473 114.042C108.221 114.134 108.958 114.054 109.642 113.807C110.326 113.559 110.944 113.149 111.46 112.599C111.976 112.049 112.38 111.371 112.649 110.603C112.918 109.835 113.047 108.993 113.028 108.123C113.01 107.254 112.844 106.375 112.54 105.536C112.237 104.698 111.801 103.917 111.259 103.237C110.717 102.557 110.079 101.992 109.38 101.574C108.682 101.156 107.937 100.894 107.189 100.802C106.441 100.71 105.704 100.79 105.02 101.037Z" fill="#D75041"/>
<path d="M262.221 104.392C262.468 106.305 262.788 108.209 263.181 110.102C263.661 112.415 263.984 114.309 264.151 115.782C264.578 119.549 264.841 122.259 264.941 123.912C265.341 130.445 265.111 136.966 264.251 143.472L264.121 126.032L263.541 118.172C263.534 118.066 263.518 117.962 263.491 117.862C262.958 115.922 262.744 113.909 262.851 111.822C262.864 111.491 262.831 111.164 262.751 110.852L261.661 106.642L260.581 99.5822C260.581 99.5594 260.589 99.5365 260.603 99.5178C260.617 99.499 260.637 99.4854 260.658 99.4794C260.68 99.4735 260.702 99.4755 260.72 99.4852C260.739 99.4948 260.754 99.5114 260.761 99.5322L262.221 104.392Z" fill="#DAB79A"/>
<path d="M151.871 111.482C151.001 106.752 154.671 98.9921 160.951 101.302C162.071 101.715 162.748 102.672 162.981 104.172C163.481 107.432 163.031 112.142 159.521 113.362C157.001 114.235 154.608 113.856 152.341 112.222C152.091 112.043 151.922 111.777 151.871 111.482ZM156.739 103.753C156.507 104.167 156.462 104.664 156.615 105.135C156.768 105.605 157.106 106.011 157.555 106.263C158.004 106.515 158.526 106.592 159.008 106.477C159.489 106.362 159.89 106.065 160.123 105.651C160.355 105.237 160.4 104.74 160.247 104.27C160.094 103.799 159.756 103.393 159.307 103.141C158.858 102.889 158.336 102.812 157.854 102.927C157.373 103.042 156.971 103.339 156.739 103.753Z" fill="#301A15"/>
<path d="M105.02 101.038C105.704 100.79 106.441 100.71 107.189 100.802C107.937 100.894 108.682 101.157 109.38 101.574C110.078 101.992 110.717 102.557 111.259 103.237C111.801 103.917 112.236 104.698 112.54 105.537C112.843 106.375 113.009 107.254 113.028 108.123C113.047 108.993 112.918 109.836 112.648 110.604C112.379 111.372 111.975 112.05 111.46 112.599C110.944 113.149 110.326 113.559 109.642 113.807C108.958 114.055 108.221 114.135 107.473 114.043C106.724 113.951 105.98 113.688 105.282 113.27C104.583 112.853 103.945 112.288 103.403 111.608C102.86 110.928 102.425 110.147 102.122 109.308C101.818 108.47 101.652 107.591 101.634 106.721C101.615 105.852 101.744 105.009 102.013 104.241C102.282 103.473 102.686 102.795 103.202 102.245C103.718 101.696 104.335 101.285 105.02 101.038ZM108.209 103.615C107.959 103.256 107.554 103.027 107.085 102.977C106.616 102.927 106.12 103.061 105.707 103.349C105.502 103.492 105.324 103.668 105.182 103.868C105.041 104.068 104.938 104.288 104.881 104.514C104.824 104.741 104.814 104.97 104.85 105.189C104.886 105.408 104.968 105.612 105.092 105.789C105.343 106.148 105.747 106.378 106.216 106.428C106.686 106.478 107.181 106.344 107.595 106.056C107.799 105.913 107.978 105.737 108.119 105.537C108.261 105.337 108.363 105.117 108.42 104.891C108.477 104.664 108.488 104.435 108.452 104.216C108.415 103.997 108.333 103.793 108.209 103.615Z" fill="#301A15"/>
<path d="M159.307 103.141C158.373 102.617 157.223 102.891 156.739 103.753C156.256 104.615 156.621 105.739 157.555 106.263C158.49 106.788 159.639 106.514 160.123 105.652C160.607 104.79 160.242 103.666 159.307 103.141Z" fill="#F5E8D6"/>
<path d="M107.595 106.055C108.455 105.455 108.73 104.363 108.209 103.615C107.688 102.868 106.567 102.749 105.707 103.349C104.846 103.949 104.571 105.042 105.092 105.789C105.614 106.537 106.734 106.656 107.595 106.055Z" fill="#FEFBEF"/>
<path d="M2.60095 106.642C3.22095 110.272 4.24095 113.112 8.63095 113.202C39.2009 113.822 59.9809 114.502 86.6109 111.382C86.2043 113.289 85.8843 115.162 85.6509 117.002C84.4843 126.202 83.301 135.402 82.101 144.602C81.271 150.992 77.1009 159.172 74.0709 163.782C68.8009 171.782 66.6809 174.362 64.1209 180.382C64.0745 180.496 64.0575 180.62 64.0717 180.742C64.0859 180.864 64.1307 180.98 64.2019 181.079C64.2731 181.179 64.3683 181.258 64.4784 181.309C64.5885 181.36 64.7099 181.382 64.8309 181.372C71.4576 180.905 73.1943 181.709 70.0409 183.782C59.3009 194.662 51.8209 207.209 47.6009 221.422L42.8809 227.132C36.7809 221.619 31.1509 215.585 25.9909 209.032C21.0309 202.045 17.1176 195.732 14.2509 190.092C7.90428 177.572 3.49092 163.742 1.01092 148.602C0.344255 144.495 0.0076095 139.895 0.00094283 134.802C-0.0190572 123.692 0.260949 116.902 2.60095 106.642Z" fill="#E9AE89"/>
<path d="M135.971 113.452L136.961 114.782C136.728 124.362 135.244 133.595 132.511 142.482C132.485 142.563 132.437 142.635 132.373 142.69C132.308 142.746 132.23 142.782 132.146 142.796C132.062 142.809 131.976 142.799 131.897 142.767C131.819 142.734 131.751 142.681 131.701 142.612C129.348 139.292 126.811 136.109 124.091 133.062C120.911 129.502 115.741 129.132 111.141 129.822C110.194 129.596 109.608 129.229 109.381 128.722C109.311 128.568 109.301 128.394 109.353 128.231C109.405 128.069 109.514 127.931 109.661 127.842C111.794 126.582 113.641 125.512 115.201 124.632C121.228 121.239 126.674 116.796 131.541 111.302C131.68 111.144 131.85 111.017 132.04 110.928C132.231 110.839 132.438 110.79 132.648 110.784C132.858 110.779 133.067 110.816 133.262 110.895C133.457 110.974 133.634 111.092 133.781 111.242L135.971 113.452Z" fill="#E2A35E"/>
<path d="M264.121 126.032L264.251 143.472L263.901 146.362L259.981 166.182L254.051 183.202L251.601 188.862C249.091 192.582 246.691 195.952 244.291 200.092C240.451 206.732 236.028 212.516 231.021 217.442C227.001 221.396 222.431 222.336 217.311 220.262C212.938 205.902 204.835 193.609 193.001 183.382L199.831 180.502C199.894 180.476 199.95 180.436 199.996 180.387C200.042 180.337 200.078 180.279 200.1 180.215C200.123 180.151 200.132 180.083 200.127 180.016C200.122 179.948 200.103 179.882 200.071 179.822C196.831 173.776 193.298 167.726 189.471 161.672C188.878 160.732 187.438 157.712 185.151 152.612C183.991 150.019 183.075 146.819 182.401 143.012C181.161 136.012 181.151 130.352 180.181 123.472C179.821 120.892 179.535 118.266 179.321 115.592C188.735 117.606 198.155 119.076 207.581 120.002C219.201 121.152 230.511 120.522 242.261 119.422C250.251 118.672 258.361 118.802 264.121 126.032Z" fill="#E9AE89"/>
<path d="M148.941 130.262C142.351 133.892 138.251 141.012 132.811 147.122C132.76 147.179 132.697 147.224 132.628 147.254C132.558 147.284 132.483 147.299 132.407 147.297C132.332 147.295 132.258 147.277 132.192 147.243C132.125 147.209 132.066 147.161 132.021 147.102C129.527 144.002 127.091 141.026 124.711 138.172C122.397 135.399 119.751 133.499 116.771 132.472L111.141 129.822C115.741 129.132 120.911 129.502 124.091 133.062C126.811 136.109 129.347 139.292 131.701 142.612C131.751 142.681 131.819 142.734 131.897 142.767C131.976 142.799 132.062 142.809 132.146 142.796C132.229 142.782 132.308 142.746 132.372 142.691C132.437 142.635 132.485 142.563 132.511 142.482C135.244 133.596 136.727 124.362 136.961 114.782C142.181 119.682 147.891 123.786 154.091 127.092C154.797 127.466 155.341 127.939 155.721 128.512C155.783 128.606 155.82 128.714 155.829 128.826C155.837 128.938 155.817 129.051 155.77 129.153C155.723 129.256 155.651 129.344 155.56 129.41C155.469 129.477 155.362 129.519 155.251 129.532L148.941 130.262Z" fill="#D78946"/>
<path d="M148.941 130.262C150.035 134.182 151.558 137.826 153.511 141.192C154.591 145.279 155.725 149.372 156.911 153.472C157.138 154.259 157.191 155.856 157.071 158.262C156.801 163.672 156.052 168.312 152.552 172.482C149.562 176.042 143.892 177.572 140.112 174.682C136.232 171.722 135.331 166.592 134.341 162.092L132.431 156.262C132.412 156.197 132.372 156.14 132.318 156.099C132.264 156.058 132.198 156.035 132.13 156.034C132.062 156.033 131.996 156.053 131.94 156.093C131.885 156.132 131.843 156.188 131.821 156.252L129.802 161.472C129.308 160.072 128.892 158.709 128.552 157.382C128.058 155.462 127.665 154.089 127.371 153.262C125.565 148.222 123.671 144.286 121.691 141.452C119.285 137.992 117.645 134.999 116.771 132.472C119.751 133.499 122.398 135.399 124.711 138.172C127.091 141.026 129.528 144.002 132.021 147.102C132.067 147.161 132.126 147.209 132.192 147.243C132.259 147.277 132.333 147.295 132.408 147.297C132.484 147.299 132.559 147.284 132.628 147.254C132.698 147.224 132.761 147.179 132.811 147.122C138.251 141.012 142.351 133.892 148.941 130.262Z" fill="#A1342A"/>
<path d="M263.9 146.362L262.45 156.462L259.98 166.182L263.9 146.362Z" fill="#C3AE99"/>
<path d="M262.451 156.462C261.817 161.156 260.487 166.592 258.461 172.772C257.041 177.112 255.571 180.589 254.051 183.202L259.981 166.182L262.451 156.462Z" fill="#BDB09B"/>
<path d="M70.0409 183.782L73.1909 200.092C73.2244 200.265 73.3044 200.426 73.4223 200.557C73.5403 200.688 73.6917 200.785 73.8603 200.836C74.029 200.887 74.2085 200.892 74.3794 200.849C74.5504 200.806 74.7065 200.717 74.8309 200.592L79.6309 195.802C79.7304 195.704 79.8558 195.637 79.9924 195.608C80.1289 195.58 80.2709 195.591 80.4014 195.64C80.5318 195.69 80.6454 195.775 80.7286 195.887C80.8118 195.999 80.8612 196.133 80.8709 196.272C81.3309 203.222 82.0109 209.282 84.8309 215.742C84.8997 215.898 85.0061 216.034 85.1403 216.138C85.2746 216.242 85.4323 216.312 85.5993 216.339C85.7663 216.367 85.9371 216.353 86.0963 216.297C86.2555 216.242 86.398 216.147 86.5109 216.022C89.0842 213.202 91.0509 210.082 92.4109 206.662C92.4811 206.488 92.6038 206.341 92.762 206.24C92.9201 206.139 93.1058 206.091 93.293 206.1C93.4803 206.11 93.6597 206.178 93.8063 206.295C93.953 206.412 94.0594 206.572 94.1109 206.752C96.5309 215.492 99.3209 223.012 105.881 229.292C105.982 229.391 106.105 229.465 106.241 229.507C106.376 229.549 106.52 229.558 106.66 229.534C106.801 229.509 106.934 229.452 107.048 229.367C107.163 229.281 107.257 229.17 107.321 229.042L112.331 218.972C112.376 218.879 112.448 218.802 112.538 218.75C112.627 218.698 112.73 218.674 112.835 218.68C112.939 218.686 113.039 218.723 113.124 218.786C113.209 218.848 113.274 218.934 113.311 219.032C117.044 229.406 123.454 237.906 132.541 244.532L133.181 262.682C109.928 262.742 88.1242 256.962 67.7709 245.342C62.1909 242.162 56.8609 238.662 51.7809 234.842C49.9009 233.269 48.0675 231.679 46.2809 230.072C45.9142 229.739 45.6709 229.336 45.5509 228.862C45.5467 228.841 45.536 228.822 45.5202 228.808C45.5045 228.793 45.4845 228.784 45.4633 228.782C45.442 228.78 45.4206 228.785 45.4022 228.795C45.3838 228.806 45.3693 228.823 45.3609 228.842C45.3075 228.942 45.3175 229.059 45.3909 229.192C45.1375 229.106 44.9609 228.972 44.8609 228.792C44.8293 228.734 44.8161 228.667 44.8231 228.601C44.8301 228.535 44.8569 228.473 44.8999 228.423C44.9428 228.374 44.9997 228.339 45.0626 228.325C45.1255 228.31 45.1913 228.316 45.2509 228.342C45.2975 228.362 45.3842 228.379 45.5109 228.392C45.5359 228.395 45.5612 228.389 45.5816 228.374C45.602 228.359 45.616 228.337 45.6209 228.312L47.6009 221.422C51.8209 207.209 59.3009 194.662 70.0409 183.782Z" fill="#F5EDE2"/>
<path d="M193.001 183.382C204.834 193.609 212.938 205.902 217.311 220.262L219.511 229.342L218.221 230.962C194.601 251.352 164.461 262.082 133.181 262.682L132.541 244.532L132.551 242.662C132.738 242.816 132.934 242.902 133.141 242.922C133.334 242.942 133.504 242.896 133.651 242.782C141.784 236.296 147.621 228.472 151.161 219.312C151.215 219.168 151.31 219.042 151.435 218.951C151.56 218.86 151.709 218.807 151.863 218.8C152.017 218.792 152.17 218.83 152.303 218.909C152.436 218.988 152.543 219.103 152.611 219.242C155.124 224.249 156.591 227.096 157.011 227.782C157.618 228.756 158.238 229.226 158.871 229.192C159.411 229.166 160.051 228.719 160.791 227.852C166.331 221.366 169.534 214.286 170.401 206.612C170.411 206.534 170.445 206.461 170.498 206.403C170.551 206.344 170.62 206.303 170.696 206.285C170.771 206.268 170.85 206.274 170.921 206.304C170.992 206.334 171.051 206.386 171.091 206.452L176.811 215.562C176.96 215.8 177.169 215.993 177.417 216.123C177.666 216.253 177.944 216.314 178.224 216.301C178.504 216.288 178.775 216.2 179.01 216.048C179.245 215.895 179.435 215.683 179.561 215.432C182.754 209.119 184.231 202.499 183.991 195.572C183.987 195.471 184.015 195.371 184.07 195.286C184.126 195.201 184.206 195.135 184.3 195.098C184.395 195.06 184.499 195.053 184.597 195.077C184.696 195.101 184.785 195.156 184.851 195.232C186.391 197.012 188.891 200.152 190.331 200.422C190.549 200.463 190.773 200.459 190.989 200.409C191.204 200.36 191.405 200.267 191.579 200.136C191.754 200.006 191.896 199.841 191.998 199.652C192.1 199.463 192.159 199.255 192.171 199.042L193.001 183.382Z" fill="#E7D7BF"/>
<path d="M251.601 188.862L251.351 189.842C243.201 205.012 233.121 218.702 219.511 229.342L217.311 220.262C222.431 222.336 227.001 221.396 231.021 217.442C236.027 212.516 240.451 206.732 244.291 200.092C246.691 195.952 249.091 192.582 251.601 188.862Z" fill="#D29D77"/>
<path d="M42.8812 227.132L43.5912 228.112C36.3979 222.746 30.5312 216.386 25.9912 209.032C31.1512 215.586 36.7812 221.619 42.8812 227.132Z" fill="#A0978D"/>
<path d="M47.6009 221.422L45.6208 228.312C45.616 228.337 45.6019 228.359 45.5815 228.374C45.5611 228.389 45.5359 228.395 45.5108 228.392C45.3842 228.379 45.2975 228.362 45.2509 228.342C45.1913 228.316 45.1255 228.31 45.0626 228.325C44.9996 228.339 44.9428 228.374 44.8998 228.423C44.8569 228.473 44.8301 228.535 44.8231 228.601C44.8161 228.667 44.8293 228.734 44.8608 228.792C44.9608 228.972 45.1375 229.106 45.3908 229.192C44.6308 228.952 44.0309 228.592 43.5909 228.112L42.8809 227.132L47.6009 221.422Z" fill="#CEA78B"/>
</svg>
