<svg width="268" height="270" viewBox="0 0 268 270" fill="none" xmlns="http://www.w3.org/2000/svg">
<g opacity="0.2">
<path d="M267.51 129.287L265.94 136.497C263.18 129.083 259.503 122.147 254.91 115.687L256.28 108.687C256.153 104.627 255.147 100.4 253.26 96.0067C249.173 86.48 244.553 78.1 239.4 70.8667C235.653 65.6067 230.8 60.34 224.84 55.0667C212.13 43.8267 193.26 45.1667 178.17 49.1867C175.657 49.8533 172.57 51.1334 168.91 53.0267L167.76 53.3967C167.452 53.4928 167.119 53.4641 166.83 53.3167C157.443 48.43 147.303 46.1167 136.41 46.3767C124.723 45.79 113.66 48.3167 103.22 53.9567C100.493 51.95 97.9832 50.57 95.6898 49.8167C80.9198 44.9567 61.5799 43.3167 48.3599 53.3667C41.3532 58.6867 35.1966 65.45 29.8899 73.6566C23.3499 83.7766 18.4499 91.4667 15.3899 102.107C10.3632 106.813 7.15658 112.087 5.76991 117.927C3.93658 125.607 2.99999 134.997 2.99995 144.497C0.49995 142.997 0.5 140.497 4.32553e-09 139.497C0 136.497 0.499972 133.997 1.02992 125.937C2.39658 116.45 3.61322 110.343 4.67988 107.617C5.97988 104.327 7.44987 101.057 8.53987 97.7567C12.7899 84.8267 15.8299 77.4566 21.4099 66.9066C25.0299 60.0666 30.3499 53.6167 35.5599 46.5267C37.7999 43.48 39.9165 40.9367 41.9099 38.8967C75.0399 5.01669 124.4 -7.28334 170.01 4.17666C174.117 5.20999 180.723 7.68999 189.83 11.6167C198.24 15.2467 205.86 20.7366 214.14 26.3466C217.393 28.5466 220.027 30.5933 222.04 32.4867C230.3 40.2467 237.433 48.2033 243.44 56.3567C245.013 58.4833 247.983 63.5067 252.35 71.4267C256.85 79.5967 258.26 87.2966 261.69 96.4166C262.723 99.1633 263.623 103.057 264.39 108.097C265.457 115.163 266.497 122.227 267.51 129.287Z" fill="#CFB9A8"/>
<path d="M103.22 53.9566C96.7936 58.5566 92.0869 64.8633 89.1003 72.8766C86.3936 71.9033 83.8636 71.5133 81.5103 71.7066C77.5436 69.0933 73.8303 67.1499 70.3703 65.8766C61.6903 62.6766 54.0803 65.0466 46.8303 70.0666C40.4303 74.4933 34.7503 80.1166 29.7903 86.9366C25.8969 91.7166 22.0503 97.0699 18.2503 102.997C17.7703 103.757 17.0503 104.503 16.0903 105.237C15.8224 105.446 15.6182 105.723 15.5003 106.037L14.8203 107.797L15.3903 102.107C18.4503 91.4666 23.3503 83.7766 29.8903 73.6566C35.197 65.4499 41.3536 58.6866 48.3603 53.3666C61.5803 43.3166 80.9203 44.9566 95.6903 49.8166C97.9836 50.5699 100.494 51.9499 103.22 53.9566Z" fill="#918589"/>
<path d="M136.41 46.3766C136.39 59.2833 136.44 72.2233 136.56 85.1966C136.594 88.67 136.72 92.3066 136.94 96.1066C137.27 101.567 137.93 106.997 137.04 112.437C129.84 111.907 121.44 114.047 116.06 119.037C115.996 119.085 115.951 119.155 115.937 119.235C115.922 119.314 115.937 119.396 115.98 119.464C116.023 119.532 116.09 119.582 116.168 119.603C116.246 119.623 116.329 119.614 116.4 119.577C123.48 116.767 129.98 114.887 137.69 115.397C139.264 118.943 139.17 122.363 137.41 125.657C132.01 125.277 120.4 126.587 117.7 132.427C117.671 132.487 117.664 132.556 117.678 132.621C117.693 132.687 117.729 132.745 117.78 132.788C117.832 132.831 117.897 132.855 117.964 132.856C118.031 132.858 118.097 132.837 118.15 132.797C120.964 130.817 124.057 129.35 127.43 128.397C130.52 133.377 127.7 136.667 124.37 140.297L121.35 141.537C115.61 137.843 110.877 133.127 107.15 127.387L109.7 119.027C109.846 118.543 109.917 118.04 109.91 117.537C109.83 113.55 108.677 109.783 106.45 106.237C102.024 99.1766 96.1637 97.7399 88.8704 101.927C88.7571 101.988 88.6274 102.011 88.4998 101.994C88.3722 101.977 88.2532 101.92 88.16 101.832C88.0668 101.743 88.004 101.627 87.9808 101.5C87.9575 101.373 87.9749 101.243 88.0304 101.127C89.5104 98.1666 90.5804 96.0766 92.6204 93.4866C98.1337 86.5066 101.46 82.0466 102.6 80.1066C104.38 77.0933 106.28 73.7433 108.3 70.0566C108.7 69.3299 109 68.3299 109.2 67.0566C109.21 66.9892 109.204 66.9205 109.183 66.8557C109.162 66.7909 109.126 66.7317 109.079 66.6826C109.032 66.6335 108.974 66.5958 108.91 66.5722C108.847 66.5487 108.778 66.5399 108.71 66.5466C107.144 66.7333 105.847 67.0033 104.82 67.3566C99.7337 69.0899 94.4937 70.9299 89.1004 72.8766C92.087 64.8633 96.7937 58.5566 103.22 53.9566C113.66 48.3166 124.724 45.7899 136.41 46.3766Z" fill="#A29C9C"/>
<path d="M168.91 53.0266L168.76 53.4266C168.706 53.5748 168.697 53.7353 168.732 53.888C168.768 54.0408 168.847 54.1793 168.96 54.2865C174.267 59.3599 178.433 65.3999 181.46 72.4065C180.247 72.8532 178.7 72.6199 176.82 71.7066C171.993 69.3533 167.277 67.5132 162.67 66.1866C162.283 66.0732 161.963 66.0566 161.71 66.1366C161.631 66.1605 161.559 66.2008 161.496 66.2551C161.434 66.3093 161.384 66.3763 161.349 66.4516C161.314 66.527 161.296 66.609 161.294 66.6926C161.292 66.7761 161.308 66.8592 161.34 66.9366C164.21 73.8766 167.9 80.3165 172.66 86.1565C177.2 91.7465 182.1 96.2866 181.77 102.057C181.766 102.13 181.742 102.201 181.699 102.261C181.657 102.321 181.598 102.368 181.53 102.397C181.462 102.425 181.388 102.433 181.315 102.421C181.242 102.408 181.175 102.376 181.12 102.327C178.94 100.467 176.293 99.5399 173.18 99.5466C166.51 99.5466 163.29 107.847 161.76 113.597C160.91 116.767 161.63 120.337 162.59 123.457C165.09 131.63 167.79 139.837 170.69 148.077C171.497 152.057 172.597 156.053 173.99 160.067C174.53 161.613 174.58 162.903 174.14 163.937C173.58 165.257 172.633 166.493 171.3 167.647L170.46 167.637C170.129 167.637 169.81 167.742 169.55 167.937C166.39 170.29 163.68 173.247 161.42 176.807L160.55 176.067C160.459 175.988 160.35 175.934 160.232 175.908C160.115 175.882 159.993 175.885 159.877 175.918C159.761 175.951 159.655 176.011 159.568 176.095C159.482 176.178 159.417 176.282 159.38 176.397C154.687 190.383 152.383 204.49 152.47 218.717C152.52 226.127 154.76 233.707 162.48 236.327C164.113 237.013 165.59 237.093 166.91 236.567C171.14 234.877 170.43 226.507 174.74 225.927C178.913 225.367 182.357 226.577 185.07 229.557C187.09 231.777 187.56 234.067 186.48 236.427C184.787 240.1 182.617 243.933 179.97 247.927C175.54 254.597 166.48 257.797 158.75 257.687C156.377 257.653 154.05 257.6 151.77 257.527C133.51 253.247 123.83 239.677 120.39 221.867C119.57 217.647 118.167 209.593 116.18 197.707C115.03 190.837 113.41 183.857 111.77 176.987C111.47 175.74 110.767 175.593 109.66 176.547C107.347 172.34 104.183 169.17 100.17 167.037C98.8768 166.177 97.7701 164.987 96.8501 163.467C96.6805 163.18 96.6004 162.846 96.6201 162.507C96.9001 158.227 98.6701 154.127 99.8501 150.017L107.15 127.387C110.877 133.127 115.61 137.843 121.35 141.537L115.29 145.527C115.233 145.565 115.19 145.621 115.167 145.686C115.143 145.751 115.141 145.822 115.16 145.887C115.179 145.952 115.219 146.009 115.273 146.049C115.327 146.088 115.393 146.109 115.46 146.107C117.44 146.107 119.49 144.627 122.66 143.007C123.887 142.373 125.72 141.933 128.16 141.687C135.36 140.96 141.803 141.387 147.49 142.967C148.643 143.293 151.167 144.393 155.06 146.267C155.068 146.269 155.076 146.269 155.083 146.267C155.091 146.265 155.096 146.262 155.1 146.257L155.31 146.007C155.332 145.979 155.349 145.947 155.359 145.913C155.369 145.879 155.373 145.844 155.369 145.808C155.365 145.773 155.355 145.739 155.338 145.708C155.321 145.676 155.298 145.649 155.27 145.627C146.21 138.717 135.21 137.307 124.37 140.297C127.7 136.667 130.52 133.377 127.43 128.397C137.37 126.767 145.43 129.097 154.22 133.497C154.318 133.546 154.431 133.559 154.537 133.531C154.643 133.504 154.735 133.438 154.797 133.347C154.858 133.256 154.884 133.146 154.87 133.037C154.856 132.929 154.803 132.829 154.72 132.757C149.76 128.31 143.99 125.943 137.41 125.657C139.17 122.363 139.263 118.943 137.69 115.397C144.11 116.017 147.79 117.617 152.98 119.317C153.067 119.351 153.165 119.352 153.253 119.32C153.341 119.287 153.414 119.223 153.457 119.139C153.501 119.056 153.512 118.96 153.488 118.869C153.465 118.778 153.408 118.698 153.33 118.647C148.343 114.907 142.913 112.837 137.04 112.437C137.93 106.997 137.27 101.567 136.94 96.1066C136.72 92.3066 136.593 88.6699 136.56 85.1966C136.44 72.2232 136.39 59.2832 136.41 46.3766C147.303 46.1166 157.443 48.4299 166.83 53.3166C167.119 53.464 167.453 53.4927 167.76 53.3966L168.91 53.0266ZM155.65 159.657C154.45 158.39 153.38 157.52 152.44 157.047C141.64 151.653 130.87 151.247 120.13 155.827C118.797 156.393 117.653 157.203 116.7 158.257C116.643 158.317 116.607 158.393 116.597 158.475C116.587 158.557 116.603 158.641 116.643 158.713C116.683 158.785 116.745 158.843 116.82 158.878C116.895 158.913 116.979 158.923 117.06 158.907C120.24 158.327 122.55 157.147 125.72 156.577C133.54 155.167 142.7 154.977 149.67 158.127C152.65 159.48 154.483 160.257 155.17 160.457C155.271 160.486 155.378 160.481 155.475 160.443C155.572 160.404 155.654 160.335 155.708 160.244C155.763 160.154 155.786 160.047 155.776 159.941C155.765 159.835 155.721 159.735 155.65 159.657ZM119.72 173.327C121.853 171.873 123.977 171.023 126.09 170.777C130.703 170.237 135.657 170.137 140.95 170.477C144.32 170.697 148.19 172.277 151.18 172.907C151.257 172.923 151.337 172.918 151.412 172.894C151.487 172.869 151.555 172.825 151.607 172.766C151.66 172.708 151.696 172.636 151.713 172.559C151.729 172.482 151.725 172.402 151.7 172.327C151.15 170.617 147.01 169.267 144.82 168.727C136.04 166.557 126.33 166.577 119.26 172.697C119.224 172.728 119.196 172.768 119.178 172.812C119.16 172.856 119.152 172.904 119.156 172.951C119.16 172.998 119.175 173.043 119.2 173.082C119.225 173.122 119.26 173.154 119.3 173.177L119.57 173.337C119.595 173.349 119.622 173.354 119.648 173.352C119.674 173.351 119.699 173.342 119.72 173.327ZM135.37 185.737C139.457 185.697 143.54 185.917 147.62 186.397C148.3 186.477 148.86 186.46 149.3 186.347C149.418 186.316 149.524 186.249 149.603 186.155C149.681 186.061 149.729 185.945 149.739 185.823C149.749 185.702 149.72 185.58 149.658 185.474C149.595 185.369 149.502 185.286 149.39 185.237C145.09 183.303 140.407 182.36 135.34 182.407C130.267 182.447 125.6 183.47 121.34 185.477C121.229 185.528 121.136 185.613 121.075 185.719C121.014 185.826 120.987 185.949 121 186.071C121.012 186.193 121.062 186.308 121.142 186.401C121.223 186.493 121.331 186.558 121.45 186.587C121.89 186.693 122.45 186.703 123.13 186.617C127.203 186.063 131.283 185.77 135.37 185.737ZM136.14 198.937C139.647 199.01 143.64 199.36 148.12 199.987C148.246 200.003 148.374 199.976 148.482 199.909C148.59 199.842 148.671 199.74 148.713 199.62C148.754 199.5 148.752 199.369 148.708 199.25C148.664 199.131 148.58 199.031 148.47 198.967C145.54 197.287 139.65 196.697 136.19 196.627C132.73 196.557 126.83 196.907 123.83 198.467C123.713 198.524 123.62 198.621 123.568 198.74C123.515 198.859 123.507 198.993 123.544 199.118C123.581 199.243 123.662 199.35 123.771 199.422C123.88 199.493 124.011 199.523 124.14 199.507C128.64 199.06 132.64 198.87 136.14 198.937ZM136.71 211.117C139.723 211.11 142.737 211.21 145.75 211.417C146.23 211.45 146.513 211.443 146.6 211.397C146.742 211.314 146.856 211.19 146.925 211.04C146.994 210.891 147.015 210.724 146.985 210.564C146.955 210.403 146.876 210.256 146.759 210.144C146.641 210.031 146.492 209.959 146.33 209.937C143.223 209.457 140.013 209.22 136.7 209.227C133.393 209.233 130.187 209.487 127.08 209.987C126.919 210.01 126.771 210.084 126.655 210.197C126.539 210.31 126.461 210.457 126.432 210.618C126.404 210.778 126.426 210.944 126.495 211.093C126.565 211.241 126.678 211.365 126.82 211.447C126.907 211.493 127.19 211.5 127.67 211.467C130.683 211.24 133.697 211.123 136.71 211.117ZM148.13 218.677L128.41 221.137C128.394 221.138 128.379 221.142 128.365 221.149C128.351 221.157 128.338 221.167 128.328 221.179C128.318 221.191 128.31 221.205 128.305 221.22C128.301 221.235 128.299 221.251 128.3 221.267L128.31 221.307C128.376 221.816 129.473 222.176 131.359 222.308C133.245 222.439 135.767 222.331 138.37 222.007L138.69 221.967C139.981 221.806 141.252 221.597 142.432 221.351C143.612 221.106 144.677 220.829 145.567 220.536C146.457 220.244 147.153 219.941 147.617 219.646C148.081 219.351 148.303 219.069 148.27 218.817V218.777C148.268 218.761 148.262 218.745 148.254 218.732C148.245 218.718 148.234 218.706 148.221 218.697C148.208 218.688 148.193 218.681 148.178 218.678C148.162 218.674 148.146 218.674 148.13 218.677ZM149.949 228.926C149.912 228.806 149.851 228.694 149.77 228.597C149.69 228.5 149.591 228.42 149.479 228.361C149.367 228.303 149.245 228.267 149.12 228.255C148.994 228.244 148.868 228.257 148.747 228.295L133.49 233.047C133.247 233.123 133.044 233.292 132.926 233.517C132.807 233.743 132.783 234.006 132.859 234.249L132.871 234.287C132.908 234.408 132.969 234.519 133.05 234.616C133.131 234.713 133.23 234.793 133.341 234.852C133.453 234.91 133.575 234.946 133.701 234.958C133.826 234.969 133.953 234.956 134.073 234.918L149.33 230.166C149.573 230.09 149.776 229.921 149.895 229.696C150.013 229.47 150.037 229.207 149.961 228.964L149.949 228.926ZM175.365 232.939C175.153 233.944 175.404 235.002 176.061 235.883C176.719 236.763 177.73 237.393 178.872 237.633C180.014 237.874 181.193 237.706 182.15 237.166C183.107 236.626 183.764 235.758 183.976 234.754C184.187 233.75 183.937 232.691 183.279 231.81C182.621 230.93 181.61 230.3 180.468 230.06C179.326 229.819 178.147 229.987 177.19 230.527C176.233 231.067 175.576 231.935 175.365 232.939ZM155.31 236.637L154.56 235.597C154.516 235.535 154.449 235.493 154.374 235.48C154.3 235.467 154.223 235.484 154.16 235.527L150.94 237.837C148.699 239.441 146.58 241.026 145.046 242.245C143.512 243.465 142.687 244.22 142.75 244.347L143.22 244.997C143.307 245.107 144.283 244.574 145.932 243.515C147.582 242.455 149.771 240.957 152.02 239.347L155.24 237.047C155.272 237.025 155.299 236.996 155.32 236.964C155.341 236.931 155.355 236.895 155.362 236.856C155.368 236.818 155.367 236.779 155.358 236.741C155.349 236.703 155.333 236.668 155.31 236.637Z" fill="#A0978D"/>
<path d="M256.28 108.687C255.98 107.433 255.277 106.507 254.17 105.907C253.895 105.756 253.667 105.535 253.51 105.267C252.42 103.387 251.55 101.317 250.41 99.5966C245.857 92.6899 240.943 86.1133 235.67 79.8666C230.55 74.5999 224.817 70.3632 218.47 67.1566C214.977 65.3899 211.923 64.4266 209.31 64.2666C201.38 63.7766 192.66 68.4966 186.93 73.2966L181.46 72.4066C178.433 65.3999 174.267 59.3599 168.96 54.2866C168.847 54.1793 168.767 54.0409 168.732 53.8881C168.696 53.7353 168.706 53.5749 168.76 53.4266L168.91 53.0266C172.57 51.1333 175.657 49.8533 178.17 49.1866C193.26 45.1666 212.13 43.8266 224.84 55.0666C230.8 60.3399 235.653 65.6066 239.4 70.8666C244.553 78.0999 249.173 86.4799 253.26 96.0066C255.147 100.4 256.153 104.627 256.28 108.687Z" fill="#918589"/>
<path d="M235.67 79.8666C235.563 80.4999 235.823 81.0933 236.45 81.6466C236.494 81.6863 236.529 81.7354 236.552 81.7902C236.575 81.8451 236.585 81.9044 236.582 81.9638C236.579 82.0232 236.563 82.0811 236.535 82.1335C236.507 82.1859 236.468 82.2314 236.42 82.2666L236.15 82.4666C236.021 82.561 235.866 82.6103 235.706 82.6067C235.547 82.6031 235.394 82.5468 235.27 82.4466C228.62 77.0366 219.69 72.8366 211.62 76.0666C203.76 79.1966 198.65 88.8966 195.39 97.6766C194.743 99.4099 192.916 105.1 189.91 114.747C188.476 119.353 186.486 124.603 183.94 130.497C181.66 135.79 179.47 140.97 177.37 146.037C177.296 144.01 176.65 141.58 175.43 138.747C178.763 131.42 181.42 124.563 183.4 118.177C185.49 111.437 185.65 104.837 184.23 97.1266C182.66 88.5566 182.01 80.8866 186.93 73.2966C192.66 68.4966 201.38 63.7766 209.31 64.2666C211.923 64.4266 214.976 65.3899 218.47 67.1566C224.816 70.3632 230.55 74.5999 235.67 79.8666Z" fill="#5E5553"/>
<path d="M81.5101 71.7066C86.6501 78.0999 88.5734 85.8766 87.2801 95.0366C86.4934 100.583 86.0968 103.67 86.0901 104.297C85.9768 110.257 86.9234 116.193 88.9301 122.107C91.0834 128.427 92.6834 132.97 93.73 135.737C92.5834 135.463 91.5101 135.623 90.5101 136.217C85.5501 127.683 81.6401 118.73 78.7801 109.357C77.0468 103.65 75.8934 100.143 75.3201 98.8366C71.5901 90.3066 67.1801 80.8166 59.2001 76.3566C54.8901 73.9466 49.45 74.7566 45.11 76.3166C42.97 77.0833 40.4767 78.5666 37.6301 80.7666C35.1167 82.7066 32.5034 84.7633 29.79 86.9366C34.75 80.1166 40.4301 74.4933 46.8301 70.0666C54.0801 65.0466 61.6901 62.6766 70.3701 65.8766C73.8301 67.1499 77.5434 69.0933 81.5101 71.7066Z" fill="#5E5553"/>
<path d="M181.46 72.4065L186.93 73.2965C182.01 80.8865 182.66 88.5566 184.23 97.1266C185.65 104.837 185.49 111.437 183.4 118.177C181.42 124.563 178.763 131.42 175.43 138.747L170.69 148.077C167.79 139.837 165.09 131.63 162.59 123.457C161.63 120.337 160.91 116.767 161.76 113.597C163.29 107.847 166.51 99.5465 173.18 99.5465C176.293 99.5399 178.94 100.467 181.12 102.327C181.175 102.376 181.242 102.408 181.315 102.421C181.388 102.433 181.462 102.425 181.53 102.397C181.598 102.368 181.657 102.321 181.699 102.261C181.742 102.201 181.766 102.13 181.77 102.057C182.1 96.2866 177.2 91.7465 172.66 86.1565C167.9 80.3165 164.21 73.8766 161.34 66.9366C161.308 66.8592 161.292 66.7761 161.294 66.6925C161.296 66.609 161.314 66.527 161.349 66.4516C161.384 66.3763 161.434 66.3093 161.496 66.255C161.559 66.2008 161.631 66.1605 161.71 66.1366C161.963 66.0566 162.283 66.0732 162.67 66.1866C167.277 67.5132 171.993 69.3532 176.82 71.7066C178.7 72.6199 180.247 72.8532 181.46 72.4065ZM166.54 117.837C171.16 118.997 174.25 117.44 175.81 113.167C176.403 111.527 176.233 110.293 175.3 109.467C170.09 104.857 166.47 112.107 165.6 116.337C165.533 116.66 165.594 116.996 165.769 117.275C165.944 117.555 166.22 117.756 166.54 117.837Z" fill="#7A7068"/>
<path d="M107.15 127.387L99.8497 150.017C99.5697 144.787 96.0197 140.277 93.7297 135.737C92.6831 132.97 91.0831 128.427 88.9297 122.107C86.9231 116.193 85.9764 110.257 86.0898 104.297C86.0964 103.67 86.4931 100.583 87.2798 95.0365C88.5731 85.8765 86.6498 78.0999 81.5098 71.7066C83.8631 71.5133 86.3931 71.9032 89.0997 72.8766C94.4931 70.9299 99.7331 69.0899 104.82 67.3566C105.846 67.0032 107.143 66.7332 108.71 66.5466C108.778 66.5399 108.846 66.5486 108.91 66.5722C108.974 66.5958 109.031 66.6335 109.079 66.6826C109.126 66.7317 109.161 66.7909 109.182 66.8556C109.203 66.9204 109.209 66.9891 109.2 67.0566C109 68.3299 108.7 69.3299 108.3 70.0566C106.28 73.7432 104.38 77.0932 102.6 80.1066C101.46 82.0466 98.1331 86.5066 92.6198 93.4866C90.5798 96.0766 89.5098 98.1666 88.0298 101.127C87.9742 101.243 87.9568 101.373 87.9801 101.5C88.0034 101.627 88.0661 101.743 88.1594 101.831C88.2526 101.92 88.3715 101.977 88.4991 101.994C88.6267 102.011 88.7565 101.988 88.8698 101.927C96.1631 97.7399 102.023 99.1766 106.45 106.237C108.676 109.783 109.83 113.55 109.91 117.537C109.916 118.04 109.846 118.543 109.7 119.027L107.15 127.387ZM104.08 117.987C104.298 117.941 104.492 117.814 104.621 117.63C104.751 117.447 104.808 117.221 104.78 116.997C104.34 113.447 101.47 106.077 96.4697 108.537C96.2189 108.655 95.9943 108.826 95.8098 109.037C94.5231 110.517 94.0764 111.81 94.4697 112.917C96.0564 117.35 99.2598 119.04 104.08 117.987Z" fill="#877F81"/>
<path d="M90.5103 136.217C92.0236 139.75 92.7803 142.26 92.7803 143.747C92.747 153.38 90.827 162.3 87.0203 170.507C85.3103 174.197 82.9703 176.687 78.9803 176.317C72.4303 175.707 68.1403 172.477 63.8603 167.537C62.067 165.463 60.2336 163.643 58.3603 162.077C58.2882 162.017 58.2045 161.972 58.1144 161.946C58.0244 161.92 57.9298 161.913 57.8369 161.925C57.7439 161.937 57.6545 161.969 57.5742 162.017C57.4939 162.066 57.4245 162.13 57.3703 162.207C57.2236 162.407 57.097 162.69 56.9903 163.057C57.197 161.33 56.517 159.907 54.9503 158.787C50.9903 155.947 47.5137 153.46 44.5203 151.327C47.947 139.44 52.0203 128.167 56.7403 117.507C56.7742 117.423 56.7765 117.329 56.7468 117.243C56.717 117.156 56.6574 117.084 56.5792 117.039C56.5011 116.995 56.41 116.981 56.3234 117.001C56.2369 117.02 56.161 117.072 56.1103 117.147L36.0903 145.107C28.577 139.9 22.7637 132.583 18.6503 123.157C16.2637 117.69 14.987 112.57 14.8203 107.797L15.5003 106.037C15.6182 105.723 15.8224 105.446 16.0903 105.237C17.0503 104.503 17.7703 103.757 18.2503 102.997C22.0503 97.0699 25.8969 91.7166 29.7903 86.9366C32.5036 84.7633 35.117 82.7066 37.6303 80.7666C40.477 78.5666 42.9703 77.0833 45.1103 76.3166C49.4503 74.7566 54.8903 73.9466 59.2003 76.3566C67.1803 80.8166 71.5903 90.3066 75.3203 98.8366C75.8936 100.143 77.047 103.65 78.7803 109.357C81.6403 118.73 85.5503 127.683 90.5103 136.217Z" fill="#7A7068"/>
<path d="M235.67 79.8666C240.943 86.1132 245.857 92.6899 250.41 99.5966C251.55 101.317 252.42 103.387 253.51 105.267C253.667 105.535 253.895 105.756 254.17 105.907C255.277 106.507 255.98 107.433 256.28 108.687L254.91 115.687C251.74 127.987 244.54 137.907 234.27 145.737C229.69 138.523 224.857 131.48 219.77 124.607C217.74 121.847 216.88 119.287 215.1 116.857C215.052 116.787 214.98 116.738 214.898 116.718C214.817 116.698 214.73 116.71 214.655 116.75C214.58 116.79 214.521 116.856 214.489 116.936C214.457 117.016 214.453 117.105 214.48 117.187L226.15 151.447L215.45 159.577C215.037 159.893 214.713 160.313 214.513 160.794C214.313 161.275 214.243 161.8 214.31 162.317C214.437 163.23 214.363 164.233 214.09 165.327L213.87 161.797C213.86 161.628 213.799 161.466 213.695 161.332C213.592 161.198 213.45 161.099 213.289 161.047C213.128 160.995 212.955 160.993 212.793 161.041C212.631 161.089 212.487 161.185 212.38 161.317C210.267 163.91 208.123 166.4 205.95 168.787C202.863 172.167 200.43 174.34 198.65 175.307C189.84 180.067 182.62 171.247 181.1 163.867C179.96 158.353 178.717 152.41 177.37 146.037C179.47 140.97 181.66 135.79 183.94 130.497C186.487 124.603 188.477 119.353 189.91 114.747C192.917 105.1 194.743 99.4099 195.39 97.6766C198.65 88.8966 203.76 79.1966 211.62 76.0666C219.69 72.8366 228.62 77.0366 235.27 82.4466C235.394 82.5468 235.547 82.6031 235.707 82.6067C235.866 82.6103 236.022 82.561 236.15 82.4665L236.42 82.2666C236.468 82.2314 236.507 82.1859 236.536 82.1335C236.564 82.0811 236.58 82.0231 236.583 81.9637C236.585 81.9044 236.575 81.8451 236.552 81.7902C236.529 81.7354 236.494 81.6863 236.45 81.6466C235.823 81.0933 235.563 80.4999 235.67 79.8666Z" fill="#6C6362"/>
<path d="M15.3906 102.107L14.8206 107.797C14.9872 112.57 16.2639 117.69 18.6506 123.157C22.7639 132.583 28.5772 139.9 36.0906 145.107L44.5206 151.327C47.5139 153.46 50.9906 155.947 54.9506 158.787C56.5172 159.907 57.1972 161.33 56.9905 163.057L56.6605 170.707C55.5905 184.487 55.8306 198.407 56.7706 209.997C57.1706 214.957 57.8172 219.31 58.7106 223.057C60.2039 229.303 62.0072 236.01 64.1205 243.177C64.6272 244.883 65.2572 246.707 66.0106 248.647L53.8605 240.987C43.7405 233.007 37.4306 225.307 28.2606 214.407C24.1606 208.94 20.5572 203.15 17.4506 197.037C11.7406 185.797 11.2506 173.317 7.20056 161.487C6.48056 155.427 5.01721 149.73 2.81055 144.397C2.95055 134.43 3.93724 125.607 5.77057 117.927C7.15724 112.087 10.3639 106.813 15.3906 102.107Z" fill="#BA9A85"/>
<path d="M104.08 117.987C99.2602 119.04 96.0568 117.35 94.4702 112.917C94.0768 111.81 94.5235 110.517 95.8102 109.037C95.9947 108.826 96.2194 108.655 96.4702 108.537C101.47 106.077 104.34 113.447 104.78 116.997C104.808 117.221 104.752 117.447 104.622 117.63C104.492 117.814 104.299 117.941 104.08 117.987ZM97.9145 110.122C97.821 110.257 97.7589 110.412 97.7316 110.578C97.7044 110.743 97.7125 110.917 97.7556 111.088C97.7987 111.259 97.8759 111.424 97.9828 111.574C98.0897 111.725 98.2242 111.857 98.3786 111.964C98.533 112.071 98.7043 112.15 98.8827 112.198C99.0611 112.245 99.2431 112.259 99.4183 112.239C99.5936 112.219 99.7586 112.166 99.9041 112.082C100.049 111.998 100.172 111.886 100.266 111.751C100.359 111.616 100.421 111.461 100.449 111.295C100.476 111.13 100.468 110.957 100.425 110.785C100.382 110.614 100.304 110.449 100.198 110.299C100.091 110.148 99.9562 110.016 99.8018 109.909C99.6474 109.802 99.4761 109.723 99.2977 109.676C99.1193 109.628 98.9373 109.614 98.762 109.634C98.5868 109.654 98.4217 109.707 98.2763 109.791C98.1309 109.875 98.0079 109.988 97.9145 110.122Z" fill="#301A15"/>
<path d="M166.54 117.837C166.22 117.756 165.944 117.555 165.769 117.275C165.594 116.996 165.533 116.66 165.6 116.337C166.47 112.107 170.09 104.857 175.3 109.467C176.233 110.293 176.403 111.527 175.81 113.167C174.25 117.44 171.16 118.997 166.54 117.837ZM172.818 110.498C172.798 110.336 172.739 110.181 172.644 110.041C172.549 109.901 172.42 109.779 172.265 109.683C172.11 109.586 171.931 109.516 171.739 109.477C171.547 109.438 171.346 109.431 171.146 109.456C170.744 109.506 170.374 109.684 170.118 109.95C169.862 110.216 169.741 110.549 169.781 110.876C169.802 111.037 169.861 111.192 169.956 111.332C170.051 111.472 170.179 111.594 170.335 111.69C170.49 111.787 170.668 111.857 170.86 111.896C171.052 111.935 171.254 111.942 171.453 111.917C171.856 111.867 172.226 111.689 172.482 111.423C172.738 111.157 172.859 110.824 172.818 110.498Z" fill="#301A15"/>
<path d="M99.8012 109.909C99.1519 109.459 98.307 109.555 97.914 110.123C97.521 110.69 97.7287 111.515 98.378 111.964C99.0273 112.414 99.8723 112.318 100.265 111.751C100.658 111.183 100.451 110.358 99.8012 109.909Z" fill="#F5EDE2"/>
<path d="M171.454 111.917C172.292 111.813 172.903 111.177 172.819 110.497C172.734 109.818 171.986 109.352 171.147 109.456C170.309 109.561 169.698 110.196 169.782 110.876C169.867 111.555 170.615 112.022 171.454 111.917Z" fill="#F5EDE2"/>
<path d="M137.04 112.437C142.913 112.837 148.343 114.907 153.33 118.647C153.408 118.699 153.465 118.778 153.488 118.869C153.511 118.96 153.5 119.056 153.457 119.139C153.413 119.223 153.341 119.287 153.252 119.32C153.164 119.352 153.067 119.351 152.98 119.317C147.79 117.617 144.11 116.017 137.69 115.397C129.98 114.887 123.48 116.767 116.4 119.577C116.329 119.614 116.246 119.623 116.168 119.603C116.09 119.582 116.023 119.532 115.98 119.464C115.937 119.396 115.921 119.314 115.936 119.235C115.951 119.155 115.995 119.085 116.06 119.037C121.44 114.047 129.84 111.907 137.04 112.437Z" fill="#877F81"/>
<path d="M254.911 115.687C259.504 122.147 263.181 129.083 265.941 136.497L266.161 144.447L257.121 187.007C253.887 195.6 251.151 201.463 248.911 204.597C246.531 207.91 244.561 210.787 243.001 213.227C236.341 223.637 227.741 232.787 218.581 240.617C214.881 243.783 210.457 246.47 205.311 248.677C208.871 236.91 210.987 229.327 211.661 225.927C214.774 210.293 215.654 193.06 214.301 174.227L214.091 165.327C214.364 164.233 214.437 163.23 214.311 162.317C214.244 161.8 214.314 161.275 214.514 160.794C214.714 160.313 215.037 159.893 215.451 159.577L226.151 151.447L234.271 145.737C244.541 137.907 251.741 127.987 254.911 115.687Z" fill="#BA9A85"/>
<path d="M234.27 145.737L226.15 151.447L214.48 117.187C214.453 117.105 214.456 117.016 214.488 116.936C214.521 116.856 214.58 116.79 214.655 116.75C214.73 116.71 214.816 116.698 214.898 116.718C214.98 116.738 215.051 116.787 215.1 116.857C216.88 119.287 217.74 121.847 219.77 124.607C224.857 131.48 229.69 138.523 234.27 145.737Z" fill="#5E5553"/>
<path d="M44.5198 151.327L36.0898 145.107L56.1098 117.147C56.1605 117.072 56.2364 117.02 56.3229 117.001C56.4095 116.981 56.5006 116.995 56.5787 117.039C56.6569 117.084 56.7165 117.156 56.7463 117.243C56.776 117.329 56.7737 117.423 56.7398 117.507C52.0198 128.167 47.9465 139.44 44.5198 151.327Z" fill="#5E5553"/>
<path d="M137.41 125.657C143.99 125.943 149.76 128.31 154.72 132.757C154.803 132.829 154.856 132.929 154.87 133.037C154.885 133.146 154.858 133.256 154.797 133.347C154.736 133.438 154.643 133.504 154.537 133.531C154.431 133.559 154.318 133.546 154.22 133.497C145.43 129.097 137.37 126.767 127.43 128.397C124.057 129.35 120.964 130.817 118.15 132.797C118.097 132.837 118.031 132.858 117.964 132.856C117.897 132.854 117.832 132.83 117.78 132.788C117.729 132.745 117.693 132.687 117.678 132.621C117.663 132.556 117.671 132.487 117.7 132.427C120.4 126.587 132.01 125.277 137.41 125.657Z" fill="#7A7068"/>
<path d="M93.7302 135.737C96.0202 140.277 99.5702 144.787 99.8502 150.017C98.6702 154.127 96.9002 158.227 96.6202 162.507C96.6005 162.846 96.6805 163.18 96.8502 163.467C97.7702 164.987 98.8768 166.177 100.17 167.037C94.9768 177.643 91.9602 188.463 91.1202 199.497C90.6535 205.583 91.7235 211.14 94.3302 216.167C94.4779 216.45 94.6776 216.703 94.9167 216.909C95.1558 217.115 95.4289 217.271 95.7188 217.365C96.0086 217.459 96.3086 217.49 96.5999 217.456C96.8911 217.422 97.1671 217.323 97.4102 217.167C97.7568 216.947 97.9668 216.323 98.0402 215.297C98.4002 210.547 98.3202 205.647 99.7402 200.897C102.14 192.877 106.58 183.097 109.66 176.547C110.767 175.593 111.47 175.74 111.77 176.987C113.41 183.857 115.03 190.837 116.18 197.707C118.167 209.593 119.57 217.647 120.39 221.867C123.83 239.677 133.51 253.247 151.77 257.527C150.837 262.053 151.747 265.813 154.5 268.807C142.287 270.4 130.48 270.393 119.08 268.787C115.394 249.973 109.074 232.363 100.12 215.957C100.092 215.905 100.049 215.862 99.9979 215.833C99.9465 215.804 99.888 215.79 99.829 215.792C99.77 215.794 99.7128 215.812 99.6636 215.845C99.6144 215.877 99.5751 215.923 99.5502 215.977C98.8302 217.563 97.7602 218.49 96.3402 218.757C96.1857 218.787 96.0257 218.78 95.8741 218.734C95.7226 218.689 95.5839 218.607 95.4702 218.497C93.2368 216.357 91.8402 214.59 91.2802 213.197C90.3602 210.903 89.6335 206.903 89.1002 201.197C89.0848 201.039 89.0321 200.888 88.9467 200.758C88.8612 200.627 88.7457 200.52 88.6102 200.447C84.5035 198.187 79.7302 195.627 74.2902 192.767C66.8002 188.827 62.5302 182.137 57.5902 174.047C57.5744 174.022 57.5536 174.001 57.5294 173.985C57.5052 173.97 57.4782 173.96 57.4502 173.957C57.3635 173.937 57.2802 173.92 57.2002 173.907C57.1004 173.889 57.0096 173.839 56.9424 173.764C56.8753 173.69 56.8357 173.596 56.8302 173.497L56.6602 170.707L56.9902 163.057C57.0968 162.69 57.2235 162.407 57.3702 162.207C57.4243 162.13 57.4937 162.066 57.574 162.017C57.6543 161.969 57.7438 161.937 57.8367 161.925C57.9297 161.913 58.0242 161.92 58.1143 161.946C58.2044 161.972 58.2881 162.017 58.3602 162.077C60.2335 163.643 62.0668 165.463 63.8602 167.537C68.1402 172.477 72.4302 175.707 78.9802 176.317C82.9702 176.687 85.3102 174.197 87.0202 170.507C90.8269 162.3 92.7469 153.38 92.7802 143.747C92.7802 142.26 92.0235 139.75 90.5102 136.217C91.5102 135.623 92.5835 135.463 93.7302 135.737Z" fill="#4F4747"/>
<path d="M177.369 146.037C178.716 152.41 179.959 158.353 181.099 163.867C182.619 171.247 189.839 180.067 198.649 175.307C200.429 174.34 202.863 172.167 205.949 168.787C208.123 166.4 210.266 163.91 212.379 161.317C212.486 161.185 212.63 161.089 212.792 161.041C212.955 160.993 213.127 160.995 213.289 161.047C213.45 161.099 213.591 161.198 213.695 161.332C213.798 161.466 213.859 161.628 213.869 161.797L214.089 165.327L214.299 174.227C210.006 181.68 204.543 187.913 197.909 192.927C193.559 196.217 186.929 199.397 182.559 202.247C182.34 202.39 182.155 202.58 182.017 202.803C181.879 203.026 181.791 203.276 181.759 203.537C181.299 207.383 180.509 210.907 179.389 214.107C178.756 215.9 177.833 216.69 176.619 216.477C180.033 209.443 180.933 201.693 179.319 193.227C177.699 184.733 175.026 176.207 171.299 167.647C172.633 166.493 173.579 165.257 174.139 163.937C174.579 162.903 174.529 161.613 173.989 160.067C172.596 156.053 171.496 152.057 170.689 148.077L175.429 138.747C176.649 141.58 177.296 144.01 177.369 146.037Z" fill="#4F4747"/>
<path d="M121.349 141.537L124.369 140.297C135.209 137.307 146.209 138.717 155.269 145.627C155.297 145.649 155.32 145.676 155.337 145.708C155.354 145.739 155.365 145.773 155.368 145.808C155.372 145.844 155.369 145.879 155.359 145.913C155.349 145.947 155.332 145.979 155.309 146.007L155.099 146.257C155.096 146.262 155.09 146.265 155.083 146.267C155.076 146.269 155.067 146.269 155.059 146.267C151.166 144.393 148.643 143.293 147.489 142.967C141.803 141.387 135.359 140.96 128.159 141.687C125.719 141.933 123.886 142.373 122.659 143.007C119.489 144.627 117.439 146.107 115.459 146.107C115.392 146.109 115.326 146.088 115.272 146.049C115.218 146.009 115.178 145.952 115.159 145.887C115.14 145.822 115.143 145.751 115.166 145.686C115.189 145.621 115.233 145.565 115.289 145.527L121.349 141.537Z" fill="#7A7068"/>
<path d="M266.16 144.447C265.42 159.187 262.407 173.373 257.12 187.007L266.16 144.447Z" fill="#A29C9C"/>
<path d="M155.65 159.657C155.721 159.735 155.765 159.835 155.776 159.941C155.786 160.047 155.763 160.154 155.708 160.244C155.654 160.335 155.572 160.404 155.475 160.443C155.378 160.481 155.271 160.486 155.17 160.457C154.483 160.257 152.65 159.48 149.67 158.127C142.7 154.977 133.54 155.167 125.72 156.577C122.55 157.147 120.24 158.327 117.06 158.907C116.979 158.923 116.895 158.913 116.82 158.878C116.745 158.843 116.683 158.785 116.643 158.713C116.603 158.641 116.586 158.558 116.597 158.476C116.607 158.393 116.643 158.317 116.7 158.257C117.653 157.203 118.797 156.393 120.13 155.827C130.87 151.247 141.64 151.653 152.44 157.047C153.38 157.52 154.45 158.39 155.65 159.657Z" fill="#7A7068"/>
<path d="M28.2602 214.407L29.0502 216.777C25.9968 213.43 23.4935 210.15 21.5402 206.937C15.8335 197.53 11.8602 188.417 9.62018 179.597C8.50018 175.17 7.69353 169.133 7.2002 161.487C11.2502 173.317 11.7402 185.797 17.4502 197.037C20.5569 203.15 24.1602 208.94 28.2602 214.407Z" fill="#A29C9C"/>
<path d="M109.66 176.547C106.58 183.097 102.14 192.877 99.74 200.897C98.32 205.647 98.3999 210.547 98.0399 215.297C97.9666 216.323 97.7566 216.947 97.4099 217.167C97.1668 217.323 96.8909 217.422 96.5996 217.456C96.3084 217.49 96.0083 217.459 95.7185 217.365C95.4287 217.271 95.1556 217.115 94.9165 216.909C94.6774 216.703 94.4777 216.45 94.33 216.167C91.7233 211.14 90.6533 205.583 91.12 199.497C91.96 188.463 94.9766 177.643 100.17 167.037C104.183 169.17 107.347 172.34 109.66 176.547Z" fill="#F5E8D6"/>
<path d="M119.72 173.327C119.7 173.342 119.675 173.351 119.648 173.352C119.622 173.354 119.595 173.349 119.57 173.337L119.3 173.177C119.26 173.154 119.225 173.122 119.2 173.082C119.175 173.043 119.16 172.998 119.156 172.951C119.152 172.904 119.16 172.856 119.178 172.812C119.196 172.768 119.224 172.728 119.26 172.697C126.33 166.577 136.04 166.557 144.82 168.727C147.01 169.267 151.15 170.617 151.7 172.327C151.725 172.402 151.729 172.482 151.713 172.559C151.697 172.636 151.66 172.708 151.608 172.766C151.555 172.825 151.488 172.869 151.413 172.894C151.338 172.918 151.258 172.923 151.18 172.907C148.19 172.277 144.32 170.697 140.95 170.477C135.657 170.137 130.704 170.237 126.09 170.777C123.977 171.023 121.854 171.873 119.72 173.327Z" fill="#7A7068"/>
<path d="M171.3 167.647C175.027 176.207 177.7 184.733 179.32 193.227C180.933 201.693 180.033 209.443 176.62 216.477L175.01 216.847C174.845 216.884 174.672 216.867 174.517 216.798C174.362 216.73 174.234 216.614 174.15 216.467L173.85 215.947C173.037 208.927 172.38 204.51 171.88 202.697C170.327 197.023 168.31 191.52 165.83 186.187C164.357 183.02 162.887 179.893 161.42 176.807C163.68 173.247 166.39 170.29 169.55 167.937C169.81 167.742 170.129 167.637 170.46 167.637L171.3 167.647Z" fill="#F5EDE2"/>
<path d="M56.6595 170.707L56.8295 173.497C56.8351 173.596 56.8746 173.69 56.9418 173.764C57.0089 173.839 57.0997 173.889 57.1995 173.907C57.2795 173.92 57.3628 173.937 57.4495 173.957C57.4775 173.96 57.5045 173.97 57.5287 173.985C57.5529 174.001 57.5737 174.022 57.5895 174.047C62.5295 182.137 66.7995 188.827 74.2895 192.767C79.7295 195.627 84.5028 198.187 88.6095 200.447C88.745 200.52 88.8605 200.627 88.946 200.758C89.0314 200.888 89.0841 201.039 89.0995 201.197C89.6328 206.903 90.3595 210.903 91.2795 213.197C91.8395 214.59 93.2361 216.357 95.4695 218.497C95.5832 218.607 95.7219 218.689 95.8735 218.734C96.025 218.78 96.185 218.787 96.3395 218.757C97.7595 218.49 98.8295 217.563 99.5495 215.977C99.5744 215.923 99.6137 215.877 99.6629 215.845C99.7121 215.812 99.7694 215.794 99.8284 215.792C99.8874 215.79 99.9458 215.804 99.9972 215.833C100.049 215.862 100.091 215.905 100.119 215.957C109.073 232.363 115.393 249.973 119.08 268.787C118.133 268.68 117.596 268.677 117.469 268.777C111.529 267.97 105.723 266.677 100.049 264.897C94.0628 263.023 87.3662 260.48 79.9595 257.267C74.3862 254.847 69.7362 251.973 66.0095 248.647C65.2562 246.707 64.6262 244.883 64.1195 243.177C62.0062 236.01 60.2029 229.303 58.7095 223.057C57.8162 219.31 57.1695 214.957 56.7695 209.997C55.8295 198.407 55.5895 184.487 56.6595 170.707Z" fill="#5E5553"/>
<path d="M205.31 248.677C194.577 256.39 182.14 262.03 168 265.597L154.5 268.807C151.747 265.813 150.837 262.053 151.77 257.527C154.05 257.6 156.377 257.653 158.75 257.687C166.48 257.797 175.54 254.597 179.97 247.927C182.617 243.933 184.787 240.1 186.48 236.427C187.56 234.067 187.09 231.777 185.07 229.557C182.357 226.577 178.914 225.367 174.74 225.927C170.43 226.507 171.14 234.877 166.91 236.567C165.59 237.093 164.114 237.013 162.48 236.327L170.47 208.437C170.488 208.37 170.529 208.311 170.586 208.272C170.643 208.233 170.712 208.215 170.781 208.222C170.85 208.23 170.914 208.261 170.961 208.312C171.009 208.362 171.037 208.427 171.04 208.497C171.3 211.25 172.237 213.733 173.85 215.947L174.15 216.467C174.234 216.614 174.363 216.73 174.518 216.798C174.673 216.867 174.845 216.884 175.01 216.847L176.62 216.477C177.834 216.69 178.757 215.9 179.39 214.107C180.51 210.907 181.3 207.383 181.76 203.537C181.792 203.276 181.88 203.026 182.018 202.803C182.156 202.58 182.341 202.39 182.56 202.247C186.93 199.397 193.56 196.217 197.91 192.927C204.544 187.913 210.007 181.68 214.3 174.227C215.654 193.06 214.774 210.293 211.66 225.927C210.987 229.327 208.87 236.91 205.31 248.677Z" fill="#5E5553"/>
<path d="M161.42 176.807C162.887 179.893 164.357 183.02 165.83 186.187C168.31 191.52 170.327 197.023 171.88 202.697C172.38 204.51 173.037 208.927 173.85 215.947C172.237 213.733 171.3 211.25 171.04 208.497C171.037 208.427 171.009 208.362 170.961 208.312C170.914 208.261 170.85 208.23 170.781 208.222C170.712 208.215 170.643 208.233 170.586 208.272C170.529 208.311 170.488 208.37 170.47 208.437L162.48 236.327C154.76 233.707 152.52 226.127 152.47 218.717C152.383 204.49 154.687 190.383 159.38 176.397C159.417 176.282 159.482 176.178 159.568 176.095C159.655 176.012 159.761 175.951 159.877 175.918C159.993 175.885 160.115 175.882 160.232 175.908C160.35 175.934 160.459 175.988 160.55 176.067L161.42 176.807Z" fill="#4F4747"/>
<path d="M135.34 182.407C140.406 182.36 145.09 183.303 149.39 185.237C149.501 185.286 149.595 185.369 149.657 185.474C149.72 185.58 149.748 185.702 149.738 185.823C149.728 185.945 149.681 186.061 149.602 186.155C149.524 186.249 149.418 186.316 149.3 186.346C148.86 186.46 148.3 186.477 147.62 186.397C143.54 185.917 139.456 185.697 135.37 185.737C131.283 185.77 127.203 186.063 123.13 186.617C122.45 186.703 121.89 186.693 121.45 186.586C121.33 186.558 121.223 186.493 121.142 186.401C121.061 186.308 121.011 186.193 120.999 186.071C120.987 185.949 121.013 185.826 121.074 185.719C121.135 185.613 121.228 185.528 121.34 185.477C125.6 183.47 130.266 182.447 135.34 182.407Z" fill="#7A7068"/>
<path d="M136.19 196.627C139.65 196.697 145.54 197.287 148.47 198.967C148.58 199.031 148.664 199.131 148.708 199.25C148.753 199.369 148.754 199.5 148.713 199.62C148.672 199.74 148.59 199.842 148.482 199.909C148.374 199.976 148.246 200.003 148.12 199.987C143.64 199.36 139.647 199.01 136.14 198.937C132.64 198.87 128.64 199.06 124.14 199.507C124.011 199.523 123.88 199.493 123.771 199.422C123.662 199.351 123.582 199.243 123.544 199.118C123.507 198.993 123.516 198.859 123.568 198.74C123.62 198.621 123.713 198.524 123.83 198.467C126.83 196.907 132.73 196.557 136.19 196.627Z" fill="#7A7068"/>
<path d="M136.7 209.227C140.013 209.22 143.223 209.457 146.33 209.937C146.491 209.959 146.641 210.031 146.759 210.144C146.876 210.256 146.955 210.403 146.985 210.564C147.015 210.724 146.993 210.891 146.924 211.04C146.855 211.19 146.742 211.314 146.6 211.397C146.513 211.443 146.23 211.45 145.75 211.417C142.737 211.21 139.723 211.11 136.71 211.117C133.697 211.123 130.683 211.24 127.67 211.467C127.19 211.5 126.907 211.493 126.82 211.447C126.678 211.365 126.565 211.241 126.495 211.093C126.426 210.944 126.404 210.778 126.432 210.618C126.461 210.457 126.538 210.31 126.655 210.197C126.771 210.084 126.919 210.01 127.08 209.987C130.187 209.487 133.393 209.233 136.7 209.227Z" fill="#7A7068"/>
<path d="M53.8597 240.987C49.6531 238.84 45.9564 236.003 42.7698 232.477C38.1164 227.31 33.5431 222.077 29.0497 216.777L28.2598 214.407C37.4298 225.307 43.7397 233.007 53.8597 240.987Z" fill="#A0978D"/>
<path d="M148.13 218.677C148.146 218.674 148.162 218.674 148.178 218.678C148.194 218.681 148.208 218.688 148.221 218.697C148.234 218.706 148.245 218.718 148.254 218.732C148.262 218.745 148.268 218.761 148.27 218.777V218.816C148.303 219.069 148.081 219.351 147.617 219.646C147.153 219.941 146.457 220.244 145.567 220.536C144.677 220.829 143.612 221.106 142.432 221.351C141.252 221.597 139.981 221.806 138.69 221.967L138.37 222.007C135.767 222.331 133.245 222.439 131.359 222.308C129.473 222.176 128.376 221.816 128.31 221.307L128.3 221.267C128.299 221.251 128.301 221.235 128.305 221.22C128.31 221.205 128.318 221.191 128.328 221.179C128.338 221.167 128.351 221.157 128.365 221.149C128.379 221.142 128.394 221.138 128.41 221.137L148.13 218.677Z" fill="#7A7068"/>
<path d="M148.747 228.295L133.49 233.047C132.984 233.205 132.701 233.743 132.859 234.249L132.871 234.287C133.028 234.793 133.566 235.076 134.073 234.918L149.33 230.166C149.836 230.009 150.119 229.47 149.961 228.964L149.949 228.926C149.791 228.42 149.253 228.137 148.747 228.295Z" fill="#7A7068"/>
<path d="M180.468 230.06C178.09 229.559 175.806 230.848 175.365 232.939C174.924 235.031 176.494 237.132 178.872 237.633C181.25 238.134 183.535 236.845 183.976 234.754C184.416 232.662 182.846 230.561 180.468 230.06Z" fill="#5E5553"/>
<path d="M155.309 236.637C155.332 236.668 155.349 236.703 155.358 236.741C155.366 236.779 155.368 236.818 155.361 236.856C155.355 236.894 155.34 236.931 155.32 236.964C155.299 236.996 155.271 237.025 155.239 237.047L152.019 239.346C149.77 240.957 147.581 242.455 145.932 243.514C144.282 244.574 143.307 245.107 143.219 244.997L142.749 244.346C142.686 244.22 143.512 243.465 145.046 242.245C146.58 241.026 148.698 239.441 150.939 237.836L154.159 235.527C154.222 235.484 154.299 235.467 154.374 235.48C154.449 235.493 154.515 235.535 154.559 235.596L155.309 236.637Z" fill="#7A7068"/>
</g>
</svg>
