<svg width="272" height="283" viewBox="0 0 272 283" fill="none" xmlns="http://www.w3.org/2000/svg">
<path d="M47.3959 244.4C55.6492 251.16 62.0959 256.147 66.7359 259.36C75.3892 265.367 85.9692 270.287 98.4758 274.12C120.056 280.74 142.329 281.693 165.296 276.98C174.969 275 182.909 272.603 189.116 269.79C213.036 258.957 232.586 242.517 247.766 220.47C259.153 203.93 266.006 185.763 268.326 165.97C269.796 153.42 270.076 140.64 269.726 126.26C269.333 109.713 265.336 94.3867 257.736 80.28C255.123 75.42 250.896 73.4734 245.056 74.4401C234.696 76.1534 226.623 77.81 220.836 79.41C221.903 73.53 221.869 67.9433 220.736 62.65C219.636 57.53 215.666 51.05 210.216 49.53C204.496 47.95 198.436 49.66 194.066 52.79C190.553 55.3034 187.933 57.0067 186.206 57.9L167.056 69.64C156.763 66.9133 146.256 66.09 135.536 67.17C131.776 66.91 126.159 66.86 118.686 67.02C113.526 67.12 108.896 67.9567 104.796 69.53C98.7359 64.47 92.2059 60.25 85.2059 56.87C80.0925 53.7167 76.1358 51.5934 73.3358 50.5C57.6758 44.38 51.6659 56.62 51.0359 69.68L17.5059 69.71C23.3559 59.22 28.3659 50.2601 36.8959 42.6901C43.0092 37.2634 47.1692 33.65 49.3759 31.85C72.4625 13.0567 98.7492 2.54338 128.236 0.310049C136.323 -0.303284 144.336 -0.00666416 152.276 1.2C165.266 3.16 177.006 5.71003 188.496 11.1C196.563 14.8934 204.529 19.4234 212.396 24.6901C222.756 31.6301 232.736 40.98 240.786 49.93C243.453 52.9034 246.366 56.9 249.526 61.92C256.819 73.54 262.659 86.8967 267.046 101.99C269.426 110.17 270.746 118.94 271.006 128.3C271.399 142.287 270.993 155.15 269.786 166.89C268.953 174.983 266.976 183.237 263.856 191.65C253.656 219.15 236.546 241.257 212.526 257.97C192.119 272.17 169.829 280.177 145.656 281.99C128.146 283.31 109.266 280.78 93.3358 275.43C74.2858 269.03 61.9059 258.64 47.3959 244.4Z" fill="#C3BEBA"/>
<path d="M85.2055 56.8701C86.1455 58.0301 87.6755 59.5901 89.7955 61.5501C93.1821 64.6768 96.1788 68.6834 98.7855 73.5701C98.6521 73.8834 98.3755 73.9867 97.9555 73.8801C97.0155 73.5267 96.1988 74.2535 95.5055 76.0601C95.0588 76.8601 94.6021 77.1767 94.1355 77.0101C88.3255 68.9301 80.3555 60.6501 70.7155 57.1701C66.8421 55.6968 63.7121 56.1667 61.3255 58.5801C57.8755 62.0701 57.1555 68.2601 57.2855 73.6901C57.5355 84.1501 62.2455 93.2001 67.2655 102.12C67.2321 102.253 67.1988 102.38 67.1655 102.5C67.0883 102.758 66.9252 102.978 66.7055 103.12L62.3755 105.98C54.3555 95.1734 50.5755 83.0735 51.0355 69.6801C51.6655 56.6201 57.6755 44.3801 73.3355 50.5001C76.1355 51.5935 80.0921 53.7168 85.2055 56.8701Z" fill="#F5EDE2"/>
<path d="M220.835 79.4101C220.235 83.8301 219.172 87.8967 217.645 91.6101C215.692 96.3367 213.156 101.04 210.036 105.72C207.756 104.573 206.062 103.29 204.955 101.87C209.315 95.4434 212.379 88.7334 214.145 81.7401C214.845 78.9734 215.226 75.5334 215.286 71.4201C215.352 66.6867 214.082 62.5934 211.476 59.1401C209.549 56.5934 206.589 55.9901 202.596 57.3301C196.109 59.3901 190.489 63.2667 185.735 68.9601C183.562 71.5667 181.412 74.3567 179.286 77.3301C179.242 77.3915 179.186 77.4436 179.122 77.4834C179.058 77.5232 178.987 77.55 178.913 77.562C178.838 77.5741 178.762 77.5713 178.689 77.5538C178.616 77.5363 178.546 77.5045 178.485 77.4601L174.226 74.3401C174.123 74.2656 174.052 74.1558 174.026 74.032C174.001 73.9082 174.022 73.7792 174.085 73.6701C176.399 69.6501 177.952 67.2568 178.745 66.4901C181.372 63.9568 183.859 61.0934 186.205 57.9001C187.932 57.0067 190.552 55.3034 194.066 52.7901C198.436 49.6601 204.495 47.9501 210.215 49.5301C215.665 51.0501 219.635 57.5301 220.735 62.6501C221.869 67.9434 221.902 73.5301 220.835 79.4101Z" fill="#DCD5C9"/>
<path d="M70.7156 57.17L66.9456 63.29C66.9137 63.3408 66.8924 63.3975 66.8832 63.4567C66.8739 63.516 66.8769 63.5765 66.8918 63.6346C66.9068 63.6926 66.9335 63.747 66.9703 63.7944C67.0071 63.8417 67.0531 63.8811 67.1056 63.91C73.7856 67.5 77.2556 72.21 82.9056 78.99C83.0123 79.1166 83.0775 79.2734 83.0924 79.4385C83.1072 79.6037 83.0709 79.7691 82.9886 79.9119C82.9062 80.0547 82.7818 80.1678 82.6325 80.2356C82.4833 80.3033 82.3167 80.3223 82.1556 80.29L73.7056 78.7501C73.0523 84.4367 73.3023 89.96 74.4556 95.32L67.9956 102.08C67.9351 102.143 67.8584 102.189 67.7738 102.212C67.6892 102.235 67.5999 102.234 67.5156 102.21C67.4223 102.183 67.339 102.153 67.2656 102.12C62.2456 93.2 57.5356 84.1501 57.2856 73.6901C57.1556 68.2601 57.8756 62.07 61.3256 58.58C63.7123 56.1667 66.8423 55.6967 70.7156 57.17Z" fill="#363439"/>
<path d="M204.956 101.87C203.969 101.283 203.243 100.77 202.776 100.33C199.489 97.2567 194.976 92.8134 189.236 87.0001C191.456 83.8201 193.943 81.0501 196.696 78.6901C196.732 78.6549 196.757 78.609 196.765 78.5592C196.774 78.5094 196.767 78.4581 196.745 78.4126C196.723 78.3671 196.687 78.3298 196.642 78.306C196.597 78.2822 196.546 78.2731 196.496 78.2801L188.636 79.8301C188.567 79.8465 188.495 79.84 188.431 79.8113C188.366 79.7826 188.313 79.7333 188.278 79.6706C188.243 79.608 188.229 79.5353 188.238 79.4632C188.247 79.3912 188.278 79.3235 188.326 79.2701C193.613 73.5567 196.733 70.0767 197.686 68.8301C199.866 66.0001 202.966 63.8701 205.716 62.3401C205.895 62.2414 206.047 62.1009 206.16 61.9307C206.273 61.7605 206.344 61.5656 206.365 61.3624C206.387 61.1592 206.359 60.9538 206.284 60.7637C206.21 60.5735 206.09 60.4042 205.936 60.2701L202.596 57.3301C206.589 55.9901 209.549 56.5934 211.476 59.1401C214.083 62.5934 215.353 66.6868 215.286 71.4201C215.226 75.5334 214.846 78.9734 214.146 81.7401C212.379 88.7334 209.316 95.4434 204.956 101.87Z" fill="#363439"/>
<path d="M104.796 69.53C104.216 70.7766 103.313 71.9 102.086 72.9C100.246 73.8866 99.1461 74.1099 98.7861 73.5699C96.1794 68.6833 93.1827 64.6767 89.7961 61.55C87.6761 59.59 86.1461 58.03 85.2061 56.87C92.2061 60.25 98.7361 64.47 104.796 69.53Z" fill="#4F4747"/>
<path d="M94.1357 77.01L83.3957 86.22L73.7057 78.7501L82.1557 80.29C82.3167 80.3224 82.4833 80.3033 82.6326 80.2356C82.7818 80.1679 82.9062 80.0547 82.9886 79.9119C83.071 79.7691 83.1073 79.6037 83.0924 79.4385C83.0775 79.2734 83.0123 79.1167 82.9057 78.9901C77.2557 72.2101 73.7857 67.5 67.1057 63.91C67.0531 63.8811 67.0071 63.8417 66.9703 63.7944C66.9336 63.747 66.9069 63.6926 66.8919 63.6346C66.8769 63.5765 66.8739 63.516 66.8832 63.4567C66.8924 63.3975 66.9137 63.3408 66.9457 63.29L70.7157 57.17C80.3557 60.65 88.3257 68.93 94.1357 77.01Z" fill="#5E5553"/>
<path d="M202.596 57.33L205.936 60.27C206.09 60.4041 206.209 60.5734 206.284 60.7635C206.359 60.9537 206.386 61.1591 206.365 61.3623C206.343 61.5655 206.273 61.7604 206.16 61.9306C206.047 62.1008 205.895 62.2412 205.716 62.34C202.966 63.87 199.866 66 197.686 68.83C196.732 70.0766 193.612 73.5566 188.326 79.27C188.277 79.3233 188.246 79.391 188.237 79.4631C188.229 79.5352 188.243 79.6079 188.277 79.6705C188.312 79.7332 188.366 79.7825 188.43 79.8112C188.495 79.8398 188.567 79.8464 188.636 79.83L196.496 78.28C196.546 78.273 196.597 78.2821 196.641 78.3059C196.686 78.3297 196.722 78.367 196.744 78.4125C196.766 78.4579 196.774 78.5092 196.765 78.5591C196.756 78.6089 196.732 78.6548 196.696 78.69C193.942 81.05 191.456 83.82 189.236 87C187.169 85.4467 185.112 83.8566 183.066 82.23C180.959 80.5633 178.826 79.0933 176.666 77.8199C173.079 75.6999 170.709 74.2767 169.556 73.55C167.896 72.5033 167.062 71.2 167.056 69.64L186.206 57.9C183.859 61.0933 181.372 63.9567 178.746 66.49C177.952 67.2567 176.399 69.65 174.086 73.67C174.022 73.7791 174.001 73.9081 174.027 74.0319C174.052 74.1557 174.123 74.2655 174.226 74.34L178.486 77.46C178.547 77.5044 178.616 77.5362 178.689 77.5537C178.762 77.5712 178.838 77.574 178.913 77.562C178.987 77.5499 179.058 77.5231 179.122 77.4833C179.186 77.4435 179.242 77.3914 179.286 77.33C181.412 74.3566 183.562 71.5666 185.736 68.96C190.489 63.2666 196.109 59.39 202.596 57.33Z" fill="#4F4747"/>
<path d="M135.536 67.17C135.776 74.75 135.859 82.4967 135.786 90.41C135.716 96.91 133.806 102.96 134.406 110.1C134.639 112.82 136.049 113.943 138.636 113.47C140.589 113.123 142.596 112.83 144.656 112.59C143.229 116.55 142.956 120.25 143.836 123.69C144.709 127.123 146.469 131.933 149.116 138.12C149.276 140.76 148.719 143.957 147.446 147.71C146.166 150.917 144.969 154.197 143.856 157.55C142.589 161.403 142.479 165.26 143.526 169.12C139.313 167.273 134.786 167 129.946 168.3C130.679 160.6 128.953 153.583 124.766 147.25L123.386 139.14C125.126 134.427 126.853 129.807 128.566 125.28C129.813 122.007 129.829 118.04 128.616 113.38L131.776 114.27C131.832 114.286 131.891 114.288 131.948 114.277C132.006 114.265 132.059 114.241 132.105 114.205C132.151 114.169 132.188 114.122 132.212 114.069C132.236 114.016 132.248 113.958 132.246 113.9C132.039 103.9 128.433 94.9034 121.426 86.91C115.759 80.45 109.313 75.78 102.086 72.9C103.313 71.9 104.216 70.7767 104.796 69.53C108.896 67.9567 113.526 67.12 118.686 67.02C126.159 66.86 131.776 66.91 135.536 67.17Z" fill="#877F81"/>
<path d="M167.056 69.64C167.062 71.2 167.896 72.5034 169.556 73.5501C170.709 74.2767 173.079 75.7 176.666 77.82C178.826 79.0934 180.959 80.5634 183.066 82.2301C185.112 83.8567 187.169 85.4468 189.236 87.0001C194.976 92.8134 199.489 97.2567 202.776 100.33C203.242 100.77 203.969 101.283 204.956 101.87C206.062 103.29 207.756 104.573 210.036 105.72L226.216 132.71L231.416 137.95C231.502 138.036 231.573 138.138 231.626 138.25C232.032 139.17 231.912 139.633 231.266 139.64C225.826 134.64 216.686 131.11 210.076 126.67C202.756 121.75 192.396 114.51 182.366 109.26C177.539 106.74 172.166 106.457 166.246 108.41C167.852 106.39 169.516 104.993 171.236 104.22C171.325 104.184 171.4 104.119 171.447 104.035C171.494 103.951 171.511 103.853 171.494 103.758C171.478 103.663 171.429 103.577 171.357 103.513C171.284 103.45 171.192 103.414 171.096 103.41C165.736 103.017 160.882 104.627 156.536 108.24C156.464 108.301 156.374 108.336 156.28 108.339C156.186 108.343 156.093 108.315 156.017 108.259C155.941 108.204 155.886 108.125 155.86 108.034C155.834 107.944 155.84 107.847 155.876 107.76L158.326 101.75C158.363 101.653 158.373 101.546 158.354 101.444C158.334 101.341 158.287 101.245 158.216 101.168C158.145 101.091 158.054 101.036 157.953 101.008C157.853 100.98 157.746 100.981 157.646 101.01C151.686 102.8 146.336 106.23 144.656 112.59C142.596 112.83 140.589 113.123 138.636 113.47C136.049 113.943 134.639 112.82 134.406 110.1C133.806 102.96 135.716 96.9101 135.786 90.4101C135.859 82.4967 135.776 74.7501 135.536 67.1701C146.256 66.0901 156.762 66.9134 167.056 69.64Z" fill="#6C6362"/>
<path d="M51.036 69.6801C50.576 83.0734 54.356 95.1734 62.376 105.98C58.1293 111.687 54.0693 118.347 50.196 125.96C47.8826 130.507 46.206 133.94 45.166 136.26L39.006 141.36C38.9106 141.436 38.8397 141.539 38.8023 141.655C38.765 141.771 38.7627 141.896 38.7958 142.013C38.8289 142.13 38.8959 142.235 38.9884 142.315C39.0809 142.395 39.1949 142.445 39.316 142.46L50.696 144.15C50.7546 144.157 50.8107 144.179 50.8599 144.211C50.909 144.244 50.9497 144.288 50.9788 144.34C51.008 144.391 51.0247 144.449 51.0277 144.508C51.0306 144.567 51.0198 144.626 50.996 144.68C50.9893 144.7 50.8726 144.763 50.646 144.87C47.2326 146.443 43.716 147.76 40.096 148.82C40.0212 148.842 39.9525 148.88 39.8953 148.932C39.8381 148.984 39.7938 149.049 39.766 149.12C39.5793 149.553 39.7293 149.967 40.216 150.36C30.936 149.06 22.1926 149.127 13.986 150.56C10.0326 151.253 7.05264 153.627 5.04597 157.68C5.82597 170.03 8.97597 180.87 13.206 193.1C17.066 204.25 22.436 213.47 29.676 221.85C37.4693 230.857 41.4993 235.52 41.766 235.84C48.576 243.97 54.056 248.41 63.056 253.87C74.0626 260.557 81.3326 264.713 84.866 266.34C95.466 271.19 106.366 273.31 118.166 275.12C132.516 277.32 146.546 276.43 160.676 274.19C172.886 272.26 182.716 269.97 193.066 264.56C201.906 259.933 211.383 253.527 221.496 245.34C227.236 240.693 232.186 235.733 236.346 230.46C241.953 223.34 246.033 217.61 248.586 213.27C255.319 201.823 260.329 188.767 263.616 174.1L264.306 171.5L268.196 152.89C268.227 152.736 268.227 152.577 268.194 152.423C268.161 152.27 268.097 152.126 268.006 152C261.456 143.03 253.216 139.18 242.696 136.64C237.249 135.327 231.756 134.017 226.216 132.71L210.036 105.72C213.156 101.04 215.693 96.3367 217.646 91.61C219.173 87.8967 220.236 83.83 220.836 79.41C226.623 77.81 234.696 76.1534 245.056 74.4401C250.896 73.4734 255.123 75.42 257.736 80.28C265.336 94.3867 269.333 109.713 269.726 126.26C270.076 140.64 269.796 153.42 268.326 165.97C266.006 185.763 259.153 203.93 247.766 220.47C232.586 242.517 213.036 258.957 189.116 269.79C182.909 272.603 174.969 275 165.296 276.98C142.329 281.693 120.056 280.74 98.476 274.12C85.9693 270.287 75.3893 265.367 66.736 259.36C62.096 256.147 55.6493 251.16 47.396 244.4C39.496 235.85 29.566 225.11 23.946 218.22C5.97596 196.18 0.295976 167.46 0.00597561 139.31C-0.0873577 130.47 0.912642 121.767 3.00598 113.2C5.26598 103.973 7.89598 94.5167 10.896 84.83C12.396 79.99 14.5993 74.95 17.506 69.71L51.036 69.6801Z" fill="#ABA8A5"/>
<path d="M102.086 72.9C109.313 75.78 115.759 80.45 121.426 86.91C128.433 94.9034 132.039 103.9 132.246 113.9C132.248 113.958 132.237 114.016 132.212 114.069C132.188 114.122 132.151 114.169 132.105 114.205C132.059 114.241 132.006 114.265 131.948 114.277C131.891 114.288 131.832 114.286 131.776 114.27L128.616 113.38C126.796 107 119.786 102.9 113.706 101.11C113.615 101.083 113.519 101.083 113.428 101.112C113.338 101.14 113.258 101.196 113.2 101.27C113.142 101.345 113.107 101.435 113.101 101.53C113.095 101.624 113.118 101.719 113.166 101.8L116.216 107.09C116.276 107.201 116.297 107.329 116.277 107.454C116.256 107.579 116.194 107.693 116.102 107.779C116.009 107.865 115.89 107.917 115.764 107.928C115.638 107.939 115.512 107.908 115.406 107.84C110.986 104.847 106.026 103.47 100.526 103.71C100.462 103.713 100.4 103.735 100.349 103.775C100.298 103.814 100.261 103.868 100.242 103.93C100.224 103.991 100.225 104.057 100.245 104.118C100.265 104.179 100.304 104.232 100.356 104.27L105.416 107.99C105.462 108.024 105.494 108.073 105.507 108.129C105.52 108.185 105.512 108.243 105.485 108.294C105.459 108.345 105.415 108.384 105.362 108.405C105.309 108.427 105.25 108.428 105.196 108.41C100.636 106.763 96.0127 106.897 91.326 108.81C87.4927 110.377 83.416 112.647 79.096 115.62C68.416 122.947 57.106 129.827 45.166 136.26C46.206 133.94 47.8827 130.507 50.196 125.96C54.0693 118.347 58.1294 111.687 62.376 105.98L66.706 103.12C66.9257 102.978 67.0888 102.758 67.166 102.5C67.1993 102.38 67.2327 102.253 67.266 102.12C67.3394 102.153 67.4227 102.183 67.516 102.21C67.6003 102.234 67.6896 102.235 67.7742 102.212C67.8588 102.189 67.9355 102.143 67.996 102.08L74.456 95.32L83.396 86.22L94.136 77.01C94.6027 77.1767 95.0594 76.8601 95.506 76.0601C97.466 75.8134 98.2827 75.0867 97.956 73.88C98.376 73.9867 98.6527 73.8833 98.786 73.57C99.146 74.11 100.246 73.8867 102.086 72.9Z" fill="#949491"/>
<path d="M97.9559 73.88C98.2825 75.0867 97.4659 75.8134 95.5059 76.0601C96.1992 74.2534 97.0159 73.5267 97.9559 73.88Z" fill="#6C6362"/>
<path d="M73.706 78.7501L83.396 86.2201L74.456 95.3201C73.3026 89.9601 73.0526 84.4368 73.706 78.7501Z" fill="#2C292D"/>
<path d="M128.616 113.38C129.829 118.04 129.813 122.007 128.566 125.28C126.853 129.807 125.126 134.427 123.386 139.14L117.216 120.6C115.956 118.133 114.266 116.173 112.146 114.72C112.069 114.667 111.979 114.637 111.885 114.634C111.792 114.631 111.7 114.656 111.62 114.705C111.541 114.753 111.477 114.824 111.437 114.909C111.397 114.993 111.383 115.088 111.396 115.18L112.556 123.46C112.575 123.586 112.564 123.715 112.524 123.836C112.483 123.957 112.415 124.067 112.325 124.156C112.234 124.246 112.123 124.313 112.002 124.352C111.881 124.391 111.752 124.4 111.626 124.38C103.819 123.127 96.5226 124.573 89.7359 128.72C84.7559 131.76 80.5859 135.09 77.2259 138.71C67.7126 148.963 61.4226 155.283 58.3559 157.67C58.2888 157.721 58.2331 157.785 58.1924 157.859C58.1517 157.933 58.1268 158.015 58.1193 158.099C58.1118 158.184 58.1218 158.269 58.1488 158.35C58.1757 158.431 58.219 158.506 58.2759 158.57C65.3759 166.423 73.2559 173.217 81.9159 178.95C84.0359 180.35 85.6926 181.12 86.8859 181.26C88.9059 181.493 91.6792 181.207 95.2059 180.4C99.4792 179.42 101.693 178.927 101.846 178.92C101.93 178.917 102.012 178.896 102.087 178.859C102.162 178.822 102.228 178.769 102.28 178.704C102.332 178.639 102.37 178.565 102.39 178.484C102.41 178.404 102.412 178.321 102.396 178.24C102.189 177.173 102.249 176.08 102.576 174.96C102.609 174.847 102.62 174.729 102.606 174.612C102.593 174.495 102.556 174.382 102.498 174.279C102.441 174.176 102.363 174.086 102.27 174.014C102.176 173.943 102.07 173.89 101.956 173.86C92.8759 171.44 85.7259 171.95 74.7259 171.93C74.6682 171.93 74.6126 171.909 74.57 171.87C74.5274 171.831 74.5009 171.778 74.4959 171.72C74.4925 171.667 74.5081 171.616 74.5396 171.575C74.5711 171.534 74.6162 171.507 74.6659 171.5C84.3326 170.133 93.7226 170.397 102.836 172.29C102.937 172.313 103.044 172.302 103.139 172.259C103.235 172.216 103.314 172.143 103.366 172.05L105.126 169.02C105.143 168.987 105.153 168.95 105.156 168.913C105.159 168.875 105.154 168.838 105.142 168.803C105.129 168.768 105.11 168.737 105.085 168.71C105.06 168.684 105.03 168.663 104.996 168.65C94.1292 164.403 83.2659 161.53 72.4059 160.03C72.3661 160.024 72.3283 160.007 72.2965 159.982C72.2647 159.958 72.2399 159.925 72.2247 159.889C72.2095 159.852 72.2043 159.813 72.2098 159.774C72.2153 159.736 72.2312 159.7 72.2559 159.67C72.3492 159.557 72.4959 159.503 72.6959 159.51C84.4959 160.06 94.1559 162.79 105.826 166.98C105.964 167.028 106.115 167.026 106.253 166.975C106.392 166.924 106.509 166.827 106.586 166.7C110.816 159.39 118.006 154.28 124.096 148.2C124.143 147.993 124.366 147.677 124.766 147.25C128.953 153.583 130.679 160.6 129.946 168.3C127.299 169.773 125.353 171.67 124.106 173.99C120.346 183.18 126.066 188.61 134.626 189.9C134.949 189.95 135.246 190.113 135.462 190.36C135.678 190.606 135.801 190.921 135.808 191.248C135.815 191.575 135.707 191.893 135.501 192.146C135.296 192.399 135.007 192.57 134.686 192.63C131.439 193.263 128.139 193.13 124.786 192.23C124.637 192.187 124.478 192.198 124.337 192.261C124.196 192.324 124.082 192.436 124.016 192.575C123.95 192.715 123.936 192.874 123.976 193.023C124.016 193.173 124.108 193.303 124.236 193.39C126.329 194.897 128.479 195.727 130.686 195.88C137.106 196.33 145.286 196.78 149.886 192.78C149.948 192.727 149.99 192.654 150.005 192.574C150.02 192.493 150.007 192.41 149.969 192.338C149.93 192.266 149.869 192.209 149.794 192.177C149.719 192.144 149.635 192.138 149.556 192.16C145.356 193.273 141.453 193.393 137.846 192.52C137.715 192.489 137.593 192.429 137.488 192.346C137.383 192.262 137.297 192.157 137.237 192.037C137.177 191.917 137.144 191.785 137.141 191.651C137.137 191.517 137.163 191.383 137.216 191.26C137.396 190.84 137.566 190.547 137.726 190.38C137.919 190.18 138.226 190.05 138.646 189.99C142.296 189.49 148.096 187.44 149.356 183.54C150.803 179.06 149.943 175.037 146.776 171.47C145.969 170.383 144.886 169.6 143.526 169.12C142.479 165.26 142.589 161.403 143.856 157.55C144.969 154.197 146.166 150.917 147.446 147.71C152.319 151.603 156.316 155.253 159.436 158.66C161.409 160.807 163.719 163.637 166.366 167.15C166.966 167.323 167.309 167.813 167.396 168.62L169.126 172.56C169.17 172.666 169.251 172.753 169.354 172.804C169.457 172.855 169.575 172.868 169.686 172.84C179.533 170.247 189.589 169.407 199.856 170.32C199.878 170.322 199.898 170.333 199.913 170.35C199.928 170.366 199.936 170.388 199.936 170.41V170.67C199.936 170.737 199.923 170.802 199.897 170.864C199.871 170.925 199.833 170.981 199.786 171.027C199.738 171.074 199.682 171.11 199.62 171.135C199.559 171.159 199.492 171.171 199.426 171.17C189.966 171.01 180.259 171.923 170.306 173.91C170.192 173.932 170.084 173.981 169.992 174.052C169.9 174.123 169.827 174.215 169.777 174.321C169.727 174.426 169.703 174.541 169.706 174.658C169.71 174.774 169.74 174.888 169.796 174.99C170.256 175.843 170.459 176.91 170.406 178.19C169.473 180.617 167.796 182.837 165.376 184.85C161.076 188.417 158.179 190.767 156.686 191.9C156.186 192.28 155.666 193.09 155.126 194.33C153.486 195.21 151.746 196.23 149.906 197.39C144.496 200.8 130.586 201.07 124.956 198.16C123.909 197.613 121.646 196.32 118.166 194.28C112.736 189.91 107.086 186.07 102.606 180.88C102.457 180.706 102.265 180.575 102.049 180.5C101.833 180.424 101.601 180.407 101.376 180.45L83.5259 183.69L72.7059 178.79C61.6392 172.897 51.1626 165.65 41.2759 157.05C41.2096 156.992 41.1602 156.917 41.133 156.833C41.1057 156.749 41.1016 156.66 41.121 156.574C41.1405 156.488 41.1828 156.408 41.2435 156.344C41.3042 156.28 41.381 156.234 41.4659 156.21L47.1459 154.65C47.2228 154.628 47.2911 154.583 47.3421 154.521C47.3931 154.459 47.4243 154.383 47.4319 154.304C47.4394 154.224 47.4229 154.144 47.3844 154.074C47.3459 154.004 47.2872 153.947 47.2159 153.91L40.2159 150.36C39.7292 149.967 39.5792 149.553 39.7659 149.12C39.7938 149.049 39.838 148.984 39.8952 148.932C39.9525 148.88 40.0211 148.842 40.0959 148.82C43.7159 147.76 47.2326 146.443 50.6459 144.87C50.8726 144.763 50.9892 144.7 50.9959 144.68C51.0197 144.626 51.0306 144.567 51.0276 144.508C51.0246 144.449 51.0079 144.391 50.9788 144.34C50.9497 144.288 50.9089 144.244 50.8598 144.211C50.8107 144.179 50.7546 144.157 50.6959 144.15L39.3159 142.46C39.1948 142.445 39.0809 142.395 38.9884 142.315C38.8958 142.235 38.8288 142.13 38.7957 142.013C38.7626 141.896 38.7649 141.771 38.8023 141.655C38.8397 141.539 38.9105 141.436 39.0059 141.36L45.1659 136.26C57.1059 129.827 68.4159 122.947 79.0959 115.62C83.4159 112.647 87.4926 110.377 91.3259 108.81C96.0126 106.897 100.636 106.763 105.196 108.41C105.25 108.428 105.309 108.427 105.362 108.405C105.415 108.384 105.459 108.345 105.485 108.294C105.512 108.243 105.519 108.185 105.507 108.129C105.494 108.073 105.462 108.024 105.416 107.99L100.356 104.27C100.304 104.232 100.265 104.179 100.245 104.118C100.224 104.057 100.224 103.991 100.242 103.93C100.261 103.868 100.298 103.814 100.349 103.775C100.4 103.735 100.462 103.713 100.526 103.71C106.026 103.47 110.986 104.847 115.406 107.84C115.512 107.908 115.638 107.939 115.764 107.928C115.89 107.917 116.009 107.865 116.101 107.779C116.194 107.693 116.256 107.579 116.277 107.454C116.297 107.329 116.276 107.201 116.216 107.09L113.166 101.8C113.118 101.719 113.095 101.624 113.101 101.53C113.107 101.435 113.141 101.345 113.2 101.27C113.258 101.196 113.338 101.14 113.428 101.112C113.518 101.083 113.615 101.083 113.706 101.11C119.786 102.9 126.796 107 128.616 113.38Z" fill="#F5E8D6"/>
<path d="M166.246 108.41C164.439 111.33 162.942 114.913 161.756 119.16C161.376 120.513 160.659 121.507 159.606 122.14L160.596 115.18C160.61 115.088 160.595 114.993 160.554 114.91C160.512 114.826 160.445 114.757 160.363 114.713C160.28 114.669 160.186 114.652 160.094 114.664C160.001 114.676 159.914 114.717 159.846 114.78C157.519 116.893 155.776 119.337 154.616 122.11C152.602 126.917 150.769 132.253 149.116 138.12C146.469 131.933 144.709 127.123 143.836 123.69C142.956 120.25 143.229 116.55 144.656 112.59C146.336 106.23 151.686 102.8 157.646 101.01C157.746 100.98 157.853 100.98 157.953 101.008C158.054 101.036 158.145 101.091 158.216 101.168C158.287 101.245 158.335 101.341 158.354 101.443C158.373 101.546 158.364 101.652 158.326 101.75L155.876 107.76C155.84 107.847 155.834 107.944 155.86 108.034C155.886 108.125 155.941 108.204 156.017 108.259C156.093 108.314 156.186 108.343 156.28 108.339C156.374 108.336 156.464 108.301 156.536 108.24C160.882 104.627 165.736 103.017 171.096 103.41C171.192 103.413 171.284 103.45 171.357 103.513C171.429 103.577 171.478 103.663 171.494 103.758C171.511 103.853 171.494 103.951 171.447 104.035C171.4 104.119 171.325 104.184 171.236 104.22C169.516 104.993 167.852 106.39 166.246 108.41Z" fill="#DCD5C9"/>
<path d="M231.266 139.64C231.619 140.153 231.776 140.613 231.736 141.02C231.696 141.467 231.369 141.773 230.756 141.94C227.869 142.733 224.933 143.297 221.946 143.63C221.726 143.657 221.549 143.737 221.416 143.87C221.36 143.925 221.319 143.992 221.295 144.067C221.272 144.141 221.267 144.22 221.28 144.297C221.294 144.374 221.326 144.446 221.375 144.508C221.423 144.569 221.485 144.618 221.556 144.65C225.176 146.277 228.893 147.447 232.706 148.16C232.809 148.179 232.905 148.227 232.983 148.297C233.06 148.368 233.116 148.459 233.144 148.561C233.173 148.662 233.172 148.769 233.142 148.869C233.112 148.97 233.055 149.06 232.976 149.13C230.763 151.11 228.113 152.77 225.026 154.11C224.908 154.162 224.809 154.248 224.742 154.358C224.674 154.468 224.642 154.596 224.65 154.724C224.658 154.853 224.704 154.976 224.784 155.077C224.864 155.178 224.973 155.253 225.096 155.29C226.889 155.83 228.633 156.047 230.326 155.94C230.451 155.935 230.575 155.969 230.68 156.038C230.785 156.106 230.866 156.206 230.911 156.323C230.956 156.44 230.964 156.568 230.932 156.69C230.901 156.811 230.832 156.92 230.736 157L223.306 163.21C220.053 165.843 217.393 167.79 215.326 169.05C210.193 172.183 205.293 175.22 200.626 178.16L189.386 183.96C185.946 183.813 183.333 182.923 181.546 181.29L186.646 180.76C186.845 180.733 187.041 180.673 187.226 180.58C198.033 174.96 207.173 167.447 214.646 158.04C214.729 157.938 214.768 157.807 214.755 157.676C214.742 157.545 214.678 157.424 214.576 157.34C205.196 149.48 196.326 138.42 185.126 130.23C178.446 125.34 168.296 121.69 160.316 125.05C160.255 125.075 160.19 125.088 160.124 125.087C160.058 125.086 159.993 125.072 159.933 125.044C159.873 125.017 159.819 124.978 159.775 124.929C159.731 124.88 159.697 124.823 159.676 124.76C159.416 123.987 159.393 123.113 159.606 122.14C160.659 121.507 161.376 120.513 161.756 119.16C162.943 114.913 164.439 111.33 166.246 108.41C172.166 106.457 177.539 106.74 182.366 109.26C192.396 114.51 202.756 121.75 210.076 126.67C216.686 131.11 225.826 134.64 231.266 139.64Z" fill="#D2C6B7"/>
<path d="M117.216 120.6L114.496 122.71C114.367 122.807 114.259 122.931 114.18 123.072C114.101 123.213 114.052 123.369 114.036 123.53C113.976 124.097 113.733 124.703 113.306 125.35C113.217 125.489 113.095 125.603 112.95 125.684C112.805 125.764 112.642 125.807 112.476 125.81C104.456 126.02 99.4062 125.82 93.7062 128.43C93.6255 128.467 93.5546 128.522 93.4994 128.591C93.4442 128.661 93.4063 128.742 93.3887 128.829C93.3711 128.916 93.3744 129.006 93.3983 129.091C93.4222 129.176 93.4661 129.255 93.5262 129.32C96.1462 132.11 96.4662 135.37 96.7562 138.97C97.8162 152.04 110.546 149.18 119.176 147.37C120.456 147.097 122.096 147.373 124.096 148.2C118.006 154.28 110.816 159.39 106.586 166.7C106.509 166.827 106.392 166.924 106.254 166.975C106.115 167.026 105.964 167.028 105.826 166.98C94.1562 162.79 84.4962 160.06 72.6962 159.51C72.4962 159.503 72.3496 159.557 72.2562 159.67C72.2315 159.7 72.2156 159.736 72.2102 159.774C72.2047 159.813 72.2098 159.852 72.225 159.889C72.2402 159.925 72.265 159.958 72.2968 159.982C72.3286 160.007 72.3664 160.024 72.4062 160.03C83.2662 161.53 94.1296 164.403 104.996 168.65C105.03 168.663 105.06 168.684 105.085 168.71C105.111 168.737 105.13 168.768 105.142 168.803C105.154 168.838 105.159 168.875 105.156 168.913C105.154 168.95 105.143 168.987 105.126 169.02L103.366 172.05C103.315 172.142 103.235 172.216 103.139 172.259C103.044 172.302 102.937 172.313 102.836 172.29C93.7229 170.397 84.3329 170.133 74.6662 171.5C74.6165 171.507 74.5714 171.534 74.5399 171.575C74.5084 171.615 74.4928 171.667 74.4962 171.72C74.5013 171.777 74.5277 171.831 74.5703 171.87C74.6129 171.909 74.6685 171.93 74.7262 171.93C85.7262 171.95 92.8762 171.44 101.956 173.86C102.07 173.89 102.177 173.942 102.27 174.014C102.363 174.086 102.441 174.176 102.499 174.279C102.557 174.381 102.593 174.495 102.607 174.612C102.62 174.729 102.61 174.847 102.576 174.96C102.25 176.08 102.19 177.173 102.396 178.24C102.412 178.321 102.41 178.404 102.39 178.484C102.37 178.564 102.332 178.639 102.28 178.704C102.228 178.769 102.162 178.821 102.087 178.859C102.012 178.896 101.93 178.917 101.846 178.92C101.693 178.927 99.4796 179.42 95.2062 180.4C91.6796 181.207 88.9062 181.493 86.8862 181.26C85.6929 181.12 84.0362 180.35 81.9162 178.95C73.2562 173.217 65.3762 166.423 58.2762 158.57C58.2193 158.506 58.176 158.431 58.1491 158.35C58.1221 158.269 58.1121 158.184 58.1196 158.099C58.1271 158.015 58.152 157.933 58.1928 157.859C58.2335 157.785 58.2891 157.721 58.3562 157.67C61.4229 155.283 67.7129 148.963 77.2262 138.71C80.5862 135.09 84.7562 131.76 89.7362 128.72C96.5229 124.573 103.82 123.127 111.626 124.38C111.752 124.4 111.881 124.391 112.002 124.352C112.124 124.313 112.234 124.246 112.325 124.156C112.416 124.067 112.484 123.957 112.524 123.836C112.564 123.715 112.575 123.586 112.556 123.46L111.396 115.18C111.383 115.088 111.398 114.993 111.438 114.909C111.477 114.824 111.541 114.753 111.621 114.704C111.7 114.656 111.792 114.631 111.886 114.634C111.979 114.637 112.07 114.667 112.146 114.72C114.266 116.173 115.956 118.133 117.216 120.6Z" fill="#2C292D"/>
<path d="M159.606 122.14C159.393 123.113 159.416 123.987 159.676 124.76C159.697 124.822 159.731 124.88 159.775 124.929C159.819 124.978 159.873 125.017 159.933 125.044C159.993 125.071 160.058 125.086 160.124 125.087C160.19 125.088 160.255 125.075 160.316 125.05C168.296 121.69 178.446 125.34 185.126 130.23C196.326 138.42 205.196 149.48 214.576 157.34C214.678 157.424 214.742 157.545 214.755 157.676C214.768 157.807 214.729 157.938 214.646 158.04C207.173 167.447 198.033 174.96 187.226 180.58C187.041 180.673 186.845 180.733 186.646 180.76L181.546 181.29L170.406 178.19C170.46 176.91 170.256 175.843 169.796 174.99C169.741 174.888 169.71 174.774 169.707 174.658C169.703 174.541 169.728 174.426 169.777 174.321C169.827 174.215 169.901 174.123 169.993 174.052C170.085 173.981 170.192 173.932 170.306 173.91C180.26 171.923 189.966 171.01 199.426 171.17C199.493 171.171 199.559 171.159 199.621 171.135C199.683 171.11 199.739 171.074 199.786 171.027C199.834 170.981 199.872 170.925 199.897 170.864C199.923 170.802 199.936 170.737 199.936 170.67V170.41C199.936 170.388 199.928 170.366 199.914 170.35C199.899 170.333 199.878 170.322 199.856 170.32C189.59 169.407 179.533 170.247 169.686 172.84C169.575 172.868 169.457 172.855 169.354 172.804C169.252 172.752 169.171 172.666 169.126 172.56L167.396 168.62C167.33 168.1 167.516 167.78 167.956 167.66C176.396 165.267 183.153 163.457 188.226 162.23C192.193 161.27 197.733 160.413 204.846 159.66C204.869 159.659 204.89 159.653 204.911 159.643C204.931 159.634 204.949 159.62 204.964 159.603C204.979 159.587 204.99 159.567 204.997 159.546C205.005 159.525 205.008 159.502 205.006 159.48V159.44C205.004 159.375 204.975 159.314 204.927 159.269C204.878 159.225 204.814 159.2 204.746 159.2C191.406 159.3 178.613 161.95 166.366 167.15C163.72 163.637 161.41 160.807 159.436 158.66C156.316 155.253 152.32 151.603 147.446 147.71C148.72 143.957 149.276 140.76 149.116 138.12C150.77 132.253 152.603 126.917 154.616 122.11C155.776 119.337 157.52 116.893 159.846 114.78C159.915 114.717 160.002 114.676 160.094 114.664C160.187 114.652 160.281 114.669 160.363 114.713C160.446 114.757 160.513 114.826 160.554 114.91C160.596 114.993 160.611 115.088 160.596 115.18L159.606 122.14ZM169.716 132.86C163.306 130.23 157.866 135.13 158.116 141.46C158.13 141.785 158.19 142.105 158.296 142.41C159.31 145.277 161.54 146.97 164.986 147.49C166.553 147.85 168.126 147.773 169.706 147.26C174.426 145.73 176.536 141.67 174.856 137.03C174.03 134.737 172.316 133.347 169.716 132.86Z" fill="#2C292D"/>
<path d="M117.216 120.6L123.386 139.14L124.766 147.25C124.366 147.677 124.142 147.993 124.096 148.2C122.096 147.373 120.456 147.097 119.176 147.37C110.546 149.18 97.8156 152.04 96.7556 138.97C96.4656 135.37 96.1456 132.11 93.5256 129.32C93.4655 129.255 93.4216 129.176 93.3977 129.091C93.3738 129.006 93.3705 128.916 93.3881 128.829C93.4056 128.742 93.4436 128.661 93.4988 128.591C93.554 128.522 93.6249 128.467 93.7056 128.43C99.4056 125.82 104.456 126.02 112.476 125.81C112.642 125.807 112.805 125.764 112.949 125.684C113.094 125.603 113.217 125.489 113.306 125.35C113.732 124.703 113.976 124.097 114.036 123.53C114.051 123.369 114.1 123.213 114.18 123.072C114.259 122.931 114.366 122.807 114.496 122.71L117.216 120.6ZM100.554 135.286C99.5522 136.84 99.2905 138.78 99.8262 140.68C100.362 142.581 101.651 144.285 103.41 145.419C104.281 145.98 105.241 146.384 106.235 146.608C107.23 146.832 108.239 146.872 109.205 146.725C110.172 146.578 111.077 146.247 111.868 145.751C112.659 145.255 113.322 144.603 113.818 143.834C114.819 142.28 115.081 140.34 114.545 138.439C114.009 136.539 112.72 134.835 110.961 133.701C110.09 133.14 109.13 132.736 108.136 132.512C107.142 132.287 106.132 132.248 105.166 132.395C104.199 132.542 103.295 132.873 102.503 133.369C101.712 133.865 101.049 134.517 100.554 135.286Z" fill="#4F4747"/>
<path d="M164.986 147.49C170.786 146.237 173.49 142.963 173.096 137.67C172.95 135.637 171.823 134.033 169.716 132.86C172.316 133.347 174.03 134.737 174.856 137.03C176.536 141.67 174.426 145.73 169.706 147.26C168.126 147.773 166.553 147.85 164.986 147.49Z" fill="#4F4747"/>
<path d="M100.554 135.286C101.05 134.517 101.713 133.865 102.504 133.369C103.295 132.873 104.2 132.542 105.166 132.395C106.133 132.248 107.142 132.288 108.137 132.512C109.131 132.736 110.091 133.14 110.962 133.701C112.721 134.835 114.01 136.539 114.546 138.44C115.081 140.34 114.82 142.28 113.818 143.834C113.322 144.603 112.66 145.255 111.869 145.751C111.077 146.247 110.172 146.578 109.206 146.725C108.24 146.872 107.23 146.833 106.236 146.608C105.242 146.384 104.281 145.98 103.411 145.419C101.652 144.285 100.363 142.581 99.8268 140.681C99.2912 138.78 99.5528 136.84 100.554 135.286ZM104.923 134.2C104.389 134.285 103.916 134.613 103.608 135.11C103.3 135.608 103.183 136.235 103.282 136.853C103.331 137.159 103.432 137.453 103.578 137.72C103.725 137.986 103.914 138.22 104.136 138.406C104.358 138.592 104.607 138.728 104.87 138.806C105.133 138.884 105.405 138.903 105.67 138.86C106.204 138.775 106.677 138.447 106.985 137.95C107.292 137.452 107.41 136.825 107.311 136.207C107.262 135.901 107.161 135.607 107.014 135.34C106.868 135.074 106.678 134.841 106.457 134.654C106.235 134.468 105.985 134.332 105.722 134.254C105.459 134.176 105.187 134.157 104.923 134.2Z" fill="#110F0D"/>
<path d="M169.716 132.86C171.822 134.033 172.949 135.637 173.096 137.67C173.489 142.963 170.786 146.237 164.986 147.49C161.539 146.97 159.309 145.277 158.296 142.41C158.19 142.105 158.129 141.785 158.116 141.46C157.866 135.13 163.306 130.23 169.716 132.86ZM163.628 135.912C163.565 136.348 163.73 136.798 164.087 137.164C164.443 137.53 164.962 137.781 165.529 137.863C166.096 137.945 166.665 137.85 167.11 137.6C167.555 137.349 167.841 136.964 167.904 136.528C167.966 136.092 167.801 135.642 167.445 135.276C167.088 134.91 166.57 134.659 166.003 134.577C165.436 134.495 164.867 134.59 164.421 134.84C163.976 135.091 163.691 135.476 163.628 135.912Z" fill="#110F0D"/>
<path d="M264.306 171.5C258.476 163.76 251.936 158.92 241.806 159.37C236.146 159.617 229.979 160.897 223.306 163.21L230.736 157C230.832 156.92 230.901 156.811 230.932 156.69C230.963 156.568 230.956 156.44 230.911 156.323C230.866 156.206 230.785 156.106 230.68 156.038C230.575 155.969 230.451 155.935 230.326 155.94C228.632 156.047 226.889 155.83 225.096 155.29C224.973 155.253 224.864 155.178 224.784 155.077C224.704 154.976 224.657 154.853 224.65 154.724C224.642 154.596 224.674 154.468 224.741 154.358C224.809 154.248 224.908 154.162 225.026 154.11C228.112 152.77 230.762 151.11 232.976 149.13C233.054 149.06 233.112 148.97 233.142 148.87C233.171 148.769 233.172 148.662 233.144 148.561C233.116 148.46 233.06 148.368 232.982 148.298C232.905 148.227 232.809 148.179 232.706 148.16C228.892 147.447 225.176 146.277 221.556 144.65C221.485 144.618 221.422 144.569 221.374 144.508C221.326 144.446 221.294 144.374 221.28 144.297C221.266 144.22 221.271 144.141 221.295 144.067C221.319 143.992 221.36 143.925 221.416 143.87C221.549 143.737 221.726 143.657 221.946 143.63C224.932 143.297 227.869 142.733 230.756 141.94C231.369 141.773 231.696 141.467 231.736 141.02C231.776 140.613 231.619 140.153 231.266 139.64C231.912 139.633 232.032 139.17 231.626 138.25C231.573 138.138 231.502 138.036 231.416 137.95L226.216 132.71C231.756 134.017 237.249 135.327 242.696 136.64C253.216 139.18 261.456 143.03 268.006 152C268.097 152.126 268.161 152.27 268.194 152.423C268.227 152.577 268.227 152.736 268.196 152.89L264.306 171.5Z" fill="#A29C9C"/>
<path d="M107.311 136.207C107.105 134.92 106.036 134.022 104.923 134.2C103.811 134.378 103.076 135.566 103.282 136.853C103.488 138.14 104.557 139.039 105.67 138.86C106.782 138.682 107.517 137.494 107.311 136.207Z" fill="#DCD5C9"/>
<path d="M166.003 134.577C164.822 134.407 163.759 135.005 163.628 135.912C163.497 136.819 164.348 137.693 165.529 137.863C166.71 138.033 167.773 137.436 167.904 136.528C168.035 135.621 167.183 134.747 166.003 134.577Z" fill="#B6BDC6"/>
<path d="M40.2159 150.36L47.2159 153.91C47.2872 153.947 47.3458 154.004 47.3844 154.074C47.4229 154.144 47.4394 154.224 47.4319 154.304C47.4243 154.383 47.3931 154.459 47.3421 154.521C47.2911 154.583 47.2228 154.628 47.1459 154.65L41.4659 156.21C41.381 156.234 41.3042 156.28 41.2435 156.344C41.1828 156.408 41.1405 156.488 41.121 156.574C41.1016 156.66 41.1057 156.749 41.1329 156.833C41.1602 156.917 41.2096 156.992 41.2759 157.05C51.1626 165.65 61.6392 172.897 72.7059 178.79C70.9592 181.11 69.5159 183.717 68.3759 186.61C68.1559 187.15 68.1859 187.517 68.4659 187.71C68.7259 187.883 69.1292 187.947 69.6759 187.9L56.4759 209.77C56.4093 209.879 56.3779 210.006 56.386 210.133C56.3942 210.26 56.4413 210.382 56.5212 210.482C56.601 210.581 56.7096 210.654 56.8322 210.689C56.9547 210.725 57.0852 210.721 57.2059 210.68L62.1959 208.96C62.2989 208.926 62.4103 208.924 62.5146 208.956C62.6188 208.987 62.7105 209.05 62.7768 209.135C62.843 209.22 62.8806 209.323 62.884 209.43C62.8874 209.537 62.8566 209.642 62.7959 209.73C57.3892 217.757 52.8292 226.17 49.1159 234.97C48.8959 235.483 49.3859 236.353 50.5859 237.58C51.5192 238.527 52.3892 239.39 53.1959 240.17C51.3692 239.41 49.6726 238.263 48.1059 236.73C42.6859 231.41 35.5359 224.73 30.6059 218C25.0926 210.473 21.6092 205.22 20.1559 202.24C16.0026 193.727 12.1959 184.273 8.7359 173.88C7.9559 171.553 6.7259 166.153 5.0459 157.68C7.05257 153.627 10.0326 151.253 13.9859 150.56C22.1926 149.127 30.9359 149.06 40.2159 150.36Z" fill="#949491"/>
<path d="M264.306 171.5L263.616 174.1C259.066 187.95 254.356 199.46 246.586 211.36L240.246 220.23C232.659 215.483 224.616 211.643 216.116 208.71C210.669 202.163 205.873 195.257 201.726 187.99C201.68 187.909 201.661 187.814 201.673 187.722C201.685 187.629 201.727 187.543 201.793 187.476C201.859 187.409 201.944 187.366 202.037 187.352C202.129 187.338 202.224 187.355 202.306 187.4C202.993 187.787 203.636 187.967 204.236 187.94C204.31 187.938 204.382 187.918 204.446 187.882C204.51 187.845 204.564 187.794 204.604 187.731C204.643 187.669 204.667 187.598 204.672 187.525C204.678 187.451 204.665 187.378 204.636 187.31L200.626 178.16C205.293 175.22 210.193 172.183 215.326 169.05C217.393 167.79 220.053 165.843 223.306 163.21C229.979 160.897 236.146 159.617 241.806 159.37C251.936 158.92 258.476 163.76 264.306 171.5Z" fill="#949491"/>
<path d="M53.1959 240.17C66.8692 251.63 82.0059 259.837 98.6059 264.79C106.579 267.243 114.649 268.99 122.816 270.03C134.363 271.49 145.849 271.14 157.276 268.98C162.069 268.08 166.916 267.153 171.816 266.2C174.729 265.72 178.449 264.54 182.976 262.66C194.756 257.77 204.686 252.8 214.476 245.09C217.896 242.39 221.276 239.663 224.616 236.91L233.786 228.19C239.066 223.53 243.333 217.92 246.586 211.36C254.356 199.46 259.066 187.95 263.616 174.1C260.329 188.767 255.319 201.823 248.586 213.27C246.033 217.61 241.953 223.34 236.346 230.46C232.186 235.733 227.236 240.693 221.496 245.34C211.383 253.527 201.906 259.933 193.066 264.56C182.716 269.97 172.886 272.26 160.676 274.19C146.546 276.43 132.516 277.32 118.166 275.12C106.366 273.31 95.4659 271.19 84.8659 266.34C81.3326 264.713 74.0626 260.557 63.0559 253.87C54.0559 248.41 48.5759 243.97 41.7659 235.84C41.4992 235.52 37.4692 230.857 29.6759 221.85C22.4359 213.47 17.0659 204.25 13.2059 193.1C8.9759 180.87 5.8259 170.03 5.0459 157.68C6.7259 166.153 7.9559 171.553 8.7359 173.88C12.1959 184.273 16.0026 193.727 20.1559 202.24C21.6092 205.22 25.0926 210.473 30.6059 218C35.5359 224.73 42.6859 231.41 48.1059 236.73C49.6726 238.263 51.3692 239.41 53.1959 240.17Z" fill="#989FA7"/>
<path d="M167.396 168.62C167.31 167.813 166.966 167.323 166.366 167.15C178.613 161.95 191.406 159.3 204.746 159.2C204.813 159.2 204.878 159.225 204.927 159.27C204.975 159.314 205.004 159.376 205.006 159.44V159.48C205.008 159.502 205.005 159.525 204.997 159.546C204.99 159.567 204.978 159.587 204.964 159.603C204.949 159.62 204.931 159.634 204.911 159.643C204.89 159.653 204.869 159.659 204.846 159.66C197.733 160.413 192.193 161.27 188.226 162.23C183.153 163.457 176.396 165.267 167.956 167.66C167.516 167.78 167.33 168.1 167.396 168.62Z" fill="#B6BDC6"/>
<path d="M143.525 169.12C144.885 169.6 145.969 170.383 146.775 171.47C145.942 171.403 145.235 171.483 144.655 171.71C144.589 171.736 144.529 171.778 144.481 171.832C144.434 171.886 144.401 171.95 144.384 172.019C144.367 172.088 144.367 172.16 144.385 172.228C144.403 172.296 144.437 172.359 144.485 172.41L146.005 174.04C146.184 174.234 146.302 174.477 146.345 174.737C146.389 174.997 146.355 175.265 146.249 175.506C146.143 175.748 145.969 175.954 145.748 176.098C145.528 176.243 145.269 176.32 145.005 176.32L126.135 176.23C126.056 176.23 125.977 176.214 125.904 176.182C125.831 176.15 125.765 176.103 125.711 176.044C125.656 175.985 125.614 175.915 125.588 175.838C125.561 175.762 125.55 175.681 125.555 175.6C125.615 174.787 125.132 174.25 124.105 173.99C125.352 171.67 127.299 169.773 129.945 168.3C134.785 167 139.312 167.273 143.525 169.12Z" fill="#5E5553"/>
<path d="M146.776 171.47C149.943 175.037 150.803 179.06 149.356 183.54C148.096 187.44 142.296 189.49 138.646 189.99C138.226 190.05 137.92 190.18 137.726 190.38C137.566 190.547 137.396 190.84 137.216 191.26C137.163 191.383 137.137 191.517 137.141 191.651C137.145 191.785 137.178 191.917 137.238 192.037C137.298 192.157 137.383 192.262 137.488 192.346C137.594 192.429 137.716 192.489 137.846 192.52C141.453 193.393 145.356 193.273 149.556 192.16C149.635 192.139 149.719 192.144 149.794 192.177C149.869 192.209 149.931 192.266 149.969 192.338C150.008 192.41 150.02 192.493 150.005 192.574C149.99 192.654 149.948 192.727 149.886 192.78C145.286 196.78 137.106 196.33 130.686 195.88C128.48 195.727 126.33 194.897 124.236 193.39C124.109 193.303 124.016 193.173 123.976 193.023C123.936 192.874 123.95 192.715 124.016 192.575C124.083 192.436 124.197 192.324 124.338 192.261C124.479 192.198 124.638 192.187 124.786 192.23C128.14 193.13 131.44 193.263 134.686 192.63C135.007 192.57 135.296 192.399 135.502 192.146C135.707 191.893 135.816 191.575 135.809 191.248C135.801 190.921 135.679 190.606 135.462 190.36C135.246 190.113 134.95 189.95 134.626 189.9C126.066 188.61 120.346 183.18 124.106 173.99C125.133 174.25 125.616 174.787 125.556 175.6C125.551 175.681 125.562 175.762 125.588 175.838C125.615 175.915 125.657 175.985 125.711 176.044C125.766 176.103 125.832 176.15 125.905 176.182C125.978 176.214 126.057 176.23 126.136 176.23L145.006 176.32C145.27 176.32 145.528 176.243 145.749 176.098C145.97 175.954 146.144 175.748 146.25 175.506C146.356 175.265 146.39 174.997 146.346 174.737C146.303 174.477 146.185 174.235 146.006 174.04L144.486 172.41C144.438 172.359 144.404 172.296 144.386 172.228C144.368 172.16 144.368 172.088 144.385 172.019C144.401 171.95 144.435 171.886 144.482 171.832C144.53 171.778 144.589 171.736 144.656 171.71C145.236 171.483 145.943 171.403 146.776 171.47Z" fill="#1E1D26"/>
<path d="M181.546 181.29C183.333 182.923 185.946 183.813 189.386 183.96C184.166 185.89 179.126 188.02 173.876 189.44C167.709 191.107 161.459 192.737 155.126 194.33C155.666 193.09 156.186 192.28 156.686 191.9C158.179 190.767 161.076 188.417 165.376 184.85C167.796 182.837 169.473 180.617 170.406 178.19L181.546 181.29Z" fill="#ABA8A5"/>
<path d="M200.626 178.16L204.636 187.31C204.665 187.378 204.678 187.451 204.672 187.525C204.666 187.598 204.643 187.669 204.603 187.731C204.564 187.794 204.51 187.845 204.445 187.882C204.381 187.918 204.309 187.938 204.236 187.94C203.636 187.967 202.992 187.787 202.306 187.4C202.224 187.355 202.129 187.338 202.036 187.352C201.944 187.366 201.858 187.409 201.793 187.476C201.727 187.543 201.685 187.629 201.673 187.722C201.661 187.814 201.679 187.909 201.726 187.99C205.872 195.257 210.669 202.163 216.116 208.71L217.146 210.18C217.179 210.232 217.196 210.292 217.195 210.354C217.194 210.416 217.174 210.476 217.139 210.526C217.103 210.577 217.054 210.615 216.996 210.637C216.939 210.659 216.876 210.664 216.816 210.65L210.936 209.19C210.881 209.179 210.824 209.183 210.771 209.203C210.719 209.224 210.674 209.259 210.641 209.304C210.608 209.35 210.589 209.404 210.586 209.46C210.584 209.516 210.597 209.572 210.626 209.62C215.999 218.167 220.662 227.263 224.616 236.91C221.276 239.663 217.896 242.39 214.476 245.09C204.686 252.8 194.756 257.77 182.976 262.66C178.449 264.54 174.729 265.72 171.816 266.2C172.576 258.867 171.446 252.02 168.426 245.66C168.199 245.187 167.886 244.817 167.486 244.55C167.552 243.89 167.809 243.58 168.256 243.62C170.366 243.8 172.016 246.85 173.296 248.33C173.376 248.421 173.482 248.486 173.599 248.515C173.717 248.545 173.841 248.538 173.955 248.496C174.068 248.453 174.167 248.378 174.236 248.279C174.306 248.179 174.344 248.061 174.346 247.94C174.346 246.62 174.062 245.14 173.496 243.5C171.356 237.39 168.666 232.01 164.156 227.37C164.065 227.276 163.955 227.204 163.833 227.159C163.712 227.114 163.583 227.098 163.456 227.11C163.089 227.137 162.859 227.48 162.766 228.14C162.746 228.273 162.683 228.396 162.588 228.491C162.493 228.586 162.37 228.648 162.237 228.669C162.104 228.689 161.968 228.666 161.849 228.603C161.73 228.54 161.634 228.441 161.576 228.32C160.969 227.04 159.712 225.553 157.806 223.86C151.436 218.2 144.186 216.14 135.726 215.87C126.399 215.563 118.112 218.603 110.866 224.99L101.626 217.03C101.582 216.992 101.55 216.943 101.531 216.888C101.512 216.834 101.508 216.775 101.52 216.718C101.531 216.662 101.556 216.609 101.594 216.565C101.632 216.522 101.681 216.489 101.736 216.47L105.776 215.08C105.951 215.022 106.105 214.912 106.218 214.765C106.331 214.619 106.398 214.442 106.41 214.257C106.422 214.072 106.378 213.888 106.285 213.729C106.191 213.569 106.052 213.44 105.886 213.36L105.216 213.02C104.939 212.888 104.635 212.817 104.326 212.81C99.7323 212.77 95.999 211.19 93.1257 208.07C92.9457 207.88 89.3557 205.05 89.1057 203.11C89.0738 202.885 88.96 202.679 88.7857 202.53L78.9157 194.28C78.7192 194.116 78.5917 193.884 78.5583 193.63C78.525 193.376 78.5883 193.119 78.7357 192.91C78.909 192.617 78.839 191.617 78.5257 189.91C78.4857 189.702 78.3746 189.515 78.2118 189.381C78.049 189.248 77.845 189.177 77.6357 189.18C77.5757 189.18 76.9223 188.7 75.6757 187.74C75.2334 187.4 74.6727 187.249 74.1157 187.32L69.6757 187.9C69.129 187.947 68.7257 187.883 68.4657 187.71C68.1857 187.517 68.1557 187.15 68.3757 186.61C69.5157 183.717 70.959 181.11 72.7057 178.79L83.5257 183.69C94.999 188.183 106.546 191.713 118.166 194.28C121.646 196.32 123.909 197.613 124.956 198.16C130.586 201.07 144.496 200.8 149.906 197.39C151.746 196.23 153.486 195.21 155.126 194.33C161.459 192.737 167.709 191.107 173.876 189.44C179.126 188.02 184.166 185.89 189.386 183.96L200.626 178.16Z" fill="#4F4747"/>
<path d="M118.166 194.28C106.546 191.713 94.9997 188.183 83.5264 183.69L101.376 180.45C101.601 180.407 101.833 180.424 102.049 180.5C102.265 180.575 102.457 180.706 102.606 180.88C107.086 186.07 112.736 189.91 118.166 194.28Z" fill="#ABA8A5"/>
<path d="M110.866 224.99C110.872 225.263 110.779 225.463 110.586 225.59C104.006 231.363 99.4423 238.427 96.8956 246.78C96.8823 246.828 96.8842 246.878 96.9009 246.925C96.9176 246.972 96.9483 247.012 96.9889 247.041C97.0294 247.069 97.0778 247.084 97.1273 247.084C97.1769 247.084 97.2252 247.069 97.2656 247.04L104.486 241.66C104.58 241.592 104.696 241.559 104.812 241.567C104.929 241.576 105.039 241.624 105.123 241.705C105.207 241.786 105.261 241.893 105.274 242.009C105.287 242.125 105.26 242.242 105.196 242.34C100.949 248.547 98.7523 256.03 98.6056 264.79C82.0056 259.837 66.8689 251.63 53.1956 240.17C52.3889 239.39 51.5189 238.527 50.5856 237.58C49.3856 236.353 48.8956 235.483 49.1156 234.97C52.8289 226.17 57.3889 217.757 62.7956 209.73C62.8563 209.642 62.8871 209.537 62.8837 209.43C62.8802 209.323 62.8427 209.22 62.7765 209.135C62.7102 209.05 62.6185 208.987 62.5142 208.956C62.41 208.924 62.2986 208.926 62.1956 208.96L57.2056 210.68C57.0849 210.721 56.9544 210.725 56.8318 210.689C56.7093 210.653 56.6007 210.581 56.5209 210.481C56.441 210.382 56.3938 210.26 56.3857 210.133C56.3776 210.006 56.409 209.879 56.4756 209.77L69.6756 187.9L74.1156 187.32C74.6726 187.249 75.2333 187.4 75.6756 187.74C76.9223 188.7 77.5756 189.18 77.6356 189.18C77.8449 189.177 78.0489 189.248 78.2117 189.381C78.3745 189.515 78.4856 189.702 78.5256 189.91C78.8389 191.617 78.9089 192.617 78.7356 192.91C78.5882 193.119 78.5249 193.376 78.5583 193.63C78.5916 193.884 78.7192 194.116 78.9156 194.28L88.7856 202.53C88.9599 202.679 89.0737 202.885 89.1056 203.11C89.3556 205.05 92.9456 207.88 93.1256 208.07C95.9989 211.19 99.7323 212.77 104.326 212.81C104.635 212.817 104.939 212.888 105.216 213.02L105.886 213.36C106.052 213.44 106.191 213.569 106.285 213.728C106.378 213.888 106.422 214.072 106.41 214.257C106.398 214.442 106.331 214.619 106.218 214.765C106.105 214.912 105.951 215.021 105.776 215.08L101.736 216.47C101.681 216.489 101.632 216.522 101.594 216.565C101.556 216.609 101.531 216.662 101.519 216.718C101.508 216.775 101.512 216.834 101.531 216.888C101.549 216.943 101.582 216.992 101.626 217.03L110.866 224.99Z" fill="#6C6362"/>
<path d="M240.245 220.23L233.785 228.19L224.615 236.91C220.662 227.263 215.999 218.167 210.625 209.62C210.597 209.572 210.584 209.516 210.586 209.46C210.589 209.404 210.608 209.35 210.641 209.304C210.674 209.259 210.719 209.224 210.771 209.203C210.823 209.183 210.881 209.179 210.935 209.19L216.815 210.65C216.876 210.664 216.938 210.659 216.996 210.637C217.053 210.615 217.103 210.577 217.139 210.526C217.174 210.476 217.194 210.416 217.195 210.354C217.196 210.292 217.179 210.232 217.145 210.18L216.115 208.71C224.615 211.643 232.659 215.483 240.245 220.23Z" fill="#877F81"/>
<path d="M246.586 211.36C243.333 217.92 239.066 223.53 233.786 228.19L240.246 220.23L246.586 211.36Z" fill="#A29C9C"/>
<path d="M167.486 244.55C165.396 244.86 165.646 246.09 164.856 247.47C164.737 247.676 164.577 247.855 164.386 247.996C164.195 248.137 163.977 248.237 163.746 248.29C163.514 248.343 163.275 248.347 163.043 248.302C162.811 248.257 162.59 248.165 162.396 248.03C159.616 246.097 157.156 246.133 155.016 248.14C154.572 248.552 153.987 248.784 153.376 248.79C151.169 248.797 148.793 249.53 146.246 250.99C145.898 251.187 145.51 251.297 145.116 251.31C139.576 251.56 133.116 246.31 129.376 242.47C126.689 239.71 120.426 234.083 110.586 225.59C110.779 225.463 110.873 225.263 110.866 224.99C118.113 218.603 126.399 215.563 135.726 215.87C144.186 216.14 151.436 218.2 157.806 223.86C159.713 225.553 160.969 227.04 161.576 228.32C161.635 228.441 161.73 228.54 161.849 228.603C161.968 228.666 162.104 228.689 162.237 228.669C162.37 228.648 162.493 228.586 162.588 228.491C162.684 228.396 162.746 228.273 162.766 228.14C162.859 227.48 163.089 227.137 163.456 227.11C163.583 227.098 163.713 227.114 163.834 227.159C163.955 227.204 164.065 227.276 164.156 227.37C168.666 232.01 171.356 237.39 173.496 243.5C174.063 245.14 174.346 246.62 174.346 247.94C174.345 248.061 174.306 248.179 174.237 248.279C174.167 248.378 174.069 248.453 173.955 248.496C173.841 248.538 173.717 248.545 173.6 248.515C173.482 248.486 173.376 248.421 173.296 248.33C172.016 246.85 170.366 243.8 168.256 243.62C167.809 243.58 167.553 243.89 167.486 244.55Z" fill="#877F81"/>
<path d="M110.586 225.59C120.426 234.083 126.69 239.71 129.376 242.47C133.116 246.31 139.576 251.56 145.116 251.31C145.51 251.297 145.898 251.187 146.246 250.99C148.793 249.53 151.17 248.797 153.376 248.79C153.987 248.784 154.572 248.552 155.016 248.14C157.156 246.133 159.616 246.097 162.396 248.03C162.591 248.165 162.811 248.257 163.043 248.302C163.276 248.347 163.515 248.343 163.746 248.29C163.977 248.237 164.195 248.137 164.386 247.996C164.577 247.855 164.738 247.676 164.856 247.47C165.646 246.09 165.396 244.86 167.486 244.55C167.886 244.817 168.2 245.187 168.426 245.66C171.446 252.02 172.576 258.867 171.816 266.2C166.916 267.153 162.07 268.08 157.276 268.98C145.85 271.14 134.363 271.49 122.816 270.03C114.65 268.99 106.58 267.243 98.6064 264.79C98.7531 256.03 100.95 248.547 105.196 242.34C105.26 242.242 105.288 242.125 105.275 242.009C105.262 241.893 105.208 241.786 105.124 241.705C105.04 241.624 104.93 241.576 104.813 241.567C104.697 241.559 104.581 241.592 104.486 241.66L97.2664 247.04C97.226 247.069 97.1777 247.084 97.1282 247.084C97.0786 247.084 97.0302 247.069 96.9897 247.041C96.9492 247.012 96.9184 246.972 96.9017 246.925C96.885 246.878 96.8832 246.828 96.8964 246.78C99.4431 238.427 104.006 231.363 110.586 225.59Z" fill="#A29C9C"/>
</svg>
