<svg width="266" height="272" viewBox="0 0 266 272" fill="none" xmlns="http://www.w3.org/2000/svg">
<path d="M224.383 37.6918C233.169 46.1718 240.616 55.7618 246.723 66.4618C244.943 63.4418 242.629 61.3651 239.783 60.2317C239.336 60.0534 238.854 59.9771 238.373 60.0082C237.892 60.0394 237.424 60.1772 237.003 60.4118C230.453 64.1118 223.113 64.1918 214.543 64.6018C202.423 65.1951 190.343 64.8217 178.303 63.4817C178.196 63.4693 178.093 63.4344 178 63.3793C177.907 63.3242 177.826 63.2501 177.763 63.1618C177.729 63.1151 177.706 63.0851 177.693 63.0718C177.649 63.0292 177.594 62.9994 177.534 62.9854C177.475 62.9714 177.412 62.9737 177.354 62.9921C177.296 63.0105 177.243 63.0444 177.203 63.0901C177.162 63.1358 177.134 63.1916 177.123 63.2518C177.053 63.6318 177.073 64.2518 177.273 64.5918C178.386 66.5384 178.386 68.4985 177.273 70.4718L176.403 67.2718C176.344 67.0418 176.34 66.7985 176.393 66.5618C177.486 62.1951 177.539 57.6818 176.553 53.0218C176.545 52.9946 176.528 52.9707 176.506 52.9537C176.483 52.9366 176.456 52.9275 176.428 52.9275C176.399 52.9275 176.372 52.9366 176.349 52.9537C176.327 52.9707 176.31 52.9946 176.303 53.0218L174.653 62.1518C174.639 62.1983 174.609 62.2385 174.568 62.2655C174.528 62.2926 174.48 62.3048 174.431 62.3C174.383 62.2953 174.338 62.274 174.303 62.2397C174.269 62.2053 174.247 62.1601 174.243 62.1117C174.283 56.4451 173.736 51.2151 172.603 46.4217C172.603 46.3793 172.586 46.3386 172.556 46.3086C172.526 46.2786 172.485 46.2618 172.443 46.2618C172.4 46.2618 172.36 46.2786 172.329 46.3086C172.299 46.3386 172.283 46.3793 172.283 46.4217L169.153 62.0818C168.773 63.0884 168.349 64.7051 167.883 66.9317C167.136 70.5051 165.516 74.8618 163.023 80.0018C162.403 66.8618 157.493 54.5818 147.793 45.6918C143.413 41.6784 138.949 38.5818 134.403 36.4018C134.348 36.3781 134.286 36.3734 134.228 36.3885C134.17 36.4037 134.119 36.4378 134.084 36.485C134.048 36.5322 134.031 36.5896 134.034 36.6473C134.038 36.7051 134.062 36.7596 134.103 36.8017C136.336 39.2084 138.183 42.1884 139.643 45.7417C139.659 45.7761 139.663 45.8153 139.653 45.8522C139.644 45.8892 139.621 45.9214 139.59 45.9432C139.558 45.9649 139.52 45.9747 139.482 45.9707C139.444 45.9668 139.409 45.9494 139.383 45.9217L133.483 40.1618C130.563 37.8951 128.076 36.3284 126.023 35.4618C110.963 29.1018 95.5293 28.0151 79.7226 32.2018C79.654 32.2167 79.5927 32.2552 79.5495 32.3106C79.5064 32.366 79.484 32.4349 79.4864 32.5051C79.4888 32.5753 79.5157 32.6425 79.5626 32.6949C79.6094 32.7473 79.6731 32.7816 79.7426 32.7918L86.8526 34.0718C86.911 34.0731 86.9664 34.0976 87.0067 34.1398C87.047 34.182 87.069 34.2384 87.0676 34.2967C87.0663 34.3551 87.0419 34.4105 86.9997 34.4509C86.9575 34.4912 86.901 34.5131 86.8426 34.5118C83.216 35.0918 79.5793 35.8317 75.9326 36.7317C63.9926 39.6817 54.6426 46.3318 45.4826 55.5618C34.8626 61.1684 26.096 68.9484 19.1826 78.9018C14.516 85.6284 9.84928 92.3185 5.18262 98.9718L13.0226 77.3218C14.8893 74.0751 16.6826 70.7784 18.4026 67.4317C20.376 63.5851 23.976 58.2684 29.2026 51.4817C33.7893 45.8884 37.5626 41.5884 40.5226 38.5818C56.2959 22.5551 75.006 11.4318 96.6526 5.21178C121.943 -2.06822 149.093 -1.81824 173.723 6.57176C187.216 11.1718 199.783 17.7751 211.423 26.3818C215.593 29.4618 220.113 33.8718 224.383 37.6918Z" fill="#F1CD99"/>
<path d="M133.482 40.1617C119.902 44.3417 106.022 46.3984 91.8421 46.3317C91.5118 46.3251 91.1825 46.3828 90.8722 46.5017C76.7522 51.9017 63.7521 55.5917 48.6321 56.2417L53.3721 52.2517C53.4143 52.2101 53.441 52.1554 53.4479 52.0966C53.4547 52.0378 53.4413 51.9784 53.4098 51.9282C53.3783 51.8781 53.3307 51.8402 53.2747 51.8208C53.2188 51.8014 53.1579 51.8018 53.1022 51.8217C51.0022 52.7683 48.9788 53.935 47.0321 55.3217C46.7388 55.5283 46.4121 55.6917 46.0521 55.8117C45.3788 56.0317 45.1888 55.9483 45.4822 55.5617C54.6422 46.3317 63.9921 39.6817 75.9321 36.7317C79.5788 35.8317 83.2155 35.0917 86.8421 34.5117C86.9005 34.513 86.957 34.4911 86.9992 34.4508C87.0414 34.4104 87.0658 34.355 87.0671 34.2967C87.0685 34.2383 87.0466 34.1819 87.0062 34.1397C86.9659 34.0975 86.9105 34.073 86.8521 34.0717L79.7421 32.7917C79.6726 32.7815 79.6089 32.7472 79.5621 32.6948C79.5153 32.6424 79.4883 32.5753 79.4859 32.505C79.4835 32.4348 79.5059 32.3659 79.549 32.3105C79.5922 32.2551 79.6535 32.2166 79.7221 32.2017C95.5288 28.015 110.962 29.1017 126.022 35.4617C128.075 36.3284 130.562 37.895 133.482 40.1617Z" fill="#BC6D32"/>
<path d="M163.023 80.0017L161.113 84.3917C161.1 84.4179 161.083 84.4482 161.063 84.4817C158.269 89.1417 155.846 94.0651 153.793 99.2517C153.653 99.6059 153.385 99.8944 153.042 100.059C152.699 100.224 152.306 100.254 151.943 100.142C145.523 98.1484 138.889 97.1217 132.043 97.0617C125.809 97.5617 119.646 98.6784 113.553 100.412C108.579 93.3784 105.173 88.1217 103.333 84.6417C100.733 79.7351 97.9961 73.0051 95.1228 64.4517C95.1026 64.3857 95.0733 64.3269 95.0392 64.2838C95.005 64.2407 94.9678 64.2154 94.9328 64.2117C94.8861 64.2051 94.8361 64.2217 94.7828 64.2617C94.8228 63.9217 95.0461 63.6484 95.4527 63.4417C95.5251 63.4079 95.584 63.3502 95.6202 63.2778C95.6564 63.2054 95.6679 63.1224 95.6527 63.0418L92.7428 48.3217C92.7325 48.2649 92.7029 48.2134 92.659 48.176C92.6151 48.1385 92.5596 48.1175 92.5019 48.1163C92.4442 48.1151 92.3878 48.1339 92.3424 48.1696C92.297 48.2052 92.2654 48.2554 92.2528 48.3117C91.0395 53.1517 90.4861 58.0984 90.5928 63.1517C90.5912 63.2444 90.5558 63.3333 90.4933 63.4017C90.4307 63.4702 90.3453 63.5134 90.2531 63.5232C90.1609 63.533 90.0684 63.5088 89.9928 63.4552C89.9172 63.4015 89.8638 63.322 89.8428 63.2317L88.3628 55.7218C88.3554 55.6848 88.3409 55.6496 88.3202 55.6183C88.2994 55.587 88.2729 55.5604 88.242 55.5398C88.2112 55.5193 88.1768 55.5053 88.1408 55.4987C88.1049 55.4922 88.0681 55.4932 88.0328 55.5017L87.7528 55.5517C87.7129 55.5607 87.6774 55.5815 87.6519 55.6105C87.6265 55.6396 87.6127 55.6753 87.6128 55.7117L87.1928 75.8717C87.1897 75.9381 87.2082 76.0032 87.2457 76.0576C87.2833 76.1119 87.3378 76.1526 87.4013 76.1738C87.4649 76.195 87.5343 76.1956 87.5993 76.1754C87.6643 76.1553 87.7216 76.1154 87.7628 76.0617L88.4228 75.1618C88.4961 76.0351 88.4028 76.9051 88.1428 77.7717C84.5728 84.5917 83.0827 93.7118 82.2427 101.342C73.7427 93.8818 63.9128 90.7217 53.5328 88.2617C49.5994 87.3284 46.0227 88.115 42.8027 90.6217C37.9827 94.3717 36.2428 99.7418 34.7328 105.972C33.2994 102.638 32.5494 99.4017 32.4828 96.2617C32.1561 80.5017 37.5394 67.1617 48.6328 56.2417C63.7528 55.5917 76.7528 51.9017 90.8728 46.5017C91.1831 46.3829 91.5125 46.3252 91.8428 46.3317C106.023 46.3984 119.903 44.3418 133.483 40.1618L139.383 45.9217C139.409 45.9494 139.444 45.9668 139.482 45.9707C139.52 45.9746 139.558 45.9649 139.59 45.9431C139.621 45.9214 139.644 45.8891 139.654 45.8522C139.663 45.8152 139.659 45.7761 139.643 45.7417C138.183 42.1884 136.336 39.2084 134.103 36.8017C134.062 36.7596 134.038 36.7051 134.034 36.6473C134.031 36.5895 134.048 36.5321 134.084 36.4849C134.119 36.4378 134.17 36.4037 134.228 36.3885C134.287 36.3733 134.348 36.378 134.403 36.4017C138.949 38.5817 143.413 41.6784 147.793 45.6917C157.493 54.5817 162.403 66.8617 163.023 80.0017Z" fill="#A55728"/>
<path d="M177.272 70.4717C176.846 72.3651 177.016 74.705 177.782 77.4917L172.442 68.3817C172.357 68.2373 172.237 68.1169 172.092 68.0317L171.102 67.4617C170.867 67.3244 170.676 67.1232 170.552 66.8817C169.766 65.3284 169.299 63.7284 169.152 62.0817L172.282 46.4217C172.282 46.3793 172.299 46.3386 172.329 46.3086C172.359 46.2786 172.4 46.2617 172.442 46.2617C172.485 46.2617 172.525 46.2786 172.555 46.3086C172.585 46.3386 172.602 46.3793 172.602 46.4217C173.736 51.215 174.282 56.445 174.242 62.1117C174.247 62.16 174.269 62.2053 174.303 62.2396C174.337 62.274 174.383 62.2953 174.431 62.3C174.479 62.3047 174.528 62.2925 174.568 62.2655C174.609 62.2385 174.638 62.1982 174.652 62.1517L176.302 53.0217C176.31 52.9946 176.327 52.9706 176.349 52.9536C176.372 52.9366 176.399 52.9274 176.427 52.9274C176.456 52.9274 176.483 52.9366 176.506 52.9536C176.528 52.9706 176.545 52.9946 176.552 53.0217C177.539 57.6817 177.486 62.195 176.392 66.5617C176.34 66.7984 176.343 67.0417 176.402 67.2717L177.272 70.4717Z" fill="#693623"/>
<path d="M94.7827 64.2617L88.4227 75.1617L87.7627 76.0617C87.7215 76.1154 87.6642 76.1552 87.5992 76.1754C87.5342 76.1956 87.4649 76.195 87.4013 76.1738C87.3377 76.1526 87.2832 76.1119 87.2457 76.0575C87.2082 76.0032 87.1896 75.9381 87.1927 75.8717L87.6127 55.7117C87.6126 55.6753 87.6264 55.6396 87.6519 55.6105C87.6773 55.5814 87.7129 55.5607 87.7527 55.5517L88.0327 55.5017C88.0681 55.4932 88.1048 55.4922 88.1408 55.4987C88.1767 55.5053 88.2112 55.5192 88.242 55.5398C88.2728 55.5603 88.2994 55.587 88.3201 55.6183C88.3409 55.6495 88.3554 55.6848 88.3627 55.7217L89.8427 63.2317C89.8638 63.322 89.9172 63.4014 89.9927 63.4551C90.0683 63.5088 90.1609 63.533 90.253 63.5232C90.3452 63.5134 90.4307 63.4701 90.4932 63.4017C90.5558 63.3333 90.5912 63.2444 90.5927 63.1517C90.486 58.0984 91.0394 53.1517 92.2527 48.3117C92.2653 48.2554 92.2969 48.2052 92.3423 48.1695C92.3877 48.1339 92.4441 48.1151 92.5018 48.1163C92.5595 48.1174 92.615 48.1385 92.6589 48.176C92.7028 48.2134 92.7325 48.2649 92.7427 48.3217L95.6527 63.0417C95.6678 63.1224 95.6564 63.2054 95.6202 63.2778C95.584 63.3502 95.525 63.4079 95.4527 63.4417C95.046 63.6484 94.8227 63.9217 94.7827 64.2617Z" fill="#693623"/>
<path d="M48.6325 56.2417C37.5392 67.1617 32.1559 80.5017 32.4825 96.2617C32.5492 99.4017 33.2992 102.638 34.7325 105.972L35.3425 109.782C35.3549 109.868 35.3965 109.946 35.4603 110.004C35.5241 110.063 35.6064 110.097 35.6937 110.101C35.781 110.106 35.8681 110.081 35.9405 110.03C36.013 109.979 36.0666 109.906 36.0925 109.822C37.9025 103.372 44.2825 97.0217 51.2125 102.212C58.5225 107.682 58.4125 117.482 57.0425 125.522C55.7425 133.168 53.5825 141.012 50.5625 149.052C46.6625 147.598 42.2625 146.328 37.3625 145.242C23.8925 142.252 7.69251 145.542 5.83251 161.972C5.37917 166.012 5.26253 170.102 5.48253 174.242C2.27586 163.628 0.532519 154.072 0.252519 145.572C-0.0874805 135.098 -0.0841374 127.658 0.262529 123.252C0.775863 116.645 2.41585 108.552 5.18251 98.9717C9.84918 92.3184 14.5158 85.6284 19.1825 78.9017C26.0958 68.9484 34.8625 61.1683 45.4825 55.5617C45.1892 55.9483 45.3792 56.0317 46.0525 55.8117C46.4125 55.6917 46.7392 55.5284 47.0325 55.3217C48.9792 53.935 51.0025 52.7684 53.1025 51.8217C53.1583 51.8018 53.2192 51.8015 53.2751 51.8208C53.331 51.8402 53.3787 51.8781 53.4102 51.9283C53.4417 51.9784 53.4551 52.0378 53.4483 52.0966C53.4414 52.1554 53.4147 52.2101 53.3725 52.2517L48.6325 56.2417Z" fill="#E9AE89"/>
<path d="M246.723 66.4618L251.933 76.0818C254.046 81.8151 255.953 87.6251 257.653 93.5118C260.603 103.692 262.763 115.682 248.753 118.492C237.093 120.832 224.703 119.692 212.973 118.902C209.486 118.662 203.076 118.758 193.743 119.192C190.769 119.332 186.806 118.838 181.853 117.712C183.253 109.905 183.529 103.095 182.683 97.2818C181.996 92.6218 180.363 86.0251 177.783 77.4918C177.016 74.7051 176.846 72.3651 177.273 70.4718C178.386 68.4985 178.386 66.5385 177.273 64.5918C177.073 64.2518 177.053 63.6318 177.123 63.2518C177.134 63.1917 177.162 63.1359 177.203 63.0902C177.243 63.0445 177.296 63.0106 177.354 62.9921C177.413 62.9737 177.475 62.9714 177.534 62.9854C177.594 62.9994 177.649 63.0293 177.693 63.0718C177.706 63.0851 177.729 63.1151 177.763 63.1618C177.826 63.2502 177.907 63.3242 178 63.3793C178.093 63.4345 178.196 63.4693 178.303 63.4818C190.343 64.8218 202.423 65.1951 214.543 64.6018C223.113 64.1918 230.453 64.1118 237.003 60.4118C237.424 60.1772 237.893 60.0394 238.373 60.0082C238.854 59.9771 239.336 60.0534 239.783 60.2318C242.629 61.3651 244.943 63.4418 246.723 66.4618Z" fill="#EDBC94"/>
<path d="M169.153 62.0818C169.299 63.7285 169.766 65.3284 170.553 66.8818C170.677 67.1232 170.868 67.3245 171.103 67.4618L172.093 68.0318C172.237 68.1169 172.358 68.2374 172.443 68.3818L177.783 77.4918C180.363 86.0251 181.996 92.6218 182.683 97.2818C183.529 103.095 183.253 109.905 181.853 117.712L179.943 135.752C179.896 136.223 179.91 136.694 179.983 137.152C180.529 140.512 181.603 143.775 183.203 146.942C184.309 150.195 185.503 153.462 186.783 156.742C187.749 159.215 188.899 164.308 190.233 172.022C187.333 171.655 184.246 171.568 180.973 171.762C175.253 172.095 169.549 172.618 163.863 173.332C162.409 173.518 160.803 173.875 159.043 174.402C157.429 174.882 155.839 175.305 154.273 175.672C153.633 174.512 152.866 173.552 151.973 172.792C151.313 172.158 150.583 171.595 149.783 171.102C147.513 169.702 146.303 167.482 143.923 166.342C140.036 164.475 136.279 163.425 132.653 163.192C132.42 163.176 132.203 163.073 132.045 162.904C131.886 162.735 131.8 162.512 131.803 162.282L132.043 97.0618C138.889 97.1218 145.523 98.1485 151.943 100.142C152.307 100.254 152.699 100.225 153.042 100.06C153.385 99.8945 153.653 99.606 153.793 99.2518C155.846 94.0651 158.269 89.1418 161.063 84.4818C161.083 84.4482 161.1 84.418 161.113 84.3918L163.023 80.0018C165.516 74.8618 167.136 70.5051 167.883 66.9318C168.349 64.7051 168.773 63.0885 169.153 62.0818ZM170.983 70.1818C170.967 70.1276 170.931 70.0813 170.883 70.0516C170.835 70.022 170.778 70.011 170.722 70.0209C170.666 70.0308 170.616 70.0608 170.581 70.1052C170.547 70.1496 170.529 70.2054 170.533 70.2618C170.953 82.9551 169.976 95.7251 167.603 108.572C167.505 109.112 167.571 109.667 167.793 110.162L174.873 125.902C174.911 125.979 174.975 126.041 175.054 126.077C175.133 126.114 175.221 126.122 175.305 126.101C175.389 126.08 175.463 126.031 175.516 125.962C175.568 125.893 175.595 125.808 175.593 125.722C175.353 122.582 176.703 118.602 178.433 111.262C179.419 107.115 179.589 102.952 178.943 98.7718C177.843 91.5818 176.503 83.9218 173.383 77.1918C172.756 75.8384 171.956 73.5018 170.983 70.1818ZM157.663 161.152C164.809 162.225 168.389 162.765 168.403 162.772C173.776 163.532 177.053 161.412 178.233 156.412C179.766 149.932 179.243 142.805 176.663 135.032C175.943 132.862 174.313 129.532 171.613 129.632C160.053 130.042 157.123 151.052 156.693 159.962C156.679 160.245 156.771 160.523 156.95 160.742C157.129 160.962 157.383 161.108 157.663 161.152Z" fill="#BC6D32"/>
<path d="M113.553 100.412C108.999 102.352 105.906 103.978 104.273 105.292C102.933 106.365 101.706 107.482 100.593 108.642C100.497 108.741 100.375 108.811 100.241 108.844C100.106 108.877 99.9657 108.871 99.8349 108.827C99.704 108.783 99.5883 108.703 99.5011 108.595C99.414 108.488 99.359 108.359 99.3426 108.222C98.6892 102.548 98.0392 96.8584 97.3925 91.1518C97.0592 88.2718 96.4893 87.2017 95.6826 87.9417L94.8925 72.7317C94.8876 72.6045 94.8362 72.484 94.7488 72.3948C94.6615 72.3056 94.5448 72.2544 94.4226 72.2517H94.4026C94.2742 72.2489 94.15 72.2955 94.0565 72.3816C93.963 72.4676 93.9077 72.5861 93.9026 72.7118C93.8492 73.9918 93.6959 74.8951 93.4425 75.4217C92.2759 77.8417 91.1459 80.3151 90.0526 82.8418C90.7459 78.6418 90.1092 76.9518 88.1426 77.7718C88.4026 76.9051 88.4959 76.0351 88.4226 75.1618L94.7826 64.2617C94.8359 64.2217 94.8859 64.2051 94.9326 64.2118C94.9676 64.2155 95.0048 64.2407 95.039 64.2838C95.0731 64.3269 95.1024 64.3857 95.1226 64.4517C97.9959 73.0051 100.733 79.7351 103.333 84.6417C105.173 88.1217 108.579 93.3784 113.553 100.412Z" fill="#CD7839"/>
<path d="M170.983 70.1817C171.956 73.5017 172.756 75.8384 173.383 77.1917C176.503 83.9217 177.843 91.5817 178.943 98.7717C179.589 102.952 179.419 107.115 178.433 111.262C176.703 118.602 175.353 122.582 175.593 125.722C175.595 125.808 175.568 125.893 175.515 125.962C175.463 126.031 175.389 126.08 175.305 126.101C175.221 126.122 175.132 126.114 175.054 126.077C174.975 126.041 174.911 125.979 174.873 125.902L167.793 110.162C167.571 109.667 167.505 109.112 167.603 108.572C169.976 95.7251 170.953 82.9551 170.533 70.2617C170.529 70.2053 170.546 70.1496 170.581 70.1052C170.616 70.0608 170.666 70.0308 170.722 70.0209C170.777 70.011 170.835 70.0219 170.883 70.0516C170.931 70.0813 170.966 70.1276 170.983 70.1817Z" fill="#894020"/>
<path d="M95.6829 87.9417C95.6029 95.6084 96.5196 103.065 98.4329 110.312C98.4833 110.509 98.4905 110.715 98.4543 110.916C98.418 111.116 98.3391 111.305 98.2229 111.472C95.5562 115.292 93.3329 119.585 91.5529 124.352C91.5398 124.385 91.5227 124.412 91.5029 124.432L91.0529 124.962C90.9961 125.029 90.921 125.077 90.8369 125.102C90.7527 125.127 90.6631 125.126 90.5792 125.101C90.4952 125.075 90.4206 125.026 90.3644 124.959C90.3082 124.891 90.2729 124.809 90.2629 124.722C89.9562 122.128 89.4329 119.568 88.6929 117.042C85.4029 105.842 86.1629 93.8017 90.0529 82.8417C91.1463 80.3151 92.2762 77.8417 93.4429 75.4217C93.6962 74.895 93.8496 73.9917 93.9029 72.7117C93.908 72.5861 93.9633 72.4675 94.0568 72.3815C94.1503 72.2955 94.2746 72.2489 94.4029 72.2517H94.4229C94.5451 72.2544 94.6618 72.3056 94.7491 72.3948C94.8365 72.484 94.8879 72.6044 94.8929 72.7317L95.6829 87.9417Z" fill="#894020"/>
<path d="M90.052 82.8417C86.162 93.8017 85.402 105.842 88.692 117.042C89.432 119.568 89.9553 122.128 90.262 124.722C90.272 124.809 90.3073 124.891 90.3635 124.959C90.4197 125.026 90.4943 125.075 90.5783 125.101C90.6622 125.126 90.7518 125.127 90.836 125.102C90.9201 125.077 90.9952 125.029 91.052 124.962L91.502 124.432C91.5218 124.412 91.5389 124.385 91.552 124.352C93.332 119.585 95.5553 115.292 98.222 111.472C98.3382 111.305 98.4172 111.116 98.4534 110.916C98.4896 110.715 98.4824 110.509 98.432 110.312C96.5187 103.065 95.602 95.6084 95.682 87.9417C96.4887 87.2017 97.0587 88.2717 97.392 91.1517C98.0387 96.8584 98.6887 102.548 99.342 108.222C99.3585 108.359 99.4134 108.488 99.5006 108.595C99.5877 108.703 99.7035 108.783 99.8343 108.827C99.9652 108.871 100.106 108.877 100.24 108.844C100.374 108.811 100.496 108.741 100.592 108.642C101.705 107.482 102.932 106.365 104.272 105.292C105.905 103.978 108.999 102.352 113.552 100.412C119.645 98.6784 125.809 97.5617 132.042 97.0617L131.802 162.282C131.799 162.512 131.886 162.735 132.044 162.904C132.202 163.073 132.42 163.176 132.652 163.192C136.279 163.425 140.035 164.475 143.922 166.342C146.302 167.482 147.512 169.702 149.782 171.102C150.582 171.595 151.312 172.158 151.972 172.792L144.862 170.142C144.796 170.117 144.726 170.107 144.656 170.114C144.586 170.121 144.519 170.143 144.459 170.18C144.399 170.216 144.348 170.266 144.311 170.326C144.273 170.385 144.25 170.452 144.242 170.522L143.672 176.202C143.292 176.062 143.019 176.125 142.852 176.392C140.159 180.652 136.209 182.448 131.002 181.782L131.852 164.602C131.861 164.388 131.822 164.174 131.738 163.977C131.654 163.78 131.526 163.604 131.365 163.463C131.204 163.322 131.013 163.219 130.806 163.162C130.6 163.104 130.383 163.094 130.172 163.132C125.479 163.978 121.622 166.348 118.602 170.242C115.589 171.408 112.842 173.125 110.362 175.392C99.3554 172.752 88.052 171.488 76.452 171.602C76.3214 171.603 76.192 171.576 76.0725 171.523C75.953 171.471 75.8463 171.394 75.7592 171.297C75.6722 171.201 75.6069 171.087 75.5677 170.964C75.5285 170.84 75.5164 170.71 75.532 170.582C76.722 160.562 79.842 153.432 84.312 141.612C85.142 139.422 85.282 137.492 85.012 135.282C83.652 124.092 81.622 112.592 82.242 101.342C83.082 93.7117 84.572 84.5917 88.142 77.7717C90.1087 76.9517 90.7454 78.6417 90.052 82.8417ZM88.932 141.862L88.122 144.052C86.1287 144.238 85.1354 145.302 85.142 147.242C85.162 151.955 85.222 154.638 85.322 155.292C85.3885 155.677 85.4992 156.053 85.652 156.412C86.9453 159.445 87.9687 161.222 88.722 161.742C90.542 162.988 92.472 163.405 94.512 162.992C99.1787 162.038 103.549 161.825 107.622 162.352C107.774 162.372 107.928 162.355 108.073 162.304C108.217 162.253 108.347 162.168 108.453 162.057C108.558 161.946 108.636 161.811 108.679 161.664C108.722 161.517 108.73 161.362 108.702 161.212C108.169 158.278 107.609 154.565 107.022 150.072C106.162 143.398 103.869 137.795 100.142 133.262C97.6953 130.282 94.632 129.368 90.952 130.522C90.5855 130.633 90.2567 130.844 90.002 131.132C87.522 133.985 86.7254 137.305 87.612 141.092C87.6509 141.258 87.738 141.41 87.8625 141.527C87.987 141.645 88.1434 141.723 88.312 141.752L88.932 141.862Z" fill="#D78946"/>
<path d="M264.892 144.422C263.772 157.562 260.812 170.245 256.012 182.472L256.382 179.622C257.182 174.848 257.472 170.248 257.252 165.822C256.722 155.002 248.432 151.202 239.022 149.642C221.062 146.662 201.802 144.542 183.202 146.942C181.602 143.775 180.529 140.512 179.982 137.152C179.909 136.694 179.896 136.223 179.942 135.752L181.852 117.712C186.805 118.838 190.769 119.332 193.742 119.192C203.075 118.758 209.485 118.662 212.972 118.902C224.702 119.692 237.092 120.832 248.752 118.492C262.762 115.682 260.602 103.692 257.652 93.5118C255.952 87.6251 254.045 81.8151 251.932 76.0818C262.105 97.7218 266.425 120.502 264.892 144.422Z" fill="#E9AE89"/>
<path d="M82.2424 101.342C81.6224 112.592 83.6524 124.092 85.0124 135.282C85.2824 137.492 85.1424 139.422 84.3124 141.612C79.8424 153.432 76.7224 160.562 75.5324 170.582C75.5168 170.71 75.5289 170.84 75.5681 170.964C75.6073 171.087 75.6726 171.201 75.7596 171.297C75.8467 171.394 75.9534 171.471 76.0729 171.523C76.1924 171.576 76.3218 171.602 76.4524 171.602C88.0524 171.488 99.3558 172.752 110.362 175.392L111.202 176.112C111.662 176.658 111.116 176.785 109.562 176.492C99.3291 174.598 88.3991 173.462 76.7724 173.082C76.5442 173.074 76.3173 173.119 76.1086 173.211C75.8998 173.304 75.7146 173.442 75.5667 173.616C75.4187 173.79 75.3118 173.995 75.254 174.216C75.1961 174.437 75.1887 174.668 75.2324 174.892L76.4624 181.132C76.5624 181.629 76.8484 182.069 77.2615 182.361C77.6745 182.653 78.1831 182.775 78.6824 182.702C87.3757 181.422 96.5924 180.755 106.332 180.702C106.401 180.702 106.468 180.715 106.531 180.742C106.594 180.768 106.65 180.807 106.697 180.856C106.744 180.905 106.78 180.962 106.803 181.025C106.827 181.088 106.836 181.155 106.832 181.222L106.812 181.532C106.8 181.801 106.683 182.056 106.488 182.242C106.292 182.428 106.032 182.532 105.762 182.532C96.9291 182.498 88.0691 183.088 79.1824 184.302C78.9898 184.329 78.8075 184.406 78.6537 184.525C78.4998 184.644 78.3796 184.801 78.305 184.981C78.2303 185.16 78.2037 185.356 78.2278 185.549C78.2519 185.742 78.3259 185.926 78.4424 186.082L82.2524 191.202C82.5568 191.606 82.9827 191.903 83.4671 192.047C83.9515 192.191 84.4688 192.175 84.9424 192.002C92.5691 189.195 100.642 187.285 109.162 186.272C109.942 186.458 110.472 186.682 110.752 186.942C110.825 187.011 110.878 187.099 110.904 187.196C110.93 187.293 110.929 187.395 110.901 187.491C110.873 187.586 110.819 187.672 110.745 187.737C110.671 187.803 110.58 187.846 110.482 187.862L107.242 188.412C100.109 189.272 93.2057 190.825 86.5324 193.072C86.1191 193.205 85.6824 193.552 85.2224 194.112C84.5224 194.325 84.1657 194.722 84.1524 195.302C79.5057 203.188 75.8624 210.092 73.2224 216.012C69.1624 225.125 66.6391 235.052 65.6524 245.792C65.9991 249.118 65.6257 251.302 64.5324 252.342L52.7224 243.912C50.7957 242.378 49.1424 240.555 47.7624 238.442L46.0624 235.812C42.4091 228.385 39.7657 219.932 38.1324 210.452C36.0524 198.385 35.2958 188.102 35.8624 179.602C35.8699 179.495 35.9171 179.394 35.9948 179.32C36.0725 179.246 36.1751 179.204 36.2824 179.202H36.2924C36.3444 179.208 36.3931 179.23 36.431 179.266C36.4689 179.302 36.494 179.35 36.5024 179.402L38.1224 189.262C38.1238 189.268 38.1263 189.274 38.1296 189.28C38.1329 189.285 38.1369 189.29 38.1416 189.294C38.1462 189.297 38.1513 189.3 38.1566 189.301C38.1619 189.303 38.1673 189.303 38.1724 189.302L38.6724 189.202C38.756 189.185 38.831 189.138 38.8841 189.069C38.9372 188.999 38.9649 188.911 38.9624 188.822C38.6424 181.248 38.6857 175.912 39.0924 172.812C39.4057 170.432 40.3524 166.415 41.9324 160.762C41.958 160.69 42.0075 160.63 42.0724 160.59C42.1374 160.551 42.2139 160.536 42.2891 160.546C42.3642 160.557 42.4334 160.593 42.485 160.649C42.5367 160.704 42.5675 160.776 42.5724 160.852V172.242C42.5709 172.31 42.5945 172.376 42.6386 172.429C42.6827 172.481 42.7444 172.515 42.812 172.525C42.8797 172.535 42.9485 172.519 43.0057 172.482C43.0629 172.445 43.1044 172.388 43.1224 172.322L50.5624 149.052C53.5824 141.012 55.7424 133.168 57.0424 125.522C58.4124 117.482 58.5224 107.682 51.2124 102.212C44.2824 97.0217 37.9024 103.372 36.0924 109.822C36.0665 109.906 36.0129 109.979 35.9404 110.03C35.8679 110.081 35.7809 110.106 35.6936 110.101C35.6063 110.097 35.524 110.063 35.4602 110.004C35.3963 109.946 35.3548 109.868 35.3424 109.782L34.7324 105.972C36.2424 99.7417 37.9824 94.3717 42.8024 90.6217C46.0224 88.115 49.5991 87.3284 53.5324 88.2617C63.9124 90.7217 73.7424 93.8817 82.2424 101.342Z" fill="#894020"/>
<path d="M157.663 161.152C157.383 161.108 157.129 160.962 156.95 160.742C156.771 160.523 156.679 160.245 156.693 159.962C157.123 151.052 160.053 130.042 171.613 129.632C174.313 129.532 175.943 132.862 176.663 135.032C179.243 142.805 179.766 149.932 178.233 156.412C177.053 161.412 173.776 163.532 168.403 162.772C168.389 162.765 164.809 162.225 157.663 161.152ZM160.583 157.212C161.983 156.992 164.683 157.192 168.683 157.812C177.813 159.242 178.423 150.232 176.883 143.792C176.203 140.932 174.819 139.142 172.733 138.422C166.733 136.352 163.443 146.722 163.053 150.892C162.806 153.512 161.909 155.448 160.363 156.702C160.315 156.742 160.281 156.796 160.267 156.857C160.253 156.918 160.258 156.981 160.283 157.039C160.308 157.096 160.35 157.143 160.404 157.175C160.458 157.206 160.521 157.219 160.583 157.212Z" fill="#E4B278"/>
<path d="M88.1226 144.052C86.9926 148.432 86.8026 159.092 93.9726 158.292C94.9659 158.185 97.3593 157.898 101.153 157.432C102.446 157.265 103.919 157.838 105.573 159.152C105.598 159.174 105.631 159.185 105.665 159.183C105.698 159.181 105.73 159.166 105.753 159.142H105.763C105.789 159.111 105.804 159.073 105.804 159.034C105.804 158.995 105.789 158.959 105.763 158.932L102.853 155.512C102.355 154.923 102.027 154.207 101.903 153.442C101.143 148.622 100.633 143.262 96.8226 139.972C93.7326 137.302 90.6126 138.482 88.9326 141.862L88.3126 141.752C88.144 141.723 87.9876 141.645 87.8631 141.527C87.7386 141.41 87.6514 141.258 87.6126 141.092C86.7259 137.305 87.5226 133.985 90.0026 131.132C90.2573 130.844 90.586 130.633 90.9526 130.522C94.6326 129.368 97.6959 130.282 100.143 133.262C103.869 137.795 106.163 143.398 107.023 150.072C107.609 154.565 108.169 158.278 108.703 161.212C108.731 161.362 108.723 161.517 108.68 161.664C108.636 161.811 108.559 161.946 108.453 162.057C108.348 162.168 108.218 162.253 108.073 162.304C107.929 162.355 107.775 162.372 107.623 162.352C103.549 161.825 99.1792 162.038 94.5126 162.992C92.4726 163.405 90.5426 162.988 88.7226 161.742C87.9693 161.222 86.9459 159.445 85.6526 156.412C85.4998 156.053 85.3891 155.677 85.3226 155.292C85.2226 154.638 85.1626 151.955 85.1426 147.242C85.1359 145.302 86.1293 144.238 88.1226 144.052Z" fill="#E9C285"/>
<path d="M160.362 156.702C161.909 155.448 162.805 153.512 163.052 150.892C163.442 146.722 166.732 136.352 172.732 138.422C174.819 139.142 176.202 140.932 176.882 143.792C178.422 150.232 177.812 159.242 168.682 157.812C164.682 157.192 161.982 156.992 160.582 157.212C160.52 157.219 160.458 157.206 160.404 157.175C160.35 157.143 160.307 157.096 160.283 157.039C160.258 156.981 160.252 156.918 160.267 156.857C160.281 156.796 160.314 156.742 160.362 156.702ZM170.748 141.779C170.139 141.732 169.536 141.947 169.069 142.379C168.602 142.811 168.311 143.423 168.259 144.081C168.207 144.74 168.399 145.39 168.793 145.889C169.186 146.389 169.749 146.696 170.357 146.744C170.965 146.792 171.569 146.576 172.035 146.145C172.502 145.713 172.793 145.101 172.845 144.442C172.897 143.784 172.705 143.133 172.312 142.634C171.918 142.135 171.356 141.827 170.748 141.779Z" fill="#3D261D"/>
<path d="M88.1221 144.052L88.9321 141.862C90.6121 138.482 93.7321 137.302 96.8221 139.972C100.632 143.262 101.142 148.622 101.902 153.442C102.026 154.207 102.355 154.923 102.852 155.512L105.762 158.932C105.788 158.959 105.803 158.995 105.803 159.034C105.803 159.073 105.788 159.111 105.762 159.142H105.752C105.729 159.166 105.698 159.181 105.664 159.183C105.631 159.185 105.598 159.174 105.572 159.152C103.919 157.838 102.445 157.265 101.152 157.432C97.3588 157.898 94.9655 158.185 93.9721 158.292C86.8021 159.092 86.9921 148.432 88.1221 144.052ZM93.2113 141.449C92.6633 141.512 92.1684 141.838 91.8355 142.354C91.5025 142.87 91.3588 143.534 91.4359 144.201C91.5131 144.867 91.8047 145.481 92.2467 145.908C92.6887 146.334 93.2449 146.538 93.7929 146.475C94.3409 146.411 94.8358 146.086 95.1688 145.57C95.5017 145.054 95.6454 144.389 95.5683 143.723C95.4912 143.056 95.1995 142.442 94.7575 142.016C94.3155 141.589 93.7593 141.385 93.2113 141.449Z" fill="#301A15"/>
<path d="M50.5628 149.052L43.1228 172.322C43.1048 172.388 43.0633 172.445 43.0061 172.482C42.9489 172.52 42.8801 172.535 42.8124 172.525C42.7448 172.515 42.6832 172.481 42.639 172.429C42.5949 172.377 42.5713 172.31 42.5728 172.242V160.852C42.5679 160.776 42.5371 160.704 42.4855 160.649C42.4338 160.593 42.3646 160.557 42.2895 160.546C42.2143 160.536 42.1378 160.551 42.0728 160.591C42.0079 160.63 41.9584 160.69 41.9328 160.762C40.3528 166.415 39.4061 170.432 39.0928 172.812C38.6861 175.912 38.6428 181.248 38.9628 188.822C38.9653 188.912 38.9376 188.999 38.8845 189.069C38.8314 189.138 38.7564 189.185 38.6728 189.202L38.1728 189.302C38.1677 189.303 38.1623 189.303 38.157 189.301C38.1517 189.3 38.1466 189.297 38.142 189.294C38.1373 189.29 38.1333 189.285 38.13 189.28C38.1267 189.274 38.1242 189.268 38.1228 189.262L36.5028 179.402C36.4944 179.35 36.4694 179.303 36.4314 179.266C36.3935 179.23 36.3449 179.208 36.2928 179.202H36.2828C36.1755 179.204 36.0729 179.246 35.9952 179.32C35.9175 179.394 35.8703 179.495 35.8628 179.602C35.2962 188.102 36.0528 198.385 38.1328 210.452C39.7662 219.932 42.4095 228.385 46.0628 235.812C41.2761 232.912 37.1728 229.188 33.7528 224.642C27.0428 216.782 21.3428 208.772 16.5928 199.252C12.5228 191.082 8.26283 182.952 5.48283 174.242C5.26283 170.102 5.37947 166.012 5.8328 161.972C7.6928 145.542 23.8928 142.252 37.3628 145.242C42.2628 146.328 46.6628 147.598 50.5628 149.052Z" fill="#D29D77"/>
<path d="M95.5692 143.723C95.4086 142.335 94.3533 141.317 93.2122 141.449C92.071 141.581 91.2761 142.813 91.4367 144.201C91.5973 145.589 92.6526 146.607 93.7938 146.475C94.9349 146.343 95.7298 145.111 95.5692 143.723Z" fill="#F5E8D6"/>
<path d="M172.846 144.442C172.954 143.071 172.014 141.879 170.748 141.779C169.482 141.68 168.368 142.71 168.26 144.081C168.152 145.452 169.091 146.644 170.357 146.744C171.624 146.844 172.738 145.813 172.846 144.442Z" fill="#D7D7D4"/>
<path d="M258.293 180.462L254.463 190.412L252.093 194.012L256.013 182.472C260.813 170.245 263.773 157.562 264.893 144.422C265.299 147.168 265.166 150.592 264.493 154.692C262.886 164.492 260.819 173.082 258.293 180.462Z" fill="#C3AE99"/>
<path d="M256.382 179.622C249.922 186.655 242.552 191.842 234.272 195.182C226.999 198.122 218.529 200.902 208.862 203.522C201.822 199.488 193.812 195.968 184.832 192.962C184.985 190.815 186.069 188.405 188.082 185.732C188.325 185.404 188.654 185.152 189.033 185.004C189.411 184.855 189.824 184.816 190.222 184.892L214.542 189.272C214.566 189.275 214.588 189.285 214.606 189.301C214.624 189.317 214.636 189.338 214.642 189.362L214.652 189.392C214.671 189.327 214.664 189.257 214.632 189.197C214.6 189.137 214.547 189.092 214.482 189.072C207.002 186.572 199.062 184.652 190.662 183.312C190.374 183.265 190.114 183.114 189.931 182.887C189.748 182.66 189.656 182.373 189.672 182.082L190.132 173.972C198.805 173.845 207.395 173.985 215.902 174.392C216.189 174.405 216.532 174.318 216.932 174.132C216.965 174.113 216.992 174.084 217.009 174.05C217.026 174.016 217.032 173.977 217.026 173.94C217.021 173.902 217.004 173.867 216.979 173.838C216.953 173.81 216.919 173.791 216.882 173.782C214.595 173.335 211.292 173.005 206.972 172.792C201.566 172.518 195.986 172.262 190.232 172.022C188.899 164.308 187.749 159.215 186.782 156.742C185.502 153.462 184.309 150.195 183.202 146.942C201.802 144.542 221.062 146.662 239.022 149.642C248.432 151.202 256.722 155.002 257.252 165.822C257.472 170.248 257.182 174.848 256.382 179.622Z" fill="#E4B278"/>
<path d="M131.003 181.782C126.576 181.522 123.486 179.592 121.733 175.992C123.139 172.272 122.096 170.355 118.603 170.242C121.623 166.348 125.479 163.978 130.173 163.132C130.384 163.094 130.6 163.104 130.807 163.162C131.013 163.219 131.204 163.322 131.366 163.463C131.527 163.604 131.654 163.78 131.739 163.977C131.823 164.174 131.862 164.388 131.853 164.602L131.003 181.782Z" fill="#E2A35E"/>
<path d="M151.972 172.792C152.866 173.552 153.632 174.512 154.272 175.672C154.206 175.492 153.996 175.618 153.642 176.052C152.822 176.172 152.152 176.525 151.632 177.112C151.562 177.189 151.52 177.288 151.516 177.392C151.511 177.495 151.543 177.598 151.607 177.682C151.67 177.765 151.762 177.825 151.865 177.85C151.968 177.876 152.077 177.866 152.172 177.822C154.966 176.462 156.649 177.385 157.222 180.592L151.872 181.822C151.796 181.841 151.727 181.882 151.674 181.941C151.621 181.999 151.586 182.072 151.574 182.15C151.563 182.228 151.574 182.308 151.608 182.379C151.641 182.451 151.695 182.511 151.762 182.552L152.152 182.772C152.406 182.921 152.697 182.984 152.982 182.952L157.902 182.452C158.709 184.158 158.729 185.498 157.962 186.472L154.253 186.402C154.13 186.402 154.011 186.447 153.919 186.527C153.826 186.608 153.766 186.72 153.749 186.841C153.732 186.963 153.759 187.086 153.826 187.189C153.893 187.292 153.995 187.368 154.112 187.402L158.712 188.672C157.339 195.232 153.402 200.458 146.902 204.352L145.952 196.692C147.432 195.365 148.529 193.758 149.242 191.872C149.253 191.844 149.253 191.813 149.242 191.785C149.23 191.757 149.209 191.735 149.182 191.722L148.932 191.622C148.849 191.588 148.757 191.586 148.672 191.615C148.588 191.645 148.517 191.704 148.472 191.782C147.619 193.295 146.456 194.482 144.982 195.342L138.562 184.442C140.943 183.022 144.642 179.232 143.672 176.202L144.242 170.522C144.25 170.452 144.274 170.385 144.311 170.326C144.349 170.266 144.4 170.217 144.459 170.18C144.519 170.143 144.587 170.121 144.656 170.114C144.726 170.108 144.797 170.117 144.862 170.142L151.972 172.792Z" fill="#DBB788"/>
<path d="M121.732 175.992C120.819 178.872 122.102 181.345 125.582 183.412C128.162 184.945 129.902 185.905 130.802 186.292C130.995 186.372 131.161 186.505 131.283 186.674C131.405 186.844 131.477 187.044 131.492 187.252C131.772 190.592 132.112 195.122 127.492 195.942C123.166 196.715 119.439 195.698 116.312 192.892C116.272 192.853 116.217 192.829 116.16 192.826C116.102 192.824 116.046 192.842 116.002 192.877C115.958 192.912 115.929 192.962 115.922 193.016C115.915 193.071 115.929 193.126 115.962 193.172C119.396 198.725 124.336 200.515 130.782 198.542C131.756 198.248 132.692 198.215 133.592 198.442C138.022 199.592 141.892 199.882 145.952 196.692L146.902 204.352L140.452 208.022C135.479 209.375 130.702 209.435 126.122 208.202C124.842 207.408 123.522 206.795 122.162 206.362C121.89 206.275 121.628 206.154 121.382 206.002C118.289 204.102 115.312 202.025 112.452 199.772C109.412 197.385 107.272 194.848 106.032 192.162C105.466 190.922 105.869 189.672 107.242 188.412L110.482 187.862C110.58 187.846 110.671 187.803 110.745 187.737C110.819 187.672 110.873 187.587 110.901 187.491C110.929 187.395 110.93 187.293 110.904 187.196C110.878 187.099 110.825 187.011 110.752 186.942C110.472 186.682 109.942 186.458 109.162 186.272C108.389 186.465 107.799 186.435 107.392 186.182C107.075 185.985 106.835 185.692 106.706 185.346C106.577 184.999 106.566 184.617 106.675 184.253C106.784 183.889 107.006 183.562 107.311 183.32C107.616 183.077 107.988 182.931 108.372 182.902C109.626 182.808 110.956 182.805 112.362 182.892C112.444 182.897 112.526 182.884 112.602 182.854C112.678 182.824 112.746 182.777 112.801 182.718C112.856 182.658 112.896 182.587 112.919 182.509C112.942 182.432 112.946 182.351 112.932 182.272L112.762 182.062C112.454 181.701 112.019 181.469 111.542 181.412L108.232 180.972C107.966 180.934 107.721 180.808 107.535 180.614C107.349 180.42 107.233 180.169 107.207 179.902C107.18 179.635 107.244 179.366 107.389 179.139C107.533 178.913 107.749 178.741 108.002 178.652L112.712 177.022C112.756 177.006 112.796 176.982 112.829 176.951C112.863 176.919 112.889 176.881 112.907 176.839C112.925 176.796 112.934 176.751 112.933 176.705C112.932 176.659 112.922 176.613 112.902 176.572C112.682 176.112 112.116 175.958 111.202 176.112L110.362 175.392C112.842 173.125 115.589 171.408 118.602 170.242C122.096 170.355 123.139 172.272 121.732 175.992Z" fill="#F2D6A8"/>
<path d="M190.233 172.022C195.986 172.262 201.566 172.518 206.973 172.792C211.293 173.005 214.596 173.335 216.883 173.782C216.92 173.791 216.953 173.81 216.979 173.839C217.005 173.867 217.021 173.902 217.027 173.94C217.032 173.977 217.026 174.016 217.009 174.05C216.992 174.084 216.966 174.113 216.933 174.132C216.533 174.318 216.189 174.405 215.903 174.392C207.396 173.985 198.806 173.845 190.133 173.972C181.459 173.558 172.756 173.975 164.023 175.222C161.476 175.588 158.946 176.052 156.433 176.612C154.699 176.992 153.769 176.805 153.643 176.052C153.996 175.618 154.206 175.492 154.273 175.672C155.839 175.305 157.429 174.882 159.043 174.402C160.803 173.875 162.409 173.518 163.863 173.332C169.549 172.618 175.253 172.095 180.973 171.762C184.246 171.568 187.333 171.655 190.233 172.022Z" fill="#894020"/>
<path d="M111.202 176.112C112.115 175.958 112.682 176.112 112.902 176.572C112.921 176.614 112.932 176.659 112.933 176.705C112.933 176.751 112.925 176.796 112.907 176.839C112.889 176.881 112.862 176.919 112.829 176.951C112.795 176.982 112.756 177.007 112.712 177.022L108.002 178.652C107.749 178.741 107.533 178.913 107.388 179.139C107.244 179.366 107.18 179.635 107.207 179.902C107.233 180.169 107.349 180.42 107.534 180.614C107.72 180.808 107.966 180.934 108.232 180.972L111.542 181.412C112.018 181.469 112.454 181.701 112.762 182.062L112.932 182.272C112.946 182.351 112.941 182.432 112.919 182.51C112.896 182.587 112.856 182.658 112.801 182.718C112.746 182.777 112.678 182.824 112.602 182.854C112.526 182.885 112.444 182.897 112.362 182.892C110.956 182.805 109.626 182.808 108.372 182.902C107.987 182.931 107.616 183.077 107.311 183.32C107.006 183.562 106.783 183.889 106.674 184.253C106.566 184.617 106.577 184.999 106.706 185.346C106.834 185.692 107.075 185.985 107.392 186.182C107.799 186.435 108.389 186.465 109.162 186.272C100.642 187.285 92.5688 189.195 84.9422 192.002C84.4685 192.175 83.9513 192.191 83.4669 192.047C82.9824 191.903 82.5566 191.607 82.2522 191.202L78.4422 186.082C78.3256 185.926 78.2516 185.743 78.2275 185.55C78.2034 185.356 78.23 185.161 78.3047 184.981C78.3794 184.801 78.4996 184.644 78.6534 184.525C78.8073 184.406 78.9895 184.329 79.1822 184.302C88.0688 183.088 96.9288 182.498 105.762 182.532C106.032 182.532 106.292 182.428 106.487 182.242C106.683 182.056 106.799 181.802 106.812 181.532L106.832 181.222C106.836 181.155 106.826 181.088 106.803 181.025C106.78 180.962 106.744 180.905 106.697 180.856C106.65 180.807 106.593 180.768 106.531 180.742C106.468 180.715 106.4 180.702 106.332 180.702C96.5922 180.755 87.3755 181.422 78.6822 182.702C78.1829 182.775 77.6743 182.653 77.2612 182.361C76.8482 182.069 76.5621 181.629 76.4622 181.132L75.2322 174.892C75.1885 174.668 75.1959 174.437 75.2537 174.216C75.3116 173.995 75.4185 173.79 75.5664 173.616C75.7144 173.442 75.8996 173.304 76.1083 173.211C76.3171 173.119 76.544 173.075 76.7722 173.082C88.3988 173.462 99.3289 174.598 109.562 176.492C111.116 176.785 111.662 176.658 111.202 176.112Z" fill="#D59659"/>
<path d="M190.133 173.972L189.673 182.082C189.657 182.373 189.749 182.66 189.932 182.887C190.115 183.114 190.375 183.265 190.663 183.312C199.063 184.652 207.003 186.572 214.483 189.072C214.547 189.092 214.601 189.137 214.633 189.197C214.664 189.257 214.672 189.327 214.653 189.392L214.643 189.362C214.637 189.338 214.624 189.317 214.607 189.301C214.589 189.285 214.567 189.275 214.543 189.272L190.223 184.892C189.824 184.816 189.412 184.855 189.034 185.004C188.655 185.152 188.326 185.405 188.083 185.732C186.069 188.405 184.986 190.815 184.833 192.962C176.199 189.975 167.243 187.812 157.963 186.472C158.729 185.498 158.709 184.158 157.903 182.452C167.983 182.122 177.743 183.412 187.743 184.682C187.971 184.709 188.202 184.653 188.393 184.525C188.584 184.396 188.722 184.204 188.783 183.982L188.793 183.942C188.821 183.84 188.827 183.734 188.812 183.63C188.796 183.526 188.759 183.427 188.702 183.338C188.646 183.249 188.571 183.174 188.483 183.116C188.395 183.058 188.297 183.019 188.193 183.002C177.906 181.202 167.583 180.398 157.223 180.592C156.649 177.385 154.966 176.462 152.173 177.822C152.077 177.866 151.968 177.876 151.865 177.85C151.762 177.825 151.671 177.765 151.607 177.681C151.544 177.598 151.511 177.495 151.516 177.391C151.521 177.288 151.562 177.189 151.633 177.112C152.153 176.525 152.823 176.172 153.643 176.052C153.769 176.805 154.699 176.992 156.433 176.612C158.946 176.052 161.476 175.588 164.023 175.222C172.756 173.975 181.459 173.558 190.133 173.972Z" fill="#B16B40"/>
<path d="M121.732 175.992C123.485 179.592 126.575 181.522 131.002 181.782C136.209 182.448 140.159 180.652 142.852 176.392C143.019 176.125 143.292 176.062 143.672 176.202C144.642 179.232 140.942 183.022 138.562 184.442L134.142 186.342C133.982 186.408 133.842 186.517 133.738 186.658C133.635 186.799 133.57 186.966 133.552 187.142C133.345 189.228 133.429 191.115 133.802 192.802C134.782 197.192 141.982 196.722 144.982 195.342C146.455 194.482 147.619 193.295 148.472 191.782C148.516 191.704 148.587 191.645 148.672 191.615C148.757 191.586 148.849 191.588 148.932 191.622L149.182 191.722C149.209 191.735 149.23 191.757 149.241 191.785C149.252 191.813 149.253 191.844 149.242 191.872C148.529 193.758 147.432 195.365 145.952 196.692C141.892 199.882 138.022 199.592 133.592 198.442C132.692 198.215 131.755 198.248 130.782 198.542C124.335 200.515 119.395 198.725 115.962 193.172C115.929 193.126 115.914 193.071 115.922 193.016C115.929 192.962 115.958 192.912 116.001 192.877C116.045 192.842 116.102 192.824 116.159 192.826C116.217 192.829 116.271 192.853 116.312 192.892C119.439 195.698 123.165 196.715 127.492 195.942C132.112 195.122 131.772 190.592 131.492 187.252C131.477 187.044 131.404 186.844 131.283 186.674C131.161 186.505 130.995 186.372 130.802 186.292C129.902 185.905 128.162 184.945 125.582 183.412C122.102 181.345 120.819 178.872 121.732 175.992Z" fill="#4D2210"/>
<path d="M256.383 179.622L256.013 182.472L252.093 194.012L248.213 203.512L242.163 213.512C237.633 218.912 233.183 224.892 228.633 229.752C225.826 232.738 223.579 234.882 221.893 236.182C215.966 240.742 210.053 245.328 204.153 249.942L201.183 251.212L201.073 248.892C200.486 243.565 199.019 236.278 196.673 227.032C193.893 216.092 189.079 206.018 182.233 196.812C181.942 196.419 181.804 195.934 181.845 195.448C181.885 194.962 182.101 194.508 182.453 194.172C182.626 194.005 183.209 194.065 184.203 194.352C192.023 196.705 199.583 199.642 206.883 203.162C207.376 203.395 207.829 203.572 208.243 203.692C209.263 203.985 209.469 203.928 208.863 203.522C218.529 200.902 226.999 198.122 234.273 195.182C242.553 191.842 249.923 186.655 256.383 179.622ZM249.878 199.086C249.921 199.013 249.933 198.926 249.912 198.844C249.89 198.762 249.837 198.691 249.764 198.648L249.73 198.628C249.657 198.585 249.569 198.573 249.487 198.594C249.405 198.615 249.335 198.668 249.292 198.741L242.968 209.477C242.925 209.55 242.913 209.637 242.934 209.72C242.955 209.802 243.008 209.872 243.081 209.915L243.116 209.936C243.189 209.979 243.276 209.991 243.358 209.97C243.44 209.948 243.511 209.895 243.554 209.822L249.878 199.086Z" fill="#D29D77"/>
<path d="M254.963 193.582C254.316 193.062 254.15 192.005 254.463 190.412L258.293 180.462C257.766 184.935 256.656 189.308 254.963 193.582Z" fill="#A29C9C"/>
<path d="M157.903 182.452L152.983 182.952C152.697 182.984 152.406 182.921 152.153 182.772L151.763 182.552C151.695 182.511 151.642 182.451 151.608 182.379C151.575 182.308 151.563 182.228 151.575 182.15C151.587 182.072 151.621 181.999 151.674 181.941C151.727 181.882 151.796 181.841 151.873 181.822L157.223 180.592C167.583 180.398 177.906 181.202 188.193 183.002C188.297 183.019 188.396 183.058 188.483 183.116C188.571 183.174 188.646 183.249 188.702 183.338C188.759 183.427 188.796 183.526 188.812 183.63C188.827 183.734 188.821 183.84 188.793 183.942L188.783 183.982C188.722 184.204 188.584 184.396 188.393 184.525C188.202 184.653 187.971 184.709 187.743 184.682C177.743 183.412 167.983 182.122 157.903 182.452Z" fill="#894020"/>
<path d="M138.563 184.442L144.983 195.342C141.983 196.722 134.783 197.192 133.803 192.802C133.43 191.115 133.346 189.228 133.553 187.142C133.571 186.966 133.635 186.799 133.739 186.658C133.843 186.517 133.983 186.408 134.143 186.342L138.563 184.442Z" fill="#F2D6A8"/>
<path d="M157.963 186.472C167.243 187.812 176.199 189.975 184.833 192.962C193.813 195.968 201.823 199.488 208.863 203.522C209.469 203.928 209.263 203.985 208.243 203.692C207.829 203.572 207.376 203.395 206.883 203.162C199.583 199.642 192.023 196.705 184.203 194.352C182.083 194.192 180.513 193.875 179.493 193.402C172.666 190.955 165.739 189.378 158.713 188.672L154.113 187.402C153.995 187.368 153.893 187.292 153.826 187.189C153.759 187.086 153.732 186.963 153.749 186.841C153.766 186.719 153.826 186.608 153.919 186.527C154.011 186.447 154.13 186.402 154.253 186.402L157.963 186.472Z" fill="#894020"/>
<path d="M107.243 188.412C105.869 189.672 105.466 190.922 106.033 192.162C107.273 194.848 109.413 197.385 112.453 199.772C115.313 202.025 118.289 204.102 121.383 206.002C121.628 206.154 121.89 206.275 122.163 206.362C123.523 206.795 124.843 207.408 126.123 208.202C124.636 208.222 123.256 208.135 121.983 207.942C112.556 206.502 103.593 203.628 95.0927 199.322C91.8193 197.655 88.5293 195.918 85.2227 194.112C85.6827 193.552 86.1193 193.205 86.5327 193.072C93.206 190.825 100.109 189.272 107.243 188.412Z" fill="#D59659"/>
<path d="M179.492 193.402C173.859 197.795 169.719 200.528 167.072 201.602C164.765 202.535 162.479 203.528 160.212 204.582C157.392 205.902 155.072 206.768 153.252 207.182C148.932 208.162 144.665 208.442 140.452 208.022L146.902 204.352C153.402 200.458 157.339 195.232 158.712 188.672C165.739 189.378 172.666 190.955 179.492 193.402Z" fill="#B97E51"/>
<path d="M254.463 190.412C254.15 192.005 254.316 193.062 254.963 193.582L254.003 195.302L252.183 198.472L248.213 203.512L252.093 194.012L254.463 190.412Z" fill="#BA9A85"/>
<path d="M184.202 194.352C183.209 194.065 182.626 194.005 182.452 194.172C182.101 194.508 181.885 194.962 181.844 195.448C181.804 195.934 181.942 196.419 182.232 196.812C189.079 206.018 193.892 216.092 196.672 227.032C199.019 236.278 200.486 243.565 201.072 248.892C198.272 251.272 195.502 253.145 192.762 254.512C187.056 257.358 180.752 260.125 173.852 262.812C168.546 264.878 163.056 265.672 157.382 265.192L159.552 258.812C162.932 250.212 164.642 241.372 162.332 232.222C162.316 232.147 162.325 232.068 162.358 231.999C162.391 231.929 162.446 231.873 162.514 231.838C162.582 231.802 162.66 231.79 162.736 231.804C162.811 231.817 162.88 231.855 162.932 231.912L165.442 234.762C165.499 234.827 165.57 234.878 165.65 234.91C165.73 234.942 165.817 234.955 165.904 234.947C165.99 234.939 166.074 234.911 166.149 234.865C166.223 234.819 166.286 234.756 166.332 234.682C166.359 234.628 166.382 234.542 166.402 234.422C166.422 234.297 166.412 234.167 166.372 234.042C164.112 227.062 160.072 216.622 154.322 212.022C154.117 211.859 153.874 211.75 153.615 211.705C153.357 211.659 153.091 211.679 152.842 211.762C145.332 214.212 137.232 215.332 128.922 214.322C122.012 213.482 118.782 213.442 113.832 211.292C113.524 211.154 113.183 211.106 112.847 211.154C112.511 211.201 112.194 211.343 111.932 211.562L108.582 214.352C101.616 210.298 96.2023 206.725 92.3423 203.632C90.389 202.065 87.659 199.288 84.1523 195.302C84.1657 194.722 84.5224 194.325 85.2224 194.112C88.529 195.918 91.819 197.655 95.0923 199.322C103.592 203.628 112.556 206.502 121.982 207.942C123.256 208.135 124.636 208.222 126.122 208.202C130.702 209.435 135.479 209.375 140.452 208.022C144.666 208.442 148.932 208.162 153.252 207.182C155.072 206.768 157.392 205.902 160.212 204.582C162.479 203.528 164.766 202.535 167.072 201.602C169.719 200.528 173.859 197.795 179.492 193.402C180.512 193.875 182.082 194.192 184.202 194.352ZM192.942 252.034C192.918 251.987 192.641 252.07 192.173 252.265C191.704 252.46 191.081 252.75 190.442 253.073C190.126 253.233 189.815 253.396 189.527 253.553C189.239 253.709 188.98 253.857 188.764 253.986C188.549 254.116 188.381 254.225 188.271 254.308C188.161 254.391 188.111 254.446 188.122 254.469C188.146 254.516 188.423 254.434 188.892 254.239C189.361 254.044 189.983 253.753 190.623 253.43C190.939 253.27 191.25 253.107 191.538 252.951C191.826 252.794 192.085 252.647 192.3 252.517C192.516 252.387 192.683 252.278 192.793 252.195C192.904 252.112 192.954 252.058 192.942 252.034Z" fill="#A55728"/>
<path d="M108.582 214.352L105.422 218.492L101.692 224.492C101.656 224.536 101.628 224.588 101.611 224.643C101.594 224.699 101.588 224.757 101.594 224.814C101.6 224.872 101.616 224.928 101.644 224.979C101.671 225.03 101.708 225.075 101.752 225.112C101.797 225.149 101.848 225.176 101.904 225.193C101.959 225.21 102.017 225.216 102.075 225.21C102.132 225.205 102.188 225.188 102.239 225.161C102.29 225.133 102.336 225.096 102.372 225.052L104.102 223.452C104.183 223.369 104.291 223.319 104.406 223.312C104.521 223.306 104.635 223.342 104.724 223.415C104.813 223.488 104.872 223.592 104.888 223.706C104.905 223.82 104.878 223.937 104.812 224.032C102.372 228.098 100.776 231.562 100.022 234.422C99.993 234.53 100.002 234.645 100.049 234.747C100.095 234.849 100.176 234.931 100.277 234.98C100.378 235.028 100.493 235.04 100.601 235.013C100.71 234.986 100.806 234.922 100.872 234.832L102.452 232.672C102.528 232.569 102.633 232.491 102.754 232.448C102.875 232.406 103.005 232.4 103.129 232.432C103.253 232.465 103.364 232.533 103.448 232.63C103.533 232.726 103.586 232.845 103.602 232.972C103.622 233.178 103.599 233.448 103.532 233.782C101.339 244.822 103.349 255.215 109.562 264.962C104.262 265.095 98.6957 264.125 92.8624 262.052C90.7757 261.312 84.9724 259.458 75.4524 256.492C72.3457 255.525 69.509 254.152 66.9424 252.372C66.6132 252.142 66.3417 251.839 66.1491 251.487C65.9565 251.135 65.8481 250.743 65.8323 250.342L65.6523 245.792C66.639 235.052 69.1624 225.125 73.2224 216.012C75.8624 210.092 79.5057 203.188 84.1523 195.302C87.659 199.288 90.389 202.065 92.3423 203.632C96.2023 206.725 101.616 210.298 108.582 214.352Z" fill="#CD7839"/>
<path d="M249.764 198.648L249.73 198.628C249.578 198.538 249.381 198.589 249.292 198.741L242.968 209.477C242.878 209.629 242.929 209.826 243.081 209.915L243.116 209.936C243.268 210.025 243.464 209.974 243.554 209.822L249.878 199.086C249.967 198.934 249.917 198.738 249.764 198.648Z" fill="#CEA78B"/>
<path d="M248.212 203.512C246.592 207.105 244.575 210.438 242.162 213.512L248.212 203.512Z" fill="#BA9A85"/>
<path d="M159.553 258.812C161.113 252.925 161.616 247.018 161.063 241.092C161.036 240.787 160.959 240.486 160.833 240.202C157.223 232.082 154.463 226.832 145.333 225.162C138.453 223.902 133.233 222.805 129.673 221.872C125.063 220.662 120.553 220.162 116.123 218.222C114.176 217.368 112.613 216.768 111.433 216.422C111.025 216.305 110.591 216.33 110.203 216.492L105.423 218.492L108.583 214.352L111.933 211.562C112.194 211.343 112.511 211.201 112.847 211.154C113.183 211.106 113.525 211.154 113.833 211.292C118.783 213.442 122.013 213.482 128.923 214.322C137.233 215.332 145.333 214.212 152.843 211.762C153.092 211.679 153.357 211.659 153.616 211.704C153.874 211.75 154.117 211.859 154.323 212.022C160.073 216.622 164.113 227.062 166.373 234.042C166.412 234.166 166.423 234.297 166.403 234.422C166.383 234.542 166.359 234.628 166.333 234.682C166.286 234.756 166.224 234.819 166.149 234.865C166.075 234.911 165.991 234.939 165.904 234.947C165.817 234.955 165.731 234.942 165.65 234.91C165.57 234.878 165.499 234.827 165.443 234.762L162.933 231.912C162.881 231.855 162.812 231.817 162.736 231.804C162.661 231.79 162.583 231.802 162.514 231.838C162.446 231.873 162.391 231.929 162.359 231.999C162.326 232.068 162.317 232.147 162.333 232.222C164.643 241.372 162.933 250.212 159.553 258.812Z" fill="#DEBEA0"/>
<path d="M159.553 258.812L157.383 265.192L156.363 267.992C156.316 268.158 156.243 268.312 156.143 268.452C156.033 268.606 155.869 268.714 155.683 268.752C144.256 271.245 132.696 271.945 121.003 270.852C118.243 270.712 115.516 270.345 112.823 269.752C112.497 269.679 112.165 269.638 111.833 269.632C109.653 269.592 107.603 269.682 105.373 269.172C97.4461 267.358 89.7694 264.838 82.3428 261.612C82.8294 261.912 83.4495 262.025 84.2028 261.952C89.3228 264.332 94.6095 266.005 100.063 266.972L107.743 269.342C108.081 269.448 108.435 269.505 108.793 269.512L111.613 269.602C111.69 269.605 111.766 269.586 111.833 269.549C111.9 269.511 111.956 269.456 111.995 269.388C112.034 269.321 112.054 269.244 112.054 269.165C112.053 269.087 112.032 269.01 111.993 268.942L109.563 264.962C103.349 255.215 101.339 244.822 103.533 233.782C103.599 233.448 103.623 233.178 103.603 232.972C103.587 232.845 103.533 232.726 103.449 232.63C103.364 232.533 103.253 232.465 103.129 232.432C103.006 232.4 102.875 232.406 102.754 232.448C102.634 232.491 102.529 232.569 102.453 232.672L100.873 234.832C100.806 234.922 100.711 234.986 100.602 235.013C100.493 235.04 100.378 235.028 100.277 234.98C100.177 234.931 100.096 234.849 100.049 234.747C100.003 234.645 99.9934 234.53 100.023 234.422C100.776 231.562 102.373 228.098 104.813 224.032C104.878 223.937 104.905 223.821 104.889 223.706C104.873 223.592 104.814 223.488 104.724 223.415C104.635 223.342 104.522 223.306 104.406 223.312C104.291 223.319 104.183 223.369 104.103 223.452L102.373 225.052C102.336 225.096 102.291 225.133 102.24 225.161C102.189 225.188 102.133 225.205 102.075 225.21C102.018 225.216 101.959 225.21 101.904 225.193C101.849 225.176 101.797 225.149 101.753 225.112C101.708 225.075 101.671 225.03 101.644 224.979C101.617 224.928 101.6 224.872 101.594 224.814C101.589 224.757 101.595 224.699 101.612 224.643C101.628 224.588 101.656 224.536 101.693 224.492L105.423 218.492L110.203 216.492C110.591 216.33 111.024 216.305 111.433 216.422C112.613 216.768 114.176 217.368 116.123 218.222C120.553 220.162 125.063 220.662 129.673 221.872C133.233 222.805 138.453 223.902 145.333 225.162C154.463 226.832 157.223 232.082 160.833 240.202C160.959 240.487 161.036 240.787 161.063 241.092C161.616 247.018 161.113 252.925 159.553 258.812Z" fill="#EDD7B6"/>
<path d="M237.123 221.271C237.291 221.045 237.391 220.835 237.346 220.802C237.302 220.769 237.13 220.926 236.963 221.152C236.795 221.379 236.695 221.589 236.74 221.622C236.784 221.655 236.956 221.498 237.123 221.271Z" fill="#A0978D"/>
<path d="M65.6522 245.792L65.8322 250.342C65.848 250.743 65.9564 251.135 66.149 251.487C66.3416 251.839 66.6131 252.142 66.9422 252.372C69.5089 254.152 72.3456 255.525 75.4522 256.492C84.9722 259.458 90.7756 261.312 92.8622 262.052C98.6956 264.125 104.262 265.095 109.562 264.962L111.992 268.942C112.032 269.01 112.053 269.087 112.053 269.165C112.054 269.244 112.033 269.321 111.994 269.388C111.956 269.456 111.9 269.511 111.833 269.549C111.765 269.586 111.689 269.605 111.612 269.602L108.792 269.512C108.434 269.505 108.081 269.448 107.742 269.342L100.062 266.972C95.3023 264.605 90.3422 262.832 85.1822 261.652C84.8972 261.585 84.6006 261.562 84.3022 261.582C83.5422 261.628 83.5089 261.752 84.2022 261.952C83.4489 262.025 82.8289 261.912 82.3422 261.612C76.0222 258.898 70.0856 255.808 64.5322 252.342C65.6256 251.302 65.9989 249.118 65.6522 245.792Z" fill="#B97E51"/>
<path d="M190.623 253.43C191.954 252.758 192.992 252.133 192.942 252.034C192.893 251.936 191.773 252.401 190.442 253.073C189.111 253.745 188.073 254.37 188.122 254.469C188.172 254.568 189.292 254.103 190.623 253.43Z" fill="#B16B40"/>
<path d="M201.182 251.212C199.842 252.792 198.192 254.008 196.232 254.862C184.112 261.382 171.286 265.928 157.752 268.502C156.959 268.722 156.496 268.552 156.362 267.992L157.382 265.192C163.056 265.672 168.546 264.878 173.852 262.812C180.752 260.125 187.056 257.358 192.762 254.512C195.502 253.145 198.272 251.272 201.072 248.892L201.182 251.212Z" fill="#966841"/>
<path d="M205.342 249.912C202.529 252.452 199.492 254.102 196.232 254.862C198.192 254.008 199.842 252.792 201.182 251.212L204.152 249.942L205.342 249.912Z" fill="#BA9A85"/>
<path d="M100.062 266.972C94.6089 266.005 89.3222 264.332 84.2022 261.952C83.5089 261.752 83.5422 261.628 84.3022 261.582C84.6006 261.562 84.8971 261.585 85.1822 261.652C90.3422 262.832 95.3022 264.605 100.062 266.972Z" fill="#B58D6B"/>
</svg>
