<svg width="265" height="261" viewBox="0 0 265 261" fill="none" xmlns="http://www.w3.org/2000/svg">
<path d="M261.23 101.616C265.277 119.576 265.667 137.466 262.4 155.286L255.45 178.076C249.737 191.709 242.117 203.923 232.59 214.716C228.37 219.489 223.98 224.089 219.42 228.516C219.173 228.749 218.854 228.803 218.46 228.676C217.654 226.509 217.207 224.513 217.12 222.686C216.847 217.226 215.89 212.039 214.25 207.126C214.214 207.016 214.214 206.898 214.249 206.788C214.284 206.678 214.353 206.581 214.446 206.513C214.539 206.444 214.652 206.407 214.767 206.405C214.883 206.404 214.996 206.439 215.09 206.506L218.85 209.256C218.977 209.351 219.132 209.402 219.29 209.403C219.449 209.403 219.604 209.353 219.731 209.258C219.859 209.164 219.953 209.032 220 208.88C220.046 208.728 220.043 208.566 219.99 208.416L211.62 184.196C211.581 184.088 211.573 183.972 211.597 183.86C211.622 183.748 211.678 183.646 211.759 183.565C211.84 183.484 211.943 183.428 212.054 183.403C212.166 183.379 212.283 183.386 212.39 183.426L217.56 185.216C217.661 185.252 217.77 185.261 217.876 185.242C217.982 185.223 218.081 185.177 218.163 185.109C218.246 185.04 218.309 184.952 218.347 184.851C218.385 184.751 218.397 184.642 218.38 184.536C217.653 179.603 215.917 174.996 213.17 170.716C213.107 170.618 213.076 170.502 213.082 170.385C213.088 170.268 213.13 170.156 213.203 170.065C213.276 169.973 213.375 169.907 213.488 169.875C213.6 169.842 213.72 169.846 213.83 169.886L220.23 172.106C220.354 172.147 220.488 172.153 220.615 172.123C220.743 172.094 220.86 172.029 220.953 171.937C221.046 171.845 221.112 171.729 221.143 171.601C221.175 171.474 221.17 171.341 221.13 171.216C219.17 165.263 216.607 159.649 213.44 154.376C213.395 154.297 213.375 154.206 213.383 154.115C213.392 154.025 213.428 153.939 213.487 153.87C213.547 153.801 213.626 153.752 213.714 153.73C213.802 153.707 213.895 153.713 213.98 153.746L221.02 156.616C221.119 156.658 221.228 156.67 221.334 156.652C221.44 156.633 221.538 156.585 221.617 156.512C221.696 156.439 221.753 156.345 221.78 156.242C221.807 156.138 221.804 156.028 221.77 155.926C220.657 152.619 219.597 149.346 218.59 146.106C217.41 142.336 215.2 138.666 213.59 135.366C213.553 135.289 213.54 135.203 213.553 135.119C213.567 135.035 213.605 134.957 213.664 134.895C213.722 134.833 213.798 134.79 213.882 134.773C213.965 134.755 214.052 134.763 214.13 134.796L218.63 136.626C218.725 136.665 218.829 136.672 218.928 136.646C219.027 136.621 219.115 136.564 219.179 136.484C219.244 136.403 219.282 136.304 219.287 136.2C219.293 136.096 219.266 135.993 219.21 135.906C213.857 127.879 209.484 119.753 206.09 111.526C207.244 101.759 207.804 95.3726 207.77 92.3659C207.637 80.9059 206.903 69.8859 205.57 59.3059C205.25 56.7859 204.557 53.5326 203.49 49.5459C201.42 41.8059 200.2 37.2059 195.08 32.5559C193.107 30.7559 191.007 30.2226 188.78 30.9559C186.714 31.9626 184.893 33.2893 183.32 34.9359C174.593 44.0693 165.74 53.7293 156.76 63.9159L130.36 64.2259C124.98 64.2526 119.777 64.3126 114.75 64.4059C112.25 64.4526 109.307 64.1526 105.92 63.5059C98.2868 53.9593 90.2001 44.8626 81.6601 36.2159C79.3301 33.8559 74.5601 29.3759 71.4701 30.9259C62.2501 35.5359 59.0202 49.4259 57.9502 58.8459C56.0435 70.6326 55.2302 82.4826 55.5102 94.3959C55.6302 99.6659 56.4902 104.166 57.0702 109.086C57.6302 113.776 54.7602 118.646 52.2002 122.366L44.2002 135.526C44.1336 135.635 44.1022 135.761 44.1103 135.889C44.1184 136.016 44.1656 136.138 44.2454 136.237C44.3253 136.337 44.4339 136.409 44.5564 136.445C44.679 136.48 44.8095 136.477 44.9301 136.436L48.6001 135.166C48.6659 135.143 48.7369 135.14 48.8045 135.156C48.8722 135.173 48.9335 135.209 48.9811 135.26C49.0287 135.311 49.0607 135.374 49.0729 135.443C49.0852 135.511 49.0772 135.582 49.0501 135.646L40.9901 155.436C40.9442 155.545 40.9311 155.666 40.9524 155.782C40.9738 155.899 41.0286 156.007 41.1103 156.093C41.192 156.179 41.297 156.239 41.4124 156.266C41.5278 156.293 41.6487 156.286 41.7602 156.246L48.8202 153.796C48.9691 153.747 49.1297 153.744 49.2799 153.79C49.4301 153.836 49.5625 153.927 49.659 154.05C49.7554 154.174 49.8111 154.325 49.8185 154.482C49.8259 154.638 49.7845 154.794 49.7002 154.926C47.2335 158.686 45.0001 162.983 43.0001 167.816C42.7201 168.489 42.4502 169.583 42.1902 171.096C42.1692 171.215 42.1804 171.338 42.2226 171.451C42.2648 171.564 42.3365 171.664 42.4302 171.741C42.5239 171.817 42.6364 171.867 42.7559 171.886C42.8754 171.904 42.9977 171.89 43.1101 171.846L49.2201 169.456C49.3108 169.421 49.4101 169.416 49.5038 169.442C49.5975 169.467 49.6808 169.521 49.7418 169.596C49.8029 169.672 49.8384 169.765 49.8435 169.862C49.8486 169.958 49.823 170.055 49.7702 170.136C47.0168 174.216 45.1901 178.909 44.2901 184.216C44.2591 184.39 44.2742 184.569 44.334 184.735C44.3937 184.901 44.4959 185.049 44.6305 185.163C44.765 185.277 44.9273 185.354 45.1009 185.387C45.2746 185.419 45.4536 185.405 45.6201 185.346L51.3101 183.376C51.3944 183.345 51.4855 183.339 51.5731 183.358C51.6607 183.377 51.7413 183.421 51.8058 183.484C51.8703 183.548 51.9162 183.628 51.9381 183.717C51.9601 183.806 51.9573 183.899 51.9301 183.986L48.5601 194.356L44.9602 207.696C44.9246 207.83 44.9269 207.971 44.9669 208.104C45.0068 208.237 45.0829 208.356 45.1865 208.448C45.2901 208.541 45.4173 208.602 45.5539 208.627C45.6904 208.651 45.8311 208.637 45.9602 208.586L48.7802 207.486C48.8735 207.451 48.9745 207.441 49.0727 207.459C49.1708 207.477 49.2623 207.521 49.3372 207.587C49.4122 207.653 49.4679 207.737 49.4984 207.832C49.5288 207.927 49.5329 208.029 49.5102 208.126C47.8702 214.606 46.6568 221.553 45.8701 228.966C35.1968 219.326 26.2135 208.826 18.9201 197.466C17.6468 195.479 16.4902 193.426 15.4502 191.306C15.1968 190.786 14.9368 190.269 14.6701 189.756C6.7568 174.703 2.05014 158.733 0.550137 141.846C-0.843196 126.693 0.410147 111.876 4.31015 97.3959C7.85681 84.3826 13.0801 72.4426 19.9801 61.5759C23.3735 56.2293 27.6201 50.5093 32.7201 44.4159C43.3401 31.7159 57.6301 21.3659 71.7201 14.3559C84.8735 7.81592 98.7101 3.46926 113.23 1.31593C127.217 -0.757403 141.69 -0.380732 156.65 2.44594C192.837 9.28594 221.597 28.4259 242.93 59.8659C248.48 68.0359 251.14 74.726 255.32 83.506C256.66 86.3193 258.63 92.3559 261.23 101.616Z" fill="#D2D1D6"/>
<path d="M105.92 63.5058C106.947 65.5392 108.034 67.5891 109.18 69.6558C110.02 71.1758 109.807 72.4358 108.54 73.4358C106.407 75.1291 104.274 76.4491 102.14 77.3958C99.5702 78.5258 98.0402 79.5758 95.2402 81.2558C95.1833 81.289 95.1193 81.308 95.0536 81.3112C94.9878 81.3145 94.9223 81.3018 94.8624 81.2744C94.8026 81.2469 94.7502 81.2054 94.7098 81.1535C94.6694 81.1015 94.6421 81.0405 94.6302 80.9758L94.4702 80.0358L96.7802 75.6358C96.9172 75.382 96.973 75.0923 96.9402 74.8058C96.7935 73.4858 96.4402 72.2125 95.8802 70.9858C91.7402 61.9558 87.2502 56.1558 79.8102 46.3058C76.8902 42.4458 72.1302 38.5458 67.5302 42.6558C63.3602 46.3758 61.4902 55.0858 60.5602 60.4158C59.3735 60.3025 58.5035 59.7791 57.9502 58.8458C59.0202 49.4258 62.2502 35.5358 71.4702 30.9258C74.5602 29.3758 79.3302 33.8558 81.6602 36.2158C90.2002 44.8625 98.2868 53.9592 105.92 63.5058Z" fill="#6C6362"/>
<path d="M206.09 111.526C206.05 113.586 205.023 114.483 203.01 114.216C202.136 114.103 200.636 113.096 198.51 111.196C191.14 104.616 185.44 97.4761 179.11 90.4061C178.703 89.9461 177.95 88.7661 176.85 86.8661C180.49 83.5061 184.73 80.4161 187.58 76.3961C187.61 76.3509 187.625 76.2975 187.623 76.2433C187.621 76.1891 187.602 76.1369 187.569 76.0939C187.536 76.0509 187.49 76.0193 187.438 76.0036C187.387 75.9879 187.331 75.9888 187.28 76.0061L181.5 77.9961C181.405 78.0274 181.304 78.028 181.209 77.998C181.115 77.9679 181.032 77.9086 180.973 77.8287C180.914 77.7487 180.882 77.6522 180.882 77.5529C180.881 77.4537 180.912 77.3568 180.97 77.2761L188.16 67.4561C188.192 67.4162 188.21 67.3674 188.211 67.3166C188.212 67.2658 188.197 67.2157 188.167 67.1735C188.137 67.1313 188.094 67.0991 188.044 67.0816C187.994 67.0641 187.94 67.0622 187.89 67.0761L182.54 68.5461C182.477 68.5615 182.412 68.5572 182.352 68.5336C182.292 68.51 182.241 68.4685 182.206 68.4147C182.171 68.3608 182.153 68.2974 182.156 68.2332C182.158 68.1689 182.18 68.1071 182.22 68.0561C182.933 67.1228 183.796 66.3128 184.81 65.6261C185.55 65.1395 186.01 64.7128 186.19 64.3461C187.883 60.9861 189.986 57.9128 192.5 55.1261C192.542 55.078 192.598 55.043 192.659 55.025C192.721 55.0071 192.787 55.007 192.848 55.0248C192.91 55.0426 192.966 55.0775 193.008 55.1255C193.051 55.1736 193.079 55.2327 193.09 55.2961C195.01 66.6961 193.27 77.0561 191.01 88.5961C190.63 90.5461 190.87 91.9561 191.9 93.5061C193.366 95.7395 194.706 97.5128 195.92 98.8261C196.052 98.9691 196.215 99.0817 196.395 99.1558C196.576 99.23 196.77 99.2639 196.964 99.2554C197.158 99.2468 197.348 99.1959 197.52 99.1062C197.692 99.0165 197.842 98.8902 197.96 98.7361C201.44 94.1828 203.41 88.9961 203.87 83.1761C204.636 73.5494 203.68 63.4195 201 52.7861C199.53 46.9561 195.46 38.0561 187.79 42.5161L188.78 30.9561C191.006 30.2228 193.106 30.7561 195.08 32.5561C200.2 37.2061 201.42 41.8061 203.49 49.5461C204.556 53.5328 205.25 56.7861 205.57 59.3061C206.903 69.8861 207.636 80.9061 207.77 92.3661C207.803 95.3728 207.243 101.759 206.09 111.526Z" fill="#6C6362"/>
<path d="M188.78 30.9561L187.79 42.5161C184.684 44.9761 181.947 47.7894 179.58 50.9561C174.56 57.7061 170.94 62.1361 167.99 68.6461C166.984 70.8861 166.444 72.1294 166.37 72.3761C165.937 73.8694 166.174 75.1461 167.08 76.2061C165.947 77.9394 164.47 78.3627 162.65 77.476C159.657 76.016 156.727 74.4927 153.86 72.9061C153.478 72.6947 153.193 72.3417 153.068 71.9229C152.943 71.504 152.987 71.0528 153.19 70.666L156.76 63.916C165.74 53.7294 174.594 44.0694 183.32 34.9361C184.894 33.2894 186.714 31.9627 188.78 30.9561Z" fill="#5E5553"/>
<path d="M94.4696 80.0361L91.2796 83.7061C91.6596 79.1528 91.2096 74.9061 89.9296 70.9661C88.3829 66.1861 85.0463 64.6461 79.9196 66.3461L75.4596 62.1461C75.36 62.0531 75.2727 61.949 75.1996 61.8361L70.6996 54.8261C70.6655 54.7757 70.6173 54.7365 70.561 54.7133C70.5048 54.6902 70.4429 54.684 70.3832 54.6958C70.3235 54.7075 70.2686 54.7365 70.2253 54.7793C70.182 54.822 70.1522 54.8766 70.1396 54.9361C67.9496 66.5261 69.9596 79.3761 72.7596 91.1361C72.7877 91.2541 72.7878 91.377 72.76 91.495C72.7322 91.613 72.6773 91.723 72.5996 91.8161L66.6196 99.0261C66.5348 99.1286 66.4294 99.2122 66.3103 99.2714C66.1911 99.3306 66.0609 99.3641 65.928 99.3698C65.795 99.3754 65.6624 99.3531 65.5387 99.3042C65.4149 99.2553 65.3028 99.181 65.2096 99.0861C64.2963 98.1594 63.5763 97.1528 63.0496 96.0661C59.9563 89.7061 58.6463 83.2394 59.1196 76.6661C59.5063 71.2461 59.9863 65.8294 60.5596 60.4161C61.4896 55.0861 63.3596 46.3761 67.5296 42.6561C72.1296 38.5461 76.8896 42.4461 79.8096 46.3061C87.2496 56.1561 91.7396 61.9561 95.8796 70.9861C96.4396 72.2128 96.793 73.4861 96.9396 74.8061C96.9724 75.0926 96.9166 75.3823 96.7796 75.6361L94.4696 80.0361Z" fill="#BBB0A4"/>
<path d="M184.81 65.6259C184.897 65.2526 184.91 64.9059 184.85 64.5859C184.819 64.4165 184.722 64.2658 184.581 64.1652C184.439 64.0647 184.264 64.0219 184.09 64.0459L177 65.0459C176.455 65.1217 175.947 65.3669 175.547 65.747C175.147 66.1272 174.875 66.6233 174.77 67.1659L171.71 83.0059C169.944 81.2193 168.4 78.9526 167.08 76.2059C166.174 75.1459 165.937 73.8693 166.37 72.3759C166.444 72.1293 166.984 70.8859 167.99 68.6459C170.94 62.1359 174.56 57.7059 179.58 50.9559C181.947 47.7892 184.684 44.9759 187.79 42.5159C195.46 38.0559 199.53 46.9559 201 52.7859C203.68 63.4193 204.637 73.5492 203.87 83.1759C203.41 88.9959 201.44 94.1826 197.96 98.7359C197.843 98.89 197.693 99.0163 197.521 99.106C197.349 99.1957 197.159 99.2466 196.965 99.2552C196.771 99.2637 196.576 99.2298 196.396 99.1556C196.216 99.0815 196.053 98.9689 195.92 98.8259C194.707 97.5126 193.367 95.7393 191.9 93.5059C190.87 91.9559 190.63 90.5459 191.01 88.5959C193.27 77.0559 195.01 66.6959 193.09 55.2959C193.08 55.2325 193.052 55.1734 193.009 55.1253C192.966 55.0773 192.911 55.0424 192.849 55.0246C192.787 55.0068 192.722 55.0069 192.66 55.0248C192.598 55.0427 192.543 55.0778 192.5 55.1259C189.987 57.9126 187.884 60.9859 186.19 64.3459C186.01 64.7126 185.55 65.1393 184.81 65.6259Z" fill="#BBB0A4"/>
<path d="M79.9202 66.3461L81.2202 67.9961C81.2715 68.0584 81.3023 68.1351 81.3082 68.2156C81.3141 68.2961 81.2949 68.3765 81.2532 68.4456C81.2115 68.5147 81.1494 68.5692 81.0754 68.6015C81.0015 68.6339 80.9193 68.6425 80.8402 68.6261L76.2602 67.8061C76.201 67.7953 76.1401 67.8009 76.0839 67.8223C76.0277 67.8437 75.9783 67.88 75.9413 67.9274C75.9042 67.9747 75.8808 68.0313 75.8735 68.091C75.8663 68.1507 75.8755 68.2112 75.9002 68.2661C77.5202 71.7594 79.6835 75.0294 82.3902 78.0761C82.4526 78.1456 82.4906 78.2336 82.4985 78.3267C82.5064 78.4197 82.4838 78.5129 82.4341 78.5919C82.3844 78.671 82.3103 78.7318 82.223 78.765C82.1357 78.7982 82.0399 78.8021 81.9502 78.7761L76.6602 77.1761C76.6033 77.1591 76.5419 77.161 76.4857 77.1814C76.4294 77.2018 76.3815 77.2396 76.3494 77.2888C76.3174 77.3381 76.303 77.396 76.3085 77.4534C76.3141 77.5108 76.3393 77.5645 76.3802 77.6061C79.4269 80.9394 82.8135 83.9394 86.5402 86.6061C86.6724 86.7011 86.8262 86.761 86.9872 86.7803C87.1481 86.7995 87.3109 86.7774 87.4602 86.7161C88.1935 86.4161 88.8468 85.9761 89.4202 85.3961L90.3402 85.2461C90.4051 85.2372 90.471 85.2497 90.5281 85.2818C90.5851 85.3139 90.6301 85.3638 90.6561 85.4239C90.6822 85.4839 90.6879 85.5508 90.6724 85.6144C90.6568 85.678 90.621 85.7348 90.5702 85.7761C82.1302 92.2461 74.1502 100.586 68.3502 106.216C65.1835 109.296 62.6002 112.043 60.6002 114.456C57.2735 118.456 54.8568 121.369 53.3502 123.196C53.2927 123.265 53.2204 123.32 53.1385 123.357C53.0567 123.393 52.9675 123.411 52.8779 123.408C52.7882 123.405 52.7003 123.382 52.621 123.34C52.5417 123.298 52.473 123.239 52.4202 123.166C52.3268 123.033 52.2535 122.766 52.2002 122.366C54.7602 118.646 57.6302 113.776 57.0702 109.086C56.4902 104.166 55.6302 99.6661 55.5102 94.3961C55.2302 82.4827 56.0435 70.6328 57.9502 58.8461C58.5035 59.7794 59.3735 60.3027 60.5602 60.4161C59.9868 65.8294 59.5068 71.2461 59.1202 76.6661C58.6468 83.2394 59.9568 89.7061 63.0502 96.0661C63.5768 97.1528 64.2969 98.1594 65.2102 99.0861C65.3034 99.181 65.4155 99.2553 65.5392 99.3042C65.663 99.353 65.7956 99.3754 65.9285 99.3697C66.0615 99.3641 66.1917 99.3305 66.3109 99.2713C66.43 99.2121 66.5354 99.1286 66.6202 99.0261L72.6002 91.8161C72.6779 91.723 72.7328 91.613 72.7606 91.495C72.7883 91.3769 72.7882 91.254 72.7602 91.1361C69.9602 79.3761 67.9502 66.5261 70.1402 54.9361C70.1527 54.8765 70.1825 54.822 70.2258 54.7793C70.2691 54.7365 70.3241 54.7075 70.3838 54.6958C70.4435 54.684 70.5053 54.6901 70.5616 54.7133C70.6178 54.7365 70.6661 54.7757 70.7002 54.8261L75.2002 61.8361C75.2732 61.949 75.3606 62.0531 75.4602 62.1461L79.9202 66.3461Z" fill="#757579"/>
<path d="M130.36 64.2258L130.53 140.486C130.529 140.652 130.577 140.814 130.668 140.952C130.759 141.091 130.888 141.199 131.041 141.265C131.194 141.331 131.364 141.351 131.529 141.323C131.694 141.294 131.847 141.219 131.97 141.106C135.283 138.026 138.183 135.593 140.67 133.806C141.837 132.966 142.543 131.816 142.79 130.356C143.81 133.696 145.67 136.563 148.37 138.956C148.39 139.996 148.637 140.599 149.11 140.766C152.297 144.486 156.307 146.883 161.14 147.956C160.353 149.989 160.097 152.066 160.37 154.186C158.377 158.586 157.233 163.296 156.94 168.316C156.934 168.412 156.904 168.506 156.851 168.587C156.799 168.668 156.727 168.735 156.642 168.781C156.557 168.827 156.462 168.851 156.366 168.85C156.269 168.849 156.174 168.824 156.09 168.776C154.79 168.016 153.44 164.996 152.39 162.396C150.3 157.236 148.32 153.406 145.28 148.696C145.244 148.644 145.195 148.604 145.137 148.579C145.079 148.555 145.015 148.547 144.953 148.558C144.891 148.568 144.834 148.596 144.787 148.638C144.74 148.681 144.707 148.735 144.69 148.796C144.47 149.663 144.37 150.609 144.39 151.636C144.537 157.629 144.613 163.623 144.62 169.616C144.62 171.223 144.153 171.656 143.22 170.916C139.91 168.406 135.42 167.636 131.4 167.226C131.132 167.199 130.884 167.072 130.703 166.871C130.522 166.67 130.421 166.408 130.42 166.136V142.106C130.42 141.855 130.327 141.613 130.16 141.426L120.66 130.596C120.492 130.401 120.393 130.159 120.38 129.906L120.14 125.376C120.55 117.136 115.39 104.076 104.87 107.956C103.777 108.363 102.993 108.989 102.52 109.836C102.444 109.976 102.416 110.136 102.442 110.292C102.467 110.448 102.544 110.59 102.66 110.696C105.147 112.949 107.277 115.716 109.05 118.996C103.71 115.776 98.2767 115.043 92.7501 116.796C89.4034 117.856 87.5801 120.306 87.2801 124.146C87.2744 124.221 87.2866 124.296 87.3159 124.365C87.3452 124.434 87.3907 124.495 87.4484 124.543C87.5062 124.591 87.5747 124.625 87.648 124.641C87.7214 124.657 87.7975 124.655 87.8701 124.636C88.3967 124.489 89.0234 124.493 89.7501 124.646C89.6434 124.953 89.7134 125.296 89.9601 125.676L87.4701 125.946C87.3174 125.964 87.1725 126.022 87.0496 126.113C86.9268 126.204 86.8304 126.326 86.7701 126.466C85.0434 130.399 85.1767 134.226 87.1701 137.946C90.5034 144.159 95.8034 147.313 103.07 147.406C103.537 149.793 103.617 152.166 103.31 154.526C101.28 155.066 99.1301 156.006 97.2701 156.196C86.1301 157.316 79.5801 147.716 79.5201 137.656C79.521 137.57 79.4987 137.487 79.4556 137.413C79.4124 137.339 79.35 137.278 79.2746 137.237C79.1993 137.195 79.1137 137.174 79.0268 137.175C78.9399 137.177 78.8547 137.201 78.7801 137.246C71.5801 141.593 65.7434 147.329 61.2701 154.456C61.2195 154.53 61.1959 154.619 61.2034 154.709C61.2109 154.798 61.2489 154.882 61.3112 154.947C61.3734 155.011 61.4561 155.052 61.5451 155.063C61.6342 155.074 61.7242 155.054 61.8001 155.006L65.0701 153.126C65.163 153.074 65.2705 153.054 65.3764 153.068C65.4822 153.081 65.5805 153.129 65.6563 153.202C65.7322 153.276 65.7814 153.372 65.7965 153.475C65.8116 153.579 65.7918 153.684 65.7401 153.776C64.3667 156.263 63.4934 159.319 63.1201 162.946C63.1099 163.043 63.122 163.141 63.1555 163.233C63.1891 163.324 63.2432 163.407 63.3136 163.475C63.3841 163.542 63.469 163.593 63.562 163.622C63.655 163.652 63.7535 163.66 63.8501 163.646L65.3801 163.436C65.5035 163.42 65.6293 163.443 65.7393 163.502C65.8494 163.561 65.938 163.652 65.9925 163.764C66.047 163.875 66.0645 164 66.0425 164.121C66.0205 164.241 65.9601 164.352 65.8701 164.436C64.1167 166.129 62.8734 168.116 62.1401 170.396C64.6701 180.866 58.0001 190.426 48.5601 194.356L51.9301 183.986C51.9573 183.899 51.96 183.806 51.9381 183.717C51.9161 183.628 51.8703 183.548 51.8057 183.484C51.7412 183.421 51.6606 183.377 51.573 183.358C51.4854 183.339 51.3944 183.345 51.3101 183.376L45.6201 185.346C45.4535 185.405 45.2745 185.419 45.1008 185.386C44.9272 185.354 44.765 185.277 44.6304 185.163C44.4958 185.049 44.3936 184.901 44.3339 184.735C44.2742 184.569 44.259 184.39 44.2901 184.216C45.1901 178.909 47.0168 174.216 49.7701 170.136C49.8229 170.054 49.8486 169.958 49.8435 169.861C49.8384 169.765 49.8028 169.672 49.7418 169.596C49.6808 169.521 49.5974 169.467 49.5037 169.441C49.41 169.416 49.3107 169.421 49.2201 169.456L43.1101 171.846C42.9976 171.89 42.8753 171.904 42.7558 171.886C42.6363 171.867 42.5239 171.817 42.4301 171.741C42.3364 171.664 42.2648 171.564 42.2226 171.451C42.1804 171.337 42.1691 171.215 42.1901 171.096C42.4501 169.583 42.7201 168.489 43.0001 167.816C45.0001 162.983 47.2334 158.686 49.7001 154.926C49.7845 154.794 49.8258 154.638 49.8184 154.482C49.8111 154.325 49.7553 154.174 49.6589 154.05C49.5625 153.926 49.4301 153.836 49.2799 153.79C49.1297 153.744 48.9691 153.746 48.8201 153.796L41.7601 156.246C41.6486 156.286 41.5278 156.293 41.4124 156.266C41.297 156.239 41.1919 156.178 41.1102 156.093C41.0286 156.007 40.9737 155.899 40.9524 155.782C40.931 155.665 40.9441 155.545 40.9901 155.436L49.0501 135.646C49.0772 135.582 49.0851 135.511 49.0728 135.443C49.0606 135.374 49.0287 135.31 48.981 135.26C48.9334 135.209 48.8721 135.173 48.8045 135.156C48.7368 135.14 48.6658 135.143 48.6001 135.166L44.9301 136.436C44.8094 136.477 44.6789 136.48 44.5564 136.445C44.4338 136.409 44.3252 136.337 44.2454 136.237C44.1655 136.138 44.1184 136.016 44.1102 135.889C44.1021 135.761 44.1335 135.635 44.2001 135.526L52.2001 122.366C52.2534 122.766 52.3267 123.032 52.4201 123.166C52.4729 123.238 52.5416 123.298 52.6209 123.34C52.7002 123.382 52.7881 123.405 52.8778 123.408C52.9674 123.411 53.0566 123.393 53.1384 123.356C53.2203 123.32 53.2926 123.265 53.3501 123.196C54.8567 121.369 57.2734 118.456 60.6001 114.456C62.6001 112.043 65.1834 109.296 68.3501 106.216C74.1501 100.586 82.1301 92.2458 90.5701 85.7758C90.6209 85.7346 90.6567 85.6778 90.6723 85.6142C90.6878 85.5506 90.6821 85.4837 90.656 85.4236C90.63 85.3636 90.585 85.3137 90.528 85.2816C90.4709 85.2495 90.405 85.237 90.3401 85.2458L89.4201 85.3958L91.2801 83.7058L94.4701 80.0359L94.6301 80.9758C94.642 81.0406 94.6693 81.1015 94.7097 81.1535C94.7501 81.2055 94.8025 81.2469 94.8623 81.2744C94.9222 81.3019 94.9877 81.3145 95.0535 81.3113C95.1192 81.308 95.1832 81.2891 95.2401 81.2559C98.0401 79.5759 99.5701 78.5258 102.14 77.3958C104.273 76.4492 106.407 75.1292 108.54 73.4359C109.807 72.4359 110.02 71.1759 109.18 69.6559C108.033 67.5892 106.947 65.5392 105.92 63.5059C109.307 64.1525 112.25 64.4525 114.75 64.4059C119.777 64.3125 124.98 64.2525 130.36 64.2258Z" fill="#949491"/>
<path d="M156.76 63.916L153.19 70.666C152.987 71.0528 152.943 71.504 153.068 71.9228C153.193 72.3416 153.478 72.6946 153.86 72.906C156.727 74.4927 159.657 76.016 162.65 77.476C164.47 78.3627 165.947 77.9394 167.08 76.206C168.4 78.9527 169.944 81.2194 171.71 83.006L176.85 86.866C177.95 88.766 178.704 89.946 179.11 90.406C185.44 97.476 191.14 104.616 198.51 111.196C200.637 113.096 202.137 114.103 203.01 114.216C205.024 114.483 206.05 113.586 206.09 111.526C209.484 119.753 213.857 127.879 219.21 135.906C219.266 135.993 219.293 136.097 219.287 136.2C219.282 136.304 219.244 136.404 219.18 136.484C219.115 136.564 219.027 136.621 218.928 136.647C218.829 136.672 218.725 136.665 218.63 136.626L214.13 134.796C214.052 134.763 213.965 134.755 213.882 134.773C213.798 134.79 213.722 134.833 213.664 134.895C213.605 134.957 213.567 135.035 213.554 135.119C213.541 135.203 213.553 135.289 213.59 135.366C215.2 138.666 217.41 142.336 218.59 146.106C219.597 149.346 220.657 152.619 221.77 155.926C221.804 156.028 221.807 156.138 221.78 156.242C221.753 156.346 221.696 156.439 221.617 156.512C221.538 156.585 221.44 156.633 221.334 156.652C221.228 156.67 221.119 156.658 221.02 156.616L213.98 153.746C213.895 153.713 213.802 153.707 213.714 153.73C213.626 153.752 213.547 153.801 213.488 153.87C213.428 153.939 213.392 154.025 213.384 154.116C213.375 154.206 213.395 154.297 213.44 154.376C216.607 159.649 219.17 165.263 221.13 171.216C221.17 171.341 221.175 171.474 221.144 171.602C221.112 171.729 221.046 171.845 220.953 171.937C220.86 172.029 220.743 172.094 220.616 172.124C220.488 172.153 220.355 172.147 220.23 172.106L213.83 169.886C213.72 169.847 213.601 169.843 213.488 169.875C213.376 169.907 213.276 169.973 213.203 170.065C213.13 170.156 213.088 170.268 213.082 170.385C213.076 170.502 213.107 170.618 213.17 170.716C215.917 174.996 217.654 179.603 218.38 184.536C218.397 184.642 218.386 184.751 218.348 184.851C218.31 184.952 218.246 185.04 218.164 185.109C218.081 185.178 217.982 185.223 217.876 185.242C217.77 185.261 217.662 185.252 217.56 185.216L212.39 183.426C212.283 183.387 212.166 183.379 212.055 183.403C211.943 183.428 211.84 183.484 211.759 183.565C211.678 183.646 211.622 183.748 211.598 183.86C211.573 183.972 211.581 184.089 211.62 184.196L219.99 208.416C220.043 208.566 220.047 208.728 220 208.88C219.954 209.032 219.859 209.164 219.732 209.259C219.604 209.353 219.449 209.403 219.291 209.403C219.132 209.402 218.978 209.351 218.85 209.256L215.09 206.506C214.996 206.439 214.883 206.404 214.767 206.405C214.652 206.407 214.54 206.444 214.447 206.513C214.354 206.582 214.285 206.678 214.249 206.788C214.214 206.898 214.215 207.016 214.25 207.126C215.89 212.039 216.847 217.226 217.12 222.686C217.207 224.513 217.654 226.509 218.46 228.676C218.1 229.529 217.54 230.269 216.78 230.896C205.214 240.403 192.054 247.826 177.3 253.166C164.894 257.659 153.274 259.973 142.44 260.106C141.956 260.113 141.475 260.187 141.01 260.326C138.544 261.046 136.45 260.989 134.73 260.156C136.064 258.336 137.254 256.836 138.3 255.656C141.727 251.776 147.204 245.499 154.73 236.826C156.28 235.046 157.12 233.446 158.6 230.986C158.649 230.904 158.723 230.84 158.812 230.805C158.9 230.77 158.998 230.765 159.089 230.792C159.181 230.818 159.261 230.874 159.317 230.951C159.374 231.027 159.403 231.121 159.4 231.216L159.39 234.586C159.389 234.645 159.406 234.703 159.439 234.751C159.472 234.8 159.52 234.836 159.575 234.856C159.631 234.876 159.691 234.878 159.747 234.862C159.804 234.846 159.854 234.812 159.89 234.766C165.304 228.339 168.59 224.299 169.75 222.646C171.83 219.676 173.31 214.706 175.06 211.006C176 209.026 176.724 207.483 177.23 206.376C177.264 206.296 177.325 206.23 177.401 206.189C177.478 206.148 177.567 206.134 177.652 206.151C177.738 206.167 177.815 206.212 177.871 206.279C177.927 206.345 177.959 206.429 177.96 206.516L178.28 212.626C178.286 212.747 178.333 212.862 178.414 212.951C178.494 213.041 178.604 213.1 178.724 213.118C178.843 213.135 178.965 213.111 179.068 213.049C179.172 212.986 179.25 212.89 179.29 212.776C181.23 207.476 183.237 203.036 185.31 199.456C186.917 196.683 187.76 194.509 187.84 192.936C188.09 188.106 187.27 183.856 186.05 178.836C186.037 178.775 186.043 178.712 186.066 178.654C186.089 178.596 186.13 178.547 186.181 178.513C186.233 178.478 186.294 178.46 186.356 178.461C186.419 178.461 186.479 178.48 186.53 178.516C188.564 179.989 190.067 181.633 191.04 183.446C191.08 183.522 191.145 183.582 191.225 183.615C191.304 183.648 191.393 183.653 191.474 183.627C191.555 183.602 191.624 183.548 191.667 183.476C191.71 183.405 191.726 183.319 191.71 183.236L191.07 178.716C191.062 178.659 191.065 178.6 191.08 178.544C191.095 178.488 191.121 178.436 191.156 178.39C191.191 178.344 191.236 178.306 191.286 178.278C191.337 178.25 191.393 178.232 191.45 178.226C192.657 178.079 193.64 178.593 194.4 179.766C194.419 179.796 194.444 179.822 194.472 179.842C194.501 179.862 194.533 179.876 194.566 179.884C194.6 179.891 194.634 179.892 194.668 179.885C194.701 179.879 194.733 179.865 194.76 179.846L195.03 179.656C195.114 179.601 195.172 179.514 195.192 179.413C195.213 179.313 195.194 179.206 195.14 179.116C194.62 178.269 194.3 177.496 194.18 176.796C194.168 176.72 194.179 176.643 194.211 176.573C194.243 176.503 194.294 176.444 194.359 176.404C194.424 176.363 194.5 176.343 194.577 176.345C194.653 176.347 194.728 176.372 194.79 176.416L196.21 177.456C196.341 177.548 196.498 177.597 196.658 177.595C196.818 177.594 196.973 177.541 197.102 177.446C197.23 177.351 197.325 177.217 197.374 177.065C197.422 176.912 197.421 176.748 197.37 176.596L196.71 174.686C196.638 174.478 196.632 174.248 196.69 174.026C196.93 173.193 196.767 172.319 196.2 171.406C196.144 171.315 196.112 171.212 196.106 171.105C196.1 170.999 196.121 170.893 196.167 170.796C196.213 170.7 196.282 170.616 196.368 170.553C196.454 170.491 196.555 170.45 196.66 170.436L200.73 169.866C200.803 169.857 200.871 169.826 200.927 169.778C200.982 169.73 201.022 169.667 201.041 169.596C201.061 169.526 201.058 169.451 201.035 169.381C201.012 169.312 200.968 169.251 200.91 169.206C199.85 168.393 198.914 167.033 198.1 165.126C198.06 165.034 198.046 164.933 198.059 164.833C198.072 164.734 198.113 164.64 198.175 164.561C198.238 164.483 198.321 164.424 198.416 164.389C198.51 164.355 198.612 164.347 198.71 164.366L200.41 164.666C200.542 164.689 200.678 164.677 200.805 164.631C200.931 164.586 201.043 164.509 201.13 164.408C201.217 164.307 201.275 164.186 201.3 164.055C201.325 163.925 201.314 163.791 201.27 163.666L197.68 153.276C197.645 153.166 197.644 153.048 197.679 152.938C197.715 152.828 197.784 152.732 197.877 152.663C197.97 152.594 198.082 152.557 198.197 152.555C198.313 152.554 198.426 152.589 198.52 152.656L200.08 153.796C200.171 153.861 200.282 153.893 200.395 153.887C200.507 153.881 200.614 153.838 200.697 153.764C200.78 153.69 200.835 153.59 200.852 153.481C200.869 153.373 200.847 153.261 200.79 153.166C196.98 146.676 190.37 141.156 184.05 137.276C183.992 137.24 183.926 137.22 183.858 137.218C183.789 137.216 183.722 137.232 183.66 137.264C183.599 137.296 183.547 137.343 183.508 137.401C183.47 137.46 183.447 137.527 183.44 137.596C182.55 148.636 176.51 159.036 163.47 155.326L160.37 154.186C160.097 152.066 160.354 149.989 161.14 147.956C168.247 147.063 173.154 143.513 175.86 137.306C177.114 134.433 177.724 131.396 177.69 128.196C177.688 127.94 177.602 127.692 177.444 127.489C177.287 127.287 177.068 127.142 176.82 127.076L171.77 125.756C172.11 125.743 172.414 125.703 172.68 125.636C173.12 125.536 173.284 125.339 173.17 125.046C173.09 124.833 172.84 124.649 172.42 124.496L176.05 125.046C176.119 125.056 176.188 125.05 176.254 125.028C176.32 125.007 176.379 124.97 176.429 124.922C176.478 124.874 176.516 124.814 176.538 124.749C176.561 124.684 176.569 124.615 176.56 124.546C176.194 121.759 174.914 119.486 172.72 117.726C172.376 117.448 171.987 117.228 171.57 117.076C165.91 114.996 158.86 114.656 154.19 119.456C154.108 119.554 153.99 119.616 153.863 119.627C153.735 119.638 153.609 119.598 153.51 119.516C153.412 119.434 153.351 119.316 153.34 119.188C153.328 119.061 153.368 118.934 153.45 118.836L159.93 109.996C159.963 109.952 159.986 109.902 159.998 109.849C160.011 109.795 160.012 109.74 160.001 109.685C159.991 109.631 159.97 109.579 159.939 109.533C159.907 109.486 159.867 109.447 159.82 109.416C152.3 104.356 144.47 108.726 142.57 116.936C141.537 121.403 141.61 125.876 142.79 130.356C142.544 131.816 141.837 132.966 140.67 133.806C138.184 135.593 135.284 138.026 131.97 141.106C131.847 141.219 131.694 141.295 131.529 141.323C131.364 141.351 131.195 141.331 131.042 141.265C130.889 141.2 130.759 141.091 130.668 140.952C130.577 140.814 130.529 140.652 130.53 140.486L130.36 64.226L156.76 63.916Z" fill="#757579"/>
<path d="M184.81 65.6261C183.797 66.3128 182.933 67.1227 182.22 68.0561C182.181 68.107 182.158 68.1689 182.156 68.2331C182.153 68.2974 182.171 68.3608 182.206 68.4146C182.241 68.4685 182.292 68.51 182.352 68.5336C182.412 68.5571 182.478 68.5615 182.54 68.5461L187.89 67.0761C187.941 67.0621 187.995 67.0641 188.044 67.0816C188.094 67.0991 188.137 67.1312 188.167 67.1735C188.197 67.2157 188.213 67.2658 188.211 67.3165C188.21 67.3673 188.192 67.4162 188.16 67.4561L180.97 77.2761C180.912 77.3567 180.881 77.4536 180.882 77.5529C180.882 77.6522 180.914 77.7487 180.973 77.8286C181.032 77.9086 181.115 77.9678 181.209 77.9979C181.304 78.028 181.406 78.0274 181.5 77.9961L187.28 76.0061C187.331 75.9887 187.387 75.9878 187.439 76.0036C187.491 76.0193 187.536 76.0508 187.569 76.0938C187.602 76.1368 187.621 76.1891 187.623 76.2433C187.625 76.2975 187.61 76.3509 187.58 76.3961C184.73 80.4161 180.49 83.5061 176.85 86.8661L171.71 83.0061L174.77 67.1661C174.875 66.6234 175.146 66.1273 175.546 65.7472C175.946 65.367 176.454 65.1219 177 65.0461L184.09 64.0461C184.263 64.0221 184.439 64.0648 184.58 64.1654C184.722 64.266 184.818 64.4166 184.85 64.5861C184.91 64.9061 184.897 65.2528 184.81 65.6261Z" fill="#DCD5C9"/>
<path d="M91.2802 83.706L89.4201 85.396C88.8468 85.976 88.1935 86.416 87.4602 86.716C87.3109 86.7773 87.1481 86.7994 86.9871 86.7802C86.8262 86.7609 86.6723 86.701 86.5401 86.606C82.8134 83.9393 79.4268 80.9393 76.3801 77.606C76.3393 77.5644 76.3141 77.5107 76.3085 77.4533C76.3029 77.3959 76.3173 77.338 76.3494 77.2887C76.3814 77.2395 76.4294 77.2017 76.4856 77.1813C76.5419 77.1609 76.6033 77.159 76.6601 77.176L81.9502 78.776C82.0399 78.802 82.1356 78.7981 82.2229 78.7649C82.3102 78.7317 82.3843 78.6709 82.434 78.5918C82.4837 78.5128 82.5063 78.4196 82.4984 78.3266C82.4905 78.2335 82.4525 78.1455 82.3902 78.076C79.6835 75.0293 77.5202 71.7593 75.9002 68.266C75.8755 68.2111 75.8662 68.1506 75.8735 68.0909C75.8807 68.0312 75.9042 67.9746 75.9412 67.9273C75.9783 67.8799 76.0276 67.8436 76.0838 67.8222C76.14 67.8008 76.201 67.7952 76.2601 67.806L80.8402 68.626C80.9192 68.6424 81.0014 68.6338 81.0754 68.6014C81.1494 68.5691 81.2115 68.5146 81.2532 68.4455C81.2949 68.3764 81.3141 68.296 81.3082 68.2155C81.3023 68.135 81.2715 68.0583 81.2201 67.996L79.9201 66.346C85.0468 64.646 88.3835 66.186 89.9301 70.966C91.2101 74.906 91.6602 79.1526 91.2802 83.706Z" fill="#DCD5C9"/>
<path d="M120.14 125.376C119.954 128.703 119.307 131.516 118.2 133.816C117.314 135.669 115.704 136.376 113.37 135.936C112.944 132.889 111.914 129.966 110.28 127.166C110.954 124.099 110.544 121.376 109.05 118.996C107.277 115.716 105.147 112.949 102.66 110.696C102.544 110.59 102.467 110.448 102.442 110.292C102.416 110.136 102.444 109.976 102.52 109.836C102.994 108.989 103.777 108.363 104.87 107.956C115.39 104.076 120.55 117.136 120.14 125.376Z" fill="#F5EDE2"/>
<path d="M172.42 124.496C168.73 123.696 164.5 122.096 161.03 122.446C152.25 123.336 149.52 130.666 148.37 138.956C145.67 136.563 143.81 133.696 142.79 130.356C141.61 125.876 141.537 121.403 142.57 116.936C144.47 108.726 152.3 104.356 159.82 109.416C159.867 109.447 159.907 109.486 159.939 109.533C159.97 109.579 159.991 109.631 160.001 109.685C160.012 109.74 160.011 109.795 159.998 109.849C159.986 109.902 159.963 109.952 159.93 109.996L153.45 118.836C153.368 118.934 153.328 119.061 153.34 119.188C153.351 119.316 153.412 119.434 153.51 119.516C153.608 119.598 153.735 119.638 153.863 119.627C153.99 119.616 154.108 119.554 154.19 119.456C158.86 114.656 165.91 114.996 171.57 117.076C171.987 117.228 172.376 117.448 172.72 117.726C174.914 119.486 176.194 121.759 176.56 124.546C176.569 124.615 176.561 124.684 176.538 124.749C176.516 124.814 176.478 124.874 176.429 124.922C176.379 124.97 176.32 125.007 176.254 125.028C176.188 125.05 176.119 125.056 176.05 125.046L172.42 124.496Z" fill="#C3BEBA"/>
<path d="M109.05 118.996C110.543 121.376 110.953 124.099 110.28 127.166C105.02 120.496 96.6997 122.516 89.7497 124.646C89.023 124.493 88.3963 124.489 87.8697 124.636C87.7971 124.655 87.721 124.657 87.6476 124.641C87.5743 124.625 87.5058 124.591 87.448 124.543C87.3903 124.495 87.3448 124.434 87.3155 124.365C87.2862 124.296 87.274 124.221 87.2797 124.146C87.5797 120.306 89.403 117.856 92.7497 116.796C98.2763 115.043 103.71 115.776 109.05 118.996Z" fill="#DCD5C9"/>
<path d="M172.42 124.496C172.84 124.649 173.09 124.832 173.17 125.046C173.283 125.339 173.12 125.536 172.68 125.636C172.413 125.702 172.11 125.742 171.77 125.756C171.143 125.929 170.743 126.162 170.57 126.456C168.13 130.596 166.38 133.756 162.39 135.006C157.43 136.556 153.27 135.936 149.11 140.766C148.637 140.599 148.39 139.996 148.37 138.956C149.52 130.666 152.25 123.336 161.03 122.446C164.5 122.096 168.73 123.696 172.42 124.496ZM156.07 126.196C152.17 128.216 154.57 131.266 157.14 132.616C162.04 135.206 166.56 129.316 164.02 124.936C163.888 124.714 163.691 124.539 163.455 124.434C163.219 124.329 162.957 124.299 162.704 124.35C162.452 124.401 162.223 124.529 162.048 124.716C161.873 124.904 161.762 125.141 161.73 125.396L161.22 129.226C161.185 129.493 161.082 129.746 160.921 129.962C160.76 130.178 160.547 130.348 160.302 130.458C160.057 130.567 159.788 130.612 159.522 130.587C159.255 130.562 159 130.469 158.78 130.316C157.453 129.396 156.757 128.142 156.69 126.556C156.688 126.485 156.669 126.416 156.632 126.355C156.596 126.295 156.545 126.244 156.483 126.208C156.421 126.172 156.351 126.152 156.279 126.15C156.207 126.148 156.135 126.164 156.07 126.196Z" fill="#301A15"/>
<path d="M110.28 127.166C111.914 129.966 112.944 132.889 113.37 135.936C113.604 137.709 113.654 139.353 113.52 140.866C113.487 141.206 113.204 141.309 112.67 141.176L108.7 137.106C108.471 136.877 108.185 136.715 107.87 136.636C104.96 135.956 100.88 135.676 98.5305 134.296C95.9505 132.786 94.2404 129.986 92.9204 127.416C92.7367 127.055 92.4646 126.749 92.1305 126.526C91.4638 126.093 90.7405 125.809 89.9605 125.676C89.7138 125.296 89.6438 124.953 89.7504 124.646C96.7004 122.516 105.02 120.496 110.28 127.166ZM103.27 130.096C101.724 130.256 101.214 128.816 101.74 125.776C101.771 125.599 101.755 125.418 101.694 125.249C101.633 125.081 101.53 124.931 101.395 124.815C101.26 124.699 101.097 124.62 100.922 124.587C100.748 124.554 100.568 124.567 100.4 124.626L99.3205 124.996C98.8642 125.153 98.4741 125.459 98.2129 125.863C97.9517 126.268 97.8346 126.748 97.8805 127.226C98.2671 131.399 99.9838 133.429 103.03 133.316C106.59 133.186 109.88 130.726 107.99 126.666C107.898 126.464 107.746 126.294 107.555 126.18C107.364 126.066 107.143 126.012 106.921 126.026C106.699 126.04 106.486 126.121 106.311 126.259C106.136 126.396 106.007 126.584 105.94 126.796C105.44 128.326 105.29 129.876 103.27 130.096Z" fill="#2C292D"/>
<path d="M156.07 126.196C156.135 126.164 156.206 126.148 156.278 126.15C156.351 126.152 156.421 126.172 156.483 126.208C156.544 126.244 156.596 126.295 156.632 126.356C156.668 126.416 156.688 126.485 156.69 126.556C156.756 128.143 157.453 129.396 158.78 130.316C159 130.469 159.255 130.562 159.521 130.587C159.788 130.612 160.056 130.567 160.301 130.458C160.546 130.348 160.76 130.178 160.92 129.962C161.081 129.746 161.184 129.493 161.22 129.226L161.73 125.396C161.762 125.141 161.873 124.904 162.048 124.716C162.222 124.529 162.452 124.401 162.704 124.35C162.956 124.3 163.219 124.329 163.454 124.434C163.69 124.539 163.888 124.714 164.02 124.936C166.56 129.316 162.04 135.206 157.14 132.616C154.57 131.266 152.17 128.216 156.07 126.196Z" fill="#BBB0A4"/>
<path d="M103.27 130.096C105.29 129.876 105.44 128.326 105.94 126.796C106.006 126.583 106.135 126.396 106.31 126.259C106.485 126.121 106.698 126.04 106.92 126.026C107.142 126.012 107.363 126.066 107.554 126.18C107.745 126.294 107.897 126.464 107.99 126.666C109.88 130.726 106.59 133.186 103.03 133.316C99.9832 133.429 98.2665 131.399 97.8798 127.226C97.834 126.748 97.9511 126.268 98.2123 125.863C98.4735 125.459 98.8636 125.153 99.3198 124.996L100.4 124.626C100.568 124.567 100.747 124.554 100.922 124.587C101.096 124.62 101.259 124.699 101.395 124.815C101.53 124.931 101.633 125.081 101.693 125.249C101.754 125.418 101.77 125.599 101.74 125.776C101.213 128.816 101.723 130.256 103.27 130.096Z" fill="#C3BEBA"/>
<path d="M120.14 125.376L120.38 129.906C120.393 130.159 120.492 130.402 120.66 130.596L130.16 141.426C130.328 141.613 130.42 141.855 130.42 142.106V166.136C130.421 166.408 130.522 166.67 130.703 166.871C130.884 167.072 131.132 167.199 131.4 167.226C135.42 167.636 139.91 168.406 143.22 170.916C143.007 170.983 142.82 170.979 142.66 170.906C139.874 169.426 137.69 168.619 136.11 168.486C134.25 168.326 132.724 168.159 131.53 167.986C126.31 167.196 121.5 168.296 117.46 171.566C117.397 171.616 117.321 171.647 117.24 171.655C117.16 171.662 117.079 171.647 117.008 171.61C116.936 171.573 116.876 171.516 116.836 171.446C116.796 171.377 116.776 171.297 116.78 171.216L118.05 147.836C118.051 147.782 118.037 147.729 118.009 147.683C117.981 147.638 117.94 147.601 117.891 147.578C117.843 147.555 117.788 147.546 117.735 147.553C117.682 147.559 117.632 147.581 117.59 147.616C116.63 148.416 115.7 149.606 114.8 151.186C111.7 156.586 109.214 161.969 107.34 167.336C107.288 167.48 107.19 167.603 107.061 167.687C106.932 167.771 106.78 167.811 106.627 167.801C106.473 167.791 106.328 167.731 106.211 167.631C106.095 167.531 106.014 167.396 105.98 167.246L103.31 154.526C103.617 152.166 103.537 149.793 103.07 147.406C106.65 146.399 109.854 144.586 112.68 141.966C112.814 141.846 112.874 141.716 112.86 141.576C112.847 141.423 112.784 141.289 112.67 141.176C113.204 141.309 113.487 141.206 113.52 140.866C113.654 139.353 113.604 137.709 113.37 135.936C115.704 136.376 117.314 135.669 118.2 133.816C119.307 131.516 119.954 128.703 120.14 125.376Z" fill="#BBB0A4"/>
<path d="M89.9605 125.676C90.7405 125.809 91.4639 126.093 92.1305 126.526C92.4647 126.749 92.7367 127.055 92.9205 127.416C94.2405 129.986 95.9506 132.786 98.5306 134.296C100.881 135.676 104.961 135.956 107.871 136.636C108.185 136.715 108.471 136.877 108.701 137.106L112.671 141.176C112.784 141.289 112.847 141.423 112.861 141.576C112.874 141.716 112.814 141.846 112.681 141.966C109.854 144.586 106.651 146.399 103.071 147.406C95.8039 147.313 90.5038 144.159 87.1705 137.946C85.1772 134.226 85.0439 130.399 86.7705 126.466C86.8309 126.326 86.9273 126.205 87.0501 126.113C87.1729 126.022 87.3178 125.964 87.4705 125.946L89.9605 125.676Z" fill="#F5EDE2"/>
<path d="M171.77 125.756L176.82 127.076C177.068 127.142 177.287 127.287 177.444 127.489C177.602 127.691 177.688 127.94 177.69 128.196C177.724 131.396 177.114 134.433 175.86 137.306C173.154 143.513 168.247 147.063 161.14 147.956C156.307 146.883 152.297 144.486 149.11 140.766C153.27 135.936 157.43 136.556 162.39 135.006C166.38 133.756 168.13 130.596 170.57 126.456C170.744 126.163 171.144 125.929 171.77 125.756Z" fill="#C3BEBA"/>
<path d="M103.31 154.526L105.98 167.246C106.013 167.396 106.094 167.531 106.211 167.631C106.327 167.731 106.473 167.79 106.626 167.801C106.78 167.811 106.932 167.771 107.061 167.687C107.189 167.603 107.288 167.48 107.34 167.336C109.214 161.969 111.7 156.586 114.8 151.186C115.7 149.606 116.63 148.416 117.59 147.616C117.631 147.581 117.682 147.559 117.735 147.553C117.788 147.546 117.843 147.554 117.891 147.578C117.94 147.601 117.98 147.638 118.009 147.683C118.037 147.729 118.051 147.782 118.05 147.836L116.78 171.216C116.776 171.296 116.796 171.376 116.836 171.446C116.876 171.516 116.936 171.573 117.007 171.61C117.079 171.647 117.16 171.662 117.24 171.654C117.321 171.647 117.397 171.616 117.46 171.566C121.5 168.296 126.31 167.196 131.53 167.986C132.724 168.159 134.25 168.326 136.11 168.486C137.69 168.619 139.874 169.426 142.66 170.906C144.36 173.026 146.15 175.586 145.19 178.226C143.23 171.536 125.42 171.476 120.17 174.266C118.144 175.339 117.017 176.419 116.79 177.506C114.784 186.946 118.164 193.136 126.93 196.076C127.73 197.043 127.624 198.076 126.61 199.176C124.304 199.996 121.847 200.573 119.24 200.906C108.6 202.256 104.01 190.216 101.1 182.316C101.041 182.155 100.943 182.011 100.816 181.895C100.689 181.78 100.537 181.697 100.371 181.654C100.206 181.611 100.033 181.608 99.8676 181.647C99.7019 181.685 99.5484 181.764 99.4202 181.876L99.3902 181.896C99.0624 182.176 98.8262 182.549 98.7121 182.966C98.5981 183.383 98.6113 183.825 98.7502 184.236C100.557 189.543 103.507 194.256 107.6 198.376C112.97 203.776 123.96 205.146 130.76 205.356L130.95 206.706C123.917 207.333 117.07 205.953 110.41 202.566C110.28 202.503 110.132 202.486 109.991 202.518C109.849 202.55 109.723 202.629 109.634 202.742C109.544 202.855 109.497 202.995 109.5 203.137C109.503 203.28 109.556 203.417 109.65 203.526L111.03 205.126C111.157 205.279 111.267 205.44 111.36 205.606C115.69 213.446 120.27 217.506 127.33 224.006C129.624 226.106 130.774 228.723 130.78 231.856C130.814 241.423 130.847 249.843 130.88 257.116C130.894 258.936 130.39 260.049 129.37 260.456L128.79 260.066C128.481 259.868 128.218 259.605 128.02 259.296C123.64 252.526 118 248.336 112.41 242.386C107.16 236.806 99.1302 230.296 95.0802 224.636C90.9402 218.866 89.1202 213.786 87.0502 206.996C87.0094 206.861 86.9447 206.736 86.8595 206.626C86.7744 206.516 86.6706 206.425 86.5543 206.357C86.438 206.289 86.3114 206.246 86.1819 206.23C86.0524 206.215 85.9227 206.227 85.8002 206.266C85.5869 206.333 85.4435 206.583 85.3702 207.016C84.9902 209.229 84.8336 211.136 84.9002 212.736C84.9057 212.856 84.8688 212.973 84.796 213.069C84.7233 213.164 84.6194 213.231 84.5025 213.257C84.3855 213.283 84.263 213.267 84.1566 213.212C84.0501 213.157 83.9664 213.066 83.9202 212.956C81.7735 207.876 80.0935 202.176 78.8802 195.856C78.8625 195.766 78.818 195.684 78.7525 195.62C78.687 195.557 78.6037 195.514 78.5136 195.499C78.4235 195.484 78.3309 195.497 78.2481 195.535C78.1654 195.574 78.0963 195.637 78.0502 195.716L76.1302 199.056C76.0929 199.119 76.0366 199.17 75.9691 199.199C75.9017 199.229 75.8266 199.237 75.7545 199.221C75.6825 199.206 75.6172 199.168 75.568 199.113C75.5187 199.058 75.488 198.989 75.4802 198.916C74.7668 191.729 75.0968 185.156 76.4702 179.196C76.4979 179.089 76.4882 178.977 76.4428 178.876C76.3973 178.776 76.3188 178.695 76.2204 178.646C76.1219 178.596 76.0096 178.582 75.9022 178.606C75.7947 178.63 75.6987 178.69 75.6302 178.776L71.8702 183.316C71.7534 183.459 71.5957 183.562 71.4182 183.611C71.2407 183.66 71.052 183.653 70.8776 183.591C70.7032 183.529 70.5514 183.415 70.4428 183.263C70.3342 183.112 70.274 182.932 70.2702 182.746C70.2502 181.246 70.7469 179.676 71.7602 178.036C71.8245 177.93 71.8567 177.807 71.8527 177.683C71.8487 177.56 71.8088 177.439 71.7378 177.338C71.6668 177.236 71.5679 177.157 71.4529 177.111C71.3379 177.064 71.2119 177.052 71.0902 177.076L67.5602 177.776C67.3284 177.822 67.0889 177.811 66.8624 177.743C66.636 177.676 66.4295 177.554 66.2609 177.388C66.0923 177.222 65.9667 177.018 65.8952 176.793C65.8236 176.568 65.8081 176.328 65.8502 176.096C66.1568 174.376 66.8535 172.563 67.9402 170.656C67.9844 170.578 68.0064 170.49 68.0039 170.4C68.0014 170.311 67.9745 170.224 67.9261 170.149C67.8777 170.073 67.8096 170.013 67.7293 169.974C67.6489 169.934 67.5593 169.918 67.4702 169.926L62.1402 170.396C62.8735 168.116 64.1169 166.129 65.8702 164.436C65.9602 164.352 66.0206 164.241 66.0426 164.121C66.0646 164 66.0471 163.875 65.9926 163.764C65.9382 163.652 65.8495 163.561 65.7395 163.502C65.6294 163.443 65.5036 163.42 65.3802 163.436L63.8502 163.646C63.7536 163.66 63.6551 163.652 63.5622 163.622C63.4692 163.593 63.3842 163.542 63.3137 163.475C63.2433 163.407 63.1892 163.324 63.1557 163.233C63.1221 163.141 63.11 163.043 63.1202 162.946C63.4935 159.319 64.3669 156.263 65.7402 153.776C65.7919 153.684 65.8118 153.579 65.7966 153.475C65.7815 153.372 65.7323 153.276 65.6565 153.202C65.5806 153.129 65.4823 153.081 65.3765 153.068C65.2707 153.054 65.1631 153.074 65.0702 153.126L61.8002 155.006C61.7243 155.054 61.6343 155.074 61.5452 155.063C61.4562 155.052 61.3735 155.011 61.3113 154.947C61.249 154.882 61.211 154.798 61.2035 154.709C61.196 154.619 61.2196 154.53 61.2702 154.456C65.7436 147.329 71.5802 141.593 78.7802 137.246C78.8549 137.201 78.94 137.177 79.0269 137.175C79.1138 137.174 79.1994 137.195 79.2747 137.237C79.3501 137.278 79.4126 137.339 79.4557 137.413C79.4989 137.487 79.5211 137.57 79.5202 137.656C79.5802 147.716 86.1302 157.316 97.2702 156.196C99.1302 156.006 101.28 155.066 103.31 154.526Z" fill="#F5EDE2"/>
<path d="M134.73 260.156L129.31 260.536C129.33 260.509 129.35 260.483 129.37 260.456C130.39 260.049 130.893 258.936 130.88 257.116C130.847 249.843 130.813 241.423 130.78 231.856C130.773 228.723 129.623 226.106 127.33 224.006C120.27 217.506 115.69 213.446 111.36 205.606C111.267 205.44 111.157 205.279 111.03 205.126L109.65 203.526C109.556 203.418 109.503 203.28 109.5 203.138C109.497 202.995 109.544 202.855 109.634 202.742C109.723 202.629 109.849 202.55 109.99 202.518C110.132 202.486 110.28 202.503 110.41 202.566C117.07 205.953 123.917 207.333 130.95 206.706C137.463 207.019 143.66 205.899 149.54 203.346C151.707 202.406 154.25 201.309 157.17 200.056C157.464 199.925 157.714 199.71 157.89 199.436C161.197 194.223 163.88 188.689 165.94 182.836C166.052 182.528 166.083 182.194 166.03 181.866C164.703 173.086 163.85 164.239 163.47 155.326C176.51 159.036 182.55 148.636 183.44 137.596C183.446 137.527 183.47 137.46 183.508 137.401C183.547 137.343 183.599 137.296 183.66 137.264C183.721 137.232 183.789 137.216 183.857 137.218C183.926 137.22 183.992 137.24 184.05 137.276C190.37 141.156 196.98 146.676 200.79 153.166C200.847 153.261 200.869 153.373 200.852 153.481C200.835 153.59 200.78 153.69 200.697 153.764C200.613 153.838 200.507 153.881 200.394 153.887C200.282 153.893 200.171 153.861 200.08 153.796L198.52 152.656C198.426 152.589 198.313 152.554 198.197 152.555C198.082 152.557 197.969 152.594 197.876 152.663C197.783 152.732 197.714 152.828 197.679 152.938C197.644 153.048 197.644 153.166 197.68 153.276L201.27 163.666C201.314 163.791 201.324 163.925 201.3 164.055C201.275 164.186 201.216 164.307 201.129 164.408C201.042 164.509 200.93 164.586 200.804 164.631C200.678 164.677 200.542 164.689 200.41 164.666L198.71 164.366C198.612 164.347 198.51 164.355 198.415 164.389C198.321 164.424 198.238 164.483 198.175 164.561C198.112 164.64 198.072 164.734 198.059 164.833C198.046 164.933 198.06 165.034 198.1 165.126C198.913 167.033 199.85 168.393 200.91 169.206C200.968 169.251 201.012 169.312 201.035 169.381C201.058 169.451 201.06 169.526 201.041 169.596C201.022 169.667 200.982 169.73 200.926 169.778C200.871 169.826 200.803 169.857 200.73 169.866L196.66 170.436C196.554 170.45 196.454 170.491 196.368 170.553C196.282 170.616 196.212 170.7 196.167 170.796C196.121 170.893 196.1 170.999 196.106 171.105C196.112 171.212 196.144 171.315 196.2 171.406C196.767 172.319 196.93 173.193 196.69 174.026C196.631 174.248 196.638 174.478 196.71 174.686L197.37 176.596C197.42 176.748 197.422 176.912 197.373 177.065C197.325 177.217 197.23 177.351 197.101 177.446C196.973 177.541 196.817 177.594 196.657 177.595C196.497 177.597 196.341 177.548 196.21 177.456L194.79 176.416C194.727 176.372 194.653 176.347 194.576 176.345C194.5 176.343 194.424 176.363 194.359 176.404C194.294 176.444 194.242 176.503 194.21 176.573C194.179 176.643 194.168 176.72 194.18 176.796C194.3 177.496 194.62 178.269 195.14 179.116C195.194 179.206 195.212 179.313 195.192 179.413C195.171 179.514 195.113 179.601 195.03 179.656L194.76 179.846C194.732 179.865 194.701 179.879 194.668 179.885C194.634 179.892 194.6 179.891 194.566 179.884C194.532 179.876 194.5 179.862 194.472 179.842C194.443 179.822 194.419 179.796 194.4 179.766C193.64 178.593 192.657 178.079 191.45 178.226C191.393 178.232 191.337 178.25 191.286 178.278C191.236 178.306 191.191 178.344 191.156 178.39C191.12 178.436 191.094 178.488 191.08 178.544C191.065 178.6 191.062 178.659 191.07 178.716L191.71 183.236C191.726 183.319 191.71 183.405 191.667 183.476C191.623 183.548 191.555 183.602 191.474 183.627C191.393 183.653 191.304 183.648 191.225 183.615C191.145 183.582 191.079 183.522 191.04 183.446C190.067 181.633 188.563 179.989 186.53 178.516C186.479 178.48 186.418 178.461 186.356 178.461C186.294 178.46 186.233 178.478 186.181 178.513C186.129 178.547 186.089 178.596 186.066 178.654C186.042 178.712 186.037 178.775 186.05 178.836C187.27 183.856 188.09 188.106 187.84 192.936C187.76 194.509 186.917 196.683 185.31 199.456C183.237 203.036 181.23 207.476 179.29 212.776C179.25 212.89 179.171 212.986 179.068 213.049C178.965 213.111 178.843 213.135 178.723 213.118C178.604 213.1 178.494 213.041 178.413 212.951C178.332 212.862 178.285 212.747 178.28 212.626L177.96 206.516C177.958 206.429 177.927 206.345 177.871 206.279C177.814 206.212 177.737 206.167 177.652 206.151C177.566 206.134 177.478 206.148 177.401 206.189C177.324 206.23 177.264 206.296 177.23 206.376C176.723 207.483 176 209.026 175.06 211.006C173.31 214.706 171.83 219.676 169.75 222.646C168.59 224.299 165.303 228.339 159.89 234.766C159.854 234.812 159.804 234.846 159.747 234.862C159.691 234.878 159.63 234.876 159.575 234.856C159.52 234.836 159.472 234.8 159.439 234.751C159.406 234.703 159.389 234.645 159.39 234.586L159.4 231.216C159.403 231.121 159.373 231.028 159.317 230.951C159.261 230.874 159.181 230.818 159.089 230.792C158.997 230.765 158.9 230.77 158.811 230.805C158.723 230.84 158.649 230.904 158.6 230.986C157.12 233.446 156.28 235.046 154.73 236.826C147.203 245.499 141.727 251.776 138.3 255.656C137.253 256.836 136.063 258.336 134.73 260.156Z" fill="#CBBFAA"/>
<path d="M160.37 154.186L163.47 155.326C163.85 164.239 164.703 173.086 166.03 181.866C166.082 182.194 166.051 182.528 165.94 182.836C163.88 188.689 161.196 194.223 157.89 199.436C157.714 199.71 157.463 199.925 157.17 200.056C154.25 201.309 151.706 202.406 149.54 203.346C143.66 205.899 137.463 207.019 130.95 206.706L130.76 205.356C136.9 204.969 142.976 203.793 148.99 201.826C156.4 199.386 160.7 191.096 163.68 183.716C163.801 183.415 163.813 183.082 163.715 182.771C163.616 182.461 163.413 182.194 163.14 182.016L163.03 181.946C162.913 181.87 162.781 181.82 162.643 181.802C162.505 181.784 162.364 181.796 162.232 181.84C162.099 181.883 161.978 181.955 161.877 182.052C161.777 182.148 161.699 182.266 161.65 182.396C159.876 186.983 157.756 191.396 155.29 195.636C153.11 199.383 150.186 201.223 146.52 201.156C143.1 201.089 138.92 200.236 133.98 198.596C133.533 198.216 133.44 197.833 133.7 197.446C133.744 197.383 133.8 197.33 133.863 197.29C133.927 197.251 133.997 197.225 134.07 197.216C134.863 197.123 135.483 196.866 135.93 196.446C140.136 195.319 142.846 193.393 144.06 190.666C145.5 187.426 145.876 183.279 145.19 178.226C146.15 175.586 144.36 173.026 142.66 170.906C142.82 170.979 143.006 170.983 143.22 170.916C144.153 171.656 144.62 171.223 144.62 169.616C144.613 163.623 144.536 157.629 144.39 151.636C144.37 150.609 144.47 149.663 144.69 148.796C144.706 148.735 144.74 148.681 144.787 148.639C144.833 148.596 144.891 148.568 144.953 148.558C145.015 148.547 145.079 148.555 145.136 148.579C145.194 148.604 145.244 148.644 145.28 148.696C148.32 153.406 150.3 157.236 152.39 162.396C153.44 164.996 154.79 168.016 156.09 168.776C156.174 168.824 156.269 168.849 156.365 168.85C156.462 168.851 156.557 168.827 156.642 168.781C156.727 168.735 156.799 168.669 156.851 168.587C156.903 168.506 156.934 168.412 156.94 168.316C157.233 163.296 158.376 158.586 160.37 154.186Z" fill="#C3BEBA"/>
<path d="M129.371 260.456C129.351 260.482 129.331 260.509 129.311 260.536C122.164 260.536 115.914 260.062 110.561 259.116C101.901 257.576 89.0306 254.826 79.7906 250.796C69.0239 246.089 59.1106 240.349 50.0506 233.576C48.8839 232.702 47.4906 231.166 45.8706 228.966C46.6572 221.552 47.8706 214.606 49.5106 208.126C49.5334 208.029 49.5293 207.927 49.4988 207.832C49.4684 207.737 49.4127 207.652 49.3377 207.587C49.2627 207.521 49.1712 207.477 49.0731 207.459C48.975 207.441 48.8739 207.451 48.7806 207.486L45.9606 208.586C45.8315 208.637 45.6909 208.651 45.5543 208.626C45.4177 208.602 45.2906 208.541 45.1869 208.448C45.0833 208.356 45.0073 208.237 44.9673 208.104C44.9274 207.971 44.925 207.83 44.9606 207.696L48.5606 194.356C58.0006 190.426 64.6706 180.866 62.1406 170.396L67.4706 169.926C67.5596 169.918 67.6493 169.934 67.7297 169.974C67.81 170.013 67.8781 170.073 67.9265 170.149C67.9749 170.224 68.0018 170.311 68.0043 170.4C68.0068 170.49 67.9848 170.578 67.9406 170.656C66.8539 172.562 66.1572 174.376 65.8506 176.096C65.8085 176.328 65.824 176.568 65.8955 176.793C65.9671 177.018 66.0927 177.222 66.2613 177.388C66.4298 177.554 66.6364 177.676 66.8628 177.743C67.0893 177.811 67.3288 177.822 67.5606 177.776L71.0906 177.076C71.2123 177.052 71.3383 177.064 71.4533 177.111C71.5683 177.157 71.6672 177.236 71.7382 177.338C71.8092 177.439 71.8491 177.559 71.8531 177.683C71.857 177.807 71.8249 177.93 71.7606 178.036C70.7473 179.676 70.2506 181.246 70.2706 182.746C70.2744 182.932 70.3346 183.112 70.4432 183.263C70.5518 183.414 70.7036 183.529 70.878 183.591C71.0524 183.653 71.2411 183.66 71.4186 183.611C71.5961 183.562 71.7538 183.459 71.8706 183.316L75.6306 178.776C75.6991 178.69 75.7951 178.63 75.9026 178.606C76.01 178.582 76.1223 178.596 76.2207 178.645C76.3192 178.695 76.3977 178.776 76.4432 178.876C76.4886 178.977 76.4983 179.089 76.4706 179.196C75.0972 185.156 74.7672 191.729 75.4806 198.916C75.4884 198.989 75.5191 199.058 75.5683 199.113C75.6176 199.168 75.6829 199.205 75.7549 199.221C75.827 199.236 75.9021 199.229 75.9695 199.199C76.037 199.17 76.0933 199.119 76.1306 199.056L78.0506 195.716C78.0967 195.637 78.1657 195.574 78.2485 195.535C78.3313 195.497 78.4239 195.484 78.514 195.499C78.6041 195.514 78.6874 195.557 78.7528 195.62C78.8183 195.684 78.8629 195.766 78.8806 195.856C80.0939 202.176 81.7739 207.876 83.9206 212.956C83.9668 213.066 84.0505 213.157 84.157 213.212C84.2634 213.267 84.3859 213.283 84.5028 213.257C84.6198 213.23 84.7237 213.164 84.7964 213.069C84.8692 212.973 84.9061 212.856 84.9006 212.736C84.8339 211.136 84.9906 209.229 85.3706 207.016C85.4439 206.582 85.5872 206.332 85.8006 206.266C85.9231 206.227 86.0528 206.214 86.1823 206.23C86.3117 206.246 86.4383 206.289 86.5547 206.357C86.671 206.425 86.7748 206.516 86.8599 206.626C86.945 206.735 87.0098 206.861 87.0506 206.996C89.1206 213.786 90.9406 218.866 95.0806 224.636C99.1306 230.296 107.161 236.806 112.411 242.386C118.001 248.336 123.641 252.526 128.021 259.296C128.218 259.605 128.481 259.868 128.791 260.066L129.371 260.456Z" fill="#A29C9C"/>
<path d="M145.19 178.226C145.877 183.279 145.5 187.426 144.06 190.666C142.847 193.393 140.137 195.319 135.93 196.446L126.93 196.076C118.163 193.136 114.783 186.946 116.79 177.506C117.017 176.419 118.143 175.339 120.17 174.266C125.42 171.476 143.23 171.536 145.19 178.226ZM142.198 182.326C141.961 181.945 141.637 181.622 141.245 181.378C140.853 181.133 140.401 180.97 139.913 180.9C139.426 180.829 138.914 180.851 138.406 180.965C137.898 181.078 137.404 181.281 136.953 181.563C136.501 181.844 136.101 182.197 135.775 182.603C135.448 183.008 135.202 183.458 135.051 183.926C134.899 184.395 134.845 184.872 134.892 185.332C134.938 185.792 135.085 186.225 135.322 186.606C135.559 186.988 135.883 187.31 136.275 187.554C136.667 187.799 137.12 187.962 137.607 188.032C138.094 188.103 138.606 188.081 139.114 187.968C139.622 187.854 140.116 187.651 140.567 187.37C141.019 187.088 141.419 186.735 141.746 186.329C142.072 185.924 142.318 185.474 142.469 185.006C142.621 184.537 142.675 184.06 142.628 183.6C142.582 183.14 142.436 182.707 142.198 182.326Z" fill="#363439"/>
<path d="M140.568 187.369C142.466 186.187 143.197 183.929 142.199 182.326C141.2 180.722 138.852 180.38 136.953 181.562C135.054 182.744 134.324 185.003 135.322 186.606C136.32 188.21 138.669 188.551 140.568 187.369Z" fill="#1E1D26"/>
<path d="M126.61 199.176L133.98 198.596C138.92 200.236 143.1 201.089 146.52 201.156C150.186 201.223 153.11 199.383 155.29 195.636C157.756 191.396 159.876 186.983 161.65 182.396C161.699 182.266 161.777 182.148 161.877 182.052C161.978 181.955 162.099 181.883 162.232 181.84C162.364 181.797 162.505 181.784 162.643 181.802C162.781 181.82 162.913 181.87 163.03 181.946L163.14 182.016C163.413 182.194 163.616 182.461 163.715 182.771C163.813 183.082 163.801 183.415 163.68 183.716C160.7 191.096 156.4 199.386 148.99 201.826C142.976 203.793 136.9 204.969 130.76 205.356C123.96 205.146 112.97 203.776 107.6 198.376C103.506 194.256 100.556 189.543 98.7496 184.236C98.6108 183.826 98.5975 183.383 98.7116 182.966C98.8256 182.549 99.0618 182.176 99.3897 181.896L99.4196 181.876C99.5478 181.764 99.7014 181.686 99.8671 181.647C100.033 181.608 100.206 181.611 100.371 181.654C100.536 181.697 100.689 181.78 100.816 181.895C100.943 182.011 101.04 182.155 101.1 182.316C104.01 190.216 108.6 202.256 119.24 200.906C121.846 200.573 124.303 199.996 126.61 199.176Z" fill="#4F4747"/>
<path d="M135.93 196.446C135.484 196.866 134.864 197.123 134.07 197.216C133.998 197.225 133.928 197.251 133.864 197.29C133.8 197.33 133.745 197.383 133.7 197.446C133.44 197.833 133.534 198.216 133.98 198.596L126.61 199.176C127.624 198.076 127.73 197.043 126.93 196.076L135.93 196.446Z" fill="#6C6362"/>
</svg>
