<svg width="266" height="264" viewBox="0 0 266 264" fill="none" xmlns="http://www.w3.org/2000/svg">
<path d="M241.11 55.7205C248.43 66.9205 254.17 77.4205 258.26 90.1105C244.214 92.0571 235.14 93.4271 231.04 94.2205C225.807 95.2405 220.314 97.2572 214.56 100.271C214.272 100.424 214.053 100.682 213.95 100.99C212.397 105.744 209.684 109.751 205.81 113.011C205.61 112.544 205.51 112.064 205.51 111.57L207.75 107.691C209.657 104.937 210.994 101.224 211.76 96.5505C212.76 90.4505 211.58 85.0305 208.22 80.2905C205.787 76.8505 203.14 74.4672 200.28 73.1405C196.4 70.2072 192.46 69.7271 188.46 71.7004C173.55 79.0504 173.11 103.081 186.68 112.061C186.774 112.481 186.76 112.764 186.64 112.911C186.394 113.211 186.107 113.257 185.78 113.051C178.767 108.584 174.767 102.217 173.78 93.9504C173.087 88.1438 174.247 82.9972 177.26 78.5105C181.034 72.9038 186.43 69.7238 193.45 68.9705C193.517 68.9628 193.581 68.9394 193.636 68.9021C193.692 68.8648 193.737 68.8148 193.769 68.7566C193.801 68.6984 193.817 68.6336 193.818 68.568C193.818 68.5024 193.801 68.4381 193.77 68.3805C193.33 67.5405 192.68 67.0572 191.82 66.9305C179.42 65.1305 171.14 72.3305 161.99 80.0405C159.624 82.0339 156.767 82.8672 153.42 82.5405C144.967 81.7139 136.627 81.3439 128.4 81.4305C121.69 81.4905 116.18 82.1405 109.63 82.3705C107.584 82.4438 105.984 82.0605 104.83 81.2205C103.284 80.0938 99.4236 77.0305 93.2502 72.0305C90.2302 69.5905 82.1102 66.1404 76.9902 66.8204C73.7702 67.2471 72.0136 67.5272 71.7203 67.6605C70.8336 68.0472 70.3136 68.4272 70.1603 68.8005C70.1363 68.8597 70.1267 68.9236 70.1325 68.9872C70.1383 69.0507 70.1591 69.1119 70.1934 69.1658C70.2276 69.2196 70.2743 69.2645 70.3294 69.2966C70.3845 69.3288 70.4465 69.3472 70.5103 69.3505C77.2369 69.5238 82.5336 72.0005 86.4003 76.7805C90.0936 81.3472 91.6136 86.9871 90.9603 93.7004C90.1303 102.16 85.1803 110.971 77.1603 114.661C70.8603 117.561 65.3802 117.491 59.4402 113.641C59.3896 113.606 59.3313 113.583 59.2692 113.573C59.2072 113.562 59.1428 113.565 59.0803 113.58C58.5069 113.727 58.3669 114.23 58.6603 115.09L58.1702 109.62C58.2236 109.434 58.2736 109.244 58.3203 109.051C58.4736 110.811 59.1736 112.084 60.4202 112.87C70.7402 119.38 83.6003 111.87 86.7003 100.98C89.3603 91.6605 87.8936 83.3271 82.3002 75.9805C78.2136 70.6071 73.0236 69.2772 66.7302 71.9905C61.7302 74.0038 57.7702 77.7972 54.8502 83.3705C50.7702 91.1705 52.1003 100.871 57.2003 107.891C51.6003 103.011 49.4003 95.7105 50.1403 88.9905C50.5403 85.3972 52.0702 81.0904 54.7302 76.0704C54.7516 76.0298 54.7622 75.9842 54.761 75.9382C54.7599 75.8923 54.7469 75.8476 54.7235 75.809C54.7001 75.7703 54.6671 75.739 54.6279 75.7181C54.5886 75.6973 54.5446 75.6879 54.5002 75.6906C49.9202 75.8706 44.2569 76.0071 37.5103 76.1005C29.2303 76.2205 22.3203 74.8706 16.2803 69.0606C34.5903 35.7106 67.7202 9.96053 105.19 2.66053C127.19 -1.63281 149.187 -0.729511 171.18 5.37049C199.32 13.1605 224.05 32.4705 241.11 55.7205Z" fill="#C3D8AE"/>
<path d="M186.68 112.061C192.14 115.691 200.62 116.94 205.51 111.57C205.51 112.064 205.61 112.544 205.81 113.01C206.723 115.984 207.813 118.93 209.08 121.85C210.84 125.92 212.29 130.251 213.22 133.561C213.7 135.261 213.817 136.877 213.57 138.41C212.37 138.81 211.227 139.167 210.14 139.48C209.047 139.794 206.447 139.74 202.34 139.32C198.767 138.96 193.693 137.817 187.12 135.89C172.207 131.524 164.717 129.331 164.65 129.311C143.537 123.717 122.47 123.694 101.45 129.24C91.3701 131.9 75.2001 137.93 61.1301 139.63C58.0035 140.004 54.9568 139.634 51.9901 138.52C51.9701 136.167 52.3034 133.99 52.9901 131.99C54.9701 126.257 56.8602 120.624 58.6602 115.09C58.3668 114.23 58.5068 113.727 59.0801 113.58C59.1427 113.565 59.207 113.562 59.2691 113.572C59.3311 113.583 59.3895 113.606 59.4401 113.64C65.3801 117.49 70.8602 117.561 77.1602 114.661C85.1802 110.971 90.1301 102.16 90.9601 93.7004C91.6135 86.9871 90.0935 81.3472 86.4001 76.7805C82.5335 72.0005 77.2368 69.5238 70.5101 69.3504C70.4464 69.3472 70.3844 69.3287 70.3293 69.2966C70.2742 69.2645 70.2275 69.2196 70.1932 69.1658C70.159 69.1119 70.1381 69.0507 70.1324 68.9872C70.1266 68.9236 70.1361 68.8596 70.1602 68.8005C70.3135 68.4272 70.8335 68.0472 71.7201 67.6605C72.0135 67.5272 73.7701 67.2471 76.9901 66.8204C82.1101 66.1404 90.2301 69.5905 93.2501 72.0305C99.4235 77.0305 103.283 80.0938 104.83 81.2204C105.983 82.0604 107.583 82.4438 109.63 82.3705C116.18 82.1405 121.69 81.4905 128.4 81.4305C136.627 81.3439 144.967 81.7138 153.42 82.5405C156.767 82.8672 159.623 82.0338 161.99 80.0405C171.14 72.3305 179.42 65.1305 191.82 66.9305C192.68 67.0572 193.33 67.5405 193.77 68.3805C193.801 68.4381 193.818 68.5024 193.817 68.568C193.817 68.6335 193.801 68.6983 193.769 68.7566C193.737 68.8148 193.692 68.8648 193.636 68.9021C193.581 68.9394 193.517 68.9628 193.45 68.9704C186.43 69.7238 181.033 72.9038 177.26 78.5105C174.247 82.9971 173.087 88.1438 173.78 93.9504C174.767 102.217 178.767 108.584 185.78 113.051C186.107 113.257 186.393 113.211 186.64 112.911C186.76 112.764 186.773 112.481 186.68 112.061ZM145.84 103.95C149.01 103.46 151.75 100.39 155.99 96.7304C158.097 94.9104 160.153 92.6405 162.16 89.9205C162.63 89.2832 162.908 88.5254 162.963 87.7356C163.018 86.9458 162.847 86.1566 162.47 85.4604L162.42 85.3605C162.278 85.091 162.072 84.8611 161.82 84.6909C161.567 84.5207 161.276 84.4157 160.972 84.385C160.669 84.3543 160.362 84.399 160.079 84.5151C159.796 84.6312 159.546 84.8151 159.35 85.0505L144.96 102.39C144.837 102.54 144.762 102.724 144.745 102.917C144.728 103.11 144.77 103.303 144.865 103.472C144.96 103.641 145.105 103.777 145.279 103.862C145.453 103.948 145.648 103.978 145.84 103.95ZM117.14 104.71C116.2 105.43 115.577 106.457 115.27 107.791C115.189 108.131 115.22 108.489 115.359 108.811C115.497 109.133 115.736 109.403 116.04 109.58C117.247 110.287 118.04 110.35 118.42 109.77C119.147 108.664 119.21 107.494 118.61 106.26C119.777 104.627 119.503 102.614 117.79 100.22C114.037 94.9938 109.923 90.3604 105.45 86.3204C105.246 86.1366 105.001 86.0053 104.735 85.9376C104.469 85.8699 104.191 85.868 103.924 85.932C103.657 85.996 103.41 86.124 103.204 86.3049C102.997 86.4858 102.838 86.7142 102.74 86.9704L102.69 87.1105C102.359 87.9828 102.296 88.935 102.51 89.8453C102.723 90.7556 103.204 91.5825 103.89 92.2204L117.14 104.71ZM148.18 110.51C148.54 110.47 149.01 110.18 149.59 109.64C149.874 109.378 150.064 109.029 150.131 108.648C150.197 108.267 150.138 107.874 149.96 107.53C149.113 105.897 148.317 105.124 147.57 105.21C146.817 105.297 146.213 106.234 145.76 108.02C145.666 108.396 145.697 108.791 145.848 109.147C146 109.503 146.264 109.799 146.6 109.99C147.287 110.384 147.813 110.557 148.18 110.51Z" fill="#97AC51"/>
<path d="M16.28 69.0605C22.32 74.8705 29.23 76.2205 37.51 76.1005C44.2567 76.0071 49.92 75.8706 54.5 75.6906C54.5444 75.6879 54.5884 75.6973 54.6276 75.7181C54.6669 75.739 54.6999 75.7703 54.7233 75.809C54.7467 75.8476 54.7596 75.8923 54.7608 75.9382C54.762 75.9842 54.7513 76.0297 54.73 76.0704C52.07 81.0904 50.54 85.3971 50.14 88.9905C49.4 95.7105 51.6 103.011 57.2 107.891L58.17 109.62L58.66 115.09C56.86 120.624 54.97 126.257 52.99 131.99C52.3033 133.99 51.97 136.167 51.99 138.521L52.26 139.411C51.42 139.524 51.0867 139.854 51.26 140.401C51.88 142.347 52.7666 144.127 53.92 145.74C56.6133 151.04 59.9067 155.987 63.8 160.58C64.37 161.25 64.64 162.05 64.9 162.85C56.22 158.017 46.93 154.844 37.03 153.33C24.7 151.45 13.64 149.721 0.900024 145.401L0 129.671L0.919983 116.09C2.12665 106.03 4.47001 96.2105 7.95001 86.6305C10.2433 80.5905 13.02 74.7339 16.28 69.0605Z" fill="#B3CCAF"/>
<path d="M58.3203 109.05C62.5336 112.37 66.9103 113.41 71.4503 112.17C75.5403 111.05 79.8903 107.27 81.7503 103.54C84.797 97.4471 85.597 91.3737 84.1503 85.3203C83.0503 80.707 81.047 77.337 78.1403 75.2103C75.227 73.0837 71.4236 72.0104 66.7303 71.9904C73.0236 69.277 78.2136 70.607 82.3003 75.9804C87.8936 83.327 89.3603 91.6604 86.7003 100.98C83.6003 111.87 70.7403 119.38 60.4203 112.87C59.1736 112.084 58.4736 110.81 58.3203 109.05Z" fill="#4D2210"/>
<path d="M200.28 73.1405C193.107 71.3005 187.617 73.1238 183.81 78.6105C179.66 84.5805 179.89 93.8905 182.11 100.4C184.12 106.3 189.47 112 195.92 112.49C200.04 112.81 203.984 111.211 207.75 107.691L205.51 111.57C200.62 116.94 192.14 115.691 186.68 112.061C173.11 103.081 173.55 79.0504 188.46 71.7004C192.46 69.7271 196.4 70.2072 200.28 73.1405Z" fill="#4D2210"/>
<path d="M66.7295 71.9905C71.4228 72.0105 75.2262 73.0838 78.1395 75.2104C81.0462 77.3371 83.0495 80.7071 84.1495 85.3204C85.5962 91.3738 84.7962 97.4472 81.7495 103.541C79.8895 107.271 75.5395 111.051 71.4495 112.171C66.9095 113.411 62.5329 112.371 58.3195 109.051C58.2729 109.244 58.2228 109.434 58.1695 109.62L57.1995 107.891C52.0995 100.871 50.7695 91.1705 54.8495 83.3705C57.7695 77.7972 61.7295 74.0038 66.7295 71.9905ZM69.4995 80.3805L69.2295 79.3805C69.2011 79.2777 69.1501 79.1824 69.0804 79.1017C69.0106 79.021 68.9238 78.9568 68.8262 78.9137C68.7286 78.8706 68.6226 78.8498 68.516 78.8527C68.4093 78.8556 68.3047 78.8822 68.2095 78.9305C61.9795 82.1005 59.0995 89.2405 59.2695 95.9705C59.3695 99.5805 61.2695 103.031 63.6895 105.441C63.978 105.73 64.3575 105.912 64.765 105.955C65.1725 105.999 65.5834 105.902 65.9295 105.681C69.0695 103.651 70.8095 97.6305 71.0595 94.3605C71.1728 92.8871 71.1262 90.5404 70.9195 87.3204C73.4895 88.8404 75.9695 87.2105 75.6095 84.4205C75.2562 81.7405 74.0295 79.8505 71.9295 78.7505C71.7705 78.6695 71.5952 78.6257 71.4168 78.6222C71.2384 78.6187 71.0616 78.6557 70.8995 78.7305C70.2529 79.0305 69.7862 79.5805 69.4995 80.3805Z" fill="#C76642"/>
<path d="M200.28 73.1407C203.14 74.4673 205.787 76.8507 208.22 80.2907C211.58 85.0307 212.76 90.4507 211.76 96.5507C210.993 101.224 209.657 104.937 207.75 107.691C203.983 111.211 200.04 112.811 195.92 112.491C189.47 112.001 184.12 106.301 182.11 100.401C179.89 93.8907 179.66 84.5806 183.81 78.6106C187.617 73.124 193.107 71.3007 200.28 73.1407ZM193.68 87.9606C193.793 89.1673 193.853 90.6406 193.86 92.3806C193.88 97.3306 195.46 103.051 199.85 105.701C199.992 105.785 200.158 105.823 200.323 105.809C200.488 105.795 200.645 105.729 200.77 105.621C202.13 104.447 203.123 103.171 203.75 101.791C206.857 94.9173 206.14 88.4573 201.6 82.4107C199.72 79.904 197.433 78.7307 194.74 78.8907C193.247 77.7773 191.9 78.3873 190.7 80.7206C188.46 85.0739 189.453 87.4873 193.68 87.9606Z" fill="#C76642"/>
<path d="M194.74 78.8905C196.513 82.1039 196.16 85.1271 193.68 87.9605C189.453 87.4871 188.46 85.0738 190.7 80.7205C191.9 78.3871 193.247 77.7772 194.74 78.8905Z" fill="#F3E2C1"/>
<path d="M70.9204 87.3203C69.3071 85.4136 68.8337 83.1003 69.5004 80.3803C69.7871 79.5803 70.2538 79.0303 70.9004 78.7303C71.0625 78.6556 71.2393 78.6186 71.4177 78.622C71.5961 78.6255 71.7714 78.6693 71.9304 78.7503C74.0304 79.8503 75.2571 81.7404 75.6104 84.4204C75.9704 87.2104 73.4904 88.8403 70.9204 87.3203Z" fill="#F3E2C1"/>
<path d="M193.68 87.9606C196.16 85.1272 196.513 82.104 194.74 78.8906C197.433 78.7306 199.72 79.904 201.6 82.4106C206.14 88.4573 206.856 94.9173 203.75 101.791C203.123 103.171 202.13 104.447 200.77 105.621C200.644 105.729 200.488 105.795 200.323 105.809C200.158 105.823 199.992 105.785 199.85 105.701C195.46 103.051 193.88 97.3306 193.86 92.3806C193.853 90.6406 193.793 89.1672 193.68 87.9606Z" fill="#301A15"/>
<path d="M69.4998 80.3804C68.8331 83.1004 69.3064 85.4137 70.9198 87.3203C71.1264 90.5403 71.1731 92.887 71.0598 94.3604C70.8098 97.6304 69.0698 103.65 65.9298 105.68C65.5837 105.902 65.1727 105.999 64.7652 105.955C64.3577 105.912 63.9782 105.73 63.6898 105.44C61.2698 103.03 59.3698 99.5804 59.2698 95.9704C59.0998 89.2404 61.9798 82.1004 68.2098 78.9304C68.3049 78.8821 68.4096 78.8555 68.5163 78.8526C68.6229 78.8497 68.7288 78.8705 68.8264 78.9136C68.924 78.9567 69.0109 79.0209 69.0806 79.1016C69.1504 79.1823 69.2013 79.2776 69.2298 79.3804L69.4998 80.3804Z" fill="#301A15"/>
<path d="M145.84 103.951C145.648 103.979 145.452 103.948 145.278 103.863C145.104 103.777 144.96 103.641 144.865 103.472C144.77 103.304 144.728 103.11 144.745 102.917C144.762 102.724 144.837 102.54 144.96 102.391L159.35 85.0506C159.545 84.8153 159.796 84.6313 160.079 84.5152C160.362 84.3992 160.669 84.3545 160.972 84.3851C161.276 84.4158 161.567 84.5209 161.819 84.691C162.072 84.8612 162.278 85.0912 162.42 85.3606L162.47 85.4606C162.847 86.1567 163.018 86.9459 162.963 87.7357C162.908 88.5255 162.63 89.2833 162.16 89.9206C160.153 92.6406 158.097 94.9106 155.99 96.7306C151.75 100.391 149.01 103.461 145.84 103.951Z" fill="#C6AA68"/>
<path d="M118.61 106.261L117.14 104.711L103.89 92.2206C103.204 91.5826 102.723 90.7557 102.509 89.8454C102.295 88.9352 102.358 87.9829 102.69 87.1106L102.74 86.9706C102.838 86.7144 102.997 86.486 103.203 86.305C103.41 86.1241 103.657 85.9961 103.924 85.9321C104.19 85.8681 104.469 85.87 104.735 85.9377C105.001 86.0054 105.246 86.1368 105.45 86.3205C109.923 90.3605 114.036 94.9939 117.79 100.221C119.503 102.614 119.776 104.627 118.61 106.261Z" fill="#C6AA68"/>
<path d="M265.18 133.471C258.1 134.457 251.003 135.327 243.89 136.081C233.703 137.161 227.223 138.161 224.45 139.081C219.436 140.741 215.25 143.814 211.89 148.301C207.33 154.387 203.513 160.384 200.44 166.291C200.446 164.771 200.083 163.654 199.35 162.941C203.876 157.414 207.9 151.694 211.42 145.781C212.513 143.734 212.973 141.874 212.8 140.201C213.193 139.574 213.45 138.977 213.57 138.411C213.816 136.877 213.7 135.261 213.22 133.561C212.29 130.251 210.84 125.921 209.08 121.851C207.813 118.931 206.723 115.984 205.81 113.011C209.683 109.751 212.396 105.744 213.95 100.991C214.053 100.682 214.271 100.425 214.56 100.271C220.313 97.2573 225.806 95.2406 231.04 94.2206C235.14 93.4272 244.213 92.0573 258.26 90.1106C263.2 104.004 265.506 118.457 265.18 133.471Z" fill="#B3CCAF"/>
<path d="M117.14 104.71L118.61 106.26C119.21 107.494 119.147 108.664 118.42 109.771C118.04 110.351 117.247 110.287 116.04 109.58C115.736 109.403 115.497 109.133 115.358 108.811C115.22 108.489 115.189 108.131 115.27 107.791C115.577 106.457 116.2 105.43 117.14 104.71Z" fill="#67652C"/>
<path d="M147.57 105.21C148.316 105.124 149.113 105.897 149.96 107.53C150.137 107.874 150.197 108.267 150.13 108.648C150.063 109.029 149.873 109.378 149.59 109.64C149.01 110.18 148.54 110.47 148.18 110.51C147.813 110.557 147.286 110.384 146.6 109.99C146.264 109.799 146 109.503 145.848 109.147C145.696 108.791 145.665 108.396 145.76 108.02C146.213 106.234 146.816 105.297 147.57 105.21Z" fill="#67652C"/>
<path d="M213.57 138.41C213.45 138.977 213.194 139.574 212.8 140.2C210.014 141.7 206.787 142.197 203.12 141.691C188.33 139.661 173.81 134.63 160.09 131.48C141.944 127.3 123.8 127.304 105.66 131.49C98.5403 133.13 89.9602 135.38 79.9202 138.24C74.7902 139.71 56.0003 144.83 52.2603 139.41L51.9902 138.52C54.9569 139.634 58.0036 140.004 61.1302 139.63C75.2002 137.93 91.3703 131.9 101.45 129.24C122.47 123.694 143.537 123.717 164.65 129.311C164.717 129.331 172.207 131.524 187.12 135.89C193.694 137.817 198.767 138.96 202.34 139.32C206.447 139.74 209.047 139.794 210.14 139.48C211.227 139.167 212.37 138.81 213.57 138.41Z" fill="#301A15"/>
<path d="M212.8 140.2C212.974 141.874 212.514 143.734 211.42 145.78L192.43 146.07C190.124 145.204 187.1 144.337 183.36 143.47C173.307 141.144 165.567 139.53 160.14 138.63C137.174 134.83 114.427 135.74 91.9003 141.36C82.8603 143.62 76.5303 145.11 72.9103 145.83C68.277 146.444 63.6236 146.67 58.9503 146.51C57.677 146.47 56.0003 146.214 53.9203 145.74C52.7669 144.127 51.8803 142.347 51.2603 140.4C51.087 139.854 51.4203 139.524 52.2603 139.41C56.0003 144.83 74.7903 139.71 79.9203 138.24C89.9603 135.38 98.5403 133.13 105.66 131.49C123.8 127.304 141.944 127.3 160.09 131.48C173.81 134.63 188.33 139.66 203.12 141.69C206.787 142.197 210.014 141.7 212.8 140.2Z" fill="#F2D6A8"/>
<path d="M265.18 133.47C265.114 139.864 264.534 146.257 263.44 152.651L261.32 163.37C257.514 176.49 252.08 188.854 245.02 200.46C244.46 201.38 243.244 202.344 241.37 203.35C241.247 203.416 241.14 203.51 241.058 203.624C240.976 203.739 240.923 203.871 240.9 204.01C240.294 208.15 238.757 211.684 236.29 214.61C230.61 221.36 223 229.76 214.64 236.37C211.44 238.897 207.93 240.911 204.11 242.411C205.49 241.744 206.514 240.834 207.18 239.681C208.79 236.931 210.63 234.54 212.49 231.98C214.25 229.55 215.45 227.071 216.67 224.421L213.91 232.431L207.44 239.84C207.407 239.877 207.387 239.924 207.384 239.973C207.381 240.023 207.396 240.071 207.426 240.111C207.456 240.15 207.499 240.178 207.547 240.189C207.596 240.2 207.646 240.193 207.69 240.171C209.917 239.031 212.01 237.637 213.97 235.99C218.29 232.37 222.34 228.474 226.12 224.301C228.34 222.514 230.247 220.477 231.84 218.191C232.02 217.931 232.221 217.69 232.44 217.47C236.014 213.81 238.264 211.051 239.19 209.191C241.644 204.271 241.124 199.921 237.63 196.141C232.48 190.581 223.11 192.331 217.31 195.781L210.16 199.86C210.057 199.92 209.942 199.954 209.823 199.962C209.704 199.97 209.585 199.95 209.475 199.905C209.365 199.86 209.267 199.79 209.188 199.7C209.109 199.611 209.052 199.505 209.02 199.391L202.13 173.941L200.44 166.291C203.514 160.384 207.33 154.387 211.89 148.301C215.25 143.814 219.437 140.74 224.45 139.08C227.224 138.16 233.704 137.16 243.89 136.08C251.004 135.327 258.1 134.457 265.18 133.47Z" fill="#A6C2AC"/>
<path d="M192.43 146.071C179.503 146.344 166.86 147.177 154.5 148.571C141.95 149.981 133.68 150.461 122.31 149.441C115.25 148.811 105.38 146.581 97.0697 146.441C89.9763 146.321 82.8363 146.607 75.6497 147.301C75.243 147.341 73.4796 147.327 70.3596 147.261C70.291 147.257 70.2257 147.23 70.1748 147.184C70.1238 147.137 70.0903 147.075 70.0797 147.007C70.0692 146.939 70.0823 146.87 70.1168 146.81C70.1514 146.751 70.2054 146.705 70.2697 146.681L72.9097 145.831C76.5297 145.111 82.8597 143.621 91.8997 141.361C114.426 135.741 137.173 134.831 160.14 138.631C165.566 139.531 173.306 141.144 183.36 143.471C187.1 144.337 190.123 145.204 192.43 146.071Z" fill="#D4AD89"/>
<path d="M64.9004 162.851L66.3204 163.601C66.1004 163.507 65.8904 163.481 65.6904 163.521C65.497 163.561 65.3637 163.704 65.2903 163.951C64.4503 166.811 64.077 169.471 64.1703 171.931C60.3437 180.811 57.7737 189.874 56.4604 199.121C56.4349 199.296 56.3644 199.461 56.2558 199.6C56.1472 199.74 56.0042 199.849 55.8408 199.916C55.6775 199.984 55.4994 200.008 55.324 199.986C55.1486 199.964 54.982 199.896 54.8404 199.791C51.7271 197.484 48.3304 195.561 44.6504 194.021C35.8904 190.391 25.5704 193.081 24.6104 203.851L23.1504 205.331C16.1571 195.191 10.687 184.237 6.74036 172.471C3.79369 163.671 1.84706 154.647 0.900391 145.401C13.6404 149.721 24.7004 151.451 37.0304 153.331C46.9304 154.844 56.2204 158.017 64.9004 162.851Z" fill="#A6C2AC"/>
<path d="M211.42 145.781C207.9 151.694 203.877 157.414 199.35 162.941C195.223 166.781 191.46 170.977 188.06 175.531L185.06 180.13C183 180.29 180.887 181.171 178.72 182.771C178.448 182.976 178.152 183.148 177.84 183.281C155.28 193.121 131.72 195.031 107.93 190.191C103.837 189.357 98.43 187.667 91.71 185.12C90.4166 184.634 88.3799 183.597 85.5999 182.01C83.6799 180.917 81.6433 179.91 79.4899 178.99L76.41 174.641L66.3199 163.6L64.9 162.85C64.64 162.05 64.3699 161.25 63.7999 160.58C59.9066 155.987 56.6133 151.04 53.9199 145.74C55.9999 146.214 57.6766 146.47 58.95 146.51C63.6233 146.67 68.2766 146.444 72.91 145.83L70.27 146.681C70.2057 146.705 70.1517 146.751 70.1171 146.81C70.0826 146.869 70.0695 146.939 70.08 147.007C70.0906 147.075 70.1241 147.137 70.175 147.183C70.226 147.23 70.2913 147.257 70.3599 147.26C73.4799 147.327 75.2433 147.341 75.65 147.301C82.8366 146.607 89.9766 146.321 97.0699 146.441C105.38 146.581 115.25 148.811 122.31 149.441C133.68 150.461 141.95 149.98 154.5 148.57C166.86 147.177 179.503 146.344 192.43 146.07L211.42 145.781Z" fill="#DBB788"/>
<path d="M199.35 162.941C200.084 163.654 200.447 164.771 200.44 166.291L202.13 173.941L201.89 173.711C201.816 173.639 201.721 173.593 201.619 173.576C201.517 173.56 201.412 173.575 201.319 173.62C201.226 173.664 201.149 173.736 201.097 173.825C201.045 173.915 201.022 174.018 201.03 174.121C201.19 176.621 201.667 179.411 202.46 182.491C202.867 184.077 203.58 188.264 204.6 195.051C206.48 207.581 204.56 220.201 200.46 232.511C199.114 236.577 197.174 241.281 194.64 246.621C194.622 246.656 194.613 246.696 194.613 246.736C194.614 246.776 194.625 246.815 194.645 246.85C194.665 246.885 194.693 246.914 194.727 246.935C194.761 246.956 194.8 246.968 194.84 246.971C194.947 246.984 195.037 247.021 195.11 247.081C195.15 247.11 195.181 247.148 195.2 247.193C195.22 247.237 195.228 247.286 195.223 247.335C195.218 247.383 195.2 247.43 195.171 247.469C195.143 247.509 195.105 247.54 195.06 247.561L189.69 249.881L179.41 254.111C179.057 253.777 179 253.297 179.24 252.671C179.974 251.797 180.147 251.011 179.76 250.311C180.347 248.384 180.887 247.014 181.38 246.201C184.447 241.107 187.17 235.917 189.55 230.631C192.94 221.721 194.91 212.371 193.68 202.831C192.48 193.541 190.79 187.061 188.06 175.531C191.46 170.977 195.224 166.781 199.35 162.941Z" fill="#97AC51"/>
<path d="M66.3196 163.6L76.4097 174.64C71.4297 186.314 68.753 198.514 68.3796 211.24C68.0196 223.65 73.9096 233.37 80.0096 244.42C80.523 245.36 80.843 246.63 80.9697 248.23C81.0025 248.605 81.1225 248.965 81.3196 249.28C82.2663 250.78 83.3963 252.02 84.7097 253C85.2363 253.887 85.1996 254.587 84.5996 255.1L69.2896 246.86C66.0229 239.7 63.4263 231.85 61.4996 223.31C60.373 218.324 59.6796 213.524 59.4196 208.91C59.2063 205.15 59.5596 200.324 60.4796 194.43C61.6396 187.024 62.8696 179.524 64.1696 171.93C64.0763 169.47 64.4496 166.81 65.2896 163.95C65.3629 163.704 65.4963 163.56 65.6896 163.52C65.8896 163.48 66.0996 163.507 66.3196 163.6Z" fill="#97AC51"/>
<path d="M64.1703 171.93C62.8703 179.524 61.6403 187.024 60.4803 194.43C59.5603 200.324 59.207 205.15 59.4203 208.91C59.6803 213.524 60.3737 218.324 61.5003 223.31C63.427 231.85 66.0237 239.7 69.2903 246.86C63.9303 244.474 58.9237 241.377 54.2704 237.57C50.0904 230.31 46.9803 222.55 44.9403 214.29C44.327 211.804 44.0804 209.054 44.2004 206.04C44.367 202.04 44.517 198.034 44.6504 194.02C48.3304 195.56 51.727 197.484 54.8404 199.79C54.982 199.896 55.1486 199.963 55.324 199.985C55.4994 200.007 55.6774 199.983 55.8408 199.916C56.0041 199.848 56.1472 199.74 56.2558 199.6C56.3644 199.461 56.4349 199.295 56.4604 199.12C57.7737 189.874 60.3437 180.81 64.1703 171.93Z" fill="#5E7344"/>
<path d="M202.13 173.941L209.02 199.391C209.052 199.505 209.109 199.611 209.188 199.701C209.267 199.79 209.365 199.86 209.475 199.905C209.585 199.95 209.704 199.97 209.823 199.962C209.942 199.955 210.057 199.92 210.16 199.861L217.31 195.781L219.41 215.581C219.444 215.87 219.413 216.164 219.32 216.441L216.67 224.421C215.45 227.071 214.25 229.551 212.49 231.981C210.63 234.541 208.79 236.931 207.18 239.681C206.514 240.834 205.49 241.744 204.11 242.411L191.47 250.561L189.69 249.881L195.06 247.561C195.105 247.54 195.143 247.509 195.172 247.469C195.2 247.43 195.218 247.383 195.223 247.335C195.228 247.286 195.22 247.237 195.2 247.193C195.181 247.148 195.15 247.11 195.11 247.081C195.037 247.021 194.947 246.984 194.84 246.971C194.8 246.968 194.762 246.956 194.727 246.935C194.693 246.914 194.665 246.885 194.645 246.85C194.625 246.815 194.614 246.776 194.614 246.736C194.613 246.696 194.622 246.656 194.64 246.621C197.174 241.281 199.114 236.577 200.46 232.511C204.56 220.201 206.48 207.581 204.6 195.051C203.58 188.264 202.867 184.077 202.46 182.491C201.667 179.411 201.19 176.621 201.03 174.121C201.022 174.018 201.045 173.915 201.097 173.825C201.149 173.736 201.226 173.664 201.319 173.62C201.413 173.575 201.517 173.56 201.619 173.576C201.721 173.593 201.816 173.639 201.89 173.711L202.13 173.941Z" fill="#5E7344"/>
<path d="M79.4899 178.99C80.3399 182.71 81.15 186.05 81.46 189.86C82.38 201.53 83.23 212.06 88.28 222.43L91.4899 228.07C93.0499 234.764 94.0666 240.217 94.5399 244.43C95.2733 250.924 91.9966 253.78 84.71 253C83.3966 252.02 82.2666 250.78 81.32 249.28C81.1228 248.965 81.0029 248.605 80.97 248.23C80.8433 246.63 80.5233 245.36 80.01 244.42C73.91 233.37 68.02 223.65 68.38 211.24C68.7533 198.514 71.43 186.314 76.41 174.64L79.4899 178.99Z" fill="#CF8D45"/>
<path d="M188.06 175.531C190.79 187.061 192.48 193.54 193.68 202.83C194.91 212.37 192.94 221.72 189.55 230.63C184.23 238.82 179.91 248.121 171.86 254.021L176.65 234.431C177.75 229.664 178.287 224.81 178.26 219.87L178.88 218.37C180.787 211.904 182.057 205.31 182.69 198.59C183.27 192.45 183.18 186.05 185.06 180.13L188.06 175.531Z" fill="#CF8D45"/>
<path d="M185.06 180.13C183.18 186.05 183.27 192.45 182.69 198.59C182.057 205.31 180.787 211.904 178.88 218.37C170.86 217.477 162.894 216.827 154.98 216.421C132.23 215.261 110.53 218.031 88.2803 222.431C83.2303 212.061 82.3803 201.53 81.4603 189.86C81.1503 186.05 80.3402 182.71 79.4902 178.99C81.6436 179.91 83.6802 180.917 85.6002 182.01C88.3802 183.597 90.4169 184.634 91.7103 185.12C98.4303 187.667 103.837 189.357 107.93 190.191C131.72 195.031 155.28 193.121 177.84 183.281C178.152 183.148 178.448 182.976 178.72 182.771C180.887 181.171 183 180.29 185.06 180.13Z" fill="#E4C395"/>
<path d="M44.6504 194.02C44.5171 198.034 44.367 202.04 44.2004 206.04C44.0804 209.054 44.327 211.804 44.9404 214.29C46.9804 222.55 50.0904 230.31 54.2704 237.57C53.8237 237.43 53.4337 237.14 53.1003 236.7C50.0303 232.61 45.0404 229.85 42.1904 227.32C35.4504 221.37 31.7204 216.07 26.3904 210.34L24.6104 203.85C25.5704 193.08 35.8904 190.39 44.6504 194.02Z" fill="#8A8256"/>
<path d="M226.12 224.301L215.46 232.881C215.447 232.892 215.432 232.898 215.415 232.9C215.398 232.902 215.381 232.898 215.365 232.89C215.35 232.881 215.336 232.869 215.326 232.853C215.317 232.837 215.311 232.819 215.31 232.801V232.551C215.31 232.457 215.274 232.367 215.208 232.299C215.143 232.232 215.054 232.193 214.96 232.191C214.62 232.177 214.27 232.257 213.91 232.431L216.67 224.421L219.32 216.441C219.412 216.164 219.443 215.87 219.41 215.58L217.31 195.781C223.11 192.331 232.48 190.581 237.63 196.141C241.123 199.921 241.643 204.271 239.19 209.191C238.263 211.051 236.013 213.811 232.44 217.471C232.221 217.69 232.02 217.931 231.84 218.191C230.247 220.477 228.34 222.514 226.12 224.301Z" fill="#8A8256"/>
<path d="M24.6104 203.85L26.3904 210.34L36.1204 223.39C30.567 218.397 26.2437 212.377 23.1504 205.33L24.6104 203.85Z" fill="#A29C9C"/>
<path d="M53.0996 236.701C50.6463 234.994 48.263 233.164 45.9496 231.211C44.463 229.951 44.4196 229.977 45.8196 231.291C46.093 231.551 46.2296 231.687 46.2296 231.701C46.2145 231.821 46.1672 231.936 46.0928 232.032C46.0184 232.128 45.9199 232.202 45.8081 232.245C45.6963 232.289 45.5756 232.3 45.4594 232.278C45.3432 232.256 45.236 232.202 45.1497 232.121L36.1196 223.391L26.3896 210.341C31.7196 216.071 35.4496 221.371 42.1896 227.321C45.0396 229.851 50.0296 232.611 53.0996 236.701Z" fill="#949491"/>
<path d="M178.88 218.37L178.26 219.87L176.04 224.25C168.62 235.55 159.39 244.51 146.9 248.92C140.89 251.04 132.69 251.07 126.63 250.44C111.89 248.9 99.4402 240.44 91.4902 228.07L88.2803 222.43C110.53 218.03 132.23 215.26 154.98 216.42C162.894 216.827 170.86 217.477 178.88 218.37Z" fill="#DBB788"/>
<path d="M178.26 219.87C178.287 224.81 177.75 229.664 176.65 234.43L176.04 224.25L178.26 219.87Z" fill="#D59659"/>
<path d="M176.04 224.25L176.65 234.431L171.86 254.021C170.66 254.754 171.316 254.817 173.83 254.21C175.563 253.797 177.54 252.497 179.76 250.311C180.146 251.011 179.973 251.797 179.24 252.671L170.12 256.6C171.8 256.694 173.24 257.124 174.44 257.891C166.42 260.861 159.2 261.17 151.3 262.13C145.4 262.85 140.813 263.267 137.54 263.38C122.24 263.94 107.153 262.22 92.2797 258.22C89.613 257.507 87.0529 256.467 84.5996 255.1C85.1996 254.587 85.2363 253.887 84.7097 253C91.9963 253.78 95.2729 250.924 94.5396 244.431C94.0663 240.217 93.0496 234.764 91.4896 228.07C99.4396 240.44 111.89 248.901 126.63 250.441C132.69 251.071 140.89 251.041 146.9 248.921C159.39 244.511 168.62 235.55 176.04 224.25Z" fill="#B58D6B"/>
<path d="M226.12 224.301C222.34 228.474 218.29 232.37 213.97 235.99C212.01 237.637 209.916 239.031 207.69 240.171C207.646 240.193 207.595 240.2 207.547 240.189C207.498 240.178 207.455 240.15 207.425 240.111C207.395 240.071 207.381 240.023 207.383 239.973C207.386 239.924 207.406 239.877 207.44 239.84L213.91 232.431C214.27 232.257 214.62 232.177 214.96 232.191C215.053 232.193 215.142 232.232 215.208 232.299C215.273 232.367 215.31 232.457 215.31 232.551V232.801C215.311 232.819 215.316 232.837 215.326 232.853C215.336 232.869 215.349 232.881 215.365 232.89C215.38 232.898 215.397 232.902 215.414 232.9C215.431 232.898 215.447 232.892 215.46 232.88L226.12 224.301Z" fill="#938D60"/>
<path d="M189.55 230.631C187.17 235.917 184.447 241.107 181.38 246.201C180.887 247.014 180.347 248.384 179.76 250.311C177.54 252.497 175.563 253.797 173.83 254.211C171.317 254.817 170.66 254.754 171.86 254.021C179.91 248.121 184.23 238.821 189.55 230.631Z" fill="#B97E51"/>
<path d="M191.47 250.561C186.62 254.651 180.66 256.381 174.44 257.891C173.24 257.124 171.8 256.694 170.12 256.601C173.407 256.247 176.503 255.417 179.41 254.111L189.69 249.881L191.47 250.561Z" fill="#A0978D"/>
<path d="M179.24 252.671C179 253.297 179.057 253.777 179.41 254.111C176.503 255.417 173.407 256.247 170.12 256.601L179.24 252.671Z" fill="#938D60"/>
</svg>
