<svg width="266" height="268" viewBox="0 0 266 268" fill="none" xmlns="http://www.w3.org/2000/svg">
<path d="M253.355 78.2581C238.195 86.2381 223.045 91.188 205.915 91.798C195.765 92.158 188.445 88.3481 181.355 81.2481C191.969 71.5148 195.915 59.278 193.195 44.538C192.689 41.8047 191.675 38.9548 190.155 35.9881C187.935 31.6781 184.095 31.3281 179.785 32.9881C168.505 37.3381 162.165 45.628 157.445 56.198C154.639 62.4914 152.655 66.6947 151.495 68.808C151.299 69.1639 150.98 69.4358 150.599 69.5722C150.217 69.7086 149.8 69.7 149.425 69.548L143.115 66.9781C142.955 66.9126 142.819 66.8015 142.722 66.659C142.626 66.5165 142.575 66.349 142.575 66.178C142.482 54.7314 142.999 44.2847 144.125 34.8381C144.137 34.7373 144.118 34.6355 144.07 34.5459C144.022 34.4564 143.949 34.3835 143.859 34.3368C143.769 34.2902 143.667 34.272 143.566 34.2847C143.465 34.2974 143.371 34.3404 143.295 34.408C141.395 36.118 139.715 41.348 138.995 43.408C138.963 43.4982 138.902 43.575 138.821 43.6263C138.74 43.6776 138.644 43.7005 138.549 43.6913C138.454 43.6821 138.364 43.6414 138.295 43.5756C138.225 43.5098 138.18 43.4227 138.165 43.3281L136.865 34.1381C136.853 34.0425 136.807 33.9542 136.737 33.8881C136.667 33.822 136.576 33.782 136.48 33.775C136.384 33.7679 136.288 33.7942 136.209 33.8494C136.13 33.9046 136.072 33.9853 136.045 34.0781L133.655 41.9781C133.63 42.0559 133.582 42.1241 133.517 42.1735C133.451 42.2229 133.373 42.2512 133.291 42.2544C133.209 42.2577 133.128 42.2359 133.059 42.1918C132.99 42.1478 132.937 42.0837 132.905 42.0081L130.055 34.7181C130.015 34.6084 129.939 34.5153 129.839 34.4533C129.74 34.3913 129.623 34.3638 129.507 34.3752C129.39 34.3866 129.281 34.4363 129.196 34.5164C129.11 34.5965 129.054 34.7025 129.035 34.818L127.385 43.9781C127.37 44.0574 127.33 44.1295 127.27 44.1835C127.21 44.2375 127.134 44.2705 127.053 44.2773C126.973 44.2841 126.892 44.2643 126.824 44.2211C126.756 44.1779 126.704 44.1136 126.675 44.038C125.465 40.578 124.485 36.9381 122.195 34.3781C122.157 34.3343 122.106 34.3036 122.049 34.2902C121.992 34.2769 121.933 34.2815 121.879 34.3035C121.825 34.3255 121.779 34.3638 121.748 34.413C121.717 34.4622 121.702 34.5199 121.705 34.5781L123.385 66.438C123.394 66.6516 123.336 66.8625 123.22 67.0417C123.103 67.2208 122.934 67.3594 122.735 67.438L116.505 69.8781C116.222 69.9887 115.912 70.0077 115.618 69.9323C115.323 69.8569 115.06 69.691 114.865 69.4581C112.455 66.6081 110.145 60.918 105.855 52.048C101.505 43.088 94.7854 35.828 84.9954 32.678C79.8054 31.008 76.6654 32.348 74.4554 37.298C71.3354 44.278 70.7754 51.208 71.6854 58.698C72.8554 68.358 78.1854 76.928 85.9654 82.798C79.0654 82.298 73.5387 82.1581 69.3854 82.3781C60.6754 82.8281 48.6354 85.3381 38.1954 84.9581C28.5287 84.6047 18.8754 84.6181 9.23535 84.9981C23.5154 47.9981 54.0054 19.748 91.4154 6.90801C103.442 2.77467 115.579 0.501395 127.825 0.0880616C160.399 -1.02527 189.379 8.41802 214.765 28.418C231.805 41.8447 244.669 58.4581 253.355 78.2581Z" fill="#DCDDE3"/>
<path d="M181.355 81.248C177.128 84.4214 172.668 87.158 167.975 89.458C167.84 89.5232 167.687 89.5368 167.543 89.4962C167.399 89.4557 167.275 89.3638 167.195 89.238L166.185 87.6381C174.658 84.5581 181.122 79.4513 185.575 72.318C190.208 64.8913 191.708 56.398 190.075 46.838C189.615 44.1647 188.715 41.6046 187.375 39.1579C184.385 33.6879 175.935 38.638 172.615 41.478C168.335 45.138 164.965 49.508 163.225 54.888C162.638 56.3614 162.282 57.5446 162.155 58.438C161.188 65.038 160.225 71.6513 159.265 78.2779C154.265 74.3179 148.668 71.168 142.475 68.828C142.381 68.793 142.28 68.7851 142.182 68.8052C142.085 68.8252 141.995 68.8723 141.923 68.9413C141.851 69.0102 141.799 69.0981 141.775 69.1948C141.751 69.2915 141.754 69.3932 141.785 69.488L141.855 69.728C142.054 70.371 142.486 70.9138 143.065 71.248C151.365 76.108 158.455 81.1881 163.805 89.1381C163.865 89.2314 165.885 92.918 169.865 100.198C172.925 105.805 174.788 110.005 175.455 112.798C175.475 112.881 175.474 112.968 175.454 113.051C175.433 113.134 175.392 113.211 175.335 113.275C175.278 113.339 175.206 113.388 175.126 113.418C175.046 113.448 174.96 113.458 174.875 113.448C172.595 113.188 171.405 111.288 169.755 109.678C169.117 109.06 168.547 108.379 168.055 107.648C164.375 102.235 160.098 96.9814 155.225 91.8881C150.052 86.4947 144.158 82.5513 137.545 80.058C137.445 80.0221 137.337 80.015 137.233 80.0372C137.129 80.0595 137.034 80.1102 136.959 80.1836C136.883 80.257 136.831 80.3499 136.807 80.4516C136.783 80.5534 136.789 80.6597 136.825 80.758L136.995 81.248C137.115 81.596 137.304 81.9162 137.552 82.1894C137.799 82.4627 138.1 82.6833 138.435 82.838C142.088 84.498 145.298 86.5713 148.065 89.058C153.845 94.258 158.732 99.8614 162.725 105.868C164.565 108.648 167.675 114.148 165.345 117.438C165.256 117.563 165.137 117.663 164.998 117.73C164.86 117.797 164.707 117.827 164.553 117.819C164.399 117.811 164.249 117.765 164.116 117.684C163.984 117.604 163.873 117.492 163.795 117.358C158.315 107.925 151.205 99.1946 142.465 91.168C141.632 90.4013 139.565 88.758 136.265 86.238C136.117 86.1252 135.932 86.0737 135.748 86.0942C135.563 86.1147 135.394 86.2056 135.275 86.348L135.255 86.378C135.162 86.4916 135.115 86.6362 135.124 86.7828C135.133 86.9295 135.198 87.0671 135.305 87.168C139.158 90.7746 142.875 95.1479 146.455 100.288C149.508 104.661 151.692 107.938 153.005 110.118C156.285 115.568 158.165 118.048 155.535 124.018C152.045 131.958 148.045 139.828 145.535 148.118C142.925 156.778 141.715 160.028 141.105 167.168C141.091 167.33 141.118 167.493 141.183 167.642C141.248 167.791 141.349 167.921 141.477 168.021C141.605 168.121 141.756 168.188 141.916 168.215C142.076 168.243 142.241 168.23 142.395 168.178L142.655 168.088C142.98 167.976 143.269 167.78 143.494 167.52C143.719 167.26 143.871 166.946 143.935 166.608L145.705 157.528C146.092 158.201 146.575 158.788 147.155 159.288C146.168 163.088 145.838 165.508 146.165 166.548C146.612 167.941 147.022 169.338 147.395 170.738C148.055 174.305 149.235 177.621 150.935 180.688L155.985 192.328C156.011 192.39 156.055 192.444 156.112 192.482C156.168 192.52 156.234 192.54 156.302 192.541C156.369 192.542 156.436 192.524 156.493 192.488C156.551 192.452 156.596 192.4 156.625 192.338L159.935 185.278L161.125 186.568L156.885 193.588C156.813 193.706 156.768 193.84 156.755 193.978C156.741 194.116 156.758 194.257 156.805 194.388L157.875 197.488C157.893 197.535 157.923 197.576 157.963 197.606C158.002 197.637 158.05 197.656 158.099 197.661C158.149 197.666 158.199 197.657 158.245 197.636C158.29 197.614 158.328 197.58 158.355 197.538L160.705 193.528C162.038 197.675 161.725 201.871 159.765 206.118C157.885 208.818 156.755 210.668 156.375 211.668C153.075 220.358 150.635 228.998 141.405 231.368C136.125 232.721 130.585 232.648 124.785 231.148C119.985 229.901 116.448 227.098 114.175 222.738C112.122 219.418 110.402 215.871 109.015 212.098C108.795 211.493 108.514 210.913 108.175 210.368C104.455 204.368 99.5649 199.048 96.1749 192.738C91.4682 183.958 89.3349 174.508 89.7749 164.388C89.7765 164.353 89.7667 164.318 89.747 164.289C89.7273 164.26 89.6985 164.238 89.6647 164.226C89.6308 164.214 89.5934 164.213 89.5577 164.222C89.5219 164.231 89.4895 164.251 89.4649 164.278C86.1115 168.345 82.3249 172.948 78.1049 178.088C72.4315 185.001 67.5049 192.665 63.3249 201.078C63.1849 201.358 63.0149 201.555 62.8149 201.668C62.7582 201.703 62.6928 201.722 62.626 201.722C62.5592 201.721 62.4937 201.702 62.4366 201.666C62.3796 201.629 62.3333 201.577 62.303 201.516C62.2727 201.455 62.2595 201.386 62.2648 201.318C63.2782 192.011 64.9649 182.481 67.3249 172.728C73.3782 164.595 80.9349 157.491 89.9949 151.418C90.1815 151.158 90.4049 150.945 90.6649 150.778C90.76 150.716 90.8697 150.68 90.9828 150.673C91.096 150.666 91.2087 150.689 91.3099 150.738C91.411 150.788 91.497 150.863 91.5593 150.956C91.6215 151.049 91.658 151.156 91.6649 151.268C91.9449 155.055 92.0715 158.241 92.0449 160.828C91.9649 170.238 94.2849 178.268 99.3949 186.268C102.115 190.535 104.485 194.021 106.505 196.728C106.574 196.816 106.665 196.885 106.769 196.926C106.873 196.967 106.986 196.979 107.096 196.962C107.206 196.945 107.308 196.898 107.392 196.827C107.477 196.756 107.54 196.663 107.575 196.558L108.195 194.788C108.321 194.419 108.355 194.025 108.294 193.64C108.233 193.254 108.079 192.89 107.845 192.578C102.118 184.978 97.7149 176.555 94.6349 167.308C94.1815 165.941 93.9349 164.628 93.8949 163.368C93.8887 163.208 93.9218 163.047 93.9914 162.901C94.061 162.755 94.1651 162.627 94.2949 162.528C97.7482 159.921 101.332 158.848 105.045 159.308C110.555 159.988 115.095 163.968 116.375 169.048C116.411 169.201 116.399 169.362 116.339 169.508C116.279 169.653 116.174 169.777 116.04 169.86C115.907 169.943 115.75 169.981 115.593 169.97C115.436 169.959 115.286 169.899 115.165 169.798C113.665 168.525 111.445 167.625 108.505 167.098C104.435 166.358 101.595 166.138 98.8549 169.398C98.7236 169.554 98.6352 169.742 98.5984 169.944C98.5616 170.146 98.5776 170.354 98.6449 170.548L101.025 177.458C101.061 177.56 101.118 177.654 101.192 177.733C101.266 177.813 101.355 177.876 101.454 177.92C101.553 177.964 101.66 177.988 101.769 177.989C101.877 177.99 101.985 177.97 102.085 177.928C106.675 176.018 110.585 173.308 115.365 175.768C115.456 175.815 115.557 175.842 115.659 175.846C115.762 175.851 115.864 175.833 115.96 175.794C116.055 175.755 116.14 175.696 116.21 175.62C116.28 175.545 116.333 175.456 116.365 175.358C117.065 173.198 117.688 170.915 118.235 168.508C118.295 168.255 118.688 167.768 119.415 167.048C119.527 166.938 119.614 166.806 119.67 166.659C119.725 166.512 119.747 166.354 119.735 166.198C119.582 163.951 119.072 161.538 118.205 158.958C115.105 149.738 109.515 141.798 105.465 133.458C105.318 133.155 105.069 132.913 104.762 132.774C104.455 132.635 104.11 132.608 103.785 132.698L96.7549 134.618C96.1496 134.785 95.508 134.759 94.9186 134.546C94.3293 134.333 93.8213 133.942 93.4649 133.428C91.4549 130.538 91.1249 127.148 91.0549 123.718C91.053 123.53 90.9803 123.349 90.851 123.21C90.7217 123.072 90.5449 122.985 90.3549 122.968C89.6949 122.901 89.0182 122.951 88.3249 123.118C87.3315 123.038 86.6282 122.665 86.2149 121.998C86.1339 121.871 86.0996 121.72 86.1178 121.57C86.1361 121.42 86.2057 121.282 86.3149 121.178L88.1549 119.468C91.5549 117.488 94.9382 117.381 98.3049 119.148C99.9515 120.015 101.428 121.528 102.735 123.688C105.482 128.228 108.852 134.018 112.845 141.058C117.678 149.571 120.642 158.228 121.735 167.028C121.771 167.317 121.886 167.591 122.068 167.818C122.25 168.046 122.491 168.219 122.765 168.318L122.785 168.328C122.881 168.365 122.985 168.377 123.087 168.363C123.189 168.35 123.287 168.311 123.37 168.25C123.453 168.19 123.52 168.109 123.565 168.016C123.609 167.924 123.63 167.821 123.625 167.718C123.192 158.291 121.185 149.635 117.605 141.748C113.145 131.921 110.542 126.295 109.795 124.868C107.768 121.001 107.912 117.138 110.225 113.278C115.172 105.025 118.908 99.0813 121.435 95.448C122.735 93.588 125.235 90.9546 128.935 87.548C129.375 87.148 129.555 86.508 129.485 85.968C129.473 85.8744 129.439 85.7851 129.385 85.7078C129.331 85.6304 129.26 85.5673 129.176 85.5239C129.092 85.4806 128.999 85.4583 128.905 85.459C128.811 85.4597 128.718 85.4834 128.635 85.5279C125.685 87.1779 123.355 89.528 121.075 91.578C112.995 98.808 108.705 106.388 101.405 116.768C101.27 116.959 101.085 117.11 100.87 117.203C100.655 117.296 100.419 117.327 100.187 117.294C99.9551 117.261 99.7369 117.164 99.5566 117.015C99.3762 116.866 99.2407 116.67 99.1649 116.448L98.8149 115.428C98.5948 114.793 98.5114 114.119 98.57 113.45C98.6286 112.781 98.8279 112.133 99.1549 111.548C103.568 103.615 109.482 96.0614 116.895 88.8881C117.842 87.9747 121.392 85.4846 127.545 81.418C127.749 81.284 127.914 81.0983 128.025 80.879C128.135 80.6598 128.187 80.4147 128.175 80.168L128.155 79.838C128.15 79.7298 128.119 79.6247 128.062 79.5321C128.006 79.4395 127.927 79.3624 127.833 79.3077C127.739 79.2531 127.632 79.2227 127.522 79.2192C127.412 79.2158 127.303 79.2394 127.205 79.288C122.592 81.5813 119.268 83.568 117.235 85.248C108.508 92.448 101.095 101.015 94.9949 110.948C94.4015 111.908 93.2982 112.571 91.6849 112.938C91.3182 110.311 91.8082 107.555 93.1549 104.668C95.3615 99.948 97.7482 95.3979 100.315 91.0179C102.985 86.4579 107.775 81.948 111.115 79.598C113.295 78.0713 117.505 75.5014 123.745 71.8881C123.992 71.7472 124.202 71.5375 124.349 71.2871C124.495 71.0367 124.57 70.7574 124.563 70.4867C124.557 70.216 124.469 69.9666 124.312 69.7721C124.155 69.5775 123.936 69.447 123.685 69.3979C123.412 69.3446 123.095 69.408 122.735 69.588C122.155 69.868 121.855 70.0113 121.835 70.0179C114.448 72.0579 108.185 75.878 103.045 81.478C102.958 81.4647 102.868 81.4513 102.775 81.438C104.685 79.298 105.685 77.4779 105.265 74.4079C104.155 66.1379 104.205 59.588 101.625 53.388C98.7549 45.848 90.7649 36.488 81.8249 36.748C76.9249 36.878 74.9849 46.688 74.6449 50.628C73.1849 67.338 83.2149 81.508 98.4549 87.498C98.1482 88.2914 97.8115 88.8513 97.4449 89.178C97.326 89.2818 97.1766 89.3446 97.0183 89.3572C96.86 89.3698 96.7011 89.3316 96.5649 89.248L85.9649 82.798C78.1849 76.928 72.8549 68.358 71.6849 58.698C70.7749 51.208 71.3349 44.278 74.4549 37.298C76.6649 32.348 79.8049 31.008 84.9949 32.678C94.7849 35.828 101.505 43.088 105.855 52.048C110.145 60.918 112.455 66.608 114.865 69.458C115.06 69.691 115.323 69.8569 115.617 69.9322C115.911 70.0076 116.222 69.9886 116.505 69.878L122.735 67.438C122.934 67.3593 123.103 67.2208 123.219 67.0416C123.336 66.8624 123.394 66.6515 123.385 66.438L121.705 34.578C121.702 34.5198 121.717 34.4622 121.748 34.413C121.779 34.3637 121.825 34.3255 121.879 34.3035C121.933 34.2814 121.992 34.2768 122.049 34.2901C122.105 34.3035 122.156 34.3343 122.195 34.378C124.485 36.938 125.465 40.578 126.675 44.038C126.703 44.1136 126.755 44.1779 126.824 44.2211C126.892 44.2642 126.972 44.284 127.053 44.2772C127.133 44.2704 127.209 44.2375 127.269 44.1835C127.329 44.1294 127.37 44.0573 127.385 43.978L129.035 34.818C129.054 34.7025 129.11 34.5964 129.195 34.5163C129.28 34.4362 129.39 34.3865 129.506 34.3751C129.623 34.3637 129.74 34.3912 129.839 34.4532C129.938 34.5153 130.014 34.6083 130.055 34.718L132.905 42.008C132.936 42.0836 132.99 42.1477 133.059 42.1918C133.128 42.2358 133.209 42.2577 133.29 42.2544C133.372 42.2511 133.451 42.2229 133.516 42.1734C133.581 42.124 133.63 42.0558 133.655 41.978L136.045 34.078C136.071 33.9853 136.129 33.9045 136.208 33.8494C136.287 33.7942 136.383 33.7679 136.479 33.7749C136.575 33.7819 136.666 33.8219 136.736 33.888C136.807 33.9542 136.852 34.0424 136.865 34.138L138.165 43.328C138.179 43.4226 138.225 43.5097 138.294 43.5755C138.364 43.6413 138.453 43.6821 138.549 43.6913C138.644 43.7005 138.74 43.6775 138.82 43.6262C138.901 43.5749 138.963 43.4981 138.995 43.4079C139.715 41.3479 141.395 36.1179 143.295 34.4079C143.37 34.3404 143.465 34.2974 143.565 34.2847C143.666 34.2719 143.768 34.2901 143.858 34.3368C143.948 34.3834 144.022 34.4564 144.07 34.5459C144.117 34.6354 144.136 34.7373 144.125 34.838C142.998 44.2847 142.482 54.7313 142.575 66.178C142.575 66.349 142.626 66.5164 142.722 66.6589C142.818 66.8014 142.955 66.9125 143.115 66.978L149.425 69.548C149.799 69.6999 150.217 69.7085 150.598 69.5721C150.98 69.4357 151.299 69.1639 151.495 68.808C152.655 66.6946 154.638 62.4913 157.445 56.198C162.165 45.628 168.505 37.338 179.785 32.988C184.095 31.328 187.935 31.678 190.155 35.988C191.675 38.9547 192.688 41.8046 193.195 44.538C195.915 59.278 191.968 71.5147 181.355 81.248ZM164.755 97.668C164.465 95.058 164.365 93.908 163.075 92.068C160.935 88.9813 158.275 86.228 155.095 83.808C149.875 79.848 144.905 76.1547 140.185 72.728C140.083 72.6532 139.96 72.611 139.833 72.6069C139.707 72.6028 139.582 72.637 139.475 72.7051C139.368 72.7731 139.284 72.8718 139.234 72.9883C139.184 73.1048 139.17 73.2337 139.195 73.358C139.542 75.1514 140.355 76.4579 141.635 77.2779C148.935 81.9479 153.665 84.848 158.185 91.448C159.805 93.828 162.225 96.628 164.065 98.058C164.132 98.1097 164.213 98.1405 164.297 98.1466C164.381 98.1526 164.466 98.1337 164.539 98.092C164.613 98.0504 164.673 97.988 164.711 97.9126C164.749 97.8372 164.765 97.752 164.755 97.668ZM125.095 73.788C117.588 78.288 112.668 81.4646 110.335 83.318C105.955 86.788 101.245 92.188 99.3449 97.818C99.327 97.8709 99.3244 97.9278 99.3371 97.9822C99.3499 98.0365 99.3776 98.0863 99.4171 98.1258C99.4566 98.1653 99.5063 98.1929 99.5607 98.2057C99.6151 98.2184 99.6719 98.2158 99.7249 98.198C100.172 98.038 100.538 97.8246 100.825 97.558C103.498 95.0246 105.978 92.318 108.265 89.438C112.605 83.948 117.395 81.558 124.525 77.588C125.115 77.2608 125.553 76.7189 125.745 76.078L126.185 74.6381C126.229 74.4948 126.228 74.3416 126.183 74.1987C126.138 74.0559 126.05 73.9301 125.932 73.838C125.814 73.7459 125.671 73.6918 125.521 73.6828C125.372 73.6739 125.223 73.7106 125.095 73.788ZM129.725 92.3881C129.766 92.2924 129.772 92.1851 129.742 92.0853C129.712 91.9856 129.647 91.8998 129.559 91.8434C129.472 91.7869 129.367 91.7634 129.263 91.7771C129.16 91.7908 129.065 91.8407 128.995 91.918C127.908 93.0846 126.848 94.6346 125.815 96.568C122.655 102.441 119.545 108.338 116.485 114.258C115.335 116.488 114.265 118.938 114.815 121.448C115.235 123.421 115.725 125.071 116.285 126.398C119.812 134.805 122.325 142.865 123.825 150.578C124.205 152.545 125.095 158.631 126.495 168.838C126.528 169.086 126.649 169.315 126.837 169.482C127.024 169.649 127.264 169.743 127.515 169.748H127.545C127.665 169.749 127.784 169.727 127.896 169.681C128.007 169.636 128.107 169.568 128.192 169.483C128.276 169.398 128.342 169.297 128.385 169.186C128.429 169.075 128.449 168.957 128.445 168.838C128.298 162.918 127.738 157.001 126.765 151.088C125.625 144.141 124.085 135.675 122.145 125.688C121.052 120.035 121.602 114.171 123.795 108.098C126.308 101.118 128.285 95.8814 129.725 92.3881ZM135.565 92.208C135.496 92.2028 135.428 92.2158 135.366 92.2456C135.304 92.2754 135.251 92.3211 135.213 92.3779C135.174 92.4347 135.151 92.5007 135.146 92.5692C135.141 92.6377 135.155 92.7062 135.185 92.7679C137.458 97.7146 139.928 104.081 142.595 111.868C143.728 115.181 144.078 118.171 143.645 120.838C142.735 126.438 141.655 133.818 140.185 140.288C137.865 150.508 136.465 160.368 135.985 169.868C135.98 169.977 136.008 170.084 136.064 170.177C136.12 170.27 136.203 170.344 136.301 170.39C136.4 170.436 136.51 170.452 136.617 170.435C136.724 170.419 136.825 170.371 136.905 170.298L137.945 169.328C138.409 168.896 138.7 168.306 138.765 167.668C140.225 152.328 143.955 137.505 149.955 123.198C150.655 121.518 150.995 119.408 150.365 117.858C146.992 109.651 142.338 101.305 136.405 92.818C136.138 92.4246 135.858 92.2213 135.565 92.208ZM132.475 99.348C130.642 103.821 129.005 108.725 127.565 114.058C126.455 118.208 126.885 124.538 127.305 127.838C129.332 143.585 130.552 156.998 130.965 168.078C130.973 168.259 131.037 168.433 131.148 168.576C131.259 168.719 131.412 168.825 131.585 168.878L133.325 169.398C133.422 169.427 133.526 169.434 133.626 169.417C133.726 169.399 133.822 169.359 133.904 169.299C133.986 169.239 134.054 169.161 134.101 169.07C134.148 168.98 134.173 168.88 134.175 168.778C134.265 154.758 135.665 143.908 138.055 124.578C138.482 121.125 138.438 118.331 137.925 116.198C136.898 111.918 135.385 106.318 133.385 99.3979C133.358 99.3005 133.302 99.214 133.224 99.1505C133.145 99.087 133.049 99.0498 132.948 99.0443C132.847 99.0388 132.747 99.0651 132.662 99.1196C132.577 99.1741 132.512 99.2541 132.475 99.348ZM94.9139 122.557C94.7296 122.849 94.6848 123.211 94.7891 123.566C94.8934 123.92 95.1384 124.237 95.4702 124.447C95.6344 124.551 95.8151 124.625 96.0018 124.666C96.1885 124.706 96.3776 124.713 96.5582 124.684C96.7389 124.656 96.9076 124.593 97.0548 124.499C97.2019 124.406 97.3246 124.283 97.4159 124.139C97.6001 123.847 97.6449 123.485 97.5406 123.13C97.4363 122.776 97.1913 122.459 96.8596 122.249C96.6953 122.145 96.5146 122.071 96.3279 122.03C96.1412 121.989 95.9522 121.983 95.7715 122.012C95.5908 122.04 95.4221 122.103 95.2749 122.197C95.1278 122.29 95.0051 122.413 94.9139 122.557ZM109.475 192.178L113.965 181.148C114.001 181.062 114.017 180.969 114.012 180.876C114.008 180.782 113.983 180.691 113.939 180.609C113.895 180.527 113.833 180.455 113.758 180.4C113.683 180.344 113.596 180.306 113.505 180.288C110.178 179.615 107.338 180.421 104.985 182.708C104.784 182.902 104.651 183.155 104.604 183.43C104.557 183.706 104.6 183.989 104.725 184.238L108.705 192.208C108.74 192.282 108.797 192.344 108.867 192.386C108.937 192.428 109.018 192.449 109.1 192.446C109.182 192.442 109.261 192.415 109.327 192.368C109.394 192.32 109.445 192.254 109.475 192.178ZM152.305 196.058C151.434 195.555 150.218 195.734 148.924 196.554C147.629 197.375 146.363 198.77 145.403 200.433C144.443 202.096 143.868 203.89 143.804 205.422C143.741 206.953 144.194 208.095 145.065 208.598C145.935 209.101 147.152 208.922 148.446 208.102C149.74 207.281 151.007 205.886 151.967 204.223C152.927 202.56 153.502 200.766 153.565 199.234C153.629 197.703 153.175 196.561 152.305 196.058ZM112.895 196.258C106.145 202.828 120.145 213.898 121.655 206.398C121.692 206.219 121.691 206.034 121.652 205.856C121.612 205.678 121.535 205.512 121.425 205.368C119.655 203.038 118.005 198.058 114.015 196.088C113.834 195.997 113.628 195.964 113.428 195.995C113.227 196.025 113.041 196.117 112.895 196.258Z" fill="#363439"/>
<path d="M101.626 53.3881C100.046 52.7081 98.4057 51.478 96.7057 49.698C94.999 47.9114 93.279 47.268 91.5457 47.768C90.279 46.728 88.8423 45.368 87.2357 43.688C84.5057 40.828 82.2057 42.1581 81.3157 45.6081C79.209 53.7814 80.1623 61.4881 84.1757 68.7281C87.7557 75.1881 93.1057 79.6114 100.226 81.9981C101.272 82.5714 102.122 82.3847 102.776 81.438C102.869 81.4514 102.959 81.4647 103.046 81.4781L98.4557 87.4981C83.2157 81.5081 73.1857 67.3381 74.6457 50.6281C74.9857 46.6881 76.9257 36.8781 81.8257 36.7481C90.7657 36.4881 98.7557 45.8481 101.626 53.3881Z" fill="#ABA8A5"/>
<path d="M166.186 87.6381L164.026 83.8681C165.532 83.0881 167.029 82.2947 168.516 81.4881C179.846 75.3281 185.696 64.138 185.256 51.328C185.196 49.418 183.486 39.928 179.576 42.788C177.182 44.5347 174.979 46.458 172.966 48.558C172.992 48.2447 172.996 47.998 172.976 47.818C172.962 47.6819 172.912 47.5521 172.829 47.443C172.747 47.3339 172.635 47.2498 172.508 47.2001C172.381 47.1504 172.242 47.1369 172.107 47.1613C171.973 47.1856 171.848 47.2468 171.746 47.338L163.226 54.8881C164.966 49.5081 168.336 45.1381 172.616 41.4781C175.936 38.6381 184.386 33.688 187.376 39.158C188.716 41.6047 189.616 44.1647 190.076 46.838C191.709 56.398 190.209 64.8914 185.576 72.318C181.122 79.4514 174.659 84.5581 166.186 87.6381Z" fill="#ABA8A5"/>
<path d="M91.5453 47.768C93.0586 49.748 94.2153 51.7347 95.0153 53.7281C95.6553 55.3147 95.982 57.5714 95.9953 60.4981C96.0153 65.3714 96.292 70.2247 96.8253 75.058C96.9453 76.158 98.0786 78.4714 100.225 81.9981C93.1053 79.6114 87.7553 75.1881 84.1753 68.7281C80.162 61.4881 79.2086 53.7814 81.3153 45.6081C82.2053 42.1581 84.5053 40.828 87.2353 43.688C88.842 45.368 90.2786 46.728 91.5453 47.768Z" fill="#877F81"/>
<path d="M164.026 83.868L160.846 79.588C160.892 79.2813 161.016 79.108 161.216 79.068C161.248 79.0589 161.283 79.0598 161.315 79.0705C161.347 79.0812 161.375 79.1013 161.396 79.128L162.676 80.848C162.815 81.0366 162.998 81.1888 163.209 81.2917C163.419 81.3947 163.652 81.4454 163.886 81.4395C164.121 81.4337 164.35 81.3713 164.556 81.2579C164.761 81.1445 164.936 80.9833 165.066 80.7879C169.996 73.3679 168.536 66.118 168.596 56.968C168.596 56.5507 168.663 56.1321 168.796 55.728C169.649 53.068 171.039 50.678 172.966 48.558C174.979 46.458 177.182 44.5346 179.576 42.7879C183.486 39.9279 185.196 49.418 185.256 51.328C185.696 64.138 179.846 75.328 168.516 81.488C167.029 82.2947 165.532 83.088 164.026 83.868Z" fill="#7A7068"/>
<path d="M101.625 53.3881C104.205 59.5881 104.155 66.138 105.265 74.408C105.685 77.478 104.685 79.298 102.775 81.438C102.122 82.3847 101.272 82.5714 100.225 81.9981C98.0782 78.4714 96.9449 76.158 96.8249 75.058C96.2916 70.2247 96.0149 65.3714 95.9949 60.4981C95.9816 57.5714 95.6549 55.3147 95.0149 53.7281C94.2149 51.7347 93.0583 49.748 91.5449 47.768C93.2783 47.268 94.9982 47.9114 96.7049 49.698C98.4049 51.478 100.045 52.7081 101.625 53.3881Z" fill="#DCD5C9"/>
<path d="M172.966 48.558C171.039 50.678 169.649 53.068 168.796 55.728C168.663 56.1321 168.596 56.5507 168.596 56.968C168.536 66.118 169.996 73.3679 165.066 80.7879C164.936 80.9833 164.761 81.1445 164.556 81.2579C164.35 81.3713 164.121 81.4337 163.886 81.4395C163.652 81.4454 163.419 81.3947 163.209 81.2917C162.998 81.1888 162.815 81.0366 162.676 80.848L161.396 79.128C161.375 79.1013 161.347 79.0812 161.315 79.0705C161.283 79.0598 161.248 79.0589 161.216 79.068C161.016 79.108 160.892 79.2813 160.846 79.588C160.479 79.0347 159.952 78.5979 159.266 78.2779C160.226 71.6513 161.189 65.038 162.156 58.438C162.282 57.5446 162.639 56.3614 163.226 54.888L171.746 47.338C171.848 47.2468 171.973 47.1856 172.107 47.1612C172.242 47.1369 172.381 47.1503 172.508 47.2C172.636 47.2498 172.747 47.3339 172.829 47.443C172.912 47.552 172.962 47.6818 172.976 47.818C172.996 47.998 172.992 48.2446 172.966 48.558Z" fill="#DCD5C9"/>
<path d="M159.265 78.2779C159.952 78.5979 160.478 79.0346 160.845 79.588L164.025 83.868L166.185 87.638L167.195 89.238C167.275 89.3638 167.399 89.4556 167.543 89.4962C167.687 89.5367 167.841 89.5232 167.975 89.458C172.668 87.158 177.128 84.4213 181.355 81.248C188.445 88.348 195.765 92.1579 205.915 91.7979C223.045 91.1879 238.195 86.238 253.355 78.258C257.502 87.5314 260.572 97.1313 262.565 107.058C264.805 118.778 265.635 130.705 265.055 142.838C248.915 147.998 232.355 148.788 215.555 150.148C211.522 150.475 207.915 151.171 204.735 152.238C198.185 154.438 194.845 159.438 192.045 165.478C186.258 160.098 181.155 155.665 176.735 152.178C175.342 151.078 174.538 150.071 174.325 149.158C174.298 149.065 174.285 148.967 174.285 148.868V139.288C174.283 139.144 174.237 139.004 174.153 138.886C174.069 138.769 173.951 138.68 173.815 138.631C173.68 138.582 173.532 138.576 173.393 138.613C173.253 138.65 173.129 138.728 173.035 138.838C172.188 139.838 171.052 140.755 169.625 141.588C167.395 142.898 164.015 141.958 161.915 142.868C160.508 143.488 158.725 144.978 156.565 147.338C152.818 151.438 150.198 156.351 148.705 162.078C148.678 162.163 148.683 162.256 148.721 162.338C148.758 162.419 148.825 162.484 148.907 162.519C148.99 162.554 149.083 162.557 149.167 162.527C149.252 162.497 149.322 162.437 149.365 162.358C152.305 157.638 155.345 153.588 160.245 151.078C163.845 149.238 169.275 150.288 173.095 149.128C173.153 149.109 173.214 149.104 173.274 149.113C173.334 149.122 173.391 149.145 173.44 149.18C173.489 149.215 173.53 149.261 173.559 149.315C173.587 149.368 173.603 149.427 173.605 149.488C173.625 150.741 173.512 154.831 173.265 161.758C172.845 173.688 167.565 183.828 160.705 193.528L158.355 197.538C158.328 197.58 158.29 197.614 158.245 197.636C158.2 197.657 158.149 197.666 158.1 197.661C158.05 197.656 158.002 197.637 157.963 197.606C157.923 197.576 157.893 197.535 157.875 197.488L156.805 194.388C156.758 194.256 156.741 194.116 156.755 193.978C156.768 193.84 156.813 193.706 156.885 193.588L161.125 186.568C162.755 183.578 164.905 180.678 166.245 177.848C168.195 173.718 171.325 166.818 171.335 162.118C171.336 162.06 171.322 162.003 171.296 161.952C171.269 161.901 171.231 161.857 171.183 161.825C171.136 161.792 171.081 161.771 171.024 161.765C170.966 161.759 170.908 161.767 170.855 161.788L170.485 161.938C170.375 161.981 170.255 161.995 170.138 161.979C170.021 161.963 169.91 161.918 169.815 161.848C161.095 155.518 150.785 161.038 147.995 170.468C147.967 170.566 147.973 170.67 148.011 170.764C148.048 170.858 148.116 170.937 148.203 170.99C148.291 171.043 148.394 171.067 148.497 171.057C148.6 171.048 148.698 171.006 148.775 170.938C151.875 168.058 155.612 166.568 159.985 166.468C163.445 166.388 167.145 168.818 165.825 172.588C165.812 172.621 165.798 172.651 165.785 172.678L163.265 178.538C163.199 178.686 163.096 178.815 162.966 178.912C162.836 179.009 162.683 179.071 162.522 179.091C162.36 179.111 162.197 179.089 162.047 179.027C161.897 178.966 161.765 178.866 161.665 178.738C159.018 175.338 155.158 173.958 150.085 174.598C149.93 174.619 149.773 174.608 149.622 174.566C149.472 174.524 149.331 174.452 149.209 174.354C149.087 174.256 148.985 174.134 148.911 173.995C148.836 173.857 148.79 173.705 148.775 173.548C148.655 172.115 148.195 171.178 147.395 170.738C147.022 169.338 146.612 167.941 146.165 166.548C145.838 165.508 146.168 163.088 147.155 159.288C150.335 149.698 155.535 141.648 159.535 132.898C159.616 132.726 159.759 132.592 159.936 132.523C160.113 132.454 160.309 132.456 160.485 132.528C162.785 133.468 165.202 134.105 167.735 134.438C173.965 135.258 174.305 127.038 173.885 123.128C173.878 123.052 173.887 122.975 173.911 122.902C173.935 122.829 173.973 122.762 174.024 122.706C174.075 122.649 174.137 122.604 174.206 122.574C174.275 122.543 174.35 122.527 174.425 122.528L176.975 122.548C177.262 122.548 177.541 122.456 177.771 122.285C178.002 122.115 178.172 121.874 178.256 121.6C178.34 121.326 178.333 121.032 178.238 120.762C178.142 120.491 177.963 120.259 177.725 120.098C176.245 119.105 174.718 118.358 173.145 117.858C168.385 116.358 163.465 121.228 161.135 125.128C154.775 135.758 148.945 145.988 145.705 157.528L143.935 166.608C143.871 166.946 143.719 167.26 143.494 167.52C143.269 167.78 142.98 167.976 142.655 168.088L142.395 168.178C142.241 168.23 142.077 168.243 141.916 168.215C141.756 168.188 141.605 168.121 141.477 168.021C141.349 167.921 141.248 167.79 141.183 167.642C141.118 167.493 141.091 167.33 141.105 167.168C141.715 160.028 142.925 156.778 145.535 148.118C148.045 139.828 152.045 131.958 155.535 124.018C158.165 118.048 156.285 115.568 153.005 110.118C151.692 107.938 149.508 104.661 146.455 100.288C142.875 95.1479 139.158 90.7746 135.305 87.1679C135.198 87.0671 135.133 86.9294 135.124 86.7828C135.115 86.6362 135.162 86.4915 135.255 86.378L135.275 86.348C135.394 86.2056 135.563 86.1147 135.748 86.0942C135.932 86.0737 136.118 86.1252 136.265 86.238C139.565 88.758 141.632 90.4013 142.465 91.1679C151.205 99.1946 158.315 107.925 163.795 117.358C163.873 117.492 163.984 117.604 164.116 117.684C164.249 117.765 164.399 117.811 164.553 117.819C164.707 117.827 164.86 117.797 164.998 117.73C165.137 117.663 165.256 117.563 165.345 117.438C167.675 114.148 164.565 108.648 162.725 105.868C158.732 99.8613 153.845 94.2579 148.065 89.0579C145.298 86.5713 142.088 84.498 138.435 82.838C138.1 82.6833 137.799 82.4627 137.552 82.1894C137.305 81.9162 137.115 81.596 136.995 81.248L136.825 80.758C136.789 80.6596 136.783 80.5533 136.807 80.4516C136.831 80.3499 136.883 80.257 136.959 80.1836C137.034 80.1102 137.129 80.0594 137.233 80.0372C137.337 80.015 137.445 80.0221 137.545 80.0579C144.158 82.5513 150.052 86.4947 155.225 91.888C160.098 96.9814 164.375 102.235 168.055 107.648C168.547 108.379 169.117 109.06 169.755 109.678C171.405 111.288 172.595 113.188 174.875 113.448C174.96 113.458 175.046 113.448 175.126 113.418C175.206 113.388 175.278 113.339 175.335 113.275C175.392 113.211 175.433 113.134 175.454 113.051C175.475 112.968 175.475 112.881 175.455 112.798C174.788 110.005 172.925 105.805 169.865 100.198C165.885 92.918 163.865 89.2314 163.805 89.138C158.455 81.188 151.365 76.108 143.065 71.248C142.486 70.9138 142.054 70.371 141.855 69.728L141.785 69.488C141.754 69.3931 141.751 69.2915 141.775 69.1948C141.799 69.0981 141.851 69.0102 141.923 68.9412C141.995 68.8723 142.085 68.8252 142.182 68.8051C142.28 68.7851 142.382 68.793 142.475 68.828C148.668 71.168 154.265 74.3179 159.265 78.2779Z" fill="#D7D7D4"/>
<path d="M91.6853 112.938C89.6586 115.085 88.4819 117.261 88.1553 119.468L86.3153 121.178C86.2061 121.282 86.1365 121.42 86.1183 121.57C86.1 121.72 86.1343 121.871 86.2153 121.998C86.6286 122.665 87.3319 123.038 88.3253 123.118L90.8453 135.268C90.9499 135.785 90.9119 136.318 90.7353 136.808C89.0619 141.455 88.8153 146.325 89.9953 151.418C80.9353 157.491 73.3786 164.595 67.3253 172.728L63.3753 178.118C58.9219 175.805 54.8286 174.268 51.0953 173.508C36.8419 170.615 21.7286 169.905 5.75526 171.378L3.61526 165.158C1.7086 155.658 0.505263 146.228 0.00526318 136.868C-0.0614035 128.648 0.50526 120.558 1.70526 112.598C3.23859 103.111 5.74859 93.9113 9.23526 84.998C18.8753 84.618 28.5286 84.6046 38.1953 84.958C48.6353 85.338 60.6753 82.828 69.3853 82.378C73.5386 82.158 79.0653 82.2979 85.9653 82.7979L96.5653 89.248C96.7015 89.3316 96.8604 89.3697 97.0187 89.3571C97.177 89.3446 97.3265 89.2818 97.4453 89.1779C97.8119 88.8513 98.1486 88.2913 98.4553 87.498L103.045 81.478C108.185 75.878 114.449 72.0579 121.835 70.0179C121.855 70.0112 122.155 69.868 122.735 69.588C123.095 69.408 123.412 69.3446 123.685 69.3979C123.937 69.447 124.155 69.5775 124.312 69.7721C124.469 69.9666 124.557 70.2159 124.563 70.4867C124.57 70.7574 124.495 71.0367 124.349 71.2871C124.203 71.5375 123.992 71.7472 123.745 71.888C117.505 75.5014 113.295 78.0713 111.115 79.598C107.775 81.948 102.985 86.4579 100.315 91.0179C97.7486 95.3979 95.3619 99.9479 93.1553 104.668C91.8086 107.555 91.3186 110.311 91.6853 112.938Z" fill="#D7D7D4"/>
<path d="M164.755 97.6679C164.765 97.752 164.75 97.8371 164.712 97.9126C164.673 97.988 164.614 98.0504 164.54 98.092C164.466 98.1336 164.382 98.1526 164.298 98.1466C164.213 98.1405 164.132 98.1097 164.065 98.0579C162.225 96.6279 159.805 93.828 158.185 91.448C153.665 84.848 148.935 81.9479 141.635 77.2779C140.355 76.4579 139.542 75.1513 139.195 73.358C139.171 73.2336 139.185 73.1047 139.235 72.9882C139.285 72.8718 139.368 72.7731 139.475 72.705C139.582 72.637 139.707 72.6028 139.834 72.6069C139.961 72.611 140.083 72.6532 140.185 72.728C144.905 76.1547 149.875 79.8479 155.095 83.8079C158.275 86.2279 160.935 88.9813 163.075 92.068C164.365 93.908 164.465 95.0579 164.755 97.6679Z" fill="#D7D7D4"/>
<path d="M125.096 73.7879C125.224 73.7105 125.373 73.6739 125.522 73.6828C125.672 73.6918 125.815 73.7459 125.933 73.838C126.051 73.9301 126.139 74.0559 126.184 74.1987C126.229 74.3415 126.23 74.4948 126.186 74.638L125.746 76.078C125.553 76.7189 125.116 77.2608 124.526 77.588C117.396 81.558 112.606 83.948 108.266 89.438C105.979 92.318 103.499 95.0246 100.826 97.558C100.539 97.8246 100.172 98.038 99.7257 98.198C99.6728 98.2158 99.6159 98.2184 99.5616 98.2057C99.5072 98.1929 99.4574 98.1653 99.418 98.1258C99.3785 98.0863 99.3508 98.0365 99.338 97.9822C99.3253 97.9278 99.3279 97.8709 99.3457 97.818C101.246 92.188 105.956 86.788 110.336 83.318C112.669 81.4646 117.589 78.2879 125.096 73.7879Z" fill="#F5EDE2"/>
<path d="M88.1553 119.468C88.4819 117.261 89.6586 115.085 91.6853 112.938C93.2986 112.571 94.4019 111.908 94.9953 110.948C101.095 101.015 108.509 92.448 117.235 85.248C119.269 83.568 122.592 81.5813 127.205 79.2879C127.304 79.2394 127.413 79.2158 127.522 79.2192C127.632 79.2226 127.739 79.2531 127.833 79.3077C127.928 79.3623 128.007 79.4395 128.063 79.5321C128.119 79.6247 128.151 79.7298 128.155 79.838L128.175 80.1679C128.187 80.4146 128.136 80.6598 128.025 80.879C127.915 81.0982 127.749 81.284 127.545 81.4179C121.392 85.4846 117.842 87.9747 116.895 88.888C109.482 96.0614 103.569 103.615 99.1553 111.548C98.8283 112.133 98.629 112.781 98.5704 113.45C98.5118 114.119 98.5953 114.793 98.8153 115.428L99.1653 116.448C99.2411 116.669 99.3766 116.866 99.557 117.015C99.7373 117.164 99.9555 117.261 100.187 117.294C100.419 117.327 100.655 117.296 100.87 117.203C101.085 117.11 101.27 116.959 101.405 116.768C108.705 106.388 112.995 98.808 121.075 91.578C123.355 89.528 125.685 87.1779 128.635 85.5279C128.718 85.4833 128.811 85.4597 128.905 85.4589C129 85.4582 129.093 85.4806 129.176 85.5239C129.26 85.5672 129.332 85.6303 129.386 85.7077C129.44 85.7851 129.474 85.8744 129.485 85.968C129.555 86.508 129.375 87.1479 128.935 87.5479C125.235 90.9546 122.735 93.588 121.435 95.448C118.909 99.0813 115.172 105.025 110.225 113.278C107.912 117.138 107.769 121.001 109.795 124.868C110.542 126.295 113.145 131.921 117.605 141.748C121.185 149.635 123.192 158.291 123.625 167.718C123.63 167.821 123.61 167.924 123.565 168.016C123.521 168.109 123.454 168.19 123.37 168.25C123.287 168.311 123.19 168.35 123.088 168.363C122.985 168.377 122.882 168.365 122.785 168.328L122.765 168.318C122.491 168.219 122.25 168.046 122.068 167.818C121.887 167.591 121.771 167.317 121.735 167.028C120.642 158.228 117.679 149.571 112.845 141.058C108.852 134.018 105.482 128.228 102.735 123.688C101.429 121.528 99.9519 120.015 98.3053 119.148C94.9386 117.381 91.5553 117.488 88.1553 119.468Z" fill="#F5EDE2"/>
<path d="M129.726 92.3881C128.286 95.8814 126.309 101.118 123.796 108.098C121.602 114.171 121.052 120.035 122.146 125.688C124.086 135.675 125.626 144.141 126.766 151.088C127.739 157.001 128.299 162.918 128.446 168.838C128.45 168.957 128.429 169.075 128.386 169.186C128.342 169.297 128.277 169.398 128.192 169.483C128.108 169.568 128.008 169.636 127.896 169.681C127.785 169.727 127.666 169.749 127.546 169.748H127.516C127.265 169.743 127.024 169.649 126.837 169.482C126.65 169.315 126.529 169.086 126.496 168.838C125.096 158.631 124.206 152.545 123.826 150.578C122.326 142.865 119.812 134.805 116.286 126.398C115.726 125.071 115.236 123.421 114.816 121.448C114.266 118.938 115.336 116.488 116.486 114.258C119.546 108.338 122.656 102.441 125.816 96.568C126.849 94.6347 127.909 93.0846 128.996 91.918C129.066 91.8407 129.161 91.7908 129.264 91.7771C129.367 91.7634 129.472 91.787 129.56 91.8434C129.648 91.8998 129.712 91.9856 129.743 92.0853C129.773 92.1851 129.767 92.2924 129.726 92.3881Z" fill="#F5EDE2"/>
<path d="M135.565 92.208C135.858 92.2214 136.138 92.4247 136.405 92.818C142.338 101.305 146.992 109.651 150.365 117.858C150.995 119.408 150.655 121.518 149.955 123.198C143.955 137.505 140.225 152.328 138.765 167.668C138.7 168.306 138.409 168.896 137.945 169.328L136.905 170.298C136.825 170.371 136.725 170.419 136.617 170.435C136.51 170.452 136.4 170.436 136.302 170.39C136.203 170.344 136.121 170.27 136.064 170.177C136.008 170.084 135.98 169.977 135.985 169.868C136.465 160.368 137.865 150.508 140.185 140.288C141.655 133.818 142.735 126.438 143.645 120.838C144.078 118.171 143.728 115.181 142.595 111.868C139.928 104.081 137.458 97.7146 135.185 92.768C135.155 92.7063 135.142 92.6377 135.146 92.5692C135.151 92.5007 135.174 92.4348 135.213 92.378C135.251 92.3211 135.304 92.2755 135.366 92.2456C135.428 92.2158 135.497 92.2028 135.565 92.208Z" fill="#F5E8D6"/>
<path d="M132.475 99.348C132.512 99.2541 132.577 99.1741 132.662 99.1196C132.747 99.0651 132.847 99.0388 132.948 99.0443C133.049 99.0498 133.145 99.087 133.224 99.1505C133.302 99.214 133.358 99.3005 133.385 99.3979C135.385 106.318 136.898 111.918 137.925 116.198C138.438 118.331 138.482 121.125 138.055 124.578C135.665 143.908 134.265 154.758 134.175 168.778C134.173 168.88 134.148 168.98 134.101 169.07C134.054 169.161 133.986 169.239 133.904 169.299C133.822 169.359 133.726 169.399 133.626 169.417C133.526 169.434 133.422 169.427 133.325 169.398L131.585 168.878C131.412 168.825 131.259 168.719 131.148 168.576C131.037 168.433 130.973 168.259 130.965 168.078C130.552 156.998 129.332 143.585 127.305 127.838C126.885 124.538 126.455 118.208 127.565 114.058C129.005 108.725 130.642 103.821 132.475 99.348Z" fill="#F5E8D6"/>
<path d="M147.155 159.288C146.575 158.788 146.092 158.201 145.705 157.528C148.945 145.988 154.775 135.758 161.135 125.128C163.465 121.228 168.385 116.358 173.145 117.858C174.718 118.358 176.245 119.105 177.725 120.098C177.963 120.259 178.142 120.491 178.238 120.762C178.333 121.032 178.34 121.326 178.256 121.6C178.172 121.874 178.002 122.115 177.772 122.285C177.541 122.456 177.262 122.548 176.975 122.548L174.425 122.528C174.35 122.527 174.275 122.543 174.206 122.574C174.137 122.604 174.075 122.649 174.024 122.706C173.974 122.762 173.935 122.829 173.911 122.902C173.887 122.975 173.878 123.052 173.885 123.128C174.305 127.038 173.965 135.258 167.735 134.438C165.202 134.105 162.785 133.468 160.485 132.528C160.309 132.456 160.113 132.454 159.936 132.523C159.759 132.592 159.616 132.726 159.535 132.898C155.535 141.648 150.335 149.698 147.155 159.288ZM170.078 123.085C170.03 122.923 169.942 122.774 169.819 122.647C169.696 122.52 169.54 122.418 169.361 122.346C169.182 122.274 168.983 122.234 168.775 122.228C168.567 122.222 168.354 122.25 168.149 122.311C167.734 122.434 167.375 122.682 167.151 123.001C166.926 123.319 166.855 123.683 166.952 124.011C167 124.173 167.088 124.322 167.211 124.449C167.334 124.576 167.49 124.678 167.669 124.75C167.848 124.822 168.047 124.862 168.255 124.868C168.464 124.874 168.676 124.846 168.881 124.785C169.296 124.662 169.655 124.414 169.879 124.095C170.104 123.777 170.175 123.413 170.078 123.085Z" fill="#1E1D26"/>
<path d="M96.86 122.249C96.1691 121.812 95.298 121.95 94.9144 122.557C94.5307 123.164 94.7798 124.01 95.4707 124.447C96.1616 124.884 97.0327 124.746 97.4163 124.139C97.8 123.532 97.5509 122.686 96.86 122.249Z" fill="#F5EDE2"/>
<path d="M168.882 124.785C169.745 124.529 170.28 123.768 170.078 123.085C169.876 122.402 169.012 122.055 168.149 122.311C167.286 122.567 166.75 123.328 166.952 124.011C167.155 124.694 168.018 125.041 168.882 124.785Z" fill="#DCDDE3"/>
<path d="M89.9952 151.418C88.8152 146.325 89.0619 141.455 90.7352 136.808C90.9118 136.318 90.9498 135.785 90.8452 135.268L88.3252 123.118C89.0185 122.951 89.6952 122.901 90.3552 122.968C90.5452 122.985 90.722 123.072 90.8513 123.21C90.9806 123.349 91.0533 123.53 91.0552 123.718C91.1252 127.148 91.4552 130.538 93.4652 133.428C93.8216 133.942 94.3296 134.333 94.919 134.546C95.5083 134.759 96.15 134.785 96.7552 134.618L103.785 132.698C104.11 132.608 104.456 132.635 104.763 132.774C105.07 132.913 105.318 133.155 105.465 133.458C109.515 141.798 115.105 149.738 118.205 158.958C119.072 161.538 119.582 163.951 119.735 166.198C119.747 166.354 119.725 166.512 119.67 166.659C119.615 166.806 119.528 166.938 119.415 167.048C118.689 167.768 118.295 168.255 118.235 168.508C117.689 170.915 117.065 173.198 116.365 175.358C116.333 175.456 116.28 175.545 116.21 175.62C116.14 175.696 116.055 175.755 115.96 175.794C115.865 175.833 115.762 175.851 115.66 175.846C115.557 175.842 115.457 175.815 115.365 175.768C110.585 173.308 106.675 176.018 102.085 177.928C101.985 177.97 101.877 177.99 101.769 177.989C101.661 177.988 101.554 177.964 101.454 177.92C101.355 177.876 101.266 177.813 101.192 177.733C101.118 177.654 101.062 177.56 101.025 177.458L98.6452 170.548C98.578 170.354 98.562 170.146 98.5988 169.944C98.6356 169.742 98.7239 169.554 98.8552 169.398C101.595 166.138 104.435 166.358 108.505 167.098C111.445 167.625 113.665 168.525 115.165 169.798C115.286 169.899 115.436 169.959 115.593 169.97C115.75 169.981 115.907 169.943 116.041 169.86C116.175 169.777 116.279 169.654 116.339 169.508C116.399 169.362 116.412 169.201 116.375 169.048C115.095 163.968 110.555 159.988 105.045 159.308C101.332 158.848 97.7485 159.921 94.2952 162.528C94.1654 162.627 94.0614 162.755 93.9918 162.901C93.9221 163.047 93.889 163.208 93.8952 163.368C93.9352 164.628 94.1819 165.941 94.6352 167.308C97.7152 176.555 102.119 184.978 107.845 192.578C108.079 192.89 108.234 193.254 108.295 193.64C108.356 194.025 108.322 194.419 108.195 194.788L107.575 196.558C107.54 196.663 107.477 196.756 107.393 196.827C107.308 196.898 107.206 196.945 107.096 196.962C106.986 196.979 106.874 196.967 106.769 196.926C106.665 196.885 106.574 196.816 106.505 196.728C104.485 194.021 102.115 190.535 99.3952 186.268C94.2852 178.268 91.9652 170.238 92.0452 160.828C92.0719 158.241 91.9452 155.055 91.6652 151.268C91.6583 151.156 91.6219 151.049 91.5596 150.956C91.4973 150.863 91.4113 150.788 91.3102 150.738C91.2091 150.689 91.0963 150.666 90.9832 150.673C90.87 150.68 90.7604 150.716 90.6652 150.778C90.4052 150.945 90.1819 151.158 89.9952 151.418ZM90.8452 139.698V147.628C90.845 147.875 90.9219 148.116 91.0652 148.318C93.4152 151.538 99.0752 149.458 102.985 150.468C108.795 151.968 113.015 158.328 115.985 163.288C116.044 163.381 116.134 163.451 116.24 163.484C116.345 163.518 116.459 163.512 116.56 163.47C116.661 163.427 116.742 163.35 116.789 163.252C116.836 163.155 116.845 163.043 116.815 162.938C115.055 156.268 109.785 145.688 103.065 142.858C102.615 142.666 102.138 142.554 101.655 142.528C98.8552 142.388 96.3852 142.608 94.6152 141.368C94.2019 141.081 93.3352 140.348 92.0152 139.168C91.9149 139.078 91.7908 139.019 91.6577 138.999C91.5245 138.978 91.3881 138.997 91.2646 139.053C91.1411 139.109 91.0359 139.2 90.9615 139.314C90.8871 139.428 90.8467 139.562 90.8452 139.698Z" fill="#F5EDE2"/>
<path d="M192.046 165.478L196.296 169.928C197.126 172.448 198.146 174.848 198.676 177.348C200.309 185.081 201.779 192.915 203.086 200.848C203.094 200.901 203.088 200.956 203.068 201.006C203.047 201.057 203.014 201.1 202.971 201.133C202.928 201.166 202.877 201.187 202.823 201.193C202.769 201.199 202.715 201.19 202.666 201.168C202.346 201.021 202.102 200.788 201.936 200.468C194.866 187.028 186.446 176.518 176.736 164.898C176.689 164.84 176.625 164.798 176.553 164.778C176.481 164.757 176.404 164.76 176.334 164.785C176.263 164.811 176.203 164.857 176.16 164.919C176.117 164.98 176.095 165.053 176.096 165.128L176.066 172.918C176.063 173.14 176.102 173.359 176.183 173.563C176.264 173.768 176.384 173.953 176.536 174.108C182.736 180.488 188.622 187.975 194.196 196.568C202.016 208.648 206.736 222.098 208.926 235.808C209.226 237.715 209.389 239.755 209.416 241.928L204.146 245.898C204.089 245.94 204.024 245.969 203.956 245.983C203.887 245.997 203.816 245.995 203.747 245.978C203.679 245.961 203.616 245.928 203.562 245.883C203.508 245.838 203.465 245.782 203.436 245.718L203.286 245.408C203.519 235.135 201.902 225.385 198.436 216.158C194.166 204.798 186.016 193.718 178.646 183.558C178.506 183.371 178.356 183.255 178.196 183.208C178.127 183.186 178.055 183.183 177.985 183.199C177.915 183.214 177.851 183.248 177.799 183.297C177.747 183.346 177.709 183.409 177.689 183.477C177.669 183.546 177.668 183.619 177.686 183.688C178.356 186.398 178.896 188.598 180.376 191.258C184.216 198.158 188.776 205.628 191.396 212.408C195.896 224.088 197.762 236.518 196.996 249.698L184.486 255.888C188.832 246.735 190.669 237.355 189.996 227.748C189.396 219.078 186.636 211.228 182.836 203.408C181.476 200.608 180.202 198.485 179.016 197.038C178.97 196.985 178.909 196.948 178.842 196.931C178.774 196.915 178.703 196.921 178.638 196.947C178.574 196.974 178.52 197.02 178.483 197.08C178.447 197.139 178.43 197.208 178.436 197.278C178.582 198.685 178.692 199.541 178.766 199.848C181.316 210.108 183.596 218.948 182.876 228.578C181.666 244.638 170.396 252.938 157.046 259.728C153.699 261.155 150.409 262.655 147.176 264.228C144.342 265.608 141.812 266.468 139.586 266.808C134.479 267.588 129.342 267.561 124.176 266.728C119.142 264.381 114.239 262.208 109.466 260.208C100.559 256.481 93.2989 250.821 87.6855 243.228C90.7722 241.148 93.3155 238.658 95.3155 235.758L101.306 242.458C106.972 247.311 113.069 251.595 119.596 255.308L132.266 262.998C132.548 263.167 132.871 263.258 133.201 263.259C133.532 263.261 133.858 263.174 134.146 263.008C149.316 254.098 168.056 244.308 174.706 226.698C177.386 219.591 178.406 212.221 177.766 204.588C177.76 204.515 177.728 204.446 177.676 204.393C177.624 204.341 177.555 204.309 177.482 204.303C177.408 204.297 177.335 204.318 177.276 204.361C177.216 204.404 177.173 204.466 177.156 204.538C174.876 213.408 171.436 220.878 164.796 227.268C158.109 233.695 150.466 239.378 141.866 244.318C136.666 247.308 132.786 248.928 128.006 246.658C126.372 245.885 124.852 245.121 123.446 244.368C117.712 241.088 112.352 237.455 107.366 233.468L101.276 227.808C105.582 226.988 106.739 223.901 104.746 218.548L111.106 225.368C116.596 230.948 125.176 238.168 132.646 239.448C133.074 239.52 133.514 239.5 133.936 239.388C136.536 238.688 138.512 237.908 139.866 237.048C156.546 226.461 168.249 211.871 174.976 193.278C176.336 189.518 176.526 186.058 177.116 182.718C177.175 182.374 177.179 182.022 177.126 181.678L176.156 175.218C176.156 175.162 176.133 175.109 176.094 175.069C176.055 175.03 176.001 175.008 175.946 175.008C175.89 175.008 175.836 175.03 175.797 175.069C175.758 175.109 175.736 175.162 175.736 175.218C173.736 187.818 167.766 196.688 159.766 206.118C161.726 201.871 162.039 197.675 160.706 193.528C167.566 183.828 172.846 173.688 173.266 161.758C173.512 154.831 173.626 150.741 173.606 149.488C173.604 149.427 173.588 149.368 173.559 149.315C173.531 149.261 173.49 149.215 173.441 149.18C173.391 149.145 173.334 149.122 173.274 149.113C173.214 149.104 173.153 149.109 173.096 149.128C169.276 150.288 163.846 149.238 160.246 151.078C155.346 153.588 152.306 157.638 149.366 162.358C149.323 162.437 149.253 162.497 149.168 162.527C149.083 162.557 148.991 162.554 148.908 162.519C148.825 162.484 148.759 162.419 148.721 162.338C148.684 162.256 148.678 162.163 148.706 162.078C150.199 156.351 152.819 151.438 156.566 147.338C158.726 144.978 160.509 143.488 161.916 142.868C164.016 141.958 167.396 142.898 169.626 141.588C171.052 140.755 172.189 139.838 173.036 138.838C173.129 138.728 173.254 138.65 173.393 138.613C173.533 138.576 173.68 138.582 173.816 138.631C173.952 138.68 174.069 138.769 174.153 138.886C174.237 139.004 174.283 139.144 174.286 139.288V148.868C174.286 148.967 174.299 149.065 174.326 149.158C174.539 150.071 175.342 151.078 176.736 152.178C181.156 155.665 186.259 160.098 192.046 165.478Z" fill="#2C292D"/>
<path d="M90.8457 139.698C90.8473 139.562 90.8876 139.428 90.962 139.314C91.0364 139.2 91.1417 139.109 91.2651 139.053C91.3886 138.997 91.5251 138.978 91.6582 138.999C91.7913 139.019 91.9154 139.078 92.0157 139.168C93.3357 140.348 94.2024 141.081 94.6157 141.368C96.3857 142.608 98.8557 142.388 101.656 142.528C102.139 142.554 102.616 142.666 103.066 142.858C109.786 145.688 115.056 156.268 116.816 162.938C116.846 163.043 116.837 163.155 116.79 163.252C116.743 163.35 116.661 163.427 116.561 163.47C116.46 163.512 116.346 163.518 116.24 163.484C116.135 163.451 116.044 163.381 115.986 163.288C113.016 158.328 108.796 151.968 102.986 150.468C99.0757 149.458 93.4157 151.538 91.0657 148.318C90.9225 148.116 90.8456 147.875 90.8457 147.628V139.698Z" fill="#363439"/>
<path d="M265.055 142.838C263.695 160.798 259.262 177.275 251.755 192.268C244.382 207.001 234.228 220.515 221.295 232.808C221.196 232.905 221.071 232.972 220.933 233.002C220.796 233.032 220.651 233.024 220.515 232.978L219.595 232.658C218.595 215.891 214.205 200.031 206.425 185.078C204.885 182.011 203.218 178.731 201.425 175.238C200.745 173.911 199.828 172.808 198.675 171.928C198.423 171.736 198.197 171.507 198.005 171.248C197.412 170.441 196.842 170.001 196.295 169.928L192.045 165.478C194.845 159.438 198.185 154.438 204.735 152.238C207.915 151.171 211.522 150.475 215.555 150.148C232.355 148.788 248.915 147.998 265.055 142.838Z" fill="#D2D1D6"/>
<path d="M161.126 186.568L159.936 185.278C160.496 184.218 160.486 183.375 159.906 182.748C157.386 180.015 154.396 179.328 150.936 180.688C149.236 177.621 148.056 174.305 147.396 170.738C148.196 171.178 148.656 172.115 148.776 173.548C148.79 173.705 148.837 173.857 148.911 173.995C148.986 174.134 149.087 174.256 149.21 174.354C149.332 174.452 149.472 174.524 149.623 174.566C149.774 174.608 149.931 174.619 150.086 174.598C155.159 173.958 159.019 175.338 161.665 178.738C161.766 178.866 161.897 178.966 162.047 179.027C162.197 179.089 162.361 179.111 162.522 179.091C162.683 179.071 162.836 179.009 162.967 178.912C163.097 178.815 163.2 178.686 163.266 178.538L165.786 172.678C165.799 172.651 165.812 172.621 165.826 172.588C167.146 168.818 163.446 166.388 159.986 166.468C155.612 166.568 151.876 168.058 148.776 170.938C148.698 171.006 148.601 171.048 148.498 171.057C148.395 171.066 148.292 171.043 148.204 170.99C148.116 170.937 148.049 170.858 148.011 170.764C147.974 170.67 147.968 170.566 147.996 170.468C150.786 161.038 161.096 155.518 169.816 161.848C169.911 161.918 170.022 161.963 170.139 161.979C170.256 161.995 170.375 161.981 170.486 161.938L170.855 161.788C170.909 161.766 170.967 161.759 171.024 161.765C171.082 161.771 171.136 161.792 171.184 161.825C171.231 161.857 171.27 161.901 171.296 161.952C171.323 162.003 171.336 162.06 171.336 162.118C171.326 166.818 168.196 173.718 166.246 177.848C164.906 180.678 162.756 183.578 161.126 186.568Z" fill="#2C292D"/>
<path d="M114.176 222.738L111.106 225.368L104.746 218.548C98.339 210.548 93.5857 201.558 90.4857 191.578C89.2123 187.485 88.6557 183.985 88.8157 181.078C88.9757 178.005 89.039 175.598 89.0057 173.858C89.0017 173.765 88.9691 173.676 88.9123 173.603C88.8556 173.529 88.7775 173.475 88.6888 173.448C88.6001 173.42 88.5051 173.421 88.4168 173.45C88.3285 173.478 88.2513 173.534 88.1957 173.608C82.7357 181.358 74.3157 191.188 69.2057 199.928C63.1457 210.301 58.9823 221.478 56.7157 233.458C56.3223 235.525 56.069 238.078 55.9557 241.118C54.189 241.091 52.4723 240.005 50.8057 237.858C51.5923 229.838 53.169 222.165 55.5357 214.838C56.5057 211.808 57.2757 208.748 57.5557 206.078C58.129 200.658 58.5957 193.465 58.9557 184.498L63.3757 178.118L67.3257 172.728C64.9657 182.481 63.279 192.011 62.2657 201.318C62.2603 201.386 62.2735 201.455 62.3038 201.516C62.3341 201.577 62.3804 201.629 62.4374 201.666C62.4945 201.702 62.56 201.721 62.6268 201.722C62.6936 201.722 62.759 201.703 62.8157 201.668C63.0157 201.555 63.1857 201.358 63.3257 201.078C67.5057 192.665 72.4323 185.001 78.1057 178.088C82.3257 172.948 86.1123 168.345 89.4657 164.278C89.4903 164.251 89.5227 164.231 89.5585 164.222C89.5942 164.213 89.6316 164.214 89.6655 164.226C89.6993 164.238 89.7281 164.26 89.7478 164.289C89.7675 164.318 89.7773 164.353 89.7757 164.388C89.3357 174.508 91.469 183.958 96.1757 192.738C99.5657 199.048 104.456 204.368 108.176 210.368C108.515 210.913 108.796 211.493 109.016 212.098C110.402 215.871 112.122 219.418 114.176 222.738Z" fill="#F5E8D6"/>
<path d="M3.61523 165.158L5.75523 171.378C9.4419 184.071 14.9652 195.975 22.3252 207.088C23.3519 208.641 25.3719 211.421 28.3852 215.428C29.4586 218.108 31.5419 221.485 34.6352 225.558C37.5552 229.411 40.5252 233.218 43.5452 236.978C43.5788 237.021 43.5944 237.075 43.5888 237.129C43.5832 237.183 43.5568 237.233 43.5152 237.268V237.278C43.4668 237.319 43.405 237.339 43.3432 237.336C43.2815 237.332 43.2247 237.304 43.1852 237.258C33.2586 226.318 25.5852 216.825 20.1652 208.778C17.2452 204.445 14.4752 199.145 11.8552 192.878C8.02857 183.718 5.2819 174.478 3.61523 165.158Z" fill="#A29C9C"/>
<path d="M196.296 169.928C196.842 170.001 197.412 170.441 198.006 171.248C198.198 171.507 198.423 171.736 198.676 171.928C199.829 172.808 200.746 173.911 201.426 175.238C203.219 178.731 204.886 182.011 206.426 185.078C206.279 191.451 206.576 197.681 207.316 203.768C208.046 209.738 210.176 215.758 211.966 221.698C213.179 225.758 214.056 231.061 214.596 237.608C213.456 239.201 211.729 240.641 209.416 241.928C209.389 239.755 209.226 237.715 208.926 235.808C206.736 222.098 202.016 208.648 194.196 196.568C188.622 187.975 182.736 180.488 176.536 174.108C176.384 173.953 176.264 173.768 176.183 173.563C176.103 173.359 176.063 173.14 176.066 172.918L176.096 165.128C176.095 165.053 176.117 164.98 176.16 164.919C176.203 164.857 176.263 164.811 176.334 164.786C176.404 164.76 176.481 164.757 176.553 164.778C176.625 164.798 176.689 164.84 176.736 164.898C186.446 176.518 194.866 187.028 201.936 200.468C202.102 200.788 202.346 201.021 202.666 201.168C202.715 201.19 202.769 201.199 202.823 201.193C202.877 201.187 202.928 201.166 202.971 201.133C203.014 201.101 203.047 201.057 203.068 201.006C203.088 200.956 203.094 200.901 203.086 200.848C201.779 192.915 200.309 185.081 198.676 177.348C198.146 174.848 197.126 172.448 196.296 169.928Z" fill="#C3BEBA"/>
<path d="M63.3749 178.118L58.9549 184.498C54.3282 193.191 50.8816 202.221 48.6149 211.588C46.9882 218.335 46.0749 225.811 45.8749 234.018C39.2549 228.385 33.4249 222.188 28.3849 215.428C25.3716 211.421 23.3516 208.641 22.3249 207.088C14.9649 195.975 9.44155 184.071 5.75488 171.378C21.7282 169.905 36.8415 170.615 51.0949 173.508C54.8282 174.268 58.9215 175.805 63.3749 178.118Z" fill="#D2D1D6"/>
<path d="M104.746 218.548C106.739 223.901 105.582 226.988 101.276 227.808C93.8957 220.798 90.6156 211.178 88.3756 201.248C88.3756 201.216 88.363 201.186 88.3405 201.163C88.318 201.141 88.2875 201.128 88.2557 201.128C88.2238 201.128 88.1933 201.141 88.1708 201.163C88.1483 201.186 88.1357 201.216 88.1357 201.248C87.4057 205.008 87.5857 208.888 87.7557 212.688C88.1157 221.108 90.6357 228.798 95.3157 235.758C93.3157 238.658 90.7723 241.148 87.6857 243.228C82.2457 235.168 81.5357 227.528 82.6257 218.838C83.2457 213.938 84.4623 207.088 86.2757 198.288C86.2866 198.237 86.2821 198.184 86.2627 198.136C86.2433 198.088 86.21 198.047 86.167 198.018C86.1239 197.989 86.0732 197.973 86.0213 197.973C85.9694 197.973 85.9186 197.989 85.8757 198.018C85.429 198.311 85.039 198.795 84.7057 199.468C82.4057 204.108 80.5623 208.248 79.1757 211.888C73.5557 226.595 74.3356 241.265 81.5156 255.898C77.3423 254.151 73.4123 252.328 69.7257 250.428C68.8123 249.961 68.3223 249.328 68.2557 248.528C67.8357 231.748 70.7857 215.848 79.2157 201.458C81.0223 198.371 83.1057 194.641 85.4657 190.268C86.6257 188.118 87.2857 185.268 87.5757 182.908C87.5774 182.877 87.5695 182.847 87.5532 182.82C87.5368 182.794 87.5128 182.774 87.4843 182.762C87.4559 182.75 87.4244 182.747 87.3942 182.753C87.364 182.76 87.3366 182.775 87.3157 182.798C83.149 188.138 79.299 193.628 75.7656 199.268C71.639 205.835 68.6357 211.811 66.7557 217.198C63.609 226.191 62.1623 235.721 62.4157 245.788C60.8823 245.755 59.2323 244.971 57.4657 243.438C56.439 242.545 55.9357 241.771 55.9557 241.118C56.069 238.078 56.3223 235.525 56.7157 233.458C58.9823 221.478 63.1457 210.301 69.2057 199.928C74.3157 191.188 82.7357 181.358 88.1957 173.608C88.2512 173.534 88.3285 173.478 88.4168 173.45C88.5051 173.421 88.6001 173.42 88.6888 173.448C88.7775 173.475 88.8556 173.529 88.9123 173.603C88.969 173.676 89.0016 173.765 89.0057 173.858C89.039 175.598 88.9757 178.005 88.8157 181.078C88.6557 183.985 89.2123 187.485 90.4856 191.578C93.5856 201.558 98.339 210.548 104.746 218.548Z" fill="#363439"/>
<path d="M111.105 225.368L114.175 222.738C116.449 227.098 119.985 229.901 124.785 231.148C130.585 232.648 136.125 232.721 141.405 231.368C150.635 228.998 153.075 220.358 156.375 211.668C156.755 210.668 157.885 208.818 159.765 206.118C167.765 196.688 173.735 187.818 175.735 175.218C175.735 175.162 175.758 175.109 175.797 175.069C175.836 175.03 175.89 175.008 175.945 175.008C176.001 175.008 176.055 175.03 176.094 175.069C176.133 175.109 176.155 175.162 176.155 175.218L177.125 181.678C177.178 182.022 177.175 182.374 177.115 182.718C176.525 186.058 176.335 189.518 174.975 193.278C168.249 211.871 156.545 226.461 139.865 237.048C138.512 237.908 136.535 238.688 133.935 239.388C133.514 239.5 133.074 239.52 132.645 239.448C125.175 238.168 116.595 230.948 111.105 225.368Z" fill="#C3BEBA"/>
<path d="M109.475 192.178C109.446 192.254 109.394 192.32 109.328 192.368C109.261 192.415 109.182 192.443 109.1 192.446C109.018 192.449 108.937 192.428 108.867 192.386C108.797 192.344 108.741 192.282 108.705 192.208L104.725 184.238C104.6 183.989 104.558 183.706 104.604 183.43C104.651 183.155 104.785 182.902 104.985 182.708C107.339 180.421 110.179 179.615 113.505 180.288C113.597 180.306 113.683 180.344 113.758 180.4C113.833 180.455 113.895 180.527 113.939 180.609C113.983 180.691 114.008 180.782 114.013 180.876C114.017 180.969 114.001 181.062 113.965 181.148L109.475 192.178Z" fill="#F5EDE2"/>
<path d="M159.936 185.278L156.626 192.338C156.597 192.4 156.551 192.452 156.494 192.488C156.437 192.524 156.37 192.542 156.302 192.541C156.234 192.54 156.169 192.52 156.112 192.482C156.056 192.444 156.012 192.39 155.986 192.328L150.936 180.688C154.396 179.328 157.386 180.015 159.906 182.748C160.486 183.375 160.496 184.218 159.936 185.278Z" fill="#DCD5C9"/>
<path d="M68.255 248.528C66.435 249.015 64.4884 248.101 62.415 245.788C62.1617 235.721 63.6084 226.191 66.755 217.198C68.635 211.811 71.6384 205.835 75.765 199.268C79.2984 193.628 83.1484 188.138 87.315 182.798C87.336 182.775 87.3634 182.76 87.3936 182.753C87.4238 182.747 87.4553 182.75 87.4837 182.762C87.5121 182.774 87.5362 182.794 87.5525 182.82C87.5689 182.846 87.5767 182.877 87.575 182.908C87.285 185.268 86.625 188.118 85.465 190.268C83.105 194.641 81.0217 198.371 79.215 201.458C70.785 215.848 67.835 231.748 68.255 248.528Z" fill="#F5EDE2"/>
<path d="M203.285 245.408C201.879 247.441 199.782 248.871 196.995 249.698C197.762 236.518 195.895 224.088 191.395 212.408C188.775 205.628 184.215 198.158 180.375 191.258C178.895 188.598 178.355 186.398 177.685 183.688C177.668 183.619 177.669 183.546 177.689 183.477C177.709 183.409 177.747 183.347 177.799 183.298C177.851 183.249 177.915 183.214 177.985 183.199C178.055 183.183 178.127 183.186 178.195 183.208C178.355 183.255 178.505 183.371 178.645 183.558C186.015 193.718 194.165 204.798 198.435 216.158C201.902 225.385 203.519 235.135 203.285 245.408Z" fill="#C3BEBA"/>
<path d="M58.955 184.498C58.595 193.465 58.1283 200.658 57.555 206.078C57.275 208.748 56.505 211.808 55.535 214.838C53.1683 222.165 51.5917 229.838 50.805 237.858L45.875 234.018C46.075 225.811 46.9883 218.335 48.615 211.588C50.8817 202.221 54.3283 193.191 58.955 184.498Z" fill="#363439"/>
<path d="M206.425 185.078C214.205 200.031 218.595 215.891 219.595 232.658C219.235 234.918 217.568 236.568 214.595 237.608C214.055 231.061 213.178 225.758 211.965 221.698C210.175 215.758 208.045 209.738 207.315 203.768C206.575 197.681 206.278 191.451 206.425 185.078Z" fill="#363439"/>
<path d="M151.968 204.223C153.967 200.76 154.118 197.105 152.305 196.058C150.493 195.011 147.402 196.97 145.403 200.433C143.404 203.896 143.253 207.551 145.065 208.598C146.878 209.645 149.968 207.686 151.968 204.223Z" fill="#1E1D26"/>
<path d="M114.015 196.088C118.005 198.058 119.655 203.038 121.425 205.368C121.535 205.512 121.612 205.678 121.652 205.856C121.691 206.034 121.692 206.219 121.655 206.398C120.145 213.898 106.145 202.828 112.895 196.258C113.041 196.117 113.227 196.025 113.428 195.995C113.628 195.964 113.834 195.997 114.015 196.088Z" fill="#1E1D26"/>
<path d="M184.485 255.888L175.575 259.358L165.795 262.328L149.485 265.468C149.48 265.468 149.475 265.467 149.471 265.465C149.467 265.463 149.465 265.461 149.465 265.458L149.405 265.158C149.399 265.132 149.399 265.104 149.404 265.078C149.409 265.052 149.419 265.026 149.434 265.004C149.449 264.982 149.468 264.962 149.491 264.948C149.513 264.933 149.539 264.923 149.565 264.918C152.805 264.211 155.298 262.481 157.045 259.728C170.395 252.938 181.665 244.638 182.875 228.578C183.595 218.948 181.315 210.108 178.765 199.848C178.692 199.541 178.582 198.685 178.435 197.278C178.43 197.208 178.446 197.139 178.483 197.08C178.519 197.02 178.574 196.974 178.638 196.947C178.702 196.921 178.773 196.915 178.841 196.931C178.909 196.948 178.97 196.985 179.015 197.038C180.202 198.485 181.475 200.608 182.835 203.408C186.635 211.228 189.395 219.078 189.995 227.748C190.668 237.355 188.832 246.735 184.485 255.888Z" fill="#C3BEBA"/>
<path d="M87.6849 243.228C93.2983 250.821 100.558 256.481 109.465 260.208C114.238 262.208 119.142 264.381 124.175 266.728C114.862 265.928 105.765 264.285 96.8849 261.798C91.2983 260.231 86.1749 258.265 81.5149 255.898C74.3349 241.265 73.5549 226.595 79.1749 211.888C80.5616 208.248 82.4049 204.108 84.7049 199.468C85.0383 198.795 85.4283 198.311 85.8749 198.018C85.9179 197.989 85.9686 197.973 86.0205 197.973C86.0725 197.973 86.1232 197.989 86.1662 198.018C86.2093 198.047 86.2426 198.088 86.262 198.136C86.2814 198.184 86.2859 198.237 86.2749 198.288C84.4616 207.088 83.2449 213.938 82.6249 218.838C81.5349 227.528 82.2449 235.168 87.6849 243.228Z" fill="#F5EDE2"/>
<path d="M101.275 227.808L107.365 233.468L101.305 242.458L95.3154 235.758C90.6354 228.798 88.1154 221.108 87.7554 212.688C87.5854 208.888 87.4054 205.008 88.1354 201.248C88.1354 201.216 88.148 201.186 88.1705 201.163C88.193 201.141 88.2235 201.128 88.2554 201.128C88.2872 201.128 88.3177 201.141 88.3402 201.163C88.3627 201.186 88.3753 201.216 88.3753 201.248C90.6153 211.178 93.8954 220.798 101.275 227.808Z" fill="#F5EDE2"/>
<path d="M119.596 255.308C118.922 251.388 120.206 247.741 123.446 244.368C124.852 245.121 126.372 245.885 128.006 246.658C132.786 248.928 136.666 247.308 141.866 244.318C150.466 239.378 158.109 233.695 164.796 227.268C171.436 220.878 174.876 213.408 177.156 204.538C177.173 204.466 177.216 204.404 177.276 204.361C177.335 204.318 177.409 204.297 177.482 204.303C177.555 204.309 177.624 204.341 177.676 204.393C177.728 204.446 177.76 204.515 177.766 204.588C178.406 212.221 177.386 219.591 174.706 226.698C168.056 244.308 149.316 254.098 134.146 263.008C133.858 263.174 133.532 263.261 133.202 263.259C132.871 263.258 132.548 263.167 132.266 262.998L119.596 255.308Z" fill="#CBBFAA"/>
<path d="M123.446 244.368C120.206 247.741 118.922 251.388 119.596 255.308C113.069 251.595 106.972 247.311 101.306 242.458L107.366 233.468C112.352 237.455 117.712 241.088 123.446 244.368Z" fill="#DCD5C9"/>
<path d="M175.575 259.358C172.502 260.925 169.242 261.915 165.795 262.328L175.575 259.358Z" fill="#949491"/>
</svg>
