<svg width="266" height="271" viewBox="0 0 266 271" fill="none" xmlns="http://www.w3.org/2000/svg">
<path d="M257.989 92.0662C261.989 104.14 264.339 114.756 265.039 123.916C265.206 126.049 265.309 130.646 265.349 137.706L263.739 156.406L260.589 170.656C260.862 161.603 261.616 152.603 262.849 143.656C264.239 123.516 260.619 89.3262 242.149 76.4262C233.849 70.6262 226.869 66.3562 221.849 58.9462C223.619 55.4462 221.249 54.3262 218.149 54.1062C209.229 53.4662 200.915 54.1261 193.209 56.0861C184.599 58.2661 180.529 65.2961 175.479 70.3961C172.199 73.7028 169.186 74.5128 166.439 72.8261C163.846 66.1861 162.566 58.4661 162.599 49.6661C162.619 44.3128 162.839 40.3695 163.259 37.8361C164.612 35.8361 165.712 33.3761 166.559 30.4561C168.219 24.7061 164.409 21.5962 160.149 18.3762C160.027 18.2821 159.886 18.2162 159.735 18.1833C159.585 18.1504 159.429 18.1514 159.279 18.1862C157.049 18.7062 155.019 17.5061 152.919 18.5261C149.766 20.0528 148.246 22.5095 148.359 25.8961C148.512 30.4361 148.792 33.5095 149.199 35.1162C148.379 37.6095 147.499 40.2428 146.559 43.0161C145.039 47.5561 142.029 54.1661 136.799 54.7261C134.272 55.0061 130.996 54.8795 126.969 54.3461C126.613 54.2935 126.272 54.1639 125.969 53.9661C124.276 52.8661 123.192 51.9328 122.719 51.1661C119.712 46.3061 117.536 40.8195 116.189 34.7061C117.509 28.7161 118.679 22.4061 112.779 18.6361C111.866 18.0495 110.686 18.1361 109.239 18.8961C109.074 18.9836 108.892 19.0335 108.707 19.0422C108.522 19.0508 108.338 19.0181 108.169 18.9462L106.549 18.2861C106.408 18.2298 106.257 18.205 106.106 18.2137C105.956 18.2223 105.81 18.2641 105.679 18.3361C102.689 19.9161 98.0189 24.1261 98.3989 27.6661C98.6922 30.4128 99.9123 33.8562 102.059 37.9962C102.249 41.5362 102.989 45.4962 103.099 48.6262C103.372 56.3128 102.346 63.5195 100.019 70.2462L97.1589 73.4061C96.9963 73.5886 96.7777 73.7115 96.5383 73.755C96.2989 73.7985 96.0525 73.7602 95.8388 73.6461C90.2788 70.6861 85.2389 64.6962 82.5189 62.2562C78.5789 58.7262 75.0289 56.7861 69.5689 55.5261C62.5889 53.9195 55.5689 53.2862 48.5089 53.6262C46.8222 53.7062 45.4722 54.0562 44.4588 54.6762C43.9002 55.0117 43.4816 55.5381 43.2796 56.1588C43.0776 56.7796 43.1057 57.4532 43.3588 58.0562L48.5289 70.2661C44.7289 75.8061 40.5089 79.7728 35.8689 82.1661C29.6155 85.3928 26.1455 87.1761 25.4588 87.5161C16.2655 92.1095 10.2189 99.3728 7.31887 109.306C5.66554 114.953 4.78218 118.806 4.66885 120.866C4.20885 129.133 2.86889 137.2 0.648889 145.066C0.00222266 139.74 -0.161101 134.363 0.158899 128.936C0.952232 116.023 3.51557 103.369 7.8489 90.9761C11.6622 80.0561 16.6489 69.7928 22.8089 60.1862C35.7989 41.3262 52.9189 25.1562 73.1689 14.8762C87.2489 7.72284 102.449 3.07282 118.769 0.926158C137.639 -1.56384 156.479 1.12613 174.849 7.08613C187.229 11.1061 198.342 16.7628 208.189 24.0562C224.202 35.9162 236.722 49.5428 245.749 64.9362C249.629 71.5495 253.709 80.5928 257.989 92.0662Z" fill="#F4E0B4"/>
<path d="M116.189 34.7062C111.875 36.7462 107.165 37.8429 102.059 37.9962C99.9121 33.8562 98.6921 30.4128 98.3988 27.6662C98.0188 24.1262 102.689 19.9162 105.679 18.3362C105.81 18.2642 105.956 18.2224 106.106 18.2137C106.257 18.2051 106.408 18.2298 106.549 18.2862L108.169 18.9462C108.338 19.0181 108.521 19.0509 108.707 19.0422C108.892 19.0336 109.073 18.9836 109.239 18.8962C110.685 18.1362 111.865 18.0495 112.779 18.6361C118.679 22.4061 117.509 28.7162 116.189 34.7062Z" fill="#4A2C1F"/>
<path d="M163.258 37.836C158.452 37.496 153.765 36.5894 149.198 35.1161C148.792 33.5094 148.512 30.436 148.358 25.896C148.245 22.5094 149.765 20.0527 152.918 18.5261C155.018 17.5061 157.048 18.7061 159.278 18.1861C159.429 18.1514 159.584 18.1504 159.735 18.1832C159.885 18.2161 160.027 18.282 160.148 18.3761C164.408 21.5961 168.219 24.706 166.559 30.456C165.712 33.376 164.612 35.836 163.258 37.836Z" fill="#4A2C1F"/>
<path d="M116.189 34.7061C117.535 40.8194 119.712 46.3061 122.719 51.1661C123.192 51.9328 124.275 52.8661 125.969 53.9661C126.272 54.1639 126.613 54.2935 126.969 54.3461C130.995 54.8795 134.272 55.0061 136.799 54.7261C142.029 54.1661 145.039 47.5561 146.559 43.0161C147.499 40.2428 148.379 37.6095 149.199 35.1161C153.765 36.5895 158.452 37.4961 163.259 37.8361C162.839 40.3695 162.619 44.3128 162.599 49.6661C162.565 58.4661 163.845 66.1861 166.439 72.8261C167.552 75.1261 168.292 77.7761 168.659 80.7761C166.085 79.6495 163.349 79.6028 160.449 80.6361L156.869 79.1561C155.801 78.7169 154.939 78.2102 154.369 77.6862C150.669 74.2862 146.419 69.6661 141.739 66.2361C139.649 64.6961 136.969 63.7062 134.439 62.7462C130.232 62.7728 126.369 64.5328 122.849 68.0261C121.149 69.7195 117.152 73.4428 110.859 79.1962C110.744 79.3015 110.656 79.4326 110.602 79.5787C110.548 79.7248 110.53 79.8816 110.549 80.0361L111.269 85.5261C107.922 82.0461 104.015 80.1528 99.5486 79.8461C97.902 76.9595 98.0586 73.7595 100.019 70.2462C102.345 63.5195 103.372 56.3128 103.099 48.6262C102.989 45.4962 102.249 41.5362 102.059 37.9962C107.165 37.8428 111.875 36.7461 116.189 34.7061Z" fill="#CF8D45"/>
<path d="M100.019 70.2462C98.0592 73.7595 97.9026 76.9595 99.5492 79.8462C95.4692 79.2762 93.8492 82.0362 91.4992 84.4262C87.9292 81.6162 82.3192 77.7962 80.7492 73.8462C79.2625 70.1128 78.2592 67.7462 77.7392 66.7462C74.5792 60.6862 65.0492 59.0062 58.5292 59.2962C58.4315 59.3017 58.3374 59.3361 58.2588 59.3947C58.1803 59.4534 58.121 59.5338 58.0886 59.6253C58.0563 59.7169 58.0525 59.8155 58.0775 59.9084C58.1026 60.0012 58.1554 60.084 58.2291 60.1461C62.9191 64.1761 68.0592 67.6962 72.2592 72.5562C72.4015 72.7212 72.4806 72.9314 72.4824 73.1493C72.4843 73.3673 72.4087 73.5788 72.2692 73.7462C71.6492 74.4929 70.8326 75.0762 69.8192 75.4962C69.7158 75.5393 69.6222 75.6031 69.5443 75.6838C69.4665 75.7645 69.406 75.8603 69.3666 75.9652C69.3272 76.0702 69.3099 76.1821 69.3155 76.294C69.321 76.406 69.3496 76.5157 69.3992 76.6162C70.2059 78.2028 71.3325 79.6295 72.7792 80.8961C76.9792 84.6028 81.6758 87.6162 86.8692 89.9362C87.3225 91.9029 86.9758 93.6928 85.8291 95.3062C68.3391 95.0262 55.8992 85.8161 48.5292 70.2661L43.3592 58.0562C43.106 57.4532 43.0779 56.7796 43.2799 56.1588C43.4819 55.5381 43.9005 55.0117 44.4591 54.6762C45.4725 54.0562 46.8225 53.7062 48.5092 53.6262C55.5692 53.2862 62.5892 53.9195 69.5692 55.5262C75.0292 56.7862 78.5792 58.7262 82.5192 62.2562C85.2392 64.6962 90.2791 70.6861 95.8391 73.6461C96.0528 73.7602 96.2992 73.7986 96.5386 73.755C96.778 73.7115 96.9966 73.5886 97.1592 73.4062L100.019 70.2462Z" fill="#D59659"/>
<path d="M221.849 58.9461C219.396 66.5328 215.806 73.5361 211.079 79.9561C203.512 90.2161 193.356 95.2495 180.609 95.0561C180.291 95.0505 179.984 95.1681 179.751 95.3843C179.517 95.6006 179.377 95.8987 179.359 96.2161L179.089 100.866C178.309 101.113 177.779 101.133 177.499 100.926C172.019 96.9561 164.519 99.6261 160.349 104.266C160.301 104.322 160.234 104.359 160.161 104.369C160.089 104.379 160.014 104.362 159.952 104.321C159.89 104.28 159.843 104.218 159.821 104.146C159.798 104.074 159.801 103.996 159.829 103.926C163.002 96.5728 168.679 93.2294 176.859 93.8961C176.987 93.9078 177.115 93.8766 177.222 93.8076C177.329 93.7386 177.409 93.6359 177.449 93.5161C177.882 92.2694 178.493 91.2761 179.279 90.5361C184.559 87.9228 189.426 84.5894 193.879 80.5361C195.246 79.2961 196.163 78.0128 196.629 76.6861C196.666 76.5819 196.68 76.4711 196.671 76.361C196.663 76.2509 196.631 76.1438 196.578 76.0467C196.525 75.9497 196.453 75.8648 196.365 75.7975C196.277 75.7302 196.177 75.682 196.069 75.6561C194.883 75.3828 194.049 74.7028 193.569 73.6161C193.506 73.474 193.481 73.3167 193.499 73.1603C193.516 73.004 193.575 72.8542 193.669 72.7261C194.803 71.2061 196.166 69.8494 197.759 68.6561C201.646 65.7228 204.672 63.1061 206.839 60.8061C206.937 60.7004 207.002 60.5683 207.027 60.4263C207.052 60.2843 207.035 60.1384 206.979 60.0067C206.922 59.8749 206.829 59.763 206.71 59.6847C206.591 59.6065 206.452 59.5653 206.309 59.5661C200.199 59.5661 193.449 59.7561 188.899 64.6861C186.409 67.3761 184.979 73.1461 183.159 75.8061C181.273 78.5728 178.036 81.2161 173.449 83.7361C172.102 82.4361 170.506 81.4494 168.659 80.7761C168.293 77.7761 167.553 75.1261 166.439 72.8261C169.186 74.5128 172.199 73.7028 175.479 70.3961C180.529 65.2961 184.599 58.2661 193.209 56.0861C200.916 54.1261 209.229 53.4661 218.149 54.1061C221.249 54.3261 223.619 55.4461 221.849 58.9461Z" fill="#D59659"/>
<path d="M221.849 58.9462C226.869 66.3562 233.849 70.6261 242.149 76.4261C260.619 89.3261 264.239 123.516 262.849 143.656L260.779 154.796C253.549 145.216 243.909 142.066 232.189 142.106C216.229 142.166 208.052 142.193 207.659 142.186C200.532 142.079 194.689 140.899 190.129 138.646C181.079 134.166 175.589 125.006 171.039 116.116C174.059 113.443 175.856 110.069 176.429 105.996C176.441 105.906 176.472 105.82 176.521 105.743C176.57 105.667 176.635 105.602 176.712 105.552C176.789 105.503 176.876 105.47 176.967 105.457C177.058 105.444 177.151 105.451 177.239 105.476L181.099 106.646C181.831 106.867 182.62 106.835 183.339 106.556L183.659 106.426C183.802 106.369 183.926 106.271 184.016 106.145C184.105 106.02 184.157 105.871 184.165 105.718C184.172 105.565 184.135 105.413 184.057 105.281C183.98 105.15 183.866 105.044 183.729 104.976L178.179 102.146L179.089 100.866L179.359 96.2161C179.377 95.8987 179.517 95.6006 179.75 95.3843C179.983 95.1681 180.291 95.0505 180.609 95.0562C193.356 95.2495 203.512 90.2161 211.079 79.9561C215.806 73.5361 219.396 66.5328 221.849 58.9462Z" fill="#F2D6A8"/>
<path d="M91.4985 84.4261L86.8685 89.9361C81.6752 87.6161 76.9785 84.6028 72.7785 80.8961C71.3319 79.6294 70.2052 78.2028 69.3985 76.6161C69.3489 76.5156 69.3204 76.406 69.3148 76.294C69.3092 76.182 69.3266 76.0702 69.3659 75.9652C69.4053 75.8602 69.4658 75.7644 69.5437 75.6838C69.6215 75.6031 69.7151 75.5392 69.8186 75.4961C70.8319 75.0761 71.6485 74.4928 72.2685 73.7461C72.4081 73.5787 72.4836 73.3672 72.4818 73.1493C72.4799 72.9313 72.4009 72.7212 72.2585 72.5561C68.0585 67.6961 62.9185 64.1761 58.2285 60.1461C58.1547 60.084 58.1019 60.0012 58.0769 59.9083C58.0518 59.8155 58.0557 59.7169 58.088 59.6253C58.1203 59.5337 58.1796 59.4534 58.2581 59.3947C58.3367 59.336 58.4309 59.3017 58.5285 59.2961C65.0485 59.0061 74.5785 60.6861 77.7385 66.7461C78.2585 67.7461 79.2618 70.1128 80.7485 73.8461C82.3185 77.7961 87.9285 81.6161 91.4985 84.4261Z" fill="#73572D"/>
<path d="M179.279 90.5361L173.449 83.7362C178.036 81.2162 181.273 78.5728 183.159 75.8062C184.979 73.1462 186.409 67.3762 188.899 64.6862C193.449 59.7562 200.199 59.5662 206.309 59.5662C206.452 59.5653 206.591 59.6065 206.71 59.6848C206.829 59.763 206.922 59.875 206.979 60.0067C207.035 60.1385 207.052 60.2843 207.027 60.4263C207.002 60.5684 206.937 60.7004 206.839 60.8062C204.673 63.1062 201.646 65.7228 197.759 68.6561C196.166 69.8495 194.803 71.2061 193.669 72.7261C193.575 72.8542 193.516 73.004 193.499 73.1604C193.481 73.3167 193.506 73.474 193.569 73.6162C194.049 74.7028 194.883 75.3828 196.069 75.6561C196.177 75.6821 196.277 75.7302 196.365 75.7975C196.453 75.8648 196.525 75.9497 196.578 76.0468C196.631 76.1438 196.663 76.2509 196.672 76.361C196.68 76.4712 196.666 76.5819 196.629 76.6862C196.163 78.0128 195.246 79.2961 193.879 80.5361C189.426 84.5895 184.559 87.9228 179.279 90.5361Z" fill="#73572D"/>
<path d="M134.439 62.7462C134.319 62.9528 134.086 63.1894 133.739 63.4561C130.059 64.4961 128.839 68.1561 128.829 71.5961C128.816 84.2495 128.159 97.0895 126.859 110.116C126.446 114.236 125.222 119.43 123.189 125.696C123.182 125.729 123.164 125.757 123.138 125.779C123.113 125.8 123.081 125.812 123.048 125.813C123.015 125.814 122.982 125.804 122.955 125.785C122.928 125.766 122.909 125.738 122.899 125.706L122.479 124.636C122.266 119.783 121.626 113.786 120.559 106.646C119.326 98.3728 116.229 91.3328 111.269 85.5261L110.549 80.0361C110.53 79.8816 110.549 79.7248 110.603 79.5787C110.657 79.4326 110.744 79.3015 110.859 79.1962C117.152 73.4428 121.149 69.7195 122.849 68.0261C126.369 64.5328 130.232 62.7728 134.439 62.7462Z" fill="#CD7839"/>
<path d="M133.739 63.4561C134.239 64.1361 134.506 64.8728 134.539 65.6661C134.966 76.8995 135.106 88.4961 134.959 100.456C134.929 102.686 135.289 105.936 135.649 107.226C136.549 110.473 137.752 114.966 139.259 120.706C139.992 123.493 140.446 125.646 140.619 127.166C140.999 130.416 141.489 134.456 142.509 137.826C143.096 139.773 143.573 141.096 143.939 141.796C146.513 146.703 149.333 151.466 152.399 156.086C153.746 157.186 154.572 159.259 154.879 162.306C154.901 162.505 154.985 162.691 155.118 162.84C155.251 162.989 155.427 163.093 155.622 163.137C155.816 163.181 156.02 163.163 156.204 163.086C156.388 163.009 156.544 162.876 156.649 162.706L157.759 160.916C157.852 161.316 157.986 161.566 158.159 161.666C156.406 165.353 155.549 168.459 155.589 170.986C155.656 174.879 155.696 179.173 155.709 183.866C153.049 187.579 149.066 190.536 143.759 192.736C143.109 193.006 142.629 193.536 142.069 193.956C141.989 193.203 141.549 192.859 140.749 192.926C134.409 193.426 128.149 194.146 123.019 191.966C122.572 191.773 122.266 191.819 122.099 192.106C121.952 192.339 121.896 192.686 121.929 193.146C121.816 191.993 121.266 190.879 120.279 189.806C120.179 189.697 120.051 189.617 119.908 189.575C119.766 189.533 119.615 189.53 119.471 189.567C119.328 189.604 119.197 189.679 119.092 189.785C118.988 189.89 118.914 190.022 118.879 190.166L118.129 193.176C118.091 193.331 118.005 193.47 117.885 193.574C117.765 193.678 117.616 193.742 117.459 193.756C114.749 193.976 113.119 191.566 111.069 189.326C110.129 188.24 109.659 187.019 109.659 185.666C109.653 182.273 109.802 176.856 110.109 169.416C110.142 168.529 109.632 167.293 108.579 165.706C111.006 158.306 113.203 152.923 115.169 149.556C118.736 143.463 120.906 139.119 121.679 136.526C122.479 133.866 122.746 129.903 122.479 124.636L122.899 125.706C122.909 125.738 122.928 125.766 122.955 125.785C122.982 125.804 123.015 125.814 123.048 125.813C123.081 125.812 123.113 125.8 123.139 125.779C123.164 125.757 123.182 125.729 123.189 125.696C125.223 119.43 126.446 114.236 126.859 110.116C128.159 97.0895 128.816 84.2495 128.829 71.5961C128.839 68.1561 130.059 64.4961 133.739 63.4561ZM119.409 151.756L119.159 151.736C119.014 151.723 118.868 151.744 118.732 151.797C118.596 151.85 118.474 151.934 118.376 152.042C118.277 152.15 118.204 152.28 118.163 152.421C118.122 152.562 118.114 152.711 118.139 152.856C118.692 155.869 120.152 158.183 122.519 159.796C122.738 159.947 123.005 160.01 123.268 159.973C123.531 159.936 123.771 159.801 123.939 159.596C123.946 159.583 123.926 159.429 123.879 159.136C124.486 159.783 125.209 159.72 126.049 158.946C126.956 158.1 127.272 156.959 126.999 155.526C126.406 152.366 124.739 150.159 121.999 148.906C121.826 148.827 121.638 148.784 121.448 148.781C121.258 148.777 121.069 148.814 120.894 148.887C120.719 148.96 120.561 149.069 120.432 149.207C120.302 149.345 120.202 149.508 120.139 149.686L119.409 151.756ZM144.575 149.298C143.936 148.995 143.069 149.237 142.165 149.973C141.262 150.708 140.395 151.877 139.757 153.221C139.441 153.886 139.191 154.575 139.02 155.247C138.849 155.92 138.762 156.563 138.762 157.14C138.763 157.717 138.851 158.216 139.023 158.61C139.195 159.003 139.446 159.283 139.763 159.434C140.402 159.738 141.27 159.495 142.173 158.759C143.077 158.024 143.943 156.856 144.581 155.511C144.897 154.846 145.148 154.157 145.318 153.485C145.489 152.812 145.577 152.169 145.576 151.593C145.576 151.016 145.487 150.516 145.315 150.122C145.144 149.729 144.892 149.449 144.575 149.298ZM132.099 188.016C136.432 188.089 140.486 186.813 144.259 184.186C148.506 181.226 151.626 177.643 153.619 173.436C153.648 173.362 153.65 173.28 153.624 173.205C153.599 173.129 153.548 173.065 153.48 173.024C153.412 172.982 153.332 172.965 153.253 172.977C153.175 172.988 153.102 173.027 153.049 173.086C147.729 180.016 140.339 184.706 132.159 184.576C123.979 184.446 116.739 179.516 111.649 172.416C111.598 172.356 111.527 172.316 111.449 172.303C111.372 172.29 111.292 172.303 111.223 172.342C111.155 172.381 111.102 172.443 111.074 172.517C111.046 172.59 111.044 172.671 111.069 172.746C112.923 177.019 115.923 180.703 120.069 183.796C123.756 186.543 127.766 187.949 132.099 188.016Z" fill="#D78946"/>
<path d="M134.438 62.7462C136.968 63.7062 139.648 64.6961 141.738 66.2361C146.418 69.6661 150.668 74.2862 154.368 77.6862C154.939 78.2102 155.8 78.7169 156.868 79.1561L160.448 80.6361C145.658 89.0061 143.178 111.366 142.398 126.346C142.212 129.986 142.762 133.629 144.048 137.276C144.121 137.482 144.219 137.683 144.338 137.876C147.845 143.543 150.532 149.613 152.398 156.086C149.332 151.466 146.512 146.703 143.938 141.796C143.572 141.096 143.095 139.773 142.508 137.826C141.488 134.456 140.998 130.416 140.618 127.166C140.445 125.646 139.992 123.493 139.258 120.706C137.752 114.966 136.548 110.473 135.648 107.226C135.288 105.936 134.928 102.686 134.958 100.456C135.105 88.4961 134.965 76.8995 134.538 65.6661C134.505 64.8728 134.238 64.1361 133.738 63.4561C134.085 63.1894 134.318 62.9528 134.438 62.7462Z" fill="#BC6D32"/>
<path d="M85.8284 95.3062C86.2684 95.5795 86.6917 95.7561 87.0984 95.8361L85.6184 99.1061C85.557 99.2392 85.5327 99.3864 85.5483 99.5321C85.564 99.6778 85.6189 99.8166 85.7072 99.9336C85.7954 100.051 85.9137 100.141 86.0496 100.196C86.1854 100.252 86.3336 100.269 86.4784 100.246C88.1184 99.9862 88.8551 100.316 88.6885 101.236C86.3885 102.076 82.6184 103.316 81.0084 105.066C80.8725 105.215 80.7869 105.403 80.7638 105.603C80.7407 105.804 80.7813 106.006 80.8798 106.182C80.9783 106.358 81.1296 106.499 81.3125 106.584C81.4954 106.669 81.7004 106.694 81.8984 106.656L87.9784 105.456C88.0234 105.447 88.0698 105.448 88.1145 105.457C88.1592 105.467 88.2011 105.486 88.2378 105.512C88.2745 105.538 88.3052 105.572 88.3276 105.61C88.3501 105.649 88.364 105.692 88.3684 105.736C88.7351 109.349 90.3117 111.996 93.0984 113.676C93.1649 113.717 93.2174 113.777 93.2487 113.848C93.2799 113.919 93.2885 113.999 93.2732 114.075C93.2579 114.151 93.2195 114.221 93.1632 114.275C93.1069 114.329 93.0354 114.364 92.9584 114.376L92.3884 114.456C92.3124 114.467 92.2404 114.496 92.1791 114.542C92.1178 114.589 92.0694 114.65 92.0383 114.72C92.0073 114.79 91.9946 114.867 92.0016 114.943C92.0086 115.019 92.035 115.093 92.0784 115.156C92.505 115.769 93.2851 116.049 94.4185 115.996C93.1785 122.396 91.3651 128.583 88.9784 134.556C84.5484 145.666 75.8384 150.496 64.2384 150.726C47.1584 151.066 38.1818 151.259 37.3085 151.306C24.3985 152.046 8.85844 153.796 9.33844 170.646C9.66844 181.886 14.0384 193.486 18.5084 204.376C12.3951 193.769 7.74842 182.576 4.56842 170.796C2.22175 161.936 0.915104 153.359 0.648438 145.066C2.86844 137.199 4.2084 129.133 4.6684 120.866C4.78173 118.806 5.66509 114.953 7.31842 109.306C10.2184 99.3728 16.265 92.1094 25.4584 87.5161C26.145 87.1761 29.6151 85.3928 35.8684 82.1661C40.5084 79.7728 44.7284 75.8061 48.5284 70.2661C55.8984 85.8161 68.3384 95.0262 85.8284 95.3062Z" fill="#F2D6A8"/>
<path d="M99.5492 79.8461C104.016 80.1528 107.922 82.0461 111.269 85.5261C116.229 91.3328 119.326 98.3728 120.559 106.646C121.626 113.786 122.266 119.783 122.479 124.636C122.746 129.903 122.479 133.866 121.679 136.526C120.906 139.119 118.736 143.463 115.169 149.556C113.203 152.923 111.006 158.306 108.579 165.706L106.609 161.596C107.356 161.736 107.619 161.323 107.399 160.356C107.34 160.092 107.228 159.844 107.069 159.626C105.479 157.496 100.809 152.006 101.409 149.156C102.469 144.076 104.579 136.776 102.069 132.096C100.823 129.789 99.0125 127.893 96.6392 126.406C95.7058 122.933 95.4725 119.269 95.9392 115.416L104.039 110.186C104.553 110.059 104.749 109.709 104.629 109.136C104.242 107.323 104.159 105.809 104.379 104.596C104.438 104.284 104.399 103.962 104.269 103.676C101.949 98.5761 98.5392 95.4162 94.0392 94.1962C91.3459 93.4628 89.0325 94.0094 87.0991 95.8361C86.6925 95.7561 86.2691 95.5795 85.8291 95.3061C86.9758 93.6928 87.3225 91.9028 86.8691 89.9362L91.4991 84.4261C93.8491 82.0361 95.4692 79.2761 99.5492 79.8461ZM113.049 122.356C112.993 122.268 112.92 122.191 112.834 122.131C112.749 122.071 112.652 122.028 112.549 122.006C112.447 121.983 112.341 121.982 112.238 122.001C112.135 122.02 112.037 122.059 111.949 122.116C110.069 123.366 107.369 125.876 107.169 128.286C106.963 130.673 107.429 132.616 108.569 134.116C108.913 134.574 109.38 134.909 109.877 135.053C110.374 135.198 110.864 135.142 111.249 134.896C111.609 134.669 112.043 134.103 112.549 133.196C114.539 129.616 115.329 125.926 113.049 122.356ZM107.109 141.086C105.059 143.516 105.049 148.256 105.509 151.146C105.979 154.156 109.899 155.846 111.229 152.736C113.249 147.996 112.596 144.073 109.269 140.966C109.121 140.828 108.946 140.721 108.755 140.652C108.565 140.583 108.362 140.553 108.16 140.564C107.958 140.575 107.761 140.627 107.58 140.717C107.4 140.807 107.239 140.932 107.109 141.086Z" fill="#F5C470"/>
<path d="M168.659 80.7761C170.505 81.4494 172.102 82.4361 173.449 83.7361L179.279 90.5361C178.492 91.2761 177.882 92.2694 177.449 93.5161C177.409 93.6359 177.329 93.7386 177.222 93.8076C177.115 93.8766 176.987 93.9078 176.859 93.8961C168.679 93.2294 163.002 96.5728 159.829 103.926C159.801 103.996 159.798 104.074 159.82 104.146C159.843 104.218 159.889 104.28 159.952 104.321C160.014 104.362 160.088 104.379 160.161 104.369C160.234 104.359 160.3 104.322 160.349 104.266C164.519 99.6261 172.019 96.9561 177.499 100.926C177.779 101.133 178.309 101.113 179.089 100.866L178.179 102.146C172.999 99.8661 166.649 99.6661 163.049 104.656C161.419 106.906 159.739 108.916 162.429 110.986C165.042 112.986 167.639 114.923 170.219 116.796L168.779 126.976C167.052 128.229 165.289 130.286 163.489 133.146C160.629 137.696 161.889 141.426 163.479 146.436C164.769 150.506 160.299 157.456 157.759 160.916L156.649 162.706C156.544 162.876 156.388 163.009 156.204 163.086C156.02 163.163 155.816 163.181 155.621 163.137C155.427 163.093 155.25 162.989 155.117 162.84C154.984 162.691 154.901 162.505 154.879 162.306C154.572 159.259 153.745 157.186 152.399 156.086C150.532 149.613 147.845 143.543 144.339 137.876C144.219 137.683 144.122 137.482 144.049 137.276C142.762 133.629 142.212 129.986 142.399 126.346C143.179 111.366 145.659 89.0061 160.449 80.6361C163.349 79.6028 166.085 79.6494 168.659 80.7761ZM154.46 121.93C153.599 122.03 152.852 122.816 152.385 124.116C151.919 125.416 151.769 127.123 151.97 128.862C152.07 129.723 152.253 130.566 152.508 131.342C152.763 132.119 153.086 132.814 153.458 133.388C153.83 133.962 154.244 134.403 154.676 134.687C155.109 134.971 155.551 135.092 155.977 135.042C156.839 134.943 157.585 134.156 158.052 132.856C158.519 131.556 158.668 129.849 158.467 128.11C158.367 127.249 158.185 126.406 157.93 125.63C157.674 124.853 157.351 124.158 156.979 123.584C156.607 123.01 156.193 122.569 155.761 122.285C155.329 122.001 154.887 121.88 154.46 121.93ZM154.529 142.446C153.465 143.729 152.897 145.355 152.929 147.026C152.982 149.706 153.465 152.086 154.379 154.166C154.524 154.489 154.78 154.749 155.099 154.9C155.418 155.05 155.78 155.081 156.119 154.986C158.119 154.419 159.172 153.326 159.279 151.706C159.512 148.26 159.452 145.006 159.099 141.946C159.056 141.579 158.906 141.232 158.668 140.949C158.43 140.666 158.115 140.459 157.76 140.354C157.406 140.248 157.028 140.249 156.674 140.356C156.32 140.463 156.005 140.672 155.769 140.956L154.529 142.446Z" fill="#E2A35E"/>
<path d="M104.039 110.186C104.092 108.906 104.042 108.106 103.889 107.786C100.755 101.479 95.6887 99.2961 88.6887 101.236C88.8554 100.316 88.1186 99.9861 86.4786 100.246C86.3338 100.269 86.1856 100.252 86.0498 100.196C85.914 100.141 85.7956 100.051 85.7074 99.9336C85.6191 99.8166 85.5642 99.6778 85.5486 99.5321C85.5329 99.3864 85.5572 99.2392 85.6186 99.1061L87.0986 95.8361C89.0319 94.0094 91.3453 93.4628 94.0387 94.1962C98.5387 95.4162 101.949 98.5761 104.269 103.676C104.399 103.962 104.437 104.284 104.379 104.596C104.159 105.809 104.242 107.323 104.629 109.136C104.749 109.709 104.552 110.059 104.039 110.186Z" fill="#D59659"/>
<path d="M104.039 110.186L95.9388 115.416C95.5455 115.729 95.0388 115.923 94.4188 115.996C93.2855 116.049 92.5054 115.769 92.0787 115.156C92.0354 115.093 92.0089 115.019 92.0019 114.943C91.9949 114.867 92.0076 114.79 92.0387 114.72C92.0697 114.65 92.1181 114.589 92.1794 114.542C92.2407 114.496 92.3128 114.467 92.3888 114.456L92.9587 114.376C93.0357 114.364 93.1072 114.329 93.1635 114.275C93.2198 114.221 93.2583 114.151 93.2735 114.075C93.2888 113.999 93.2803 113.919 93.249 113.848C93.2177 113.777 93.1652 113.717 93.0987 113.676C90.3121 111.996 88.7354 109.349 88.3687 105.736C88.3643 105.692 88.3505 105.649 88.328 105.61C88.3055 105.572 88.2748 105.538 88.2381 105.512C88.2014 105.486 88.1595 105.467 88.1148 105.457C88.0702 105.448 88.0238 105.447 87.9787 105.456L81.8988 106.656C81.7007 106.694 81.4957 106.669 81.3128 106.584C81.13 106.499 80.9786 106.358 80.8801 106.182C80.7816 106.006 80.741 105.804 80.7641 105.603C80.7872 105.403 80.8728 105.215 81.0088 105.066C82.6188 103.316 86.3888 102.076 88.6888 101.236C95.6888 99.2961 100.755 101.479 103.889 107.786C104.042 108.106 104.092 108.906 104.039 110.186ZM94.9088 105.366C94.9088 105.093 94.8002 104.831 94.607 104.638C94.4139 104.445 94.1519 104.336 93.8788 104.336C93.6056 104.336 93.3436 104.445 93.1505 104.638C92.9573 104.831 92.8487 105.093 92.8487 105.366C92.8487 105.639 92.9573 105.901 93.1505 106.094C93.3436 106.288 93.6056 106.396 93.8788 106.396C94.1519 106.396 94.4139 106.288 94.607 106.094C94.8002 105.901 94.9088 105.639 94.9088 105.366Z" fill="#301A15"/>
<path d="M178.179 102.146L183.729 104.976C183.866 105.044 183.98 105.15 184.057 105.281C184.134 105.413 184.172 105.565 184.164 105.718C184.157 105.871 184.105 106.02 184.015 106.145C183.926 106.271 183.802 106.369 183.659 106.426L183.339 106.556C182.619 106.835 181.831 106.867 181.099 106.646L177.239 105.476C177.15 105.451 177.057 105.444 176.966 105.457C176.875 105.47 176.788 105.503 176.711 105.552C176.635 105.602 176.569 105.667 176.521 105.743C176.472 105.82 176.441 105.906 176.429 105.996C175.855 110.07 174.059 113.443 171.039 116.116L170.219 116.796C167.639 114.923 165.042 112.986 162.429 110.986C159.739 108.916 161.419 106.906 163.049 104.656C166.649 99.6661 172.999 99.8661 178.179 102.146ZM171.518 104.687C171.448 104.78 171.404 104.891 171.389 105.016C171.374 105.141 171.389 105.275 171.433 105.413C171.477 105.55 171.548 105.687 171.644 105.816C171.739 105.945 171.857 106.063 171.989 106.164C172.122 106.265 172.267 106.347 172.417 106.405C172.567 106.463 172.718 106.495 172.862 106.501C173.006 106.507 173.14 106.485 173.256 106.438C173.372 106.391 173.468 106.319 173.539 106.226C173.61 106.133 173.654 106.021 173.669 105.896C173.683 105.772 173.668 105.637 173.624 105.5C173.581 105.363 173.509 105.226 173.414 105.097C173.318 104.968 173.201 104.849 173.068 104.748C172.935 104.647 172.79 104.565 172.64 104.508C172.491 104.45 172.34 104.417 172.196 104.411C172.052 104.406 171.918 104.427 171.802 104.474C171.685 104.521 171.589 104.594 171.518 104.687Z" fill="#301A15"/>
<path d="M93.8787 106.396C94.4475 106.396 94.9087 105.935 94.9087 105.366C94.9087 104.797 94.4475 104.336 93.8787 104.336C93.3098 104.336 92.8486 104.797 92.8486 105.366C92.8486 105.935 93.3098 106.396 93.8787 106.396Z" fill="#BBB0A4"/>
<path d="M173.068 104.748C172.51 104.323 171.817 104.296 171.519 104.687C171.221 105.078 171.432 105.739 171.99 106.164C172.548 106.589 173.241 106.617 173.539 106.226C173.837 105.835 173.626 105.173 173.068 104.748Z" fill="#BBB0A4"/>
<path d="M95.939 115.416C95.4723 119.269 95.7056 122.933 96.639 126.406C96.6856 132.726 97.1222 138.769 97.9489 144.536C98.9422 151.516 101.829 157.203 106.609 161.596L108.579 165.706C109.632 167.293 110.142 168.529 110.109 169.416C109.802 176.856 109.652 182.273 109.659 185.666C109.659 187.019 110.129 188.24 111.069 189.326C110.296 190.746 109.766 191.243 109.479 190.816L107.509 221.586C106.516 225.54 106.162 229.466 106.449 233.366L103.359 264.096C84.2589 257.186 67.829 250.986 53.809 238.816C49.569 235.136 45.4589 231.31 41.4789 227.336C41.0656 226.93 40.4657 226.466 39.679 225.946C39.6471 225.925 39.6091 225.915 39.5713 225.919C39.5336 225.922 39.4981 225.939 39.4705 225.967C39.4429 225.995 39.4248 226.031 39.4191 226.071C39.4134 226.111 39.4204 226.151 39.439 226.186C43.519 232.916 49.7789 239.066 55.2489 244.706C40.1489 233.853 27.9023 220.409 18.509 204.376C14.039 193.486 9.66898 181.886 9.33898 170.646C8.85898 153.796 24.399 152.046 37.309 151.306C38.1823 151.259 47.1589 151.066 64.2389 150.726C75.8389 150.496 84.5489 145.666 88.9789 134.556C91.3656 128.583 93.179 122.396 94.419 115.996C95.039 115.923 95.5457 115.729 95.939 115.416Z" fill="#F1CD99"/>
<path d="M171.039 116.116C175.589 125.006 181.079 134.166 190.129 138.646C194.689 140.899 200.533 142.079 207.659 142.186C208.053 142.193 216.229 142.166 232.189 142.106C243.909 142.066 253.549 145.216 260.779 154.796C258.153 172.989 251.793 189.826 241.699 205.306C240.833 206.639 239.219 208.599 236.859 211.186C236.633 211.432 236.439 211.704 236.279 211.996C231.319 221.026 224.539 228.286 217.019 236.426C214.679 238.959 212.129 241.086 209.369 242.806C203.303 246.586 197.409 250.043 191.689 253.176C183.769 257.516 173.766 260.996 161.679 263.616L160.169 249.406L156.619 218.936L155.899 190.156L155.709 183.866C155.696 179.173 155.656 174.879 155.589 170.986C155.549 168.459 156.406 165.353 158.159 161.666C162.466 156.693 165.563 151.106 167.449 144.906C167.696 144.086 168.119 140.449 168.719 133.996C168.723 133.953 168.719 133.91 168.707 133.869C168.694 133.828 168.674 133.79 168.647 133.757C168.62 133.724 168.587 133.698 168.549 133.679C168.512 133.66 168.471 133.648 168.429 133.646L168.119 133.636C168.069 133.633 168.02 133.647 167.981 133.677C167.942 133.706 167.917 133.749 167.909 133.796L167.539 135.886C167.531 135.938 167.506 135.986 167.468 136.022C167.43 136.059 167.381 136.082 167.328 136.088C167.275 136.095 167.22 136.085 167.172 136.059C167.124 136.034 167.084 135.994 167.059 135.946C166.633 135.086 166.656 133.916 167.129 132.436C167.649 130.829 168.199 129.009 168.779 126.976L170.219 116.796L171.039 116.116Z" fill="#F1CD99"/>
<path d="M158.467 128.11C158.048 124.489 156.254 121.722 154.46 121.93C152.666 122.137 151.551 125.241 151.97 128.862C152.389 132.483 154.183 135.25 155.977 135.042C157.771 134.835 158.886 131.731 158.467 128.11Z" fill="#A55728"/>
<path d="M113.049 122.356C115.329 125.926 114.539 129.616 112.549 133.196C112.042 134.103 111.609 134.669 111.249 134.896C110.864 135.142 110.373 135.198 109.876 135.053C109.379 134.909 108.912 134.574 108.569 134.116C107.429 132.616 106.962 130.673 107.169 128.286C107.369 125.876 110.069 123.366 111.949 122.116C112.036 122.059 112.135 122.02 112.238 122.001C112.341 121.982 112.447 121.983 112.549 122.006C112.651 122.028 112.748 122.071 112.834 122.131C112.92 122.191 112.993 122.268 113.049 122.356Z" fill="#BC6D32"/>
<path d="M106.609 161.596C101.829 157.203 98.9419 151.516 97.9486 144.536C97.1219 138.769 96.6853 132.726 96.6387 126.406C99.012 127.893 100.822 129.789 102.069 132.096C104.579 136.776 102.469 144.076 101.409 149.156C100.809 152.006 105.479 157.496 107.069 159.626C107.227 159.844 107.339 160.092 107.399 160.356C107.619 161.323 107.355 161.736 106.609 161.596Z" fill="#A55728"/>
<path d="M168.779 126.976C168.199 129.009 167.649 130.829 167.129 132.436C166.655 133.916 166.632 135.086 167.059 135.946C167.084 135.994 167.123 136.034 167.171 136.059C167.22 136.085 167.274 136.095 167.327 136.088C167.38 136.082 167.429 136.059 167.467 136.022C167.505 135.986 167.53 135.938 167.539 135.886L167.909 133.796C167.916 133.749 167.942 133.706 167.981 133.677C168.019 133.647 168.069 133.633 168.119 133.636L168.429 133.646C168.471 133.648 168.511 133.66 168.549 133.679C168.586 133.698 168.619 133.724 168.646 133.757C168.673 133.79 168.694 133.828 168.706 133.869C168.719 133.91 168.723 133.953 168.719 133.996C168.119 140.449 167.695 144.086 167.449 144.906C165.562 151.106 162.465 156.693 158.159 161.666C157.985 161.566 157.852 161.316 157.759 160.916C160.299 157.456 164.769 150.506 163.479 146.436C161.889 141.426 160.629 137.696 163.489 133.146C165.289 130.286 167.052 128.229 168.779 126.976Z" fill="#A55728"/>
<path d="M154.529 142.446L155.769 140.956C156.006 140.672 156.32 140.463 156.674 140.356C157.028 140.249 157.406 140.248 157.76 140.354C158.115 140.459 158.431 140.666 158.669 140.949C158.906 141.232 159.056 141.579 159.099 141.946C159.452 145.006 159.512 148.26 159.279 151.706C159.172 153.326 158.119 154.419 156.119 154.986C155.78 155.081 155.418 155.05 155.099 154.9C154.78 154.749 154.524 154.489 154.379 154.166C153.466 152.086 152.982 149.706 152.929 147.026C152.897 145.355 153.465 143.729 154.529 142.446Z" fill="#A55728"/>
<path d="M107.108 141.086C107.239 140.932 107.399 140.807 107.58 140.717C107.76 140.627 107.958 140.575 108.16 140.564C108.362 140.553 108.564 140.583 108.755 140.652C108.945 140.721 109.12 140.828 109.268 140.966C112.595 144.073 113.248 147.996 111.228 152.736C109.898 155.846 105.978 154.156 105.508 151.146C105.048 148.256 105.058 143.516 107.108 141.086Z" fill="#A55728"/>
<path d="M260.589 170.656L257.549 181.136C245.729 214.046 222.159 241.676 190.519 256.686L165.079 264.826C164.989 264.852 164.909 264.906 164.851 264.98C164.793 265.053 164.76 265.143 164.755 265.237C164.751 265.33 164.776 265.423 164.827 265.502C164.878 265.581 164.952 265.642 165.039 265.676C165.432 265.849 165.729 265.756 165.929 265.396C166.026 265.227 166.173 265.094 166.349 265.016C166.789 264.823 167.019 264.729 167.039 264.736C167.092 264.753 167.139 264.783 167.176 264.826C167.212 264.868 167.237 264.92 167.248 264.978C167.259 265.036 167.256 265.097 167.238 265.156C167.221 265.215 167.19 265.27 167.149 265.316L166.839 265.676C164.852 266.289 163.179 266.51 161.819 266.336L161.679 263.616C173.765 260.996 183.769 257.516 191.689 253.176C197.409 250.043 203.302 246.586 209.369 242.806C212.129 241.086 214.679 238.959 217.019 236.426C224.539 228.286 231.319 221.026 236.279 211.996C236.438 211.704 236.633 211.432 236.859 211.186C239.219 208.599 240.832 206.639 241.699 205.306C251.792 189.826 258.152 172.989 260.779 154.796L262.849 143.656C261.615 152.603 260.862 161.603 260.589 170.656Z" fill="#E5CBAC"/>
<path d="M123.879 159.136C121.932 156.856 120.443 154.396 119.409 151.756L120.139 149.686C120.202 149.508 120.302 149.344 120.432 149.207C120.561 149.069 120.719 148.96 120.894 148.887C121.069 148.814 121.258 148.777 121.448 148.781C121.638 148.784 121.826 148.827 121.999 148.906C124.739 150.159 126.406 152.366 126.999 155.526C127.272 156.959 126.956 158.099 126.049 158.946C125.209 159.719 124.486 159.783 123.879 159.136Z" fill="#4D2210"/>
<path d="M144.581 155.511C145.91 152.713 145.907 149.931 144.575 149.298C143.243 148.666 141.086 150.422 139.757 153.221C138.428 156.02 138.43 158.801 139.762 159.434C141.095 160.066 143.252 158.31 144.581 155.511Z" fill="#4D2210"/>
<path d="M119.409 151.756C120.442 154.396 121.932 156.856 123.879 159.136C123.926 159.429 123.946 159.583 123.939 159.596C123.771 159.801 123.531 159.936 123.268 159.973C123.005 160.01 122.738 159.947 122.519 159.796C120.152 158.183 118.692 155.869 118.139 152.856C118.114 152.711 118.122 152.562 118.163 152.421C118.204 152.28 118.277 152.15 118.376 152.042C118.474 151.934 118.596 151.85 118.732 151.797C118.868 151.744 119.014 151.723 119.159 151.736L119.409 151.756Z" fill="#E4C395"/>
<path d="M132.158 184.576C140.338 184.706 147.728 180.016 153.048 173.086C153.102 173.027 153.174 172.988 153.253 172.977C153.331 172.965 153.411 172.982 153.479 173.024C153.547 173.065 153.598 173.129 153.624 173.205C153.649 173.28 153.647 173.362 153.618 173.436C151.625 177.643 148.505 181.226 144.258 184.186C140.485 186.813 136.432 188.089 132.098 188.016C127.765 187.949 123.755 186.543 120.068 183.796C115.922 180.703 112.922 177.019 111.068 172.746C111.043 172.671 111.045 172.59 111.073 172.517C111.101 172.443 111.154 172.381 111.223 172.342C111.291 172.303 111.371 172.29 111.449 172.303C111.526 172.316 111.597 172.356 111.648 172.416C116.738 179.516 123.978 184.446 132.158 184.576Z" fill="#693623"/>
<path d="M155.709 183.866L155.899 190.156C153.272 190.796 151.419 191.836 150.339 193.276C148.926 195.163 148.216 197.406 148.209 200.006C148.202 201.919 148.816 204.196 150.049 206.836C151.876 210.73 154.066 214.763 156.619 218.936L160.169 249.406L158.969 245.876C158.955 245.834 158.929 245.797 158.893 245.771C158.857 245.744 158.813 245.73 158.769 245.73C158.724 245.73 158.681 245.744 158.645 245.771C158.609 245.797 158.583 245.834 158.569 245.876C156.729 251.116 157.279 257.926 157.579 263.706L157.599 265.966C157.605 266.276 157.499 266.578 157.299 266.816C156.659 267.556 155.746 267.909 154.559 267.876C153.626 261.603 153.222 255.353 153.349 249.126C153.351 248.958 153.314 248.791 153.242 248.639C153.169 248.486 153.062 248.353 152.93 248.249C152.798 248.144 152.643 248.072 152.478 248.037C152.313 248.002 152.142 248.005 151.979 248.046C147.679 249.156 143.319 250.616 141.569 255.016C140.069 258.756 138.999 262.759 138.359 267.026C138.339 267.679 138.222 268.249 138.009 268.736L126.319 270.396C120.006 270.156 113.966 269.216 108.199 267.576C108.446 261.576 108.386 257.273 108.019 254.666C107.032 247.673 106.509 240.573 106.449 233.366C106.162 229.466 106.516 225.54 107.509 221.586C109.936 225.926 113.356 227.869 117.769 227.416C118.095 227.377 118.398 227.245 118.639 227.036C123.712 222.636 124.812 217.226 121.939 210.806C120.259 207.039 118.569 203.206 116.869 199.306C115.642 196.499 113.179 193.669 109.479 190.816C109.766 191.243 110.296 190.746 111.069 189.326C113.119 191.566 114.749 193.976 117.459 193.756C117.616 193.742 117.765 193.678 117.885 193.574C118.005 193.47 118.09 193.331 118.129 193.176L118.879 190.166C118.914 190.022 118.988 189.89 119.092 189.785C119.196 189.679 119.327 189.604 119.471 189.567C119.615 189.53 119.766 189.533 119.908 189.575C120.05 189.617 120.178 189.697 120.279 189.806C121.266 190.879 121.816 191.993 121.929 193.146C122.102 196.326 122.696 199.439 123.709 202.486C125.439 207.706 129.809 207.776 134.509 207.056C141.279 206.006 141.389 199.656 142.069 193.956C142.629 193.536 143.109 193.006 143.759 192.736C149.066 190.536 153.049 187.579 155.709 183.866ZM147.529 212.246C147.302 211.882 146.967 211.597 146.571 211.432C146.175 211.267 145.737 211.23 145.319 211.326C143.819 211.666 141.459 212.233 138.239 213.026C125.269 216.216 129.439 236.296 136.259 242.356C137.559 243.516 138.642 243.996 139.509 243.796C144.339 242.666 152.409 238.936 152.749 233.166C153.202 225.566 151.462 218.593 147.529 212.246ZM119.039 233.656C117.059 232.336 114.729 233.756 113.879 235.596C110.619 242.676 112.739 253.256 115.529 260.746C116.979 264.636 119.259 266.506 123.409 266.096C128.589 265.576 132.709 254.996 131.909 250.336C131.042 245.316 128.742 241.176 125.009 237.916C124.036 237.063 122.046 235.643 119.039 233.656Z" fill="#F5C470"/>
<path d="M155.899 190.156L156.619 218.936C154.066 214.763 151.876 210.73 150.049 206.836C148.816 204.196 148.202 201.919 148.209 200.006C148.216 197.406 148.926 195.163 150.339 193.276C151.419 191.836 153.272 190.796 155.899 190.156Z" fill="#894020"/>
<path d="M107.509 221.586L109.479 190.816C113.179 193.669 115.642 196.499 116.869 199.306C118.569 203.206 120.259 207.039 121.939 210.806C124.812 217.226 123.712 222.636 118.639 227.036C118.397 227.245 118.094 227.377 117.769 227.416C113.355 227.869 109.935 225.926 107.509 221.586Z" fill="#A55728"/>
<path d="M142.069 193.956C141.389 199.656 141.279 206.006 134.509 207.056C129.809 207.776 125.439 207.706 123.709 202.486C122.696 199.439 122.103 196.326 121.929 193.146C121.896 192.686 121.952 192.339 122.099 192.106C122.266 191.819 122.572 191.773 123.019 191.966C128.149 194.146 134.409 193.426 140.749 192.926C141.549 192.86 141.989 193.203 142.069 193.956Z" fill="#894020"/>
<path d="M147.528 212.246C151.462 218.593 153.202 225.566 152.748 233.166C152.408 238.936 144.338 242.666 139.508 243.796C138.642 243.996 137.558 243.516 136.258 242.356C129.438 236.296 125.268 216.216 138.238 213.026C141.458 212.233 143.818 211.666 145.318 211.326C145.737 211.23 146.175 211.267 146.571 211.432C146.967 211.597 147.302 211.882 147.528 212.246Z" fill="#894020"/>
<path d="M103.359 264.096L103.329 266.376C102.962 266.916 102.599 266.963 102.239 266.516C92.7988 264.236 83.6321 260.939 74.7388 256.626C67.8921 253.226 61.3954 249.253 55.2488 244.706C49.7788 239.066 43.5188 232.916 39.4388 226.186C39.4202 226.151 39.4132 226.11 39.4189 226.071C39.4246 226.031 39.4427 225.994 39.4703 225.967C39.4979 225.939 39.5334 225.922 39.5712 225.919C39.6089 225.915 39.6469 225.924 39.6788 225.946C40.4655 226.466 41.0654 226.929 41.4787 227.336C45.4587 231.309 49.5688 235.136 53.8088 238.816C67.8288 250.986 84.2587 257.186 103.359 264.096Z" fill="#E4C395"/>
<path d="M108.199 267.576C105.886 267.59 104.262 267.189 103.329 266.376L103.359 264.096L106.449 233.366C106.509 240.573 107.032 247.673 108.019 254.666C108.386 257.273 108.446 261.576 108.199 267.576Z" fill="#894020"/>
<path d="M113.879 235.596C114.729 233.756 117.059 232.336 119.039 233.656C122.046 235.643 124.036 237.063 125.009 237.916C128.743 241.176 131.043 245.316 131.909 250.336C132.709 254.996 128.589 265.576 123.409 266.096C119.259 266.506 116.979 264.636 115.529 260.746C112.739 253.256 110.619 242.676 113.879 235.596Z" fill="#A55728"/>
<path d="M160.169 249.406L161.679 263.616L161.819 266.336C160.606 267.296 159.422 267.613 158.269 267.286C158.123 267.245 157.994 267.159 157.899 267.041C157.804 266.922 157.748 266.778 157.739 266.626L157.579 263.706C157.279 257.926 156.729 251.116 158.569 245.876C158.583 245.834 158.609 245.797 158.645 245.771C158.681 245.744 158.725 245.73 158.769 245.73C158.814 245.73 158.857 245.744 158.893 245.771C158.929 245.797 158.955 245.834 158.969 245.876L160.169 249.406Z" fill="#894020"/>
<path d="M154.558 267.876C154.512 268.136 154.348 268.309 154.068 268.396C149.102 266.389 143.865 265.933 138.358 267.026C138.998 262.759 140.068 258.756 141.568 255.016C143.318 250.616 147.678 249.156 151.978 248.046C152.142 248.005 152.313 248.001 152.478 248.037C152.642 248.072 152.797 248.144 152.929 248.249C153.062 248.353 153.169 248.486 153.241 248.639C153.314 248.791 153.35 248.957 153.348 249.126C153.222 255.353 153.625 261.603 154.558 267.876Z" fill="#894020"/>
<path d="M190.519 256.686C182.885 260.553 174.992 263.549 166.839 265.676L167.149 265.316C167.19 265.27 167.221 265.215 167.238 265.156C167.255 265.097 167.259 265.036 167.248 264.978C167.237 264.92 167.212 264.868 167.175 264.826C167.139 264.783 167.092 264.753 167.039 264.736C167.019 264.729 166.789 264.823 166.349 265.016C166.173 265.094 166.026 265.227 165.929 265.396C165.729 265.756 165.432 265.849 165.039 265.676C164.952 265.642 164.877 265.581 164.827 265.502C164.776 265.423 164.751 265.33 164.755 265.237C164.76 265.143 164.793 265.053 164.851 264.98C164.909 264.906 164.989 264.852 165.079 264.826L190.519 256.686Z" fill="#E4C395"/>
<path d="M154.069 268.396C150.669 269.716 147.389 269.366 143.829 269.676C143.785 269.68 143.741 269.69 143.7 269.704C143.659 269.719 143.622 269.739 143.594 269.761C143.566 269.783 143.547 269.807 143.539 269.831C143.531 269.854 143.534 269.877 143.549 269.896C143.569 269.916 143.599 269.94 143.639 269.966C143.645 269.971 143.649 269.976 143.652 269.983C143.655 269.99 143.656 269.997 143.655 270.004C143.654 270.011 143.651 270.018 143.646 270.024C143.642 270.029 143.636 270.034 143.629 270.036L138.069 270.456L138.009 268.736C138.222 268.249 138.339 267.679 138.359 267.026C143.865 265.933 149.102 266.389 154.069 268.396Z" fill="#925738"/>
<path d="M138.008 268.736L138.068 270.456C134.175 270.956 130.258 270.936 126.318 270.396L138.008 268.736Z" fill="#DBB788"/>
</svg>
